%TF.GenerationSoftware,KiCad,Pcbnew,8.0.4*%
%TF.CreationDate,2024-09-10T22:18:47+03:00*%
%TF.ProjectId,muikku42,6d75696b-6b75-4343-922e-6b696361645f,rev?*%
%TF.SameCoordinates,Original*%
%TF.FileFunction,Drillmap*%
%TF.FilePolarity,Positive*%
%FSLAX45Y45*%
G04 Gerber Fmt 4.5, Leading zero omitted, Abs format (unit mm)*
G04 Created by KiCad (PCBNEW 8.0.4) date 2024-09-10 22:18:47*
%MOMM*%
%LPD*%
G01*
G04 APERTURE LIST*
%ADD10C,0.050000*%
%ADD11C,0.200000*%
%ADD12C,0.120000*%
%ADD13C,0.170180*%
%ADD14C,0.220000*%
%ADD15C,0.398780*%
G04 APERTURE END LIST*
D10*
X16668750Y-6667500D02*
X17740313Y-6667500D01*
X17740313Y-7164687D01*
X16668750Y-7164687D01*
X16668750Y-6667500D01*
X14763750Y-4405313D02*
X16668750Y-4405313D01*
X17145000Y-4762500D01*
X18097500Y-4762500D01*
X18335625Y-5000625D01*
X18335625Y-8096250D01*
X17859375Y-8334375D01*
X17859375Y-10477500D01*
X17502188Y-10715625D01*
X17502188Y-11787187D01*
X16311562Y-13811250D01*
X15716250Y-13811250D01*
X14168437Y-12858750D01*
X12382500Y-12382500D01*
X10358438Y-12382500D01*
X10120313Y-12144375D01*
X10120313Y-10953750D01*
X9882188Y-10715625D01*
X8572500Y-10715625D01*
X8334375Y-10953750D01*
X4762500Y-10953750D01*
X4405313Y-10596563D01*
X4405313Y-4643438D01*
X4643438Y-4405313D01*
X5238750Y-4405313D01*
X5476875Y-4524375D01*
X8215312Y-4524375D01*
X8453438Y-4405313D01*
X10001250Y-4405313D01*
X10358438Y-4167187D01*
X14525625Y-4167187D01*
X14763750Y-4405313D01*
D11*
D12*
X16359687Y-9933125D02*
X16479687Y-10053125D01*
X16479687Y-9933125D02*
X16359687Y-10053125D01*
X16359688Y-9107812D02*
X16479688Y-9227812D01*
X16479688Y-9107812D02*
X16359688Y-9227812D01*
X17059688Y-9933125D02*
X17179688Y-10053125D01*
X17179688Y-9933125D02*
X17059688Y-10053125D01*
X17059688Y-9107812D02*
X17179688Y-9227812D01*
X17179688Y-9107812D02*
X17059688Y-9227812D01*
D13*
X5292090Y-5715000D02*
G75*
G02*
X5121910Y-5715000I-85090J0D01*
G01*
X5121910Y-5715000D02*
G75*
G02*
X5292090Y-5715000I85090J0D01*
G01*
X5292090Y-7620000D02*
G75*
G02*
X5121910Y-7620000I-85090J0D01*
G01*
X5121910Y-7620000D02*
G75*
G02*
X5292090Y-7620000I85090J0D01*
G01*
X5292090Y-9525000D02*
G75*
G02*
X5121910Y-9525000I-85090J0D01*
G01*
X5121910Y-9525000D02*
G75*
G02*
X5292090Y-9525000I85090J0D01*
G01*
X6308090Y-5715000D02*
G75*
G02*
X6137910Y-5715000I-85090J0D01*
G01*
X6137910Y-5715000D02*
G75*
G02*
X6308090Y-5715000I85090J0D01*
G01*
X6308090Y-7620000D02*
G75*
G02*
X6137910Y-7620000I-85090J0D01*
G01*
X6137910Y-7620000D02*
G75*
G02*
X6308090Y-7620000I85090J0D01*
G01*
X6308090Y-9525000D02*
G75*
G02*
X6137910Y-9525000I-85090J0D01*
G01*
X6137910Y-9525000D02*
G75*
G02*
X6308090Y-9525000I85090J0D01*
G01*
X7197090Y-5715000D02*
G75*
G02*
X7026910Y-5715000I-85090J0D01*
G01*
X7026910Y-5715000D02*
G75*
G02*
X7197090Y-5715000I85090J0D01*
G01*
X7197090Y-7620000D02*
G75*
G02*
X7026910Y-7620000I-85090J0D01*
G01*
X7026910Y-7620000D02*
G75*
G02*
X7197090Y-7620000I85090J0D01*
G01*
X7197090Y-9525000D02*
G75*
G02*
X7026910Y-9525000I-85090J0D01*
G01*
X7026910Y-9525000D02*
G75*
G02*
X7197090Y-9525000I85090J0D01*
G01*
X8213090Y-5715000D02*
G75*
G02*
X8042910Y-5715000I-85090J0D01*
G01*
X8042910Y-5715000D02*
G75*
G02*
X8213090Y-5715000I85090J0D01*
G01*
X8213090Y-7620000D02*
G75*
G02*
X8042910Y-7620000I-85090J0D01*
G01*
X8042910Y-7620000D02*
G75*
G02*
X8213090Y-7620000I85090J0D01*
G01*
X8213090Y-9525000D02*
G75*
G02*
X8042910Y-9525000I-85090J0D01*
G01*
X8042910Y-9525000D02*
G75*
G02*
X8213090Y-9525000I85090J0D01*
G01*
X9102090Y-5476875D02*
G75*
G02*
X8931910Y-5476875I-85090J0D01*
G01*
X8931910Y-5476875D02*
G75*
G02*
X9102090Y-5476875I85090J0D01*
G01*
X9102090Y-7381875D02*
G75*
G02*
X8931910Y-7381875I-85090J0D01*
G01*
X8931910Y-7381875D02*
G75*
G02*
X9102090Y-7381875I85090J0D01*
G01*
X9102090Y-9286875D02*
G75*
G02*
X8931910Y-9286875I-85090J0D01*
G01*
X8931910Y-9286875D02*
G75*
G02*
X9102090Y-9286875I85090J0D01*
G01*
X10118090Y-5476875D02*
G75*
G02*
X9947910Y-5476875I-85090J0D01*
G01*
X9947910Y-5476875D02*
G75*
G02*
X10118090Y-5476875I85090J0D01*
G01*
X10118090Y-7381875D02*
G75*
G02*
X9947910Y-7381875I-85090J0D01*
G01*
X9947910Y-7381875D02*
G75*
G02*
X10118090Y-7381875I85090J0D01*
G01*
X10118090Y-9286875D02*
G75*
G02*
X9947910Y-9286875I-85090J0D01*
G01*
X9947910Y-9286875D02*
G75*
G02*
X10118090Y-9286875I85090J0D01*
G01*
X11007090Y-5238750D02*
G75*
G02*
X10836910Y-5238750I-85090J0D01*
G01*
X10836910Y-5238750D02*
G75*
G02*
X11007090Y-5238750I85090J0D01*
G01*
X11007090Y-7143750D02*
G75*
G02*
X10836910Y-7143750I-85090J0D01*
G01*
X10836910Y-7143750D02*
G75*
G02*
X11007090Y-7143750I85090J0D01*
G01*
X11007090Y-9048750D02*
G75*
G02*
X10836910Y-9048750I-85090J0D01*
G01*
X10836910Y-9048750D02*
G75*
G02*
X11007090Y-9048750I85090J0D01*
G01*
X11007090Y-11191875D02*
G75*
G02*
X10836910Y-11191875I-85090J0D01*
G01*
X10836910Y-11191875D02*
G75*
G02*
X11007090Y-11191875I85090J0D01*
G01*
X12023090Y-5238750D02*
G75*
G02*
X11852910Y-5238750I-85090J0D01*
G01*
X11852910Y-5238750D02*
G75*
G02*
X12023090Y-5238750I85090J0D01*
G01*
X12023090Y-7143750D02*
G75*
G02*
X11852910Y-7143750I-85090J0D01*
G01*
X11852910Y-7143750D02*
G75*
G02*
X12023090Y-7143750I85090J0D01*
G01*
X12023090Y-9048750D02*
G75*
G02*
X11852910Y-9048750I-85090J0D01*
G01*
X11852910Y-9048750D02*
G75*
G02*
X12023090Y-9048750I85090J0D01*
G01*
X12023090Y-11191875D02*
G75*
G02*
X11852910Y-11191875I-85090J0D01*
G01*
X11852910Y-11191875D02*
G75*
G02*
X12023090Y-11191875I85090J0D01*
G01*
X12912090Y-5476875D02*
G75*
G02*
X12741910Y-5476875I-85090J0D01*
G01*
X12741910Y-5476875D02*
G75*
G02*
X12912090Y-5476875I85090J0D01*
G01*
X12912090Y-7381875D02*
G75*
G02*
X12741910Y-7381875I-85090J0D01*
G01*
X12741910Y-7381875D02*
G75*
G02*
X12912090Y-7381875I85090J0D01*
G01*
X12912090Y-9286875D02*
G75*
G02*
X12741910Y-9286875I-85090J0D01*
G01*
X12741910Y-9286875D02*
G75*
G02*
X12912090Y-9286875I85090J0D01*
G01*
X13167525Y-11298520D02*
G75*
G02*
X12997345Y-11298520I-85090J0D01*
G01*
X12997345Y-11298520D02*
G75*
G02*
X13167525Y-11298520I85090J0D01*
G01*
X13928090Y-5476875D02*
G75*
G02*
X13757910Y-5476875I-85090J0D01*
G01*
X13757910Y-5476875D02*
G75*
G02*
X13928090Y-5476875I85090J0D01*
G01*
X13928090Y-7381875D02*
G75*
G02*
X13757910Y-7381875I-85090J0D01*
G01*
X13757910Y-7381875D02*
G75*
G02*
X13928090Y-7381875I85090J0D01*
G01*
X13928090Y-9286875D02*
G75*
G02*
X13757910Y-9286875I-85090J0D01*
G01*
X13757910Y-9286875D02*
G75*
G02*
X13928090Y-9286875I85090J0D01*
G01*
X14148905Y-11561480D02*
G75*
G02*
X13978725Y-11561480I-85090J0D01*
G01*
X13978725Y-11561480D02*
G75*
G02*
X14148905Y-11561480I85090J0D01*
G01*
X14817090Y-5715000D02*
G75*
G02*
X14646910Y-5715000I-85090J0D01*
G01*
X14646910Y-5715000D02*
G75*
G02*
X14817090Y-5715000I85090J0D01*
G01*
X14817090Y-7620000D02*
G75*
G02*
X14646910Y-7620000I-85090J0D01*
G01*
X14646910Y-7620000D02*
G75*
G02*
X14817090Y-7620000I85090J0D01*
G01*
X14817090Y-9525000D02*
G75*
G02*
X14646910Y-9525000I-85090J0D01*
G01*
X14646910Y-9525000D02*
G75*
G02*
X14817090Y-9525000I85090J0D01*
G01*
X15361399Y-11890375D02*
G75*
G02*
X15191219Y-11890375I-85090J0D01*
G01*
X15191219Y-11890375D02*
G75*
G02*
X15361399Y-11890375I85090J0D01*
G01*
X15833090Y-5715000D02*
G75*
G02*
X15662910Y-5715000I-85090J0D01*
G01*
X15662910Y-5715000D02*
G75*
G02*
X15833090Y-5715000I85090J0D01*
G01*
X15833090Y-7620000D02*
G75*
G02*
X15662910Y-7620000I-85090J0D01*
G01*
X15662910Y-7620000D02*
G75*
G02*
X15833090Y-7620000I85090J0D01*
G01*
X15833090Y-9525000D02*
G75*
G02*
X15662910Y-9525000I-85090J0D01*
G01*
X15662910Y-9525000D02*
G75*
G02*
X15833090Y-9525000I85090J0D01*
G01*
X16241281Y-12398375D02*
G75*
G02*
X16071101Y-12398375I-85090J0D01*
G01*
X16071101Y-12398375D02*
G75*
G02*
X16241281Y-12398375I85090J0D01*
G01*
D14*
X4762500Y-4652500D02*
X4762500Y-4872500D01*
X4652500Y-4762500D02*
X4872500Y-4762500D01*
X4762500Y-10367500D02*
X4762500Y-10587500D01*
X4652500Y-10477500D02*
X4872500Y-10477500D01*
X10477500Y-8105312D02*
X10477500Y-8325312D01*
X10367500Y-8215312D02*
X10587500Y-8215312D01*
X10477500Y-12034375D02*
X10477500Y-12254375D01*
X10367500Y-12144375D02*
X10587500Y-12144375D01*
X16073437Y-13344062D02*
X16073437Y-13564062D01*
X15963437Y-13454062D02*
X16183437Y-13454062D01*
X16192500Y-4652500D02*
X16192500Y-4872500D01*
X16082500Y-4762500D02*
X16302500Y-4762500D01*
D15*
X5855991Y-5855991D02*
X5855991Y-5574009D01*
X5574009Y-5574009D01*
X5574009Y-5855991D01*
X5855991Y-5855991D01*
X5855991Y-7760991D02*
X5855991Y-7479009D01*
X5574009Y-7479009D01*
X5574009Y-7760991D01*
X5855991Y-7760991D01*
X5855991Y-9665991D02*
X5855991Y-9384009D01*
X5574009Y-9384009D01*
X5574009Y-9665991D01*
X5855991Y-9665991D01*
X7760991Y-5855991D02*
X7760991Y-5574009D01*
X7479009Y-5574009D01*
X7479009Y-5855991D01*
X7760991Y-5855991D01*
X7760991Y-7760991D02*
X7760991Y-7479009D01*
X7479009Y-7479009D01*
X7479009Y-7760991D01*
X7760991Y-7760991D01*
X7760991Y-9665991D02*
X7760991Y-9384009D01*
X7479009Y-9384009D01*
X7479009Y-9665991D01*
X7760991Y-9665991D01*
X9665991Y-5617866D02*
X9665991Y-5335884D01*
X9384009Y-5335884D01*
X9384009Y-5617866D01*
X9665991Y-5617866D01*
X9665991Y-7522866D02*
X9665991Y-7240884D01*
X9384009Y-7240884D01*
X9384009Y-7522866D01*
X9665991Y-7522866D01*
X9665991Y-9427866D02*
X9665991Y-9145884D01*
X9384009Y-9145884D01*
X9384009Y-9427866D01*
X9665991Y-9427866D01*
X11570991Y-5379741D02*
X11570991Y-5097759D01*
X11289009Y-5097759D01*
X11289009Y-5379741D01*
X11570991Y-5379741D01*
X11570991Y-7284741D02*
X11570991Y-7002759D01*
X11289009Y-7002759D01*
X11289009Y-7284741D01*
X11570991Y-7284741D01*
X11570991Y-9189741D02*
X11570991Y-8907759D01*
X11289009Y-8907759D01*
X11289009Y-9189741D01*
X11570991Y-9189741D01*
X11570991Y-11332866D02*
X11570991Y-11050884D01*
X11289009Y-11050884D01*
X11289009Y-11332866D01*
X11570991Y-11332866D01*
X13475991Y-5617866D02*
X13475991Y-5335884D01*
X13194009Y-5335884D01*
X13194009Y-5617866D01*
X13475991Y-5617866D01*
X13475991Y-7522866D02*
X13475991Y-7240884D01*
X13194009Y-7240884D01*
X13194009Y-7522866D01*
X13475991Y-7522866D01*
X13475991Y-9427866D02*
X13475991Y-9145884D01*
X13194009Y-9145884D01*
X13194009Y-9427866D01*
X13475991Y-9427866D01*
X13714116Y-11570991D02*
X13714116Y-11289009D01*
X13432134Y-11289009D01*
X13432134Y-11570991D01*
X13714116Y-11570991D01*
X15380991Y-5855991D02*
X15380991Y-5574009D01*
X15099009Y-5574009D01*
X15099009Y-5855991D01*
X15380991Y-5855991D01*
X15380991Y-7760991D02*
X15380991Y-7479009D01*
X15099009Y-7479009D01*
X15099009Y-7760991D01*
X15380991Y-7760991D01*
X15380991Y-9665991D02*
X15380991Y-9384009D01*
X15099009Y-9384009D01*
X15099009Y-9665991D01*
X15380991Y-9665991D01*
X15857241Y-12285366D02*
X15857241Y-12003384D01*
X15575259Y-12003384D01*
X15575259Y-12285366D01*
X15857241Y-12285366D01*
D11*
X4663589Y-14125234D02*
X4663589Y-13925234D01*
X4663589Y-13925234D02*
X4711208Y-13925234D01*
X4711208Y-13925234D02*
X4739780Y-13934758D01*
X4739780Y-13934758D02*
X4758827Y-13953805D01*
X4758827Y-13953805D02*
X4768351Y-13972853D01*
X4768351Y-13972853D02*
X4777875Y-14010948D01*
X4777875Y-14010948D02*
X4777875Y-14039519D01*
X4777875Y-14039519D02*
X4768351Y-14077615D01*
X4768351Y-14077615D02*
X4758827Y-14096662D01*
X4758827Y-14096662D02*
X4739780Y-14115710D01*
X4739780Y-14115710D02*
X4711208Y-14125234D01*
X4711208Y-14125234D02*
X4663589Y-14125234D01*
X4863589Y-14125234D02*
X4863589Y-13991900D01*
X4863589Y-14029996D02*
X4873113Y-14010948D01*
X4873113Y-14010948D02*
X4882637Y-14001424D01*
X4882637Y-14001424D02*
X4901685Y-13991900D01*
X4901685Y-13991900D02*
X4920732Y-13991900D01*
X4987399Y-14125234D02*
X4987399Y-13991900D01*
X4987399Y-13925234D02*
X4977875Y-13934758D01*
X4977875Y-13934758D02*
X4987399Y-13944281D01*
X4987399Y-13944281D02*
X4996923Y-13934758D01*
X4996923Y-13934758D02*
X4987399Y-13925234D01*
X4987399Y-13925234D02*
X4987399Y-13944281D01*
X5111208Y-14125234D02*
X5092161Y-14115710D01*
X5092161Y-14115710D02*
X5082637Y-14096662D01*
X5082637Y-14096662D02*
X5082637Y-13925234D01*
X5215970Y-14125234D02*
X5196923Y-14115710D01*
X5196923Y-14115710D02*
X5187399Y-14096662D01*
X5187399Y-14096662D02*
X5187399Y-13925234D01*
X5444542Y-14125234D02*
X5444542Y-13925234D01*
X5444542Y-13925234D02*
X5511208Y-14068091D01*
X5511208Y-14068091D02*
X5577875Y-13925234D01*
X5577875Y-13925234D02*
X5577875Y-14125234D01*
X5758827Y-14125234D02*
X5758827Y-14020472D01*
X5758827Y-14020472D02*
X5749304Y-14001424D01*
X5749304Y-14001424D02*
X5730256Y-13991900D01*
X5730256Y-13991900D02*
X5692161Y-13991900D01*
X5692161Y-13991900D02*
X5673113Y-14001424D01*
X5758827Y-14115710D02*
X5739780Y-14125234D01*
X5739780Y-14125234D02*
X5692161Y-14125234D01*
X5692161Y-14125234D02*
X5673113Y-14115710D01*
X5673113Y-14115710D02*
X5663589Y-14096662D01*
X5663589Y-14096662D02*
X5663589Y-14077615D01*
X5663589Y-14077615D02*
X5673113Y-14058567D01*
X5673113Y-14058567D02*
X5692161Y-14049043D01*
X5692161Y-14049043D02*
X5739780Y-14049043D01*
X5739780Y-14049043D02*
X5758827Y-14039519D01*
X5854065Y-13991900D02*
X5854065Y-14191900D01*
X5854065Y-14001424D02*
X5873113Y-13991900D01*
X5873113Y-13991900D02*
X5911208Y-13991900D01*
X5911208Y-13991900D02*
X5930256Y-14001424D01*
X5930256Y-14001424D02*
X5939780Y-14010948D01*
X5939780Y-14010948D02*
X5949304Y-14029996D01*
X5949304Y-14029996D02*
X5949304Y-14087138D01*
X5949304Y-14087138D02*
X5939780Y-14106186D01*
X5939780Y-14106186D02*
X5930256Y-14115710D01*
X5930256Y-14115710D02*
X5911208Y-14125234D01*
X5911208Y-14125234D02*
X5873113Y-14125234D01*
X5873113Y-14125234D02*
X5854065Y-14115710D01*
X6035018Y-14106186D02*
X6044542Y-14115710D01*
X6044542Y-14115710D02*
X6035018Y-14125234D01*
X6035018Y-14125234D02*
X6025494Y-14115710D01*
X6025494Y-14115710D02*
X6035018Y-14106186D01*
X6035018Y-14106186D02*
X6035018Y-14125234D01*
X6035018Y-14001424D02*
X6044542Y-14010948D01*
X6044542Y-14010948D02*
X6035018Y-14020472D01*
X6035018Y-14020472D02*
X6025494Y-14010948D01*
X6025494Y-14010948D02*
X6035018Y-14001424D01*
X6035018Y-14001424D02*
X6035018Y-14020472D01*
D12*
X4282813Y-14393750D02*
X4402813Y-14513750D01*
X4402813Y-14393750D02*
X4282813Y-14513750D01*
D11*
X4768351Y-14545234D02*
X4654066Y-14545234D01*
X4711208Y-14545234D02*
X4711208Y-14345234D01*
X4711208Y-14345234D02*
X4692161Y-14373805D01*
X4692161Y-14373805D02*
X4673113Y-14392853D01*
X4673113Y-14392853D02*
X4654066Y-14402377D01*
X4854066Y-14526186D02*
X4863589Y-14535710D01*
X4863589Y-14535710D02*
X4854066Y-14545234D01*
X4854066Y-14545234D02*
X4844542Y-14535710D01*
X4844542Y-14535710D02*
X4854066Y-14526186D01*
X4854066Y-14526186D02*
X4854066Y-14545234D01*
X4939780Y-14364281D02*
X4949304Y-14354758D01*
X4949304Y-14354758D02*
X4968351Y-14345234D01*
X4968351Y-14345234D02*
X5015970Y-14345234D01*
X5015970Y-14345234D02*
X5035018Y-14354758D01*
X5035018Y-14354758D02*
X5044542Y-14364281D01*
X5044542Y-14364281D02*
X5054066Y-14383329D01*
X5054066Y-14383329D02*
X5054066Y-14402377D01*
X5054066Y-14402377D02*
X5044542Y-14430948D01*
X5044542Y-14430948D02*
X4930256Y-14545234D01*
X4930256Y-14545234D02*
X5054066Y-14545234D01*
X5177875Y-14345234D02*
X5196923Y-14345234D01*
X5196923Y-14345234D02*
X5215970Y-14354758D01*
X5215970Y-14354758D02*
X5225494Y-14364281D01*
X5225494Y-14364281D02*
X5235018Y-14383329D01*
X5235018Y-14383329D02*
X5244542Y-14421424D01*
X5244542Y-14421424D02*
X5244542Y-14469043D01*
X5244542Y-14469043D02*
X5235018Y-14507138D01*
X5235018Y-14507138D02*
X5225494Y-14526186D01*
X5225494Y-14526186D02*
X5215970Y-14535710D01*
X5215970Y-14535710D02*
X5196923Y-14545234D01*
X5196923Y-14545234D02*
X5177875Y-14545234D01*
X5177875Y-14545234D02*
X5158827Y-14535710D01*
X5158827Y-14535710D02*
X5149304Y-14526186D01*
X5149304Y-14526186D02*
X5139780Y-14507138D01*
X5139780Y-14507138D02*
X5130256Y-14469043D01*
X5130256Y-14469043D02*
X5130256Y-14421424D01*
X5130256Y-14421424D02*
X5139780Y-14383329D01*
X5139780Y-14383329D02*
X5149304Y-14364281D01*
X5149304Y-14364281D02*
X5158827Y-14354758D01*
X5158827Y-14354758D02*
X5177875Y-14345234D01*
X5368351Y-14345234D02*
X5387399Y-14345234D01*
X5387399Y-14345234D02*
X5406447Y-14354758D01*
X5406447Y-14354758D02*
X5415970Y-14364281D01*
X5415970Y-14364281D02*
X5425494Y-14383329D01*
X5425494Y-14383329D02*
X5435018Y-14421424D01*
X5435018Y-14421424D02*
X5435018Y-14469043D01*
X5435018Y-14469043D02*
X5425494Y-14507138D01*
X5425494Y-14507138D02*
X5415970Y-14526186D01*
X5415970Y-14526186D02*
X5406447Y-14535710D01*
X5406447Y-14535710D02*
X5387399Y-14545234D01*
X5387399Y-14545234D02*
X5368351Y-14545234D01*
X5368351Y-14545234D02*
X5349304Y-14535710D01*
X5349304Y-14535710D02*
X5339780Y-14526186D01*
X5339780Y-14526186D02*
X5330256Y-14507138D01*
X5330256Y-14507138D02*
X5320732Y-14469043D01*
X5320732Y-14469043D02*
X5320732Y-14421424D01*
X5320732Y-14421424D02*
X5330256Y-14383329D01*
X5330256Y-14383329D02*
X5339780Y-14364281D01*
X5339780Y-14364281D02*
X5349304Y-14354758D01*
X5349304Y-14354758D02*
X5368351Y-14345234D01*
X5520732Y-14545234D02*
X5520732Y-14411900D01*
X5520732Y-14430948D02*
X5530256Y-14421424D01*
X5530256Y-14421424D02*
X5549304Y-14411900D01*
X5549304Y-14411900D02*
X5577875Y-14411900D01*
X5577875Y-14411900D02*
X5596923Y-14421424D01*
X5596923Y-14421424D02*
X5606446Y-14440472D01*
X5606446Y-14440472D02*
X5606446Y-14545234D01*
X5606446Y-14440472D02*
X5615970Y-14421424D01*
X5615970Y-14421424D02*
X5635018Y-14411900D01*
X5635018Y-14411900D02*
X5663589Y-14411900D01*
X5663589Y-14411900D02*
X5682637Y-14421424D01*
X5682637Y-14421424D02*
X5692161Y-14440472D01*
X5692161Y-14440472D02*
X5692161Y-14545234D01*
X5787399Y-14545234D02*
X5787399Y-14411900D01*
X5787399Y-14430948D02*
X5796923Y-14421424D01*
X5796923Y-14421424D02*
X5815970Y-14411900D01*
X5815970Y-14411900D02*
X5844542Y-14411900D01*
X5844542Y-14411900D02*
X5863589Y-14421424D01*
X5863589Y-14421424D02*
X5873113Y-14440472D01*
X5873113Y-14440472D02*
X5873113Y-14545234D01*
X5873113Y-14440472D02*
X5882637Y-14421424D01*
X5882637Y-14421424D02*
X5901685Y-14411900D01*
X5901685Y-14411900D02*
X5930256Y-14411900D01*
X5930256Y-14411900D02*
X5949304Y-14421424D01*
X5949304Y-14421424D02*
X5958827Y-14440472D01*
X5958827Y-14440472D02*
X5958827Y-14545234D01*
X6349304Y-14335710D02*
X6177875Y-14592853D01*
X6606447Y-14345234D02*
X6625494Y-14345234D01*
X6625494Y-14345234D02*
X6644542Y-14354758D01*
X6644542Y-14354758D02*
X6654066Y-14364281D01*
X6654066Y-14364281D02*
X6663589Y-14383329D01*
X6663589Y-14383329D02*
X6673113Y-14421424D01*
X6673113Y-14421424D02*
X6673113Y-14469043D01*
X6673113Y-14469043D02*
X6663589Y-14507138D01*
X6663589Y-14507138D02*
X6654066Y-14526186D01*
X6654066Y-14526186D02*
X6644542Y-14535710D01*
X6644542Y-14535710D02*
X6625494Y-14545234D01*
X6625494Y-14545234D02*
X6606447Y-14545234D01*
X6606447Y-14545234D02*
X6587399Y-14535710D01*
X6587399Y-14535710D02*
X6577875Y-14526186D01*
X6577875Y-14526186D02*
X6568351Y-14507138D01*
X6568351Y-14507138D02*
X6558828Y-14469043D01*
X6558828Y-14469043D02*
X6558828Y-14421424D01*
X6558828Y-14421424D02*
X6568351Y-14383329D01*
X6568351Y-14383329D02*
X6577875Y-14364281D01*
X6577875Y-14364281D02*
X6587399Y-14354758D01*
X6587399Y-14354758D02*
X6606447Y-14345234D01*
X6758828Y-14526186D02*
X6768351Y-14535710D01*
X6768351Y-14535710D02*
X6758828Y-14545234D01*
X6758828Y-14545234D02*
X6749304Y-14535710D01*
X6749304Y-14535710D02*
X6758828Y-14526186D01*
X6758828Y-14526186D02*
X6758828Y-14545234D01*
X6892161Y-14345234D02*
X6911209Y-14345234D01*
X6911209Y-14345234D02*
X6930256Y-14354758D01*
X6930256Y-14354758D02*
X6939780Y-14364281D01*
X6939780Y-14364281D02*
X6949304Y-14383329D01*
X6949304Y-14383329D02*
X6958828Y-14421424D01*
X6958828Y-14421424D02*
X6958828Y-14469043D01*
X6958828Y-14469043D02*
X6949304Y-14507138D01*
X6949304Y-14507138D02*
X6939780Y-14526186D01*
X6939780Y-14526186D02*
X6930256Y-14535710D01*
X6930256Y-14535710D02*
X6911209Y-14545234D01*
X6911209Y-14545234D02*
X6892161Y-14545234D01*
X6892161Y-14545234D02*
X6873113Y-14535710D01*
X6873113Y-14535710D02*
X6863589Y-14526186D01*
X6863589Y-14526186D02*
X6854066Y-14507138D01*
X6854066Y-14507138D02*
X6844542Y-14469043D01*
X6844542Y-14469043D02*
X6844542Y-14421424D01*
X6844542Y-14421424D02*
X6854066Y-14383329D01*
X6854066Y-14383329D02*
X6863589Y-14364281D01*
X6863589Y-14364281D02*
X6873113Y-14354758D01*
X6873113Y-14354758D02*
X6892161Y-14345234D01*
X7130256Y-14411900D02*
X7130256Y-14545234D01*
X7082637Y-14335710D02*
X7035018Y-14478567D01*
X7035018Y-14478567D02*
X7158828Y-14478567D01*
X7215970Y-14345234D02*
X7349304Y-14345234D01*
X7349304Y-14345234D02*
X7263589Y-14545234D01*
X7415970Y-14364281D02*
X7425494Y-14354758D01*
X7425494Y-14354758D02*
X7444542Y-14345234D01*
X7444542Y-14345234D02*
X7492161Y-14345234D01*
X7492161Y-14345234D02*
X7511209Y-14354758D01*
X7511209Y-14354758D02*
X7520732Y-14364281D01*
X7520732Y-14364281D02*
X7530256Y-14383329D01*
X7530256Y-14383329D02*
X7530256Y-14402377D01*
X7530256Y-14402377D02*
X7520732Y-14430948D01*
X7520732Y-14430948D02*
X7406447Y-14545234D01*
X7406447Y-14545234D02*
X7530256Y-14545234D01*
X7606447Y-14345234D02*
X7606447Y-14383329D01*
X7682637Y-14345234D02*
X7682637Y-14383329D01*
X7977875Y-14621424D02*
X7968351Y-14611900D01*
X7968351Y-14611900D02*
X7949304Y-14583329D01*
X7949304Y-14583329D02*
X7939780Y-14564281D01*
X7939780Y-14564281D02*
X7930256Y-14535710D01*
X7930256Y-14535710D02*
X7920732Y-14488091D01*
X7920732Y-14488091D02*
X7920732Y-14449996D01*
X7920732Y-14449996D02*
X7930256Y-14402377D01*
X7930256Y-14402377D02*
X7939780Y-14373805D01*
X7939780Y-14373805D02*
X7949304Y-14354758D01*
X7949304Y-14354758D02*
X7968351Y-14326186D01*
X7968351Y-14326186D02*
X7977875Y-14316662D01*
X8139780Y-14411900D02*
X8139780Y-14545234D01*
X8092161Y-14335710D02*
X8044542Y-14478567D01*
X8044542Y-14478567D02*
X8168351Y-14478567D01*
X8396923Y-14545234D02*
X8396923Y-14345234D01*
X8482637Y-14545234D02*
X8482637Y-14440472D01*
X8482637Y-14440472D02*
X8473114Y-14421424D01*
X8473114Y-14421424D02*
X8454066Y-14411900D01*
X8454066Y-14411900D02*
X8425494Y-14411900D01*
X8425494Y-14411900D02*
X8406447Y-14421424D01*
X8406447Y-14421424D02*
X8396923Y-14430948D01*
X8606447Y-14545234D02*
X8587399Y-14535710D01*
X8587399Y-14535710D02*
X8577875Y-14526186D01*
X8577875Y-14526186D02*
X8568352Y-14507138D01*
X8568352Y-14507138D02*
X8568352Y-14449996D01*
X8568352Y-14449996D02*
X8577875Y-14430948D01*
X8577875Y-14430948D02*
X8587399Y-14421424D01*
X8587399Y-14421424D02*
X8606447Y-14411900D01*
X8606447Y-14411900D02*
X8635018Y-14411900D01*
X8635018Y-14411900D02*
X8654066Y-14421424D01*
X8654066Y-14421424D02*
X8663590Y-14430948D01*
X8663590Y-14430948D02*
X8673114Y-14449996D01*
X8673114Y-14449996D02*
X8673114Y-14507138D01*
X8673114Y-14507138D02*
X8663590Y-14526186D01*
X8663590Y-14526186D02*
X8654066Y-14535710D01*
X8654066Y-14535710D02*
X8635018Y-14545234D01*
X8635018Y-14545234D02*
X8606447Y-14545234D01*
X8787399Y-14545234D02*
X8768352Y-14535710D01*
X8768352Y-14535710D02*
X8758828Y-14516662D01*
X8758828Y-14516662D02*
X8758828Y-14345234D01*
X8939780Y-14535710D02*
X8920733Y-14545234D01*
X8920733Y-14545234D02*
X8882637Y-14545234D01*
X8882637Y-14545234D02*
X8863590Y-14535710D01*
X8863590Y-14535710D02*
X8854066Y-14516662D01*
X8854066Y-14516662D02*
X8854066Y-14440472D01*
X8854066Y-14440472D02*
X8863590Y-14421424D01*
X8863590Y-14421424D02*
X8882637Y-14411900D01*
X8882637Y-14411900D02*
X8920733Y-14411900D01*
X8920733Y-14411900D02*
X8939780Y-14421424D01*
X8939780Y-14421424D02*
X8949304Y-14440472D01*
X8949304Y-14440472D02*
X8949304Y-14459519D01*
X8949304Y-14459519D02*
X8854066Y-14478567D01*
X9025495Y-14535710D02*
X9044542Y-14545234D01*
X9044542Y-14545234D02*
X9082637Y-14545234D01*
X9082637Y-14545234D02*
X9101685Y-14535710D01*
X9101685Y-14535710D02*
X9111209Y-14516662D01*
X9111209Y-14516662D02*
X9111209Y-14507138D01*
X9111209Y-14507138D02*
X9101685Y-14488091D01*
X9101685Y-14488091D02*
X9082637Y-14478567D01*
X9082637Y-14478567D02*
X9054066Y-14478567D01*
X9054066Y-14478567D02*
X9035018Y-14469043D01*
X9035018Y-14469043D02*
X9025495Y-14449996D01*
X9025495Y-14449996D02*
X9025495Y-14440472D01*
X9025495Y-14440472D02*
X9035018Y-14421424D01*
X9035018Y-14421424D02*
X9054066Y-14411900D01*
X9054066Y-14411900D02*
X9082637Y-14411900D01*
X9082637Y-14411900D02*
X9101685Y-14421424D01*
X9177876Y-14621424D02*
X9187399Y-14611900D01*
X9187399Y-14611900D02*
X9206447Y-14583329D01*
X9206447Y-14583329D02*
X9215971Y-14564281D01*
X9215971Y-14564281D02*
X9225495Y-14535710D01*
X9225495Y-14535710D02*
X9235018Y-14488091D01*
X9235018Y-14488091D02*
X9235018Y-14449996D01*
X9235018Y-14449996D02*
X9225495Y-14402377D01*
X9225495Y-14402377D02*
X9215971Y-14373805D01*
X9215971Y-14373805D02*
X9206447Y-14354758D01*
X9206447Y-14354758D02*
X9187399Y-14326186D01*
X9187399Y-14326186D02*
X9177876Y-14316662D01*
X9539780Y-14621424D02*
X9530256Y-14611900D01*
X9530256Y-14611900D02*
X9511209Y-14583329D01*
X9511209Y-14583329D02*
X9501685Y-14564281D01*
X9501685Y-14564281D02*
X9492161Y-14535710D01*
X9492161Y-14535710D02*
X9482637Y-14488091D01*
X9482637Y-14488091D02*
X9482637Y-14449996D01*
X9482637Y-14449996D02*
X9492161Y-14402377D01*
X9492161Y-14402377D02*
X9501685Y-14373805D01*
X9501685Y-14373805D02*
X9511209Y-14354758D01*
X9511209Y-14354758D02*
X9530256Y-14326186D01*
X9530256Y-14326186D02*
X9539780Y-14316662D01*
X9615971Y-14411900D02*
X9615971Y-14545234D01*
X9615971Y-14430948D02*
X9625495Y-14421424D01*
X9625495Y-14421424D02*
X9644542Y-14411900D01*
X9644542Y-14411900D02*
X9673114Y-14411900D01*
X9673114Y-14411900D02*
X9692161Y-14421424D01*
X9692161Y-14421424D02*
X9701685Y-14440472D01*
X9701685Y-14440472D02*
X9701685Y-14545234D01*
X9825495Y-14545234D02*
X9806447Y-14535710D01*
X9806447Y-14535710D02*
X9796923Y-14526186D01*
X9796923Y-14526186D02*
X9787399Y-14507138D01*
X9787399Y-14507138D02*
X9787399Y-14449996D01*
X9787399Y-14449996D02*
X9796923Y-14430948D01*
X9796923Y-14430948D02*
X9806447Y-14421424D01*
X9806447Y-14421424D02*
X9825495Y-14411900D01*
X9825495Y-14411900D02*
X9854066Y-14411900D01*
X9854066Y-14411900D02*
X9873114Y-14421424D01*
X9873114Y-14421424D02*
X9882637Y-14430948D01*
X9882637Y-14430948D02*
X9892161Y-14449996D01*
X9892161Y-14449996D02*
X9892161Y-14507138D01*
X9892161Y-14507138D02*
X9882637Y-14526186D01*
X9882637Y-14526186D02*
X9873114Y-14535710D01*
X9873114Y-14535710D02*
X9854066Y-14545234D01*
X9854066Y-14545234D02*
X9825495Y-14545234D01*
X9949304Y-14411900D02*
X10025495Y-14411900D01*
X9977876Y-14345234D02*
X9977876Y-14516662D01*
X9977876Y-14516662D02*
X9987399Y-14535710D01*
X9987399Y-14535710D02*
X10006447Y-14545234D01*
X10006447Y-14545234D02*
X10025495Y-14545234D01*
X10244542Y-14411900D02*
X10244542Y-14611900D01*
X10244542Y-14421424D02*
X10263590Y-14411900D01*
X10263590Y-14411900D02*
X10301685Y-14411900D01*
X10301685Y-14411900D02*
X10320733Y-14421424D01*
X10320733Y-14421424D02*
X10330257Y-14430948D01*
X10330257Y-14430948D02*
X10339780Y-14449996D01*
X10339780Y-14449996D02*
X10339780Y-14507138D01*
X10339780Y-14507138D02*
X10330257Y-14526186D01*
X10330257Y-14526186D02*
X10320733Y-14535710D01*
X10320733Y-14535710D02*
X10301685Y-14545234D01*
X10301685Y-14545234D02*
X10263590Y-14545234D01*
X10263590Y-14545234D02*
X10244542Y-14535710D01*
X10454066Y-14545234D02*
X10435018Y-14535710D01*
X10435018Y-14535710D02*
X10425495Y-14516662D01*
X10425495Y-14516662D02*
X10425495Y-14345234D01*
X10615971Y-14545234D02*
X10615971Y-14440472D01*
X10615971Y-14440472D02*
X10606447Y-14421424D01*
X10606447Y-14421424D02*
X10587399Y-14411900D01*
X10587399Y-14411900D02*
X10549304Y-14411900D01*
X10549304Y-14411900D02*
X10530257Y-14421424D01*
X10615971Y-14535710D02*
X10596923Y-14545234D01*
X10596923Y-14545234D02*
X10549304Y-14545234D01*
X10549304Y-14545234D02*
X10530257Y-14535710D01*
X10530257Y-14535710D02*
X10520733Y-14516662D01*
X10520733Y-14516662D02*
X10520733Y-14497615D01*
X10520733Y-14497615D02*
X10530257Y-14478567D01*
X10530257Y-14478567D02*
X10549304Y-14469043D01*
X10549304Y-14469043D02*
X10596923Y-14469043D01*
X10596923Y-14469043D02*
X10615971Y-14459519D01*
X10682638Y-14411900D02*
X10758828Y-14411900D01*
X10711209Y-14345234D02*
X10711209Y-14516662D01*
X10711209Y-14516662D02*
X10720733Y-14535710D01*
X10720733Y-14535710D02*
X10739780Y-14545234D01*
X10739780Y-14545234D02*
X10758828Y-14545234D01*
X10901685Y-14535710D02*
X10882638Y-14545234D01*
X10882638Y-14545234D02*
X10844542Y-14545234D01*
X10844542Y-14545234D02*
X10825495Y-14535710D01*
X10825495Y-14535710D02*
X10815971Y-14516662D01*
X10815971Y-14516662D02*
X10815971Y-14440472D01*
X10815971Y-14440472D02*
X10825495Y-14421424D01*
X10825495Y-14421424D02*
X10844542Y-14411900D01*
X10844542Y-14411900D02*
X10882638Y-14411900D01*
X10882638Y-14411900D02*
X10901685Y-14421424D01*
X10901685Y-14421424D02*
X10911209Y-14440472D01*
X10911209Y-14440472D02*
X10911209Y-14459519D01*
X10911209Y-14459519D02*
X10815971Y-14478567D01*
X11082638Y-14545234D02*
X11082638Y-14345234D01*
X11082638Y-14535710D02*
X11063590Y-14545234D01*
X11063590Y-14545234D02*
X11025495Y-14545234D01*
X11025495Y-14545234D02*
X11006447Y-14535710D01*
X11006447Y-14535710D02*
X10996923Y-14526186D01*
X10996923Y-14526186D02*
X10987399Y-14507138D01*
X10987399Y-14507138D02*
X10987399Y-14449996D01*
X10987399Y-14449996D02*
X10996923Y-14430948D01*
X10996923Y-14430948D02*
X11006447Y-14421424D01*
X11006447Y-14421424D02*
X11025495Y-14411900D01*
X11025495Y-14411900D02*
X11063590Y-14411900D01*
X11063590Y-14411900D02*
X11082638Y-14421424D01*
X11158828Y-14621424D02*
X11168352Y-14611900D01*
X11168352Y-14611900D02*
X11187399Y-14583329D01*
X11187399Y-14583329D02*
X11196923Y-14564281D01*
X11196923Y-14564281D02*
X11206447Y-14535710D01*
X11206447Y-14535710D02*
X11215971Y-14488091D01*
X11215971Y-14488091D02*
X11215971Y-14449996D01*
X11215971Y-14449996D02*
X11206447Y-14402377D01*
X11206447Y-14402377D02*
X11196923Y-14373805D01*
X11196923Y-14373805D02*
X11187399Y-14354758D01*
X11187399Y-14354758D02*
X11168352Y-14326186D01*
X11168352Y-14326186D02*
X11158828Y-14316662D01*
D13*
X4402813Y-14717750D02*
G75*
G02*
X4232633Y-14717750I-85090J0D01*
G01*
X4232633Y-14717750D02*
G75*
G02*
X4402813Y-14717750I85090J0D01*
G01*
D11*
X4768351Y-14809234D02*
X4654066Y-14809234D01*
X4711208Y-14809234D02*
X4711208Y-14609234D01*
X4711208Y-14609234D02*
X4692161Y-14637805D01*
X4692161Y-14637805D02*
X4673113Y-14656853D01*
X4673113Y-14656853D02*
X4654066Y-14666377D01*
X4854066Y-14790186D02*
X4863589Y-14799710D01*
X4863589Y-14799710D02*
X4854066Y-14809234D01*
X4854066Y-14809234D02*
X4844542Y-14799710D01*
X4844542Y-14799710D02*
X4854066Y-14790186D01*
X4854066Y-14790186D02*
X4854066Y-14809234D01*
X4930256Y-14609234D02*
X5063589Y-14609234D01*
X5063589Y-14609234D02*
X4977875Y-14809234D01*
X5177875Y-14609234D02*
X5196923Y-14609234D01*
X5196923Y-14609234D02*
X5215970Y-14618758D01*
X5215970Y-14618758D02*
X5225494Y-14628281D01*
X5225494Y-14628281D02*
X5235018Y-14647329D01*
X5235018Y-14647329D02*
X5244542Y-14685424D01*
X5244542Y-14685424D02*
X5244542Y-14733043D01*
X5244542Y-14733043D02*
X5235018Y-14771138D01*
X5235018Y-14771138D02*
X5225494Y-14790186D01*
X5225494Y-14790186D02*
X5215970Y-14799710D01*
X5215970Y-14799710D02*
X5196923Y-14809234D01*
X5196923Y-14809234D02*
X5177875Y-14809234D01*
X5177875Y-14809234D02*
X5158827Y-14799710D01*
X5158827Y-14799710D02*
X5149304Y-14790186D01*
X5149304Y-14790186D02*
X5139780Y-14771138D01*
X5139780Y-14771138D02*
X5130256Y-14733043D01*
X5130256Y-14733043D02*
X5130256Y-14685424D01*
X5130256Y-14685424D02*
X5139780Y-14647329D01*
X5139780Y-14647329D02*
X5149304Y-14628281D01*
X5149304Y-14628281D02*
X5158827Y-14618758D01*
X5158827Y-14618758D02*
X5177875Y-14609234D01*
X5320732Y-14628281D02*
X5330256Y-14618758D01*
X5330256Y-14618758D02*
X5349304Y-14609234D01*
X5349304Y-14609234D02*
X5396923Y-14609234D01*
X5396923Y-14609234D02*
X5415970Y-14618758D01*
X5415970Y-14618758D02*
X5425494Y-14628281D01*
X5425494Y-14628281D02*
X5435018Y-14647329D01*
X5435018Y-14647329D02*
X5435018Y-14666377D01*
X5435018Y-14666377D02*
X5425494Y-14694948D01*
X5425494Y-14694948D02*
X5311208Y-14809234D01*
X5311208Y-14809234D02*
X5435018Y-14809234D01*
X5520732Y-14809234D02*
X5520732Y-14675900D01*
X5520732Y-14694948D02*
X5530256Y-14685424D01*
X5530256Y-14685424D02*
X5549304Y-14675900D01*
X5549304Y-14675900D02*
X5577875Y-14675900D01*
X5577875Y-14675900D02*
X5596923Y-14685424D01*
X5596923Y-14685424D02*
X5606446Y-14704472D01*
X5606446Y-14704472D02*
X5606446Y-14809234D01*
X5606446Y-14704472D02*
X5615970Y-14685424D01*
X5615970Y-14685424D02*
X5635018Y-14675900D01*
X5635018Y-14675900D02*
X5663589Y-14675900D01*
X5663589Y-14675900D02*
X5682637Y-14685424D01*
X5682637Y-14685424D02*
X5692161Y-14704472D01*
X5692161Y-14704472D02*
X5692161Y-14809234D01*
X5787399Y-14809234D02*
X5787399Y-14675900D01*
X5787399Y-14694948D02*
X5796923Y-14685424D01*
X5796923Y-14685424D02*
X5815970Y-14675900D01*
X5815970Y-14675900D02*
X5844542Y-14675900D01*
X5844542Y-14675900D02*
X5863589Y-14685424D01*
X5863589Y-14685424D02*
X5873113Y-14704472D01*
X5873113Y-14704472D02*
X5873113Y-14809234D01*
X5873113Y-14704472D02*
X5882637Y-14685424D01*
X5882637Y-14685424D02*
X5901685Y-14675900D01*
X5901685Y-14675900D02*
X5930256Y-14675900D01*
X5930256Y-14675900D02*
X5949304Y-14685424D01*
X5949304Y-14685424D02*
X5958827Y-14704472D01*
X5958827Y-14704472D02*
X5958827Y-14809234D01*
X6349304Y-14599710D02*
X6177875Y-14856853D01*
X6606447Y-14609234D02*
X6625494Y-14609234D01*
X6625494Y-14609234D02*
X6644542Y-14618758D01*
X6644542Y-14618758D02*
X6654066Y-14628281D01*
X6654066Y-14628281D02*
X6663589Y-14647329D01*
X6663589Y-14647329D02*
X6673113Y-14685424D01*
X6673113Y-14685424D02*
X6673113Y-14733043D01*
X6673113Y-14733043D02*
X6663589Y-14771138D01*
X6663589Y-14771138D02*
X6654066Y-14790186D01*
X6654066Y-14790186D02*
X6644542Y-14799710D01*
X6644542Y-14799710D02*
X6625494Y-14809234D01*
X6625494Y-14809234D02*
X6606447Y-14809234D01*
X6606447Y-14809234D02*
X6587399Y-14799710D01*
X6587399Y-14799710D02*
X6577875Y-14790186D01*
X6577875Y-14790186D02*
X6568351Y-14771138D01*
X6568351Y-14771138D02*
X6558828Y-14733043D01*
X6558828Y-14733043D02*
X6558828Y-14685424D01*
X6558828Y-14685424D02*
X6568351Y-14647329D01*
X6568351Y-14647329D02*
X6577875Y-14628281D01*
X6577875Y-14628281D02*
X6587399Y-14618758D01*
X6587399Y-14618758D02*
X6606447Y-14609234D01*
X6758828Y-14790186D02*
X6768351Y-14799710D01*
X6768351Y-14799710D02*
X6758828Y-14809234D01*
X6758828Y-14809234D02*
X6749304Y-14799710D01*
X6749304Y-14799710D02*
X6758828Y-14790186D01*
X6758828Y-14790186D02*
X6758828Y-14809234D01*
X6892161Y-14609234D02*
X6911209Y-14609234D01*
X6911209Y-14609234D02*
X6930256Y-14618758D01*
X6930256Y-14618758D02*
X6939780Y-14628281D01*
X6939780Y-14628281D02*
X6949304Y-14647329D01*
X6949304Y-14647329D02*
X6958828Y-14685424D01*
X6958828Y-14685424D02*
X6958828Y-14733043D01*
X6958828Y-14733043D02*
X6949304Y-14771138D01*
X6949304Y-14771138D02*
X6939780Y-14790186D01*
X6939780Y-14790186D02*
X6930256Y-14799710D01*
X6930256Y-14799710D02*
X6911209Y-14809234D01*
X6911209Y-14809234D02*
X6892161Y-14809234D01*
X6892161Y-14809234D02*
X6873113Y-14799710D01*
X6873113Y-14799710D02*
X6863589Y-14790186D01*
X6863589Y-14790186D02*
X6854066Y-14771138D01*
X6854066Y-14771138D02*
X6844542Y-14733043D01*
X6844542Y-14733043D02*
X6844542Y-14685424D01*
X6844542Y-14685424D02*
X6854066Y-14647329D01*
X6854066Y-14647329D02*
X6863589Y-14628281D01*
X6863589Y-14628281D02*
X6873113Y-14618758D01*
X6873113Y-14618758D02*
X6892161Y-14609234D01*
X7130256Y-14609234D02*
X7092161Y-14609234D01*
X7092161Y-14609234D02*
X7073113Y-14618758D01*
X7073113Y-14618758D02*
X7063589Y-14628281D01*
X7063589Y-14628281D02*
X7044542Y-14656853D01*
X7044542Y-14656853D02*
X7035018Y-14694948D01*
X7035018Y-14694948D02*
X7035018Y-14771138D01*
X7035018Y-14771138D02*
X7044542Y-14790186D01*
X7044542Y-14790186D02*
X7054066Y-14799710D01*
X7054066Y-14799710D02*
X7073113Y-14809234D01*
X7073113Y-14809234D02*
X7111209Y-14809234D01*
X7111209Y-14809234D02*
X7130256Y-14799710D01*
X7130256Y-14799710D02*
X7139780Y-14790186D01*
X7139780Y-14790186D02*
X7149304Y-14771138D01*
X7149304Y-14771138D02*
X7149304Y-14723519D01*
X7149304Y-14723519D02*
X7139780Y-14704472D01*
X7139780Y-14704472D02*
X7130256Y-14694948D01*
X7130256Y-14694948D02*
X7111209Y-14685424D01*
X7111209Y-14685424D02*
X7073113Y-14685424D01*
X7073113Y-14685424D02*
X7054066Y-14694948D01*
X7054066Y-14694948D02*
X7044542Y-14704472D01*
X7044542Y-14704472D02*
X7035018Y-14723519D01*
X7215970Y-14609234D02*
X7349304Y-14609234D01*
X7349304Y-14609234D02*
X7263589Y-14809234D01*
X7463589Y-14609234D02*
X7482637Y-14609234D01*
X7482637Y-14609234D02*
X7501685Y-14618758D01*
X7501685Y-14618758D02*
X7511209Y-14628281D01*
X7511209Y-14628281D02*
X7520732Y-14647329D01*
X7520732Y-14647329D02*
X7530256Y-14685424D01*
X7530256Y-14685424D02*
X7530256Y-14733043D01*
X7530256Y-14733043D02*
X7520732Y-14771138D01*
X7520732Y-14771138D02*
X7511209Y-14790186D01*
X7511209Y-14790186D02*
X7501685Y-14799710D01*
X7501685Y-14799710D02*
X7482637Y-14809234D01*
X7482637Y-14809234D02*
X7463589Y-14809234D01*
X7463589Y-14809234D02*
X7444542Y-14799710D01*
X7444542Y-14799710D02*
X7435018Y-14790186D01*
X7435018Y-14790186D02*
X7425494Y-14771138D01*
X7425494Y-14771138D02*
X7415970Y-14733043D01*
X7415970Y-14733043D02*
X7415970Y-14685424D01*
X7415970Y-14685424D02*
X7425494Y-14647329D01*
X7425494Y-14647329D02*
X7435018Y-14628281D01*
X7435018Y-14628281D02*
X7444542Y-14618758D01*
X7444542Y-14618758D02*
X7463589Y-14609234D01*
X7606447Y-14609234D02*
X7606447Y-14647329D01*
X7682637Y-14609234D02*
X7682637Y-14647329D01*
X7977875Y-14885424D02*
X7968351Y-14875900D01*
X7968351Y-14875900D02*
X7949304Y-14847329D01*
X7949304Y-14847329D02*
X7939780Y-14828281D01*
X7939780Y-14828281D02*
X7930256Y-14799710D01*
X7930256Y-14799710D02*
X7920732Y-14752091D01*
X7920732Y-14752091D02*
X7920732Y-14713996D01*
X7920732Y-14713996D02*
X7930256Y-14666377D01*
X7930256Y-14666377D02*
X7939780Y-14637805D01*
X7939780Y-14637805D02*
X7949304Y-14618758D01*
X7949304Y-14618758D02*
X7968351Y-14590186D01*
X7968351Y-14590186D02*
X7977875Y-14580662D01*
X8139780Y-14675900D02*
X8139780Y-14809234D01*
X8092161Y-14599710D02*
X8044542Y-14742567D01*
X8044542Y-14742567D02*
X8168351Y-14742567D01*
X8235018Y-14628281D02*
X8244542Y-14618758D01*
X8244542Y-14618758D02*
X8263590Y-14609234D01*
X8263590Y-14609234D02*
X8311209Y-14609234D01*
X8311209Y-14609234D02*
X8330256Y-14618758D01*
X8330256Y-14618758D02*
X8339780Y-14628281D01*
X8339780Y-14628281D02*
X8349304Y-14647329D01*
X8349304Y-14647329D02*
X8349304Y-14666377D01*
X8349304Y-14666377D02*
X8339780Y-14694948D01*
X8339780Y-14694948D02*
X8225494Y-14809234D01*
X8225494Y-14809234D02*
X8349304Y-14809234D01*
X8587399Y-14809234D02*
X8587399Y-14609234D01*
X8673114Y-14809234D02*
X8673114Y-14704472D01*
X8673114Y-14704472D02*
X8663590Y-14685424D01*
X8663590Y-14685424D02*
X8644542Y-14675900D01*
X8644542Y-14675900D02*
X8615971Y-14675900D01*
X8615971Y-14675900D02*
X8596923Y-14685424D01*
X8596923Y-14685424D02*
X8587399Y-14694948D01*
X8796923Y-14809234D02*
X8777875Y-14799710D01*
X8777875Y-14799710D02*
X8768352Y-14790186D01*
X8768352Y-14790186D02*
X8758828Y-14771138D01*
X8758828Y-14771138D02*
X8758828Y-14713996D01*
X8758828Y-14713996D02*
X8768352Y-14694948D01*
X8768352Y-14694948D02*
X8777875Y-14685424D01*
X8777875Y-14685424D02*
X8796923Y-14675900D01*
X8796923Y-14675900D02*
X8825495Y-14675900D01*
X8825495Y-14675900D02*
X8844542Y-14685424D01*
X8844542Y-14685424D02*
X8854066Y-14694948D01*
X8854066Y-14694948D02*
X8863590Y-14713996D01*
X8863590Y-14713996D02*
X8863590Y-14771138D01*
X8863590Y-14771138D02*
X8854066Y-14790186D01*
X8854066Y-14790186D02*
X8844542Y-14799710D01*
X8844542Y-14799710D02*
X8825495Y-14809234D01*
X8825495Y-14809234D02*
X8796923Y-14809234D01*
X8977875Y-14809234D02*
X8958828Y-14799710D01*
X8958828Y-14799710D02*
X8949304Y-14780662D01*
X8949304Y-14780662D02*
X8949304Y-14609234D01*
X9130256Y-14799710D02*
X9111209Y-14809234D01*
X9111209Y-14809234D02*
X9073114Y-14809234D01*
X9073114Y-14809234D02*
X9054066Y-14799710D01*
X9054066Y-14799710D02*
X9044542Y-14780662D01*
X9044542Y-14780662D02*
X9044542Y-14704472D01*
X9044542Y-14704472D02*
X9054066Y-14685424D01*
X9054066Y-14685424D02*
X9073114Y-14675900D01*
X9073114Y-14675900D02*
X9111209Y-14675900D01*
X9111209Y-14675900D02*
X9130256Y-14685424D01*
X9130256Y-14685424D02*
X9139780Y-14704472D01*
X9139780Y-14704472D02*
X9139780Y-14723519D01*
X9139780Y-14723519D02*
X9044542Y-14742567D01*
X9215971Y-14799710D02*
X9235018Y-14809234D01*
X9235018Y-14809234D02*
X9273114Y-14809234D01*
X9273114Y-14809234D02*
X9292161Y-14799710D01*
X9292161Y-14799710D02*
X9301685Y-14780662D01*
X9301685Y-14780662D02*
X9301685Y-14771138D01*
X9301685Y-14771138D02*
X9292161Y-14752091D01*
X9292161Y-14752091D02*
X9273114Y-14742567D01*
X9273114Y-14742567D02*
X9244542Y-14742567D01*
X9244542Y-14742567D02*
X9225495Y-14733043D01*
X9225495Y-14733043D02*
X9215971Y-14713996D01*
X9215971Y-14713996D02*
X9215971Y-14704472D01*
X9215971Y-14704472D02*
X9225495Y-14685424D01*
X9225495Y-14685424D02*
X9244542Y-14675900D01*
X9244542Y-14675900D02*
X9273114Y-14675900D01*
X9273114Y-14675900D02*
X9292161Y-14685424D01*
X9368352Y-14885424D02*
X9377876Y-14875900D01*
X9377876Y-14875900D02*
X9396923Y-14847329D01*
X9396923Y-14847329D02*
X9406447Y-14828281D01*
X9406447Y-14828281D02*
X9415971Y-14799710D01*
X9415971Y-14799710D02*
X9425495Y-14752091D01*
X9425495Y-14752091D02*
X9425495Y-14713996D01*
X9425495Y-14713996D02*
X9415971Y-14666377D01*
X9415971Y-14666377D02*
X9406447Y-14637805D01*
X9406447Y-14637805D02*
X9396923Y-14618758D01*
X9396923Y-14618758D02*
X9377876Y-14590186D01*
X9377876Y-14590186D02*
X9368352Y-14580662D01*
X9730257Y-14885424D02*
X9720733Y-14875900D01*
X9720733Y-14875900D02*
X9701685Y-14847329D01*
X9701685Y-14847329D02*
X9692161Y-14828281D01*
X9692161Y-14828281D02*
X9682637Y-14799710D01*
X9682637Y-14799710D02*
X9673114Y-14752091D01*
X9673114Y-14752091D02*
X9673114Y-14713996D01*
X9673114Y-14713996D02*
X9682637Y-14666377D01*
X9682637Y-14666377D02*
X9692161Y-14637805D01*
X9692161Y-14637805D02*
X9701685Y-14618758D01*
X9701685Y-14618758D02*
X9720733Y-14590186D01*
X9720733Y-14590186D02*
X9730257Y-14580662D01*
X9806447Y-14675900D02*
X9806447Y-14809234D01*
X9806447Y-14694948D02*
X9815971Y-14685424D01*
X9815971Y-14685424D02*
X9835018Y-14675900D01*
X9835018Y-14675900D02*
X9863590Y-14675900D01*
X9863590Y-14675900D02*
X9882637Y-14685424D01*
X9882637Y-14685424D02*
X9892161Y-14704472D01*
X9892161Y-14704472D02*
X9892161Y-14809234D01*
X10015971Y-14809234D02*
X9996923Y-14799710D01*
X9996923Y-14799710D02*
X9987399Y-14790186D01*
X9987399Y-14790186D02*
X9977876Y-14771138D01*
X9977876Y-14771138D02*
X9977876Y-14713996D01*
X9977876Y-14713996D02*
X9987399Y-14694948D01*
X9987399Y-14694948D02*
X9996923Y-14685424D01*
X9996923Y-14685424D02*
X10015971Y-14675900D01*
X10015971Y-14675900D02*
X10044542Y-14675900D01*
X10044542Y-14675900D02*
X10063590Y-14685424D01*
X10063590Y-14685424D02*
X10073114Y-14694948D01*
X10073114Y-14694948D02*
X10082637Y-14713996D01*
X10082637Y-14713996D02*
X10082637Y-14771138D01*
X10082637Y-14771138D02*
X10073114Y-14790186D01*
X10073114Y-14790186D02*
X10063590Y-14799710D01*
X10063590Y-14799710D02*
X10044542Y-14809234D01*
X10044542Y-14809234D02*
X10015971Y-14809234D01*
X10139780Y-14675900D02*
X10215971Y-14675900D01*
X10168352Y-14609234D02*
X10168352Y-14780662D01*
X10168352Y-14780662D02*
X10177876Y-14799710D01*
X10177876Y-14799710D02*
X10196923Y-14809234D01*
X10196923Y-14809234D02*
X10215971Y-14809234D01*
X10435018Y-14675900D02*
X10435018Y-14875900D01*
X10435018Y-14685424D02*
X10454066Y-14675900D01*
X10454066Y-14675900D02*
X10492161Y-14675900D01*
X10492161Y-14675900D02*
X10511209Y-14685424D01*
X10511209Y-14685424D02*
X10520733Y-14694948D01*
X10520733Y-14694948D02*
X10530257Y-14713996D01*
X10530257Y-14713996D02*
X10530257Y-14771138D01*
X10530257Y-14771138D02*
X10520733Y-14790186D01*
X10520733Y-14790186D02*
X10511209Y-14799710D01*
X10511209Y-14799710D02*
X10492161Y-14809234D01*
X10492161Y-14809234D02*
X10454066Y-14809234D01*
X10454066Y-14809234D02*
X10435018Y-14799710D01*
X10644542Y-14809234D02*
X10625495Y-14799710D01*
X10625495Y-14799710D02*
X10615971Y-14780662D01*
X10615971Y-14780662D02*
X10615971Y-14609234D01*
X10806447Y-14809234D02*
X10806447Y-14704472D01*
X10806447Y-14704472D02*
X10796923Y-14685424D01*
X10796923Y-14685424D02*
X10777876Y-14675900D01*
X10777876Y-14675900D02*
X10739780Y-14675900D01*
X10739780Y-14675900D02*
X10720733Y-14685424D01*
X10806447Y-14799710D02*
X10787399Y-14809234D01*
X10787399Y-14809234D02*
X10739780Y-14809234D01*
X10739780Y-14809234D02*
X10720733Y-14799710D01*
X10720733Y-14799710D02*
X10711209Y-14780662D01*
X10711209Y-14780662D02*
X10711209Y-14761615D01*
X10711209Y-14761615D02*
X10720733Y-14742567D01*
X10720733Y-14742567D02*
X10739780Y-14733043D01*
X10739780Y-14733043D02*
X10787399Y-14733043D01*
X10787399Y-14733043D02*
X10806447Y-14723519D01*
X10873114Y-14675900D02*
X10949304Y-14675900D01*
X10901685Y-14609234D02*
X10901685Y-14780662D01*
X10901685Y-14780662D02*
X10911209Y-14799710D01*
X10911209Y-14799710D02*
X10930257Y-14809234D01*
X10930257Y-14809234D02*
X10949304Y-14809234D01*
X11092161Y-14799710D02*
X11073114Y-14809234D01*
X11073114Y-14809234D02*
X11035018Y-14809234D01*
X11035018Y-14809234D02*
X11015971Y-14799710D01*
X11015971Y-14799710D02*
X11006447Y-14780662D01*
X11006447Y-14780662D02*
X11006447Y-14704472D01*
X11006447Y-14704472D02*
X11015971Y-14685424D01*
X11015971Y-14685424D02*
X11035018Y-14675900D01*
X11035018Y-14675900D02*
X11073114Y-14675900D01*
X11073114Y-14675900D02*
X11092161Y-14685424D01*
X11092161Y-14685424D02*
X11101685Y-14704472D01*
X11101685Y-14704472D02*
X11101685Y-14723519D01*
X11101685Y-14723519D02*
X11006447Y-14742567D01*
X11273114Y-14809234D02*
X11273114Y-14609234D01*
X11273114Y-14799710D02*
X11254066Y-14809234D01*
X11254066Y-14809234D02*
X11215971Y-14809234D01*
X11215971Y-14809234D02*
X11196923Y-14799710D01*
X11196923Y-14799710D02*
X11187399Y-14790186D01*
X11187399Y-14790186D02*
X11177876Y-14771138D01*
X11177876Y-14771138D02*
X11177876Y-14713996D01*
X11177876Y-14713996D02*
X11187399Y-14694948D01*
X11187399Y-14694948D02*
X11196923Y-14685424D01*
X11196923Y-14685424D02*
X11215971Y-14675900D01*
X11215971Y-14675900D02*
X11254066Y-14675900D01*
X11254066Y-14675900D02*
X11273114Y-14685424D01*
X11349304Y-14885424D02*
X11358828Y-14875900D01*
X11358828Y-14875900D02*
X11377876Y-14847329D01*
X11377876Y-14847329D02*
X11387399Y-14828281D01*
X11387399Y-14828281D02*
X11396923Y-14799710D01*
X11396923Y-14799710D02*
X11406447Y-14752091D01*
X11406447Y-14752091D02*
X11406447Y-14713996D01*
X11406447Y-14713996D02*
X11396923Y-14666377D01*
X11396923Y-14666377D02*
X11387399Y-14637805D01*
X11387399Y-14637805D02*
X11377876Y-14618758D01*
X11377876Y-14618758D02*
X11358828Y-14590186D01*
X11358828Y-14590186D02*
X11349304Y-14580662D01*
X4302813Y-14907930D02*
X4302813Y-15107930D01*
X4202813Y-15007930D02*
X4402813Y-15007930D01*
X4654066Y-14918461D02*
X4663589Y-14908938D01*
X4663589Y-14908938D02*
X4682637Y-14899414D01*
X4682637Y-14899414D02*
X4730256Y-14899414D01*
X4730256Y-14899414D02*
X4749304Y-14908938D01*
X4749304Y-14908938D02*
X4758827Y-14918461D01*
X4758827Y-14918461D02*
X4768351Y-14937509D01*
X4768351Y-14937509D02*
X4768351Y-14956557D01*
X4768351Y-14956557D02*
X4758827Y-14985128D01*
X4758827Y-14985128D02*
X4644542Y-15099414D01*
X4644542Y-15099414D02*
X4768351Y-15099414D01*
X4854066Y-15080366D02*
X4863589Y-15089890D01*
X4863589Y-15089890D02*
X4854066Y-15099414D01*
X4854066Y-15099414D02*
X4844542Y-15089890D01*
X4844542Y-15089890D02*
X4854066Y-15080366D01*
X4854066Y-15080366D02*
X4854066Y-15099414D01*
X4939780Y-14918461D02*
X4949304Y-14908938D01*
X4949304Y-14908938D02*
X4968351Y-14899414D01*
X4968351Y-14899414D02*
X5015970Y-14899414D01*
X5015970Y-14899414D02*
X5035018Y-14908938D01*
X5035018Y-14908938D02*
X5044542Y-14918461D01*
X5044542Y-14918461D02*
X5054066Y-14937509D01*
X5054066Y-14937509D02*
X5054066Y-14956557D01*
X5054066Y-14956557D02*
X5044542Y-14985128D01*
X5044542Y-14985128D02*
X4930256Y-15099414D01*
X4930256Y-15099414D02*
X5054066Y-15099414D01*
X5177875Y-14899414D02*
X5196923Y-14899414D01*
X5196923Y-14899414D02*
X5215970Y-14908938D01*
X5215970Y-14908938D02*
X5225494Y-14918461D01*
X5225494Y-14918461D02*
X5235018Y-14937509D01*
X5235018Y-14937509D02*
X5244542Y-14975604D01*
X5244542Y-14975604D02*
X5244542Y-15023223D01*
X5244542Y-15023223D02*
X5235018Y-15061318D01*
X5235018Y-15061318D02*
X5225494Y-15080366D01*
X5225494Y-15080366D02*
X5215970Y-15089890D01*
X5215970Y-15089890D02*
X5196923Y-15099414D01*
X5196923Y-15099414D02*
X5177875Y-15099414D01*
X5177875Y-15099414D02*
X5158827Y-15089890D01*
X5158827Y-15089890D02*
X5149304Y-15080366D01*
X5149304Y-15080366D02*
X5139780Y-15061318D01*
X5139780Y-15061318D02*
X5130256Y-15023223D01*
X5130256Y-15023223D02*
X5130256Y-14975604D01*
X5130256Y-14975604D02*
X5139780Y-14937509D01*
X5139780Y-14937509D02*
X5149304Y-14918461D01*
X5149304Y-14918461D02*
X5158827Y-14908938D01*
X5158827Y-14908938D02*
X5177875Y-14899414D01*
X5368351Y-14899414D02*
X5387399Y-14899414D01*
X5387399Y-14899414D02*
X5406447Y-14908938D01*
X5406447Y-14908938D02*
X5415970Y-14918461D01*
X5415970Y-14918461D02*
X5425494Y-14937509D01*
X5425494Y-14937509D02*
X5435018Y-14975604D01*
X5435018Y-14975604D02*
X5435018Y-15023223D01*
X5435018Y-15023223D02*
X5425494Y-15061318D01*
X5425494Y-15061318D02*
X5415970Y-15080366D01*
X5415970Y-15080366D02*
X5406447Y-15089890D01*
X5406447Y-15089890D02*
X5387399Y-15099414D01*
X5387399Y-15099414D02*
X5368351Y-15099414D01*
X5368351Y-15099414D02*
X5349304Y-15089890D01*
X5349304Y-15089890D02*
X5339780Y-15080366D01*
X5339780Y-15080366D02*
X5330256Y-15061318D01*
X5330256Y-15061318D02*
X5320732Y-15023223D01*
X5320732Y-15023223D02*
X5320732Y-14975604D01*
X5320732Y-14975604D02*
X5330256Y-14937509D01*
X5330256Y-14937509D02*
X5339780Y-14918461D01*
X5339780Y-14918461D02*
X5349304Y-14908938D01*
X5349304Y-14908938D02*
X5368351Y-14899414D01*
X5520732Y-15099414D02*
X5520732Y-14966080D01*
X5520732Y-14985128D02*
X5530256Y-14975604D01*
X5530256Y-14975604D02*
X5549304Y-14966080D01*
X5549304Y-14966080D02*
X5577875Y-14966080D01*
X5577875Y-14966080D02*
X5596923Y-14975604D01*
X5596923Y-14975604D02*
X5606446Y-14994652D01*
X5606446Y-14994652D02*
X5606446Y-15099414D01*
X5606446Y-14994652D02*
X5615970Y-14975604D01*
X5615970Y-14975604D02*
X5635018Y-14966080D01*
X5635018Y-14966080D02*
X5663589Y-14966080D01*
X5663589Y-14966080D02*
X5682637Y-14975604D01*
X5682637Y-14975604D02*
X5692161Y-14994652D01*
X5692161Y-14994652D02*
X5692161Y-15099414D01*
X5787399Y-15099414D02*
X5787399Y-14966080D01*
X5787399Y-14985128D02*
X5796923Y-14975604D01*
X5796923Y-14975604D02*
X5815970Y-14966080D01*
X5815970Y-14966080D02*
X5844542Y-14966080D01*
X5844542Y-14966080D02*
X5863589Y-14975604D01*
X5863589Y-14975604D02*
X5873113Y-14994652D01*
X5873113Y-14994652D02*
X5873113Y-15099414D01*
X5873113Y-14994652D02*
X5882637Y-14975604D01*
X5882637Y-14975604D02*
X5901685Y-14966080D01*
X5901685Y-14966080D02*
X5930256Y-14966080D01*
X5930256Y-14966080D02*
X5949304Y-14975604D01*
X5949304Y-14975604D02*
X5958827Y-14994652D01*
X5958827Y-14994652D02*
X5958827Y-15099414D01*
X6349304Y-14889890D02*
X6177875Y-15147033D01*
X6606447Y-14899414D02*
X6625494Y-14899414D01*
X6625494Y-14899414D02*
X6644542Y-14908938D01*
X6644542Y-14908938D02*
X6654066Y-14918461D01*
X6654066Y-14918461D02*
X6663589Y-14937509D01*
X6663589Y-14937509D02*
X6673113Y-14975604D01*
X6673113Y-14975604D02*
X6673113Y-15023223D01*
X6673113Y-15023223D02*
X6663589Y-15061318D01*
X6663589Y-15061318D02*
X6654066Y-15080366D01*
X6654066Y-15080366D02*
X6644542Y-15089890D01*
X6644542Y-15089890D02*
X6625494Y-15099414D01*
X6625494Y-15099414D02*
X6606447Y-15099414D01*
X6606447Y-15099414D02*
X6587399Y-15089890D01*
X6587399Y-15089890D02*
X6577875Y-15080366D01*
X6577875Y-15080366D02*
X6568351Y-15061318D01*
X6568351Y-15061318D02*
X6558828Y-15023223D01*
X6558828Y-15023223D02*
X6558828Y-14975604D01*
X6558828Y-14975604D02*
X6568351Y-14937509D01*
X6568351Y-14937509D02*
X6577875Y-14918461D01*
X6577875Y-14918461D02*
X6587399Y-14908938D01*
X6587399Y-14908938D02*
X6606447Y-14899414D01*
X6758828Y-15080366D02*
X6768351Y-15089890D01*
X6768351Y-15089890D02*
X6758828Y-15099414D01*
X6758828Y-15099414D02*
X6749304Y-15089890D01*
X6749304Y-15089890D02*
X6758828Y-15080366D01*
X6758828Y-15080366D02*
X6758828Y-15099414D01*
X6892161Y-14899414D02*
X6911209Y-14899414D01*
X6911209Y-14899414D02*
X6930256Y-14908938D01*
X6930256Y-14908938D02*
X6939780Y-14918461D01*
X6939780Y-14918461D02*
X6949304Y-14937509D01*
X6949304Y-14937509D02*
X6958828Y-14975604D01*
X6958828Y-14975604D02*
X6958828Y-15023223D01*
X6958828Y-15023223D02*
X6949304Y-15061318D01*
X6949304Y-15061318D02*
X6939780Y-15080366D01*
X6939780Y-15080366D02*
X6930256Y-15089890D01*
X6930256Y-15089890D02*
X6911209Y-15099414D01*
X6911209Y-15099414D02*
X6892161Y-15099414D01*
X6892161Y-15099414D02*
X6873113Y-15089890D01*
X6873113Y-15089890D02*
X6863589Y-15080366D01*
X6863589Y-15080366D02*
X6854066Y-15061318D01*
X6854066Y-15061318D02*
X6844542Y-15023223D01*
X6844542Y-15023223D02*
X6844542Y-14975604D01*
X6844542Y-14975604D02*
X6854066Y-14937509D01*
X6854066Y-14937509D02*
X6863589Y-14918461D01*
X6863589Y-14918461D02*
X6873113Y-14908938D01*
X6873113Y-14908938D02*
X6892161Y-14899414D01*
X7073113Y-14985128D02*
X7054066Y-14975604D01*
X7054066Y-14975604D02*
X7044542Y-14966080D01*
X7044542Y-14966080D02*
X7035018Y-14947033D01*
X7035018Y-14947033D02*
X7035018Y-14937509D01*
X7035018Y-14937509D02*
X7044542Y-14918461D01*
X7044542Y-14918461D02*
X7054066Y-14908938D01*
X7054066Y-14908938D02*
X7073113Y-14899414D01*
X7073113Y-14899414D02*
X7111209Y-14899414D01*
X7111209Y-14899414D02*
X7130256Y-14908938D01*
X7130256Y-14908938D02*
X7139780Y-14918461D01*
X7139780Y-14918461D02*
X7149304Y-14937509D01*
X7149304Y-14937509D02*
X7149304Y-14947033D01*
X7149304Y-14947033D02*
X7139780Y-14966080D01*
X7139780Y-14966080D02*
X7130256Y-14975604D01*
X7130256Y-14975604D02*
X7111209Y-14985128D01*
X7111209Y-14985128D02*
X7073113Y-14985128D01*
X7073113Y-14985128D02*
X7054066Y-14994652D01*
X7054066Y-14994652D02*
X7044542Y-15004176D01*
X7044542Y-15004176D02*
X7035018Y-15023223D01*
X7035018Y-15023223D02*
X7035018Y-15061318D01*
X7035018Y-15061318D02*
X7044542Y-15080366D01*
X7044542Y-15080366D02*
X7054066Y-15089890D01*
X7054066Y-15089890D02*
X7073113Y-15099414D01*
X7073113Y-15099414D02*
X7111209Y-15099414D01*
X7111209Y-15099414D02*
X7130256Y-15089890D01*
X7130256Y-15089890D02*
X7139780Y-15080366D01*
X7139780Y-15080366D02*
X7149304Y-15061318D01*
X7149304Y-15061318D02*
X7149304Y-15023223D01*
X7149304Y-15023223D02*
X7139780Y-15004176D01*
X7139780Y-15004176D02*
X7130256Y-14994652D01*
X7130256Y-14994652D02*
X7111209Y-14985128D01*
X7320732Y-14899414D02*
X7282637Y-14899414D01*
X7282637Y-14899414D02*
X7263589Y-14908938D01*
X7263589Y-14908938D02*
X7254066Y-14918461D01*
X7254066Y-14918461D02*
X7235018Y-14947033D01*
X7235018Y-14947033D02*
X7225494Y-14985128D01*
X7225494Y-14985128D02*
X7225494Y-15061318D01*
X7225494Y-15061318D02*
X7235018Y-15080366D01*
X7235018Y-15080366D02*
X7244542Y-15089890D01*
X7244542Y-15089890D02*
X7263589Y-15099414D01*
X7263589Y-15099414D02*
X7301685Y-15099414D01*
X7301685Y-15099414D02*
X7320732Y-15089890D01*
X7320732Y-15089890D02*
X7330256Y-15080366D01*
X7330256Y-15080366D02*
X7339780Y-15061318D01*
X7339780Y-15061318D02*
X7339780Y-15013699D01*
X7339780Y-15013699D02*
X7330256Y-14994652D01*
X7330256Y-14994652D02*
X7320732Y-14985128D01*
X7320732Y-14985128D02*
X7301685Y-14975604D01*
X7301685Y-14975604D02*
X7263589Y-14975604D01*
X7263589Y-14975604D02*
X7244542Y-14985128D01*
X7244542Y-14985128D02*
X7235018Y-14994652D01*
X7235018Y-14994652D02*
X7225494Y-15013699D01*
X7511209Y-14899414D02*
X7473113Y-14899414D01*
X7473113Y-14899414D02*
X7454066Y-14908938D01*
X7454066Y-14908938D02*
X7444542Y-14918461D01*
X7444542Y-14918461D02*
X7425494Y-14947033D01*
X7425494Y-14947033D02*
X7415970Y-14985128D01*
X7415970Y-14985128D02*
X7415970Y-15061318D01*
X7415970Y-15061318D02*
X7425494Y-15080366D01*
X7425494Y-15080366D02*
X7435018Y-15089890D01*
X7435018Y-15089890D02*
X7454066Y-15099414D01*
X7454066Y-15099414D02*
X7492161Y-15099414D01*
X7492161Y-15099414D02*
X7511209Y-15089890D01*
X7511209Y-15089890D02*
X7520732Y-15080366D01*
X7520732Y-15080366D02*
X7530256Y-15061318D01*
X7530256Y-15061318D02*
X7530256Y-15013699D01*
X7530256Y-15013699D02*
X7520732Y-14994652D01*
X7520732Y-14994652D02*
X7511209Y-14985128D01*
X7511209Y-14985128D02*
X7492161Y-14975604D01*
X7492161Y-14975604D02*
X7454066Y-14975604D01*
X7454066Y-14975604D02*
X7435018Y-14985128D01*
X7435018Y-14985128D02*
X7425494Y-14994652D01*
X7425494Y-14994652D02*
X7415970Y-15013699D01*
X7606447Y-14899414D02*
X7606447Y-14937509D01*
X7682637Y-14899414D02*
X7682637Y-14937509D01*
X7977875Y-15175604D02*
X7968351Y-15166080D01*
X7968351Y-15166080D02*
X7949304Y-15137509D01*
X7949304Y-15137509D02*
X7939780Y-15118461D01*
X7939780Y-15118461D02*
X7930256Y-15089890D01*
X7930256Y-15089890D02*
X7920732Y-15042271D01*
X7920732Y-15042271D02*
X7920732Y-15004176D01*
X7920732Y-15004176D02*
X7930256Y-14956557D01*
X7930256Y-14956557D02*
X7939780Y-14927985D01*
X7939780Y-14927985D02*
X7949304Y-14908938D01*
X7949304Y-14908938D02*
X7968351Y-14880366D01*
X7968351Y-14880366D02*
X7977875Y-14870842D01*
X8139780Y-14899414D02*
X8101685Y-14899414D01*
X8101685Y-14899414D02*
X8082637Y-14908938D01*
X8082637Y-14908938D02*
X8073113Y-14918461D01*
X8073113Y-14918461D02*
X8054066Y-14947033D01*
X8054066Y-14947033D02*
X8044542Y-14985128D01*
X8044542Y-14985128D02*
X8044542Y-15061318D01*
X8044542Y-15061318D02*
X8054066Y-15080366D01*
X8054066Y-15080366D02*
X8063590Y-15089890D01*
X8063590Y-15089890D02*
X8082637Y-15099414D01*
X8082637Y-15099414D02*
X8120732Y-15099414D01*
X8120732Y-15099414D02*
X8139780Y-15089890D01*
X8139780Y-15089890D02*
X8149304Y-15080366D01*
X8149304Y-15080366D02*
X8158828Y-15061318D01*
X8158828Y-15061318D02*
X8158828Y-15013699D01*
X8158828Y-15013699D02*
X8149304Y-14994652D01*
X8149304Y-14994652D02*
X8139780Y-14985128D01*
X8139780Y-14985128D02*
X8120732Y-14975604D01*
X8120732Y-14975604D02*
X8082637Y-14975604D01*
X8082637Y-14975604D02*
X8063590Y-14985128D01*
X8063590Y-14985128D02*
X8054066Y-14994652D01*
X8054066Y-14994652D02*
X8044542Y-15013699D01*
X8396923Y-15099414D02*
X8396923Y-14899414D01*
X8482637Y-15099414D02*
X8482637Y-14994652D01*
X8482637Y-14994652D02*
X8473114Y-14975604D01*
X8473114Y-14975604D02*
X8454066Y-14966080D01*
X8454066Y-14966080D02*
X8425494Y-14966080D01*
X8425494Y-14966080D02*
X8406447Y-14975604D01*
X8406447Y-14975604D02*
X8396923Y-14985128D01*
X8606447Y-15099414D02*
X8587399Y-15089890D01*
X8587399Y-15089890D02*
X8577875Y-15080366D01*
X8577875Y-15080366D02*
X8568352Y-15061318D01*
X8568352Y-15061318D02*
X8568352Y-15004176D01*
X8568352Y-15004176D02*
X8577875Y-14985128D01*
X8577875Y-14985128D02*
X8587399Y-14975604D01*
X8587399Y-14975604D02*
X8606447Y-14966080D01*
X8606447Y-14966080D02*
X8635018Y-14966080D01*
X8635018Y-14966080D02*
X8654066Y-14975604D01*
X8654066Y-14975604D02*
X8663590Y-14985128D01*
X8663590Y-14985128D02*
X8673114Y-15004176D01*
X8673114Y-15004176D02*
X8673114Y-15061318D01*
X8673114Y-15061318D02*
X8663590Y-15080366D01*
X8663590Y-15080366D02*
X8654066Y-15089890D01*
X8654066Y-15089890D02*
X8635018Y-15099414D01*
X8635018Y-15099414D02*
X8606447Y-15099414D01*
X8787399Y-15099414D02*
X8768352Y-15089890D01*
X8768352Y-15089890D02*
X8758828Y-15070842D01*
X8758828Y-15070842D02*
X8758828Y-14899414D01*
X8939780Y-15089890D02*
X8920733Y-15099414D01*
X8920733Y-15099414D02*
X8882637Y-15099414D01*
X8882637Y-15099414D02*
X8863590Y-15089890D01*
X8863590Y-15089890D02*
X8854066Y-15070842D01*
X8854066Y-15070842D02*
X8854066Y-14994652D01*
X8854066Y-14994652D02*
X8863590Y-14975604D01*
X8863590Y-14975604D02*
X8882637Y-14966080D01*
X8882637Y-14966080D02*
X8920733Y-14966080D01*
X8920733Y-14966080D02*
X8939780Y-14975604D01*
X8939780Y-14975604D02*
X8949304Y-14994652D01*
X8949304Y-14994652D02*
X8949304Y-15013699D01*
X8949304Y-15013699D02*
X8854066Y-15032747D01*
X9025495Y-15089890D02*
X9044542Y-15099414D01*
X9044542Y-15099414D02*
X9082637Y-15099414D01*
X9082637Y-15099414D02*
X9101685Y-15089890D01*
X9101685Y-15089890D02*
X9111209Y-15070842D01*
X9111209Y-15070842D02*
X9111209Y-15061318D01*
X9111209Y-15061318D02*
X9101685Y-15042271D01*
X9101685Y-15042271D02*
X9082637Y-15032747D01*
X9082637Y-15032747D02*
X9054066Y-15032747D01*
X9054066Y-15032747D02*
X9035018Y-15023223D01*
X9035018Y-15023223D02*
X9025495Y-15004176D01*
X9025495Y-15004176D02*
X9025495Y-14994652D01*
X9025495Y-14994652D02*
X9035018Y-14975604D01*
X9035018Y-14975604D02*
X9054066Y-14966080D01*
X9054066Y-14966080D02*
X9082637Y-14966080D01*
X9082637Y-14966080D02*
X9101685Y-14975604D01*
X9177876Y-15175604D02*
X9187399Y-15166080D01*
X9187399Y-15166080D02*
X9206447Y-15137509D01*
X9206447Y-15137509D02*
X9215971Y-15118461D01*
X9215971Y-15118461D02*
X9225495Y-15089890D01*
X9225495Y-15089890D02*
X9235018Y-15042271D01*
X9235018Y-15042271D02*
X9235018Y-15004176D01*
X9235018Y-15004176D02*
X9225495Y-14956557D01*
X9225495Y-14956557D02*
X9215971Y-14927985D01*
X9215971Y-14927985D02*
X9206447Y-14908938D01*
X9206447Y-14908938D02*
X9187399Y-14880366D01*
X9187399Y-14880366D02*
X9177876Y-14870842D01*
X9539780Y-15175604D02*
X9530256Y-15166080D01*
X9530256Y-15166080D02*
X9511209Y-15137509D01*
X9511209Y-15137509D02*
X9501685Y-15118461D01*
X9501685Y-15118461D02*
X9492161Y-15089890D01*
X9492161Y-15089890D02*
X9482637Y-15042271D01*
X9482637Y-15042271D02*
X9482637Y-15004176D01*
X9482637Y-15004176D02*
X9492161Y-14956557D01*
X9492161Y-14956557D02*
X9501685Y-14927985D01*
X9501685Y-14927985D02*
X9511209Y-14908938D01*
X9511209Y-14908938D02*
X9530256Y-14880366D01*
X9530256Y-14880366D02*
X9539780Y-14870842D01*
X9615971Y-14966080D02*
X9615971Y-15099414D01*
X9615971Y-14985128D02*
X9625495Y-14975604D01*
X9625495Y-14975604D02*
X9644542Y-14966080D01*
X9644542Y-14966080D02*
X9673114Y-14966080D01*
X9673114Y-14966080D02*
X9692161Y-14975604D01*
X9692161Y-14975604D02*
X9701685Y-14994652D01*
X9701685Y-14994652D02*
X9701685Y-15099414D01*
X9825495Y-15099414D02*
X9806447Y-15089890D01*
X9806447Y-15089890D02*
X9796923Y-15080366D01*
X9796923Y-15080366D02*
X9787399Y-15061318D01*
X9787399Y-15061318D02*
X9787399Y-15004176D01*
X9787399Y-15004176D02*
X9796923Y-14985128D01*
X9796923Y-14985128D02*
X9806447Y-14975604D01*
X9806447Y-14975604D02*
X9825495Y-14966080D01*
X9825495Y-14966080D02*
X9854066Y-14966080D01*
X9854066Y-14966080D02*
X9873114Y-14975604D01*
X9873114Y-14975604D02*
X9882637Y-14985128D01*
X9882637Y-14985128D02*
X9892161Y-15004176D01*
X9892161Y-15004176D02*
X9892161Y-15061318D01*
X9892161Y-15061318D02*
X9882637Y-15080366D01*
X9882637Y-15080366D02*
X9873114Y-15089890D01*
X9873114Y-15089890D02*
X9854066Y-15099414D01*
X9854066Y-15099414D02*
X9825495Y-15099414D01*
X9949304Y-14966080D02*
X10025495Y-14966080D01*
X9977876Y-14899414D02*
X9977876Y-15070842D01*
X9977876Y-15070842D02*
X9987399Y-15089890D01*
X9987399Y-15089890D02*
X10006447Y-15099414D01*
X10006447Y-15099414D02*
X10025495Y-15099414D01*
X10244542Y-14966080D02*
X10244542Y-15166080D01*
X10244542Y-14975604D02*
X10263590Y-14966080D01*
X10263590Y-14966080D02*
X10301685Y-14966080D01*
X10301685Y-14966080D02*
X10320733Y-14975604D01*
X10320733Y-14975604D02*
X10330257Y-14985128D01*
X10330257Y-14985128D02*
X10339780Y-15004176D01*
X10339780Y-15004176D02*
X10339780Y-15061318D01*
X10339780Y-15061318D02*
X10330257Y-15080366D01*
X10330257Y-15080366D02*
X10320733Y-15089890D01*
X10320733Y-15089890D02*
X10301685Y-15099414D01*
X10301685Y-15099414D02*
X10263590Y-15099414D01*
X10263590Y-15099414D02*
X10244542Y-15089890D01*
X10454066Y-15099414D02*
X10435018Y-15089890D01*
X10435018Y-15089890D02*
X10425495Y-15070842D01*
X10425495Y-15070842D02*
X10425495Y-14899414D01*
X10615971Y-15099414D02*
X10615971Y-14994652D01*
X10615971Y-14994652D02*
X10606447Y-14975604D01*
X10606447Y-14975604D02*
X10587399Y-14966080D01*
X10587399Y-14966080D02*
X10549304Y-14966080D01*
X10549304Y-14966080D02*
X10530257Y-14975604D01*
X10615971Y-15089890D02*
X10596923Y-15099414D01*
X10596923Y-15099414D02*
X10549304Y-15099414D01*
X10549304Y-15099414D02*
X10530257Y-15089890D01*
X10530257Y-15089890D02*
X10520733Y-15070842D01*
X10520733Y-15070842D02*
X10520733Y-15051795D01*
X10520733Y-15051795D02*
X10530257Y-15032747D01*
X10530257Y-15032747D02*
X10549304Y-15023223D01*
X10549304Y-15023223D02*
X10596923Y-15023223D01*
X10596923Y-15023223D02*
X10615971Y-15013699D01*
X10682638Y-14966080D02*
X10758828Y-14966080D01*
X10711209Y-14899414D02*
X10711209Y-15070842D01*
X10711209Y-15070842D02*
X10720733Y-15089890D01*
X10720733Y-15089890D02*
X10739780Y-15099414D01*
X10739780Y-15099414D02*
X10758828Y-15099414D01*
X10901685Y-15089890D02*
X10882638Y-15099414D01*
X10882638Y-15099414D02*
X10844542Y-15099414D01*
X10844542Y-15099414D02*
X10825495Y-15089890D01*
X10825495Y-15089890D02*
X10815971Y-15070842D01*
X10815971Y-15070842D02*
X10815971Y-14994652D01*
X10815971Y-14994652D02*
X10825495Y-14975604D01*
X10825495Y-14975604D02*
X10844542Y-14966080D01*
X10844542Y-14966080D02*
X10882638Y-14966080D01*
X10882638Y-14966080D02*
X10901685Y-14975604D01*
X10901685Y-14975604D02*
X10911209Y-14994652D01*
X10911209Y-14994652D02*
X10911209Y-15013699D01*
X10911209Y-15013699D02*
X10815971Y-15032747D01*
X11082638Y-15099414D02*
X11082638Y-14899414D01*
X11082638Y-15089890D02*
X11063590Y-15099414D01*
X11063590Y-15099414D02*
X11025495Y-15099414D01*
X11025495Y-15099414D02*
X11006447Y-15089890D01*
X11006447Y-15089890D02*
X10996923Y-15080366D01*
X10996923Y-15080366D02*
X10987399Y-15061318D01*
X10987399Y-15061318D02*
X10987399Y-15004176D01*
X10987399Y-15004176D02*
X10996923Y-14985128D01*
X10996923Y-14985128D02*
X11006447Y-14975604D01*
X11006447Y-14975604D02*
X11025495Y-14966080D01*
X11025495Y-14966080D02*
X11063590Y-14966080D01*
X11063590Y-14966080D02*
X11082638Y-14975604D01*
X11158828Y-15175604D02*
X11168352Y-15166080D01*
X11168352Y-15166080D02*
X11187399Y-15137509D01*
X11187399Y-15137509D02*
X11196923Y-15118461D01*
X11196923Y-15118461D02*
X11206447Y-15089890D01*
X11206447Y-15089890D02*
X11215971Y-15042271D01*
X11215971Y-15042271D02*
X11215971Y-15004176D01*
X11215971Y-15004176D02*
X11206447Y-14956557D01*
X11206447Y-14956557D02*
X11196923Y-14927985D01*
X11196923Y-14927985D02*
X11187399Y-14908938D01*
X11187399Y-14908938D02*
X11168352Y-14880366D01*
X11168352Y-14880366D02*
X11158828Y-14870842D01*
X4373524Y-15398641D02*
X4373524Y-15257219D01*
X4232101Y-15257219D01*
X4232101Y-15398641D01*
X4373524Y-15398641D01*
X4644542Y-15219414D02*
X4768351Y-15219414D01*
X4768351Y-15219414D02*
X4701685Y-15295604D01*
X4701685Y-15295604D02*
X4730256Y-15295604D01*
X4730256Y-15295604D02*
X4749304Y-15305128D01*
X4749304Y-15305128D02*
X4758827Y-15314652D01*
X4758827Y-15314652D02*
X4768351Y-15333699D01*
X4768351Y-15333699D02*
X4768351Y-15381318D01*
X4768351Y-15381318D02*
X4758827Y-15400366D01*
X4758827Y-15400366D02*
X4749304Y-15409890D01*
X4749304Y-15409890D02*
X4730256Y-15419414D01*
X4730256Y-15419414D02*
X4673113Y-15419414D01*
X4673113Y-15419414D02*
X4654066Y-15409890D01*
X4654066Y-15409890D02*
X4644542Y-15400366D01*
X4854066Y-15400366D02*
X4863589Y-15409890D01*
X4863589Y-15409890D02*
X4854066Y-15419414D01*
X4854066Y-15419414D02*
X4844542Y-15409890D01*
X4844542Y-15409890D02*
X4854066Y-15400366D01*
X4854066Y-15400366D02*
X4854066Y-15419414D01*
X4958827Y-15419414D02*
X4996923Y-15419414D01*
X4996923Y-15419414D02*
X5015970Y-15409890D01*
X5015970Y-15409890D02*
X5025494Y-15400366D01*
X5025494Y-15400366D02*
X5044542Y-15371795D01*
X5044542Y-15371795D02*
X5054066Y-15333699D01*
X5054066Y-15333699D02*
X5054066Y-15257509D01*
X5054066Y-15257509D02*
X5044542Y-15238461D01*
X5044542Y-15238461D02*
X5035018Y-15228938D01*
X5035018Y-15228938D02*
X5015970Y-15219414D01*
X5015970Y-15219414D02*
X4977875Y-15219414D01*
X4977875Y-15219414D02*
X4958827Y-15228938D01*
X4958827Y-15228938D02*
X4949304Y-15238461D01*
X4949304Y-15238461D02*
X4939780Y-15257509D01*
X4939780Y-15257509D02*
X4939780Y-15305128D01*
X4939780Y-15305128D02*
X4949304Y-15324176D01*
X4949304Y-15324176D02*
X4958827Y-15333699D01*
X4958827Y-15333699D02*
X4977875Y-15343223D01*
X4977875Y-15343223D02*
X5015970Y-15343223D01*
X5015970Y-15343223D02*
X5035018Y-15333699D01*
X5035018Y-15333699D02*
X5044542Y-15324176D01*
X5044542Y-15324176D02*
X5054066Y-15305128D01*
X5168351Y-15305128D02*
X5149304Y-15295604D01*
X5149304Y-15295604D02*
X5139780Y-15286080D01*
X5139780Y-15286080D02*
X5130256Y-15267033D01*
X5130256Y-15267033D02*
X5130256Y-15257509D01*
X5130256Y-15257509D02*
X5139780Y-15238461D01*
X5139780Y-15238461D02*
X5149304Y-15228938D01*
X5149304Y-15228938D02*
X5168351Y-15219414D01*
X5168351Y-15219414D02*
X5206447Y-15219414D01*
X5206447Y-15219414D02*
X5225494Y-15228938D01*
X5225494Y-15228938D02*
X5235018Y-15238461D01*
X5235018Y-15238461D02*
X5244542Y-15257509D01*
X5244542Y-15257509D02*
X5244542Y-15267033D01*
X5244542Y-15267033D02*
X5235018Y-15286080D01*
X5235018Y-15286080D02*
X5225494Y-15295604D01*
X5225494Y-15295604D02*
X5206447Y-15305128D01*
X5206447Y-15305128D02*
X5168351Y-15305128D01*
X5168351Y-15305128D02*
X5149304Y-15314652D01*
X5149304Y-15314652D02*
X5139780Y-15324176D01*
X5139780Y-15324176D02*
X5130256Y-15343223D01*
X5130256Y-15343223D02*
X5130256Y-15381318D01*
X5130256Y-15381318D02*
X5139780Y-15400366D01*
X5139780Y-15400366D02*
X5149304Y-15409890D01*
X5149304Y-15409890D02*
X5168351Y-15419414D01*
X5168351Y-15419414D02*
X5206447Y-15419414D01*
X5206447Y-15419414D02*
X5225494Y-15409890D01*
X5225494Y-15409890D02*
X5235018Y-15400366D01*
X5235018Y-15400366D02*
X5244542Y-15381318D01*
X5244542Y-15381318D02*
X5244542Y-15343223D01*
X5244542Y-15343223D02*
X5235018Y-15324176D01*
X5235018Y-15324176D02*
X5225494Y-15314652D01*
X5225494Y-15314652D02*
X5206447Y-15305128D01*
X5358827Y-15305128D02*
X5339780Y-15295604D01*
X5339780Y-15295604D02*
X5330256Y-15286080D01*
X5330256Y-15286080D02*
X5320732Y-15267033D01*
X5320732Y-15267033D02*
X5320732Y-15257509D01*
X5320732Y-15257509D02*
X5330256Y-15238461D01*
X5330256Y-15238461D02*
X5339780Y-15228938D01*
X5339780Y-15228938D02*
X5358827Y-15219414D01*
X5358827Y-15219414D02*
X5396923Y-15219414D01*
X5396923Y-15219414D02*
X5415970Y-15228938D01*
X5415970Y-15228938D02*
X5425494Y-15238461D01*
X5425494Y-15238461D02*
X5435018Y-15257509D01*
X5435018Y-15257509D02*
X5435018Y-15267033D01*
X5435018Y-15267033D02*
X5425494Y-15286080D01*
X5425494Y-15286080D02*
X5415970Y-15295604D01*
X5415970Y-15295604D02*
X5396923Y-15305128D01*
X5396923Y-15305128D02*
X5358827Y-15305128D01*
X5358827Y-15305128D02*
X5339780Y-15314652D01*
X5339780Y-15314652D02*
X5330256Y-15324176D01*
X5330256Y-15324176D02*
X5320732Y-15343223D01*
X5320732Y-15343223D02*
X5320732Y-15381318D01*
X5320732Y-15381318D02*
X5330256Y-15400366D01*
X5330256Y-15400366D02*
X5339780Y-15409890D01*
X5339780Y-15409890D02*
X5358827Y-15419414D01*
X5358827Y-15419414D02*
X5396923Y-15419414D01*
X5396923Y-15419414D02*
X5415970Y-15409890D01*
X5415970Y-15409890D02*
X5425494Y-15400366D01*
X5425494Y-15400366D02*
X5435018Y-15381318D01*
X5435018Y-15381318D02*
X5435018Y-15343223D01*
X5435018Y-15343223D02*
X5425494Y-15324176D01*
X5425494Y-15324176D02*
X5415970Y-15314652D01*
X5415970Y-15314652D02*
X5396923Y-15305128D01*
X5520732Y-15419414D02*
X5520732Y-15286080D01*
X5520732Y-15305128D02*
X5530256Y-15295604D01*
X5530256Y-15295604D02*
X5549304Y-15286080D01*
X5549304Y-15286080D02*
X5577875Y-15286080D01*
X5577875Y-15286080D02*
X5596923Y-15295604D01*
X5596923Y-15295604D02*
X5606446Y-15314652D01*
X5606446Y-15314652D02*
X5606446Y-15419414D01*
X5606446Y-15314652D02*
X5615970Y-15295604D01*
X5615970Y-15295604D02*
X5635018Y-15286080D01*
X5635018Y-15286080D02*
X5663589Y-15286080D01*
X5663589Y-15286080D02*
X5682637Y-15295604D01*
X5682637Y-15295604D02*
X5692161Y-15314652D01*
X5692161Y-15314652D02*
X5692161Y-15419414D01*
X5787399Y-15419414D02*
X5787399Y-15286080D01*
X5787399Y-15305128D02*
X5796923Y-15295604D01*
X5796923Y-15295604D02*
X5815970Y-15286080D01*
X5815970Y-15286080D02*
X5844542Y-15286080D01*
X5844542Y-15286080D02*
X5863589Y-15295604D01*
X5863589Y-15295604D02*
X5873113Y-15314652D01*
X5873113Y-15314652D02*
X5873113Y-15419414D01*
X5873113Y-15314652D02*
X5882637Y-15295604D01*
X5882637Y-15295604D02*
X5901685Y-15286080D01*
X5901685Y-15286080D02*
X5930256Y-15286080D01*
X5930256Y-15286080D02*
X5949304Y-15295604D01*
X5949304Y-15295604D02*
X5958827Y-15314652D01*
X5958827Y-15314652D02*
X5958827Y-15419414D01*
X6349304Y-15209890D02*
X6177875Y-15467033D01*
X6606447Y-15219414D02*
X6625494Y-15219414D01*
X6625494Y-15219414D02*
X6644542Y-15228938D01*
X6644542Y-15228938D02*
X6654066Y-15238461D01*
X6654066Y-15238461D02*
X6663589Y-15257509D01*
X6663589Y-15257509D02*
X6673113Y-15295604D01*
X6673113Y-15295604D02*
X6673113Y-15343223D01*
X6673113Y-15343223D02*
X6663589Y-15381318D01*
X6663589Y-15381318D02*
X6654066Y-15400366D01*
X6654066Y-15400366D02*
X6644542Y-15409890D01*
X6644542Y-15409890D02*
X6625494Y-15419414D01*
X6625494Y-15419414D02*
X6606447Y-15419414D01*
X6606447Y-15419414D02*
X6587399Y-15409890D01*
X6587399Y-15409890D02*
X6577875Y-15400366D01*
X6577875Y-15400366D02*
X6568351Y-15381318D01*
X6568351Y-15381318D02*
X6558828Y-15343223D01*
X6558828Y-15343223D02*
X6558828Y-15295604D01*
X6558828Y-15295604D02*
X6568351Y-15257509D01*
X6568351Y-15257509D02*
X6577875Y-15238461D01*
X6577875Y-15238461D02*
X6587399Y-15228938D01*
X6587399Y-15228938D02*
X6606447Y-15219414D01*
X6758828Y-15400366D02*
X6768351Y-15409890D01*
X6768351Y-15409890D02*
X6758828Y-15419414D01*
X6758828Y-15419414D02*
X6749304Y-15409890D01*
X6749304Y-15409890D02*
X6758828Y-15400366D01*
X6758828Y-15400366D02*
X6758828Y-15419414D01*
X6958828Y-15419414D02*
X6844542Y-15419414D01*
X6901685Y-15419414D02*
X6901685Y-15219414D01*
X6901685Y-15219414D02*
X6882637Y-15247985D01*
X6882637Y-15247985D02*
X6863589Y-15267033D01*
X6863589Y-15267033D02*
X6844542Y-15276557D01*
X7139780Y-15219414D02*
X7044542Y-15219414D01*
X7044542Y-15219414D02*
X7035018Y-15314652D01*
X7035018Y-15314652D02*
X7044542Y-15305128D01*
X7044542Y-15305128D02*
X7063589Y-15295604D01*
X7063589Y-15295604D02*
X7111209Y-15295604D01*
X7111209Y-15295604D02*
X7130256Y-15305128D01*
X7130256Y-15305128D02*
X7139780Y-15314652D01*
X7139780Y-15314652D02*
X7149304Y-15333699D01*
X7149304Y-15333699D02*
X7149304Y-15381318D01*
X7149304Y-15381318D02*
X7139780Y-15400366D01*
X7139780Y-15400366D02*
X7130256Y-15409890D01*
X7130256Y-15409890D02*
X7111209Y-15419414D01*
X7111209Y-15419414D02*
X7063589Y-15419414D01*
X7063589Y-15419414D02*
X7044542Y-15409890D01*
X7044542Y-15409890D02*
X7035018Y-15400366D01*
X7215970Y-15219414D02*
X7349304Y-15219414D01*
X7349304Y-15219414D02*
X7263589Y-15419414D01*
X7463589Y-15219414D02*
X7482637Y-15219414D01*
X7482637Y-15219414D02*
X7501685Y-15228938D01*
X7501685Y-15228938D02*
X7511209Y-15238461D01*
X7511209Y-15238461D02*
X7520732Y-15257509D01*
X7520732Y-15257509D02*
X7530256Y-15295604D01*
X7530256Y-15295604D02*
X7530256Y-15343223D01*
X7530256Y-15343223D02*
X7520732Y-15381318D01*
X7520732Y-15381318D02*
X7511209Y-15400366D01*
X7511209Y-15400366D02*
X7501685Y-15409890D01*
X7501685Y-15409890D02*
X7482637Y-15419414D01*
X7482637Y-15419414D02*
X7463589Y-15419414D01*
X7463589Y-15419414D02*
X7444542Y-15409890D01*
X7444542Y-15409890D02*
X7435018Y-15400366D01*
X7435018Y-15400366D02*
X7425494Y-15381318D01*
X7425494Y-15381318D02*
X7415970Y-15343223D01*
X7415970Y-15343223D02*
X7415970Y-15295604D01*
X7415970Y-15295604D02*
X7425494Y-15257509D01*
X7425494Y-15257509D02*
X7435018Y-15238461D01*
X7435018Y-15238461D02*
X7444542Y-15228938D01*
X7444542Y-15228938D02*
X7463589Y-15219414D01*
X7606447Y-15219414D02*
X7606447Y-15257509D01*
X7682637Y-15219414D02*
X7682637Y-15257509D01*
X7977875Y-15495604D02*
X7968351Y-15486080D01*
X7968351Y-15486080D02*
X7949304Y-15457509D01*
X7949304Y-15457509D02*
X7939780Y-15438461D01*
X7939780Y-15438461D02*
X7930256Y-15409890D01*
X7930256Y-15409890D02*
X7920732Y-15362271D01*
X7920732Y-15362271D02*
X7920732Y-15324176D01*
X7920732Y-15324176D02*
X7930256Y-15276557D01*
X7930256Y-15276557D02*
X7939780Y-15247985D01*
X7939780Y-15247985D02*
X7949304Y-15228938D01*
X7949304Y-15228938D02*
X7968351Y-15200366D01*
X7968351Y-15200366D02*
X7977875Y-15190842D01*
X8044542Y-15238461D02*
X8054066Y-15228938D01*
X8054066Y-15228938D02*
X8073113Y-15219414D01*
X8073113Y-15219414D02*
X8120732Y-15219414D01*
X8120732Y-15219414D02*
X8139780Y-15228938D01*
X8139780Y-15228938D02*
X8149304Y-15238461D01*
X8149304Y-15238461D02*
X8158828Y-15257509D01*
X8158828Y-15257509D02*
X8158828Y-15276557D01*
X8158828Y-15276557D02*
X8149304Y-15305128D01*
X8149304Y-15305128D02*
X8035018Y-15419414D01*
X8035018Y-15419414D02*
X8158828Y-15419414D01*
X8349304Y-15419414D02*
X8235018Y-15419414D01*
X8292161Y-15419414D02*
X8292161Y-15219414D01*
X8292161Y-15219414D02*
X8273113Y-15247985D01*
X8273113Y-15247985D02*
X8254066Y-15267033D01*
X8254066Y-15267033D02*
X8235018Y-15276557D01*
X8587399Y-15419414D02*
X8587399Y-15219414D01*
X8673114Y-15419414D02*
X8673114Y-15314652D01*
X8673114Y-15314652D02*
X8663590Y-15295604D01*
X8663590Y-15295604D02*
X8644542Y-15286080D01*
X8644542Y-15286080D02*
X8615971Y-15286080D01*
X8615971Y-15286080D02*
X8596923Y-15295604D01*
X8596923Y-15295604D02*
X8587399Y-15305128D01*
X8796923Y-15419414D02*
X8777875Y-15409890D01*
X8777875Y-15409890D02*
X8768352Y-15400366D01*
X8768352Y-15400366D02*
X8758828Y-15381318D01*
X8758828Y-15381318D02*
X8758828Y-15324176D01*
X8758828Y-15324176D02*
X8768352Y-15305128D01*
X8768352Y-15305128D02*
X8777875Y-15295604D01*
X8777875Y-15295604D02*
X8796923Y-15286080D01*
X8796923Y-15286080D02*
X8825495Y-15286080D01*
X8825495Y-15286080D02*
X8844542Y-15295604D01*
X8844542Y-15295604D02*
X8854066Y-15305128D01*
X8854066Y-15305128D02*
X8863590Y-15324176D01*
X8863590Y-15324176D02*
X8863590Y-15381318D01*
X8863590Y-15381318D02*
X8854066Y-15400366D01*
X8854066Y-15400366D02*
X8844542Y-15409890D01*
X8844542Y-15409890D02*
X8825495Y-15419414D01*
X8825495Y-15419414D02*
X8796923Y-15419414D01*
X8977875Y-15419414D02*
X8958828Y-15409890D01*
X8958828Y-15409890D02*
X8949304Y-15390842D01*
X8949304Y-15390842D02*
X8949304Y-15219414D01*
X9130256Y-15409890D02*
X9111209Y-15419414D01*
X9111209Y-15419414D02*
X9073114Y-15419414D01*
X9073114Y-15419414D02*
X9054066Y-15409890D01*
X9054066Y-15409890D02*
X9044542Y-15390842D01*
X9044542Y-15390842D02*
X9044542Y-15314652D01*
X9044542Y-15314652D02*
X9054066Y-15295604D01*
X9054066Y-15295604D02*
X9073114Y-15286080D01*
X9073114Y-15286080D02*
X9111209Y-15286080D01*
X9111209Y-15286080D02*
X9130256Y-15295604D01*
X9130256Y-15295604D02*
X9139780Y-15314652D01*
X9139780Y-15314652D02*
X9139780Y-15333699D01*
X9139780Y-15333699D02*
X9044542Y-15352747D01*
X9215971Y-15409890D02*
X9235018Y-15419414D01*
X9235018Y-15419414D02*
X9273114Y-15419414D01*
X9273114Y-15419414D02*
X9292161Y-15409890D01*
X9292161Y-15409890D02*
X9301685Y-15390842D01*
X9301685Y-15390842D02*
X9301685Y-15381318D01*
X9301685Y-15381318D02*
X9292161Y-15362271D01*
X9292161Y-15362271D02*
X9273114Y-15352747D01*
X9273114Y-15352747D02*
X9244542Y-15352747D01*
X9244542Y-15352747D02*
X9225495Y-15343223D01*
X9225495Y-15343223D02*
X9215971Y-15324176D01*
X9215971Y-15324176D02*
X9215971Y-15314652D01*
X9215971Y-15314652D02*
X9225495Y-15295604D01*
X9225495Y-15295604D02*
X9244542Y-15286080D01*
X9244542Y-15286080D02*
X9273114Y-15286080D01*
X9273114Y-15286080D02*
X9292161Y-15295604D01*
X9368352Y-15495604D02*
X9377876Y-15486080D01*
X9377876Y-15486080D02*
X9396923Y-15457509D01*
X9396923Y-15457509D02*
X9406447Y-15438461D01*
X9406447Y-15438461D02*
X9415971Y-15409890D01*
X9415971Y-15409890D02*
X9425495Y-15362271D01*
X9425495Y-15362271D02*
X9425495Y-15324176D01*
X9425495Y-15324176D02*
X9415971Y-15276557D01*
X9415971Y-15276557D02*
X9406447Y-15247985D01*
X9406447Y-15247985D02*
X9396923Y-15228938D01*
X9396923Y-15228938D02*
X9377876Y-15200366D01*
X9377876Y-15200366D02*
X9368352Y-15190842D01*
X9730257Y-15495604D02*
X9720733Y-15486080D01*
X9720733Y-15486080D02*
X9701685Y-15457509D01*
X9701685Y-15457509D02*
X9692161Y-15438461D01*
X9692161Y-15438461D02*
X9682637Y-15409890D01*
X9682637Y-15409890D02*
X9673114Y-15362271D01*
X9673114Y-15362271D02*
X9673114Y-15324176D01*
X9673114Y-15324176D02*
X9682637Y-15276557D01*
X9682637Y-15276557D02*
X9692161Y-15247985D01*
X9692161Y-15247985D02*
X9701685Y-15228938D01*
X9701685Y-15228938D02*
X9720733Y-15200366D01*
X9720733Y-15200366D02*
X9730257Y-15190842D01*
X9806447Y-15286080D02*
X9806447Y-15419414D01*
X9806447Y-15305128D02*
X9815971Y-15295604D01*
X9815971Y-15295604D02*
X9835018Y-15286080D01*
X9835018Y-15286080D02*
X9863590Y-15286080D01*
X9863590Y-15286080D02*
X9882637Y-15295604D01*
X9882637Y-15295604D02*
X9892161Y-15314652D01*
X9892161Y-15314652D02*
X9892161Y-15419414D01*
X10015971Y-15419414D02*
X9996923Y-15409890D01*
X9996923Y-15409890D02*
X9987399Y-15400366D01*
X9987399Y-15400366D02*
X9977876Y-15381318D01*
X9977876Y-15381318D02*
X9977876Y-15324176D01*
X9977876Y-15324176D02*
X9987399Y-15305128D01*
X9987399Y-15305128D02*
X9996923Y-15295604D01*
X9996923Y-15295604D02*
X10015971Y-15286080D01*
X10015971Y-15286080D02*
X10044542Y-15286080D01*
X10044542Y-15286080D02*
X10063590Y-15295604D01*
X10063590Y-15295604D02*
X10073114Y-15305128D01*
X10073114Y-15305128D02*
X10082637Y-15324176D01*
X10082637Y-15324176D02*
X10082637Y-15381318D01*
X10082637Y-15381318D02*
X10073114Y-15400366D01*
X10073114Y-15400366D02*
X10063590Y-15409890D01*
X10063590Y-15409890D02*
X10044542Y-15419414D01*
X10044542Y-15419414D02*
X10015971Y-15419414D01*
X10139780Y-15286080D02*
X10215971Y-15286080D01*
X10168352Y-15219414D02*
X10168352Y-15390842D01*
X10168352Y-15390842D02*
X10177876Y-15409890D01*
X10177876Y-15409890D02*
X10196923Y-15419414D01*
X10196923Y-15419414D02*
X10215971Y-15419414D01*
X10435018Y-15286080D02*
X10435018Y-15486080D01*
X10435018Y-15295604D02*
X10454066Y-15286080D01*
X10454066Y-15286080D02*
X10492161Y-15286080D01*
X10492161Y-15286080D02*
X10511209Y-15295604D01*
X10511209Y-15295604D02*
X10520733Y-15305128D01*
X10520733Y-15305128D02*
X10530257Y-15324176D01*
X10530257Y-15324176D02*
X10530257Y-15381318D01*
X10530257Y-15381318D02*
X10520733Y-15400366D01*
X10520733Y-15400366D02*
X10511209Y-15409890D01*
X10511209Y-15409890D02*
X10492161Y-15419414D01*
X10492161Y-15419414D02*
X10454066Y-15419414D01*
X10454066Y-15419414D02*
X10435018Y-15409890D01*
X10644542Y-15419414D02*
X10625495Y-15409890D01*
X10625495Y-15409890D02*
X10615971Y-15390842D01*
X10615971Y-15390842D02*
X10615971Y-15219414D01*
X10806447Y-15419414D02*
X10806447Y-15314652D01*
X10806447Y-15314652D02*
X10796923Y-15295604D01*
X10796923Y-15295604D02*
X10777876Y-15286080D01*
X10777876Y-15286080D02*
X10739780Y-15286080D01*
X10739780Y-15286080D02*
X10720733Y-15295604D01*
X10806447Y-15409890D02*
X10787399Y-15419414D01*
X10787399Y-15419414D02*
X10739780Y-15419414D01*
X10739780Y-15419414D02*
X10720733Y-15409890D01*
X10720733Y-15409890D02*
X10711209Y-15390842D01*
X10711209Y-15390842D02*
X10711209Y-15371795D01*
X10711209Y-15371795D02*
X10720733Y-15352747D01*
X10720733Y-15352747D02*
X10739780Y-15343223D01*
X10739780Y-15343223D02*
X10787399Y-15343223D01*
X10787399Y-15343223D02*
X10806447Y-15333699D01*
X10873114Y-15286080D02*
X10949304Y-15286080D01*
X10901685Y-15219414D02*
X10901685Y-15390842D01*
X10901685Y-15390842D02*
X10911209Y-15409890D01*
X10911209Y-15409890D02*
X10930257Y-15419414D01*
X10930257Y-15419414D02*
X10949304Y-15419414D01*
X11092161Y-15409890D02*
X11073114Y-15419414D01*
X11073114Y-15419414D02*
X11035018Y-15419414D01*
X11035018Y-15419414D02*
X11015971Y-15409890D01*
X11015971Y-15409890D02*
X11006447Y-15390842D01*
X11006447Y-15390842D02*
X11006447Y-15314652D01*
X11006447Y-15314652D02*
X11015971Y-15295604D01*
X11015971Y-15295604D02*
X11035018Y-15286080D01*
X11035018Y-15286080D02*
X11073114Y-15286080D01*
X11073114Y-15286080D02*
X11092161Y-15295604D01*
X11092161Y-15295604D02*
X11101685Y-15314652D01*
X11101685Y-15314652D02*
X11101685Y-15333699D01*
X11101685Y-15333699D02*
X11006447Y-15352747D01*
X11273114Y-15419414D02*
X11273114Y-15219414D01*
X11273114Y-15409890D02*
X11254066Y-15419414D01*
X11254066Y-15419414D02*
X11215971Y-15419414D01*
X11215971Y-15419414D02*
X11196923Y-15409890D01*
X11196923Y-15409890D02*
X11187399Y-15400366D01*
X11187399Y-15400366D02*
X11177876Y-15381318D01*
X11177876Y-15381318D02*
X11177876Y-15324176D01*
X11177876Y-15324176D02*
X11187399Y-15305128D01*
X11187399Y-15305128D02*
X11196923Y-15295604D01*
X11196923Y-15295604D02*
X11215971Y-15286080D01*
X11215971Y-15286080D02*
X11254066Y-15286080D01*
X11254066Y-15286080D02*
X11273114Y-15295604D01*
X11349304Y-15495604D02*
X11358828Y-15486080D01*
X11358828Y-15486080D02*
X11377876Y-15457509D01*
X11377876Y-15457509D02*
X11387399Y-15438461D01*
X11387399Y-15438461D02*
X11396923Y-15409890D01*
X11396923Y-15409890D02*
X11406447Y-15362271D01*
X11406447Y-15362271D02*
X11406447Y-15324176D01*
X11406447Y-15324176D02*
X11396923Y-15276557D01*
X11396923Y-15276557D02*
X11387399Y-15247985D01*
X11387399Y-15247985D02*
X11377876Y-15228938D01*
X11377876Y-15228938D02*
X11358828Y-15200366D01*
X11358828Y-15200366D02*
X11349304Y-15190842D01*
M02*
