M48
; DRILL file {KiCad 8.0.4} date 2024-09-10T22:18:47+0300
; FORMAT={-:-/ absolute / metric / decimal}
; #@! TF.CreationDate,2024-09-10T22:18:47+03:00
; #@! TF.GenerationSoftware,Kicad,Pcbnew,8.0.4
; #@! TF.FileFunction,NonPlated,1,2,NPTH
FMAT,2
METRIC
; #@! TA.AperFunction,NonPlated,NPTH,ComponentDrill
T1C1.200
; #@! TA.AperFunction,NonPlated,NPTH,ComponentDrill
T2C1.702
; #@! TA.AperFunction,NonPlated,NPTH,ComponentDrill
T3C2.200
; #@! TA.AperFunction,NonPlated,NPTH,ComponentDrill
T4C3.988
%
G90
G05
T1
X164.197Y-99.931
X164.197Y-91.678
X171.197Y-99.931
X171.197Y-91.678
T2
X52.07Y-57.15
X52.07Y-76.2
X52.07Y-95.25
X62.23Y-57.15
X62.23Y-76.2
X62.23Y-95.25
X71.12Y-57.15
X71.12Y-76.2
X71.12Y-95.25
X81.28Y-57.15
X81.28Y-76.2
X81.28Y-95.25
X90.17Y-54.769
X90.17Y-73.819
X90.17Y-92.869
X100.33Y-54.769
X100.33Y-73.819
X100.33Y-92.869
X109.22Y-52.387
X109.22Y-71.438
X109.22Y-90.487
X109.22Y-111.919
X119.38Y-52.387
X119.38Y-71.438
X119.38Y-90.487
X119.38Y-111.919
X128.27Y-54.769
X128.27Y-73.819
X128.27Y-92.869
X130.824Y-112.985
X138.43Y-54.769
X138.43Y-73.819
X138.43Y-92.869
X140.638Y-115.615
X147.32Y-57.15
X147.32Y-76.2
X147.32Y-95.25
X152.763Y-118.904
X157.48Y-57.15
X157.48Y-76.2
X157.48Y-95.25
X161.562Y-123.984
T3
X47.625Y-47.625
X47.625Y-104.775
X104.775Y-82.153
X104.775Y-121.444
X160.734Y-134.541
X161.925Y-47.625
T4
X57.15Y-57.15
X57.15Y-76.2
X57.15Y-95.25
X76.2Y-57.15
X76.2Y-76.2
X76.2Y-95.25
X95.25Y-54.769
X95.25Y-73.819
X95.25Y-92.869
X114.3Y-52.387
X114.3Y-71.438
X114.3Y-90.487
X114.3Y-111.919
X133.35Y-54.769
X133.35Y-73.819
X133.35Y-92.869
X135.731Y-114.3
X152.4Y-57.15
X152.4Y-76.2
X152.4Y-95.25
X157.162Y-121.444
M30
