G04 #@! TF.GenerationSoftware,KiCad,Pcbnew,8.0.4*
G04 #@! TF.CreationDate,2024-09-10T22:18:46+03:00*
G04 #@! TF.ProjectId,muikku42,6d75696b-6b75-4343-922e-6b696361645f,rev?*
G04 #@! TF.SameCoordinates,Original*
G04 #@! TF.FileFunction,OtherDrawing,Comment*
%FSLAX46Y46*%
G04 Gerber Fmt 4.6, Leading zero omitted, Abs format (unit mm)*
G04 Created by KiCad (PCBNEW 8.0.4) date 2024-09-10 22:18:46*
%MOMM*%
%LPD*%
G01*
G04 APERTURE LIST*
%ADD10C,0.150000*%
%ADD11C,0.120000*%
G04 APERTURE END LIST*
D10*
G04 #@! TO.C,S5*
X123850000Y-45218750D02*
X142900000Y-45218750D01*
X123850000Y-64268750D02*
X123850000Y-45218750D01*
X142900000Y-45218750D02*
X142900000Y-64268750D01*
X142900000Y-64268750D02*
X123850000Y-64268750D01*
G04 #@! TO.C,S11*
X123850000Y-64268750D02*
X142900000Y-64268750D01*
X123850000Y-83318750D02*
X123850000Y-64268750D01*
X142900000Y-64268750D02*
X142900000Y-83318750D01*
X142900000Y-83318750D02*
X123850000Y-83318750D01*
G04 #@! TO.C,S7*
X47650000Y-66650000D02*
X66700000Y-66650000D01*
X47650000Y-85700000D02*
X47650000Y-66650000D01*
X66700000Y-66650000D02*
X66700000Y-85700000D01*
X66700000Y-85700000D02*
X47650000Y-85700000D01*
G04 #@! TO.C,S15*
X85750000Y-83318750D02*
X104800000Y-83318750D01*
X85750000Y-102368750D02*
X85750000Y-83318750D01*
X104800000Y-83318750D02*
X104800000Y-102368750D01*
X104800000Y-102368750D02*
X85750000Y-102368750D01*
G04 #@! TO.C,S4*
X104800000Y-42837500D02*
X123850000Y-42837500D01*
X104800000Y-61887500D02*
X104800000Y-42837500D01*
X123850000Y-42837500D02*
X123850000Y-61887500D01*
X123850000Y-61887500D02*
X104800000Y-61887500D01*
G04 #@! TO.C,S18*
X142900000Y-85700000D02*
X161950000Y-85700000D01*
X142900000Y-104750000D02*
X142900000Y-85700000D01*
X161950000Y-85700000D02*
X161950000Y-104750000D01*
X161950000Y-104750000D02*
X142900000Y-104750000D01*
G04 #@! TO.C,S6*
X142900000Y-47600000D02*
X161950000Y-47600000D01*
X142900000Y-66650000D02*
X142900000Y-47600000D01*
X161950000Y-47600000D02*
X161950000Y-66650000D01*
X161950000Y-66650000D02*
X142900000Y-66650000D01*
G04 #@! TO.C,S17*
X123850000Y-83318750D02*
X142900000Y-83318750D01*
X123850000Y-102368750D02*
X123850000Y-83318750D01*
X142900000Y-83318750D02*
X142900000Y-102368750D01*
X142900000Y-102368750D02*
X123850000Y-102368750D01*
G04 #@! TO.C,S14*
X66700000Y-85700000D02*
X85750000Y-85700000D01*
X66700000Y-104750000D02*
X66700000Y-85700000D01*
X85750000Y-85700000D02*
X85750000Y-104750000D01*
X85750000Y-104750000D02*
X66700000Y-104750000D01*
G04 #@! TO.C,S8*
X66700000Y-66650000D02*
X85750000Y-66650000D01*
X66700000Y-85700000D02*
X66700000Y-66650000D01*
X85750000Y-66650000D02*
X85750000Y-85700000D01*
X85750000Y-85700000D02*
X66700000Y-85700000D01*
G04 #@! TO.C,S2*
X66700000Y-47600000D02*
X85750000Y-47600000D01*
X66700000Y-66650000D02*
X66700000Y-47600000D01*
X85750000Y-47600000D02*
X85750000Y-66650000D01*
X85750000Y-66650000D02*
X66700000Y-66650000D01*
G04 #@! TO.C,U1*
D11*
X162926250Y-51829375D02*
X180926250Y-51829375D01*
X180926250Y-75329375D01*
X162926250Y-75329375D01*
X162926250Y-51829375D01*
D10*
G04 #@! TO.C,S16*
X104800000Y-80937500D02*
X123850000Y-80937500D01*
X104800000Y-99987500D02*
X104800000Y-80937500D01*
X123850000Y-80937500D02*
X123850000Y-99987500D01*
X123850000Y-99987500D02*
X104800000Y-99987500D01*
G04 #@! TO.C,S10*
X104800000Y-61887500D02*
X123850000Y-61887500D01*
X104800000Y-80937500D02*
X104800000Y-61887500D01*
X123850000Y-61887500D02*
X123850000Y-80937500D01*
X123850000Y-80937500D02*
X104800000Y-80937500D01*
G04 #@! TO.C,S12*
X142900000Y-66650000D02*
X161950000Y-66650000D01*
X142900000Y-85700000D02*
X142900000Y-66650000D01*
X161950000Y-66650000D02*
X161950000Y-85700000D01*
X161950000Y-85700000D02*
X142900000Y-85700000D01*
G04 #@! TO.C,S1*
X47650000Y-47600000D02*
X66700000Y-47600000D01*
X47650000Y-66650000D02*
X47650000Y-47600000D01*
X66700000Y-47600000D02*
X66700000Y-66650000D01*
X66700000Y-66650000D02*
X47650000Y-66650000D01*
G04 #@! TO.C,S3*
X85750000Y-45218750D02*
X104800000Y-45218750D01*
X85750000Y-64268750D02*
X85750000Y-45218750D01*
X104800000Y-45218750D02*
X104800000Y-64268750D01*
X104800000Y-64268750D02*
X85750000Y-64268750D01*
G04 #@! TO.C,S13*
X47650000Y-85700000D02*
X66700000Y-85700000D01*
X47650000Y-104750000D02*
X47650000Y-85700000D01*
X66700000Y-85700000D02*
X66700000Y-104750000D01*
X66700000Y-104750000D02*
X47650000Y-104750000D01*
G04 #@! TO.C,S19*
X104800000Y-102368750D02*
X123850000Y-102368750D01*
X104800000Y-121418750D02*
X104800000Y-102368750D01*
X123850000Y-102368750D02*
X123850000Y-121418750D01*
X123850000Y-121418750D02*
X104800000Y-121418750D01*
G04 #@! TO.C,S21*
X144185259Y-124920991D02*
X153710259Y-108423207D01*
X153710259Y-108423207D02*
X170208043Y-117948207D01*
X160683043Y-134445991D02*
X144185259Y-124920991D01*
X170208043Y-117948207D02*
X160683043Y-134445991D01*
G04 #@! TO.C,S20*
X124096174Y-121017514D02*
X129026677Y-102616625D01*
X129026677Y-102616625D02*
X147427564Y-107547130D01*
X142497061Y-125948017D02*
X124096174Y-121017514D01*
X147427564Y-107547130D02*
X142497061Y-125948017D01*
G04 #@! TO.C,S9*
X85750000Y-64268750D02*
X104800000Y-64268750D01*
X85750000Y-83318750D02*
X85750000Y-64268750D01*
X104800000Y-64268750D02*
X104800000Y-83318750D01*
X104800000Y-83318750D02*
X85750000Y-83318750D01*
G04 #@! TD*
M02*
