G04 #@! TF.GenerationSoftware,KiCad,Pcbnew,8.0.4*
G04 #@! TF.CreationDate,2024-09-10T22:18:47+03:00*
G04 #@! TF.ProjectId,muikku42,6d75696b-6b75-4343-922e-6b696361645f,rev?*
G04 #@! TF.SameCoordinates,Original*
G04 #@! TF.FileFunction,AssemblyDrawing,Bot*
%FSLAX46Y46*%
G04 Gerber Fmt 4.6, Leading zero omitted, Abs format (unit mm)*
G04 Created by KiCad (PCBNEW 8.0.4) date 2024-09-10 22:18:47*
%MOMM*%
%LPD*%
G01*
G04 APERTURE LIST*
%ADD10C,0.150000*%
%ADD11C,0.100000*%
%ADD12C,0.120000*%
G04 APERTURE END LIST*
D10*
X134111904Y-55175950D02*
X133969047Y-55223569D01*
X133969047Y-55223569D02*
X133730952Y-55223569D01*
X133730952Y-55223569D02*
X133635714Y-55175950D01*
X133635714Y-55175950D02*
X133588095Y-55128330D01*
X133588095Y-55128330D02*
X133540476Y-55033092D01*
X133540476Y-55033092D02*
X133540476Y-54937854D01*
X133540476Y-54937854D02*
X133588095Y-54842616D01*
X133588095Y-54842616D02*
X133635714Y-54794997D01*
X133635714Y-54794997D02*
X133730952Y-54747378D01*
X133730952Y-54747378D02*
X133921428Y-54699759D01*
X133921428Y-54699759D02*
X134016666Y-54652140D01*
X134016666Y-54652140D02*
X134064285Y-54604521D01*
X134064285Y-54604521D02*
X134111904Y-54509283D01*
X134111904Y-54509283D02*
X134111904Y-54414045D01*
X134111904Y-54414045D02*
X134064285Y-54318807D01*
X134064285Y-54318807D02*
X134016666Y-54271188D01*
X134016666Y-54271188D02*
X133921428Y-54223569D01*
X133921428Y-54223569D02*
X133683333Y-54223569D01*
X133683333Y-54223569D02*
X133540476Y-54271188D01*
X132635714Y-54223569D02*
X133111904Y-54223569D01*
X133111904Y-54223569D02*
X133159523Y-54699759D01*
X133159523Y-54699759D02*
X133111904Y-54652140D01*
X133111904Y-54652140D02*
X133016666Y-54604521D01*
X133016666Y-54604521D02*
X132778571Y-54604521D01*
X132778571Y-54604521D02*
X132683333Y-54652140D01*
X132683333Y-54652140D02*
X132635714Y-54699759D01*
X132635714Y-54699759D02*
X132588095Y-54794997D01*
X132588095Y-54794997D02*
X132588095Y-55033092D01*
X132588095Y-55033092D02*
X132635714Y-55128330D01*
X132635714Y-55128330D02*
X132683333Y-55175950D01*
X132683333Y-55175950D02*
X132778571Y-55223569D01*
X132778571Y-55223569D02*
X133016666Y-55223569D01*
X133016666Y-55223569D02*
X133111904Y-55175950D01*
X133111904Y-55175950D02*
X133159523Y-55128330D01*
X136754761Y-63478569D02*
X136754761Y-62478569D01*
X136183333Y-63478569D02*
X136611904Y-62907140D01*
X136183333Y-62478569D02*
X136754761Y-63049997D01*
X135373809Y-63430950D02*
X135469047Y-63478569D01*
X135469047Y-63478569D02*
X135659523Y-63478569D01*
X135659523Y-63478569D02*
X135754761Y-63430950D01*
X135754761Y-63430950D02*
X135802380Y-63335711D01*
X135802380Y-63335711D02*
X135802380Y-62954759D01*
X135802380Y-62954759D02*
X135754761Y-62859521D01*
X135754761Y-62859521D02*
X135659523Y-62811902D01*
X135659523Y-62811902D02*
X135469047Y-62811902D01*
X135469047Y-62811902D02*
X135373809Y-62859521D01*
X135373809Y-62859521D02*
X135326190Y-62954759D01*
X135326190Y-62954759D02*
X135326190Y-63049997D01*
X135326190Y-63049997D02*
X135802380Y-63145235D01*
X134992856Y-62811902D02*
X134754761Y-63478569D01*
X134516666Y-62811902D02*
X134754761Y-63478569D01*
X134754761Y-63478569D02*
X134849999Y-63716664D01*
X134849999Y-63716664D02*
X134897618Y-63764283D01*
X134897618Y-63764283D02*
X134992856Y-63811902D01*
X134183332Y-63430950D02*
X134088094Y-63478569D01*
X134088094Y-63478569D02*
X133897618Y-63478569D01*
X133897618Y-63478569D02*
X133802380Y-63430950D01*
X133802380Y-63430950D02*
X133754761Y-63335711D01*
X133754761Y-63335711D02*
X133754761Y-63288092D01*
X133754761Y-63288092D02*
X133802380Y-63192854D01*
X133802380Y-63192854D02*
X133897618Y-63145235D01*
X133897618Y-63145235D02*
X134040475Y-63145235D01*
X134040475Y-63145235D02*
X134135713Y-63097616D01*
X134135713Y-63097616D02*
X134183332Y-63002378D01*
X134183332Y-63002378D02*
X134183332Y-62954759D01*
X134183332Y-62954759D02*
X134135713Y-62859521D01*
X134135713Y-62859521D02*
X134040475Y-62811902D01*
X134040475Y-62811902D02*
X133897618Y-62811902D01*
X133897618Y-62811902D02*
X133802380Y-62859521D01*
X133421427Y-62811902D02*
X133230951Y-63478569D01*
X133230951Y-63478569D02*
X133040475Y-63002378D01*
X133040475Y-63002378D02*
X132849999Y-63478569D01*
X132849999Y-63478569D02*
X132659523Y-62811902D01*
X132278570Y-63478569D02*
X132278570Y-62811902D01*
X132278570Y-62478569D02*
X132326189Y-62526188D01*
X132326189Y-62526188D02*
X132278570Y-62573807D01*
X132278570Y-62573807D02*
X132230951Y-62526188D01*
X132230951Y-62526188D02*
X132278570Y-62478569D01*
X132278570Y-62478569D02*
X132278570Y-62573807D01*
X131945237Y-62811902D02*
X131564285Y-62811902D01*
X131802380Y-62478569D02*
X131802380Y-63335711D01*
X131802380Y-63335711D02*
X131754761Y-63430950D01*
X131754761Y-63430950D02*
X131659523Y-63478569D01*
X131659523Y-63478569D02*
X131564285Y-63478569D01*
X130802380Y-63430950D02*
X130897618Y-63478569D01*
X130897618Y-63478569D02*
X131088094Y-63478569D01*
X131088094Y-63478569D02*
X131183332Y-63430950D01*
X131183332Y-63430950D02*
X131230951Y-63383330D01*
X131230951Y-63383330D02*
X131278570Y-63288092D01*
X131278570Y-63288092D02*
X131278570Y-63002378D01*
X131278570Y-63002378D02*
X131230951Y-62907140D01*
X131230951Y-62907140D02*
X131183332Y-62859521D01*
X131183332Y-62859521D02*
X131088094Y-62811902D01*
X131088094Y-62811902D02*
X130897618Y-62811902D01*
X130897618Y-62811902D02*
X130802380Y-62859521D01*
X130373808Y-63478569D02*
X130373808Y-62478569D01*
X129945237Y-63478569D02*
X129945237Y-62954759D01*
X129945237Y-62954759D02*
X129992856Y-62859521D01*
X129992856Y-62859521D02*
X130088094Y-62811902D01*
X130088094Y-62811902D02*
X130230951Y-62811902D01*
X130230951Y-62811902D02*
X130326189Y-62859521D01*
X130326189Y-62859521D02*
X130373808Y-62907140D01*
X134588094Y-74225950D02*
X134445237Y-74273569D01*
X134445237Y-74273569D02*
X134207142Y-74273569D01*
X134207142Y-74273569D02*
X134111904Y-74225950D01*
X134111904Y-74225950D02*
X134064285Y-74178330D01*
X134064285Y-74178330D02*
X134016666Y-74083092D01*
X134016666Y-74083092D02*
X134016666Y-73987854D01*
X134016666Y-73987854D02*
X134064285Y-73892616D01*
X134064285Y-73892616D02*
X134111904Y-73844997D01*
X134111904Y-73844997D02*
X134207142Y-73797378D01*
X134207142Y-73797378D02*
X134397618Y-73749759D01*
X134397618Y-73749759D02*
X134492856Y-73702140D01*
X134492856Y-73702140D02*
X134540475Y-73654521D01*
X134540475Y-73654521D02*
X134588094Y-73559283D01*
X134588094Y-73559283D02*
X134588094Y-73464045D01*
X134588094Y-73464045D02*
X134540475Y-73368807D01*
X134540475Y-73368807D02*
X134492856Y-73321188D01*
X134492856Y-73321188D02*
X134397618Y-73273569D01*
X134397618Y-73273569D02*
X134159523Y-73273569D01*
X134159523Y-73273569D02*
X134016666Y-73321188D01*
X133064285Y-74273569D02*
X133635713Y-74273569D01*
X133349999Y-74273569D02*
X133349999Y-73273569D01*
X133349999Y-73273569D02*
X133445237Y-73416426D01*
X133445237Y-73416426D02*
X133540475Y-73511664D01*
X133540475Y-73511664D02*
X133635713Y-73559283D01*
X132111904Y-74273569D02*
X132683332Y-74273569D01*
X132397618Y-74273569D02*
X132397618Y-73273569D01*
X132397618Y-73273569D02*
X132492856Y-73416426D01*
X132492856Y-73416426D02*
X132588094Y-73511664D01*
X132588094Y-73511664D02*
X132683332Y-73559283D01*
X136754761Y-82528569D02*
X136754761Y-81528569D01*
X136183333Y-82528569D02*
X136611904Y-81957140D01*
X136183333Y-81528569D02*
X136754761Y-82099997D01*
X135373809Y-82480950D02*
X135469047Y-82528569D01*
X135469047Y-82528569D02*
X135659523Y-82528569D01*
X135659523Y-82528569D02*
X135754761Y-82480950D01*
X135754761Y-82480950D02*
X135802380Y-82385711D01*
X135802380Y-82385711D02*
X135802380Y-82004759D01*
X135802380Y-82004759D02*
X135754761Y-81909521D01*
X135754761Y-81909521D02*
X135659523Y-81861902D01*
X135659523Y-81861902D02*
X135469047Y-81861902D01*
X135469047Y-81861902D02*
X135373809Y-81909521D01*
X135373809Y-81909521D02*
X135326190Y-82004759D01*
X135326190Y-82004759D02*
X135326190Y-82099997D01*
X135326190Y-82099997D02*
X135802380Y-82195235D01*
X134992856Y-81861902D02*
X134754761Y-82528569D01*
X134516666Y-81861902D02*
X134754761Y-82528569D01*
X134754761Y-82528569D02*
X134849999Y-82766664D01*
X134849999Y-82766664D02*
X134897618Y-82814283D01*
X134897618Y-82814283D02*
X134992856Y-82861902D01*
X134183332Y-82480950D02*
X134088094Y-82528569D01*
X134088094Y-82528569D02*
X133897618Y-82528569D01*
X133897618Y-82528569D02*
X133802380Y-82480950D01*
X133802380Y-82480950D02*
X133754761Y-82385711D01*
X133754761Y-82385711D02*
X133754761Y-82338092D01*
X133754761Y-82338092D02*
X133802380Y-82242854D01*
X133802380Y-82242854D02*
X133897618Y-82195235D01*
X133897618Y-82195235D02*
X134040475Y-82195235D01*
X134040475Y-82195235D02*
X134135713Y-82147616D01*
X134135713Y-82147616D02*
X134183332Y-82052378D01*
X134183332Y-82052378D02*
X134183332Y-82004759D01*
X134183332Y-82004759D02*
X134135713Y-81909521D01*
X134135713Y-81909521D02*
X134040475Y-81861902D01*
X134040475Y-81861902D02*
X133897618Y-81861902D01*
X133897618Y-81861902D02*
X133802380Y-81909521D01*
X133421427Y-81861902D02*
X133230951Y-82528569D01*
X133230951Y-82528569D02*
X133040475Y-82052378D01*
X133040475Y-82052378D02*
X132849999Y-82528569D01*
X132849999Y-82528569D02*
X132659523Y-81861902D01*
X132278570Y-82528569D02*
X132278570Y-81861902D01*
X132278570Y-81528569D02*
X132326189Y-81576188D01*
X132326189Y-81576188D02*
X132278570Y-81623807D01*
X132278570Y-81623807D02*
X132230951Y-81576188D01*
X132230951Y-81576188D02*
X132278570Y-81528569D01*
X132278570Y-81528569D02*
X132278570Y-81623807D01*
X131945237Y-81861902D02*
X131564285Y-81861902D01*
X131802380Y-81528569D02*
X131802380Y-82385711D01*
X131802380Y-82385711D02*
X131754761Y-82480950D01*
X131754761Y-82480950D02*
X131659523Y-82528569D01*
X131659523Y-82528569D02*
X131564285Y-82528569D01*
X130802380Y-82480950D02*
X130897618Y-82528569D01*
X130897618Y-82528569D02*
X131088094Y-82528569D01*
X131088094Y-82528569D02*
X131183332Y-82480950D01*
X131183332Y-82480950D02*
X131230951Y-82433330D01*
X131230951Y-82433330D02*
X131278570Y-82338092D01*
X131278570Y-82338092D02*
X131278570Y-82052378D01*
X131278570Y-82052378D02*
X131230951Y-81957140D01*
X131230951Y-81957140D02*
X131183332Y-81909521D01*
X131183332Y-81909521D02*
X131088094Y-81861902D01*
X131088094Y-81861902D02*
X130897618Y-81861902D01*
X130897618Y-81861902D02*
X130802380Y-81909521D01*
X130373808Y-82528569D02*
X130373808Y-81528569D01*
X129945237Y-82528569D02*
X129945237Y-82004759D01*
X129945237Y-82004759D02*
X129992856Y-81909521D01*
X129992856Y-81909521D02*
X130088094Y-81861902D01*
X130088094Y-81861902D02*
X130230951Y-81861902D01*
X130230951Y-81861902D02*
X130326189Y-81909521D01*
X130326189Y-81909521D02*
X130373808Y-81957140D01*
X60554761Y-84909819D02*
X60554761Y-83909819D01*
X59983333Y-84909819D02*
X60411904Y-84338390D01*
X59983333Y-83909819D02*
X60554761Y-84481247D01*
X59173809Y-84862200D02*
X59269047Y-84909819D01*
X59269047Y-84909819D02*
X59459523Y-84909819D01*
X59459523Y-84909819D02*
X59554761Y-84862200D01*
X59554761Y-84862200D02*
X59602380Y-84766961D01*
X59602380Y-84766961D02*
X59602380Y-84386009D01*
X59602380Y-84386009D02*
X59554761Y-84290771D01*
X59554761Y-84290771D02*
X59459523Y-84243152D01*
X59459523Y-84243152D02*
X59269047Y-84243152D01*
X59269047Y-84243152D02*
X59173809Y-84290771D01*
X59173809Y-84290771D02*
X59126190Y-84386009D01*
X59126190Y-84386009D02*
X59126190Y-84481247D01*
X59126190Y-84481247D02*
X59602380Y-84576485D01*
X58792856Y-84243152D02*
X58554761Y-84909819D01*
X58316666Y-84243152D02*
X58554761Y-84909819D01*
X58554761Y-84909819D02*
X58649999Y-85147914D01*
X58649999Y-85147914D02*
X58697618Y-85195533D01*
X58697618Y-85195533D02*
X58792856Y-85243152D01*
X57983332Y-84862200D02*
X57888094Y-84909819D01*
X57888094Y-84909819D02*
X57697618Y-84909819D01*
X57697618Y-84909819D02*
X57602380Y-84862200D01*
X57602380Y-84862200D02*
X57554761Y-84766961D01*
X57554761Y-84766961D02*
X57554761Y-84719342D01*
X57554761Y-84719342D02*
X57602380Y-84624104D01*
X57602380Y-84624104D02*
X57697618Y-84576485D01*
X57697618Y-84576485D02*
X57840475Y-84576485D01*
X57840475Y-84576485D02*
X57935713Y-84528866D01*
X57935713Y-84528866D02*
X57983332Y-84433628D01*
X57983332Y-84433628D02*
X57983332Y-84386009D01*
X57983332Y-84386009D02*
X57935713Y-84290771D01*
X57935713Y-84290771D02*
X57840475Y-84243152D01*
X57840475Y-84243152D02*
X57697618Y-84243152D01*
X57697618Y-84243152D02*
X57602380Y-84290771D01*
X57221427Y-84243152D02*
X57030951Y-84909819D01*
X57030951Y-84909819D02*
X56840475Y-84433628D01*
X56840475Y-84433628D02*
X56649999Y-84909819D01*
X56649999Y-84909819D02*
X56459523Y-84243152D01*
X56078570Y-84909819D02*
X56078570Y-84243152D01*
X56078570Y-83909819D02*
X56126189Y-83957438D01*
X56126189Y-83957438D02*
X56078570Y-84005057D01*
X56078570Y-84005057D02*
X56030951Y-83957438D01*
X56030951Y-83957438D02*
X56078570Y-83909819D01*
X56078570Y-83909819D02*
X56078570Y-84005057D01*
X55745237Y-84243152D02*
X55364285Y-84243152D01*
X55602380Y-83909819D02*
X55602380Y-84766961D01*
X55602380Y-84766961D02*
X55554761Y-84862200D01*
X55554761Y-84862200D02*
X55459523Y-84909819D01*
X55459523Y-84909819D02*
X55364285Y-84909819D01*
X54602380Y-84862200D02*
X54697618Y-84909819D01*
X54697618Y-84909819D02*
X54888094Y-84909819D01*
X54888094Y-84909819D02*
X54983332Y-84862200D01*
X54983332Y-84862200D02*
X55030951Y-84814580D01*
X55030951Y-84814580D02*
X55078570Y-84719342D01*
X55078570Y-84719342D02*
X55078570Y-84433628D01*
X55078570Y-84433628D02*
X55030951Y-84338390D01*
X55030951Y-84338390D02*
X54983332Y-84290771D01*
X54983332Y-84290771D02*
X54888094Y-84243152D01*
X54888094Y-84243152D02*
X54697618Y-84243152D01*
X54697618Y-84243152D02*
X54602380Y-84290771D01*
X54173808Y-84909819D02*
X54173808Y-83909819D01*
X53745237Y-84909819D02*
X53745237Y-84386009D01*
X53745237Y-84386009D02*
X53792856Y-84290771D01*
X53792856Y-84290771D02*
X53888094Y-84243152D01*
X53888094Y-84243152D02*
X54030951Y-84243152D01*
X54030951Y-84243152D02*
X54126189Y-84290771D01*
X54126189Y-84290771D02*
X54173808Y-84338390D01*
X57911904Y-76607200D02*
X57769047Y-76654819D01*
X57769047Y-76654819D02*
X57530952Y-76654819D01*
X57530952Y-76654819D02*
X57435714Y-76607200D01*
X57435714Y-76607200D02*
X57388095Y-76559580D01*
X57388095Y-76559580D02*
X57340476Y-76464342D01*
X57340476Y-76464342D02*
X57340476Y-76369104D01*
X57340476Y-76369104D02*
X57388095Y-76273866D01*
X57388095Y-76273866D02*
X57435714Y-76226247D01*
X57435714Y-76226247D02*
X57530952Y-76178628D01*
X57530952Y-76178628D02*
X57721428Y-76131009D01*
X57721428Y-76131009D02*
X57816666Y-76083390D01*
X57816666Y-76083390D02*
X57864285Y-76035771D01*
X57864285Y-76035771D02*
X57911904Y-75940533D01*
X57911904Y-75940533D02*
X57911904Y-75845295D01*
X57911904Y-75845295D02*
X57864285Y-75750057D01*
X57864285Y-75750057D02*
X57816666Y-75702438D01*
X57816666Y-75702438D02*
X57721428Y-75654819D01*
X57721428Y-75654819D02*
X57483333Y-75654819D01*
X57483333Y-75654819D02*
X57340476Y-75702438D01*
X57007142Y-75654819D02*
X56340476Y-75654819D01*
X56340476Y-75654819D02*
X56769047Y-76654819D01*
X98654761Y-101578569D02*
X98654761Y-100578569D01*
X98083333Y-101578569D02*
X98511904Y-101007140D01*
X98083333Y-100578569D02*
X98654761Y-101149997D01*
X97273809Y-101530950D02*
X97369047Y-101578569D01*
X97369047Y-101578569D02*
X97559523Y-101578569D01*
X97559523Y-101578569D02*
X97654761Y-101530950D01*
X97654761Y-101530950D02*
X97702380Y-101435711D01*
X97702380Y-101435711D02*
X97702380Y-101054759D01*
X97702380Y-101054759D02*
X97654761Y-100959521D01*
X97654761Y-100959521D02*
X97559523Y-100911902D01*
X97559523Y-100911902D02*
X97369047Y-100911902D01*
X97369047Y-100911902D02*
X97273809Y-100959521D01*
X97273809Y-100959521D02*
X97226190Y-101054759D01*
X97226190Y-101054759D02*
X97226190Y-101149997D01*
X97226190Y-101149997D02*
X97702380Y-101245235D01*
X96892856Y-100911902D02*
X96654761Y-101578569D01*
X96416666Y-100911902D02*
X96654761Y-101578569D01*
X96654761Y-101578569D02*
X96749999Y-101816664D01*
X96749999Y-101816664D02*
X96797618Y-101864283D01*
X96797618Y-101864283D02*
X96892856Y-101911902D01*
X96083332Y-101530950D02*
X95988094Y-101578569D01*
X95988094Y-101578569D02*
X95797618Y-101578569D01*
X95797618Y-101578569D02*
X95702380Y-101530950D01*
X95702380Y-101530950D02*
X95654761Y-101435711D01*
X95654761Y-101435711D02*
X95654761Y-101388092D01*
X95654761Y-101388092D02*
X95702380Y-101292854D01*
X95702380Y-101292854D02*
X95797618Y-101245235D01*
X95797618Y-101245235D02*
X95940475Y-101245235D01*
X95940475Y-101245235D02*
X96035713Y-101197616D01*
X96035713Y-101197616D02*
X96083332Y-101102378D01*
X96083332Y-101102378D02*
X96083332Y-101054759D01*
X96083332Y-101054759D02*
X96035713Y-100959521D01*
X96035713Y-100959521D02*
X95940475Y-100911902D01*
X95940475Y-100911902D02*
X95797618Y-100911902D01*
X95797618Y-100911902D02*
X95702380Y-100959521D01*
X95321427Y-100911902D02*
X95130951Y-101578569D01*
X95130951Y-101578569D02*
X94940475Y-101102378D01*
X94940475Y-101102378D02*
X94749999Y-101578569D01*
X94749999Y-101578569D02*
X94559523Y-100911902D01*
X94178570Y-101578569D02*
X94178570Y-100911902D01*
X94178570Y-100578569D02*
X94226189Y-100626188D01*
X94226189Y-100626188D02*
X94178570Y-100673807D01*
X94178570Y-100673807D02*
X94130951Y-100626188D01*
X94130951Y-100626188D02*
X94178570Y-100578569D01*
X94178570Y-100578569D02*
X94178570Y-100673807D01*
X93845237Y-100911902D02*
X93464285Y-100911902D01*
X93702380Y-100578569D02*
X93702380Y-101435711D01*
X93702380Y-101435711D02*
X93654761Y-101530950D01*
X93654761Y-101530950D02*
X93559523Y-101578569D01*
X93559523Y-101578569D02*
X93464285Y-101578569D01*
X92702380Y-101530950D02*
X92797618Y-101578569D01*
X92797618Y-101578569D02*
X92988094Y-101578569D01*
X92988094Y-101578569D02*
X93083332Y-101530950D01*
X93083332Y-101530950D02*
X93130951Y-101483330D01*
X93130951Y-101483330D02*
X93178570Y-101388092D01*
X93178570Y-101388092D02*
X93178570Y-101102378D01*
X93178570Y-101102378D02*
X93130951Y-101007140D01*
X93130951Y-101007140D02*
X93083332Y-100959521D01*
X93083332Y-100959521D02*
X92988094Y-100911902D01*
X92988094Y-100911902D02*
X92797618Y-100911902D01*
X92797618Y-100911902D02*
X92702380Y-100959521D01*
X92273808Y-101578569D02*
X92273808Y-100578569D01*
X91845237Y-101578569D02*
X91845237Y-101054759D01*
X91845237Y-101054759D02*
X91892856Y-100959521D01*
X91892856Y-100959521D02*
X91988094Y-100911902D01*
X91988094Y-100911902D02*
X92130951Y-100911902D01*
X92130951Y-100911902D02*
X92226189Y-100959521D01*
X92226189Y-100959521D02*
X92273808Y-101007140D01*
X96488094Y-93275950D02*
X96345237Y-93323569D01*
X96345237Y-93323569D02*
X96107142Y-93323569D01*
X96107142Y-93323569D02*
X96011904Y-93275950D01*
X96011904Y-93275950D02*
X95964285Y-93228330D01*
X95964285Y-93228330D02*
X95916666Y-93133092D01*
X95916666Y-93133092D02*
X95916666Y-93037854D01*
X95916666Y-93037854D02*
X95964285Y-92942616D01*
X95964285Y-92942616D02*
X96011904Y-92894997D01*
X96011904Y-92894997D02*
X96107142Y-92847378D01*
X96107142Y-92847378D02*
X96297618Y-92799759D01*
X96297618Y-92799759D02*
X96392856Y-92752140D01*
X96392856Y-92752140D02*
X96440475Y-92704521D01*
X96440475Y-92704521D02*
X96488094Y-92609283D01*
X96488094Y-92609283D02*
X96488094Y-92514045D01*
X96488094Y-92514045D02*
X96440475Y-92418807D01*
X96440475Y-92418807D02*
X96392856Y-92371188D01*
X96392856Y-92371188D02*
X96297618Y-92323569D01*
X96297618Y-92323569D02*
X96059523Y-92323569D01*
X96059523Y-92323569D02*
X95916666Y-92371188D01*
X94964285Y-93323569D02*
X95535713Y-93323569D01*
X95249999Y-93323569D02*
X95249999Y-92323569D01*
X95249999Y-92323569D02*
X95345237Y-92466426D01*
X95345237Y-92466426D02*
X95440475Y-92561664D01*
X95440475Y-92561664D02*
X95535713Y-92609283D01*
X94059523Y-92323569D02*
X94535713Y-92323569D01*
X94535713Y-92323569D02*
X94583332Y-92799759D01*
X94583332Y-92799759D02*
X94535713Y-92752140D01*
X94535713Y-92752140D02*
X94440475Y-92704521D01*
X94440475Y-92704521D02*
X94202380Y-92704521D01*
X94202380Y-92704521D02*
X94107142Y-92752140D01*
X94107142Y-92752140D02*
X94059523Y-92799759D01*
X94059523Y-92799759D02*
X94011904Y-92894997D01*
X94011904Y-92894997D02*
X94011904Y-93133092D01*
X94011904Y-93133092D02*
X94059523Y-93228330D01*
X94059523Y-93228330D02*
X94107142Y-93275950D01*
X94107142Y-93275950D02*
X94202380Y-93323569D01*
X94202380Y-93323569D02*
X94440475Y-93323569D01*
X94440475Y-93323569D02*
X94535713Y-93275950D01*
X94535713Y-93275950D02*
X94583332Y-93228330D01*
X117704761Y-61097319D02*
X117704761Y-60097319D01*
X117133333Y-61097319D02*
X117561904Y-60525890D01*
X117133333Y-60097319D02*
X117704761Y-60668747D01*
X116323809Y-61049700D02*
X116419047Y-61097319D01*
X116419047Y-61097319D02*
X116609523Y-61097319D01*
X116609523Y-61097319D02*
X116704761Y-61049700D01*
X116704761Y-61049700D02*
X116752380Y-60954461D01*
X116752380Y-60954461D02*
X116752380Y-60573509D01*
X116752380Y-60573509D02*
X116704761Y-60478271D01*
X116704761Y-60478271D02*
X116609523Y-60430652D01*
X116609523Y-60430652D02*
X116419047Y-60430652D01*
X116419047Y-60430652D02*
X116323809Y-60478271D01*
X116323809Y-60478271D02*
X116276190Y-60573509D01*
X116276190Y-60573509D02*
X116276190Y-60668747D01*
X116276190Y-60668747D02*
X116752380Y-60763985D01*
X115942856Y-60430652D02*
X115704761Y-61097319D01*
X115466666Y-60430652D02*
X115704761Y-61097319D01*
X115704761Y-61097319D02*
X115799999Y-61335414D01*
X115799999Y-61335414D02*
X115847618Y-61383033D01*
X115847618Y-61383033D02*
X115942856Y-61430652D01*
X115133332Y-61049700D02*
X115038094Y-61097319D01*
X115038094Y-61097319D02*
X114847618Y-61097319D01*
X114847618Y-61097319D02*
X114752380Y-61049700D01*
X114752380Y-61049700D02*
X114704761Y-60954461D01*
X114704761Y-60954461D02*
X114704761Y-60906842D01*
X114704761Y-60906842D02*
X114752380Y-60811604D01*
X114752380Y-60811604D02*
X114847618Y-60763985D01*
X114847618Y-60763985D02*
X114990475Y-60763985D01*
X114990475Y-60763985D02*
X115085713Y-60716366D01*
X115085713Y-60716366D02*
X115133332Y-60621128D01*
X115133332Y-60621128D02*
X115133332Y-60573509D01*
X115133332Y-60573509D02*
X115085713Y-60478271D01*
X115085713Y-60478271D02*
X114990475Y-60430652D01*
X114990475Y-60430652D02*
X114847618Y-60430652D01*
X114847618Y-60430652D02*
X114752380Y-60478271D01*
X114371427Y-60430652D02*
X114180951Y-61097319D01*
X114180951Y-61097319D02*
X113990475Y-60621128D01*
X113990475Y-60621128D02*
X113799999Y-61097319D01*
X113799999Y-61097319D02*
X113609523Y-60430652D01*
X113228570Y-61097319D02*
X113228570Y-60430652D01*
X113228570Y-60097319D02*
X113276189Y-60144938D01*
X113276189Y-60144938D02*
X113228570Y-60192557D01*
X113228570Y-60192557D02*
X113180951Y-60144938D01*
X113180951Y-60144938D02*
X113228570Y-60097319D01*
X113228570Y-60097319D02*
X113228570Y-60192557D01*
X112895237Y-60430652D02*
X112514285Y-60430652D01*
X112752380Y-60097319D02*
X112752380Y-60954461D01*
X112752380Y-60954461D02*
X112704761Y-61049700D01*
X112704761Y-61049700D02*
X112609523Y-61097319D01*
X112609523Y-61097319D02*
X112514285Y-61097319D01*
X111752380Y-61049700D02*
X111847618Y-61097319D01*
X111847618Y-61097319D02*
X112038094Y-61097319D01*
X112038094Y-61097319D02*
X112133332Y-61049700D01*
X112133332Y-61049700D02*
X112180951Y-61002080D01*
X112180951Y-61002080D02*
X112228570Y-60906842D01*
X112228570Y-60906842D02*
X112228570Y-60621128D01*
X112228570Y-60621128D02*
X112180951Y-60525890D01*
X112180951Y-60525890D02*
X112133332Y-60478271D01*
X112133332Y-60478271D02*
X112038094Y-60430652D01*
X112038094Y-60430652D02*
X111847618Y-60430652D01*
X111847618Y-60430652D02*
X111752380Y-60478271D01*
X111323808Y-61097319D02*
X111323808Y-60097319D01*
X110895237Y-61097319D02*
X110895237Y-60573509D01*
X110895237Y-60573509D02*
X110942856Y-60478271D01*
X110942856Y-60478271D02*
X111038094Y-60430652D01*
X111038094Y-60430652D02*
X111180951Y-60430652D01*
X111180951Y-60430652D02*
X111276189Y-60478271D01*
X111276189Y-60478271D02*
X111323808Y-60525890D01*
X115061904Y-52794700D02*
X114919047Y-52842319D01*
X114919047Y-52842319D02*
X114680952Y-52842319D01*
X114680952Y-52842319D02*
X114585714Y-52794700D01*
X114585714Y-52794700D02*
X114538095Y-52747080D01*
X114538095Y-52747080D02*
X114490476Y-52651842D01*
X114490476Y-52651842D02*
X114490476Y-52556604D01*
X114490476Y-52556604D02*
X114538095Y-52461366D01*
X114538095Y-52461366D02*
X114585714Y-52413747D01*
X114585714Y-52413747D02*
X114680952Y-52366128D01*
X114680952Y-52366128D02*
X114871428Y-52318509D01*
X114871428Y-52318509D02*
X114966666Y-52270890D01*
X114966666Y-52270890D02*
X115014285Y-52223271D01*
X115014285Y-52223271D02*
X115061904Y-52128033D01*
X115061904Y-52128033D02*
X115061904Y-52032795D01*
X115061904Y-52032795D02*
X115014285Y-51937557D01*
X115014285Y-51937557D02*
X114966666Y-51889938D01*
X114966666Y-51889938D02*
X114871428Y-51842319D01*
X114871428Y-51842319D02*
X114633333Y-51842319D01*
X114633333Y-51842319D02*
X114490476Y-51889938D01*
X113633333Y-52175652D02*
X113633333Y-52842319D01*
X113871428Y-51794700D02*
X114109523Y-52508985D01*
X114109523Y-52508985D02*
X113490476Y-52508985D01*
X153638094Y-95657200D02*
X153495237Y-95704819D01*
X153495237Y-95704819D02*
X153257142Y-95704819D01*
X153257142Y-95704819D02*
X153161904Y-95657200D01*
X153161904Y-95657200D02*
X153114285Y-95609580D01*
X153114285Y-95609580D02*
X153066666Y-95514342D01*
X153066666Y-95514342D02*
X153066666Y-95419104D01*
X153066666Y-95419104D02*
X153114285Y-95323866D01*
X153114285Y-95323866D02*
X153161904Y-95276247D01*
X153161904Y-95276247D02*
X153257142Y-95228628D01*
X153257142Y-95228628D02*
X153447618Y-95181009D01*
X153447618Y-95181009D02*
X153542856Y-95133390D01*
X153542856Y-95133390D02*
X153590475Y-95085771D01*
X153590475Y-95085771D02*
X153638094Y-94990533D01*
X153638094Y-94990533D02*
X153638094Y-94895295D01*
X153638094Y-94895295D02*
X153590475Y-94800057D01*
X153590475Y-94800057D02*
X153542856Y-94752438D01*
X153542856Y-94752438D02*
X153447618Y-94704819D01*
X153447618Y-94704819D02*
X153209523Y-94704819D01*
X153209523Y-94704819D02*
X153066666Y-94752438D01*
X152114285Y-95704819D02*
X152685713Y-95704819D01*
X152399999Y-95704819D02*
X152399999Y-94704819D01*
X152399999Y-94704819D02*
X152495237Y-94847676D01*
X152495237Y-94847676D02*
X152590475Y-94942914D01*
X152590475Y-94942914D02*
X152685713Y-94990533D01*
X151542856Y-95133390D02*
X151638094Y-95085771D01*
X151638094Y-95085771D02*
X151685713Y-95038152D01*
X151685713Y-95038152D02*
X151733332Y-94942914D01*
X151733332Y-94942914D02*
X151733332Y-94895295D01*
X151733332Y-94895295D02*
X151685713Y-94800057D01*
X151685713Y-94800057D02*
X151638094Y-94752438D01*
X151638094Y-94752438D02*
X151542856Y-94704819D01*
X151542856Y-94704819D02*
X151352380Y-94704819D01*
X151352380Y-94704819D02*
X151257142Y-94752438D01*
X151257142Y-94752438D02*
X151209523Y-94800057D01*
X151209523Y-94800057D02*
X151161904Y-94895295D01*
X151161904Y-94895295D02*
X151161904Y-94942914D01*
X151161904Y-94942914D02*
X151209523Y-95038152D01*
X151209523Y-95038152D02*
X151257142Y-95085771D01*
X151257142Y-95085771D02*
X151352380Y-95133390D01*
X151352380Y-95133390D02*
X151542856Y-95133390D01*
X151542856Y-95133390D02*
X151638094Y-95181009D01*
X151638094Y-95181009D02*
X151685713Y-95228628D01*
X151685713Y-95228628D02*
X151733332Y-95323866D01*
X151733332Y-95323866D02*
X151733332Y-95514342D01*
X151733332Y-95514342D02*
X151685713Y-95609580D01*
X151685713Y-95609580D02*
X151638094Y-95657200D01*
X151638094Y-95657200D02*
X151542856Y-95704819D01*
X151542856Y-95704819D02*
X151352380Y-95704819D01*
X151352380Y-95704819D02*
X151257142Y-95657200D01*
X151257142Y-95657200D02*
X151209523Y-95609580D01*
X151209523Y-95609580D02*
X151161904Y-95514342D01*
X151161904Y-95514342D02*
X151161904Y-95323866D01*
X151161904Y-95323866D02*
X151209523Y-95228628D01*
X151209523Y-95228628D02*
X151257142Y-95181009D01*
X151257142Y-95181009D02*
X151352380Y-95133390D01*
X155804761Y-103959819D02*
X155804761Y-102959819D01*
X155233333Y-103959819D02*
X155661904Y-103388390D01*
X155233333Y-102959819D02*
X155804761Y-103531247D01*
X154423809Y-103912200D02*
X154519047Y-103959819D01*
X154519047Y-103959819D02*
X154709523Y-103959819D01*
X154709523Y-103959819D02*
X154804761Y-103912200D01*
X154804761Y-103912200D02*
X154852380Y-103816961D01*
X154852380Y-103816961D02*
X154852380Y-103436009D01*
X154852380Y-103436009D02*
X154804761Y-103340771D01*
X154804761Y-103340771D02*
X154709523Y-103293152D01*
X154709523Y-103293152D02*
X154519047Y-103293152D01*
X154519047Y-103293152D02*
X154423809Y-103340771D01*
X154423809Y-103340771D02*
X154376190Y-103436009D01*
X154376190Y-103436009D02*
X154376190Y-103531247D01*
X154376190Y-103531247D02*
X154852380Y-103626485D01*
X154042856Y-103293152D02*
X153804761Y-103959819D01*
X153566666Y-103293152D02*
X153804761Y-103959819D01*
X153804761Y-103959819D02*
X153899999Y-104197914D01*
X153899999Y-104197914D02*
X153947618Y-104245533D01*
X153947618Y-104245533D02*
X154042856Y-104293152D01*
X153233332Y-103912200D02*
X153138094Y-103959819D01*
X153138094Y-103959819D02*
X152947618Y-103959819D01*
X152947618Y-103959819D02*
X152852380Y-103912200D01*
X152852380Y-103912200D02*
X152804761Y-103816961D01*
X152804761Y-103816961D02*
X152804761Y-103769342D01*
X152804761Y-103769342D02*
X152852380Y-103674104D01*
X152852380Y-103674104D02*
X152947618Y-103626485D01*
X152947618Y-103626485D02*
X153090475Y-103626485D01*
X153090475Y-103626485D02*
X153185713Y-103578866D01*
X153185713Y-103578866D02*
X153233332Y-103483628D01*
X153233332Y-103483628D02*
X153233332Y-103436009D01*
X153233332Y-103436009D02*
X153185713Y-103340771D01*
X153185713Y-103340771D02*
X153090475Y-103293152D01*
X153090475Y-103293152D02*
X152947618Y-103293152D01*
X152947618Y-103293152D02*
X152852380Y-103340771D01*
X152471427Y-103293152D02*
X152280951Y-103959819D01*
X152280951Y-103959819D02*
X152090475Y-103483628D01*
X152090475Y-103483628D02*
X151899999Y-103959819D01*
X151899999Y-103959819D02*
X151709523Y-103293152D01*
X151328570Y-103959819D02*
X151328570Y-103293152D01*
X151328570Y-102959819D02*
X151376189Y-103007438D01*
X151376189Y-103007438D02*
X151328570Y-103055057D01*
X151328570Y-103055057D02*
X151280951Y-103007438D01*
X151280951Y-103007438D02*
X151328570Y-102959819D01*
X151328570Y-102959819D02*
X151328570Y-103055057D01*
X150995237Y-103293152D02*
X150614285Y-103293152D01*
X150852380Y-102959819D02*
X150852380Y-103816961D01*
X150852380Y-103816961D02*
X150804761Y-103912200D01*
X150804761Y-103912200D02*
X150709523Y-103959819D01*
X150709523Y-103959819D02*
X150614285Y-103959819D01*
X149852380Y-103912200D02*
X149947618Y-103959819D01*
X149947618Y-103959819D02*
X150138094Y-103959819D01*
X150138094Y-103959819D02*
X150233332Y-103912200D01*
X150233332Y-103912200D02*
X150280951Y-103864580D01*
X150280951Y-103864580D02*
X150328570Y-103769342D01*
X150328570Y-103769342D02*
X150328570Y-103483628D01*
X150328570Y-103483628D02*
X150280951Y-103388390D01*
X150280951Y-103388390D02*
X150233332Y-103340771D01*
X150233332Y-103340771D02*
X150138094Y-103293152D01*
X150138094Y-103293152D02*
X149947618Y-103293152D01*
X149947618Y-103293152D02*
X149852380Y-103340771D01*
X149423808Y-103959819D02*
X149423808Y-102959819D01*
X148995237Y-103959819D02*
X148995237Y-103436009D01*
X148995237Y-103436009D02*
X149042856Y-103340771D01*
X149042856Y-103340771D02*
X149138094Y-103293152D01*
X149138094Y-103293152D02*
X149280951Y-103293152D01*
X149280951Y-103293152D02*
X149376189Y-103340771D01*
X149376189Y-103340771D02*
X149423808Y-103388390D01*
X155804761Y-65859819D02*
X155804761Y-64859819D01*
X155233333Y-65859819D02*
X155661904Y-65288390D01*
X155233333Y-64859819D02*
X155804761Y-65431247D01*
X154423809Y-65812200D02*
X154519047Y-65859819D01*
X154519047Y-65859819D02*
X154709523Y-65859819D01*
X154709523Y-65859819D02*
X154804761Y-65812200D01*
X154804761Y-65812200D02*
X154852380Y-65716961D01*
X154852380Y-65716961D02*
X154852380Y-65336009D01*
X154852380Y-65336009D02*
X154804761Y-65240771D01*
X154804761Y-65240771D02*
X154709523Y-65193152D01*
X154709523Y-65193152D02*
X154519047Y-65193152D01*
X154519047Y-65193152D02*
X154423809Y-65240771D01*
X154423809Y-65240771D02*
X154376190Y-65336009D01*
X154376190Y-65336009D02*
X154376190Y-65431247D01*
X154376190Y-65431247D02*
X154852380Y-65526485D01*
X154042856Y-65193152D02*
X153804761Y-65859819D01*
X153566666Y-65193152D02*
X153804761Y-65859819D01*
X153804761Y-65859819D02*
X153899999Y-66097914D01*
X153899999Y-66097914D02*
X153947618Y-66145533D01*
X153947618Y-66145533D02*
X154042856Y-66193152D01*
X153233332Y-65812200D02*
X153138094Y-65859819D01*
X153138094Y-65859819D02*
X152947618Y-65859819D01*
X152947618Y-65859819D02*
X152852380Y-65812200D01*
X152852380Y-65812200D02*
X152804761Y-65716961D01*
X152804761Y-65716961D02*
X152804761Y-65669342D01*
X152804761Y-65669342D02*
X152852380Y-65574104D01*
X152852380Y-65574104D02*
X152947618Y-65526485D01*
X152947618Y-65526485D02*
X153090475Y-65526485D01*
X153090475Y-65526485D02*
X153185713Y-65478866D01*
X153185713Y-65478866D02*
X153233332Y-65383628D01*
X153233332Y-65383628D02*
X153233332Y-65336009D01*
X153233332Y-65336009D02*
X153185713Y-65240771D01*
X153185713Y-65240771D02*
X153090475Y-65193152D01*
X153090475Y-65193152D02*
X152947618Y-65193152D01*
X152947618Y-65193152D02*
X152852380Y-65240771D01*
X152471427Y-65193152D02*
X152280951Y-65859819D01*
X152280951Y-65859819D02*
X152090475Y-65383628D01*
X152090475Y-65383628D02*
X151899999Y-65859819D01*
X151899999Y-65859819D02*
X151709523Y-65193152D01*
X151328570Y-65859819D02*
X151328570Y-65193152D01*
X151328570Y-64859819D02*
X151376189Y-64907438D01*
X151376189Y-64907438D02*
X151328570Y-64955057D01*
X151328570Y-64955057D02*
X151280951Y-64907438D01*
X151280951Y-64907438D02*
X151328570Y-64859819D01*
X151328570Y-64859819D02*
X151328570Y-64955057D01*
X150995237Y-65193152D02*
X150614285Y-65193152D01*
X150852380Y-64859819D02*
X150852380Y-65716961D01*
X150852380Y-65716961D02*
X150804761Y-65812200D01*
X150804761Y-65812200D02*
X150709523Y-65859819D01*
X150709523Y-65859819D02*
X150614285Y-65859819D01*
X149852380Y-65812200D02*
X149947618Y-65859819D01*
X149947618Y-65859819D02*
X150138094Y-65859819D01*
X150138094Y-65859819D02*
X150233332Y-65812200D01*
X150233332Y-65812200D02*
X150280951Y-65764580D01*
X150280951Y-65764580D02*
X150328570Y-65669342D01*
X150328570Y-65669342D02*
X150328570Y-65383628D01*
X150328570Y-65383628D02*
X150280951Y-65288390D01*
X150280951Y-65288390D02*
X150233332Y-65240771D01*
X150233332Y-65240771D02*
X150138094Y-65193152D01*
X150138094Y-65193152D02*
X149947618Y-65193152D01*
X149947618Y-65193152D02*
X149852380Y-65240771D01*
X149423808Y-65859819D02*
X149423808Y-64859819D01*
X148995237Y-65859819D02*
X148995237Y-65336009D01*
X148995237Y-65336009D02*
X149042856Y-65240771D01*
X149042856Y-65240771D02*
X149138094Y-65193152D01*
X149138094Y-65193152D02*
X149280951Y-65193152D01*
X149280951Y-65193152D02*
X149376189Y-65240771D01*
X149376189Y-65240771D02*
X149423808Y-65288390D01*
X153161904Y-57557200D02*
X153019047Y-57604819D01*
X153019047Y-57604819D02*
X152780952Y-57604819D01*
X152780952Y-57604819D02*
X152685714Y-57557200D01*
X152685714Y-57557200D02*
X152638095Y-57509580D01*
X152638095Y-57509580D02*
X152590476Y-57414342D01*
X152590476Y-57414342D02*
X152590476Y-57319104D01*
X152590476Y-57319104D02*
X152638095Y-57223866D01*
X152638095Y-57223866D02*
X152685714Y-57176247D01*
X152685714Y-57176247D02*
X152780952Y-57128628D01*
X152780952Y-57128628D02*
X152971428Y-57081009D01*
X152971428Y-57081009D02*
X153066666Y-57033390D01*
X153066666Y-57033390D02*
X153114285Y-56985771D01*
X153114285Y-56985771D02*
X153161904Y-56890533D01*
X153161904Y-56890533D02*
X153161904Y-56795295D01*
X153161904Y-56795295D02*
X153114285Y-56700057D01*
X153114285Y-56700057D02*
X153066666Y-56652438D01*
X153066666Y-56652438D02*
X152971428Y-56604819D01*
X152971428Y-56604819D02*
X152733333Y-56604819D01*
X152733333Y-56604819D02*
X152590476Y-56652438D01*
X151733333Y-56604819D02*
X151923809Y-56604819D01*
X151923809Y-56604819D02*
X152019047Y-56652438D01*
X152019047Y-56652438D02*
X152066666Y-56700057D01*
X152066666Y-56700057D02*
X152161904Y-56842914D01*
X152161904Y-56842914D02*
X152209523Y-57033390D01*
X152209523Y-57033390D02*
X152209523Y-57414342D01*
X152209523Y-57414342D02*
X152161904Y-57509580D01*
X152161904Y-57509580D02*
X152114285Y-57557200D01*
X152114285Y-57557200D02*
X152019047Y-57604819D01*
X152019047Y-57604819D02*
X151828571Y-57604819D01*
X151828571Y-57604819D02*
X151733333Y-57557200D01*
X151733333Y-57557200D02*
X151685714Y-57509580D01*
X151685714Y-57509580D02*
X151638095Y-57414342D01*
X151638095Y-57414342D02*
X151638095Y-57176247D01*
X151638095Y-57176247D02*
X151685714Y-57081009D01*
X151685714Y-57081009D02*
X151733333Y-57033390D01*
X151733333Y-57033390D02*
X151828571Y-56985771D01*
X151828571Y-56985771D02*
X152019047Y-56985771D01*
X152019047Y-56985771D02*
X152114285Y-57033390D01*
X152114285Y-57033390D02*
X152161904Y-57081009D01*
X152161904Y-57081009D02*
X152209523Y-57176247D01*
X136754761Y-101578569D02*
X136754761Y-100578569D01*
X136183333Y-101578569D02*
X136611904Y-101007140D01*
X136183333Y-100578569D02*
X136754761Y-101149997D01*
X135373809Y-101530950D02*
X135469047Y-101578569D01*
X135469047Y-101578569D02*
X135659523Y-101578569D01*
X135659523Y-101578569D02*
X135754761Y-101530950D01*
X135754761Y-101530950D02*
X135802380Y-101435711D01*
X135802380Y-101435711D02*
X135802380Y-101054759D01*
X135802380Y-101054759D02*
X135754761Y-100959521D01*
X135754761Y-100959521D02*
X135659523Y-100911902D01*
X135659523Y-100911902D02*
X135469047Y-100911902D01*
X135469047Y-100911902D02*
X135373809Y-100959521D01*
X135373809Y-100959521D02*
X135326190Y-101054759D01*
X135326190Y-101054759D02*
X135326190Y-101149997D01*
X135326190Y-101149997D02*
X135802380Y-101245235D01*
X134992856Y-100911902D02*
X134754761Y-101578569D01*
X134516666Y-100911902D02*
X134754761Y-101578569D01*
X134754761Y-101578569D02*
X134849999Y-101816664D01*
X134849999Y-101816664D02*
X134897618Y-101864283D01*
X134897618Y-101864283D02*
X134992856Y-101911902D01*
X134183332Y-101530950D02*
X134088094Y-101578569D01*
X134088094Y-101578569D02*
X133897618Y-101578569D01*
X133897618Y-101578569D02*
X133802380Y-101530950D01*
X133802380Y-101530950D02*
X133754761Y-101435711D01*
X133754761Y-101435711D02*
X133754761Y-101388092D01*
X133754761Y-101388092D02*
X133802380Y-101292854D01*
X133802380Y-101292854D02*
X133897618Y-101245235D01*
X133897618Y-101245235D02*
X134040475Y-101245235D01*
X134040475Y-101245235D02*
X134135713Y-101197616D01*
X134135713Y-101197616D02*
X134183332Y-101102378D01*
X134183332Y-101102378D02*
X134183332Y-101054759D01*
X134183332Y-101054759D02*
X134135713Y-100959521D01*
X134135713Y-100959521D02*
X134040475Y-100911902D01*
X134040475Y-100911902D02*
X133897618Y-100911902D01*
X133897618Y-100911902D02*
X133802380Y-100959521D01*
X133421427Y-100911902D02*
X133230951Y-101578569D01*
X133230951Y-101578569D02*
X133040475Y-101102378D01*
X133040475Y-101102378D02*
X132849999Y-101578569D01*
X132849999Y-101578569D02*
X132659523Y-100911902D01*
X132278570Y-101578569D02*
X132278570Y-100911902D01*
X132278570Y-100578569D02*
X132326189Y-100626188D01*
X132326189Y-100626188D02*
X132278570Y-100673807D01*
X132278570Y-100673807D02*
X132230951Y-100626188D01*
X132230951Y-100626188D02*
X132278570Y-100578569D01*
X132278570Y-100578569D02*
X132278570Y-100673807D01*
X131945237Y-100911902D02*
X131564285Y-100911902D01*
X131802380Y-100578569D02*
X131802380Y-101435711D01*
X131802380Y-101435711D02*
X131754761Y-101530950D01*
X131754761Y-101530950D02*
X131659523Y-101578569D01*
X131659523Y-101578569D02*
X131564285Y-101578569D01*
X130802380Y-101530950D02*
X130897618Y-101578569D01*
X130897618Y-101578569D02*
X131088094Y-101578569D01*
X131088094Y-101578569D02*
X131183332Y-101530950D01*
X131183332Y-101530950D02*
X131230951Y-101483330D01*
X131230951Y-101483330D02*
X131278570Y-101388092D01*
X131278570Y-101388092D02*
X131278570Y-101102378D01*
X131278570Y-101102378D02*
X131230951Y-101007140D01*
X131230951Y-101007140D02*
X131183332Y-100959521D01*
X131183332Y-100959521D02*
X131088094Y-100911902D01*
X131088094Y-100911902D02*
X130897618Y-100911902D01*
X130897618Y-100911902D02*
X130802380Y-100959521D01*
X130373808Y-101578569D02*
X130373808Y-100578569D01*
X129945237Y-101578569D02*
X129945237Y-101054759D01*
X129945237Y-101054759D02*
X129992856Y-100959521D01*
X129992856Y-100959521D02*
X130088094Y-100911902D01*
X130088094Y-100911902D02*
X130230951Y-100911902D01*
X130230951Y-100911902D02*
X130326189Y-100959521D01*
X130326189Y-100959521D02*
X130373808Y-101007140D01*
X134588094Y-93275950D02*
X134445237Y-93323569D01*
X134445237Y-93323569D02*
X134207142Y-93323569D01*
X134207142Y-93323569D02*
X134111904Y-93275950D01*
X134111904Y-93275950D02*
X134064285Y-93228330D01*
X134064285Y-93228330D02*
X134016666Y-93133092D01*
X134016666Y-93133092D02*
X134016666Y-93037854D01*
X134016666Y-93037854D02*
X134064285Y-92942616D01*
X134064285Y-92942616D02*
X134111904Y-92894997D01*
X134111904Y-92894997D02*
X134207142Y-92847378D01*
X134207142Y-92847378D02*
X134397618Y-92799759D01*
X134397618Y-92799759D02*
X134492856Y-92752140D01*
X134492856Y-92752140D02*
X134540475Y-92704521D01*
X134540475Y-92704521D02*
X134588094Y-92609283D01*
X134588094Y-92609283D02*
X134588094Y-92514045D01*
X134588094Y-92514045D02*
X134540475Y-92418807D01*
X134540475Y-92418807D02*
X134492856Y-92371188D01*
X134492856Y-92371188D02*
X134397618Y-92323569D01*
X134397618Y-92323569D02*
X134159523Y-92323569D01*
X134159523Y-92323569D02*
X134016666Y-92371188D01*
X133064285Y-93323569D02*
X133635713Y-93323569D01*
X133349999Y-93323569D02*
X133349999Y-92323569D01*
X133349999Y-92323569D02*
X133445237Y-92466426D01*
X133445237Y-92466426D02*
X133540475Y-92561664D01*
X133540475Y-92561664D02*
X133635713Y-92609283D01*
X132730951Y-92323569D02*
X132064285Y-92323569D01*
X132064285Y-92323569D02*
X132492856Y-93323569D01*
X77438094Y-95657200D02*
X77295237Y-95704819D01*
X77295237Y-95704819D02*
X77057142Y-95704819D01*
X77057142Y-95704819D02*
X76961904Y-95657200D01*
X76961904Y-95657200D02*
X76914285Y-95609580D01*
X76914285Y-95609580D02*
X76866666Y-95514342D01*
X76866666Y-95514342D02*
X76866666Y-95419104D01*
X76866666Y-95419104D02*
X76914285Y-95323866D01*
X76914285Y-95323866D02*
X76961904Y-95276247D01*
X76961904Y-95276247D02*
X77057142Y-95228628D01*
X77057142Y-95228628D02*
X77247618Y-95181009D01*
X77247618Y-95181009D02*
X77342856Y-95133390D01*
X77342856Y-95133390D02*
X77390475Y-95085771D01*
X77390475Y-95085771D02*
X77438094Y-94990533D01*
X77438094Y-94990533D02*
X77438094Y-94895295D01*
X77438094Y-94895295D02*
X77390475Y-94800057D01*
X77390475Y-94800057D02*
X77342856Y-94752438D01*
X77342856Y-94752438D02*
X77247618Y-94704819D01*
X77247618Y-94704819D02*
X77009523Y-94704819D01*
X77009523Y-94704819D02*
X76866666Y-94752438D01*
X75914285Y-95704819D02*
X76485713Y-95704819D01*
X76199999Y-95704819D02*
X76199999Y-94704819D01*
X76199999Y-94704819D02*
X76295237Y-94847676D01*
X76295237Y-94847676D02*
X76390475Y-94942914D01*
X76390475Y-94942914D02*
X76485713Y-94990533D01*
X75057142Y-95038152D02*
X75057142Y-95704819D01*
X75295237Y-94657200D02*
X75533332Y-95371485D01*
X75533332Y-95371485D02*
X74914285Y-95371485D01*
X79604761Y-103959819D02*
X79604761Y-102959819D01*
X79033333Y-103959819D02*
X79461904Y-103388390D01*
X79033333Y-102959819D02*
X79604761Y-103531247D01*
X78223809Y-103912200D02*
X78319047Y-103959819D01*
X78319047Y-103959819D02*
X78509523Y-103959819D01*
X78509523Y-103959819D02*
X78604761Y-103912200D01*
X78604761Y-103912200D02*
X78652380Y-103816961D01*
X78652380Y-103816961D02*
X78652380Y-103436009D01*
X78652380Y-103436009D02*
X78604761Y-103340771D01*
X78604761Y-103340771D02*
X78509523Y-103293152D01*
X78509523Y-103293152D02*
X78319047Y-103293152D01*
X78319047Y-103293152D02*
X78223809Y-103340771D01*
X78223809Y-103340771D02*
X78176190Y-103436009D01*
X78176190Y-103436009D02*
X78176190Y-103531247D01*
X78176190Y-103531247D02*
X78652380Y-103626485D01*
X77842856Y-103293152D02*
X77604761Y-103959819D01*
X77366666Y-103293152D02*
X77604761Y-103959819D01*
X77604761Y-103959819D02*
X77699999Y-104197914D01*
X77699999Y-104197914D02*
X77747618Y-104245533D01*
X77747618Y-104245533D02*
X77842856Y-104293152D01*
X77033332Y-103912200D02*
X76938094Y-103959819D01*
X76938094Y-103959819D02*
X76747618Y-103959819D01*
X76747618Y-103959819D02*
X76652380Y-103912200D01*
X76652380Y-103912200D02*
X76604761Y-103816961D01*
X76604761Y-103816961D02*
X76604761Y-103769342D01*
X76604761Y-103769342D02*
X76652380Y-103674104D01*
X76652380Y-103674104D02*
X76747618Y-103626485D01*
X76747618Y-103626485D02*
X76890475Y-103626485D01*
X76890475Y-103626485D02*
X76985713Y-103578866D01*
X76985713Y-103578866D02*
X77033332Y-103483628D01*
X77033332Y-103483628D02*
X77033332Y-103436009D01*
X77033332Y-103436009D02*
X76985713Y-103340771D01*
X76985713Y-103340771D02*
X76890475Y-103293152D01*
X76890475Y-103293152D02*
X76747618Y-103293152D01*
X76747618Y-103293152D02*
X76652380Y-103340771D01*
X76271427Y-103293152D02*
X76080951Y-103959819D01*
X76080951Y-103959819D02*
X75890475Y-103483628D01*
X75890475Y-103483628D02*
X75699999Y-103959819D01*
X75699999Y-103959819D02*
X75509523Y-103293152D01*
X75128570Y-103959819D02*
X75128570Y-103293152D01*
X75128570Y-102959819D02*
X75176189Y-103007438D01*
X75176189Y-103007438D02*
X75128570Y-103055057D01*
X75128570Y-103055057D02*
X75080951Y-103007438D01*
X75080951Y-103007438D02*
X75128570Y-102959819D01*
X75128570Y-102959819D02*
X75128570Y-103055057D01*
X74795237Y-103293152D02*
X74414285Y-103293152D01*
X74652380Y-102959819D02*
X74652380Y-103816961D01*
X74652380Y-103816961D02*
X74604761Y-103912200D01*
X74604761Y-103912200D02*
X74509523Y-103959819D01*
X74509523Y-103959819D02*
X74414285Y-103959819D01*
X73652380Y-103912200D02*
X73747618Y-103959819D01*
X73747618Y-103959819D02*
X73938094Y-103959819D01*
X73938094Y-103959819D02*
X74033332Y-103912200D01*
X74033332Y-103912200D02*
X74080951Y-103864580D01*
X74080951Y-103864580D02*
X74128570Y-103769342D01*
X74128570Y-103769342D02*
X74128570Y-103483628D01*
X74128570Y-103483628D02*
X74080951Y-103388390D01*
X74080951Y-103388390D02*
X74033332Y-103340771D01*
X74033332Y-103340771D02*
X73938094Y-103293152D01*
X73938094Y-103293152D02*
X73747618Y-103293152D01*
X73747618Y-103293152D02*
X73652380Y-103340771D01*
X73223808Y-103959819D02*
X73223808Y-102959819D01*
X72795237Y-103959819D02*
X72795237Y-103436009D01*
X72795237Y-103436009D02*
X72842856Y-103340771D01*
X72842856Y-103340771D02*
X72938094Y-103293152D01*
X72938094Y-103293152D02*
X73080951Y-103293152D01*
X73080951Y-103293152D02*
X73176189Y-103340771D01*
X73176189Y-103340771D02*
X73223808Y-103388390D01*
X76961904Y-76607200D02*
X76819047Y-76654819D01*
X76819047Y-76654819D02*
X76580952Y-76654819D01*
X76580952Y-76654819D02*
X76485714Y-76607200D01*
X76485714Y-76607200D02*
X76438095Y-76559580D01*
X76438095Y-76559580D02*
X76390476Y-76464342D01*
X76390476Y-76464342D02*
X76390476Y-76369104D01*
X76390476Y-76369104D02*
X76438095Y-76273866D01*
X76438095Y-76273866D02*
X76485714Y-76226247D01*
X76485714Y-76226247D02*
X76580952Y-76178628D01*
X76580952Y-76178628D02*
X76771428Y-76131009D01*
X76771428Y-76131009D02*
X76866666Y-76083390D01*
X76866666Y-76083390D02*
X76914285Y-76035771D01*
X76914285Y-76035771D02*
X76961904Y-75940533D01*
X76961904Y-75940533D02*
X76961904Y-75845295D01*
X76961904Y-75845295D02*
X76914285Y-75750057D01*
X76914285Y-75750057D02*
X76866666Y-75702438D01*
X76866666Y-75702438D02*
X76771428Y-75654819D01*
X76771428Y-75654819D02*
X76533333Y-75654819D01*
X76533333Y-75654819D02*
X76390476Y-75702438D01*
X75819047Y-76083390D02*
X75914285Y-76035771D01*
X75914285Y-76035771D02*
X75961904Y-75988152D01*
X75961904Y-75988152D02*
X76009523Y-75892914D01*
X76009523Y-75892914D02*
X76009523Y-75845295D01*
X76009523Y-75845295D02*
X75961904Y-75750057D01*
X75961904Y-75750057D02*
X75914285Y-75702438D01*
X75914285Y-75702438D02*
X75819047Y-75654819D01*
X75819047Y-75654819D02*
X75628571Y-75654819D01*
X75628571Y-75654819D02*
X75533333Y-75702438D01*
X75533333Y-75702438D02*
X75485714Y-75750057D01*
X75485714Y-75750057D02*
X75438095Y-75845295D01*
X75438095Y-75845295D02*
X75438095Y-75892914D01*
X75438095Y-75892914D02*
X75485714Y-75988152D01*
X75485714Y-75988152D02*
X75533333Y-76035771D01*
X75533333Y-76035771D02*
X75628571Y-76083390D01*
X75628571Y-76083390D02*
X75819047Y-76083390D01*
X75819047Y-76083390D02*
X75914285Y-76131009D01*
X75914285Y-76131009D02*
X75961904Y-76178628D01*
X75961904Y-76178628D02*
X76009523Y-76273866D01*
X76009523Y-76273866D02*
X76009523Y-76464342D01*
X76009523Y-76464342D02*
X75961904Y-76559580D01*
X75961904Y-76559580D02*
X75914285Y-76607200D01*
X75914285Y-76607200D02*
X75819047Y-76654819D01*
X75819047Y-76654819D02*
X75628571Y-76654819D01*
X75628571Y-76654819D02*
X75533333Y-76607200D01*
X75533333Y-76607200D02*
X75485714Y-76559580D01*
X75485714Y-76559580D02*
X75438095Y-76464342D01*
X75438095Y-76464342D02*
X75438095Y-76273866D01*
X75438095Y-76273866D02*
X75485714Y-76178628D01*
X75485714Y-76178628D02*
X75533333Y-76131009D01*
X75533333Y-76131009D02*
X75628571Y-76083390D01*
X79604761Y-84909819D02*
X79604761Y-83909819D01*
X79033333Y-84909819D02*
X79461904Y-84338390D01*
X79033333Y-83909819D02*
X79604761Y-84481247D01*
X78223809Y-84862200D02*
X78319047Y-84909819D01*
X78319047Y-84909819D02*
X78509523Y-84909819D01*
X78509523Y-84909819D02*
X78604761Y-84862200D01*
X78604761Y-84862200D02*
X78652380Y-84766961D01*
X78652380Y-84766961D02*
X78652380Y-84386009D01*
X78652380Y-84386009D02*
X78604761Y-84290771D01*
X78604761Y-84290771D02*
X78509523Y-84243152D01*
X78509523Y-84243152D02*
X78319047Y-84243152D01*
X78319047Y-84243152D02*
X78223809Y-84290771D01*
X78223809Y-84290771D02*
X78176190Y-84386009D01*
X78176190Y-84386009D02*
X78176190Y-84481247D01*
X78176190Y-84481247D02*
X78652380Y-84576485D01*
X77842856Y-84243152D02*
X77604761Y-84909819D01*
X77366666Y-84243152D02*
X77604761Y-84909819D01*
X77604761Y-84909819D02*
X77699999Y-85147914D01*
X77699999Y-85147914D02*
X77747618Y-85195533D01*
X77747618Y-85195533D02*
X77842856Y-85243152D01*
X77033332Y-84862200D02*
X76938094Y-84909819D01*
X76938094Y-84909819D02*
X76747618Y-84909819D01*
X76747618Y-84909819D02*
X76652380Y-84862200D01*
X76652380Y-84862200D02*
X76604761Y-84766961D01*
X76604761Y-84766961D02*
X76604761Y-84719342D01*
X76604761Y-84719342D02*
X76652380Y-84624104D01*
X76652380Y-84624104D02*
X76747618Y-84576485D01*
X76747618Y-84576485D02*
X76890475Y-84576485D01*
X76890475Y-84576485D02*
X76985713Y-84528866D01*
X76985713Y-84528866D02*
X77033332Y-84433628D01*
X77033332Y-84433628D02*
X77033332Y-84386009D01*
X77033332Y-84386009D02*
X76985713Y-84290771D01*
X76985713Y-84290771D02*
X76890475Y-84243152D01*
X76890475Y-84243152D02*
X76747618Y-84243152D01*
X76747618Y-84243152D02*
X76652380Y-84290771D01*
X76271427Y-84243152D02*
X76080951Y-84909819D01*
X76080951Y-84909819D02*
X75890475Y-84433628D01*
X75890475Y-84433628D02*
X75699999Y-84909819D01*
X75699999Y-84909819D02*
X75509523Y-84243152D01*
X75128570Y-84909819D02*
X75128570Y-84243152D01*
X75128570Y-83909819D02*
X75176189Y-83957438D01*
X75176189Y-83957438D02*
X75128570Y-84005057D01*
X75128570Y-84005057D02*
X75080951Y-83957438D01*
X75080951Y-83957438D02*
X75128570Y-83909819D01*
X75128570Y-83909819D02*
X75128570Y-84005057D01*
X74795237Y-84243152D02*
X74414285Y-84243152D01*
X74652380Y-83909819D02*
X74652380Y-84766961D01*
X74652380Y-84766961D02*
X74604761Y-84862200D01*
X74604761Y-84862200D02*
X74509523Y-84909819D01*
X74509523Y-84909819D02*
X74414285Y-84909819D01*
X73652380Y-84862200D02*
X73747618Y-84909819D01*
X73747618Y-84909819D02*
X73938094Y-84909819D01*
X73938094Y-84909819D02*
X74033332Y-84862200D01*
X74033332Y-84862200D02*
X74080951Y-84814580D01*
X74080951Y-84814580D02*
X74128570Y-84719342D01*
X74128570Y-84719342D02*
X74128570Y-84433628D01*
X74128570Y-84433628D02*
X74080951Y-84338390D01*
X74080951Y-84338390D02*
X74033332Y-84290771D01*
X74033332Y-84290771D02*
X73938094Y-84243152D01*
X73938094Y-84243152D02*
X73747618Y-84243152D01*
X73747618Y-84243152D02*
X73652380Y-84290771D01*
X73223808Y-84909819D02*
X73223808Y-83909819D01*
X72795237Y-84909819D02*
X72795237Y-84386009D01*
X72795237Y-84386009D02*
X72842856Y-84290771D01*
X72842856Y-84290771D02*
X72938094Y-84243152D01*
X72938094Y-84243152D02*
X73080951Y-84243152D01*
X73080951Y-84243152D02*
X73176189Y-84290771D01*
X73176189Y-84290771D02*
X73223808Y-84338390D01*
X76961904Y-57557200D02*
X76819047Y-57604819D01*
X76819047Y-57604819D02*
X76580952Y-57604819D01*
X76580952Y-57604819D02*
X76485714Y-57557200D01*
X76485714Y-57557200D02*
X76438095Y-57509580D01*
X76438095Y-57509580D02*
X76390476Y-57414342D01*
X76390476Y-57414342D02*
X76390476Y-57319104D01*
X76390476Y-57319104D02*
X76438095Y-57223866D01*
X76438095Y-57223866D02*
X76485714Y-57176247D01*
X76485714Y-57176247D02*
X76580952Y-57128628D01*
X76580952Y-57128628D02*
X76771428Y-57081009D01*
X76771428Y-57081009D02*
X76866666Y-57033390D01*
X76866666Y-57033390D02*
X76914285Y-56985771D01*
X76914285Y-56985771D02*
X76961904Y-56890533D01*
X76961904Y-56890533D02*
X76961904Y-56795295D01*
X76961904Y-56795295D02*
X76914285Y-56700057D01*
X76914285Y-56700057D02*
X76866666Y-56652438D01*
X76866666Y-56652438D02*
X76771428Y-56604819D01*
X76771428Y-56604819D02*
X76533333Y-56604819D01*
X76533333Y-56604819D02*
X76390476Y-56652438D01*
X76009523Y-56700057D02*
X75961904Y-56652438D01*
X75961904Y-56652438D02*
X75866666Y-56604819D01*
X75866666Y-56604819D02*
X75628571Y-56604819D01*
X75628571Y-56604819D02*
X75533333Y-56652438D01*
X75533333Y-56652438D02*
X75485714Y-56700057D01*
X75485714Y-56700057D02*
X75438095Y-56795295D01*
X75438095Y-56795295D02*
X75438095Y-56890533D01*
X75438095Y-56890533D02*
X75485714Y-57033390D01*
X75485714Y-57033390D02*
X76057142Y-57604819D01*
X76057142Y-57604819D02*
X75438095Y-57604819D01*
X79604761Y-65859819D02*
X79604761Y-64859819D01*
X79033333Y-65859819D02*
X79461904Y-65288390D01*
X79033333Y-64859819D02*
X79604761Y-65431247D01*
X78223809Y-65812200D02*
X78319047Y-65859819D01*
X78319047Y-65859819D02*
X78509523Y-65859819D01*
X78509523Y-65859819D02*
X78604761Y-65812200D01*
X78604761Y-65812200D02*
X78652380Y-65716961D01*
X78652380Y-65716961D02*
X78652380Y-65336009D01*
X78652380Y-65336009D02*
X78604761Y-65240771D01*
X78604761Y-65240771D02*
X78509523Y-65193152D01*
X78509523Y-65193152D02*
X78319047Y-65193152D01*
X78319047Y-65193152D02*
X78223809Y-65240771D01*
X78223809Y-65240771D02*
X78176190Y-65336009D01*
X78176190Y-65336009D02*
X78176190Y-65431247D01*
X78176190Y-65431247D02*
X78652380Y-65526485D01*
X77842856Y-65193152D02*
X77604761Y-65859819D01*
X77366666Y-65193152D02*
X77604761Y-65859819D01*
X77604761Y-65859819D02*
X77699999Y-66097914D01*
X77699999Y-66097914D02*
X77747618Y-66145533D01*
X77747618Y-66145533D02*
X77842856Y-66193152D01*
X77033332Y-65812200D02*
X76938094Y-65859819D01*
X76938094Y-65859819D02*
X76747618Y-65859819D01*
X76747618Y-65859819D02*
X76652380Y-65812200D01*
X76652380Y-65812200D02*
X76604761Y-65716961D01*
X76604761Y-65716961D02*
X76604761Y-65669342D01*
X76604761Y-65669342D02*
X76652380Y-65574104D01*
X76652380Y-65574104D02*
X76747618Y-65526485D01*
X76747618Y-65526485D02*
X76890475Y-65526485D01*
X76890475Y-65526485D02*
X76985713Y-65478866D01*
X76985713Y-65478866D02*
X77033332Y-65383628D01*
X77033332Y-65383628D02*
X77033332Y-65336009D01*
X77033332Y-65336009D02*
X76985713Y-65240771D01*
X76985713Y-65240771D02*
X76890475Y-65193152D01*
X76890475Y-65193152D02*
X76747618Y-65193152D01*
X76747618Y-65193152D02*
X76652380Y-65240771D01*
X76271427Y-65193152D02*
X76080951Y-65859819D01*
X76080951Y-65859819D02*
X75890475Y-65383628D01*
X75890475Y-65383628D02*
X75699999Y-65859819D01*
X75699999Y-65859819D02*
X75509523Y-65193152D01*
X75128570Y-65859819D02*
X75128570Y-65193152D01*
X75128570Y-64859819D02*
X75176189Y-64907438D01*
X75176189Y-64907438D02*
X75128570Y-64955057D01*
X75128570Y-64955057D02*
X75080951Y-64907438D01*
X75080951Y-64907438D02*
X75128570Y-64859819D01*
X75128570Y-64859819D02*
X75128570Y-64955057D01*
X74795237Y-65193152D02*
X74414285Y-65193152D01*
X74652380Y-64859819D02*
X74652380Y-65716961D01*
X74652380Y-65716961D02*
X74604761Y-65812200D01*
X74604761Y-65812200D02*
X74509523Y-65859819D01*
X74509523Y-65859819D02*
X74414285Y-65859819D01*
X73652380Y-65812200D02*
X73747618Y-65859819D01*
X73747618Y-65859819D02*
X73938094Y-65859819D01*
X73938094Y-65859819D02*
X74033332Y-65812200D01*
X74033332Y-65812200D02*
X74080951Y-65764580D01*
X74080951Y-65764580D02*
X74128570Y-65669342D01*
X74128570Y-65669342D02*
X74128570Y-65383628D01*
X74128570Y-65383628D02*
X74080951Y-65288390D01*
X74080951Y-65288390D02*
X74033332Y-65240771D01*
X74033332Y-65240771D02*
X73938094Y-65193152D01*
X73938094Y-65193152D02*
X73747618Y-65193152D01*
X73747618Y-65193152D02*
X73652380Y-65240771D01*
X73223808Y-65859819D02*
X73223808Y-64859819D01*
X72795237Y-65859819D02*
X72795237Y-65336009D01*
X72795237Y-65336009D02*
X72842856Y-65240771D01*
X72842856Y-65240771D02*
X72938094Y-65193152D01*
X72938094Y-65193152D02*
X73080951Y-65193152D01*
X73080951Y-65193152D02*
X73176189Y-65240771D01*
X73176189Y-65240771D02*
X73223808Y-65288390D01*
X115538094Y-90894700D02*
X115395237Y-90942319D01*
X115395237Y-90942319D02*
X115157142Y-90942319D01*
X115157142Y-90942319D02*
X115061904Y-90894700D01*
X115061904Y-90894700D02*
X115014285Y-90847080D01*
X115014285Y-90847080D02*
X114966666Y-90751842D01*
X114966666Y-90751842D02*
X114966666Y-90656604D01*
X114966666Y-90656604D02*
X115014285Y-90561366D01*
X115014285Y-90561366D02*
X115061904Y-90513747D01*
X115061904Y-90513747D02*
X115157142Y-90466128D01*
X115157142Y-90466128D02*
X115347618Y-90418509D01*
X115347618Y-90418509D02*
X115442856Y-90370890D01*
X115442856Y-90370890D02*
X115490475Y-90323271D01*
X115490475Y-90323271D02*
X115538094Y-90228033D01*
X115538094Y-90228033D02*
X115538094Y-90132795D01*
X115538094Y-90132795D02*
X115490475Y-90037557D01*
X115490475Y-90037557D02*
X115442856Y-89989938D01*
X115442856Y-89989938D02*
X115347618Y-89942319D01*
X115347618Y-89942319D02*
X115109523Y-89942319D01*
X115109523Y-89942319D02*
X114966666Y-89989938D01*
X114014285Y-90942319D02*
X114585713Y-90942319D01*
X114299999Y-90942319D02*
X114299999Y-89942319D01*
X114299999Y-89942319D02*
X114395237Y-90085176D01*
X114395237Y-90085176D02*
X114490475Y-90180414D01*
X114490475Y-90180414D02*
X114585713Y-90228033D01*
X113157142Y-89942319D02*
X113347618Y-89942319D01*
X113347618Y-89942319D02*
X113442856Y-89989938D01*
X113442856Y-89989938D02*
X113490475Y-90037557D01*
X113490475Y-90037557D02*
X113585713Y-90180414D01*
X113585713Y-90180414D02*
X113633332Y-90370890D01*
X113633332Y-90370890D02*
X113633332Y-90751842D01*
X113633332Y-90751842D02*
X113585713Y-90847080D01*
X113585713Y-90847080D02*
X113538094Y-90894700D01*
X113538094Y-90894700D02*
X113442856Y-90942319D01*
X113442856Y-90942319D02*
X113252380Y-90942319D01*
X113252380Y-90942319D02*
X113157142Y-90894700D01*
X113157142Y-90894700D02*
X113109523Y-90847080D01*
X113109523Y-90847080D02*
X113061904Y-90751842D01*
X113061904Y-90751842D02*
X113061904Y-90513747D01*
X113061904Y-90513747D02*
X113109523Y-90418509D01*
X113109523Y-90418509D02*
X113157142Y-90370890D01*
X113157142Y-90370890D02*
X113252380Y-90323271D01*
X113252380Y-90323271D02*
X113442856Y-90323271D01*
X113442856Y-90323271D02*
X113538094Y-90370890D01*
X113538094Y-90370890D02*
X113585713Y-90418509D01*
X113585713Y-90418509D02*
X113633332Y-90513747D01*
X117704761Y-99197319D02*
X117704761Y-98197319D01*
X117133333Y-99197319D02*
X117561904Y-98625890D01*
X117133333Y-98197319D02*
X117704761Y-98768747D01*
X116323809Y-99149700D02*
X116419047Y-99197319D01*
X116419047Y-99197319D02*
X116609523Y-99197319D01*
X116609523Y-99197319D02*
X116704761Y-99149700D01*
X116704761Y-99149700D02*
X116752380Y-99054461D01*
X116752380Y-99054461D02*
X116752380Y-98673509D01*
X116752380Y-98673509D02*
X116704761Y-98578271D01*
X116704761Y-98578271D02*
X116609523Y-98530652D01*
X116609523Y-98530652D02*
X116419047Y-98530652D01*
X116419047Y-98530652D02*
X116323809Y-98578271D01*
X116323809Y-98578271D02*
X116276190Y-98673509D01*
X116276190Y-98673509D02*
X116276190Y-98768747D01*
X116276190Y-98768747D02*
X116752380Y-98863985D01*
X115942856Y-98530652D02*
X115704761Y-99197319D01*
X115466666Y-98530652D02*
X115704761Y-99197319D01*
X115704761Y-99197319D02*
X115799999Y-99435414D01*
X115799999Y-99435414D02*
X115847618Y-99483033D01*
X115847618Y-99483033D02*
X115942856Y-99530652D01*
X115133332Y-99149700D02*
X115038094Y-99197319D01*
X115038094Y-99197319D02*
X114847618Y-99197319D01*
X114847618Y-99197319D02*
X114752380Y-99149700D01*
X114752380Y-99149700D02*
X114704761Y-99054461D01*
X114704761Y-99054461D02*
X114704761Y-99006842D01*
X114704761Y-99006842D02*
X114752380Y-98911604D01*
X114752380Y-98911604D02*
X114847618Y-98863985D01*
X114847618Y-98863985D02*
X114990475Y-98863985D01*
X114990475Y-98863985D02*
X115085713Y-98816366D01*
X115085713Y-98816366D02*
X115133332Y-98721128D01*
X115133332Y-98721128D02*
X115133332Y-98673509D01*
X115133332Y-98673509D02*
X115085713Y-98578271D01*
X115085713Y-98578271D02*
X114990475Y-98530652D01*
X114990475Y-98530652D02*
X114847618Y-98530652D01*
X114847618Y-98530652D02*
X114752380Y-98578271D01*
X114371427Y-98530652D02*
X114180951Y-99197319D01*
X114180951Y-99197319D02*
X113990475Y-98721128D01*
X113990475Y-98721128D02*
X113799999Y-99197319D01*
X113799999Y-99197319D02*
X113609523Y-98530652D01*
X113228570Y-99197319D02*
X113228570Y-98530652D01*
X113228570Y-98197319D02*
X113276189Y-98244938D01*
X113276189Y-98244938D02*
X113228570Y-98292557D01*
X113228570Y-98292557D02*
X113180951Y-98244938D01*
X113180951Y-98244938D02*
X113228570Y-98197319D01*
X113228570Y-98197319D02*
X113228570Y-98292557D01*
X112895237Y-98530652D02*
X112514285Y-98530652D01*
X112752380Y-98197319D02*
X112752380Y-99054461D01*
X112752380Y-99054461D02*
X112704761Y-99149700D01*
X112704761Y-99149700D02*
X112609523Y-99197319D01*
X112609523Y-99197319D02*
X112514285Y-99197319D01*
X111752380Y-99149700D02*
X111847618Y-99197319D01*
X111847618Y-99197319D02*
X112038094Y-99197319D01*
X112038094Y-99197319D02*
X112133332Y-99149700D01*
X112133332Y-99149700D02*
X112180951Y-99102080D01*
X112180951Y-99102080D02*
X112228570Y-99006842D01*
X112228570Y-99006842D02*
X112228570Y-98721128D01*
X112228570Y-98721128D02*
X112180951Y-98625890D01*
X112180951Y-98625890D02*
X112133332Y-98578271D01*
X112133332Y-98578271D02*
X112038094Y-98530652D01*
X112038094Y-98530652D02*
X111847618Y-98530652D01*
X111847618Y-98530652D02*
X111752380Y-98578271D01*
X111323808Y-99197319D02*
X111323808Y-98197319D01*
X110895237Y-99197319D02*
X110895237Y-98673509D01*
X110895237Y-98673509D02*
X110942856Y-98578271D01*
X110942856Y-98578271D02*
X111038094Y-98530652D01*
X111038094Y-98530652D02*
X111180951Y-98530652D01*
X111180951Y-98530652D02*
X111276189Y-98578271D01*
X111276189Y-98578271D02*
X111323808Y-98625890D01*
X115538094Y-71844700D02*
X115395237Y-71892319D01*
X115395237Y-71892319D02*
X115157142Y-71892319D01*
X115157142Y-71892319D02*
X115061904Y-71844700D01*
X115061904Y-71844700D02*
X115014285Y-71797080D01*
X115014285Y-71797080D02*
X114966666Y-71701842D01*
X114966666Y-71701842D02*
X114966666Y-71606604D01*
X114966666Y-71606604D02*
X115014285Y-71511366D01*
X115014285Y-71511366D02*
X115061904Y-71463747D01*
X115061904Y-71463747D02*
X115157142Y-71416128D01*
X115157142Y-71416128D02*
X115347618Y-71368509D01*
X115347618Y-71368509D02*
X115442856Y-71320890D01*
X115442856Y-71320890D02*
X115490475Y-71273271D01*
X115490475Y-71273271D02*
X115538094Y-71178033D01*
X115538094Y-71178033D02*
X115538094Y-71082795D01*
X115538094Y-71082795D02*
X115490475Y-70987557D01*
X115490475Y-70987557D02*
X115442856Y-70939938D01*
X115442856Y-70939938D02*
X115347618Y-70892319D01*
X115347618Y-70892319D02*
X115109523Y-70892319D01*
X115109523Y-70892319D02*
X114966666Y-70939938D01*
X114014285Y-71892319D02*
X114585713Y-71892319D01*
X114299999Y-71892319D02*
X114299999Y-70892319D01*
X114299999Y-70892319D02*
X114395237Y-71035176D01*
X114395237Y-71035176D02*
X114490475Y-71130414D01*
X114490475Y-71130414D02*
X114585713Y-71178033D01*
X113395237Y-70892319D02*
X113299999Y-70892319D01*
X113299999Y-70892319D02*
X113204761Y-70939938D01*
X113204761Y-70939938D02*
X113157142Y-70987557D01*
X113157142Y-70987557D02*
X113109523Y-71082795D01*
X113109523Y-71082795D02*
X113061904Y-71273271D01*
X113061904Y-71273271D02*
X113061904Y-71511366D01*
X113061904Y-71511366D02*
X113109523Y-71701842D01*
X113109523Y-71701842D02*
X113157142Y-71797080D01*
X113157142Y-71797080D02*
X113204761Y-71844700D01*
X113204761Y-71844700D02*
X113299999Y-71892319D01*
X113299999Y-71892319D02*
X113395237Y-71892319D01*
X113395237Y-71892319D02*
X113490475Y-71844700D01*
X113490475Y-71844700D02*
X113538094Y-71797080D01*
X113538094Y-71797080D02*
X113585713Y-71701842D01*
X113585713Y-71701842D02*
X113633332Y-71511366D01*
X113633332Y-71511366D02*
X113633332Y-71273271D01*
X113633332Y-71273271D02*
X113585713Y-71082795D01*
X113585713Y-71082795D02*
X113538094Y-70987557D01*
X113538094Y-70987557D02*
X113490475Y-70939938D01*
X113490475Y-70939938D02*
X113395237Y-70892319D01*
X117704761Y-80147319D02*
X117704761Y-79147319D01*
X117133333Y-80147319D02*
X117561904Y-79575890D01*
X117133333Y-79147319D02*
X117704761Y-79718747D01*
X116323809Y-80099700D02*
X116419047Y-80147319D01*
X116419047Y-80147319D02*
X116609523Y-80147319D01*
X116609523Y-80147319D02*
X116704761Y-80099700D01*
X116704761Y-80099700D02*
X116752380Y-80004461D01*
X116752380Y-80004461D02*
X116752380Y-79623509D01*
X116752380Y-79623509D02*
X116704761Y-79528271D01*
X116704761Y-79528271D02*
X116609523Y-79480652D01*
X116609523Y-79480652D02*
X116419047Y-79480652D01*
X116419047Y-79480652D02*
X116323809Y-79528271D01*
X116323809Y-79528271D02*
X116276190Y-79623509D01*
X116276190Y-79623509D02*
X116276190Y-79718747D01*
X116276190Y-79718747D02*
X116752380Y-79813985D01*
X115942856Y-79480652D02*
X115704761Y-80147319D01*
X115466666Y-79480652D02*
X115704761Y-80147319D01*
X115704761Y-80147319D02*
X115799999Y-80385414D01*
X115799999Y-80385414D02*
X115847618Y-80433033D01*
X115847618Y-80433033D02*
X115942856Y-80480652D01*
X115133332Y-80099700D02*
X115038094Y-80147319D01*
X115038094Y-80147319D02*
X114847618Y-80147319D01*
X114847618Y-80147319D02*
X114752380Y-80099700D01*
X114752380Y-80099700D02*
X114704761Y-80004461D01*
X114704761Y-80004461D02*
X114704761Y-79956842D01*
X114704761Y-79956842D02*
X114752380Y-79861604D01*
X114752380Y-79861604D02*
X114847618Y-79813985D01*
X114847618Y-79813985D02*
X114990475Y-79813985D01*
X114990475Y-79813985D02*
X115085713Y-79766366D01*
X115085713Y-79766366D02*
X115133332Y-79671128D01*
X115133332Y-79671128D02*
X115133332Y-79623509D01*
X115133332Y-79623509D02*
X115085713Y-79528271D01*
X115085713Y-79528271D02*
X114990475Y-79480652D01*
X114990475Y-79480652D02*
X114847618Y-79480652D01*
X114847618Y-79480652D02*
X114752380Y-79528271D01*
X114371427Y-79480652D02*
X114180951Y-80147319D01*
X114180951Y-80147319D02*
X113990475Y-79671128D01*
X113990475Y-79671128D02*
X113799999Y-80147319D01*
X113799999Y-80147319D02*
X113609523Y-79480652D01*
X113228570Y-80147319D02*
X113228570Y-79480652D01*
X113228570Y-79147319D02*
X113276189Y-79194938D01*
X113276189Y-79194938D02*
X113228570Y-79242557D01*
X113228570Y-79242557D02*
X113180951Y-79194938D01*
X113180951Y-79194938D02*
X113228570Y-79147319D01*
X113228570Y-79147319D02*
X113228570Y-79242557D01*
X112895237Y-79480652D02*
X112514285Y-79480652D01*
X112752380Y-79147319D02*
X112752380Y-80004461D01*
X112752380Y-80004461D02*
X112704761Y-80099700D01*
X112704761Y-80099700D02*
X112609523Y-80147319D01*
X112609523Y-80147319D02*
X112514285Y-80147319D01*
X111752380Y-80099700D02*
X111847618Y-80147319D01*
X111847618Y-80147319D02*
X112038094Y-80147319D01*
X112038094Y-80147319D02*
X112133332Y-80099700D01*
X112133332Y-80099700D02*
X112180951Y-80052080D01*
X112180951Y-80052080D02*
X112228570Y-79956842D01*
X112228570Y-79956842D02*
X112228570Y-79671128D01*
X112228570Y-79671128D02*
X112180951Y-79575890D01*
X112180951Y-79575890D02*
X112133332Y-79528271D01*
X112133332Y-79528271D02*
X112038094Y-79480652D01*
X112038094Y-79480652D02*
X111847618Y-79480652D01*
X111847618Y-79480652D02*
X111752380Y-79528271D01*
X111323808Y-80147319D02*
X111323808Y-79147319D01*
X110895237Y-80147319D02*
X110895237Y-79623509D01*
X110895237Y-79623509D02*
X110942856Y-79528271D01*
X110942856Y-79528271D02*
X111038094Y-79480652D01*
X111038094Y-79480652D02*
X111180951Y-79480652D01*
X111180951Y-79480652D02*
X111276189Y-79528271D01*
X111276189Y-79528271D02*
X111323808Y-79575890D01*
X153638094Y-76607200D02*
X153495237Y-76654819D01*
X153495237Y-76654819D02*
X153257142Y-76654819D01*
X153257142Y-76654819D02*
X153161904Y-76607200D01*
X153161904Y-76607200D02*
X153114285Y-76559580D01*
X153114285Y-76559580D02*
X153066666Y-76464342D01*
X153066666Y-76464342D02*
X153066666Y-76369104D01*
X153066666Y-76369104D02*
X153114285Y-76273866D01*
X153114285Y-76273866D02*
X153161904Y-76226247D01*
X153161904Y-76226247D02*
X153257142Y-76178628D01*
X153257142Y-76178628D02*
X153447618Y-76131009D01*
X153447618Y-76131009D02*
X153542856Y-76083390D01*
X153542856Y-76083390D02*
X153590475Y-76035771D01*
X153590475Y-76035771D02*
X153638094Y-75940533D01*
X153638094Y-75940533D02*
X153638094Y-75845295D01*
X153638094Y-75845295D02*
X153590475Y-75750057D01*
X153590475Y-75750057D02*
X153542856Y-75702438D01*
X153542856Y-75702438D02*
X153447618Y-75654819D01*
X153447618Y-75654819D02*
X153209523Y-75654819D01*
X153209523Y-75654819D02*
X153066666Y-75702438D01*
X152114285Y-76654819D02*
X152685713Y-76654819D01*
X152399999Y-76654819D02*
X152399999Y-75654819D01*
X152399999Y-75654819D02*
X152495237Y-75797676D01*
X152495237Y-75797676D02*
X152590475Y-75892914D01*
X152590475Y-75892914D02*
X152685713Y-75940533D01*
X151733332Y-75750057D02*
X151685713Y-75702438D01*
X151685713Y-75702438D02*
X151590475Y-75654819D01*
X151590475Y-75654819D02*
X151352380Y-75654819D01*
X151352380Y-75654819D02*
X151257142Y-75702438D01*
X151257142Y-75702438D02*
X151209523Y-75750057D01*
X151209523Y-75750057D02*
X151161904Y-75845295D01*
X151161904Y-75845295D02*
X151161904Y-75940533D01*
X151161904Y-75940533D02*
X151209523Y-76083390D01*
X151209523Y-76083390D02*
X151780951Y-76654819D01*
X151780951Y-76654819D02*
X151161904Y-76654819D01*
X155804761Y-84909819D02*
X155804761Y-83909819D01*
X155233333Y-84909819D02*
X155661904Y-84338390D01*
X155233333Y-83909819D02*
X155804761Y-84481247D01*
X154423809Y-84862200D02*
X154519047Y-84909819D01*
X154519047Y-84909819D02*
X154709523Y-84909819D01*
X154709523Y-84909819D02*
X154804761Y-84862200D01*
X154804761Y-84862200D02*
X154852380Y-84766961D01*
X154852380Y-84766961D02*
X154852380Y-84386009D01*
X154852380Y-84386009D02*
X154804761Y-84290771D01*
X154804761Y-84290771D02*
X154709523Y-84243152D01*
X154709523Y-84243152D02*
X154519047Y-84243152D01*
X154519047Y-84243152D02*
X154423809Y-84290771D01*
X154423809Y-84290771D02*
X154376190Y-84386009D01*
X154376190Y-84386009D02*
X154376190Y-84481247D01*
X154376190Y-84481247D02*
X154852380Y-84576485D01*
X154042856Y-84243152D02*
X153804761Y-84909819D01*
X153566666Y-84243152D02*
X153804761Y-84909819D01*
X153804761Y-84909819D02*
X153899999Y-85147914D01*
X153899999Y-85147914D02*
X153947618Y-85195533D01*
X153947618Y-85195533D02*
X154042856Y-85243152D01*
X153233332Y-84862200D02*
X153138094Y-84909819D01*
X153138094Y-84909819D02*
X152947618Y-84909819D01*
X152947618Y-84909819D02*
X152852380Y-84862200D01*
X152852380Y-84862200D02*
X152804761Y-84766961D01*
X152804761Y-84766961D02*
X152804761Y-84719342D01*
X152804761Y-84719342D02*
X152852380Y-84624104D01*
X152852380Y-84624104D02*
X152947618Y-84576485D01*
X152947618Y-84576485D02*
X153090475Y-84576485D01*
X153090475Y-84576485D02*
X153185713Y-84528866D01*
X153185713Y-84528866D02*
X153233332Y-84433628D01*
X153233332Y-84433628D02*
X153233332Y-84386009D01*
X153233332Y-84386009D02*
X153185713Y-84290771D01*
X153185713Y-84290771D02*
X153090475Y-84243152D01*
X153090475Y-84243152D02*
X152947618Y-84243152D01*
X152947618Y-84243152D02*
X152852380Y-84290771D01*
X152471427Y-84243152D02*
X152280951Y-84909819D01*
X152280951Y-84909819D02*
X152090475Y-84433628D01*
X152090475Y-84433628D02*
X151899999Y-84909819D01*
X151899999Y-84909819D02*
X151709523Y-84243152D01*
X151328570Y-84909819D02*
X151328570Y-84243152D01*
X151328570Y-83909819D02*
X151376189Y-83957438D01*
X151376189Y-83957438D02*
X151328570Y-84005057D01*
X151328570Y-84005057D02*
X151280951Y-83957438D01*
X151280951Y-83957438D02*
X151328570Y-83909819D01*
X151328570Y-83909819D02*
X151328570Y-84005057D01*
X150995237Y-84243152D02*
X150614285Y-84243152D01*
X150852380Y-83909819D02*
X150852380Y-84766961D01*
X150852380Y-84766961D02*
X150804761Y-84862200D01*
X150804761Y-84862200D02*
X150709523Y-84909819D01*
X150709523Y-84909819D02*
X150614285Y-84909819D01*
X149852380Y-84862200D02*
X149947618Y-84909819D01*
X149947618Y-84909819D02*
X150138094Y-84909819D01*
X150138094Y-84909819D02*
X150233332Y-84862200D01*
X150233332Y-84862200D02*
X150280951Y-84814580D01*
X150280951Y-84814580D02*
X150328570Y-84719342D01*
X150328570Y-84719342D02*
X150328570Y-84433628D01*
X150328570Y-84433628D02*
X150280951Y-84338390D01*
X150280951Y-84338390D02*
X150233332Y-84290771D01*
X150233332Y-84290771D02*
X150138094Y-84243152D01*
X150138094Y-84243152D02*
X149947618Y-84243152D01*
X149947618Y-84243152D02*
X149852380Y-84290771D01*
X149423808Y-84909819D02*
X149423808Y-83909819D01*
X148995237Y-84909819D02*
X148995237Y-84386009D01*
X148995237Y-84386009D02*
X149042856Y-84290771D01*
X149042856Y-84290771D02*
X149138094Y-84243152D01*
X149138094Y-84243152D02*
X149280951Y-84243152D01*
X149280951Y-84243152D02*
X149376189Y-84290771D01*
X149376189Y-84290771D02*
X149423808Y-84338390D01*
X57911904Y-57557200D02*
X57769047Y-57604819D01*
X57769047Y-57604819D02*
X57530952Y-57604819D01*
X57530952Y-57604819D02*
X57435714Y-57557200D01*
X57435714Y-57557200D02*
X57388095Y-57509580D01*
X57388095Y-57509580D02*
X57340476Y-57414342D01*
X57340476Y-57414342D02*
X57340476Y-57319104D01*
X57340476Y-57319104D02*
X57388095Y-57223866D01*
X57388095Y-57223866D02*
X57435714Y-57176247D01*
X57435714Y-57176247D02*
X57530952Y-57128628D01*
X57530952Y-57128628D02*
X57721428Y-57081009D01*
X57721428Y-57081009D02*
X57816666Y-57033390D01*
X57816666Y-57033390D02*
X57864285Y-56985771D01*
X57864285Y-56985771D02*
X57911904Y-56890533D01*
X57911904Y-56890533D02*
X57911904Y-56795295D01*
X57911904Y-56795295D02*
X57864285Y-56700057D01*
X57864285Y-56700057D02*
X57816666Y-56652438D01*
X57816666Y-56652438D02*
X57721428Y-56604819D01*
X57721428Y-56604819D02*
X57483333Y-56604819D01*
X57483333Y-56604819D02*
X57340476Y-56652438D01*
X56388095Y-57604819D02*
X56959523Y-57604819D01*
X56673809Y-57604819D02*
X56673809Y-56604819D01*
X56673809Y-56604819D02*
X56769047Y-56747676D01*
X56769047Y-56747676D02*
X56864285Y-56842914D01*
X56864285Y-56842914D02*
X56959523Y-56890533D01*
X60554761Y-65859819D02*
X60554761Y-64859819D01*
X59983333Y-65859819D02*
X60411904Y-65288390D01*
X59983333Y-64859819D02*
X60554761Y-65431247D01*
X59173809Y-65812200D02*
X59269047Y-65859819D01*
X59269047Y-65859819D02*
X59459523Y-65859819D01*
X59459523Y-65859819D02*
X59554761Y-65812200D01*
X59554761Y-65812200D02*
X59602380Y-65716961D01*
X59602380Y-65716961D02*
X59602380Y-65336009D01*
X59602380Y-65336009D02*
X59554761Y-65240771D01*
X59554761Y-65240771D02*
X59459523Y-65193152D01*
X59459523Y-65193152D02*
X59269047Y-65193152D01*
X59269047Y-65193152D02*
X59173809Y-65240771D01*
X59173809Y-65240771D02*
X59126190Y-65336009D01*
X59126190Y-65336009D02*
X59126190Y-65431247D01*
X59126190Y-65431247D02*
X59602380Y-65526485D01*
X58792856Y-65193152D02*
X58554761Y-65859819D01*
X58316666Y-65193152D02*
X58554761Y-65859819D01*
X58554761Y-65859819D02*
X58649999Y-66097914D01*
X58649999Y-66097914D02*
X58697618Y-66145533D01*
X58697618Y-66145533D02*
X58792856Y-66193152D01*
X57983332Y-65812200D02*
X57888094Y-65859819D01*
X57888094Y-65859819D02*
X57697618Y-65859819D01*
X57697618Y-65859819D02*
X57602380Y-65812200D01*
X57602380Y-65812200D02*
X57554761Y-65716961D01*
X57554761Y-65716961D02*
X57554761Y-65669342D01*
X57554761Y-65669342D02*
X57602380Y-65574104D01*
X57602380Y-65574104D02*
X57697618Y-65526485D01*
X57697618Y-65526485D02*
X57840475Y-65526485D01*
X57840475Y-65526485D02*
X57935713Y-65478866D01*
X57935713Y-65478866D02*
X57983332Y-65383628D01*
X57983332Y-65383628D02*
X57983332Y-65336009D01*
X57983332Y-65336009D02*
X57935713Y-65240771D01*
X57935713Y-65240771D02*
X57840475Y-65193152D01*
X57840475Y-65193152D02*
X57697618Y-65193152D01*
X57697618Y-65193152D02*
X57602380Y-65240771D01*
X57221427Y-65193152D02*
X57030951Y-65859819D01*
X57030951Y-65859819D02*
X56840475Y-65383628D01*
X56840475Y-65383628D02*
X56649999Y-65859819D01*
X56649999Y-65859819D02*
X56459523Y-65193152D01*
X56078570Y-65859819D02*
X56078570Y-65193152D01*
X56078570Y-64859819D02*
X56126189Y-64907438D01*
X56126189Y-64907438D02*
X56078570Y-64955057D01*
X56078570Y-64955057D02*
X56030951Y-64907438D01*
X56030951Y-64907438D02*
X56078570Y-64859819D01*
X56078570Y-64859819D02*
X56078570Y-64955057D01*
X55745237Y-65193152D02*
X55364285Y-65193152D01*
X55602380Y-64859819D02*
X55602380Y-65716961D01*
X55602380Y-65716961D02*
X55554761Y-65812200D01*
X55554761Y-65812200D02*
X55459523Y-65859819D01*
X55459523Y-65859819D02*
X55364285Y-65859819D01*
X54602380Y-65812200D02*
X54697618Y-65859819D01*
X54697618Y-65859819D02*
X54888094Y-65859819D01*
X54888094Y-65859819D02*
X54983332Y-65812200D01*
X54983332Y-65812200D02*
X55030951Y-65764580D01*
X55030951Y-65764580D02*
X55078570Y-65669342D01*
X55078570Y-65669342D02*
X55078570Y-65383628D01*
X55078570Y-65383628D02*
X55030951Y-65288390D01*
X55030951Y-65288390D02*
X54983332Y-65240771D01*
X54983332Y-65240771D02*
X54888094Y-65193152D01*
X54888094Y-65193152D02*
X54697618Y-65193152D01*
X54697618Y-65193152D02*
X54602380Y-65240771D01*
X54173808Y-65859819D02*
X54173808Y-64859819D01*
X53745237Y-65859819D02*
X53745237Y-65336009D01*
X53745237Y-65336009D02*
X53792856Y-65240771D01*
X53792856Y-65240771D02*
X53888094Y-65193152D01*
X53888094Y-65193152D02*
X54030951Y-65193152D01*
X54030951Y-65193152D02*
X54126189Y-65240771D01*
X54126189Y-65240771D02*
X54173808Y-65288390D01*
X98654761Y-63478569D02*
X98654761Y-62478569D01*
X98083333Y-63478569D02*
X98511904Y-62907140D01*
X98083333Y-62478569D02*
X98654761Y-63049997D01*
X97273809Y-63430950D02*
X97369047Y-63478569D01*
X97369047Y-63478569D02*
X97559523Y-63478569D01*
X97559523Y-63478569D02*
X97654761Y-63430950D01*
X97654761Y-63430950D02*
X97702380Y-63335711D01*
X97702380Y-63335711D02*
X97702380Y-62954759D01*
X97702380Y-62954759D02*
X97654761Y-62859521D01*
X97654761Y-62859521D02*
X97559523Y-62811902D01*
X97559523Y-62811902D02*
X97369047Y-62811902D01*
X97369047Y-62811902D02*
X97273809Y-62859521D01*
X97273809Y-62859521D02*
X97226190Y-62954759D01*
X97226190Y-62954759D02*
X97226190Y-63049997D01*
X97226190Y-63049997D02*
X97702380Y-63145235D01*
X96892856Y-62811902D02*
X96654761Y-63478569D01*
X96416666Y-62811902D02*
X96654761Y-63478569D01*
X96654761Y-63478569D02*
X96749999Y-63716664D01*
X96749999Y-63716664D02*
X96797618Y-63764283D01*
X96797618Y-63764283D02*
X96892856Y-63811902D01*
X96083332Y-63430950D02*
X95988094Y-63478569D01*
X95988094Y-63478569D02*
X95797618Y-63478569D01*
X95797618Y-63478569D02*
X95702380Y-63430950D01*
X95702380Y-63430950D02*
X95654761Y-63335711D01*
X95654761Y-63335711D02*
X95654761Y-63288092D01*
X95654761Y-63288092D02*
X95702380Y-63192854D01*
X95702380Y-63192854D02*
X95797618Y-63145235D01*
X95797618Y-63145235D02*
X95940475Y-63145235D01*
X95940475Y-63145235D02*
X96035713Y-63097616D01*
X96035713Y-63097616D02*
X96083332Y-63002378D01*
X96083332Y-63002378D02*
X96083332Y-62954759D01*
X96083332Y-62954759D02*
X96035713Y-62859521D01*
X96035713Y-62859521D02*
X95940475Y-62811902D01*
X95940475Y-62811902D02*
X95797618Y-62811902D01*
X95797618Y-62811902D02*
X95702380Y-62859521D01*
X95321427Y-62811902D02*
X95130951Y-63478569D01*
X95130951Y-63478569D02*
X94940475Y-63002378D01*
X94940475Y-63002378D02*
X94749999Y-63478569D01*
X94749999Y-63478569D02*
X94559523Y-62811902D01*
X94178570Y-63478569D02*
X94178570Y-62811902D01*
X94178570Y-62478569D02*
X94226189Y-62526188D01*
X94226189Y-62526188D02*
X94178570Y-62573807D01*
X94178570Y-62573807D02*
X94130951Y-62526188D01*
X94130951Y-62526188D02*
X94178570Y-62478569D01*
X94178570Y-62478569D02*
X94178570Y-62573807D01*
X93845237Y-62811902D02*
X93464285Y-62811902D01*
X93702380Y-62478569D02*
X93702380Y-63335711D01*
X93702380Y-63335711D02*
X93654761Y-63430950D01*
X93654761Y-63430950D02*
X93559523Y-63478569D01*
X93559523Y-63478569D02*
X93464285Y-63478569D01*
X92702380Y-63430950D02*
X92797618Y-63478569D01*
X92797618Y-63478569D02*
X92988094Y-63478569D01*
X92988094Y-63478569D02*
X93083332Y-63430950D01*
X93083332Y-63430950D02*
X93130951Y-63383330D01*
X93130951Y-63383330D02*
X93178570Y-63288092D01*
X93178570Y-63288092D02*
X93178570Y-63002378D01*
X93178570Y-63002378D02*
X93130951Y-62907140D01*
X93130951Y-62907140D02*
X93083332Y-62859521D01*
X93083332Y-62859521D02*
X92988094Y-62811902D01*
X92988094Y-62811902D02*
X92797618Y-62811902D01*
X92797618Y-62811902D02*
X92702380Y-62859521D01*
X92273808Y-63478569D02*
X92273808Y-62478569D01*
X91845237Y-63478569D02*
X91845237Y-62954759D01*
X91845237Y-62954759D02*
X91892856Y-62859521D01*
X91892856Y-62859521D02*
X91988094Y-62811902D01*
X91988094Y-62811902D02*
X92130951Y-62811902D01*
X92130951Y-62811902D02*
X92226189Y-62859521D01*
X92226189Y-62859521D02*
X92273808Y-62907140D01*
X96011904Y-55175950D02*
X95869047Y-55223569D01*
X95869047Y-55223569D02*
X95630952Y-55223569D01*
X95630952Y-55223569D02*
X95535714Y-55175950D01*
X95535714Y-55175950D02*
X95488095Y-55128330D01*
X95488095Y-55128330D02*
X95440476Y-55033092D01*
X95440476Y-55033092D02*
X95440476Y-54937854D01*
X95440476Y-54937854D02*
X95488095Y-54842616D01*
X95488095Y-54842616D02*
X95535714Y-54794997D01*
X95535714Y-54794997D02*
X95630952Y-54747378D01*
X95630952Y-54747378D02*
X95821428Y-54699759D01*
X95821428Y-54699759D02*
X95916666Y-54652140D01*
X95916666Y-54652140D02*
X95964285Y-54604521D01*
X95964285Y-54604521D02*
X96011904Y-54509283D01*
X96011904Y-54509283D02*
X96011904Y-54414045D01*
X96011904Y-54414045D02*
X95964285Y-54318807D01*
X95964285Y-54318807D02*
X95916666Y-54271188D01*
X95916666Y-54271188D02*
X95821428Y-54223569D01*
X95821428Y-54223569D02*
X95583333Y-54223569D01*
X95583333Y-54223569D02*
X95440476Y-54271188D01*
X95107142Y-54223569D02*
X94488095Y-54223569D01*
X94488095Y-54223569D02*
X94821428Y-54604521D01*
X94821428Y-54604521D02*
X94678571Y-54604521D01*
X94678571Y-54604521D02*
X94583333Y-54652140D01*
X94583333Y-54652140D02*
X94535714Y-54699759D01*
X94535714Y-54699759D02*
X94488095Y-54794997D01*
X94488095Y-54794997D02*
X94488095Y-55033092D01*
X94488095Y-55033092D02*
X94535714Y-55128330D01*
X94535714Y-55128330D02*
X94583333Y-55175950D01*
X94583333Y-55175950D02*
X94678571Y-55223569D01*
X94678571Y-55223569D02*
X94964285Y-55223569D01*
X94964285Y-55223569D02*
X95059523Y-55175950D01*
X95059523Y-55175950D02*
X95107142Y-55128330D01*
X58388094Y-95657200D02*
X58245237Y-95704819D01*
X58245237Y-95704819D02*
X58007142Y-95704819D01*
X58007142Y-95704819D02*
X57911904Y-95657200D01*
X57911904Y-95657200D02*
X57864285Y-95609580D01*
X57864285Y-95609580D02*
X57816666Y-95514342D01*
X57816666Y-95514342D02*
X57816666Y-95419104D01*
X57816666Y-95419104D02*
X57864285Y-95323866D01*
X57864285Y-95323866D02*
X57911904Y-95276247D01*
X57911904Y-95276247D02*
X58007142Y-95228628D01*
X58007142Y-95228628D02*
X58197618Y-95181009D01*
X58197618Y-95181009D02*
X58292856Y-95133390D01*
X58292856Y-95133390D02*
X58340475Y-95085771D01*
X58340475Y-95085771D02*
X58388094Y-94990533D01*
X58388094Y-94990533D02*
X58388094Y-94895295D01*
X58388094Y-94895295D02*
X58340475Y-94800057D01*
X58340475Y-94800057D02*
X58292856Y-94752438D01*
X58292856Y-94752438D02*
X58197618Y-94704819D01*
X58197618Y-94704819D02*
X57959523Y-94704819D01*
X57959523Y-94704819D02*
X57816666Y-94752438D01*
X56864285Y-95704819D02*
X57435713Y-95704819D01*
X57149999Y-95704819D02*
X57149999Y-94704819D01*
X57149999Y-94704819D02*
X57245237Y-94847676D01*
X57245237Y-94847676D02*
X57340475Y-94942914D01*
X57340475Y-94942914D02*
X57435713Y-94990533D01*
X56530951Y-94704819D02*
X55911904Y-94704819D01*
X55911904Y-94704819D02*
X56245237Y-95085771D01*
X56245237Y-95085771D02*
X56102380Y-95085771D01*
X56102380Y-95085771D02*
X56007142Y-95133390D01*
X56007142Y-95133390D02*
X55959523Y-95181009D01*
X55959523Y-95181009D02*
X55911904Y-95276247D01*
X55911904Y-95276247D02*
X55911904Y-95514342D01*
X55911904Y-95514342D02*
X55959523Y-95609580D01*
X55959523Y-95609580D02*
X56007142Y-95657200D01*
X56007142Y-95657200D02*
X56102380Y-95704819D01*
X56102380Y-95704819D02*
X56388094Y-95704819D01*
X56388094Y-95704819D02*
X56483332Y-95657200D01*
X56483332Y-95657200D02*
X56530951Y-95609580D01*
X60554761Y-103959819D02*
X60554761Y-102959819D01*
X59983333Y-103959819D02*
X60411904Y-103388390D01*
X59983333Y-102959819D02*
X60554761Y-103531247D01*
X59173809Y-103912200D02*
X59269047Y-103959819D01*
X59269047Y-103959819D02*
X59459523Y-103959819D01*
X59459523Y-103959819D02*
X59554761Y-103912200D01*
X59554761Y-103912200D02*
X59602380Y-103816961D01*
X59602380Y-103816961D02*
X59602380Y-103436009D01*
X59602380Y-103436009D02*
X59554761Y-103340771D01*
X59554761Y-103340771D02*
X59459523Y-103293152D01*
X59459523Y-103293152D02*
X59269047Y-103293152D01*
X59269047Y-103293152D02*
X59173809Y-103340771D01*
X59173809Y-103340771D02*
X59126190Y-103436009D01*
X59126190Y-103436009D02*
X59126190Y-103531247D01*
X59126190Y-103531247D02*
X59602380Y-103626485D01*
X58792856Y-103293152D02*
X58554761Y-103959819D01*
X58316666Y-103293152D02*
X58554761Y-103959819D01*
X58554761Y-103959819D02*
X58649999Y-104197914D01*
X58649999Y-104197914D02*
X58697618Y-104245533D01*
X58697618Y-104245533D02*
X58792856Y-104293152D01*
X57983332Y-103912200D02*
X57888094Y-103959819D01*
X57888094Y-103959819D02*
X57697618Y-103959819D01*
X57697618Y-103959819D02*
X57602380Y-103912200D01*
X57602380Y-103912200D02*
X57554761Y-103816961D01*
X57554761Y-103816961D02*
X57554761Y-103769342D01*
X57554761Y-103769342D02*
X57602380Y-103674104D01*
X57602380Y-103674104D02*
X57697618Y-103626485D01*
X57697618Y-103626485D02*
X57840475Y-103626485D01*
X57840475Y-103626485D02*
X57935713Y-103578866D01*
X57935713Y-103578866D02*
X57983332Y-103483628D01*
X57983332Y-103483628D02*
X57983332Y-103436009D01*
X57983332Y-103436009D02*
X57935713Y-103340771D01*
X57935713Y-103340771D02*
X57840475Y-103293152D01*
X57840475Y-103293152D02*
X57697618Y-103293152D01*
X57697618Y-103293152D02*
X57602380Y-103340771D01*
X57221427Y-103293152D02*
X57030951Y-103959819D01*
X57030951Y-103959819D02*
X56840475Y-103483628D01*
X56840475Y-103483628D02*
X56649999Y-103959819D01*
X56649999Y-103959819D02*
X56459523Y-103293152D01*
X56078570Y-103959819D02*
X56078570Y-103293152D01*
X56078570Y-102959819D02*
X56126189Y-103007438D01*
X56126189Y-103007438D02*
X56078570Y-103055057D01*
X56078570Y-103055057D02*
X56030951Y-103007438D01*
X56030951Y-103007438D02*
X56078570Y-102959819D01*
X56078570Y-102959819D02*
X56078570Y-103055057D01*
X55745237Y-103293152D02*
X55364285Y-103293152D01*
X55602380Y-102959819D02*
X55602380Y-103816961D01*
X55602380Y-103816961D02*
X55554761Y-103912200D01*
X55554761Y-103912200D02*
X55459523Y-103959819D01*
X55459523Y-103959819D02*
X55364285Y-103959819D01*
X54602380Y-103912200D02*
X54697618Y-103959819D01*
X54697618Y-103959819D02*
X54888094Y-103959819D01*
X54888094Y-103959819D02*
X54983332Y-103912200D01*
X54983332Y-103912200D02*
X55030951Y-103864580D01*
X55030951Y-103864580D02*
X55078570Y-103769342D01*
X55078570Y-103769342D02*
X55078570Y-103483628D01*
X55078570Y-103483628D02*
X55030951Y-103388390D01*
X55030951Y-103388390D02*
X54983332Y-103340771D01*
X54983332Y-103340771D02*
X54888094Y-103293152D01*
X54888094Y-103293152D02*
X54697618Y-103293152D01*
X54697618Y-103293152D02*
X54602380Y-103340771D01*
X54173808Y-103959819D02*
X54173808Y-102959819D01*
X53745237Y-103959819D02*
X53745237Y-103436009D01*
X53745237Y-103436009D02*
X53792856Y-103340771D01*
X53792856Y-103340771D02*
X53888094Y-103293152D01*
X53888094Y-103293152D02*
X54030951Y-103293152D01*
X54030951Y-103293152D02*
X54126189Y-103340771D01*
X54126189Y-103340771D02*
X54173808Y-103388390D01*
X117704761Y-120628569D02*
X117704761Y-119628569D01*
X117133333Y-120628569D02*
X117561904Y-120057140D01*
X117133333Y-119628569D02*
X117704761Y-120199997D01*
X116323809Y-120580950D02*
X116419047Y-120628569D01*
X116419047Y-120628569D02*
X116609523Y-120628569D01*
X116609523Y-120628569D02*
X116704761Y-120580950D01*
X116704761Y-120580950D02*
X116752380Y-120485711D01*
X116752380Y-120485711D02*
X116752380Y-120104759D01*
X116752380Y-120104759D02*
X116704761Y-120009521D01*
X116704761Y-120009521D02*
X116609523Y-119961902D01*
X116609523Y-119961902D02*
X116419047Y-119961902D01*
X116419047Y-119961902D02*
X116323809Y-120009521D01*
X116323809Y-120009521D02*
X116276190Y-120104759D01*
X116276190Y-120104759D02*
X116276190Y-120199997D01*
X116276190Y-120199997D02*
X116752380Y-120295235D01*
X115942856Y-119961902D02*
X115704761Y-120628569D01*
X115466666Y-119961902D02*
X115704761Y-120628569D01*
X115704761Y-120628569D02*
X115799999Y-120866664D01*
X115799999Y-120866664D02*
X115847618Y-120914283D01*
X115847618Y-120914283D02*
X115942856Y-120961902D01*
X115133332Y-120580950D02*
X115038094Y-120628569D01*
X115038094Y-120628569D02*
X114847618Y-120628569D01*
X114847618Y-120628569D02*
X114752380Y-120580950D01*
X114752380Y-120580950D02*
X114704761Y-120485711D01*
X114704761Y-120485711D02*
X114704761Y-120438092D01*
X114704761Y-120438092D02*
X114752380Y-120342854D01*
X114752380Y-120342854D02*
X114847618Y-120295235D01*
X114847618Y-120295235D02*
X114990475Y-120295235D01*
X114990475Y-120295235D02*
X115085713Y-120247616D01*
X115085713Y-120247616D02*
X115133332Y-120152378D01*
X115133332Y-120152378D02*
X115133332Y-120104759D01*
X115133332Y-120104759D02*
X115085713Y-120009521D01*
X115085713Y-120009521D02*
X114990475Y-119961902D01*
X114990475Y-119961902D02*
X114847618Y-119961902D01*
X114847618Y-119961902D02*
X114752380Y-120009521D01*
X114371427Y-119961902D02*
X114180951Y-120628569D01*
X114180951Y-120628569D02*
X113990475Y-120152378D01*
X113990475Y-120152378D02*
X113799999Y-120628569D01*
X113799999Y-120628569D02*
X113609523Y-119961902D01*
X113228570Y-120628569D02*
X113228570Y-119961902D01*
X113228570Y-119628569D02*
X113276189Y-119676188D01*
X113276189Y-119676188D02*
X113228570Y-119723807D01*
X113228570Y-119723807D02*
X113180951Y-119676188D01*
X113180951Y-119676188D02*
X113228570Y-119628569D01*
X113228570Y-119628569D02*
X113228570Y-119723807D01*
X112895237Y-119961902D02*
X112514285Y-119961902D01*
X112752380Y-119628569D02*
X112752380Y-120485711D01*
X112752380Y-120485711D02*
X112704761Y-120580950D01*
X112704761Y-120580950D02*
X112609523Y-120628569D01*
X112609523Y-120628569D02*
X112514285Y-120628569D01*
X111752380Y-120580950D02*
X111847618Y-120628569D01*
X111847618Y-120628569D02*
X112038094Y-120628569D01*
X112038094Y-120628569D02*
X112133332Y-120580950D01*
X112133332Y-120580950D02*
X112180951Y-120533330D01*
X112180951Y-120533330D02*
X112228570Y-120438092D01*
X112228570Y-120438092D02*
X112228570Y-120152378D01*
X112228570Y-120152378D02*
X112180951Y-120057140D01*
X112180951Y-120057140D02*
X112133332Y-120009521D01*
X112133332Y-120009521D02*
X112038094Y-119961902D01*
X112038094Y-119961902D02*
X111847618Y-119961902D01*
X111847618Y-119961902D02*
X111752380Y-120009521D01*
X111323808Y-120628569D02*
X111323808Y-119628569D01*
X110895237Y-120628569D02*
X110895237Y-120104759D01*
X110895237Y-120104759D02*
X110942856Y-120009521D01*
X110942856Y-120009521D02*
X111038094Y-119961902D01*
X111038094Y-119961902D02*
X111180951Y-119961902D01*
X111180951Y-119961902D02*
X111276189Y-120009521D01*
X111276189Y-120009521D02*
X111323808Y-120057140D01*
X115538094Y-112325950D02*
X115395237Y-112373569D01*
X115395237Y-112373569D02*
X115157142Y-112373569D01*
X115157142Y-112373569D02*
X115061904Y-112325950D01*
X115061904Y-112325950D02*
X115014285Y-112278330D01*
X115014285Y-112278330D02*
X114966666Y-112183092D01*
X114966666Y-112183092D02*
X114966666Y-112087854D01*
X114966666Y-112087854D02*
X115014285Y-111992616D01*
X115014285Y-111992616D02*
X115061904Y-111944997D01*
X115061904Y-111944997D02*
X115157142Y-111897378D01*
X115157142Y-111897378D02*
X115347618Y-111849759D01*
X115347618Y-111849759D02*
X115442856Y-111802140D01*
X115442856Y-111802140D02*
X115490475Y-111754521D01*
X115490475Y-111754521D02*
X115538094Y-111659283D01*
X115538094Y-111659283D02*
X115538094Y-111564045D01*
X115538094Y-111564045D02*
X115490475Y-111468807D01*
X115490475Y-111468807D02*
X115442856Y-111421188D01*
X115442856Y-111421188D02*
X115347618Y-111373569D01*
X115347618Y-111373569D02*
X115109523Y-111373569D01*
X115109523Y-111373569D02*
X114966666Y-111421188D01*
X114014285Y-112373569D02*
X114585713Y-112373569D01*
X114299999Y-112373569D02*
X114299999Y-111373569D01*
X114299999Y-111373569D02*
X114395237Y-111516426D01*
X114395237Y-111516426D02*
X114490475Y-111611664D01*
X114490475Y-111611664D02*
X114585713Y-111659283D01*
X113538094Y-112373569D02*
X113347618Y-112373569D01*
X113347618Y-112373569D02*
X113252380Y-112325950D01*
X113252380Y-112325950D02*
X113204761Y-112278330D01*
X113204761Y-112278330D02*
X113109523Y-112135473D01*
X113109523Y-112135473D02*
X113061904Y-111944997D01*
X113061904Y-111944997D02*
X113061904Y-111564045D01*
X113061904Y-111564045D02*
X113109523Y-111468807D01*
X113109523Y-111468807D02*
X113157142Y-111421188D01*
X113157142Y-111421188D02*
X113252380Y-111373569D01*
X113252380Y-111373569D02*
X113442856Y-111373569D01*
X113442856Y-111373569D02*
X113538094Y-111421188D01*
X113538094Y-111421188D02*
X113585713Y-111468807D01*
X113585713Y-111468807D02*
X113633332Y-111564045D01*
X113633332Y-111564045D02*
X113633332Y-111802140D01*
X113633332Y-111802140D02*
X113585713Y-111897378D01*
X113585713Y-111897378D02*
X113538094Y-111944997D01*
X113538094Y-111944997D02*
X113442856Y-111992616D01*
X113442856Y-111992616D02*
X113252380Y-111992616D01*
X113252380Y-111992616D02*
X113157142Y-111944997D01*
X113157142Y-111944997D02*
X113109523Y-111897378D01*
X113109523Y-111897378D02*
X113061904Y-111802140D01*
X158031121Y-122415442D02*
X157883594Y-122385253D01*
X157883594Y-122385253D02*
X157677397Y-122266206D01*
X157677397Y-122266206D02*
X157618728Y-122177347D01*
X157618728Y-122177347D02*
X157601298Y-122112298D01*
X157601298Y-122112298D02*
X157607678Y-122006010D01*
X157607678Y-122006010D02*
X157655297Y-121923532D01*
X157655297Y-121923532D02*
X157744155Y-121864863D01*
X157744155Y-121864863D02*
X157809204Y-121847433D01*
X157809204Y-121847433D02*
X157915492Y-121853813D01*
X157915492Y-121853813D02*
X158104259Y-121907811D01*
X158104259Y-121907811D02*
X158210547Y-121914191D01*
X158210547Y-121914191D02*
X158275596Y-121896761D01*
X158275596Y-121896761D02*
X158364454Y-121838092D01*
X158364454Y-121838092D02*
X158412073Y-121755614D01*
X158412073Y-121755614D02*
X158418453Y-121649325D01*
X158418453Y-121649325D02*
X158401023Y-121584277D01*
X158401023Y-121584277D02*
X158342354Y-121495418D01*
X158342354Y-121495418D02*
X158136158Y-121376371D01*
X158136158Y-121376371D02*
X157988630Y-121346181D01*
X157634906Y-121196944D02*
X157617477Y-121131896D01*
X157617477Y-121131896D02*
X157558807Y-121043037D01*
X157558807Y-121043037D02*
X157352611Y-120923990D01*
X157352611Y-120923990D02*
X157246323Y-120917610D01*
X157246323Y-120917610D02*
X157181274Y-120935040D01*
X157181274Y-120935040D02*
X157092416Y-120993709D01*
X157092416Y-120993709D02*
X157044797Y-121076187D01*
X157044797Y-121076187D02*
X157014607Y-121223715D01*
X157014607Y-121223715D02*
X157223765Y-122004301D01*
X157223765Y-122004301D02*
X156687654Y-121694777D01*
X155862868Y-121218586D02*
X156357739Y-121504301D01*
X156110303Y-121361444D02*
X156610303Y-120495418D01*
X156610303Y-120495418D02*
X156621353Y-120666755D01*
X156621353Y-120666755D02*
X156656213Y-120796853D01*
X156656213Y-120796853D02*
X156714882Y-120885711D01*
X155756200Y-130689055D02*
X156256200Y-129823030D01*
X155261328Y-130403341D02*
X155918197Y-130122755D01*
X155761328Y-129537316D02*
X155970486Y-130317901D01*
X154584070Y-129957340D02*
X154642739Y-130046198D01*
X154642739Y-130046198D02*
X154807696Y-130141436D01*
X154807696Y-130141436D02*
X154913984Y-130147816D01*
X154913984Y-130147816D02*
X155002843Y-130089147D01*
X155002843Y-130089147D02*
X155193319Y-129759232D01*
X155193319Y-129759232D02*
X155199699Y-129652944D01*
X155199699Y-129652944D02*
X155141029Y-129564086D01*
X155141029Y-129564086D02*
X154976072Y-129468848D01*
X154976072Y-129468848D02*
X154869784Y-129462468D01*
X154869784Y-129462468D02*
X154780926Y-129521137D01*
X154780926Y-129521137D02*
X154733307Y-129603616D01*
X154733307Y-129603616D02*
X155098081Y-129924190D01*
X154563679Y-129230753D02*
X154024149Y-129689055D01*
X154151286Y-128992657D02*
X154024149Y-129689055D01*
X154024149Y-129689055D02*
X153987580Y-129942871D01*
X153987580Y-129942871D02*
X154005010Y-130007920D01*
X154005010Y-130007920D02*
X154063679Y-130096778D01*
X153553087Y-129362101D02*
X153446799Y-129355722D01*
X153446799Y-129355722D02*
X153281842Y-129260484D01*
X153281842Y-129260484D02*
X153223172Y-129171625D01*
X153223172Y-129171625D02*
X153229552Y-129065337D01*
X153229552Y-129065337D02*
X153253362Y-129024098D01*
X153253362Y-129024098D02*
X153342220Y-128965429D01*
X153342220Y-128965429D02*
X153448508Y-128971808D01*
X153448508Y-128971808D02*
X153572226Y-129043237D01*
X153572226Y-129043237D02*
X153678514Y-129049617D01*
X153678514Y-129049617D02*
X153767373Y-128990948D01*
X153767373Y-128990948D02*
X153791182Y-128949708D01*
X153791182Y-128949708D02*
X153797562Y-128843420D01*
X153797562Y-128843420D02*
X153738893Y-128754562D01*
X153738893Y-128754562D02*
X153615175Y-128683133D01*
X153615175Y-128683133D02*
X153508887Y-128676754D01*
X153202782Y-128445038D02*
X152704491Y-128927150D01*
X152704491Y-128927150D02*
X152777629Y-128419519D01*
X152777629Y-128419519D02*
X152374577Y-128736674D01*
X152374577Y-128736674D02*
X152542953Y-128064086D01*
X151879705Y-128450960D02*
X152213038Y-127873609D01*
X152379705Y-127584934D02*
X152397135Y-127649983D01*
X152397135Y-127649983D02*
X152332086Y-127667413D01*
X152332086Y-127667413D02*
X152314656Y-127602364D01*
X152314656Y-127602364D02*
X152379705Y-127584934D01*
X152379705Y-127584934D02*
X152332086Y-127667413D01*
X151924364Y-127706943D02*
X151594449Y-127516467D01*
X151967312Y-127346839D02*
X151538741Y-128089147D01*
X151538741Y-128089147D02*
X151449883Y-128147816D01*
X151449883Y-128147816D02*
X151343594Y-128141436D01*
X151343594Y-128141436D02*
X151261116Y-128093817D01*
X150625096Y-127671625D02*
X150683765Y-127760484D01*
X150683765Y-127760484D02*
X150848722Y-127855722D01*
X150848722Y-127855722D02*
X150955011Y-127862101D01*
X150955011Y-127862101D02*
X151020059Y-127844672D01*
X151020059Y-127844672D02*
X151108918Y-127786003D01*
X151108918Y-127786003D02*
X151251775Y-127538567D01*
X151251775Y-127538567D02*
X151258155Y-127432279D01*
X151258155Y-127432279D02*
X151240725Y-127367230D01*
X151240725Y-127367230D02*
X151182056Y-127278371D01*
X151182056Y-127278371D02*
X151017099Y-127183133D01*
X151017099Y-127183133D02*
X150910810Y-127176754D01*
X150230133Y-127498579D02*
X150730133Y-126632553D01*
X149858979Y-127284293D02*
X150120884Y-126830661D01*
X150120884Y-126830661D02*
X150209742Y-126771992D01*
X150209742Y-126771992D02*
X150316030Y-126778371D01*
X150316030Y-126778371D02*
X150439748Y-126849800D01*
X150439748Y-126849800D02*
X150498417Y-126938658D01*
X150498417Y-126938658D02*
X150515847Y-127003707D01*
X136765730Y-123594256D02*
X137024549Y-122628330D01*
X136213772Y-123446360D02*
X136775637Y-123005324D01*
X136472591Y-122480434D02*
X136876652Y-123180288D01*
X135444157Y-123190843D02*
X135523825Y-123261489D01*
X135523825Y-123261489D02*
X135707811Y-123310788D01*
X135707811Y-123310788D02*
X135812129Y-123289441D01*
X135812129Y-123289441D02*
X135882775Y-123209772D01*
X135882775Y-123209772D02*
X135981373Y-122841801D01*
X135981373Y-122841801D02*
X135960025Y-122737483D01*
X135960025Y-122737483D02*
X135880357Y-122666837D01*
X135880357Y-122666837D02*
X135696371Y-122617538D01*
X135696371Y-122617538D02*
X135592054Y-122638885D01*
X135592054Y-122638885D02*
X135521408Y-122718554D01*
X135521408Y-122718554D02*
X135496758Y-122810546D01*
X135496758Y-122810546D02*
X135932074Y-123025787D01*
X135236407Y-122494291D02*
X134833878Y-123076618D01*
X134776442Y-122371044D02*
X134833878Y-123076618D01*
X134833878Y-123076618D02*
X134864248Y-123331250D01*
X134864248Y-123331250D02*
X134897919Y-123389571D01*
X134897919Y-123389571D02*
X134977588Y-123460217D01*
X134294245Y-122882725D02*
X134189927Y-122904072D01*
X134189927Y-122904072D02*
X134005942Y-122854773D01*
X134005942Y-122854773D02*
X133926273Y-122784127D01*
X133926273Y-122784127D02*
X133904926Y-122679810D01*
X133904926Y-122679810D02*
X133917251Y-122633813D01*
X133917251Y-122633813D02*
X133987897Y-122554145D01*
X133987897Y-122554145D02*
X134092215Y-122532798D01*
X134092215Y-122532798D02*
X134230204Y-122569772D01*
X134230204Y-122569772D02*
X134334522Y-122548425D01*
X134334522Y-122548425D02*
X134405168Y-122468757D01*
X134405168Y-122468757D02*
X134417492Y-122422760D01*
X134417492Y-122422760D02*
X134396145Y-122318443D01*
X134396145Y-122318443D02*
X134316477Y-122247797D01*
X134316477Y-122247797D02*
X134178488Y-122210823D01*
X134178488Y-122210823D02*
X134074170Y-122232170D01*
X133718523Y-122087575D02*
X133361991Y-122682227D01*
X133361991Y-122682227D02*
X133301252Y-122172963D01*
X133301252Y-122172963D02*
X132994019Y-122583629D01*
X132994019Y-122583629D02*
X132982579Y-121890380D01*
X132442061Y-122435733D02*
X132614608Y-121791782D01*
X132700881Y-121469807D02*
X132734552Y-121528128D01*
X132734552Y-121528128D02*
X132676231Y-121561800D01*
X132676231Y-121561800D02*
X132642559Y-121503479D01*
X132642559Y-121503479D02*
X132700881Y-121469807D01*
X132700881Y-121469807D02*
X132676231Y-121561800D01*
X132292633Y-121705509D02*
X131924661Y-121606911D01*
X132240916Y-121346560D02*
X132019071Y-122174496D01*
X132019071Y-122174496D02*
X131948426Y-122254164D01*
X131948426Y-122254164D02*
X131844108Y-122275511D01*
X131844108Y-122275511D02*
X131752115Y-122250862D01*
X131028496Y-122007670D02*
X131108164Y-122078316D01*
X131108164Y-122078316D02*
X131292150Y-122127615D01*
X131292150Y-122127615D02*
X131396467Y-122106268D01*
X131396467Y-122106268D02*
X131454789Y-122072596D01*
X131454789Y-122072596D02*
X131525435Y-121992928D01*
X131525435Y-121992928D02*
X131599383Y-121716949D01*
X131599383Y-121716949D02*
X131578036Y-121612631D01*
X131578036Y-121612631D02*
X131544364Y-121554310D01*
X131544364Y-121554310D02*
X131464696Y-121483664D01*
X131464696Y-121483664D02*
X131280710Y-121434365D01*
X131280710Y-121434365D02*
X131176392Y-121455712D01*
X130602203Y-121942744D02*
X130861022Y-120976818D01*
X130188234Y-121831822D02*
X130323806Y-121325860D01*
X130323806Y-121325860D02*
X130394452Y-121246192D01*
X130394452Y-121246192D02*
X130498770Y-121224845D01*
X130498770Y-121224845D02*
X130636759Y-121261819D01*
X130636759Y-121261819D02*
X130716428Y-121332465D01*
X130716428Y-121332465D02*
X130750099Y-121390786D01*
X136821766Y-115013767D02*
X136671452Y-115022789D01*
X136671452Y-115022789D02*
X136441470Y-114961166D01*
X136441470Y-114961166D02*
X136361801Y-114890520D01*
X136361801Y-114890520D02*
X136328130Y-114832199D01*
X136328130Y-114832199D02*
X136306783Y-114727881D01*
X136306783Y-114727881D02*
X136331432Y-114635888D01*
X136331432Y-114635888D02*
X136402078Y-114556220D01*
X136402078Y-114556220D02*
X136460399Y-114522548D01*
X136460399Y-114522548D02*
X136564717Y-114501201D01*
X136564717Y-114501201D02*
X136761027Y-114504503D01*
X136761027Y-114504503D02*
X136865345Y-114483156D01*
X136865345Y-114483156D02*
X136923666Y-114449485D01*
X136923666Y-114449485D02*
X136994312Y-114369816D01*
X136994312Y-114369816D02*
X137018962Y-114277824D01*
X137018962Y-114277824D02*
X136997615Y-114173506D01*
X136997615Y-114173506D02*
X136963943Y-114115185D01*
X136963943Y-114115185D02*
X136884275Y-114044539D01*
X136884275Y-114044539D02*
X136654292Y-113982915D01*
X136654292Y-113982915D02*
X136503978Y-113991938D01*
X136123682Y-113939336D02*
X136090010Y-113881015D01*
X136090010Y-113881015D02*
X136010342Y-113810369D01*
X136010342Y-113810369D02*
X135780359Y-113748746D01*
X135780359Y-113748746D02*
X135676042Y-113770093D01*
X135676042Y-113770093D02*
X135617720Y-113803764D01*
X135617720Y-113803764D02*
X135547075Y-113883433D01*
X135547075Y-113883433D02*
X135522425Y-113975426D01*
X135522425Y-113975426D02*
X135531447Y-114125740D01*
X135531447Y-114125740D02*
X135935508Y-114825594D01*
X135935508Y-114825594D02*
X135337554Y-114665373D01*
X134998419Y-113539225D02*
X134906426Y-113514576D01*
X134906426Y-113514576D02*
X134802109Y-113535923D01*
X134802109Y-113535923D02*
X134743788Y-113569595D01*
X134743788Y-113569595D02*
X134673142Y-113649263D01*
X134673142Y-113649263D02*
X134577846Y-113820924D01*
X134577846Y-113820924D02*
X134516223Y-114050906D01*
X134516223Y-114050906D02*
X134512920Y-114247217D01*
X134512920Y-114247217D02*
X134534267Y-114351535D01*
X134534267Y-114351535D02*
X134567939Y-114409856D01*
X134567939Y-114409856D02*
X134647607Y-114480502D01*
X134647607Y-114480502D02*
X134739600Y-114505151D01*
X134739600Y-114505151D02*
X134843918Y-114483804D01*
X134843918Y-114483804D02*
X134902239Y-114450132D01*
X134902239Y-114450132D02*
X134972885Y-114370464D01*
X134972885Y-114370464D02*
X135068180Y-114198803D01*
X135068180Y-114198803D02*
X135129804Y-113968821D01*
X135129804Y-113968821D02*
X135133106Y-113772510D01*
X135133106Y-113772510D02*
X135111759Y-113668192D01*
X135111759Y-113668192D02*
X135078088Y-113609871D01*
X135078088Y-113609871D02*
X134998419Y-113539225D01*
X96011904Y-74225950D02*
X95869047Y-74273569D01*
X95869047Y-74273569D02*
X95630952Y-74273569D01*
X95630952Y-74273569D02*
X95535714Y-74225950D01*
X95535714Y-74225950D02*
X95488095Y-74178330D01*
X95488095Y-74178330D02*
X95440476Y-74083092D01*
X95440476Y-74083092D02*
X95440476Y-73987854D01*
X95440476Y-73987854D02*
X95488095Y-73892616D01*
X95488095Y-73892616D02*
X95535714Y-73844997D01*
X95535714Y-73844997D02*
X95630952Y-73797378D01*
X95630952Y-73797378D02*
X95821428Y-73749759D01*
X95821428Y-73749759D02*
X95916666Y-73702140D01*
X95916666Y-73702140D02*
X95964285Y-73654521D01*
X95964285Y-73654521D02*
X96011904Y-73559283D01*
X96011904Y-73559283D02*
X96011904Y-73464045D01*
X96011904Y-73464045D02*
X95964285Y-73368807D01*
X95964285Y-73368807D02*
X95916666Y-73321188D01*
X95916666Y-73321188D02*
X95821428Y-73273569D01*
X95821428Y-73273569D02*
X95583333Y-73273569D01*
X95583333Y-73273569D02*
X95440476Y-73321188D01*
X94964285Y-74273569D02*
X94773809Y-74273569D01*
X94773809Y-74273569D02*
X94678571Y-74225950D01*
X94678571Y-74225950D02*
X94630952Y-74178330D01*
X94630952Y-74178330D02*
X94535714Y-74035473D01*
X94535714Y-74035473D02*
X94488095Y-73844997D01*
X94488095Y-73844997D02*
X94488095Y-73464045D01*
X94488095Y-73464045D02*
X94535714Y-73368807D01*
X94535714Y-73368807D02*
X94583333Y-73321188D01*
X94583333Y-73321188D02*
X94678571Y-73273569D01*
X94678571Y-73273569D02*
X94869047Y-73273569D01*
X94869047Y-73273569D02*
X94964285Y-73321188D01*
X94964285Y-73321188D02*
X95011904Y-73368807D01*
X95011904Y-73368807D02*
X95059523Y-73464045D01*
X95059523Y-73464045D02*
X95059523Y-73702140D01*
X95059523Y-73702140D02*
X95011904Y-73797378D01*
X95011904Y-73797378D02*
X94964285Y-73844997D01*
X94964285Y-73844997D02*
X94869047Y-73892616D01*
X94869047Y-73892616D02*
X94678571Y-73892616D01*
X94678571Y-73892616D02*
X94583333Y-73844997D01*
X94583333Y-73844997D02*
X94535714Y-73797378D01*
X94535714Y-73797378D02*
X94488095Y-73702140D01*
X98654761Y-82528569D02*
X98654761Y-81528569D01*
X98083333Y-82528569D02*
X98511904Y-81957140D01*
X98083333Y-81528569D02*
X98654761Y-82099997D01*
X97273809Y-82480950D02*
X97369047Y-82528569D01*
X97369047Y-82528569D02*
X97559523Y-82528569D01*
X97559523Y-82528569D02*
X97654761Y-82480950D01*
X97654761Y-82480950D02*
X97702380Y-82385711D01*
X97702380Y-82385711D02*
X97702380Y-82004759D01*
X97702380Y-82004759D02*
X97654761Y-81909521D01*
X97654761Y-81909521D02*
X97559523Y-81861902D01*
X97559523Y-81861902D02*
X97369047Y-81861902D01*
X97369047Y-81861902D02*
X97273809Y-81909521D01*
X97273809Y-81909521D02*
X97226190Y-82004759D01*
X97226190Y-82004759D02*
X97226190Y-82099997D01*
X97226190Y-82099997D02*
X97702380Y-82195235D01*
X96892856Y-81861902D02*
X96654761Y-82528569D01*
X96416666Y-81861902D02*
X96654761Y-82528569D01*
X96654761Y-82528569D02*
X96749999Y-82766664D01*
X96749999Y-82766664D02*
X96797618Y-82814283D01*
X96797618Y-82814283D02*
X96892856Y-82861902D01*
X96083332Y-82480950D02*
X95988094Y-82528569D01*
X95988094Y-82528569D02*
X95797618Y-82528569D01*
X95797618Y-82528569D02*
X95702380Y-82480950D01*
X95702380Y-82480950D02*
X95654761Y-82385711D01*
X95654761Y-82385711D02*
X95654761Y-82338092D01*
X95654761Y-82338092D02*
X95702380Y-82242854D01*
X95702380Y-82242854D02*
X95797618Y-82195235D01*
X95797618Y-82195235D02*
X95940475Y-82195235D01*
X95940475Y-82195235D02*
X96035713Y-82147616D01*
X96035713Y-82147616D02*
X96083332Y-82052378D01*
X96083332Y-82052378D02*
X96083332Y-82004759D01*
X96083332Y-82004759D02*
X96035713Y-81909521D01*
X96035713Y-81909521D02*
X95940475Y-81861902D01*
X95940475Y-81861902D02*
X95797618Y-81861902D01*
X95797618Y-81861902D02*
X95702380Y-81909521D01*
X95321427Y-81861902D02*
X95130951Y-82528569D01*
X95130951Y-82528569D02*
X94940475Y-82052378D01*
X94940475Y-82052378D02*
X94749999Y-82528569D01*
X94749999Y-82528569D02*
X94559523Y-81861902D01*
X94178570Y-82528569D02*
X94178570Y-81861902D01*
X94178570Y-81528569D02*
X94226189Y-81576188D01*
X94226189Y-81576188D02*
X94178570Y-81623807D01*
X94178570Y-81623807D02*
X94130951Y-81576188D01*
X94130951Y-81576188D02*
X94178570Y-81528569D01*
X94178570Y-81528569D02*
X94178570Y-81623807D01*
X93845237Y-81861902D02*
X93464285Y-81861902D01*
X93702380Y-81528569D02*
X93702380Y-82385711D01*
X93702380Y-82385711D02*
X93654761Y-82480950D01*
X93654761Y-82480950D02*
X93559523Y-82528569D01*
X93559523Y-82528569D02*
X93464285Y-82528569D01*
X92702380Y-82480950D02*
X92797618Y-82528569D01*
X92797618Y-82528569D02*
X92988094Y-82528569D01*
X92988094Y-82528569D02*
X93083332Y-82480950D01*
X93083332Y-82480950D02*
X93130951Y-82433330D01*
X93130951Y-82433330D02*
X93178570Y-82338092D01*
X93178570Y-82338092D02*
X93178570Y-82052378D01*
X93178570Y-82052378D02*
X93130951Y-81957140D01*
X93130951Y-81957140D02*
X93083332Y-81909521D01*
X93083332Y-81909521D02*
X92988094Y-81861902D01*
X92988094Y-81861902D02*
X92797618Y-81861902D01*
X92797618Y-81861902D02*
X92702380Y-81909521D01*
X92273808Y-82528569D02*
X92273808Y-81528569D01*
X91845237Y-82528569D02*
X91845237Y-82004759D01*
X91845237Y-82004759D02*
X91892856Y-81909521D01*
X91892856Y-81909521D02*
X91988094Y-81861902D01*
X91988094Y-81861902D02*
X92130951Y-81861902D01*
X92130951Y-81861902D02*
X92226189Y-81909521D01*
X92226189Y-81909521D02*
X92273808Y-81957140D01*
X160585983Y-87461929D02*
X160585983Y-87938119D01*
X160871698Y-87366691D02*
X159871698Y-87700024D01*
X159871698Y-87700024D02*
X160871698Y-88033357D01*
X160205031Y-88795262D02*
X160871698Y-88795262D01*
X160205031Y-88366691D02*
X160728840Y-88366691D01*
X160728840Y-88366691D02*
X160824079Y-88414310D01*
X160824079Y-88414310D02*
X160871698Y-88509548D01*
X160871698Y-88509548D02*
X160871698Y-88652405D01*
X160871698Y-88652405D02*
X160824079Y-88747643D01*
X160824079Y-88747643D02*
X160776459Y-88795262D01*
X160871698Y-89700024D02*
X159871698Y-89700024D01*
X160824079Y-89700024D02*
X160871698Y-89604786D01*
X160871698Y-89604786D02*
X160871698Y-89414310D01*
X160871698Y-89414310D02*
X160824079Y-89319072D01*
X160824079Y-89319072D02*
X160776459Y-89271453D01*
X160776459Y-89271453D02*
X160681221Y-89223834D01*
X160681221Y-89223834D02*
X160395507Y-89223834D01*
X160395507Y-89223834D02*
X160300269Y-89271453D01*
X160300269Y-89271453D02*
X160252650Y-89319072D01*
X160252650Y-89319072D02*
X160205031Y-89414310D01*
X160205031Y-89414310D02*
X160205031Y-89604786D01*
X160205031Y-89604786D02*
X160252650Y-89700024D01*
X160871698Y-90176215D02*
X160205031Y-90176215D01*
X159871698Y-90176215D02*
X159919317Y-90128596D01*
X159919317Y-90128596D02*
X159966936Y-90176215D01*
X159966936Y-90176215D02*
X159919317Y-90223834D01*
X159919317Y-90223834D02*
X159871698Y-90176215D01*
X159871698Y-90176215D02*
X159966936Y-90176215D01*
X160871698Y-90795262D02*
X160824079Y-90700024D01*
X160824079Y-90700024D02*
X160776459Y-90652405D01*
X160776459Y-90652405D02*
X160681221Y-90604786D01*
X160681221Y-90604786D02*
X160395507Y-90604786D01*
X160395507Y-90604786D02*
X160300269Y-90652405D01*
X160300269Y-90652405D02*
X160252650Y-90700024D01*
X160252650Y-90700024D02*
X160205031Y-90795262D01*
X160205031Y-90795262D02*
X160205031Y-90938119D01*
X160205031Y-90938119D02*
X160252650Y-91033357D01*
X160252650Y-91033357D02*
X160300269Y-91080976D01*
X160300269Y-91080976D02*
X160395507Y-91128595D01*
X160395507Y-91128595D02*
X160681221Y-91128595D01*
X160681221Y-91128595D02*
X160776459Y-91080976D01*
X160776459Y-91080976D02*
X160824079Y-91033357D01*
X160824079Y-91033357D02*
X160871698Y-90938119D01*
X160871698Y-90938119D02*
X160871698Y-90795262D01*
X159871698Y-91842881D02*
X160585983Y-91842881D01*
X160585983Y-91842881D02*
X160728840Y-91795262D01*
X160728840Y-91795262D02*
X160824079Y-91700024D01*
X160824079Y-91700024D02*
X160871698Y-91557167D01*
X160871698Y-91557167D02*
X160871698Y-91461929D01*
X160871698Y-92747643D02*
X160347888Y-92747643D01*
X160347888Y-92747643D02*
X160252650Y-92700024D01*
X160252650Y-92700024D02*
X160205031Y-92604786D01*
X160205031Y-92604786D02*
X160205031Y-92414310D01*
X160205031Y-92414310D02*
X160252650Y-92319072D01*
X160824079Y-92747643D02*
X160871698Y-92652405D01*
X160871698Y-92652405D02*
X160871698Y-92414310D01*
X160871698Y-92414310D02*
X160824079Y-92319072D01*
X160824079Y-92319072D02*
X160728840Y-92271453D01*
X160728840Y-92271453D02*
X160633602Y-92271453D01*
X160633602Y-92271453D02*
X160538364Y-92319072D01*
X160538364Y-92319072D02*
X160490745Y-92414310D01*
X160490745Y-92414310D02*
X160490745Y-92652405D01*
X160490745Y-92652405D02*
X160443126Y-92747643D01*
X160824079Y-93652405D02*
X160871698Y-93557167D01*
X160871698Y-93557167D02*
X160871698Y-93366691D01*
X160871698Y-93366691D02*
X160824079Y-93271453D01*
X160824079Y-93271453D02*
X160776459Y-93223834D01*
X160776459Y-93223834D02*
X160681221Y-93176215D01*
X160681221Y-93176215D02*
X160395507Y-93176215D01*
X160395507Y-93176215D02*
X160300269Y-93223834D01*
X160300269Y-93223834D02*
X160252650Y-93271453D01*
X160252650Y-93271453D02*
X160205031Y-93366691D01*
X160205031Y-93366691D02*
X160205031Y-93557167D01*
X160205031Y-93557167D02*
X160252650Y-93652405D01*
X160871698Y-94080977D02*
X159871698Y-94080977D01*
X160490745Y-94176215D02*
X160871698Y-94461929D01*
X160205031Y-94461929D02*
X160585983Y-94080977D01*
X160205031Y-95319072D02*
X160871698Y-95319072D01*
X159824079Y-95080977D02*
X160538364Y-94842882D01*
X160538364Y-94842882D02*
X160538364Y-95461929D01*
X178921697Y-91104788D02*
X179635982Y-91104788D01*
X179635982Y-91104788D02*
X179778839Y-91057169D01*
X179778839Y-91057169D02*
X179874078Y-90961931D01*
X179874078Y-90961931D02*
X179921697Y-90819074D01*
X179921697Y-90819074D02*
X179921697Y-90723836D01*
X179016935Y-91533360D02*
X178969316Y-91580979D01*
X178969316Y-91580979D02*
X178921697Y-91676217D01*
X178921697Y-91676217D02*
X178921697Y-91914312D01*
X178921697Y-91914312D02*
X178969316Y-92009550D01*
X178969316Y-92009550D02*
X179016935Y-92057169D01*
X179016935Y-92057169D02*
X179112173Y-92104788D01*
X179112173Y-92104788D02*
X179207411Y-92104788D01*
X179207411Y-92104788D02*
X179350268Y-92057169D01*
X179350268Y-92057169D02*
X179921697Y-91485741D01*
X179921697Y-91485741D02*
X179921697Y-92104788D01*
G04 #@! TO.C,S5*
X125850000Y-47268750D02*
X140850000Y-47268750D01*
X125850000Y-62268750D02*
X125850000Y-47268750D01*
X140850000Y-47268750D02*
X140850000Y-62268750D01*
X140850000Y-62268750D02*
X125850000Y-62268750D01*
G04 #@! TO.C,S11*
X125850000Y-66318750D02*
X140850000Y-66318750D01*
X125850000Y-81318750D02*
X125850000Y-66318750D01*
X140850000Y-66318750D02*
X140850000Y-81318750D01*
X140850000Y-81318750D02*
X125850000Y-81318750D01*
G04 #@! TO.C,S7*
X49650000Y-68700000D02*
X64650000Y-68700000D01*
X49650000Y-83700000D02*
X49650000Y-68700000D01*
X64650000Y-68700000D02*
X64650000Y-83700000D01*
X64650000Y-83700000D02*
X49650000Y-83700000D01*
G04 #@! TO.C,S15*
X87750000Y-85368750D02*
X102750000Y-85368750D01*
X87750000Y-100368750D02*
X87750000Y-85368750D01*
X102750000Y-85368750D02*
X102750000Y-100368750D01*
X102750000Y-100368750D02*
X87750000Y-100368750D01*
G04 #@! TO.C,S4*
X106800000Y-44887500D02*
X121800000Y-44887500D01*
X106800000Y-59887500D02*
X106800000Y-44887500D01*
X121800000Y-44887500D02*
X121800000Y-59887500D01*
X121800000Y-59887500D02*
X106800000Y-59887500D01*
G04 #@! TO.C,S18*
X144900000Y-87750000D02*
X159900000Y-87750000D01*
X144900000Y-102750000D02*
X144900000Y-87750000D01*
X159900000Y-87750000D02*
X159900000Y-102750000D01*
X159900000Y-102750000D02*
X144900000Y-102750000D01*
G04 #@! TO.C,S6*
X144900000Y-49650000D02*
X159900000Y-49650000D01*
X144900000Y-64650000D02*
X144900000Y-49650000D01*
X159900000Y-49650000D02*
X159900000Y-64650000D01*
X159900000Y-64650000D02*
X144900000Y-64650000D01*
G04 #@! TO.C,S17*
X125850000Y-85368750D02*
X140850000Y-85368750D01*
X125850000Y-100368750D02*
X125850000Y-85368750D01*
X140850000Y-85368750D02*
X140850000Y-100368750D01*
X140850000Y-100368750D02*
X125850000Y-100368750D01*
G04 #@! TO.C,S14*
X68700000Y-87750000D02*
X83700000Y-87750000D01*
X68700000Y-102750000D02*
X68700000Y-87750000D01*
X83700000Y-87750000D02*
X83700000Y-102750000D01*
X83700000Y-102750000D02*
X68700000Y-102750000D01*
G04 #@! TO.C,S8*
X68700000Y-68700000D02*
X83700000Y-68700000D01*
X68700000Y-83700000D02*
X68700000Y-68700000D01*
X83700000Y-68700000D02*
X83700000Y-83700000D01*
X83700000Y-83700000D02*
X68700000Y-83700000D01*
G04 #@! TO.C,S2*
X68700000Y-49650000D02*
X83700000Y-49650000D01*
X68700000Y-64650000D02*
X68700000Y-49650000D01*
X83700000Y-49650000D02*
X83700000Y-64650000D01*
X83700000Y-64650000D02*
X68700000Y-64650000D01*
G04 #@! TO.C,S16*
X106800000Y-82987500D02*
X121800000Y-82987500D01*
X106800000Y-97987500D02*
X106800000Y-82987500D01*
X121800000Y-82987500D02*
X121800000Y-97987500D01*
X121800000Y-97987500D02*
X106800000Y-97987500D01*
G04 #@! TO.C,S10*
X106800000Y-63937500D02*
X121800000Y-63937500D01*
X106800000Y-78937500D02*
X106800000Y-63937500D01*
X121800000Y-63937500D02*
X121800000Y-78937500D01*
X121800000Y-78937500D02*
X106800000Y-78937500D01*
G04 #@! TO.C,S12*
X144900000Y-68700000D02*
X159900000Y-68700000D01*
X144900000Y-83700000D02*
X144900000Y-68700000D01*
X159900000Y-68700000D02*
X159900000Y-83700000D01*
X159900000Y-83700000D02*
X144900000Y-83700000D01*
G04 #@! TO.C,S1*
X49650000Y-49650000D02*
X64650000Y-49650000D01*
X49650000Y-64650000D02*
X49650000Y-49650000D01*
X64650000Y-49650000D02*
X64650000Y-64650000D01*
X64650000Y-64650000D02*
X49650000Y-64650000D01*
G04 #@! TO.C,S3*
X87750000Y-47268750D02*
X102750000Y-47268750D01*
X87750000Y-62268750D02*
X87750000Y-47268750D01*
X102750000Y-47268750D02*
X102750000Y-62268750D01*
X102750000Y-62268750D02*
X87750000Y-62268750D01*
G04 #@! TO.C,S13*
X49650000Y-87750000D02*
X64650000Y-87750000D01*
X49650000Y-102750000D02*
X49650000Y-87750000D01*
X64650000Y-87750000D02*
X64650000Y-102750000D01*
X64650000Y-102750000D02*
X49650000Y-102750000D01*
G04 #@! TO.C,S19*
X106800000Y-104418750D02*
X121800000Y-104418750D01*
X106800000Y-119418750D02*
X106800000Y-104418750D01*
X121800000Y-104418750D02*
X121800000Y-119418750D01*
X121800000Y-119418750D02*
X106800000Y-119418750D01*
G04 #@! TO.C,S21*
X146917309Y-124188941D02*
X154417309Y-111198559D01*
X154417309Y-111198559D02*
X167407691Y-118698559D01*
X159907691Y-131688941D02*
X146917309Y-124188941D01*
X167407691Y-118698559D02*
X159907691Y-131688941D01*
G04 #@! TO.C,S20*
X126545663Y-119603301D02*
X130427949Y-105114413D01*
X130427949Y-105114413D02*
X144916837Y-108996699D01*
X141034551Y-123485587D02*
X126545663Y-119603301D01*
X144916837Y-108996699D02*
X141034551Y-123485587D01*
G04 #@! TO.C,S9*
X87750000Y-66318750D02*
X102750000Y-66318750D01*
X87750000Y-81318750D02*
X87750000Y-66318750D01*
X102750000Y-66318750D02*
X102750000Y-81318750D01*
X102750000Y-81318750D02*
X87750000Y-81318750D01*
D11*
G04 #@! TO.C,J2*
X163496878Y-87678122D02*
X174696878Y-87678122D01*
X163496878Y-88678122D02*
X163496878Y-87678122D01*
X163496878Y-94778122D02*
X163496878Y-90278122D01*
X174696878Y-87678122D02*
X174696878Y-88878122D01*
X174696878Y-88878122D02*
X177496878Y-88878122D01*
X174696878Y-94478122D02*
X174696878Y-94778122D01*
X174696878Y-94778122D02*
X163496878Y-94778122D01*
X177496878Y-88878122D02*
X177496878Y-94478122D01*
X177496878Y-94478122D02*
X174696878Y-94478122D01*
D12*
X165832288Y-93078122D02*
G75*
G02*
X165161468Y-93078122I-335410J0D01*
G01*
X165161468Y-93078122D02*
G75*
G02*
X165832288Y-93078122I335410J0D01*
G01*
G04 #@! TD*
M02*
