G04 #@! TF.GenerationSoftware,KiCad,Pcbnew,8.0.4*
G04 #@! TF.CreationDate,2024-09-10T22:18:46+03:00*
G04 #@! TF.ProjectId,muikku42,6d75696b-6b75-4343-922e-6b696361645f,rev?*
G04 #@! TF.SameCoordinates,Original*
G04 #@! TF.FileFunction,Legend,Top*
G04 #@! TF.FilePolarity,Positive*
%FSLAX46Y46*%
G04 Gerber Fmt 4.6, Leading zero omitted, Abs format (unit mm)*
G04 Created by KiCad (PCBNEW 8.0.4) date 2024-09-10 22:18:46*
%MOMM*%
%LPD*%
G01*
G04 APERTURE LIST*
G04 Aperture macros list*
%AMHorizOval*
0 Thick line with rounded ends*
0 $1 width*
0 $2 $3 position (X,Y) of the first rounded end (center of the circle)*
0 $4 $5 position (X,Y) of the second rounded end (center of the circle)*
0 Add line between two ends*
20,1,$1,$2,$3,$4,$5,0*
0 Add two circle primitives to create the rounded ends*
1,1,$1,$2,$3*
1,1,$1,$4,$5*%
%AMRotRect*
0 Rectangle, with rotation*
0 The origin of the aperture is its center*
0 $1 length*
0 $2 width*
0 $3 Rotation angle, in degrees counterclockwise*
0 Add horizontal line*
21,1,$1,$2,0,0,$3*%
G04 Aperture macros list end*
%ADD10C,0.150000*%
%ADD11C,0.100000*%
%ADD12C,0.120000*%
%ADD13R,1.600000X1.600000*%
%ADD14O,1.600000X1.600000*%
%ADD15RotRect,1.600000X1.600000X150.000000*%
%ADD16HorizOval,1.600000X0.000000X0.000000X0.000000X0.000000X0*%
%ADD17C,1.701800*%
%ADD18C,3.987800*%
%ADD19C,2.286000*%
%ADD20C,2.200000*%
%ADD21C,1.200000*%
%ADD22O,2.000000X1.400000*%
%ADD23R,2.000000X1.400000*%
%ADD24RotRect,1.600000X1.600000X165.000000*%
%ADD25HorizOval,1.600000X0.000000X0.000000X0.000000X0.000000X0*%
%ADD26O,2.500000X1.500000*%
%ADD27O,1.500000X2.500000*%
G04 APERTURE END LIST*
D10*
X132588095Y-46920950D02*
X132730952Y-46968569D01*
X132730952Y-46968569D02*
X132969047Y-46968569D01*
X132969047Y-46968569D02*
X133064285Y-46920950D01*
X133064285Y-46920950D02*
X133111904Y-46873330D01*
X133111904Y-46873330D02*
X133159523Y-46778092D01*
X133159523Y-46778092D02*
X133159523Y-46682854D01*
X133159523Y-46682854D02*
X133111904Y-46587616D01*
X133111904Y-46587616D02*
X133064285Y-46539997D01*
X133064285Y-46539997D02*
X132969047Y-46492378D01*
X132969047Y-46492378D02*
X132778571Y-46444759D01*
X132778571Y-46444759D02*
X132683333Y-46397140D01*
X132683333Y-46397140D02*
X132635714Y-46349521D01*
X132635714Y-46349521D02*
X132588095Y-46254283D01*
X132588095Y-46254283D02*
X132588095Y-46159045D01*
X132588095Y-46159045D02*
X132635714Y-46063807D01*
X132635714Y-46063807D02*
X132683333Y-46016188D01*
X132683333Y-46016188D02*
X132778571Y-45968569D01*
X132778571Y-45968569D02*
X133016666Y-45968569D01*
X133016666Y-45968569D02*
X133159523Y-46016188D01*
X134064285Y-45968569D02*
X133588095Y-45968569D01*
X133588095Y-45968569D02*
X133540476Y-46444759D01*
X133540476Y-46444759D02*
X133588095Y-46397140D01*
X133588095Y-46397140D02*
X133683333Y-46349521D01*
X133683333Y-46349521D02*
X133921428Y-46349521D01*
X133921428Y-46349521D02*
X134016666Y-46397140D01*
X134016666Y-46397140D02*
X134064285Y-46444759D01*
X134064285Y-46444759D02*
X134111904Y-46539997D01*
X134111904Y-46539997D02*
X134111904Y-46778092D01*
X134111904Y-46778092D02*
X134064285Y-46873330D01*
X134064285Y-46873330D02*
X134016666Y-46920950D01*
X134016666Y-46920950D02*
X133921428Y-46968569D01*
X133921428Y-46968569D02*
X133683333Y-46968569D01*
X133683333Y-46968569D02*
X133588095Y-46920950D01*
X133588095Y-46920950D02*
X133540476Y-46873330D01*
X132111905Y-65970950D02*
X132254762Y-66018569D01*
X132254762Y-66018569D02*
X132492857Y-66018569D01*
X132492857Y-66018569D02*
X132588095Y-65970950D01*
X132588095Y-65970950D02*
X132635714Y-65923330D01*
X132635714Y-65923330D02*
X132683333Y-65828092D01*
X132683333Y-65828092D02*
X132683333Y-65732854D01*
X132683333Y-65732854D02*
X132635714Y-65637616D01*
X132635714Y-65637616D02*
X132588095Y-65589997D01*
X132588095Y-65589997D02*
X132492857Y-65542378D01*
X132492857Y-65542378D02*
X132302381Y-65494759D01*
X132302381Y-65494759D02*
X132207143Y-65447140D01*
X132207143Y-65447140D02*
X132159524Y-65399521D01*
X132159524Y-65399521D02*
X132111905Y-65304283D01*
X132111905Y-65304283D02*
X132111905Y-65209045D01*
X132111905Y-65209045D02*
X132159524Y-65113807D01*
X132159524Y-65113807D02*
X132207143Y-65066188D01*
X132207143Y-65066188D02*
X132302381Y-65018569D01*
X132302381Y-65018569D02*
X132540476Y-65018569D01*
X132540476Y-65018569D02*
X132683333Y-65066188D01*
X133635714Y-66018569D02*
X133064286Y-66018569D01*
X133350000Y-66018569D02*
X133350000Y-65018569D01*
X133350000Y-65018569D02*
X133254762Y-65161426D01*
X133254762Y-65161426D02*
X133159524Y-65256664D01*
X133159524Y-65256664D02*
X133064286Y-65304283D01*
X134588095Y-66018569D02*
X134016667Y-66018569D01*
X134302381Y-66018569D02*
X134302381Y-65018569D01*
X134302381Y-65018569D02*
X134207143Y-65161426D01*
X134207143Y-65161426D02*
X134111905Y-65256664D01*
X134111905Y-65256664D02*
X134016667Y-65304283D01*
X159401041Y-131795444D02*
X159067708Y-131319253D01*
X158829613Y-131795444D02*
X158829613Y-130795444D01*
X158829613Y-130795444D02*
X159210565Y-130795444D01*
X159210565Y-130795444D02*
X159305803Y-130843063D01*
X159305803Y-130843063D02*
X159353422Y-130890682D01*
X159353422Y-130890682D02*
X159401041Y-130985920D01*
X159401041Y-130985920D02*
X159401041Y-131128777D01*
X159401041Y-131128777D02*
X159353422Y-131224015D01*
X159353422Y-131224015D02*
X159305803Y-131271634D01*
X159305803Y-131271634D02*
X159210565Y-131319253D01*
X159210565Y-131319253D02*
X158829613Y-131319253D01*
X159829613Y-131271634D02*
X160162946Y-131271634D01*
X160305803Y-131795444D02*
X159829613Y-131795444D01*
X159829613Y-131795444D02*
X159829613Y-130795444D01*
X159829613Y-130795444D02*
X160305803Y-130795444D01*
X161067708Y-131271634D02*
X160734375Y-131271634D01*
X160734375Y-131795444D02*
X160734375Y-130795444D01*
X160734375Y-130795444D02*
X161210565Y-130795444D01*
X161734375Y-130795444D02*
X161734375Y-131033539D01*
X161496280Y-130938301D02*
X161734375Y-131033539D01*
X161734375Y-131033539D02*
X161972470Y-130938301D01*
X161591518Y-131224015D02*
X161734375Y-131033539D01*
X161734375Y-131033539D02*
X161877232Y-131224015D01*
X162496280Y-130795444D02*
X162496280Y-131033539D01*
X162258185Y-130938301D02*
X162496280Y-131033539D01*
X162496280Y-131033539D02*
X162734375Y-130938301D01*
X162353423Y-131224015D02*
X162496280Y-131033539D01*
X162496280Y-131033539D02*
X162639137Y-131224015D01*
X56388095Y-68352200D02*
X56530952Y-68399819D01*
X56530952Y-68399819D02*
X56769047Y-68399819D01*
X56769047Y-68399819D02*
X56864285Y-68352200D01*
X56864285Y-68352200D02*
X56911904Y-68304580D01*
X56911904Y-68304580D02*
X56959523Y-68209342D01*
X56959523Y-68209342D02*
X56959523Y-68114104D01*
X56959523Y-68114104D02*
X56911904Y-68018866D01*
X56911904Y-68018866D02*
X56864285Y-67971247D01*
X56864285Y-67971247D02*
X56769047Y-67923628D01*
X56769047Y-67923628D02*
X56578571Y-67876009D01*
X56578571Y-67876009D02*
X56483333Y-67828390D01*
X56483333Y-67828390D02*
X56435714Y-67780771D01*
X56435714Y-67780771D02*
X56388095Y-67685533D01*
X56388095Y-67685533D02*
X56388095Y-67590295D01*
X56388095Y-67590295D02*
X56435714Y-67495057D01*
X56435714Y-67495057D02*
X56483333Y-67447438D01*
X56483333Y-67447438D02*
X56578571Y-67399819D01*
X56578571Y-67399819D02*
X56816666Y-67399819D01*
X56816666Y-67399819D02*
X56959523Y-67447438D01*
X57292857Y-67399819D02*
X57959523Y-67399819D01*
X57959523Y-67399819D02*
X57530952Y-68399819D01*
X94011905Y-85020950D02*
X94154762Y-85068569D01*
X94154762Y-85068569D02*
X94392857Y-85068569D01*
X94392857Y-85068569D02*
X94488095Y-85020950D01*
X94488095Y-85020950D02*
X94535714Y-84973330D01*
X94535714Y-84973330D02*
X94583333Y-84878092D01*
X94583333Y-84878092D02*
X94583333Y-84782854D01*
X94583333Y-84782854D02*
X94535714Y-84687616D01*
X94535714Y-84687616D02*
X94488095Y-84639997D01*
X94488095Y-84639997D02*
X94392857Y-84592378D01*
X94392857Y-84592378D02*
X94202381Y-84544759D01*
X94202381Y-84544759D02*
X94107143Y-84497140D01*
X94107143Y-84497140D02*
X94059524Y-84449521D01*
X94059524Y-84449521D02*
X94011905Y-84354283D01*
X94011905Y-84354283D02*
X94011905Y-84259045D01*
X94011905Y-84259045D02*
X94059524Y-84163807D01*
X94059524Y-84163807D02*
X94107143Y-84116188D01*
X94107143Y-84116188D02*
X94202381Y-84068569D01*
X94202381Y-84068569D02*
X94440476Y-84068569D01*
X94440476Y-84068569D02*
X94583333Y-84116188D01*
X95535714Y-85068569D02*
X94964286Y-85068569D01*
X95250000Y-85068569D02*
X95250000Y-84068569D01*
X95250000Y-84068569D02*
X95154762Y-84211426D01*
X95154762Y-84211426D02*
X95059524Y-84306664D01*
X95059524Y-84306664D02*
X94964286Y-84354283D01*
X96440476Y-84068569D02*
X95964286Y-84068569D01*
X95964286Y-84068569D02*
X95916667Y-84544759D01*
X95916667Y-84544759D02*
X95964286Y-84497140D01*
X95964286Y-84497140D02*
X96059524Y-84449521D01*
X96059524Y-84449521D02*
X96297619Y-84449521D01*
X96297619Y-84449521D02*
X96392857Y-84497140D01*
X96392857Y-84497140D02*
X96440476Y-84544759D01*
X96440476Y-84544759D02*
X96488095Y-84639997D01*
X96488095Y-84639997D02*
X96488095Y-84878092D01*
X96488095Y-84878092D02*
X96440476Y-84973330D01*
X96440476Y-84973330D02*
X96392857Y-85020950D01*
X96392857Y-85020950D02*
X96297619Y-85068569D01*
X96297619Y-85068569D02*
X96059524Y-85068569D01*
X96059524Y-85068569D02*
X95964286Y-85020950D01*
X95964286Y-85020950D02*
X95916667Y-84973330D01*
X178921694Y-100504583D02*
X179635979Y-100504583D01*
X179635979Y-100504583D02*
X179778836Y-100552202D01*
X179778836Y-100552202D02*
X179874075Y-100647440D01*
X179874075Y-100647440D02*
X179921694Y-100790297D01*
X179921694Y-100790297D02*
X179921694Y-100885535D01*
X179921694Y-99504583D02*
X179921694Y-100076011D01*
X179921694Y-99790297D02*
X178921694Y-99790297D01*
X178921694Y-99790297D02*
X179064551Y-99885535D01*
X179064551Y-99885535D02*
X179159789Y-99980773D01*
X179159789Y-99980773D02*
X179207408Y-100076011D01*
X103441666Y-118698569D02*
X103108333Y-118222378D01*
X102870238Y-118698569D02*
X102870238Y-117698569D01*
X102870238Y-117698569D02*
X103251190Y-117698569D01*
X103251190Y-117698569D02*
X103346428Y-117746188D01*
X103346428Y-117746188D02*
X103394047Y-117793807D01*
X103394047Y-117793807D02*
X103441666Y-117889045D01*
X103441666Y-117889045D02*
X103441666Y-118031902D01*
X103441666Y-118031902D02*
X103394047Y-118127140D01*
X103394047Y-118127140D02*
X103346428Y-118174759D01*
X103346428Y-118174759D02*
X103251190Y-118222378D01*
X103251190Y-118222378D02*
X102870238Y-118222378D01*
X103870238Y-118174759D02*
X104203571Y-118174759D01*
X104346428Y-118698569D02*
X103870238Y-118698569D01*
X103870238Y-118698569D02*
X103870238Y-117698569D01*
X103870238Y-117698569D02*
X104346428Y-117698569D01*
X105108333Y-118174759D02*
X104775000Y-118174759D01*
X104775000Y-118698569D02*
X104775000Y-117698569D01*
X104775000Y-117698569D02*
X105251190Y-117698569D01*
X105775000Y-117698569D02*
X105775000Y-117936664D01*
X105536905Y-117841426D02*
X105775000Y-117936664D01*
X105775000Y-117936664D02*
X106013095Y-117841426D01*
X105632143Y-118127140D02*
X105775000Y-117936664D01*
X105775000Y-117936664D02*
X105917857Y-118127140D01*
X106536905Y-117698569D02*
X106536905Y-117936664D01*
X106298810Y-117841426D02*
X106536905Y-117936664D01*
X106536905Y-117936664D02*
X106775000Y-117841426D01*
X106394048Y-118127140D02*
X106536905Y-117936664D01*
X106536905Y-117936664D02*
X106679762Y-118127140D01*
X113538095Y-44539700D02*
X113680952Y-44587319D01*
X113680952Y-44587319D02*
X113919047Y-44587319D01*
X113919047Y-44587319D02*
X114014285Y-44539700D01*
X114014285Y-44539700D02*
X114061904Y-44492080D01*
X114061904Y-44492080D02*
X114109523Y-44396842D01*
X114109523Y-44396842D02*
X114109523Y-44301604D01*
X114109523Y-44301604D02*
X114061904Y-44206366D01*
X114061904Y-44206366D02*
X114014285Y-44158747D01*
X114014285Y-44158747D02*
X113919047Y-44111128D01*
X113919047Y-44111128D02*
X113728571Y-44063509D01*
X113728571Y-44063509D02*
X113633333Y-44015890D01*
X113633333Y-44015890D02*
X113585714Y-43968271D01*
X113585714Y-43968271D02*
X113538095Y-43873033D01*
X113538095Y-43873033D02*
X113538095Y-43777795D01*
X113538095Y-43777795D02*
X113585714Y-43682557D01*
X113585714Y-43682557D02*
X113633333Y-43634938D01*
X113633333Y-43634938D02*
X113728571Y-43587319D01*
X113728571Y-43587319D02*
X113966666Y-43587319D01*
X113966666Y-43587319D02*
X114109523Y-43634938D01*
X114966666Y-43920652D02*
X114966666Y-44587319D01*
X114728571Y-43539700D02*
X114490476Y-44253985D01*
X114490476Y-44253985D02*
X115109523Y-44253985D01*
X151161905Y-87402200D02*
X151304762Y-87449819D01*
X151304762Y-87449819D02*
X151542857Y-87449819D01*
X151542857Y-87449819D02*
X151638095Y-87402200D01*
X151638095Y-87402200D02*
X151685714Y-87354580D01*
X151685714Y-87354580D02*
X151733333Y-87259342D01*
X151733333Y-87259342D02*
X151733333Y-87164104D01*
X151733333Y-87164104D02*
X151685714Y-87068866D01*
X151685714Y-87068866D02*
X151638095Y-87021247D01*
X151638095Y-87021247D02*
X151542857Y-86973628D01*
X151542857Y-86973628D02*
X151352381Y-86926009D01*
X151352381Y-86926009D02*
X151257143Y-86878390D01*
X151257143Y-86878390D02*
X151209524Y-86830771D01*
X151209524Y-86830771D02*
X151161905Y-86735533D01*
X151161905Y-86735533D02*
X151161905Y-86640295D01*
X151161905Y-86640295D02*
X151209524Y-86545057D01*
X151209524Y-86545057D02*
X151257143Y-86497438D01*
X151257143Y-86497438D02*
X151352381Y-86449819D01*
X151352381Y-86449819D02*
X151590476Y-86449819D01*
X151590476Y-86449819D02*
X151733333Y-86497438D01*
X152685714Y-87449819D02*
X152114286Y-87449819D01*
X152400000Y-87449819D02*
X152400000Y-86449819D01*
X152400000Y-86449819D02*
X152304762Y-86592676D01*
X152304762Y-86592676D02*
X152209524Y-86687914D01*
X152209524Y-86687914D02*
X152114286Y-86735533D01*
X153257143Y-86878390D02*
X153161905Y-86830771D01*
X153161905Y-86830771D02*
X153114286Y-86783152D01*
X153114286Y-86783152D02*
X153066667Y-86687914D01*
X153066667Y-86687914D02*
X153066667Y-86640295D01*
X153066667Y-86640295D02*
X153114286Y-86545057D01*
X153114286Y-86545057D02*
X153161905Y-86497438D01*
X153161905Y-86497438D02*
X153257143Y-86449819D01*
X153257143Y-86449819D02*
X153447619Y-86449819D01*
X153447619Y-86449819D02*
X153542857Y-86497438D01*
X153542857Y-86497438D02*
X153590476Y-86545057D01*
X153590476Y-86545057D02*
X153638095Y-86640295D01*
X153638095Y-86640295D02*
X153638095Y-86687914D01*
X153638095Y-86687914D02*
X153590476Y-86783152D01*
X153590476Y-86783152D02*
X153542857Y-86830771D01*
X153542857Y-86830771D02*
X153447619Y-86878390D01*
X153447619Y-86878390D02*
X153257143Y-86878390D01*
X153257143Y-86878390D02*
X153161905Y-86926009D01*
X153161905Y-86926009D02*
X153114286Y-86973628D01*
X153114286Y-86973628D02*
X153066667Y-87068866D01*
X153066667Y-87068866D02*
X153066667Y-87259342D01*
X153066667Y-87259342D02*
X153114286Y-87354580D01*
X153114286Y-87354580D02*
X153161905Y-87402200D01*
X153161905Y-87402200D02*
X153257143Y-87449819D01*
X153257143Y-87449819D02*
X153447619Y-87449819D01*
X153447619Y-87449819D02*
X153542857Y-87402200D01*
X153542857Y-87402200D02*
X153590476Y-87354580D01*
X153590476Y-87354580D02*
X153638095Y-87259342D01*
X153638095Y-87259342D02*
X153638095Y-87068866D01*
X153638095Y-87068866D02*
X153590476Y-86973628D01*
X153590476Y-86973628D02*
X153542857Y-86926009D01*
X153542857Y-86926009D02*
X153447619Y-86878390D01*
X151638095Y-49302200D02*
X151780952Y-49349819D01*
X151780952Y-49349819D02*
X152019047Y-49349819D01*
X152019047Y-49349819D02*
X152114285Y-49302200D01*
X152114285Y-49302200D02*
X152161904Y-49254580D01*
X152161904Y-49254580D02*
X152209523Y-49159342D01*
X152209523Y-49159342D02*
X152209523Y-49064104D01*
X152209523Y-49064104D02*
X152161904Y-48968866D01*
X152161904Y-48968866D02*
X152114285Y-48921247D01*
X152114285Y-48921247D02*
X152019047Y-48873628D01*
X152019047Y-48873628D02*
X151828571Y-48826009D01*
X151828571Y-48826009D02*
X151733333Y-48778390D01*
X151733333Y-48778390D02*
X151685714Y-48730771D01*
X151685714Y-48730771D02*
X151638095Y-48635533D01*
X151638095Y-48635533D02*
X151638095Y-48540295D01*
X151638095Y-48540295D02*
X151685714Y-48445057D01*
X151685714Y-48445057D02*
X151733333Y-48397438D01*
X151733333Y-48397438D02*
X151828571Y-48349819D01*
X151828571Y-48349819D02*
X152066666Y-48349819D01*
X152066666Y-48349819D02*
X152209523Y-48397438D01*
X153066666Y-48349819D02*
X152876190Y-48349819D01*
X152876190Y-48349819D02*
X152780952Y-48397438D01*
X152780952Y-48397438D02*
X152733333Y-48445057D01*
X152733333Y-48445057D02*
X152638095Y-48587914D01*
X152638095Y-48587914D02*
X152590476Y-48778390D01*
X152590476Y-48778390D02*
X152590476Y-49159342D01*
X152590476Y-49159342D02*
X152638095Y-49254580D01*
X152638095Y-49254580D02*
X152685714Y-49302200D01*
X152685714Y-49302200D02*
X152780952Y-49349819D01*
X152780952Y-49349819D02*
X152971428Y-49349819D01*
X152971428Y-49349819D02*
X153066666Y-49302200D01*
X153066666Y-49302200D02*
X153114285Y-49254580D01*
X153114285Y-49254580D02*
X153161904Y-49159342D01*
X153161904Y-49159342D02*
X153161904Y-48921247D01*
X153161904Y-48921247D02*
X153114285Y-48826009D01*
X153114285Y-48826009D02*
X153066666Y-48778390D01*
X153066666Y-48778390D02*
X152971428Y-48730771D01*
X152971428Y-48730771D02*
X152780952Y-48730771D01*
X152780952Y-48730771D02*
X152685714Y-48778390D01*
X152685714Y-48778390D02*
X152638095Y-48826009D01*
X152638095Y-48826009D02*
X152590476Y-48921247D01*
X160591666Y-44879819D02*
X160258333Y-44403628D01*
X160020238Y-44879819D02*
X160020238Y-43879819D01*
X160020238Y-43879819D02*
X160401190Y-43879819D01*
X160401190Y-43879819D02*
X160496428Y-43927438D01*
X160496428Y-43927438D02*
X160544047Y-43975057D01*
X160544047Y-43975057D02*
X160591666Y-44070295D01*
X160591666Y-44070295D02*
X160591666Y-44213152D01*
X160591666Y-44213152D02*
X160544047Y-44308390D01*
X160544047Y-44308390D02*
X160496428Y-44356009D01*
X160496428Y-44356009D02*
X160401190Y-44403628D01*
X160401190Y-44403628D02*
X160020238Y-44403628D01*
X161020238Y-44356009D02*
X161353571Y-44356009D01*
X161496428Y-44879819D02*
X161020238Y-44879819D01*
X161020238Y-44879819D02*
X161020238Y-43879819D01*
X161020238Y-43879819D02*
X161496428Y-43879819D01*
X162258333Y-44356009D02*
X161925000Y-44356009D01*
X161925000Y-44879819D02*
X161925000Y-43879819D01*
X161925000Y-43879819D02*
X162401190Y-43879819D01*
X162925000Y-43879819D02*
X162925000Y-44117914D01*
X162686905Y-44022676D02*
X162925000Y-44117914D01*
X162925000Y-44117914D02*
X163163095Y-44022676D01*
X162782143Y-44308390D02*
X162925000Y-44117914D01*
X162925000Y-44117914D02*
X163067857Y-44308390D01*
X163686905Y-43879819D02*
X163686905Y-44117914D01*
X163448810Y-44022676D02*
X163686905Y-44117914D01*
X163686905Y-44117914D02*
X163925000Y-44022676D01*
X163544048Y-44308390D02*
X163686905Y-44117914D01*
X163686905Y-44117914D02*
X163829762Y-44308390D01*
X132111905Y-85020950D02*
X132254762Y-85068569D01*
X132254762Y-85068569D02*
X132492857Y-85068569D01*
X132492857Y-85068569D02*
X132588095Y-85020950D01*
X132588095Y-85020950D02*
X132635714Y-84973330D01*
X132635714Y-84973330D02*
X132683333Y-84878092D01*
X132683333Y-84878092D02*
X132683333Y-84782854D01*
X132683333Y-84782854D02*
X132635714Y-84687616D01*
X132635714Y-84687616D02*
X132588095Y-84639997D01*
X132588095Y-84639997D02*
X132492857Y-84592378D01*
X132492857Y-84592378D02*
X132302381Y-84544759D01*
X132302381Y-84544759D02*
X132207143Y-84497140D01*
X132207143Y-84497140D02*
X132159524Y-84449521D01*
X132159524Y-84449521D02*
X132111905Y-84354283D01*
X132111905Y-84354283D02*
X132111905Y-84259045D01*
X132111905Y-84259045D02*
X132159524Y-84163807D01*
X132159524Y-84163807D02*
X132207143Y-84116188D01*
X132207143Y-84116188D02*
X132302381Y-84068569D01*
X132302381Y-84068569D02*
X132540476Y-84068569D01*
X132540476Y-84068569D02*
X132683333Y-84116188D01*
X133635714Y-85068569D02*
X133064286Y-85068569D01*
X133350000Y-85068569D02*
X133350000Y-84068569D01*
X133350000Y-84068569D02*
X133254762Y-84211426D01*
X133254762Y-84211426D02*
X133159524Y-84306664D01*
X133159524Y-84306664D02*
X133064286Y-84354283D01*
X133969048Y-84068569D02*
X134635714Y-84068569D01*
X134635714Y-84068569D02*
X134207143Y-85068569D01*
X74961905Y-87402200D02*
X75104762Y-87449819D01*
X75104762Y-87449819D02*
X75342857Y-87449819D01*
X75342857Y-87449819D02*
X75438095Y-87402200D01*
X75438095Y-87402200D02*
X75485714Y-87354580D01*
X75485714Y-87354580D02*
X75533333Y-87259342D01*
X75533333Y-87259342D02*
X75533333Y-87164104D01*
X75533333Y-87164104D02*
X75485714Y-87068866D01*
X75485714Y-87068866D02*
X75438095Y-87021247D01*
X75438095Y-87021247D02*
X75342857Y-86973628D01*
X75342857Y-86973628D02*
X75152381Y-86926009D01*
X75152381Y-86926009D02*
X75057143Y-86878390D01*
X75057143Y-86878390D02*
X75009524Y-86830771D01*
X75009524Y-86830771D02*
X74961905Y-86735533D01*
X74961905Y-86735533D02*
X74961905Y-86640295D01*
X74961905Y-86640295D02*
X75009524Y-86545057D01*
X75009524Y-86545057D02*
X75057143Y-86497438D01*
X75057143Y-86497438D02*
X75152381Y-86449819D01*
X75152381Y-86449819D02*
X75390476Y-86449819D01*
X75390476Y-86449819D02*
X75533333Y-86497438D01*
X76485714Y-87449819D02*
X75914286Y-87449819D01*
X76200000Y-87449819D02*
X76200000Y-86449819D01*
X76200000Y-86449819D02*
X76104762Y-86592676D01*
X76104762Y-86592676D02*
X76009524Y-86687914D01*
X76009524Y-86687914D02*
X75914286Y-86735533D01*
X77342857Y-86783152D02*
X77342857Y-87449819D01*
X77104762Y-86402200D02*
X76866667Y-87116485D01*
X76866667Y-87116485D02*
X77485714Y-87116485D01*
X46291666Y-44879819D02*
X45958333Y-44403628D01*
X45720238Y-44879819D02*
X45720238Y-43879819D01*
X45720238Y-43879819D02*
X46101190Y-43879819D01*
X46101190Y-43879819D02*
X46196428Y-43927438D01*
X46196428Y-43927438D02*
X46244047Y-43975057D01*
X46244047Y-43975057D02*
X46291666Y-44070295D01*
X46291666Y-44070295D02*
X46291666Y-44213152D01*
X46291666Y-44213152D02*
X46244047Y-44308390D01*
X46244047Y-44308390D02*
X46196428Y-44356009D01*
X46196428Y-44356009D02*
X46101190Y-44403628D01*
X46101190Y-44403628D02*
X45720238Y-44403628D01*
X46720238Y-44356009D02*
X47053571Y-44356009D01*
X47196428Y-44879819D02*
X46720238Y-44879819D01*
X46720238Y-44879819D02*
X46720238Y-43879819D01*
X46720238Y-43879819D02*
X47196428Y-43879819D01*
X47958333Y-44356009D02*
X47625000Y-44356009D01*
X47625000Y-44879819D02*
X47625000Y-43879819D01*
X47625000Y-43879819D02*
X48101190Y-43879819D01*
X48625000Y-43879819D02*
X48625000Y-44117914D01*
X48386905Y-44022676D02*
X48625000Y-44117914D01*
X48625000Y-44117914D02*
X48863095Y-44022676D01*
X48482143Y-44308390D02*
X48625000Y-44117914D01*
X48625000Y-44117914D02*
X48767857Y-44308390D01*
X49386905Y-43879819D02*
X49386905Y-44117914D01*
X49148810Y-44022676D02*
X49386905Y-44117914D01*
X49386905Y-44117914D02*
X49625000Y-44022676D01*
X49244048Y-44308390D02*
X49386905Y-44117914D01*
X49386905Y-44117914D02*
X49529762Y-44308390D01*
X103441666Y-79407944D02*
X103108333Y-78931753D01*
X102870238Y-79407944D02*
X102870238Y-78407944D01*
X102870238Y-78407944D02*
X103251190Y-78407944D01*
X103251190Y-78407944D02*
X103346428Y-78455563D01*
X103346428Y-78455563D02*
X103394047Y-78503182D01*
X103394047Y-78503182D02*
X103441666Y-78598420D01*
X103441666Y-78598420D02*
X103441666Y-78741277D01*
X103441666Y-78741277D02*
X103394047Y-78836515D01*
X103394047Y-78836515D02*
X103346428Y-78884134D01*
X103346428Y-78884134D02*
X103251190Y-78931753D01*
X103251190Y-78931753D02*
X102870238Y-78931753D01*
X103870238Y-78884134D02*
X104203571Y-78884134D01*
X104346428Y-79407944D02*
X103870238Y-79407944D01*
X103870238Y-79407944D02*
X103870238Y-78407944D01*
X103870238Y-78407944D02*
X104346428Y-78407944D01*
X105108333Y-78884134D02*
X104775000Y-78884134D01*
X104775000Y-79407944D02*
X104775000Y-78407944D01*
X104775000Y-78407944D02*
X105251190Y-78407944D01*
X105775000Y-78407944D02*
X105775000Y-78646039D01*
X105536905Y-78550801D02*
X105775000Y-78646039D01*
X105775000Y-78646039D02*
X106013095Y-78550801D01*
X105632143Y-78836515D02*
X105775000Y-78646039D01*
X105775000Y-78646039D02*
X105917857Y-78836515D01*
X106536905Y-78407944D02*
X106536905Y-78646039D01*
X106298810Y-78550801D02*
X106536905Y-78646039D01*
X106536905Y-78646039D02*
X106775000Y-78550801D01*
X106394048Y-78836515D02*
X106536905Y-78646039D01*
X106536905Y-78646039D02*
X106679762Y-78836515D01*
X75438095Y-68352200D02*
X75580952Y-68399819D01*
X75580952Y-68399819D02*
X75819047Y-68399819D01*
X75819047Y-68399819D02*
X75914285Y-68352200D01*
X75914285Y-68352200D02*
X75961904Y-68304580D01*
X75961904Y-68304580D02*
X76009523Y-68209342D01*
X76009523Y-68209342D02*
X76009523Y-68114104D01*
X76009523Y-68114104D02*
X75961904Y-68018866D01*
X75961904Y-68018866D02*
X75914285Y-67971247D01*
X75914285Y-67971247D02*
X75819047Y-67923628D01*
X75819047Y-67923628D02*
X75628571Y-67876009D01*
X75628571Y-67876009D02*
X75533333Y-67828390D01*
X75533333Y-67828390D02*
X75485714Y-67780771D01*
X75485714Y-67780771D02*
X75438095Y-67685533D01*
X75438095Y-67685533D02*
X75438095Y-67590295D01*
X75438095Y-67590295D02*
X75485714Y-67495057D01*
X75485714Y-67495057D02*
X75533333Y-67447438D01*
X75533333Y-67447438D02*
X75628571Y-67399819D01*
X75628571Y-67399819D02*
X75866666Y-67399819D01*
X75866666Y-67399819D02*
X76009523Y-67447438D01*
X76580952Y-67828390D02*
X76485714Y-67780771D01*
X76485714Y-67780771D02*
X76438095Y-67733152D01*
X76438095Y-67733152D02*
X76390476Y-67637914D01*
X76390476Y-67637914D02*
X76390476Y-67590295D01*
X76390476Y-67590295D02*
X76438095Y-67495057D01*
X76438095Y-67495057D02*
X76485714Y-67447438D01*
X76485714Y-67447438D02*
X76580952Y-67399819D01*
X76580952Y-67399819D02*
X76771428Y-67399819D01*
X76771428Y-67399819D02*
X76866666Y-67447438D01*
X76866666Y-67447438D02*
X76914285Y-67495057D01*
X76914285Y-67495057D02*
X76961904Y-67590295D01*
X76961904Y-67590295D02*
X76961904Y-67637914D01*
X76961904Y-67637914D02*
X76914285Y-67733152D01*
X76914285Y-67733152D02*
X76866666Y-67780771D01*
X76866666Y-67780771D02*
X76771428Y-67828390D01*
X76771428Y-67828390D02*
X76580952Y-67828390D01*
X76580952Y-67828390D02*
X76485714Y-67876009D01*
X76485714Y-67876009D02*
X76438095Y-67923628D01*
X76438095Y-67923628D02*
X76390476Y-68018866D01*
X76390476Y-68018866D02*
X76390476Y-68209342D01*
X76390476Y-68209342D02*
X76438095Y-68304580D01*
X76438095Y-68304580D02*
X76485714Y-68352200D01*
X76485714Y-68352200D02*
X76580952Y-68399819D01*
X76580952Y-68399819D02*
X76771428Y-68399819D01*
X76771428Y-68399819D02*
X76866666Y-68352200D01*
X76866666Y-68352200D02*
X76914285Y-68304580D01*
X76914285Y-68304580D02*
X76961904Y-68209342D01*
X76961904Y-68209342D02*
X76961904Y-68018866D01*
X76961904Y-68018866D02*
X76914285Y-67923628D01*
X76914285Y-67923628D02*
X76866666Y-67876009D01*
X76866666Y-67876009D02*
X76771428Y-67828390D01*
X75438095Y-49302200D02*
X75580952Y-49349819D01*
X75580952Y-49349819D02*
X75819047Y-49349819D01*
X75819047Y-49349819D02*
X75914285Y-49302200D01*
X75914285Y-49302200D02*
X75961904Y-49254580D01*
X75961904Y-49254580D02*
X76009523Y-49159342D01*
X76009523Y-49159342D02*
X76009523Y-49064104D01*
X76009523Y-49064104D02*
X75961904Y-48968866D01*
X75961904Y-48968866D02*
X75914285Y-48921247D01*
X75914285Y-48921247D02*
X75819047Y-48873628D01*
X75819047Y-48873628D02*
X75628571Y-48826009D01*
X75628571Y-48826009D02*
X75533333Y-48778390D01*
X75533333Y-48778390D02*
X75485714Y-48730771D01*
X75485714Y-48730771D02*
X75438095Y-48635533D01*
X75438095Y-48635533D02*
X75438095Y-48540295D01*
X75438095Y-48540295D02*
X75485714Y-48445057D01*
X75485714Y-48445057D02*
X75533333Y-48397438D01*
X75533333Y-48397438D02*
X75628571Y-48349819D01*
X75628571Y-48349819D02*
X75866666Y-48349819D01*
X75866666Y-48349819D02*
X76009523Y-48397438D01*
X76390476Y-48445057D02*
X76438095Y-48397438D01*
X76438095Y-48397438D02*
X76533333Y-48349819D01*
X76533333Y-48349819D02*
X76771428Y-48349819D01*
X76771428Y-48349819D02*
X76866666Y-48397438D01*
X76866666Y-48397438D02*
X76914285Y-48445057D01*
X76914285Y-48445057D02*
X76961904Y-48540295D01*
X76961904Y-48540295D02*
X76961904Y-48635533D01*
X76961904Y-48635533D02*
X76914285Y-48778390D01*
X76914285Y-48778390D02*
X76342857Y-49349819D01*
X76342857Y-49349819D02*
X76961904Y-49349819D01*
X113061905Y-82639700D02*
X113204762Y-82687319D01*
X113204762Y-82687319D02*
X113442857Y-82687319D01*
X113442857Y-82687319D02*
X113538095Y-82639700D01*
X113538095Y-82639700D02*
X113585714Y-82592080D01*
X113585714Y-82592080D02*
X113633333Y-82496842D01*
X113633333Y-82496842D02*
X113633333Y-82401604D01*
X113633333Y-82401604D02*
X113585714Y-82306366D01*
X113585714Y-82306366D02*
X113538095Y-82258747D01*
X113538095Y-82258747D02*
X113442857Y-82211128D01*
X113442857Y-82211128D02*
X113252381Y-82163509D01*
X113252381Y-82163509D02*
X113157143Y-82115890D01*
X113157143Y-82115890D02*
X113109524Y-82068271D01*
X113109524Y-82068271D02*
X113061905Y-81973033D01*
X113061905Y-81973033D02*
X113061905Y-81877795D01*
X113061905Y-81877795D02*
X113109524Y-81782557D01*
X113109524Y-81782557D02*
X113157143Y-81734938D01*
X113157143Y-81734938D02*
X113252381Y-81687319D01*
X113252381Y-81687319D02*
X113490476Y-81687319D01*
X113490476Y-81687319D02*
X113633333Y-81734938D01*
X114585714Y-82687319D02*
X114014286Y-82687319D01*
X114300000Y-82687319D02*
X114300000Y-81687319D01*
X114300000Y-81687319D02*
X114204762Y-81830176D01*
X114204762Y-81830176D02*
X114109524Y-81925414D01*
X114109524Y-81925414D02*
X114014286Y-81973033D01*
X115442857Y-81687319D02*
X115252381Y-81687319D01*
X115252381Y-81687319D02*
X115157143Y-81734938D01*
X115157143Y-81734938D02*
X115109524Y-81782557D01*
X115109524Y-81782557D02*
X115014286Y-81925414D01*
X115014286Y-81925414D02*
X114966667Y-82115890D01*
X114966667Y-82115890D02*
X114966667Y-82496842D01*
X114966667Y-82496842D02*
X115014286Y-82592080D01*
X115014286Y-82592080D02*
X115061905Y-82639700D01*
X115061905Y-82639700D02*
X115157143Y-82687319D01*
X115157143Y-82687319D02*
X115347619Y-82687319D01*
X115347619Y-82687319D02*
X115442857Y-82639700D01*
X115442857Y-82639700D02*
X115490476Y-82592080D01*
X115490476Y-82592080D02*
X115538095Y-82496842D01*
X115538095Y-82496842D02*
X115538095Y-82258747D01*
X115538095Y-82258747D02*
X115490476Y-82163509D01*
X115490476Y-82163509D02*
X115442857Y-82115890D01*
X115442857Y-82115890D02*
X115347619Y-82068271D01*
X115347619Y-82068271D02*
X115157143Y-82068271D01*
X115157143Y-82068271D02*
X115061905Y-82115890D01*
X115061905Y-82115890D02*
X115014286Y-82163509D01*
X115014286Y-82163509D02*
X114966667Y-82258747D01*
X113061905Y-63589700D02*
X113204762Y-63637319D01*
X113204762Y-63637319D02*
X113442857Y-63637319D01*
X113442857Y-63637319D02*
X113538095Y-63589700D01*
X113538095Y-63589700D02*
X113585714Y-63542080D01*
X113585714Y-63542080D02*
X113633333Y-63446842D01*
X113633333Y-63446842D02*
X113633333Y-63351604D01*
X113633333Y-63351604D02*
X113585714Y-63256366D01*
X113585714Y-63256366D02*
X113538095Y-63208747D01*
X113538095Y-63208747D02*
X113442857Y-63161128D01*
X113442857Y-63161128D02*
X113252381Y-63113509D01*
X113252381Y-63113509D02*
X113157143Y-63065890D01*
X113157143Y-63065890D02*
X113109524Y-63018271D01*
X113109524Y-63018271D02*
X113061905Y-62923033D01*
X113061905Y-62923033D02*
X113061905Y-62827795D01*
X113061905Y-62827795D02*
X113109524Y-62732557D01*
X113109524Y-62732557D02*
X113157143Y-62684938D01*
X113157143Y-62684938D02*
X113252381Y-62637319D01*
X113252381Y-62637319D02*
X113490476Y-62637319D01*
X113490476Y-62637319D02*
X113633333Y-62684938D01*
X114585714Y-63637319D02*
X114014286Y-63637319D01*
X114300000Y-63637319D02*
X114300000Y-62637319D01*
X114300000Y-62637319D02*
X114204762Y-62780176D01*
X114204762Y-62780176D02*
X114109524Y-62875414D01*
X114109524Y-62875414D02*
X114014286Y-62923033D01*
X115204762Y-62637319D02*
X115300000Y-62637319D01*
X115300000Y-62637319D02*
X115395238Y-62684938D01*
X115395238Y-62684938D02*
X115442857Y-62732557D01*
X115442857Y-62732557D02*
X115490476Y-62827795D01*
X115490476Y-62827795D02*
X115538095Y-63018271D01*
X115538095Y-63018271D02*
X115538095Y-63256366D01*
X115538095Y-63256366D02*
X115490476Y-63446842D01*
X115490476Y-63446842D02*
X115442857Y-63542080D01*
X115442857Y-63542080D02*
X115395238Y-63589700D01*
X115395238Y-63589700D02*
X115300000Y-63637319D01*
X115300000Y-63637319D02*
X115204762Y-63637319D01*
X115204762Y-63637319D02*
X115109524Y-63589700D01*
X115109524Y-63589700D02*
X115061905Y-63542080D01*
X115061905Y-63542080D02*
X115014286Y-63446842D01*
X115014286Y-63446842D02*
X114966667Y-63256366D01*
X114966667Y-63256366D02*
X114966667Y-63018271D01*
X114966667Y-63018271D02*
X115014286Y-62827795D01*
X115014286Y-62827795D02*
X115061905Y-62732557D01*
X115061905Y-62732557D02*
X115109524Y-62684938D01*
X115109524Y-62684938D02*
X115204762Y-62637319D01*
X151161905Y-68352200D02*
X151304762Y-68399819D01*
X151304762Y-68399819D02*
X151542857Y-68399819D01*
X151542857Y-68399819D02*
X151638095Y-68352200D01*
X151638095Y-68352200D02*
X151685714Y-68304580D01*
X151685714Y-68304580D02*
X151733333Y-68209342D01*
X151733333Y-68209342D02*
X151733333Y-68114104D01*
X151733333Y-68114104D02*
X151685714Y-68018866D01*
X151685714Y-68018866D02*
X151638095Y-67971247D01*
X151638095Y-67971247D02*
X151542857Y-67923628D01*
X151542857Y-67923628D02*
X151352381Y-67876009D01*
X151352381Y-67876009D02*
X151257143Y-67828390D01*
X151257143Y-67828390D02*
X151209524Y-67780771D01*
X151209524Y-67780771D02*
X151161905Y-67685533D01*
X151161905Y-67685533D02*
X151161905Y-67590295D01*
X151161905Y-67590295D02*
X151209524Y-67495057D01*
X151209524Y-67495057D02*
X151257143Y-67447438D01*
X151257143Y-67447438D02*
X151352381Y-67399819D01*
X151352381Y-67399819D02*
X151590476Y-67399819D01*
X151590476Y-67399819D02*
X151733333Y-67447438D01*
X152685714Y-68399819D02*
X152114286Y-68399819D01*
X152400000Y-68399819D02*
X152400000Y-67399819D01*
X152400000Y-67399819D02*
X152304762Y-67542676D01*
X152304762Y-67542676D02*
X152209524Y-67637914D01*
X152209524Y-67637914D02*
X152114286Y-67685533D01*
X153066667Y-67495057D02*
X153114286Y-67447438D01*
X153114286Y-67447438D02*
X153209524Y-67399819D01*
X153209524Y-67399819D02*
X153447619Y-67399819D01*
X153447619Y-67399819D02*
X153542857Y-67447438D01*
X153542857Y-67447438D02*
X153590476Y-67495057D01*
X153590476Y-67495057D02*
X153638095Y-67590295D01*
X153638095Y-67590295D02*
X153638095Y-67685533D01*
X153638095Y-67685533D02*
X153590476Y-67828390D01*
X153590476Y-67828390D02*
X153019048Y-68399819D01*
X153019048Y-68399819D02*
X153638095Y-68399819D01*
X56388095Y-49302200D02*
X56530952Y-49349819D01*
X56530952Y-49349819D02*
X56769047Y-49349819D01*
X56769047Y-49349819D02*
X56864285Y-49302200D01*
X56864285Y-49302200D02*
X56911904Y-49254580D01*
X56911904Y-49254580D02*
X56959523Y-49159342D01*
X56959523Y-49159342D02*
X56959523Y-49064104D01*
X56959523Y-49064104D02*
X56911904Y-48968866D01*
X56911904Y-48968866D02*
X56864285Y-48921247D01*
X56864285Y-48921247D02*
X56769047Y-48873628D01*
X56769047Y-48873628D02*
X56578571Y-48826009D01*
X56578571Y-48826009D02*
X56483333Y-48778390D01*
X56483333Y-48778390D02*
X56435714Y-48730771D01*
X56435714Y-48730771D02*
X56388095Y-48635533D01*
X56388095Y-48635533D02*
X56388095Y-48540295D01*
X56388095Y-48540295D02*
X56435714Y-48445057D01*
X56435714Y-48445057D02*
X56483333Y-48397438D01*
X56483333Y-48397438D02*
X56578571Y-48349819D01*
X56578571Y-48349819D02*
X56816666Y-48349819D01*
X56816666Y-48349819D02*
X56959523Y-48397438D01*
X57911904Y-49349819D02*
X57340476Y-49349819D01*
X57626190Y-49349819D02*
X57626190Y-48349819D01*
X57626190Y-48349819D02*
X57530952Y-48492676D01*
X57530952Y-48492676D02*
X57435714Y-48587914D01*
X57435714Y-48587914D02*
X57340476Y-48635533D01*
X46291666Y-102029819D02*
X45958333Y-101553628D01*
X45720238Y-102029819D02*
X45720238Y-101029819D01*
X45720238Y-101029819D02*
X46101190Y-101029819D01*
X46101190Y-101029819D02*
X46196428Y-101077438D01*
X46196428Y-101077438D02*
X46244047Y-101125057D01*
X46244047Y-101125057D02*
X46291666Y-101220295D01*
X46291666Y-101220295D02*
X46291666Y-101363152D01*
X46291666Y-101363152D02*
X46244047Y-101458390D01*
X46244047Y-101458390D02*
X46196428Y-101506009D01*
X46196428Y-101506009D02*
X46101190Y-101553628D01*
X46101190Y-101553628D02*
X45720238Y-101553628D01*
X46720238Y-101506009D02*
X47053571Y-101506009D01*
X47196428Y-102029819D02*
X46720238Y-102029819D01*
X46720238Y-102029819D02*
X46720238Y-101029819D01*
X46720238Y-101029819D02*
X47196428Y-101029819D01*
X47958333Y-101506009D02*
X47625000Y-101506009D01*
X47625000Y-102029819D02*
X47625000Y-101029819D01*
X47625000Y-101029819D02*
X48101190Y-101029819D01*
X48625000Y-101029819D02*
X48625000Y-101267914D01*
X48386905Y-101172676D02*
X48625000Y-101267914D01*
X48625000Y-101267914D02*
X48863095Y-101172676D01*
X48482143Y-101458390D02*
X48625000Y-101267914D01*
X48625000Y-101267914D02*
X48767857Y-101458390D01*
X49386905Y-101029819D02*
X49386905Y-101267914D01*
X49148810Y-101172676D02*
X49386905Y-101267914D01*
X49386905Y-101267914D02*
X49625000Y-101172676D01*
X49244048Y-101458390D02*
X49386905Y-101267914D01*
X49386905Y-101267914D02*
X49529762Y-101458390D01*
X94488095Y-46920950D02*
X94630952Y-46968569D01*
X94630952Y-46968569D02*
X94869047Y-46968569D01*
X94869047Y-46968569D02*
X94964285Y-46920950D01*
X94964285Y-46920950D02*
X95011904Y-46873330D01*
X95011904Y-46873330D02*
X95059523Y-46778092D01*
X95059523Y-46778092D02*
X95059523Y-46682854D01*
X95059523Y-46682854D02*
X95011904Y-46587616D01*
X95011904Y-46587616D02*
X94964285Y-46539997D01*
X94964285Y-46539997D02*
X94869047Y-46492378D01*
X94869047Y-46492378D02*
X94678571Y-46444759D01*
X94678571Y-46444759D02*
X94583333Y-46397140D01*
X94583333Y-46397140D02*
X94535714Y-46349521D01*
X94535714Y-46349521D02*
X94488095Y-46254283D01*
X94488095Y-46254283D02*
X94488095Y-46159045D01*
X94488095Y-46159045D02*
X94535714Y-46063807D01*
X94535714Y-46063807D02*
X94583333Y-46016188D01*
X94583333Y-46016188D02*
X94678571Y-45968569D01*
X94678571Y-45968569D02*
X94916666Y-45968569D01*
X94916666Y-45968569D02*
X95059523Y-46016188D01*
X95392857Y-45968569D02*
X96011904Y-45968569D01*
X96011904Y-45968569D02*
X95678571Y-46349521D01*
X95678571Y-46349521D02*
X95821428Y-46349521D01*
X95821428Y-46349521D02*
X95916666Y-46397140D01*
X95916666Y-46397140D02*
X95964285Y-46444759D01*
X95964285Y-46444759D02*
X96011904Y-46539997D01*
X96011904Y-46539997D02*
X96011904Y-46778092D01*
X96011904Y-46778092D02*
X95964285Y-46873330D01*
X95964285Y-46873330D02*
X95916666Y-46920950D01*
X95916666Y-46920950D02*
X95821428Y-46968569D01*
X95821428Y-46968569D02*
X95535714Y-46968569D01*
X95535714Y-46968569D02*
X95440476Y-46920950D01*
X95440476Y-46920950D02*
X95392857Y-46873330D01*
X55911905Y-87402200D02*
X56054762Y-87449819D01*
X56054762Y-87449819D02*
X56292857Y-87449819D01*
X56292857Y-87449819D02*
X56388095Y-87402200D01*
X56388095Y-87402200D02*
X56435714Y-87354580D01*
X56435714Y-87354580D02*
X56483333Y-87259342D01*
X56483333Y-87259342D02*
X56483333Y-87164104D01*
X56483333Y-87164104D02*
X56435714Y-87068866D01*
X56435714Y-87068866D02*
X56388095Y-87021247D01*
X56388095Y-87021247D02*
X56292857Y-86973628D01*
X56292857Y-86973628D02*
X56102381Y-86926009D01*
X56102381Y-86926009D02*
X56007143Y-86878390D01*
X56007143Y-86878390D02*
X55959524Y-86830771D01*
X55959524Y-86830771D02*
X55911905Y-86735533D01*
X55911905Y-86735533D02*
X55911905Y-86640295D01*
X55911905Y-86640295D02*
X55959524Y-86545057D01*
X55959524Y-86545057D02*
X56007143Y-86497438D01*
X56007143Y-86497438D02*
X56102381Y-86449819D01*
X56102381Y-86449819D02*
X56340476Y-86449819D01*
X56340476Y-86449819D02*
X56483333Y-86497438D01*
X57435714Y-87449819D02*
X56864286Y-87449819D01*
X57150000Y-87449819D02*
X57150000Y-86449819D01*
X57150000Y-86449819D02*
X57054762Y-86592676D01*
X57054762Y-86592676D02*
X56959524Y-86687914D01*
X56959524Y-86687914D02*
X56864286Y-86735533D01*
X57769048Y-86449819D02*
X58388095Y-86449819D01*
X58388095Y-86449819D02*
X58054762Y-86830771D01*
X58054762Y-86830771D02*
X58197619Y-86830771D01*
X58197619Y-86830771D02*
X58292857Y-86878390D01*
X58292857Y-86878390D02*
X58340476Y-86926009D01*
X58340476Y-86926009D02*
X58388095Y-87021247D01*
X58388095Y-87021247D02*
X58388095Y-87259342D01*
X58388095Y-87259342D02*
X58340476Y-87354580D01*
X58340476Y-87354580D02*
X58292857Y-87402200D01*
X58292857Y-87402200D02*
X58197619Y-87449819D01*
X58197619Y-87449819D02*
X57911905Y-87449819D01*
X57911905Y-87449819D02*
X57816667Y-87402200D01*
X57816667Y-87402200D02*
X57769048Y-87354580D01*
X113061905Y-104070950D02*
X113204762Y-104118569D01*
X113204762Y-104118569D02*
X113442857Y-104118569D01*
X113442857Y-104118569D02*
X113538095Y-104070950D01*
X113538095Y-104070950D02*
X113585714Y-104023330D01*
X113585714Y-104023330D02*
X113633333Y-103928092D01*
X113633333Y-103928092D02*
X113633333Y-103832854D01*
X113633333Y-103832854D02*
X113585714Y-103737616D01*
X113585714Y-103737616D02*
X113538095Y-103689997D01*
X113538095Y-103689997D02*
X113442857Y-103642378D01*
X113442857Y-103642378D02*
X113252381Y-103594759D01*
X113252381Y-103594759D02*
X113157143Y-103547140D01*
X113157143Y-103547140D02*
X113109524Y-103499521D01*
X113109524Y-103499521D02*
X113061905Y-103404283D01*
X113061905Y-103404283D02*
X113061905Y-103309045D01*
X113061905Y-103309045D02*
X113109524Y-103213807D01*
X113109524Y-103213807D02*
X113157143Y-103166188D01*
X113157143Y-103166188D02*
X113252381Y-103118569D01*
X113252381Y-103118569D02*
X113490476Y-103118569D01*
X113490476Y-103118569D02*
X113633333Y-103166188D01*
X114585714Y-104118569D02*
X114014286Y-104118569D01*
X114300000Y-104118569D02*
X114300000Y-103118569D01*
X114300000Y-103118569D02*
X114204762Y-103261426D01*
X114204762Y-103261426D02*
X114109524Y-103356664D01*
X114109524Y-103356664D02*
X114014286Y-103404283D01*
X115061905Y-104118569D02*
X115252381Y-104118569D01*
X115252381Y-104118569D02*
X115347619Y-104070950D01*
X115347619Y-104070950D02*
X115395238Y-104023330D01*
X115395238Y-104023330D02*
X115490476Y-103880473D01*
X115490476Y-103880473D02*
X115538095Y-103689997D01*
X115538095Y-103689997D02*
X115538095Y-103309045D01*
X115538095Y-103309045D02*
X115490476Y-103213807D01*
X115490476Y-103213807D02*
X115442857Y-103166188D01*
X115442857Y-103166188D02*
X115347619Y-103118569D01*
X115347619Y-103118569D02*
X115157143Y-103118569D01*
X115157143Y-103118569D02*
X115061905Y-103166188D01*
X115061905Y-103166188D02*
X115014286Y-103213807D01*
X115014286Y-103213807D02*
X114966667Y-103309045D01*
X114966667Y-103309045D02*
X114966667Y-103547140D01*
X114966667Y-103547140D02*
X115014286Y-103642378D01*
X115014286Y-103642378D02*
X115061905Y-103689997D01*
X115061905Y-103689997D02*
X115157143Y-103737616D01*
X115157143Y-103737616D02*
X115347619Y-103737616D01*
X115347619Y-103737616D02*
X115442857Y-103689997D01*
X115442857Y-103689997D02*
X115490476Y-103642378D01*
X115490476Y-103642378D02*
X115538095Y-103547140D01*
X160014178Y-114028308D02*
X160114086Y-114140976D01*
X160114086Y-114140976D02*
X160320283Y-114260023D01*
X160320283Y-114260023D02*
X160426571Y-114266403D01*
X160426571Y-114266403D02*
X160491620Y-114248973D01*
X160491620Y-114248973D02*
X160580478Y-114190304D01*
X160580478Y-114190304D02*
X160628097Y-114107825D01*
X160628097Y-114107825D02*
X160634477Y-114001537D01*
X160634477Y-114001537D02*
X160617047Y-113936488D01*
X160617047Y-113936488D02*
X160558378Y-113847630D01*
X160558378Y-113847630D02*
X160417230Y-113711153D01*
X160417230Y-113711153D02*
X160358561Y-113622294D01*
X160358561Y-113622294D02*
X160341132Y-113557246D01*
X160341132Y-113557246D02*
X160347511Y-113450957D01*
X160347511Y-113450957D02*
X160395130Y-113368479D01*
X160395130Y-113368479D02*
X160483989Y-113309810D01*
X160483989Y-113309810D02*
X160549038Y-113292380D01*
X160549038Y-113292380D02*
X160655326Y-113298760D01*
X160655326Y-113298760D02*
X160861522Y-113417807D01*
X160861522Y-113417807D02*
X160961431Y-113530475D01*
X161267536Y-113762191D02*
X161332584Y-113744761D01*
X161332584Y-113744761D02*
X161438872Y-113751141D01*
X161438872Y-113751141D02*
X161645069Y-113870188D01*
X161645069Y-113870188D02*
X161703738Y-113959047D01*
X161703738Y-113959047D02*
X161721168Y-114024095D01*
X161721168Y-114024095D02*
X161714788Y-114130384D01*
X161714788Y-114130384D02*
X161667169Y-114212862D01*
X161667169Y-114212862D02*
X161554501Y-114312771D01*
X161554501Y-114312771D02*
X160773915Y-114521928D01*
X160773915Y-114521928D02*
X161310026Y-114831452D01*
X162134812Y-115307642D02*
X161639941Y-115021928D01*
X161887377Y-115164785D02*
X162387377Y-114298760D01*
X162387377Y-114298760D02*
X162233469Y-114374859D01*
X162233469Y-114374859D02*
X162103372Y-114409718D01*
X162103372Y-114409718D02*
X161997084Y-114403338D01*
X136566502Y-106399164D02*
X136692166Y-106482135D01*
X136692166Y-106482135D02*
X136922149Y-106543758D01*
X136922149Y-106543758D02*
X137026466Y-106522411D01*
X137026466Y-106522411D02*
X137084787Y-106488739D01*
X137084787Y-106488739D02*
X137155433Y-106409071D01*
X137155433Y-106409071D02*
X137180083Y-106317078D01*
X137180083Y-106317078D02*
X137158736Y-106212761D01*
X137158736Y-106212761D02*
X137125064Y-106154439D01*
X137125064Y-106154439D02*
X137045396Y-106083794D01*
X137045396Y-106083794D02*
X136873735Y-105988498D01*
X136873735Y-105988498D02*
X136794066Y-105917852D01*
X136794066Y-105917852D02*
X136760395Y-105859531D01*
X136760395Y-105859531D02*
X136739048Y-105755213D01*
X136739048Y-105755213D02*
X136763697Y-105663220D01*
X136763697Y-105663220D02*
X136834343Y-105583552D01*
X136834343Y-105583552D02*
X136892664Y-105549881D01*
X136892664Y-105549881D02*
X136996982Y-105528533D01*
X136996982Y-105528533D02*
X137226964Y-105590157D01*
X137226964Y-105590157D02*
X137352629Y-105673128D01*
X137708276Y-105817722D02*
X137766597Y-105784050D01*
X137766597Y-105784050D02*
X137870915Y-105762703D01*
X137870915Y-105762703D02*
X138100897Y-105824327D01*
X138100897Y-105824327D02*
X138180565Y-105894973D01*
X138180565Y-105894973D02*
X138214237Y-105953294D01*
X138214237Y-105953294D02*
X138235584Y-106057611D01*
X138235584Y-106057611D02*
X138210935Y-106149604D01*
X138210935Y-106149604D02*
X138127964Y-106275269D01*
X138127964Y-106275269D02*
X137428110Y-106679330D01*
X137428110Y-106679330D02*
X138026064Y-106839551D01*
X138882837Y-106033847D02*
X138974830Y-106058496D01*
X138974830Y-106058496D02*
X139054498Y-106129142D01*
X139054498Y-106129142D02*
X139088170Y-106187463D01*
X139088170Y-106187463D02*
X139109517Y-106291781D01*
X139109517Y-106291781D02*
X139106215Y-106488092D01*
X139106215Y-106488092D02*
X139044591Y-106718074D01*
X139044591Y-106718074D02*
X138949296Y-106889735D01*
X138949296Y-106889735D02*
X138878650Y-106969403D01*
X138878650Y-106969403D02*
X138820329Y-107003075D01*
X138820329Y-107003075D02*
X138716011Y-107024422D01*
X138716011Y-107024422D02*
X138624018Y-106999773D01*
X138624018Y-106999773D02*
X138544350Y-106929127D01*
X138544350Y-106929127D02*
X138510678Y-106870806D01*
X138510678Y-106870806D02*
X138489331Y-106766488D01*
X138489331Y-106766488D02*
X138492633Y-106570177D01*
X138492633Y-106570177D02*
X138554257Y-106340195D01*
X138554257Y-106340195D02*
X138649552Y-106168534D01*
X138649552Y-106168534D02*
X138720198Y-106088866D01*
X138720198Y-106088866D02*
X138778519Y-106055194D01*
X138778519Y-106055194D02*
X138882837Y-106033847D01*
X94488095Y-65970950D02*
X94630952Y-66018569D01*
X94630952Y-66018569D02*
X94869047Y-66018569D01*
X94869047Y-66018569D02*
X94964285Y-65970950D01*
X94964285Y-65970950D02*
X95011904Y-65923330D01*
X95011904Y-65923330D02*
X95059523Y-65828092D01*
X95059523Y-65828092D02*
X95059523Y-65732854D01*
X95059523Y-65732854D02*
X95011904Y-65637616D01*
X95011904Y-65637616D02*
X94964285Y-65589997D01*
X94964285Y-65589997D02*
X94869047Y-65542378D01*
X94869047Y-65542378D02*
X94678571Y-65494759D01*
X94678571Y-65494759D02*
X94583333Y-65447140D01*
X94583333Y-65447140D02*
X94535714Y-65399521D01*
X94535714Y-65399521D02*
X94488095Y-65304283D01*
X94488095Y-65304283D02*
X94488095Y-65209045D01*
X94488095Y-65209045D02*
X94535714Y-65113807D01*
X94535714Y-65113807D02*
X94583333Y-65066188D01*
X94583333Y-65066188D02*
X94678571Y-65018569D01*
X94678571Y-65018569D02*
X94916666Y-65018569D01*
X94916666Y-65018569D02*
X95059523Y-65066188D01*
X95535714Y-66018569D02*
X95726190Y-66018569D01*
X95726190Y-66018569D02*
X95821428Y-65970950D01*
X95821428Y-65970950D02*
X95869047Y-65923330D01*
X95869047Y-65923330D02*
X95964285Y-65780473D01*
X95964285Y-65780473D02*
X96011904Y-65589997D01*
X96011904Y-65589997D02*
X96011904Y-65209045D01*
X96011904Y-65209045D02*
X95964285Y-65113807D01*
X95964285Y-65113807D02*
X95916666Y-65066188D01*
X95916666Y-65066188D02*
X95821428Y-65018569D01*
X95821428Y-65018569D02*
X95630952Y-65018569D01*
X95630952Y-65018569D02*
X95535714Y-65066188D01*
X95535714Y-65066188D02*
X95488095Y-65113807D01*
X95488095Y-65113807D02*
X95440476Y-65209045D01*
X95440476Y-65209045D02*
X95440476Y-65447140D01*
X95440476Y-65447140D02*
X95488095Y-65542378D01*
X95488095Y-65542378D02*
X95535714Y-65589997D01*
X95535714Y-65589997D02*
X95630952Y-65637616D01*
X95630952Y-65637616D02*
X95821428Y-65637616D01*
X95821428Y-65637616D02*
X95916666Y-65589997D01*
X95916666Y-65589997D02*
X95964285Y-65542378D01*
X95964285Y-65542378D02*
X96011904Y-65447140D01*
D11*
G04 #@! TO.C,D12*
X152149999Y-85325001D02*
X152749999Y-85725001D01*
X152149999Y-85725001D02*
X151649999Y-85725001D01*
X152149999Y-86125001D02*
X152149999Y-85325001D01*
X152749999Y-85725001D02*
X152149999Y-86125001D01*
X152749999Y-86275001D02*
X152749999Y-85175001D01*
X153149999Y-85725001D02*
X152749999Y-85725001D01*
G04 #@! TO.C,D17*
X133099999Y-101993751D02*
X133699999Y-102393751D01*
X133099999Y-102393751D02*
X132599999Y-102393751D01*
X133099999Y-102793751D02*
X133099999Y-101993751D01*
X133699999Y-102393751D02*
X133099999Y-102793751D01*
X133699999Y-102943751D02*
X133699999Y-101843751D01*
X134099999Y-102393751D02*
X133699999Y-102393751D01*
G04 #@! TO.C,D21*
X151983493Y-129999535D02*
X152383493Y-129306715D01*
X152183493Y-129653125D02*
X151750480Y-129403125D01*
X152383493Y-129306715D02*
X152703108Y-129953125D01*
X152428108Y-130429439D02*
X152978108Y-129476811D01*
X152703108Y-129953125D02*
X151983493Y-129999535D01*
X153049518Y-130153125D02*
X152703108Y-129953125D01*
G04 #@! TO.C,D2*
X75949999Y-66275001D02*
X76549999Y-66675001D01*
X75949999Y-66675001D02*
X75449999Y-66675001D01*
X75949999Y-67075001D02*
X75949999Y-66275001D01*
X76549999Y-66675001D02*
X75949999Y-67075001D01*
X76549999Y-67225001D02*
X76549999Y-66125001D01*
X76949999Y-66675001D02*
X76549999Y-66675001D01*
D10*
G04 #@! TO.C,S5*
X126350000Y-47768750D02*
X127350000Y-47768750D01*
X126350000Y-48768750D02*
X126350000Y-47768750D01*
X126350000Y-61768750D02*
X126350000Y-60768750D01*
X127350000Y-61768750D02*
X126350000Y-61768750D01*
X139350000Y-47768750D02*
X140350000Y-47768750D01*
X140350000Y-47768750D02*
X140350000Y-48768750D01*
X140350000Y-60768750D02*
X140350000Y-61768750D01*
X140350000Y-61768750D02*
X139350000Y-61768750D01*
D11*
G04 #@! TO.C,D4*
X114049999Y-61512501D02*
X114649999Y-61912501D01*
X114049999Y-61912501D02*
X113549999Y-61912501D01*
X114049999Y-62312501D02*
X114049999Y-61512501D01*
X114649999Y-61912501D02*
X114049999Y-62312501D01*
X114649999Y-62462501D02*
X114649999Y-61362501D01*
X115049999Y-61912501D02*
X114649999Y-61912501D01*
D10*
G04 #@! TO.C,S11*
X126350000Y-66818750D02*
X127350000Y-66818750D01*
X126350000Y-67818750D02*
X126350000Y-66818750D01*
X126350000Y-80818750D02*
X126350000Y-79818750D01*
X127350000Y-80818750D02*
X126350000Y-80818750D01*
X139350000Y-66818750D02*
X140350000Y-66818750D01*
X140350000Y-66818750D02*
X140350000Y-67818750D01*
X140350000Y-79818750D02*
X140350000Y-80818750D01*
X140350000Y-80818750D02*
X139350000Y-80818750D01*
D11*
G04 #@! TO.C,D13*
X56899999Y-104375001D02*
X57499999Y-104775001D01*
X56899999Y-104775001D02*
X56399999Y-104775001D01*
X56899999Y-105175001D02*
X56899999Y-104375001D01*
X57499999Y-104775001D02*
X56899999Y-105175001D01*
X57499999Y-105325001D02*
X57499999Y-104225001D01*
X57899999Y-104775001D02*
X57499999Y-104775001D01*
D10*
G04 #@! TO.C,S7*
X50150000Y-69200000D02*
X51150000Y-69200000D01*
X50150000Y-70200000D02*
X50150000Y-69200000D01*
X50150000Y-83200000D02*
X50150000Y-82200000D01*
X51150000Y-83200000D02*
X50150000Y-83200000D01*
X63150000Y-69200000D02*
X64150000Y-69200000D01*
X64150000Y-69200000D02*
X64150000Y-70200000D01*
X64150000Y-82200000D02*
X64150000Y-83200000D01*
X64150000Y-83200000D02*
X63150000Y-83200000D01*
G04 #@! TO.C,S15*
X88250000Y-85868750D02*
X89250000Y-85868750D01*
X88250000Y-86868750D02*
X88250000Y-85868750D01*
X88250000Y-99868750D02*
X88250000Y-98868750D01*
X89250000Y-99868750D02*
X88250000Y-99868750D01*
X101250000Y-85868750D02*
X102250000Y-85868750D01*
X102250000Y-85868750D02*
X102250000Y-86868750D01*
X102250000Y-98868750D02*
X102250000Y-99868750D01*
X102250000Y-99868750D02*
X101250000Y-99868750D01*
D12*
G04 #@! TO.C,J1*
X163396875Y-96731250D02*
X163396875Y-101331250D01*
X163396875Y-104031250D02*
X163396875Y-102931250D01*
X164996875Y-95931250D02*
X165496875Y-96431250D01*
X165496875Y-96431250D02*
X165996875Y-95931250D01*
X165996875Y-95931250D02*
X164996875Y-95931250D01*
X174796875Y-96731250D02*
X163396875Y-96731250D01*
X174796875Y-96731250D02*
X174796875Y-97031250D01*
X174796875Y-97031250D02*
X177596875Y-97031250D01*
X174796875Y-102831250D02*
X174796875Y-104031250D01*
X174796875Y-102831250D02*
X177596875Y-102831250D01*
X174796875Y-104031250D02*
X163396875Y-104031250D01*
X177596875Y-102831250D02*
X177596875Y-97031250D01*
D11*
G04 #@! TO.C,D15*
X94999999Y-101993751D02*
X95599999Y-102393751D01*
X94999999Y-102393751D02*
X94499999Y-102393751D01*
X94999999Y-102793751D02*
X94999999Y-101993751D01*
X95599999Y-102393751D02*
X94999999Y-102793751D01*
X95599999Y-102943751D02*
X95599999Y-101843751D01*
X95999999Y-102393751D02*
X95599999Y-102393751D01*
G04 #@! TO.C,D9*
X94999999Y-82943751D02*
X95599999Y-83343751D01*
X94999999Y-83343751D02*
X94499999Y-83343751D01*
X94999999Y-83743751D02*
X94999999Y-82943751D01*
X95599999Y-83343751D02*
X94999999Y-83743751D01*
X95599999Y-83893751D02*
X95599999Y-82793751D01*
X95999999Y-83343751D02*
X95599999Y-83343751D01*
G04 #@! TO.C,D11*
X133099999Y-82943751D02*
X133699999Y-83343751D01*
X133099999Y-83343751D02*
X132599999Y-83343751D01*
X133099999Y-83743751D02*
X133099999Y-82943751D01*
X133699999Y-83343751D02*
X133099999Y-83743751D01*
X133699999Y-83893751D02*
X133699999Y-82793751D01*
X134099999Y-83343751D02*
X133699999Y-83343751D01*
G04 #@! TO.C,D7*
X56899999Y-85325001D02*
X57499999Y-85725001D01*
X56899999Y-85725001D02*
X56399999Y-85725001D01*
X56899999Y-86125001D02*
X56899999Y-85325001D01*
X57499999Y-85725001D02*
X56899999Y-86125001D01*
X57499999Y-86275001D02*
X57499999Y-85175001D01*
X57899999Y-85725001D02*
X57499999Y-85725001D01*
G04 #@! TO.C,D20*
X133004991Y-122956041D02*
X133212046Y-122183300D01*
X133108518Y-122569671D02*
X132625555Y-122440261D01*
X133212046Y-122183300D02*
X133688074Y-122724962D01*
X133545723Y-123256221D02*
X133830424Y-122193703D01*
X133688074Y-122724962D02*
X133004991Y-122956041D01*
X134074444Y-122828490D02*
X133688074Y-122724962D01*
G04 #@! TO.C,D10*
X114049999Y-80562501D02*
X114649999Y-80962501D01*
X114049999Y-80962501D02*
X113549999Y-80962501D01*
X114049999Y-81362501D02*
X114049999Y-80562501D01*
X114649999Y-80962501D02*
X114049999Y-81362501D01*
X114649999Y-81512501D02*
X114649999Y-80412501D01*
X115049999Y-80962501D02*
X114649999Y-80962501D01*
G04 #@! TO.C,D18*
X152149999Y-104375000D02*
X152749999Y-104775000D01*
X152149999Y-104775000D02*
X151649999Y-104775000D01*
X152149999Y-105175000D02*
X152149999Y-104375000D01*
X152749999Y-104775000D02*
X152149999Y-105175000D01*
X152749999Y-105325000D02*
X152749999Y-104225000D01*
X153149999Y-104775000D02*
X152749999Y-104775000D01*
D10*
G04 #@! TO.C,S4*
X107300000Y-45387500D02*
X108300000Y-45387500D01*
X107300000Y-46387500D02*
X107300000Y-45387500D01*
X107300000Y-59387500D02*
X107300000Y-58387500D01*
X108300000Y-59387500D02*
X107300000Y-59387500D01*
X120300000Y-45387500D02*
X121300000Y-45387500D01*
X121300000Y-45387500D02*
X121300000Y-46387500D01*
X121300000Y-58387500D02*
X121300000Y-59387500D01*
X121300000Y-59387500D02*
X120300000Y-59387500D01*
D11*
G04 #@! TO.C,D3*
X94999999Y-63893751D02*
X95599999Y-64293751D01*
X94999999Y-64293751D02*
X94499999Y-64293751D01*
X94999999Y-64693751D02*
X94999999Y-63893751D01*
X95599999Y-64293751D02*
X94999999Y-64693751D01*
X95599999Y-64843751D02*
X95599999Y-63743751D01*
X95999999Y-64293751D02*
X95599999Y-64293751D01*
D10*
G04 #@! TO.C,S18*
X145400000Y-88250000D02*
X146400000Y-88250000D01*
X145400000Y-89250000D02*
X145400000Y-88250000D01*
X145400000Y-102250000D02*
X145400000Y-101250000D01*
X146400000Y-102250000D02*
X145400000Y-102250000D01*
X158400000Y-88250000D02*
X159400000Y-88250000D01*
X159400000Y-88250000D02*
X159400000Y-89250000D01*
X159400000Y-101250000D02*
X159400000Y-102250000D01*
X159400000Y-102250000D02*
X158400000Y-102250000D01*
G04 #@! TO.C,S6*
X145400000Y-50150000D02*
X146400000Y-50150000D01*
X145400000Y-51150000D02*
X145400000Y-50150000D01*
X145400000Y-64150000D02*
X145400000Y-63150000D01*
X146400000Y-64150000D02*
X145400000Y-64150000D01*
X158400000Y-50150000D02*
X159400000Y-50150000D01*
X159400000Y-50150000D02*
X159400000Y-51150000D01*
X159400000Y-63150000D02*
X159400000Y-64150000D01*
X159400000Y-64150000D02*
X158400000Y-64150000D01*
G04 #@! TO.C,S17*
X126350000Y-85868750D02*
X127350000Y-85868750D01*
X126350000Y-86868750D02*
X126350000Y-85868750D01*
X126350000Y-99868750D02*
X126350000Y-98868750D01*
X127350000Y-99868750D02*
X126350000Y-99868750D01*
X139350000Y-85868750D02*
X140350000Y-85868750D01*
X140350000Y-85868750D02*
X140350000Y-86868750D01*
X140350000Y-98868750D02*
X140350000Y-99868750D01*
X140350000Y-99868750D02*
X139350000Y-99868750D01*
G04 #@! TO.C,S14*
X69200000Y-88250000D02*
X70200000Y-88250000D01*
X69200000Y-89250000D02*
X69200000Y-88250000D01*
X69200000Y-102250000D02*
X69200000Y-101250000D01*
X70200000Y-102250000D02*
X69200000Y-102250000D01*
X82200000Y-88250000D02*
X83200000Y-88250000D01*
X83200000Y-88250000D02*
X83200000Y-89250000D01*
X83200000Y-101250000D02*
X83200000Y-102250000D01*
X83200000Y-102250000D02*
X82200000Y-102250000D01*
D11*
G04 #@! TO.C,D1*
X56899999Y-66275001D02*
X57499999Y-66675001D01*
X56899999Y-66675001D02*
X56399999Y-66675001D01*
X56899999Y-67075001D02*
X56899999Y-66275001D01*
X57499999Y-66675001D02*
X56899999Y-67075001D01*
X57499999Y-67225001D02*
X57499999Y-66125001D01*
X57899999Y-66675001D02*
X57499999Y-66675001D01*
G04 #@! TO.C,D16*
X114049999Y-99612501D02*
X114649999Y-100012501D01*
X114049999Y-100012501D02*
X113549999Y-100012501D01*
X114049999Y-100412501D02*
X114049999Y-99612501D01*
X114649999Y-100012501D02*
X114049999Y-100412501D01*
X114649999Y-100562501D02*
X114649999Y-99462501D01*
X115049999Y-100012501D02*
X114649999Y-100012501D01*
D10*
G04 #@! TO.C,S8*
X69200000Y-69200000D02*
X70200000Y-69200000D01*
X69200000Y-70200000D02*
X69200000Y-69200000D01*
X69200000Y-83200000D02*
X69200000Y-82200000D01*
X70200000Y-83200000D02*
X69200000Y-83200000D01*
X82200000Y-69200000D02*
X83200000Y-69200000D01*
X83200000Y-69200000D02*
X83200000Y-70200000D01*
X83200000Y-82200000D02*
X83200000Y-83200000D01*
X83200000Y-83200000D02*
X82200000Y-83200000D01*
D11*
G04 #@! TO.C,D5*
X133099999Y-63893751D02*
X133699999Y-64293751D01*
X133099999Y-64293751D02*
X132599999Y-64293751D01*
X133099999Y-64693751D02*
X133099999Y-63893751D01*
X133699999Y-64293751D02*
X133099999Y-64693751D01*
X133699999Y-64843751D02*
X133699999Y-63743751D01*
X134099999Y-64293751D02*
X133699999Y-64293751D01*
G04 #@! TO.C,D14*
X75949999Y-104375001D02*
X76549999Y-104775001D01*
X75949999Y-104775001D02*
X75449999Y-104775001D01*
X75949999Y-105175001D02*
X75949999Y-104375001D01*
X76549999Y-104775001D02*
X75949999Y-105175001D01*
X76549999Y-105325001D02*
X76549999Y-104225001D01*
X76949999Y-104775001D02*
X76549999Y-104775001D01*
D10*
G04 #@! TO.C,S2*
X69200000Y-50150000D02*
X70200000Y-50150000D01*
X69200000Y-51150000D02*
X69200000Y-50150000D01*
X69200000Y-64150000D02*
X69200000Y-63150000D01*
X70200000Y-64150000D02*
X69200000Y-64150000D01*
X82200000Y-50150000D02*
X83200000Y-50150000D01*
X83200000Y-50150000D02*
X83200000Y-51150000D01*
X83200000Y-63150000D02*
X83200000Y-64150000D01*
X83200000Y-64150000D02*
X82200000Y-64150000D01*
G04 #@! TO.C,S16*
X107300000Y-83487500D02*
X108300000Y-83487500D01*
X107300000Y-84487500D02*
X107300000Y-83487500D01*
X107300000Y-97487500D02*
X107300000Y-96487500D01*
X108300000Y-97487500D02*
X107300000Y-97487500D01*
X120300000Y-83487500D02*
X121300000Y-83487500D01*
X121300000Y-83487500D02*
X121300000Y-84487500D01*
X121300000Y-96487500D02*
X121300000Y-97487500D01*
X121300000Y-97487500D02*
X120300000Y-97487500D01*
G04 #@! TO.C,S10*
X107300000Y-64437500D02*
X108300000Y-64437500D01*
X107300000Y-65437500D02*
X107300000Y-64437500D01*
X107300000Y-78437500D02*
X107300000Y-77437500D01*
X108300000Y-78437500D02*
X107300000Y-78437500D01*
X120300000Y-64437500D02*
X121300000Y-64437500D01*
X121300000Y-64437500D02*
X121300000Y-65437500D01*
X121300000Y-77437500D02*
X121300000Y-78437500D01*
X121300000Y-78437500D02*
X120300000Y-78437500D01*
G04 #@! TO.C,S12*
X145400000Y-69200000D02*
X146400000Y-69200000D01*
X145400000Y-70200000D02*
X145400000Y-69200000D01*
X145400000Y-83200000D02*
X145400000Y-82200000D01*
X146400000Y-83200000D02*
X145400000Y-83200000D01*
X158400000Y-69200000D02*
X159400000Y-69200000D01*
X159400000Y-69200000D02*
X159400000Y-70200000D01*
X159400000Y-82200000D02*
X159400000Y-83200000D01*
X159400000Y-83200000D02*
X158400000Y-83200000D01*
G04 #@! TO.C,S1*
X50150000Y-50150000D02*
X51150000Y-50150000D01*
X50150000Y-51150000D02*
X50150000Y-50150000D01*
X50150000Y-64150000D02*
X50150000Y-63150000D01*
X51150000Y-64150000D02*
X50150000Y-64150000D01*
X63150000Y-50150000D02*
X64150000Y-50150000D01*
X64150000Y-50150000D02*
X64150000Y-51150000D01*
X64150000Y-63150000D02*
X64150000Y-64150000D01*
X64150000Y-64150000D02*
X63150000Y-64150000D01*
G04 #@! TO.C,S3*
X88250000Y-47768750D02*
X89250000Y-47768750D01*
X88250000Y-48768750D02*
X88250000Y-47768750D01*
X88250000Y-61768750D02*
X88250000Y-60768750D01*
X89250000Y-61768750D02*
X88250000Y-61768750D01*
X101250000Y-47768750D02*
X102250000Y-47768750D01*
X102250000Y-47768750D02*
X102250000Y-48768750D01*
X102250000Y-60768750D02*
X102250000Y-61768750D01*
X102250000Y-61768750D02*
X101250000Y-61768750D01*
G04 #@! TO.C,S13*
X50150000Y-88250000D02*
X51150000Y-88250000D01*
X50150000Y-89250000D02*
X50150000Y-88250000D01*
X50150000Y-102250000D02*
X50150000Y-101250000D01*
X51150000Y-102250000D02*
X50150000Y-102250000D01*
X63150000Y-88250000D02*
X64150000Y-88250000D01*
X64150000Y-88250000D02*
X64150000Y-89250000D01*
X64150000Y-101250000D02*
X64150000Y-102250000D01*
X64150000Y-102250000D02*
X63150000Y-102250000D01*
D11*
G04 #@! TO.C,D19*
X114049999Y-121043751D02*
X114649999Y-121443751D01*
X114049999Y-121443751D02*
X113549999Y-121443751D01*
X114049999Y-121843751D02*
X114049999Y-121043751D01*
X114649999Y-121443751D02*
X114049999Y-121843751D01*
X114649999Y-121993751D02*
X114649999Y-120893751D01*
X115049999Y-121443751D02*
X114649999Y-121443751D01*
G04 #@! TO.C,D8*
X75949999Y-85325001D02*
X76549999Y-85725001D01*
X75949999Y-85725001D02*
X75449999Y-85725001D01*
X75949999Y-86125001D02*
X75949999Y-85325001D01*
X76549999Y-85725001D02*
X75949999Y-86125001D01*
X76549999Y-86275001D02*
X76549999Y-85175001D01*
X76949999Y-85725001D02*
X76549999Y-85725001D01*
D10*
G04 #@! TO.C,S19*
X107300000Y-104918750D02*
X108300000Y-104918750D01*
X107300000Y-105918750D02*
X107300000Y-104918750D01*
X107300000Y-118918750D02*
X107300000Y-117918750D01*
X108300000Y-118918750D02*
X107300000Y-118918750D01*
X120300000Y-104918750D02*
X121300000Y-104918750D01*
X121300000Y-104918750D02*
X121300000Y-105918750D01*
X121300000Y-117918750D02*
X121300000Y-118918750D01*
X121300000Y-118918750D02*
X120300000Y-118918750D01*
G04 #@! TO.C,S21*
X147600322Y-124005928D02*
X148100322Y-123139902D01*
X148466348Y-124505928D02*
X147600322Y-124005928D01*
X154100322Y-112747598D02*
X154600322Y-111881572D01*
X154600322Y-111881572D02*
X155466348Y-112381572D01*
X159724678Y-131005928D02*
X158858652Y-130505928D01*
X160224678Y-130139902D02*
X159724678Y-131005928D01*
X165858652Y-118381572D02*
X166724678Y-118881572D01*
X166724678Y-118881572D02*
X166224678Y-119747598D01*
D11*
G04 #@! TO.C,D6*
X152149999Y-66275001D02*
X152749999Y-66675001D01*
X152149999Y-66675001D02*
X151649999Y-66675001D01*
X152149999Y-67075001D02*
X152149999Y-66275001D01*
X152749999Y-66675001D02*
X152149999Y-67075001D01*
X152749999Y-67225001D02*
X152749999Y-66125001D01*
X153149999Y-66675001D02*
X152749999Y-66675001D01*
D10*
G04 #@! TO.C,S20*
X127158036Y-119249747D02*
X127416855Y-118283822D01*
X128123962Y-119508567D02*
X127158036Y-119249747D01*
X130522683Y-106692712D02*
X130781503Y-105726786D01*
X130781503Y-105726786D02*
X131747428Y-105985605D01*
X140680997Y-122873214D02*
X139715072Y-122614395D01*
X140939817Y-121907288D02*
X140680997Y-122873214D01*
X143338538Y-109091433D02*
X144304464Y-109350253D01*
X144304464Y-109350253D02*
X144045645Y-110316178D01*
G04 #@! TO.C,S9*
X88250000Y-66818750D02*
X89250000Y-66818750D01*
X88250000Y-67818750D02*
X88250000Y-66818750D01*
X88250000Y-80818750D02*
X88250000Y-79818750D01*
X89250000Y-80818750D02*
X88250000Y-80818750D01*
X101250000Y-66818750D02*
X102250000Y-66818750D01*
X102250000Y-66818750D02*
X102250000Y-67818750D01*
X102250000Y-79818750D02*
X102250000Y-80818750D01*
X102250000Y-80818750D02*
X101250000Y-80818750D01*
G04 #@! TD*
%LPC*%
D13*
G04 #@! TO.C,D12*
X156209999Y-85725001D03*
D14*
X148589999Y-85725001D03*
G04 #@! TD*
D13*
G04 #@! TO.C,D17*
X137159999Y-102393751D03*
D14*
X129539999Y-102393751D03*
G04 #@! TD*
D15*
G04 #@! TO.C,D21*
X155699556Y-131683125D03*
D16*
X149100442Y-127873125D03*
G04 #@! TD*
D13*
G04 #@! TO.C,D2*
X80009999Y-66675001D03*
D14*
X72389999Y-66675001D03*
G04 #@! TD*
D17*
G04 #@! TO.C,S5*
X128270000Y-54768750D03*
D18*
X133350000Y-54768750D03*
D17*
X138430000Y-54768750D03*
D19*
X129540000Y-52228750D03*
X130810000Y-49688750D03*
X135890000Y-49688750D03*
X137160000Y-52228750D03*
G04 #@! TD*
D13*
G04 #@! TO.C,D4*
X118109999Y-61912501D03*
D14*
X110489999Y-61912501D03*
G04 #@! TD*
D17*
G04 #@! TO.C,S11*
X128270000Y-73818750D03*
D18*
X133350000Y-73818750D03*
D17*
X138430000Y-73818750D03*
D19*
X129540000Y-71278750D03*
X130810000Y-68738750D03*
X135890000Y-68738750D03*
X137160000Y-71278750D03*
G04 #@! TD*
D13*
G04 #@! TO.C,D13*
X60959999Y-104775001D03*
D14*
X53339999Y-104775001D03*
G04 #@! TD*
D20*
G04 #@! TO.C,REF\u002A\u002A*
X160734375Y-134540625D03*
G04 #@! TD*
D17*
G04 #@! TO.C,S7*
X52070000Y-76200000D03*
D18*
X57150000Y-76200000D03*
D17*
X62230000Y-76200000D03*
D19*
X53340000Y-73660000D03*
X54610000Y-71120000D03*
X59690000Y-71120000D03*
X60960000Y-73660000D03*
G04 #@! TD*
D17*
G04 #@! TO.C,S15*
X90170000Y-92868750D03*
D18*
X95250000Y-92868750D03*
D17*
X100330000Y-92868750D03*
D19*
X91440000Y-90328750D03*
X92710000Y-87788750D03*
X97790000Y-87788750D03*
X99060000Y-90328750D03*
G04 #@! TD*
D21*
G04 #@! TO.C,J1*
X171196875Y-99931250D03*
X164196875Y-99931250D03*
D22*
X172496875Y-103131250D03*
X169496875Y-97631250D03*
X172496875Y-97631250D03*
X163996875Y-102131250D03*
D23*
X165496875Y-97631250D03*
G04 #@! TD*
D13*
G04 #@! TO.C,D15*
X99059999Y-102393751D03*
D14*
X91439999Y-102393751D03*
G04 #@! TD*
D13*
G04 #@! TO.C,D9*
X99059999Y-83343751D03*
D14*
X91439999Y-83343751D03*
G04 #@! TD*
D13*
G04 #@! TO.C,D11*
X137159999Y-83343751D03*
D14*
X129539999Y-83343751D03*
G04 #@! TD*
D13*
G04 #@! TO.C,D7*
X60959999Y-85725001D03*
D14*
X53339999Y-85725001D03*
G04 #@! TD*
D20*
G04 #@! TO.C,REF\u002A\u002A*
X104775000Y-121443750D03*
G04 #@! TD*
D24*
G04 #@! TO.C,D20*
X137030177Y-123620476D03*
D25*
X129669822Y-121648275D03*
G04 #@! TD*
D13*
G04 #@! TO.C,D10*
X118109999Y-80962501D03*
D14*
X110489999Y-80962501D03*
G04 #@! TD*
D13*
G04 #@! TO.C,D18*
X156209999Y-104775000D03*
D14*
X148589999Y-104775000D03*
G04 #@! TD*
D17*
G04 #@! TO.C,S4*
X109220000Y-52387500D03*
D18*
X114300000Y-52387500D03*
D17*
X119380000Y-52387500D03*
D19*
X110490000Y-49847500D03*
X111760000Y-47307500D03*
X116840000Y-47307500D03*
X118110000Y-49847500D03*
G04 #@! TD*
D13*
G04 #@! TO.C,D3*
X99059999Y-64293751D03*
D14*
X91439999Y-64293751D03*
G04 #@! TD*
D17*
G04 #@! TO.C,S18*
X147320000Y-95250000D03*
D18*
X152400000Y-95250000D03*
D17*
X157480000Y-95250000D03*
D19*
X148590000Y-92710000D03*
X149860000Y-90170000D03*
X154940000Y-90170000D03*
X156210000Y-92710000D03*
G04 #@! TD*
D17*
G04 #@! TO.C,S6*
X147320000Y-57150000D03*
D18*
X152400000Y-57150000D03*
D17*
X157480000Y-57150000D03*
D19*
X148590000Y-54610000D03*
X149860000Y-52070000D03*
X154940000Y-52070000D03*
X156210000Y-54610000D03*
G04 #@! TD*
D20*
G04 #@! TO.C,REF\u002A\u002A*
X161925000Y-47625000D03*
G04 #@! TD*
D17*
G04 #@! TO.C,S17*
X128270000Y-92868750D03*
D18*
X133350000Y-92868750D03*
D17*
X138430000Y-92868750D03*
D19*
X129540000Y-90328750D03*
X130810000Y-87788750D03*
X135890000Y-87788750D03*
X137160000Y-90328750D03*
G04 #@! TD*
D17*
G04 #@! TO.C,S14*
X71120000Y-95250000D03*
D18*
X76200000Y-95250000D03*
D17*
X81280000Y-95250000D03*
D19*
X72390000Y-92710000D03*
X73660000Y-90170000D03*
X78740000Y-90170000D03*
X80010000Y-92710000D03*
G04 #@! TD*
D20*
G04 #@! TO.C,REF\u002A\u002A*
X47625000Y-47625000D03*
G04 #@! TD*
D13*
G04 #@! TO.C,D1*
X60959999Y-66675001D03*
D14*
X53339999Y-66675001D03*
G04 #@! TD*
D20*
G04 #@! TO.C,REF\u002A\u002A*
X104775000Y-82153125D03*
G04 #@! TD*
D13*
G04 #@! TO.C,D16*
X118109999Y-100012501D03*
D14*
X110489999Y-100012501D03*
G04 #@! TD*
D17*
G04 #@! TO.C,S8*
X71120000Y-76200000D03*
D18*
X76200000Y-76200000D03*
D17*
X81280000Y-76200000D03*
D19*
X72390000Y-73660000D03*
X73660000Y-71120000D03*
X78740000Y-71120000D03*
X80010000Y-73660000D03*
G04 #@! TD*
D13*
G04 #@! TO.C,D5*
X137159999Y-64293751D03*
D14*
X129539999Y-64293751D03*
G04 #@! TD*
D13*
G04 #@! TO.C,D14*
X80009999Y-104775001D03*
D14*
X72389999Y-104775001D03*
G04 #@! TD*
D17*
G04 #@! TO.C,S2*
X71120000Y-57150000D03*
D18*
X76200000Y-57150000D03*
D17*
X81280000Y-57150000D03*
D19*
X72390000Y-54610000D03*
X73660000Y-52070000D03*
X78740000Y-52070000D03*
X80010000Y-54610000D03*
G04 #@! TD*
D26*
G04 #@! TO.C,U1*
X180046250Y-53419375D03*
X180046250Y-55959375D03*
X180046250Y-58499375D03*
X180046250Y-61039375D03*
X180046250Y-63579375D03*
X180046250Y-66119375D03*
X180046250Y-68659375D03*
X180046250Y-71199375D03*
X180046250Y-73739375D03*
D27*
X177006250Y-74239375D03*
X174466250Y-74239375D03*
X171926250Y-74239375D03*
X169386250Y-74239375D03*
X166846250Y-74239375D03*
D26*
X163806250Y-73739375D03*
X163806250Y-71199375D03*
X163806250Y-68659375D03*
X163806250Y-66119375D03*
X163806250Y-63579375D03*
X163806250Y-61039375D03*
X163806250Y-58499375D03*
X163806250Y-55959375D03*
X163806250Y-53419375D03*
G04 #@! TD*
D17*
G04 #@! TO.C,S16*
X109220000Y-90487500D03*
D18*
X114300000Y-90487500D03*
D17*
X119380000Y-90487500D03*
D19*
X110490000Y-87947500D03*
X111760000Y-85407500D03*
X116840000Y-85407500D03*
X118110000Y-87947500D03*
G04 #@! TD*
D17*
G04 #@! TO.C,S10*
X109220000Y-71437500D03*
D18*
X114300000Y-71437500D03*
D17*
X119380000Y-71437500D03*
D19*
X110490000Y-68897500D03*
X111760000Y-66357500D03*
X116840000Y-66357500D03*
X118110000Y-68897500D03*
G04 #@! TD*
D17*
G04 #@! TO.C,S12*
X147320000Y-76200000D03*
D18*
X152400000Y-76200000D03*
D17*
X157480000Y-76200000D03*
D19*
X148590000Y-73660000D03*
X149860000Y-71120000D03*
X154940000Y-71120000D03*
X156210000Y-73660000D03*
G04 #@! TD*
D17*
G04 #@! TO.C,S1*
X52070000Y-57150000D03*
D18*
X57150000Y-57150000D03*
D17*
X62230000Y-57150000D03*
D19*
X53340000Y-54610000D03*
X54610000Y-52070000D03*
X59690000Y-52070000D03*
X60960000Y-54610000D03*
G04 #@! TD*
D20*
G04 #@! TO.C,REF\u002A\u002A*
X47625000Y-104775000D03*
G04 #@! TD*
D17*
G04 #@! TO.C,S3*
X90170000Y-54768750D03*
D18*
X95250000Y-54768750D03*
D17*
X100330000Y-54768750D03*
D19*
X91440000Y-52228750D03*
X92710000Y-49688750D03*
X97790000Y-49688750D03*
X99060000Y-52228750D03*
G04 #@! TD*
D17*
G04 #@! TO.C,S13*
X52070000Y-95250000D03*
D18*
X57150000Y-95250000D03*
D17*
X62230000Y-95250000D03*
D19*
X53340000Y-92710000D03*
X54610000Y-90170000D03*
X59690000Y-90170000D03*
X60960000Y-92710000D03*
G04 #@! TD*
D13*
G04 #@! TO.C,D19*
X118109999Y-121443751D03*
D14*
X110489999Y-121443751D03*
G04 #@! TD*
D13*
G04 #@! TO.C,D8*
X80009999Y-85725001D03*
D14*
X72389999Y-85725001D03*
G04 #@! TD*
D17*
G04 #@! TO.C,S19*
X109220000Y-111918750D03*
D18*
X114300000Y-111918750D03*
D17*
X119380000Y-111918750D03*
D19*
X110490000Y-109378750D03*
X111760000Y-106838750D03*
X116840000Y-106838750D03*
X118110000Y-109378750D03*
G04 #@! TD*
D17*
G04 #@! TO.C,S21*
X152763091Y-118903750D03*
D18*
X157162500Y-121443750D03*
D17*
X161561909Y-123983750D03*
D19*
X155132943Y-117339045D03*
X157502795Y-115774341D03*
X161902205Y-118314341D03*
X161732057Y-121149045D03*
G04 #@! TD*
D13*
G04 #@! TO.C,D6*
X156209999Y-66675001D03*
D14*
X148589999Y-66675001D03*
G04 #@! TD*
D17*
G04 #@! TO.C,S20*
X130824347Y-112985199D03*
D18*
X135731250Y-114300000D03*
D17*
X140638153Y-115614801D03*
D19*
X132708473Y-110860448D03*
X134592599Y-108735696D03*
X139499502Y-110050497D03*
X140068828Y-112832649D03*
G04 #@! TD*
D17*
G04 #@! TO.C,S9*
X90170000Y-73818750D03*
D18*
X95250000Y-73818750D03*
D17*
X100330000Y-73818750D03*
D19*
X91440000Y-71278750D03*
X92710000Y-68738750D03*
X97790000Y-68738750D03*
X99060000Y-71278750D03*
G04 #@! TD*
D21*
G04 #@! TO.C,J2*
X164196878Y-91678122D03*
X171196878Y-91678122D03*
D22*
X172496878Y-88478122D03*
X169496878Y-93978122D03*
X172496878Y-93978122D03*
X163996878Y-89478122D03*
D23*
X165496878Y-93978122D03*
G04 #@! TD*
%LPD*%
M02*
