%TF.GenerationSoftware,KiCad,Pcbnew,8.0.4*%
%TF.CreationDate,2024-09-10T22:18:47+03:00*%
%TF.ProjectId,muikku42,6d75696b-6b75-4343-922e-6b696361645f,rev?*%
%TF.SameCoordinates,Original*%
%TF.FileFunction,Drillmap*%
%TF.FilePolarity,Positive*%
%FSLAX45Y45*%
G04 Gerber Fmt 4.5, Leading zero omitted, Abs format (unit mm)*
G04 Created by KiCad (PCBNEW 8.0.4) date 2024-09-10 22:18:47*
%MOMM*%
%LPD*%
G01*
G04 APERTURE LIST*
%ADD10C,0.050000*%
%ADD11C,0.200000*%
%ADD12C,0.100000*%
%ADD13C,0.149860*%
G04 APERTURE END LIST*
D10*
X16668750Y-6667500D02*
X17740313Y-6667500D01*
X17740313Y-7164687D01*
X16668750Y-7164687D01*
X16668750Y-6667500D01*
X14763750Y-4405313D02*
X16668750Y-4405313D01*
X17145000Y-4762500D01*
X18097500Y-4762500D01*
X18335625Y-5000625D01*
X18335625Y-8096250D01*
X17859375Y-8334375D01*
X17859375Y-10477500D01*
X17502188Y-10715625D01*
X17502188Y-11787187D01*
X16311562Y-13811250D01*
X15716250Y-13811250D01*
X14168437Y-12858750D01*
X12382500Y-12382500D01*
X10358438Y-12382500D01*
X10120313Y-12144375D01*
X10120313Y-10953750D01*
X9882188Y-10715625D01*
X8572500Y-10715625D01*
X8334375Y-10953750D01*
X4762500Y-10953750D01*
X4405313Y-10596563D01*
X4405313Y-4643438D01*
X4643438Y-4405313D01*
X5238750Y-4405313D01*
X5476875Y-4524375D01*
X8215312Y-4524375D01*
X8453438Y-4405313D01*
X10001250Y-4405313D01*
X10358438Y-4167187D01*
X14525625Y-4167187D01*
X14763750Y-4405313D01*
D11*
D12*
X15885000Y-7748402D02*
X15915000Y-7778402D01*
X15915000Y-7748402D02*
X15885000Y-7778402D01*
X15925000Y-8557500D02*
X15955000Y-8587500D01*
X15955000Y-8557500D02*
X15925000Y-8587500D01*
X16415625Y-8319375D02*
X16445625Y-8349375D01*
X16445625Y-8319375D02*
X16415625Y-8349375D01*
X16515625Y-7748402D02*
X16545625Y-7778402D01*
X16545625Y-7748402D02*
X16515625Y-7778402D01*
X18082500Y-4985625D02*
X18112500Y-5015625D01*
X18112500Y-4985625D02*
X18082500Y-5015625D01*
X16429687Y-10213125D02*
G75*
G02*
X16369687Y-10213125I-30000J0D01*
G01*
X16369687Y-10213125D02*
G75*
G02*
X16429687Y-10213125I30000J0D01*
G01*
X16429687Y-10183125D02*
X16369687Y-10183125D01*
X16369687Y-10243125D02*
G75*
G02*
X16369687Y-10183125I0J30000D01*
G01*
X16369687Y-10243125D02*
X16429687Y-10243125D01*
X16429687Y-10243125D02*
G75*
G03*
X16429687Y-10183125I0J30000D01*
G01*
X16429688Y-8947812D02*
G75*
G02*
X16369688Y-8947812I-30000J0D01*
G01*
X16369688Y-8947812D02*
G75*
G02*
X16429688Y-8947812I30000J0D01*
G01*
X16429688Y-8917812D02*
X16369688Y-8917812D01*
X16369688Y-8977812D02*
G75*
G02*
X16369688Y-8917812I0J30000D01*
G01*
X16369688Y-8977812D02*
X16429688Y-8977812D01*
X16429688Y-8977812D02*
G75*
G03*
X16429688Y-8917812I0J30000D01*
G01*
X16579687Y-9763125D02*
G75*
G02*
X16519687Y-9763125I-30000J0D01*
G01*
X16519687Y-9763125D02*
G75*
G02*
X16579687Y-9763125I30000J0D01*
G01*
X16579687Y-9733125D02*
X16519687Y-9733125D01*
X16519687Y-9793125D02*
G75*
G02*
X16519687Y-9733125I0J30000D01*
G01*
X16519687Y-9793125D02*
X16579687Y-9793125D01*
X16579687Y-9793125D02*
G75*
G03*
X16579687Y-9733125I0J30000D01*
G01*
X16579688Y-9397812D02*
G75*
G02*
X16519688Y-9397812I-30000J0D01*
G01*
X16519688Y-9397812D02*
G75*
G02*
X16579688Y-9397812I30000J0D01*
G01*
X16579688Y-9367812D02*
X16519688Y-9367812D01*
X16519688Y-9427812D02*
G75*
G02*
X16519688Y-9367812I0J30000D01*
G01*
X16519688Y-9427812D02*
X16579688Y-9427812D01*
X16579688Y-9427812D02*
G75*
G03*
X16579688Y-9367812I0J30000D01*
G01*
X16979688Y-9763125D02*
G75*
G02*
X16919688Y-9763125I-30000J0D01*
G01*
X16919688Y-9763125D02*
G75*
G02*
X16979688Y-9763125I30000J0D01*
G01*
X16979688Y-9733125D02*
X16919688Y-9733125D01*
X16919688Y-9793125D02*
G75*
G02*
X16919688Y-9733125I0J30000D01*
G01*
X16919688Y-9793125D02*
X16979688Y-9793125D01*
X16979688Y-9793125D02*
G75*
G03*
X16979688Y-9733125I0J30000D01*
G01*
X16979688Y-9397812D02*
G75*
G02*
X16919688Y-9397812I-30000J0D01*
G01*
X16919688Y-9397812D02*
G75*
G02*
X16979688Y-9397812I30000J0D01*
G01*
X16979688Y-9367812D02*
X16919688Y-9367812D01*
X16919688Y-9427812D02*
G75*
G02*
X16919688Y-9367812I0J30000D01*
G01*
X16919688Y-9427812D02*
X16979688Y-9427812D01*
X16979688Y-9427812D02*
G75*
G03*
X16979688Y-9367812I0J30000D01*
G01*
X17279688Y-9763125D02*
G75*
G02*
X17219688Y-9763125I-30000J0D01*
G01*
X17219688Y-9763125D02*
G75*
G02*
X17279688Y-9763125I30000J0D01*
G01*
X17279688Y-9733125D02*
X17219688Y-9733125D01*
X17219688Y-9793125D02*
G75*
G02*
X17219688Y-9733125I0J30000D01*
G01*
X17219688Y-9793125D02*
X17279688Y-9793125D01*
X17279688Y-9793125D02*
G75*
G03*
X17279688Y-9733125I0J30000D01*
G01*
X17279688Y-10313125D02*
G75*
G02*
X17219688Y-10313125I-30000J0D01*
G01*
X17219688Y-10313125D02*
G75*
G02*
X17279688Y-10313125I30000J0D01*
G01*
X17279688Y-10283125D02*
X17219688Y-10283125D01*
X17219688Y-10343125D02*
G75*
G02*
X17219688Y-10283125I0J30000D01*
G01*
X17219688Y-10343125D02*
X17279688Y-10343125D01*
X17279688Y-10343125D02*
G75*
G03*
X17279688Y-10283125I0J30000D01*
G01*
X17279688Y-8847812D02*
G75*
G02*
X17219688Y-8847812I-30000J0D01*
G01*
X17219688Y-8847812D02*
G75*
G02*
X17279688Y-8847812I30000J0D01*
G01*
X17279688Y-8817812D02*
X17219688Y-8817812D01*
X17219688Y-8877812D02*
G75*
G02*
X17219688Y-8817812I0J30000D01*
G01*
X17219688Y-8877812D02*
X17279688Y-8877812D01*
X17279688Y-8877812D02*
G75*
G03*
X17279688Y-8817812I0J30000D01*
G01*
X17279688Y-9397812D02*
G75*
G02*
X17219688Y-9397812I-30000J0D01*
G01*
X17219688Y-9397812D02*
G75*
G02*
X17279688Y-9397812I30000J0D01*
G01*
X17279688Y-9367812D02*
X17219688Y-9367812D01*
X17219688Y-9427812D02*
G75*
G02*
X17219688Y-9367812I0J30000D01*
G01*
X17219688Y-9427812D02*
X17279688Y-9427812D01*
X17279688Y-9427812D02*
G75*
G03*
X17279688Y-9367812I0J30000D01*
G01*
X5334000Y-6627500D02*
X5334000Y-6707500D01*
X5294000Y-6667500D02*
X5374000Y-6667500D01*
X5334000Y-8532500D02*
X5334000Y-8612500D01*
X5294000Y-8572500D02*
X5374000Y-8572500D01*
X5334000Y-10437500D02*
X5334000Y-10517500D01*
X5294000Y-10477500D02*
X5374000Y-10477500D01*
X6096000Y-6627500D02*
X6096000Y-6707500D01*
X6056000Y-6667500D02*
X6136000Y-6667500D01*
X6096000Y-8532500D02*
X6096000Y-8612500D01*
X6056000Y-8572500D02*
X6136000Y-8572500D01*
X6096000Y-10437500D02*
X6096000Y-10517500D01*
X6056000Y-10477500D02*
X6136000Y-10477500D01*
X7239000Y-6627500D02*
X7239000Y-6707500D01*
X7199000Y-6667500D02*
X7279000Y-6667500D01*
X7239000Y-8532500D02*
X7239000Y-8612500D01*
X7199000Y-8572500D02*
X7279000Y-8572500D01*
X7239000Y-10437500D02*
X7239000Y-10517500D01*
X7199000Y-10477500D02*
X7279000Y-10477500D01*
X8001000Y-6627500D02*
X8001000Y-6707500D01*
X7961000Y-6667500D02*
X8041000Y-6667500D01*
X8001000Y-8532500D02*
X8001000Y-8612500D01*
X7961000Y-8572500D02*
X8041000Y-8572500D01*
X8001000Y-10437500D02*
X8001000Y-10517500D01*
X7961000Y-10477500D02*
X8041000Y-10477500D01*
X9144000Y-6389375D02*
X9144000Y-6469375D01*
X9104000Y-6429375D02*
X9184000Y-6429375D01*
X9144000Y-8294375D02*
X9144000Y-8374375D01*
X9104000Y-8334375D02*
X9184000Y-8334375D01*
X9144000Y-10199375D02*
X9144000Y-10279375D01*
X9104000Y-10239375D02*
X9184000Y-10239375D01*
X9906000Y-6389375D02*
X9906000Y-6469375D01*
X9866000Y-6429375D02*
X9946000Y-6429375D01*
X9906000Y-8294375D02*
X9906000Y-8374375D01*
X9866000Y-8334375D02*
X9946000Y-8334375D01*
X9906000Y-10199375D02*
X9906000Y-10279375D01*
X9866000Y-10239375D02*
X9946000Y-10239375D01*
X11049000Y-6151250D02*
X11049000Y-6231250D01*
X11009000Y-6191250D02*
X11089000Y-6191250D01*
X11049000Y-8056250D02*
X11049000Y-8136250D01*
X11009000Y-8096250D02*
X11089000Y-8096250D01*
X11049000Y-9961250D02*
X11049000Y-10041250D01*
X11009000Y-10001250D02*
X11089000Y-10001250D01*
X11049000Y-12104375D02*
X11049000Y-12184375D01*
X11009000Y-12144375D02*
X11089000Y-12144375D01*
X11811000Y-6151250D02*
X11811000Y-6231250D01*
X11771000Y-6191250D02*
X11851000Y-6191250D01*
X11811000Y-8056250D02*
X11811000Y-8136250D01*
X11771000Y-8096250D02*
X11851000Y-8096250D01*
X11811000Y-9961250D02*
X11811000Y-10041250D01*
X11771000Y-10001250D02*
X11851000Y-10001250D01*
X11811000Y-12104375D02*
X11811000Y-12184375D01*
X11771000Y-12144375D02*
X11851000Y-12144375D01*
X12954000Y-6389375D02*
X12954000Y-6469375D01*
X12914000Y-6429375D02*
X12994000Y-6429375D01*
X12954000Y-8294375D02*
X12954000Y-8374375D01*
X12914000Y-8334375D02*
X12994000Y-8334375D01*
X12954000Y-10199375D02*
X12954000Y-10279375D01*
X12914000Y-10239375D02*
X12994000Y-10239375D01*
X12966982Y-12124827D02*
X12966982Y-12204827D01*
X12926982Y-12164827D02*
X13006982Y-12164827D01*
X13703018Y-12322048D02*
X13703018Y-12402048D01*
X13663018Y-12362048D02*
X13743018Y-12362048D01*
X13716000Y-6389375D02*
X13716000Y-6469375D01*
X13676000Y-6429375D02*
X13756000Y-6429375D01*
X13716000Y-8294375D02*
X13716000Y-8374375D01*
X13676000Y-8334375D02*
X13756000Y-8334375D01*
X13716000Y-10199375D02*
X13716000Y-10279375D01*
X13676000Y-10239375D02*
X13756000Y-10239375D01*
X14859000Y-6627500D02*
X14859000Y-6707500D01*
X14819000Y-6667500D02*
X14899000Y-6667500D01*
X14859000Y-8532500D02*
X14859000Y-8612500D01*
X14819000Y-8572500D02*
X14899000Y-8572500D01*
X14859000Y-10437500D02*
X14859000Y-10517500D01*
X14819000Y-10477500D02*
X14899000Y-10477500D01*
X14910044Y-12747312D02*
X14910044Y-12827312D01*
X14870044Y-12787312D02*
X14950044Y-12787312D01*
X15569956Y-13128312D02*
X15569956Y-13208312D01*
X15529956Y-13168312D02*
X15609956Y-13168312D01*
X15621000Y-6627500D02*
X15621000Y-6707500D01*
X15581000Y-6667500D02*
X15661000Y-6667500D01*
X15621000Y-8532500D02*
X15621000Y-8612500D01*
X15581000Y-8572500D02*
X15661000Y-8572500D01*
X15621000Y-10437500D02*
X15621000Y-10517500D01*
X15581000Y-10477500D02*
X15661000Y-10477500D01*
X16465981Y-5377293D02*
X16465981Y-5306582D01*
X16395269Y-5306582D01*
X16395269Y-5377293D01*
X16465981Y-5377293D01*
X16465981Y-5631293D02*
X16465981Y-5560582D01*
X16395269Y-5560582D01*
X16395269Y-5631293D01*
X16465981Y-5631293D01*
X16465981Y-5885293D02*
X16465981Y-5814582D01*
X16395269Y-5814582D01*
X16395269Y-5885293D01*
X16465981Y-5885293D01*
X16465981Y-6139293D02*
X16465981Y-6068582D01*
X16395269Y-6068582D01*
X16395269Y-6139293D01*
X16465981Y-6139293D01*
X16465981Y-6393293D02*
X16465981Y-6322582D01*
X16395269Y-6322582D01*
X16395269Y-6393293D01*
X16465981Y-6393293D01*
X16465981Y-6647293D02*
X16465981Y-6576582D01*
X16395269Y-6576582D01*
X16395269Y-6647293D01*
X16465981Y-6647293D01*
X16465981Y-6901293D02*
X16465981Y-6830582D01*
X16395269Y-6830582D01*
X16395269Y-6901293D01*
X16465981Y-6901293D01*
X16465981Y-7155293D02*
X16465981Y-7084582D01*
X16395269Y-7084582D01*
X16395269Y-7155293D01*
X16465981Y-7155293D01*
X16465981Y-7409293D02*
X16465981Y-7338582D01*
X16395269Y-7338582D01*
X16395269Y-7409293D01*
X16465981Y-7409293D01*
X16719981Y-7409293D02*
X16719981Y-7338582D01*
X16649269Y-7338582D01*
X16649269Y-7409293D01*
X16719981Y-7409293D01*
X16973981Y-7409293D02*
X16973981Y-7338582D01*
X16903269Y-7338582D01*
X16903269Y-7409293D01*
X16973981Y-7409293D01*
X17227981Y-7409293D02*
X17227981Y-7338582D01*
X17157269Y-7338582D01*
X17157269Y-7409293D01*
X17227981Y-7409293D01*
X17481981Y-7409293D02*
X17481981Y-7338582D01*
X17411269Y-7338582D01*
X17411269Y-7409293D01*
X17481981Y-7409293D01*
X17735981Y-7409293D02*
X17735981Y-7338582D01*
X17665269Y-7338582D01*
X17665269Y-7409293D01*
X17735981Y-7409293D01*
X17989981Y-5377293D02*
X17989981Y-5306582D01*
X17919269Y-5306582D01*
X17919269Y-5377293D01*
X17989981Y-5377293D01*
X17989981Y-5631293D02*
X17989981Y-5560582D01*
X17919269Y-5560582D01*
X17919269Y-5631293D01*
X17989981Y-5631293D01*
X17989981Y-5885293D02*
X17989981Y-5814582D01*
X17919269Y-5814582D01*
X17919269Y-5885293D01*
X17989981Y-5885293D01*
X17989981Y-6139293D02*
X17989981Y-6068582D01*
X17919269Y-6068582D01*
X17919269Y-6139293D01*
X17989981Y-6139293D01*
X17989981Y-6393293D02*
X17989981Y-6322582D01*
X17919269Y-6322582D01*
X17919269Y-6393293D01*
X17989981Y-6393293D01*
X17989981Y-6647293D02*
X17989981Y-6576582D01*
X17919269Y-6576582D01*
X17919269Y-6647293D01*
X17989981Y-6647293D01*
X17989981Y-6901293D02*
X17989981Y-6830582D01*
X17919269Y-6830582D01*
X17919269Y-6901293D01*
X17989981Y-6901293D01*
X17989981Y-7155293D02*
X17989981Y-7084582D01*
X17919269Y-7084582D01*
X17919269Y-7155293D01*
X17989981Y-7155293D01*
X17989981Y-7409293D02*
X17989981Y-7338582D01*
X17919269Y-7338582D01*
X17919269Y-7409293D01*
X17989981Y-7409293D01*
D13*
X5334000Y-5535930D02*
X5408930Y-5461000D01*
X5334000Y-5386070D01*
X5259070Y-5461000D01*
X5334000Y-5535930D01*
X5334000Y-7440930D02*
X5408930Y-7366000D01*
X5334000Y-7291070D01*
X5259070Y-7366000D01*
X5334000Y-7440930D01*
X5334000Y-9345930D02*
X5408930Y-9271000D01*
X5334000Y-9196070D01*
X5259070Y-9271000D01*
X5334000Y-9345930D01*
X5461000Y-5281930D02*
X5535930Y-5207000D01*
X5461000Y-5132070D01*
X5386070Y-5207000D01*
X5461000Y-5281930D01*
X5461000Y-7186930D02*
X5535930Y-7112000D01*
X5461000Y-7037070D01*
X5386070Y-7112000D01*
X5461000Y-7186930D01*
X5461000Y-9091930D02*
X5535930Y-9017000D01*
X5461000Y-8942070D01*
X5386070Y-9017000D01*
X5461000Y-9091930D01*
X5969000Y-5281930D02*
X6043930Y-5207000D01*
X5969000Y-5132070D01*
X5894070Y-5207000D01*
X5969000Y-5281930D01*
X5969000Y-7186930D02*
X6043930Y-7112000D01*
X5969000Y-7037070D01*
X5894070Y-7112000D01*
X5969000Y-7186930D01*
X5969000Y-9091930D02*
X6043930Y-9017000D01*
X5969000Y-8942070D01*
X5894070Y-9017000D01*
X5969000Y-9091930D01*
X6096000Y-5535930D02*
X6170930Y-5461000D01*
X6096000Y-5386070D01*
X6021070Y-5461000D01*
X6096000Y-5535930D01*
X6096000Y-7440930D02*
X6170930Y-7366000D01*
X6096000Y-7291070D01*
X6021070Y-7366000D01*
X6096000Y-7440930D01*
X6096000Y-9345930D02*
X6170930Y-9271000D01*
X6096000Y-9196070D01*
X6021070Y-9271000D01*
X6096000Y-9345930D01*
X7239000Y-5535930D02*
X7313930Y-5461000D01*
X7239000Y-5386070D01*
X7164070Y-5461000D01*
X7239000Y-5535930D01*
X7239000Y-7440930D02*
X7313930Y-7366000D01*
X7239000Y-7291070D01*
X7164070Y-7366000D01*
X7239000Y-7440930D01*
X7239000Y-9345930D02*
X7313930Y-9271000D01*
X7239000Y-9196070D01*
X7164070Y-9271000D01*
X7239000Y-9345930D01*
X7366000Y-5281930D02*
X7440930Y-5207000D01*
X7366000Y-5132070D01*
X7291070Y-5207000D01*
X7366000Y-5281930D01*
X7366000Y-7186930D02*
X7440930Y-7112000D01*
X7366000Y-7037070D01*
X7291070Y-7112000D01*
X7366000Y-7186930D01*
X7366000Y-9091930D02*
X7440930Y-9017000D01*
X7366000Y-8942070D01*
X7291070Y-9017000D01*
X7366000Y-9091930D01*
X7874000Y-5281930D02*
X7948930Y-5207000D01*
X7874000Y-5132070D01*
X7799070Y-5207000D01*
X7874000Y-5281930D01*
X7874000Y-7186930D02*
X7948930Y-7112000D01*
X7874000Y-7037070D01*
X7799070Y-7112000D01*
X7874000Y-7186930D01*
X7874000Y-9091930D02*
X7948930Y-9017000D01*
X7874000Y-8942070D01*
X7799070Y-9017000D01*
X7874000Y-9091930D01*
X8001000Y-5535930D02*
X8075930Y-5461000D01*
X8001000Y-5386070D01*
X7926070Y-5461000D01*
X8001000Y-5535930D01*
X8001000Y-7440930D02*
X8075930Y-7366000D01*
X8001000Y-7291070D01*
X7926070Y-7366000D01*
X8001000Y-7440930D01*
X8001000Y-9345930D02*
X8075930Y-9271000D01*
X8001000Y-9196070D01*
X7926070Y-9271000D01*
X8001000Y-9345930D01*
X9144000Y-5297805D02*
X9218930Y-5222875D01*
X9144000Y-5147945D01*
X9069070Y-5222875D01*
X9144000Y-5297805D01*
X9144000Y-7202805D02*
X9218930Y-7127875D01*
X9144000Y-7052945D01*
X9069070Y-7127875D01*
X9144000Y-7202805D01*
X9144000Y-9107805D02*
X9218930Y-9032875D01*
X9144000Y-8957945D01*
X9069070Y-9032875D01*
X9144000Y-9107805D01*
X9271000Y-5043805D02*
X9345930Y-4968875D01*
X9271000Y-4893945D01*
X9196070Y-4968875D01*
X9271000Y-5043805D01*
X9271000Y-6948805D02*
X9345930Y-6873875D01*
X9271000Y-6798945D01*
X9196070Y-6873875D01*
X9271000Y-6948805D01*
X9271000Y-8853805D02*
X9345930Y-8778875D01*
X9271000Y-8703945D01*
X9196070Y-8778875D01*
X9271000Y-8853805D01*
X9779000Y-5043805D02*
X9853930Y-4968875D01*
X9779000Y-4893945D01*
X9704070Y-4968875D01*
X9779000Y-5043805D01*
X9779000Y-6948805D02*
X9853930Y-6873875D01*
X9779000Y-6798945D01*
X9704070Y-6873875D01*
X9779000Y-6948805D01*
X9779000Y-8853805D02*
X9853930Y-8778875D01*
X9779000Y-8703945D01*
X9704070Y-8778875D01*
X9779000Y-8853805D01*
X9906000Y-5297805D02*
X9980930Y-5222875D01*
X9906000Y-5147945D01*
X9831070Y-5222875D01*
X9906000Y-5297805D01*
X9906000Y-7202805D02*
X9980930Y-7127875D01*
X9906000Y-7052945D01*
X9831070Y-7127875D01*
X9906000Y-7202805D01*
X9906000Y-9107805D02*
X9980930Y-9032875D01*
X9906000Y-8957945D01*
X9831070Y-9032875D01*
X9906000Y-9107805D01*
X11049000Y-5059680D02*
X11123930Y-4984750D01*
X11049000Y-4909820D01*
X10974070Y-4984750D01*
X11049000Y-5059680D01*
X11049000Y-6964680D02*
X11123930Y-6889750D01*
X11049000Y-6814820D01*
X10974070Y-6889750D01*
X11049000Y-6964680D01*
X11049000Y-8869680D02*
X11123930Y-8794750D01*
X11049000Y-8719820D01*
X10974070Y-8794750D01*
X11049000Y-8869680D01*
X11049000Y-11012805D02*
X11123930Y-10937875D01*
X11049000Y-10862945D01*
X10974070Y-10937875D01*
X11049000Y-11012805D01*
X11176000Y-4805680D02*
X11250930Y-4730750D01*
X11176000Y-4655820D01*
X11101070Y-4730750D01*
X11176000Y-4805680D01*
X11176000Y-6710680D02*
X11250930Y-6635750D01*
X11176000Y-6560820D01*
X11101070Y-6635750D01*
X11176000Y-6710680D01*
X11176000Y-8615680D02*
X11250930Y-8540750D01*
X11176000Y-8465820D01*
X11101070Y-8540750D01*
X11176000Y-8615680D01*
X11176000Y-10758805D02*
X11250930Y-10683875D01*
X11176000Y-10608945D01*
X11101070Y-10683875D01*
X11176000Y-10758805D01*
X11684000Y-4805680D02*
X11758930Y-4730750D01*
X11684000Y-4655820D01*
X11609070Y-4730750D01*
X11684000Y-4805680D01*
X11684000Y-6710680D02*
X11758930Y-6635750D01*
X11684000Y-6560820D01*
X11609070Y-6635750D01*
X11684000Y-6710680D01*
X11684000Y-8615680D02*
X11758930Y-8540750D01*
X11684000Y-8465820D01*
X11609070Y-8540750D01*
X11684000Y-8615680D01*
X11684000Y-10758805D02*
X11758930Y-10683875D01*
X11684000Y-10608945D01*
X11609070Y-10683875D01*
X11684000Y-10758805D01*
X11811000Y-5059680D02*
X11885930Y-4984750D01*
X11811000Y-4909820D01*
X11736070Y-4984750D01*
X11811000Y-5059680D01*
X11811000Y-6964680D02*
X11885930Y-6889750D01*
X11811000Y-6814820D01*
X11736070Y-6889750D01*
X11811000Y-6964680D01*
X11811000Y-8869680D02*
X11885930Y-8794750D01*
X11811000Y-8719820D01*
X11736070Y-8794750D01*
X11811000Y-8869680D01*
X11811000Y-11012805D02*
X11885930Y-10937875D01*
X11811000Y-10862945D01*
X11736070Y-10937875D01*
X11811000Y-11012805D01*
X12954000Y-5297805D02*
X13028930Y-5222875D01*
X12954000Y-5147945D01*
X12879070Y-5222875D01*
X12954000Y-5297805D01*
X12954000Y-7202805D02*
X13028930Y-7127875D01*
X12954000Y-7052945D01*
X12879070Y-7127875D01*
X12954000Y-7202805D01*
X12954000Y-9107805D02*
X13028930Y-9032875D01*
X12954000Y-8957945D01*
X12879070Y-9032875D01*
X12954000Y-9107805D01*
X13081000Y-5043805D02*
X13155930Y-4968875D01*
X13081000Y-4893945D01*
X13006070Y-4968875D01*
X13081000Y-5043805D01*
X13081000Y-6948805D02*
X13155930Y-6873875D01*
X13081000Y-6798945D01*
X13006070Y-6873875D01*
X13081000Y-6948805D01*
X13081000Y-8853805D02*
X13155930Y-8778875D01*
X13081000Y-8703945D01*
X13006070Y-8778875D01*
X13081000Y-8853805D01*
X13270847Y-11160975D02*
X13345777Y-11086045D01*
X13270847Y-11011115D01*
X13195917Y-11086045D01*
X13270847Y-11160975D01*
X13459260Y-10948500D02*
X13534190Y-10873570D01*
X13459260Y-10798640D01*
X13384330Y-10873570D01*
X13459260Y-10948500D01*
X13589000Y-5043805D02*
X13663930Y-4968875D01*
X13589000Y-4893945D01*
X13514070Y-4968875D01*
X13589000Y-5043805D01*
X13589000Y-6948805D02*
X13663930Y-6873875D01*
X13589000Y-6798945D01*
X13514070Y-6873875D01*
X13589000Y-6948805D01*
X13589000Y-8853805D02*
X13663930Y-8778875D01*
X13589000Y-8703945D01*
X13514070Y-8778875D01*
X13589000Y-8853805D01*
X13716000Y-5297805D02*
X13790930Y-5222875D01*
X13716000Y-5147945D01*
X13641070Y-5222875D01*
X13716000Y-5297805D01*
X13716000Y-7202805D02*
X13790930Y-7127875D01*
X13716000Y-7052945D01*
X13641070Y-7127875D01*
X13716000Y-7202805D01*
X13716000Y-9107805D02*
X13790930Y-9032875D01*
X13716000Y-8957945D01*
X13641070Y-9032875D01*
X13716000Y-9107805D01*
X13949950Y-11079980D02*
X14024880Y-11005050D01*
X13949950Y-10930120D01*
X13875020Y-11005050D01*
X13949950Y-11079980D01*
X14006883Y-11358195D02*
X14081813Y-11283265D01*
X14006883Y-11208335D01*
X13931953Y-11283265D01*
X14006883Y-11358195D01*
X14859000Y-5535930D02*
X14933930Y-5461000D01*
X14859000Y-5386070D01*
X14784070Y-5461000D01*
X14859000Y-5535930D01*
X14859000Y-7440930D02*
X14933930Y-7366000D01*
X14859000Y-7291070D01*
X14784070Y-7366000D01*
X14859000Y-7440930D01*
X14859000Y-9345930D02*
X14933930Y-9271000D01*
X14859000Y-9196070D01*
X14784070Y-9271000D01*
X14859000Y-9345930D01*
X14986000Y-5281930D02*
X15060930Y-5207000D01*
X14986000Y-5132070D01*
X14911070Y-5207000D01*
X14986000Y-5281930D01*
X14986000Y-7186930D02*
X15060930Y-7112000D01*
X14986000Y-7037070D01*
X14911070Y-7112000D01*
X14986000Y-7186930D01*
X14986000Y-9091930D02*
X15060930Y-9017000D01*
X14986000Y-8942070D01*
X14911070Y-9017000D01*
X14986000Y-9091930D01*
X15494000Y-5281930D02*
X15568930Y-5207000D01*
X15494000Y-5132070D01*
X15419070Y-5207000D01*
X15494000Y-5281930D01*
X15494000Y-7186930D02*
X15568930Y-7112000D01*
X15494000Y-7037070D01*
X15419070Y-7112000D01*
X15494000Y-7186930D01*
X15494000Y-9091930D02*
X15568930Y-9017000D01*
X15494000Y-8942070D01*
X15419070Y-9017000D01*
X15494000Y-9091930D01*
X15513294Y-11808834D02*
X15588224Y-11733904D01*
X15513294Y-11658974D01*
X15438364Y-11733904D01*
X15513294Y-11808834D01*
X15621000Y-5535930D02*
X15695930Y-5461000D01*
X15621000Y-5386070D01*
X15546070Y-5461000D01*
X15621000Y-5535930D01*
X15621000Y-7440930D02*
X15695930Y-7366000D01*
X15621000Y-7291070D01*
X15546070Y-7366000D01*
X15621000Y-7440930D01*
X15621000Y-9345930D02*
X15695930Y-9271000D01*
X15621000Y-9196070D01*
X15546070Y-9271000D01*
X15621000Y-9345930D01*
X15750279Y-11652364D02*
X15825209Y-11577434D01*
X15750279Y-11502504D01*
X15675349Y-11577434D01*
X15750279Y-11652364D01*
X16173206Y-12189834D02*
X16248136Y-12114904D01*
X16173206Y-12039974D01*
X16098276Y-12114904D01*
X16173206Y-12189834D01*
X16190220Y-11906364D02*
X16265150Y-11831434D01*
X16190220Y-11756504D01*
X16115290Y-11831434D01*
X16190220Y-11906364D01*
D11*
X4663589Y-14125234D02*
X4663589Y-13925234D01*
X4663589Y-13925234D02*
X4711208Y-13925234D01*
X4711208Y-13925234D02*
X4739780Y-13934758D01*
X4739780Y-13934758D02*
X4758827Y-13953805D01*
X4758827Y-13953805D02*
X4768351Y-13972853D01*
X4768351Y-13972853D02*
X4777875Y-14010948D01*
X4777875Y-14010948D02*
X4777875Y-14039519D01*
X4777875Y-14039519D02*
X4768351Y-14077615D01*
X4768351Y-14077615D02*
X4758827Y-14096662D01*
X4758827Y-14096662D02*
X4739780Y-14115710D01*
X4739780Y-14115710D02*
X4711208Y-14125234D01*
X4711208Y-14125234D02*
X4663589Y-14125234D01*
X4863589Y-14125234D02*
X4863589Y-13991900D01*
X4863589Y-14029996D02*
X4873113Y-14010948D01*
X4873113Y-14010948D02*
X4882637Y-14001424D01*
X4882637Y-14001424D02*
X4901685Y-13991900D01*
X4901685Y-13991900D02*
X4920732Y-13991900D01*
X4987399Y-14125234D02*
X4987399Y-13991900D01*
X4987399Y-13925234D02*
X4977875Y-13934758D01*
X4977875Y-13934758D02*
X4987399Y-13944281D01*
X4987399Y-13944281D02*
X4996923Y-13934758D01*
X4996923Y-13934758D02*
X4987399Y-13925234D01*
X4987399Y-13925234D02*
X4987399Y-13944281D01*
X5111208Y-14125234D02*
X5092161Y-14115710D01*
X5092161Y-14115710D02*
X5082637Y-14096662D01*
X5082637Y-14096662D02*
X5082637Y-13925234D01*
X5215970Y-14125234D02*
X5196923Y-14115710D01*
X5196923Y-14115710D02*
X5187399Y-14096662D01*
X5187399Y-14096662D02*
X5187399Y-13925234D01*
X5444542Y-14125234D02*
X5444542Y-13925234D01*
X5444542Y-13925234D02*
X5511208Y-14068091D01*
X5511208Y-14068091D02*
X5577875Y-13925234D01*
X5577875Y-13925234D02*
X5577875Y-14125234D01*
X5758827Y-14125234D02*
X5758827Y-14020472D01*
X5758827Y-14020472D02*
X5749304Y-14001424D01*
X5749304Y-14001424D02*
X5730256Y-13991900D01*
X5730256Y-13991900D02*
X5692161Y-13991900D01*
X5692161Y-13991900D02*
X5673113Y-14001424D01*
X5758827Y-14115710D02*
X5739780Y-14125234D01*
X5739780Y-14125234D02*
X5692161Y-14125234D01*
X5692161Y-14125234D02*
X5673113Y-14115710D01*
X5673113Y-14115710D02*
X5663589Y-14096662D01*
X5663589Y-14096662D02*
X5663589Y-14077615D01*
X5663589Y-14077615D02*
X5673113Y-14058567D01*
X5673113Y-14058567D02*
X5692161Y-14049043D01*
X5692161Y-14049043D02*
X5739780Y-14049043D01*
X5739780Y-14049043D02*
X5758827Y-14039519D01*
X5854065Y-13991900D02*
X5854065Y-14191900D01*
X5854065Y-14001424D02*
X5873113Y-13991900D01*
X5873113Y-13991900D02*
X5911208Y-13991900D01*
X5911208Y-13991900D02*
X5930256Y-14001424D01*
X5930256Y-14001424D02*
X5939780Y-14010948D01*
X5939780Y-14010948D02*
X5949304Y-14029996D01*
X5949304Y-14029996D02*
X5949304Y-14087138D01*
X5949304Y-14087138D02*
X5939780Y-14106186D01*
X5939780Y-14106186D02*
X5930256Y-14115710D01*
X5930256Y-14115710D02*
X5911208Y-14125234D01*
X5911208Y-14125234D02*
X5873113Y-14125234D01*
X5873113Y-14125234D02*
X5854065Y-14115710D01*
X6035018Y-14106186D02*
X6044542Y-14115710D01*
X6044542Y-14115710D02*
X6035018Y-14125234D01*
X6035018Y-14125234D02*
X6025494Y-14115710D01*
X6025494Y-14115710D02*
X6035018Y-14106186D01*
X6035018Y-14106186D02*
X6035018Y-14125234D01*
X6035018Y-14001424D02*
X6044542Y-14010948D01*
X6044542Y-14010948D02*
X6035018Y-14020472D01*
X6035018Y-14020472D02*
X6025494Y-14010948D01*
X6025494Y-14010948D02*
X6035018Y-14001424D01*
X6035018Y-14001424D02*
X6035018Y-14020472D01*
D12*
X4372813Y-14438750D02*
X4402813Y-14468750D01*
X4402813Y-14438750D02*
X4372813Y-14468750D01*
D11*
X4701685Y-14345234D02*
X4720732Y-14345234D01*
X4720732Y-14345234D02*
X4739780Y-14354758D01*
X4739780Y-14354758D02*
X4749304Y-14364281D01*
X4749304Y-14364281D02*
X4758827Y-14383329D01*
X4758827Y-14383329D02*
X4768351Y-14421424D01*
X4768351Y-14421424D02*
X4768351Y-14469043D01*
X4768351Y-14469043D02*
X4758827Y-14507138D01*
X4758827Y-14507138D02*
X4749304Y-14526186D01*
X4749304Y-14526186D02*
X4739780Y-14535710D01*
X4739780Y-14535710D02*
X4720732Y-14545234D01*
X4720732Y-14545234D02*
X4701685Y-14545234D01*
X4701685Y-14545234D02*
X4682637Y-14535710D01*
X4682637Y-14535710D02*
X4673113Y-14526186D01*
X4673113Y-14526186D02*
X4663589Y-14507138D01*
X4663589Y-14507138D02*
X4654066Y-14469043D01*
X4654066Y-14469043D02*
X4654066Y-14421424D01*
X4654066Y-14421424D02*
X4663589Y-14383329D01*
X4663589Y-14383329D02*
X4673113Y-14364281D01*
X4673113Y-14364281D02*
X4682637Y-14354758D01*
X4682637Y-14354758D02*
X4701685Y-14345234D01*
X4854066Y-14526186D02*
X4863589Y-14535710D01*
X4863589Y-14535710D02*
X4854066Y-14545234D01*
X4854066Y-14545234D02*
X4844542Y-14535710D01*
X4844542Y-14535710D02*
X4854066Y-14526186D01*
X4854066Y-14526186D02*
X4854066Y-14545234D01*
X4930256Y-14345234D02*
X5054066Y-14345234D01*
X5054066Y-14345234D02*
X4987399Y-14421424D01*
X4987399Y-14421424D02*
X5015970Y-14421424D01*
X5015970Y-14421424D02*
X5035018Y-14430948D01*
X5035018Y-14430948D02*
X5044542Y-14440472D01*
X5044542Y-14440472D02*
X5054066Y-14459519D01*
X5054066Y-14459519D02*
X5054066Y-14507138D01*
X5054066Y-14507138D02*
X5044542Y-14526186D01*
X5044542Y-14526186D02*
X5035018Y-14535710D01*
X5035018Y-14535710D02*
X5015970Y-14545234D01*
X5015970Y-14545234D02*
X4958827Y-14545234D01*
X4958827Y-14545234D02*
X4939780Y-14535710D01*
X4939780Y-14535710D02*
X4930256Y-14526186D01*
X5177875Y-14345234D02*
X5196923Y-14345234D01*
X5196923Y-14345234D02*
X5215970Y-14354758D01*
X5215970Y-14354758D02*
X5225494Y-14364281D01*
X5225494Y-14364281D02*
X5235018Y-14383329D01*
X5235018Y-14383329D02*
X5244542Y-14421424D01*
X5244542Y-14421424D02*
X5244542Y-14469043D01*
X5244542Y-14469043D02*
X5235018Y-14507138D01*
X5235018Y-14507138D02*
X5225494Y-14526186D01*
X5225494Y-14526186D02*
X5215970Y-14535710D01*
X5215970Y-14535710D02*
X5196923Y-14545234D01*
X5196923Y-14545234D02*
X5177875Y-14545234D01*
X5177875Y-14545234D02*
X5158827Y-14535710D01*
X5158827Y-14535710D02*
X5149304Y-14526186D01*
X5149304Y-14526186D02*
X5139780Y-14507138D01*
X5139780Y-14507138D02*
X5130256Y-14469043D01*
X5130256Y-14469043D02*
X5130256Y-14421424D01*
X5130256Y-14421424D02*
X5139780Y-14383329D01*
X5139780Y-14383329D02*
X5149304Y-14364281D01*
X5149304Y-14364281D02*
X5158827Y-14354758D01*
X5158827Y-14354758D02*
X5177875Y-14345234D01*
X5368351Y-14345234D02*
X5387399Y-14345234D01*
X5387399Y-14345234D02*
X5406447Y-14354758D01*
X5406447Y-14354758D02*
X5415970Y-14364281D01*
X5415970Y-14364281D02*
X5425494Y-14383329D01*
X5425494Y-14383329D02*
X5435018Y-14421424D01*
X5435018Y-14421424D02*
X5435018Y-14469043D01*
X5435018Y-14469043D02*
X5425494Y-14507138D01*
X5425494Y-14507138D02*
X5415970Y-14526186D01*
X5415970Y-14526186D02*
X5406447Y-14535710D01*
X5406447Y-14535710D02*
X5387399Y-14545234D01*
X5387399Y-14545234D02*
X5368351Y-14545234D01*
X5368351Y-14545234D02*
X5349304Y-14535710D01*
X5349304Y-14535710D02*
X5339780Y-14526186D01*
X5339780Y-14526186D02*
X5330256Y-14507138D01*
X5330256Y-14507138D02*
X5320732Y-14469043D01*
X5320732Y-14469043D02*
X5320732Y-14421424D01*
X5320732Y-14421424D02*
X5330256Y-14383329D01*
X5330256Y-14383329D02*
X5339780Y-14364281D01*
X5339780Y-14364281D02*
X5349304Y-14354758D01*
X5349304Y-14354758D02*
X5368351Y-14345234D01*
X5520732Y-14545234D02*
X5520732Y-14411900D01*
X5520732Y-14430948D02*
X5530256Y-14421424D01*
X5530256Y-14421424D02*
X5549304Y-14411900D01*
X5549304Y-14411900D02*
X5577875Y-14411900D01*
X5577875Y-14411900D02*
X5596923Y-14421424D01*
X5596923Y-14421424D02*
X5606446Y-14440472D01*
X5606446Y-14440472D02*
X5606446Y-14545234D01*
X5606446Y-14440472D02*
X5615970Y-14421424D01*
X5615970Y-14421424D02*
X5635018Y-14411900D01*
X5635018Y-14411900D02*
X5663589Y-14411900D01*
X5663589Y-14411900D02*
X5682637Y-14421424D01*
X5682637Y-14421424D02*
X5692161Y-14440472D01*
X5692161Y-14440472D02*
X5692161Y-14545234D01*
X5787399Y-14545234D02*
X5787399Y-14411900D01*
X5787399Y-14430948D02*
X5796923Y-14421424D01*
X5796923Y-14421424D02*
X5815970Y-14411900D01*
X5815970Y-14411900D02*
X5844542Y-14411900D01*
X5844542Y-14411900D02*
X5863589Y-14421424D01*
X5863589Y-14421424D02*
X5873113Y-14440472D01*
X5873113Y-14440472D02*
X5873113Y-14545234D01*
X5873113Y-14440472D02*
X5882637Y-14421424D01*
X5882637Y-14421424D02*
X5901685Y-14411900D01*
X5901685Y-14411900D02*
X5930256Y-14411900D01*
X5930256Y-14411900D02*
X5949304Y-14421424D01*
X5949304Y-14421424D02*
X5958827Y-14440472D01*
X5958827Y-14440472D02*
X5958827Y-14545234D01*
X6349304Y-14335710D02*
X6177875Y-14592853D01*
X6606447Y-14345234D02*
X6625494Y-14345234D01*
X6625494Y-14345234D02*
X6644542Y-14354758D01*
X6644542Y-14354758D02*
X6654066Y-14364281D01*
X6654066Y-14364281D02*
X6663589Y-14383329D01*
X6663589Y-14383329D02*
X6673113Y-14421424D01*
X6673113Y-14421424D02*
X6673113Y-14469043D01*
X6673113Y-14469043D02*
X6663589Y-14507138D01*
X6663589Y-14507138D02*
X6654066Y-14526186D01*
X6654066Y-14526186D02*
X6644542Y-14535710D01*
X6644542Y-14535710D02*
X6625494Y-14545234D01*
X6625494Y-14545234D02*
X6606447Y-14545234D01*
X6606447Y-14545234D02*
X6587399Y-14535710D01*
X6587399Y-14535710D02*
X6577875Y-14526186D01*
X6577875Y-14526186D02*
X6568351Y-14507138D01*
X6568351Y-14507138D02*
X6558828Y-14469043D01*
X6558828Y-14469043D02*
X6558828Y-14421424D01*
X6558828Y-14421424D02*
X6568351Y-14383329D01*
X6568351Y-14383329D02*
X6577875Y-14364281D01*
X6577875Y-14364281D02*
X6587399Y-14354758D01*
X6587399Y-14354758D02*
X6606447Y-14345234D01*
X6758828Y-14526186D02*
X6768351Y-14535710D01*
X6768351Y-14535710D02*
X6758828Y-14545234D01*
X6758828Y-14545234D02*
X6749304Y-14535710D01*
X6749304Y-14535710D02*
X6758828Y-14526186D01*
X6758828Y-14526186D02*
X6758828Y-14545234D01*
X6892161Y-14345234D02*
X6911209Y-14345234D01*
X6911209Y-14345234D02*
X6930256Y-14354758D01*
X6930256Y-14354758D02*
X6939780Y-14364281D01*
X6939780Y-14364281D02*
X6949304Y-14383329D01*
X6949304Y-14383329D02*
X6958828Y-14421424D01*
X6958828Y-14421424D02*
X6958828Y-14469043D01*
X6958828Y-14469043D02*
X6949304Y-14507138D01*
X6949304Y-14507138D02*
X6939780Y-14526186D01*
X6939780Y-14526186D02*
X6930256Y-14535710D01*
X6930256Y-14535710D02*
X6911209Y-14545234D01*
X6911209Y-14545234D02*
X6892161Y-14545234D01*
X6892161Y-14545234D02*
X6873113Y-14535710D01*
X6873113Y-14535710D02*
X6863589Y-14526186D01*
X6863589Y-14526186D02*
X6854066Y-14507138D01*
X6854066Y-14507138D02*
X6844542Y-14469043D01*
X6844542Y-14469043D02*
X6844542Y-14421424D01*
X6844542Y-14421424D02*
X6854066Y-14383329D01*
X6854066Y-14383329D02*
X6863589Y-14364281D01*
X6863589Y-14364281D02*
X6873113Y-14354758D01*
X6873113Y-14354758D02*
X6892161Y-14345234D01*
X7149304Y-14545234D02*
X7035018Y-14545234D01*
X7092161Y-14545234D02*
X7092161Y-14345234D01*
X7092161Y-14345234D02*
X7073113Y-14373805D01*
X7073113Y-14373805D02*
X7054066Y-14392853D01*
X7054066Y-14392853D02*
X7035018Y-14402377D01*
X7339780Y-14545234D02*
X7225494Y-14545234D01*
X7282637Y-14545234D02*
X7282637Y-14345234D01*
X7282637Y-14345234D02*
X7263589Y-14373805D01*
X7263589Y-14373805D02*
X7244542Y-14392853D01*
X7244542Y-14392853D02*
X7225494Y-14402377D01*
X7454066Y-14430948D02*
X7435018Y-14421424D01*
X7435018Y-14421424D02*
X7425494Y-14411900D01*
X7425494Y-14411900D02*
X7415970Y-14392853D01*
X7415970Y-14392853D02*
X7415970Y-14383329D01*
X7415970Y-14383329D02*
X7425494Y-14364281D01*
X7425494Y-14364281D02*
X7435018Y-14354758D01*
X7435018Y-14354758D02*
X7454066Y-14345234D01*
X7454066Y-14345234D02*
X7492161Y-14345234D01*
X7492161Y-14345234D02*
X7511209Y-14354758D01*
X7511209Y-14354758D02*
X7520732Y-14364281D01*
X7520732Y-14364281D02*
X7530256Y-14383329D01*
X7530256Y-14383329D02*
X7530256Y-14392853D01*
X7530256Y-14392853D02*
X7520732Y-14411900D01*
X7520732Y-14411900D02*
X7511209Y-14421424D01*
X7511209Y-14421424D02*
X7492161Y-14430948D01*
X7492161Y-14430948D02*
X7454066Y-14430948D01*
X7454066Y-14430948D02*
X7435018Y-14440472D01*
X7435018Y-14440472D02*
X7425494Y-14449996D01*
X7425494Y-14449996D02*
X7415970Y-14469043D01*
X7415970Y-14469043D02*
X7415970Y-14507138D01*
X7415970Y-14507138D02*
X7425494Y-14526186D01*
X7425494Y-14526186D02*
X7435018Y-14535710D01*
X7435018Y-14535710D02*
X7454066Y-14545234D01*
X7454066Y-14545234D02*
X7492161Y-14545234D01*
X7492161Y-14545234D02*
X7511209Y-14535710D01*
X7511209Y-14535710D02*
X7520732Y-14526186D01*
X7520732Y-14526186D02*
X7530256Y-14507138D01*
X7530256Y-14507138D02*
X7530256Y-14469043D01*
X7530256Y-14469043D02*
X7520732Y-14449996D01*
X7520732Y-14449996D02*
X7511209Y-14440472D01*
X7511209Y-14440472D02*
X7492161Y-14430948D01*
X7606447Y-14345234D02*
X7606447Y-14383329D01*
X7682637Y-14345234D02*
X7682637Y-14383329D01*
X7977875Y-14621424D02*
X7968351Y-14611900D01*
X7968351Y-14611900D02*
X7949304Y-14583329D01*
X7949304Y-14583329D02*
X7939780Y-14564281D01*
X7939780Y-14564281D02*
X7930256Y-14535710D01*
X7930256Y-14535710D02*
X7920732Y-14488091D01*
X7920732Y-14488091D02*
X7920732Y-14449996D01*
X7920732Y-14449996D02*
X7930256Y-14402377D01*
X7930256Y-14402377D02*
X7939780Y-14373805D01*
X7939780Y-14373805D02*
X7949304Y-14354758D01*
X7949304Y-14354758D02*
X7968351Y-14326186D01*
X7968351Y-14326186D02*
X7977875Y-14316662D01*
X8149304Y-14345234D02*
X8054066Y-14345234D01*
X8054066Y-14345234D02*
X8044542Y-14440472D01*
X8044542Y-14440472D02*
X8054066Y-14430948D01*
X8054066Y-14430948D02*
X8073113Y-14421424D01*
X8073113Y-14421424D02*
X8120732Y-14421424D01*
X8120732Y-14421424D02*
X8139780Y-14430948D01*
X8139780Y-14430948D02*
X8149304Y-14440472D01*
X8149304Y-14440472D02*
X8158828Y-14459519D01*
X8158828Y-14459519D02*
X8158828Y-14507138D01*
X8158828Y-14507138D02*
X8149304Y-14526186D01*
X8149304Y-14526186D02*
X8139780Y-14535710D01*
X8139780Y-14535710D02*
X8120732Y-14545234D01*
X8120732Y-14545234D02*
X8073113Y-14545234D01*
X8073113Y-14545234D02*
X8054066Y-14535710D01*
X8054066Y-14535710D02*
X8044542Y-14526186D01*
X8396923Y-14545234D02*
X8396923Y-14345234D01*
X8482637Y-14545234D02*
X8482637Y-14440472D01*
X8482637Y-14440472D02*
X8473114Y-14421424D01*
X8473114Y-14421424D02*
X8454066Y-14411900D01*
X8454066Y-14411900D02*
X8425494Y-14411900D01*
X8425494Y-14411900D02*
X8406447Y-14421424D01*
X8406447Y-14421424D02*
X8396923Y-14430948D01*
X8606447Y-14545234D02*
X8587399Y-14535710D01*
X8587399Y-14535710D02*
X8577875Y-14526186D01*
X8577875Y-14526186D02*
X8568352Y-14507138D01*
X8568352Y-14507138D02*
X8568352Y-14449996D01*
X8568352Y-14449996D02*
X8577875Y-14430948D01*
X8577875Y-14430948D02*
X8587399Y-14421424D01*
X8587399Y-14421424D02*
X8606447Y-14411900D01*
X8606447Y-14411900D02*
X8635018Y-14411900D01*
X8635018Y-14411900D02*
X8654066Y-14421424D01*
X8654066Y-14421424D02*
X8663590Y-14430948D01*
X8663590Y-14430948D02*
X8673114Y-14449996D01*
X8673114Y-14449996D02*
X8673114Y-14507138D01*
X8673114Y-14507138D02*
X8663590Y-14526186D01*
X8663590Y-14526186D02*
X8654066Y-14535710D01*
X8654066Y-14535710D02*
X8635018Y-14545234D01*
X8635018Y-14545234D02*
X8606447Y-14545234D01*
X8787399Y-14545234D02*
X8768352Y-14535710D01*
X8768352Y-14535710D02*
X8758828Y-14516662D01*
X8758828Y-14516662D02*
X8758828Y-14345234D01*
X8939780Y-14535710D02*
X8920733Y-14545234D01*
X8920733Y-14545234D02*
X8882637Y-14545234D01*
X8882637Y-14545234D02*
X8863590Y-14535710D01*
X8863590Y-14535710D02*
X8854066Y-14516662D01*
X8854066Y-14516662D02*
X8854066Y-14440472D01*
X8854066Y-14440472D02*
X8863590Y-14421424D01*
X8863590Y-14421424D02*
X8882637Y-14411900D01*
X8882637Y-14411900D02*
X8920733Y-14411900D01*
X8920733Y-14411900D02*
X8939780Y-14421424D01*
X8939780Y-14421424D02*
X8949304Y-14440472D01*
X8949304Y-14440472D02*
X8949304Y-14459519D01*
X8949304Y-14459519D02*
X8854066Y-14478567D01*
X9025495Y-14535710D02*
X9044542Y-14545234D01*
X9044542Y-14545234D02*
X9082637Y-14545234D01*
X9082637Y-14545234D02*
X9101685Y-14535710D01*
X9101685Y-14535710D02*
X9111209Y-14516662D01*
X9111209Y-14516662D02*
X9111209Y-14507138D01*
X9111209Y-14507138D02*
X9101685Y-14488091D01*
X9101685Y-14488091D02*
X9082637Y-14478567D01*
X9082637Y-14478567D02*
X9054066Y-14478567D01*
X9054066Y-14478567D02*
X9035018Y-14469043D01*
X9035018Y-14469043D02*
X9025495Y-14449996D01*
X9025495Y-14449996D02*
X9025495Y-14440472D01*
X9025495Y-14440472D02*
X9035018Y-14421424D01*
X9035018Y-14421424D02*
X9054066Y-14411900D01*
X9054066Y-14411900D02*
X9082637Y-14411900D01*
X9082637Y-14411900D02*
X9101685Y-14421424D01*
X9177876Y-14621424D02*
X9187399Y-14611900D01*
X9187399Y-14611900D02*
X9206447Y-14583329D01*
X9206447Y-14583329D02*
X9215971Y-14564281D01*
X9215971Y-14564281D02*
X9225495Y-14535710D01*
X9225495Y-14535710D02*
X9235018Y-14488091D01*
X9235018Y-14488091D02*
X9235018Y-14449996D01*
X9235018Y-14449996D02*
X9225495Y-14402377D01*
X9225495Y-14402377D02*
X9215971Y-14373805D01*
X9215971Y-14373805D02*
X9206447Y-14354758D01*
X9206447Y-14354758D02*
X9187399Y-14326186D01*
X9187399Y-14326186D02*
X9177876Y-14316662D01*
D12*
X4402813Y-14717750D02*
G75*
G02*
X4342813Y-14717750I-30000J0D01*
G01*
X4342813Y-14717750D02*
G75*
G02*
X4402813Y-14717750I30000J0D01*
G01*
D11*
X4701685Y-14609234D02*
X4720732Y-14609234D01*
X4720732Y-14609234D02*
X4739780Y-14618758D01*
X4739780Y-14618758D02*
X4749304Y-14628281D01*
X4749304Y-14628281D02*
X4758827Y-14647329D01*
X4758827Y-14647329D02*
X4768351Y-14685424D01*
X4768351Y-14685424D02*
X4768351Y-14733043D01*
X4768351Y-14733043D02*
X4758827Y-14771138D01*
X4758827Y-14771138D02*
X4749304Y-14790186D01*
X4749304Y-14790186D02*
X4739780Y-14799710D01*
X4739780Y-14799710D02*
X4720732Y-14809234D01*
X4720732Y-14809234D02*
X4701685Y-14809234D01*
X4701685Y-14809234D02*
X4682637Y-14799710D01*
X4682637Y-14799710D02*
X4673113Y-14790186D01*
X4673113Y-14790186D02*
X4663589Y-14771138D01*
X4663589Y-14771138D02*
X4654066Y-14733043D01*
X4654066Y-14733043D02*
X4654066Y-14685424D01*
X4654066Y-14685424D02*
X4663589Y-14647329D01*
X4663589Y-14647329D02*
X4673113Y-14628281D01*
X4673113Y-14628281D02*
X4682637Y-14618758D01*
X4682637Y-14618758D02*
X4701685Y-14609234D01*
X4854066Y-14790186D02*
X4863589Y-14799710D01*
X4863589Y-14799710D02*
X4854066Y-14809234D01*
X4854066Y-14809234D02*
X4844542Y-14799710D01*
X4844542Y-14799710D02*
X4854066Y-14790186D01*
X4854066Y-14790186D02*
X4854066Y-14809234D01*
X5035018Y-14609234D02*
X4996923Y-14609234D01*
X4996923Y-14609234D02*
X4977875Y-14618758D01*
X4977875Y-14618758D02*
X4968351Y-14628281D01*
X4968351Y-14628281D02*
X4949304Y-14656853D01*
X4949304Y-14656853D02*
X4939780Y-14694948D01*
X4939780Y-14694948D02*
X4939780Y-14771138D01*
X4939780Y-14771138D02*
X4949304Y-14790186D01*
X4949304Y-14790186D02*
X4958827Y-14799710D01*
X4958827Y-14799710D02*
X4977875Y-14809234D01*
X4977875Y-14809234D02*
X5015970Y-14809234D01*
X5015970Y-14809234D02*
X5035018Y-14799710D01*
X5035018Y-14799710D02*
X5044542Y-14790186D01*
X5044542Y-14790186D02*
X5054066Y-14771138D01*
X5054066Y-14771138D02*
X5054066Y-14723519D01*
X5054066Y-14723519D02*
X5044542Y-14704472D01*
X5044542Y-14704472D02*
X5035018Y-14694948D01*
X5035018Y-14694948D02*
X5015970Y-14685424D01*
X5015970Y-14685424D02*
X4977875Y-14685424D01*
X4977875Y-14685424D02*
X4958827Y-14694948D01*
X4958827Y-14694948D02*
X4949304Y-14704472D01*
X4949304Y-14704472D02*
X4939780Y-14723519D01*
X5177875Y-14609234D02*
X5196923Y-14609234D01*
X5196923Y-14609234D02*
X5215970Y-14618758D01*
X5215970Y-14618758D02*
X5225494Y-14628281D01*
X5225494Y-14628281D02*
X5235018Y-14647329D01*
X5235018Y-14647329D02*
X5244542Y-14685424D01*
X5244542Y-14685424D02*
X5244542Y-14733043D01*
X5244542Y-14733043D02*
X5235018Y-14771138D01*
X5235018Y-14771138D02*
X5225494Y-14790186D01*
X5225494Y-14790186D02*
X5215970Y-14799710D01*
X5215970Y-14799710D02*
X5196923Y-14809234D01*
X5196923Y-14809234D02*
X5177875Y-14809234D01*
X5177875Y-14809234D02*
X5158827Y-14799710D01*
X5158827Y-14799710D02*
X5149304Y-14790186D01*
X5149304Y-14790186D02*
X5139780Y-14771138D01*
X5139780Y-14771138D02*
X5130256Y-14733043D01*
X5130256Y-14733043D02*
X5130256Y-14685424D01*
X5130256Y-14685424D02*
X5139780Y-14647329D01*
X5139780Y-14647329D02*
X5149304Y-14628281D01*
X5149304Y-14628281D02*
X5158827Y-14618758D01*
X5158827Y-14618758D02*
X5177875Y-14609234D01*
X5368351Y-14609234D02*
X5387399Y-14609234D01*
X5387399Y-14609234D02*
X5406447Y-14618758D01*
X5406447Y-14618758D02*
X5415970Y-14628281D01*
X5415970Y-14628281D02*
X5425494Y-14647329D01*
X5425494Y-14647329D02*
X5435018Y-14685424D01*
X5435018Y-14685424D02*
X5435018Y-14733043D01*
X5435018Y-14733043D02*
X5425494Y-14771138D01*
X5425494Y-14771138D02*
X5415970Y-14790186D01*
X5415970Y-14790186D02*
X5406447Y-14799710D01*
X5406447Y-14799710D02*
X5387399Y-14809234D01*
X5387399Y-14809234D02*
X5368351Y-14809234D01*
X5368351Y-14809234D02*
X5349304Y-14799710D01*
X5349304Y-14799710D02*
X5339780Y-14790186D01*
X5339780Y-14790186D02*
X5330256Y-14771138D01*
X5330256Y-14771138D02*
X5320732Y-14733043D01*
X5320732Y-14733043D02*
X5320732Y-14685424D01*
X5320732Y-14685424D02*
X5330256Y-14647329D01*
X5330256Y-14647329D02*
X5339780Y-14628281D01*
X5339780Y-14628281D02*
X5349304Y-14618758D01*
X5349304Y-14618758D02*
X5368351Y-14609234D01*
X5520732Y-14809234D02*
X5520732Y-14675900D01*
X5520732Y-14694948D02*
X5530256Y-14685424D01*
X5530256Y-14685424D02*
X5549304Y-14675900D01*
X5549304Y-14675900D02*
X5577875Y-14675900D01*
X5577875Y-14675900D02*
X5596923Y-14685424D01*
X5596923Y-14685424D02*
X5606446Y-14704472D01*
X5606446Y-14704472D02*
X5606446Y-14809234D01*
X5606446Y-14704472D02*
X5615970Y-14685424D01*
X5615970Y-14685424D02*
X5635018Y-14675900D01*
X5635018Y-14675900D02*
X5663589Y-14675900D01*
X5663589Y-14675900D02*
X5682637Y-14685424D01*
X5682637Y-14685424D02*
X5692161Y-14704472D01*
X5692161Y-14704472D02*
X5692161Y-14809234D01*
X5787399Y-14809234D02*
X5787399Y-14675900D01*
X5787399Y-14694948D02*
X5796923Y-14685424D01*
X5796923Y-14685424D02*
X5815970Y-14675900D01*
X5815970Y-14675900D02*
X5844542Y-14675900D01*
X5844542Y-14675900D02*
X5863589Y-14685424D01*
X5863589Y-14685424D02*
X5873113Y-14704472D01*
X5873113Y-14704472D02*
X5873113Y-14809234D01*
X5873113Y-14704472D02*
X5882637Y-14685424D01*
X5882637Y-14685424D02*
X5901685Y-14675900D01*
X5901685Y-14675900D02*
X5930256Y-14675900D01*
X5930256Y-14675900D02*
X5949304Y-14685424D01*
X5949304Y-14685424D02*
X5958827Y-14704472D01*
X5958827Y-14704472D02*
X5958827Y-14809234D01*
X6349304Y-14599710D02*
X6177875Y-14856853D01*
X6606447Y-14609234D02*
X6625494Y-14609234D01*
X6625494Y-14609234D02*
X6644542Y-14618758D01*
X6644542Y-14618758D02*
X6654066Y-14628281D01*
X6654066Y-14628281D02*
X6663589Y-14647329D01*
X6663589Y-14647329D02*
X6673113Y-14685424D01*
X6673113Y-14685424D02*
X6673113Y-14733043D01*
X6673113Y-14733043D02*
X6663589Y-14771138D01*
X6663589Y-14771138D02*
X6654066Y-14790186D01*
X6654066Y-14790186D02*
X6644542Y-14799710D01*
X6644542Y-14799710D02*
X6625494Y-14809234D01*
X6625494Y-14809234D02*
X6606447Y-14809234D01*
X6606447Y-14809234D02*
X6587399Y-14799710D01*
X6587399Y-14799710D02*
X6577875Y-14790186D01*
X6577875Y-14790186D02*
X6568351Y-14771138D01*
X6568351Y-14771138D02*
X6558828Y-14733043D01*
X6558828Y-14733043D02*
X6558828Y-14685424D01*
X6558828Y-14685424D02*
X6568351Y-14647329D01*
X6568351Y-14647329D02*
X6577875Y-14628281D01*
X6577875Y-14628281D02*
X6587399Y-14618758D01*
X6587399Y-14618758D02*
X6606447Y-14609234D01*
X6758828Y-14790186D02*
X6768351Y-14799710D01*
X6768351Y-14799710D02*
X6758828Y-14809234D01*
X6758828Y-14809234D02*
X6749304Y-14799710D01*
X6749304Y-14799710D02*
X6758828Y-14790186D01*
X6758828Y-14790186D02*
X6758828Y-14809234D01*
X6892161Y-14609234D02*
X6911209Y-14609234D01*
X6911209Y-14609234D02*
X6930256Y-14618758D01*
X6930256Y-14618758D02*
X6939780Y-14628281D01*
X6939780Y-14628281D02*
X6949304Y-14647329D01*
X6949304Y-14647329D02*
X6958828Y-14685424D01*
X6958828Y-14685424D02*
X6958828Y-14733043D01*
X6958828Y-14733043D02*
X6949304Y-14771138D01*
X6949304Y-14771138D02*
X6939780Y-14790186D01*
X6939780Y-14790186D02*
X6930256Y-14799710D01*
X6930256Y-14799710D02*
X6911209Y-14809234D01*
X6911209Y-14809234D02*
X6892161Y-14809234D01*
X6892161Y-14809234D02*
X6873113Y-14799710D01*
X6873113Y-14799710D02*
X6863589Y-14790186D01*
X6863589Y-14790186D02*
X6854066Y-14771138D01*
X6854066Y-14771138D02*
X6844542Y-14733043D01*
X6844542Y-14733043D02*
X6844542Y-14685424D01*
X6844542Y-14685424D02*
X6854066Y-14647329D01*
X6854066Y-14647329D02*
X6863589Y-14628281D01*
X6863589Y-14628281D02*
X6873113Y-14618758D01*
X6873113Y-14618758D02*
X6892161Y-14609234D01*
X7035018Y-14628281D02*
X7044542Y-14618758D01*
X7044542Y-14618758D02*
X7063589Y-14609234D01*
X7063589Y-14609234D02*
X7111209Y-14609234D01*
X7111209Y-14609234D02*
X7130256Y-14618758D01*
X7130256Y-14618758D02*
X7139780Y-14628281D01*
X7139780Y-14628281D02*
X7149304Y-14647329D01*
X7149304Y-14647329D02*
X7149304Y-14666377D01*
X7149304Y-14666377D02*
X7139780Y-14694948D01*
X7139780Y-14694948D02*
X7025494Y-14809234D01*
X7025494Y-14809234D02*
X7149304Y-14809234D01*
X7215970Y-14609234D02*
X7339780Y-14609234D01*
X7339780Y-14609234D02*
X7273113Y-14685424D01*
X7273113Y-14685424D02*
X7301685Y-14685424D01*
X7301685Y-14685424D02*
X7320732Y-14694948D01*
X7320732Y-14694948D02*
X7330256Y-14704472D01*
X7330256Y-14704472D02*
X7339780Y-14723519D01*
X7339780Y-14723519D02*
X7339780Y-14771138D01*
X7339780Y-14771138D02*
X7330256Y-14790186D01*
X7330256Y-14790186D02*
X7320732Y-14799710D01*
X7320732Y-14799710D02*
X7301685Y-14809234D01*
X7301685Y-14809234D02*
X7244542Y-14809234D01*
X7244542Y-14809234D02*
X7225494Y-14799710D01*
X7225494Y-14799710D02*
X7215970Y-14790186D01*
X7511209Y-14609234D02*
X7473113Y-14609234D01*
X7473113Y-14609234D02*
X7454066Y-14618758D01*
X7454066Y-14618758D02*
X7444542Y-14628281D01*
X7444542Y-14628281D02*
X7425494Y-14656853D01*
X7425494Y-14656853D02*
X7415970Y-14694948D01*
X7415970Y-14694948D02*
X7415970Y-14771138D01*
X7415970Y-14771138D02*
X7425494Y-14790186D01*
X7425494Y-14790186D02*
X7435018Y-14799710D01*
X7435018Y-14799710D02*
X7454066Y-14809234D01*
X7454066Y-14809234D02*
X7492161Y-14809234D01*
X7492161Y-14809234D02*
X7511209Y-14799710D01*
X7511209Y-14799710D02*
X7520732Y-14790186D01*
X7520732Y-14790186D02*
X7530256Y-14771138D01*
X7530256Y-14771138D02*
X7530256Y-14723519D01*
X7530256Y-14723519D02*
X7520732Y-14704472D01*
X7520732Y-14704472D02*
X7511209Y-14694948D01*
X7511209Y-14694948D02*
X7492161Y-14685424D01*
X7492161Y-14685424D02*
X7454066Y-14685424D01*
X7454066Y-14685424D02*
X7435018Y-14694948D01*
X7435018Y-14694948D02*
X7425494Y-14704472D01*
X7425494Y-14704472D02*
X7415970Y-14723519D01*
X7606447Y-14609234D02*
X7606447Y-14647329D01*
X7682637Y-14609234D02*
X7682637Y-14647329D01*
X7977875Y-14885424D02*
X7968351Y-14875900D01*
X7968351Y-14875900D02*
X7949304Y-14847329D01*
X7949304Y-14847329D02*
X7939780Y-14828281D01*
X7939780Y-14828281D02*
X7930256Y-14799710D01*
X7930256Y-14799710D02*
X7920732Y-14752091D01*
X7920732Y-14752091D02*
X7920732Y-14713996D01*
X7920732Y-14713996D02*
X7930256Y-14666377D01*
X7930256Y-14666377D02*
X7939780Y-14637805D01*
X7939780Y-14637805D02*
X7949304Y-14618758D01*
X7949304Y-14618758D02*
X7968351Y-14590186D01*
X7968351Y-14590186D02*
X7977875Y-14580662D01*
X8092161Y-14609234D02*
X8111209Y-14609234D01*
X8111209Y-14609234D02*
X8130256Y-14618758D01*
X8130256Y-14618758D02*
X8139780Y-14628281D01*
X8139780Y-14628281D02*
X8149304Y-14647329D01*
X8149304Y-14647329D02*
X8158828Y-14685424D01*
X8158828Y-14685424D02*
X8158828Y-14733043D01*
X8158828Y-14733043D02*
X8149304Y-14771138D01*
X8149304Y-14771138D02*
X8139780Y-14790186D01*
X8139780Y-14790186D02*
X8130256Y-14799710D01*
X8130256Y-14799710D02*
X8111209Y-14809234D01*
X8111209Y-14809234D02*
X8092161Y-14809234D01*
X8092161Y-14809234D02*
X8073113Y-14799710D01*
X8073113Y-14799710D02*
X8063590Y-14790186D01*
X8063590Y-14790186D02*
X8054066Y-14771138D01*
X8054066Y-14771138D02*
X8044542Y-14733043D01*
X8044542Y-14733043D02*
X8044542Y-14685424D01*
X8044542Y-14685424D02*
X8054066Y-14647329D01*
X8054066Y-14647329D02*
X8063590Y-14628281D01*
X8063590Y-14628281D02*
X8073113Y-14618758D01*
X8073113Y-14618758D02*
X8092161Y-14609234D01*
X8396923Y-14809234D02*
X8396923Y-14609234D01*
X8482637Y-14809234D02*
X8482637Y-14704472D01*
X8482637Y-14704472D02*
X8473114Y-14685424D01*
X8473114Y-14685424D02*
X8454066Y-14675900D01*
X8454066Y-14675900D02*
X8425494Y-14675900D01*
X8425494Y-14675900D02*
X8406447Y-14685424D01*
X8406447Y-14685424D02*
X8396923Y-14694948D01*
X8606447Y-14809234D02*
X8587399Y-14799710D01*
X8587399Y-14799710D02*
X8577875Y-14790186D01*
X8577875Y-14790186D02*
X8568352Y-14771138D01*
X8568352Y-14771138D02*
X8568352Y-14713996D01*
X8568352Y-14713996D02*
X8577875Y-14694948D01*
X8577875Y-14694948D02*
X8587399Y-14685424D01*
X8587399Y-14685424D02*
X8606447Y-14675900D01*
X8606447Y-14675900D02*
X8635018Y-14675900D01*
X8635018Y-14675900D02*
X8654066Y-14685424D01*
X8654066Y-14685424D02*
X8663590Y-14694948D01*
X8663590Y-14694948D02*
X8673114Y-14713996D01*
X8673114Y-14713996D02*
X8673114Y-14771138D01*
X8673114Y-14771138D02*
X8663590Y-14790186D01*
X8663590Y-14790186D02*
X8654066Y-14799710D01*
X8654066Y-14799710D02*
X8635018Y-14809234D01*
X8635018Y-14809234D02*
X8606447Y-14809234D01*
X8787399Y-14809234D02*
X8768352Y-14799710D01*
X8768352Y-14799710D02*
X8758828Y-14780662D01*
X8758828Y-14780662D02*
X8758828Y-14609234D01*
X8939780Y-14799710D02*
X8920733Y-14809234D01*
X8920733Y-14809234D02*
X8882637Y-14809234D01*
X8882637Y-14809234D02*
X8863590Y-14799710D01*
X8863590Y-14799710D02*
X8854066Y-14780662D01*
X8854066Y-14780662D02*
X8854066Y-14704472D01*
X8854066Y-14704472D02*
X8863590Y-14685424D01*
X8863590Y-14685424D02*
X8882637Y-14675900D01*
X8882637Y-14675900D02*
X8920733Y-14675900D01*
X8920733Y-14675900D02*
X8939780Y-14685424D01*
X8939780Y-14685424D02*
X8949304Y-14704472D01*
X8949304Y-14704472D02*
X8949304Y-14723519D01*
X8949304Y-14723519D02*
X8854066Y-14742567D01*
X9025495Y-14799710D02*
X9044542Y-14809234D01*
X9044542Y-14809234D02*
X9082637Y-14809234D01*
X9082637Y-14809234D02*
X9101685Y-14799710D01*
X9101685Y-14799710D02*
X9111209Y-14780662D01*
X9111209Y-14780662D02*
X9111209Y-14771138D01*
X9111209Y-14771138D02*
X9101685Y-14752091D01*
X9101685Y-14752091D02*
X9082637Y-14742567D01*
X9082637Y-14742567D02*
X9054066Y-14742567D01*
X9054066Y-14742567D02*
X9035018Y-14733043D01*
X9035018Y-14733043D02*
X9025495Y-14713996D01*
X9025495Y-14713996D02*
X9025495Y-14704472D01*
X9025495Y-14704472D02*
X9035018Y-14685424D01*
X9035018Y-14685424D02*
X9054066Y-14675900D01*
X9054066Y-14675900D02*
X9082637Y-14675900D01*
X9082637Y-14675900D02*
X9101685Y-14685424D01*
X9349304Y-14733043D02*
X9501685Y-14733043D01*
X9425495Y-14809234D02*
X9425495Y-14656853D01*
X9854066Y-14809234D02*
X9739780Y-14809234D01*
X9796923Y-14809234D02*
X9796923Y-14609234D01*
X9796923Y-14609234D02*
X9777876Y-14637805D01*
X9777876Y-14637805D02*
X9758828Y-14656853D01*
X9758828Y-14656853D02*
X9739780Y-14666377D01*
X9977876Y-14609234D02*
X9996923Y-14609234D01*
X9996923Y-14609234D02*
X10015971Y-14618758D01*
X10015971Y-14618758D02*
X10025495Y-14628281D01*
X10025495Y-14628281D02*
X10035018Y-14647329D01*
X10035018Y-14647329D02*
X10044542Y-14685424D01*
X10044542Y-14685424D02*
X10044542Y-14733043D01*
X10044542Y-14733043D02*
X10035018Y-14771138D01*
X10035018Y-14771138D02*
X10025495Y-14790186D01*
X10025495Y-14790186D02*
X10015971Y-14799710D01*
X10015971Y-14799710D02*
X9996923Y-14809234D01*
X9996923Y-14809234D02*
X9977876Y-14809234D01*
X9977876Y-14809234D02*
X9958828Y-14799710D01*
X9958828Y-14799710D02*
X9949304Y-14790186D01*
X9949304Y-14790186D02*
X9939780Y-14771138D01*
X9939780Y-14771138D02*
X9930257Y-14733043D01*
X9930257Y-14733043D02*
X9930257Y-14685424D01*
X9930257Y-14685424D02*
X9939780Y-14647329D01*
X9939780Y-14647329D02*
X9949304Y-14628281D01*
X9949304Y-14628281D02*
X9958828Y-14618758D01*
X9958828Y-14618758D02*
X9977876Y-14609234D01*
X10273114Y-14799710D02*
X10292161Y-14809234D01*
X10292161Y-14809234D02*
X10330257Y-14809234D01*
X10330257Y-14809234D02*
X10349304Y-14799710D01*
X10349304Y-14799710D02*
X10358828Y-14780662D01*
X10358828Y-14780662D02*
X10358828Y-14771138D01*
X10358828Y-14771138D02*
X10349304Y-14752091D01*
X10349304Y-14752091D02*
X10330257Y-14742567D01*
X10330257Y-14742567D02*
X10301685Y-14742567D01*
X10301685Y-14742567D02*
X10282638Y-14733043D01*
X10282638Y-14733043D02*
X10273114Y-14713996D01*
X10273114Y-14713996D02*
X10273114Y-14704472D01*
X10273114Y-14704472D02*
X10282638Y-14685424D01*
X10282638Y-14685424D02*
X10301685Y-14675900D01*
X10301685Y-14675900D02*
X10330257Y-14675900D01*
X10330257Y-14675900D02*
X10349304Y-14685424D01*
X10473114Y-14809234D02*
X10454066Y-14799710D01*
X10454066Y-14799710D02*
X10444542Y-14780662D01*
X10444542Y-14780662D02*
X10444542Y-14609234D01*
X10577876Y-14809234D02*
X10558828Y-14799710D01*
X10558828Y-14799710D02*
X10549304Y-14790186D01*
X10549304Y-14790186D02*
X10539780Y-14771138D01*
X10539780Y-14771138D02*
X10539780Y-14713996D01*
X10539780Y-14713996D02*
X10549304Y-14694948D01*
X10549304Y-14694948D02*
X10558828Y-14685424D01*
X10558828Y-14685424D02*
X10577876Y-14675900D01*
X10577876Y-14675900D02*
X10606447Y-14675900D01*
X10606447Y-14675900D02*
X10625495Y-14685424D01*
X10625495Y-14685424D02*
X10635019Y-14694948D01*
X10635019Y-14694948D02*
X10644542Y-14713996D01*
X10644542Y-14713996D02*
X10644542Y-14771138D01*
X10644542Y-14771138D02*
X10635019Y-14790186D01*
X10635019Y-14790186D02*
X10625495Y-14799710D01*
X10625495Y-14799710D02*
X10606447Y-14809234D01*
X10606447Y-14809234D02*
X10577876Y-14809234D01*
X10701685Y-14675900D02*
X10777876Y-14675900D01*
X10730257Y-14609234D02*
X10730257Y-14780662D01*
X10730257Y-14780662D02*
X10739780Y-14799710D01*
X10739780Y-14799710D02*
X10758828Y-14809234D01*
X10758828Y-14809234D02*
X10777876Y-14809234D01*
X10835019Y-14799710D02*
X10854066Y-14809234D01*
X10854066Y-14809234D02*
X10892161Y-14809234D01*
X10892161Y-14809234D02*
X10911209Y-14799710D01*
X10911209Y-14799710D02*
X10920733Y-14780662D01*
X10920733Y-14780662D02*
X10920733Y-14771138D01*
X10920733Y-14771138D02*
X10911209Y-14752091D01*
X10911209Y-14752091D02*
X10892161Y-14742567D01*
X10892161Y-14742567D02*
X10863590Y-14742567D01*
X10863590Y-14742567D02*
X10844542Y-14733043D01*
X10844542Y-14733043D02*
X10835019Y-14713996D01*
X10835019Y-14713996D02*
X10835019Y-14704472D01*
X10835019Y-14704472D02*
X10844542Y-14685424D01*
X10844542Y-14685424D02*
X10863590Y-14675900D01*
X10863590Y-14675900D02*
X10892161Y-14675900D01*
X10892161Y-14675900D02*
X10911209Y-14685424D01*
X10987400Y-14885424D02*
X10996923Y-14875900D01*
X10996923Y-14875900D02*
X11015971Y-14847329D01*
X11015971Y-14847329D02*
X11025495Y-14828281D01*
X11025495Y-14828281D02*
X11035019Y-14799710D01*
X11035019Y-14799710D02*
X11044542Y-14752091D01*
X11044542Y-14752091D02*
X11044542Y-14713996D01*
X11044542Y-14713996D02*
X11035019Y-14666377D01*
X11035019Y-14666377D02*
X11025495Y-14637805D01*
X11025495Y-14637805D02*
X11015971Y-14618758D01*
X11015971Y-14618758D02*
X10996923Y-14590186D01*
X10996923Y-14590186D02*
X10987400Y-14580662D01*
D12*
X4362813Y-14941750D02*
X4362813Y-15021750D01*
X4322813Y-14981750D02*
X4402813Y-14981750D01*
D11*
X4701685Y-14873234D02*
X4720732Y-14873234D01*
X4720732Y-14873234D02*
X4739780Y-14882758D01*
X4739780Y-14882758D02*
X4749304Y-14892281D01*
X4749304Y-14892281D02*
X4758827Y-14911329D01*
X4758827Y-14911329D02*
X4768351Y-14949424D01*
X4768351Y-14949424D02*
X4768351Y-14997043D01*
X4768351Y-14997043D02*
X4758827Y-15035138D01*
X4758827Y-15035138D02*
X4749304Y-15054186D01*
X4749304Y-15054186D02*
X4739780Y-15063710D01*
X4739780Y-15063710D02*
X4720732Y-15073234D01*
X4720732Y-15073234D02*
X4701685Y-15073234D01*
X4701685Y-15073234D02*
X4682637Y-15063710D01*
X4682637Y-15063710D02*
X4673113Y-15054186D01*
X4673113Y-15054186D02*
X4663589Y-15035138D01*
X4663589Y-15035138D02*
X4654066Y-14997043D01*
X4654066Y-14997043D02*
X4654066Y-14949424D01*
X4654066Y-14949424D02*
X4663589Y-14911329D01*
X4663589Y-14911329D02*
X4673113Y-14892281D01*
X4673113Y-14892281D02*
X4682637Y-14882758D01*
X4682637Y-14882758D02*
X4701685Y-14873234D01*
X4854066Y-15054186D02*
X4863589Y-15063710D01*
X4863589Y-15063710D02*
X4854066Y-15073234D01*
X4854066Y-15073234D02*
X4844542Y-15063710D01*
X4844542Y-15063710D02*
X4854066Y-15054186D01*
X4854066Y-15054186D02*
X4854066Y-15073234D01*
X4977875Y-14958948D02*
X4958827Y-14949424D01*
X4958827Y-14949424D02*
X4949304Y-14939900D01*
X4949304Y-14939900D02*
X4939780Y-14920853D01*
X4939780Y-14920853D02*
X4939780Y-14911329D01*
X4939780Y-14911329D02*
X4949304Y-14892281D01*
X4949304Y-14892281D02*
X4958827Y-14882758D01*
X4958827Y-14882758D02*
X4977875Y-14873234D01*
X4977875Y-14873234D02*
X5015970Y-14873234D01*
X5015970Y-14873234D02*
X5035018Y-14882758D01*
X5035018Y-14882758D02*
X5044542Y-14892281D01*
X5044542Y-14892281D02*
X5054066Y-14911329D01*
X5054066Y-14911329D02*
X5054066Y-14920853D01*
X5054066Y-14920853D02*
X5044542Y-14939900D01*
X5044542Y-14939900D02*
X5035018Y-14949424D01*
X5035018Y-14949424D02*
X5015970Y-14958948D01*
X5015970Y-14958948D02*
X4977875Y-14958948D01*
X4977875Y-14958948D02*
X4958827Y-14968472D01*
X4958827Y-14968472D02*
X4949304Y-14977996D01*
X4949304Y-14977996D02*
X4939780Y-14997043D01*
X4939780Y-14997043D02*
X4939780Y-15035138D01*
X4939780Y-15035138D02*
X4949304Y-15054186D01*
X4949304Y-15054186D02*
X4958827Y-15063710D01*
X4958827Y-15063710D02*
X4977875Y-15073234D01*
X4977875Y-15073234D02*
X5015970Y-15073234D01*
X5015970Y-15073234D02*
X5035018Y-15063710D01*
X5035018Y-15063710D02*
X5044542Y-15054186D01*
X5044542Y-15054186D02*
X5054066Y-15035138D01*
X5054066Y-15035138D02*
X5054066Y-14997043D01*
X5054066Y-14997043D02*
X5044542Y-14977996D01*
X5044542Y-14977996D02*
X5035018Y-14968472D01*
X5035018Y-14968472D02*
X5015970Y-14958948D01*
X5177875Y-14873234D02*
X5196923Y-14873234D01*
X5196923Y-14873234D02*
X5215970Y-14882758D01*
X5215970Y-14882758D02*
X5225494Y-14892281D01*
X5225494Y-14892281D02*
X5235018Y-14911329D01*
X5235018Y-14911329D02*
X5244542Y-14949424D01*
X5244542Y-14949424D02*
X5244542Y-14997043D01*
X5244542Y-14997043D02*
X5235018Y-15035138D01*
X5235018Y-15035138D02*
X5225494Y-15054186D01*
X5225494Y-15054186D02*
X5215970Y-15063710D01*
X5215970Y-15063710D02*
X5196923Y-15073234D01*
X5196923Y-15073234D02*
X5177875Y-15073234D01*
X5177875Y-15073234D02*
X5158827Y-15063710D01*
X5158827Y-15063710D02*
X5149304Y-15054186D01*
X5149304Y-15054186D02*
X5139780Y-15035138D01*
X5139780Y-15035138D02*
X5130256Y-14997043D01*
X5130256Y-14997043D02*
X5130256Y-14949424D01*
X5130256Y-14949424D02*
X5139780Y-14911329D01*
X5139780Y-14911329D02*
X5149304Y-14892281D01*
X5149304Y-14892281D02*
X5158827Y-14882758D01*
X5158827Y-14882758D02*
X5177875Y-14873234D01*
X5368351Y-14873234D02*
X5387399Y-14873234D01*
X5387399Y-14873234D02*
X5406447Y-14882758D01*
X5406447Y-14882758D02*
X5415970Y-14892281D01*
X5415970Y-14892281D02*
X5425494Y-14911329D01*
X5425494Y-14911329D02*
X5435018Y-14949424D01*
X5435018Y-14949424D02*
X5435018Y-14997043D01*
X5435018Y-14997043D02*
X5425494Y-15035138D01*
X5425494Y-15035138D02*
X5415970Y-15054186D01*
X5415970Y-15054186D02*
X5406447Y-15063710D01*
X5406447Y-15063710D02*
X5387399Y-15073234D01*
X5387399Y-15073234D02*
X5368351Y-15073234D01*
X5368351Y-15073234D02*
X5349304Y-15063710D01*
X5349304Y-15063710D02*
X5339780Y-15054186D01*
X5339780Y-15054186D02*
X5330256Y-15035138D01*
X5330256Y-15035138D02*
X5320732Y-14997043D01*
X5320732Y-14997043D02*
X5320732Y-14949424D01*
X5320732Y-14949424D02*
X5330256Y-14911329D01*
X5330256Y-14911329D02*
X5339780Y-14892281D01*
X5339780Y-14892281D02*
X5349304Y-14882758D01*
X5349304Y-14882758D02*
X5368351Y-14873234D01*
X5520732Y-15073234D02*
X5520732Y-14939900D01*
X5520732Y-14958948D02*
X5530256Y-14949424D01*
X5530256Y-14949424D02*
X5549304Y-14939900D01*
X5549304Y-14939900D02*
X5577875Y-14939900D01*
X5577875Y-14939900D02*
X5596923Y-14949424D01*
X5596923Y-14949424D02*
X5606446Y-14968472D01*
X5606446Y-14968472D02*
X5606446Y-15073234D01*
X5606446Y-14968472D02*
X5615970Y-14949424D01*
X5615970Y-14949424D02*
X5635018Y-14939900D01*
X5635018Y-14939900D02*
X5663589Y-14939900D01*
X5663589Y-14939900D02*
X5682637Y-14949424D01*
X5682637Y-14949424D02*
X5692161Y-14968472D01*
X5692161Y-14968472D02*
X5692161Y-15073234D01*
X5787399Y-15073234D02*
X5787399Y-14939900D01*
X5787399Y-14958948D02*
X5796923Y-14949424D01*
X5796923Y-14949424D02*
X5815970Y-14939900D01*
X5815970Y-14939900D02*
X5844542Y-14939900D01*
X5844542Y-14939900D02*
X5863589Y-14949424D01*
X5863589Y-14949424D02*
X5873113Y-14968472D01*
X5873113Y-14968472D02*
X5873113Y-15073234D01*
X5873113Y-14968472D02*
X5882637Y-14949424D01*
X5882637Y-14949424D02*
X5901685Y-14939900D01*
X5901685Y-14939900D02*
X5930256Y-14939900D01*
X5930256Y-14939900D02*
X5949304Y-14949424D01*
X5949304Y-14949424D02*
X5958827Y-14968472D01*
X5958827Y-14968472D02*
X5958827Y-15073234D01*
X6349304Y-14863710D02*
X6177875Y-15120853D01*
X6606447Y-14873234D02*
X6625494Y-14873234D01*
X6625494Y-14873234D02*
X6644542Y-14882758D01*
X6644542Y-14882758D02*
X6654066Y-14892281D01*
X6654066Y-14892281D02*
X6663589Y-14911329D01*
X6663589Y-14911329D02*
X6673113Y-14949424D01*
X6673113Y-14949424D02*
X6673113Y-14997043D01*
X6673113Y-14997043D02*
X6663589Y-15035138D01*
X6663589Y-15035138D02*
X6654066Y-15054186D01*
X6654066Y-15054186D02*
X6644542Y-15063710D01*
X6644542Y-15063710D02*
X6625494Y-15073234D01*
X6625494Y-15073234D02*
X6606447Y-15073234D01*
X6606447Y-15073234D02*
X6587399Y-15063710D01*
X6587399Y-15063710D02*
X6577875Y-15054186D01*
X6577875Y-15054186D02*
X6568351Y-15035138D01*
X6568351Y-15035138D02*
X6558828Y-14997043D01*
X6558828Y-14997043D02*
X6558828Y-14949424D01*
X6558828Y-14949424D02*
X6568351Y-14911329D01*
X6568351Y-14911329D02*
X6577875Y-14892281D01*
X6577875Y-14892281D02*
X6587399Y-14882758D01*
X6587399Y-14882758D02*
X6606447Y-14873234D01*
X6758828Y-15054186D02*
X6768351Y-15063710D01*
X6768351Y-15063710D02*
X6758828Y-15073234D01*
X6758828Y-15073234D02*
X6749304Y-15063710D01*
X6749304Y-15063710D02*
X6758828Y-15054186D01*
X6758828Y-15054186D02*
X6758828Y-15073234D01*
X6892161Y-14873234D02*
X6911209Y-14873234D01*
X6911209Y-14873234D02*
X6930256Y-14882758D01*
X6930256Y-14882758D02*
X6939780Y-14892281D01*
X6939780Y-14892281D02*
X6949304Y-14911329D01*
X6949304Y-14911329D02*
X6958828Y-14949424D01*
X6958828Y-14949424D02*
X6958828Y-14997043D01*
X6958828Y-14997043D02*
X6949304Y-15035138D01*
X6949304Y-15035138D02*
X6939780Y-15054186D01*
X6939780Y-15054186D02*
X6930256Y-15063710D01*
X6930256Y-15063710D02*
X6911209Y-15073234D01*
X6911209Y-15073234D02*
X6892161Y-15073234D01*
X6892161Y-15073234D02*
X6873113Y-15063710D01*
X6873113Y-15063710D02*
X6863589Y-15054186D01*
X6863589Y-15054186D02*
X6854066Y-15035138D01*
X6854066Y-15035138D02*
X6844542Y-14997043D01*
X6844542Y-14997043D02*
X6844542Y-14949424D01*
X6844542Y-14949424D02*
X6854066Y-14911329D01*
X6854066Y-14911329D02*
X6863589Y-14892281D01*
X6863589Y-14892281D02*
X6873113Y-14882758D01*
X6873113Y-14882758D02*
X6892161Y-14873234D01*
X7025494Y-14873234D02*
X7149304Y-14873234D01*
X7149304Y-14873234D02*
X7082637Y-14949424D01*
X7082637Y-14949424D02*
X7111209Y-14949424D01*
X7111209Y-14949424D02*
X7130256Y-14958948D01*
X7130256Y-14958948D02*
X7139780Y-14968472D01*
X7139780Y-14968472D02*
X7149304Y-14987519D01*
X7149304Y-14987519D02*
X7149304Y-15035138D01*
X7149304Y-15035138D02*
X7139780Y-15054186D01*
X7139780Y-15054186D02*
X7130256Y-15063710D01*
X7130256Y-15063710D02*
X7111209Y-15073234D01*
X7111209Y-15073234D02*
X7054066Y-15073234D01*
X7054066Y-15073234D02*
X7035018Y-15063710D01*
X7035018Y-15063710D02*
X7025494Y-15054186D01*
X7339780Y-15073234D02*
X7225494Y-15073234D01*
X7282637Y-15073234D02*
X7282637Y-14873234D01*
X7282637Y-14873234D02*
X7263589Y-14901805D01*
X7263589Y-14901805D02*
X7244542Y-14920853D01*
X7244542Y-14920853D02*
X7225494Y-14930377D01*
X7520732Y-14873234D02*
X7425494Y-14873234D01*
X7425494Y-14873234D02*
X7415970Y-14968472D01*
X7415970Y-14968472D02*
X7425494Y-14958948D01*
X7425494Y-14958948D02*
X7444542Y-14949424D01*
X7444542Y-14949424D02*
X7492161Y-14949424D01*
X7492161Y-14949424D02*
X7511209Y-14958948D01*
X7511209Y-14958948D02*
X7520732Y-14968472D01*
X7520732Y-14968472D02*
X7530256Y-14987519D01*
X7530256Y-14987519D02*
X7530256Y-15035138D01*
X7530256Y-15035138D02*
X7520732Y-15054186D01*
X7520732Y-15054186D02*
X7511209Y-15063710D01*
X7511209Y-15063710D02*
X7492161Y-15073234D01*
X7492161Y-15073234D02*
X7444542Y-15073234D01*
X7444542Y-15073234D02*
X7425494Y-15063710D01*
X7425494Y-15063710D02*
X7415970Y-15054186D01*
X7606447Y-14873234D02*
X7606447Y-14911329D01*
X7682637Y-14873234D02*
X7682637Y-14911329D01*
X7977875Y-15149424D02*
X7968351Y-15139900D01*
X7968351Y-15139900D02*
X7949304Y-15111329D01*
X7949304Y-15111329D02*
X7939780Y-15092281D01*
X7939780Y-15092281D02*
X7930256Y-15063710D01*
X7930256Y-15063710D02*
X7920732Y-15016091D01*
X7920732Y-15016091D02*
X7920732Y-14977996D01*
X7920732Y-14977996D02*
X7930256Y-14930377D01*
X7930256Y-14930377D02*
X7939780Y-14901805D01*
X7939780Y-14901805D02*
X7949304Y-14882758D01*
X7949304Y-14882758D02*
X7968351Y-14854186D01*
X7968351Y-14854186D02*
X7977875Y-14844662D01*
X8139780Y-14939900D02*
X8139780Y-15073234D01*
X8092161Y-14863710D02*
X8044542Y-15006567D01*
X8044542Y-15006567D02*
X8168351Y-15006567D01*
X8235018Y-14892281D02*
X8244542Y-14882758D01*
X8244542Y-14882758D02*
X8263590Y-14873234D01*
X8263590Y-14873234D02*
X8311209Y-14873234D01*
X8311209Y-14873234D02*
X8330256Y-14882758D01*
X8330256Y-14882758D02*
X8339780Y-14892281D01*
X8339780Y-14892281D02*
X8349304Y-14911329D01*
X8349304Y-14911329D02*
X8349304Y-14930377D01*
X8349304Y-14930377D02*
X8339780Y-14958948D01*
X8339780Y-14958948D02*
X8225494Y-15073234D01*
X8225494Y-15073234D02*
X8349304Y-15073234D01*
X8587399Y-15073234D02*
X8587399Y-14873234D01*
X8673114Y-15073234D02*
X8673114Y-14968472D01*
X8673114Y-14968472D02*
X8663590Y-14949424D01*
X8663590Y-14949424D02*
X8644542Y-14939900D01*
X8644542Y-14939900D02*
X8615971Y-14939900D01*
X8615971Y-14939900D02*
X8596923Y-14949424D01*
X8596923Y-14949424D02*
X8587399Y-14958948D01*
X8796923Y-15073234D02*
X8777875Y-15063710D01*
X8777875Y-15063710D02*
X8768352Y-15054186D01*
X8768352Y-15054186D02*
X8758828Y-15035138D01*
X8758828Y-15035138D02*
X8758828Y-14977996D01*
X8758828Y-14977996D02*
X8768352Y-14958948D01*
X8768352Y-14958948D02*
X8777875Y-14949424D01*
X8777875Y-14949424D02*
X8796923Y-14939900D01*
X8796923Y-14939900D02*
X8825495Y-14939900D01*
X8825495Y-14939900D02*
X8844542Y-14949424D01*
X8844542Y-14949424D02*
X8854066Y-14958948D01*
X8854066Y-14958948D02*
X8863590Y-14977996D01*
X8863590Y-14977996D02*
X8863590Y-15035138D01*
X8863590Y-15035138D02*
X8854066Y-15054186D01*
X8854066Y-15054186D02*
X8844542Y-15063710D01*
X8844542Y-15063710D02*
X8825495Y-15073234D01*
X8825495Y-15073234D02*
X8796923Y-15073234D01*
X8977875Y-15073234D02*
X8958828Y-15063710D01*
X8958828Y-15063710D02*
X8949304Y-15044662D01*
X8949304Y-15044662D02*
X8949304Y-14873234D01*
X9130256Y-15063710D02*
X9111209Y-15073234D01*
X9111209Y-15073234D02*
X9073114Y-15073234D01*
X9073114Y-15073234D02*
X9054066Y-15063710D01*
X9054066Y-15063710D02*
X9044542Y-15044662D01*
X9044542Y-15044662D02*
X9044542Y-14968472D01*
X9044542Y-14968472D02*
X9054066Y-14949424D01*
X9054066Y-14949424D02*
X9073114Y-14939900D01*
X9073114Y-14939900D02*
X9111209Y-14939900D01*
X9111209Y-14939900D02*
X9130256Y-14949424D01*
X9130256Y-14949424D02*
X9139780Y-14968472D01*
X9139780Y-14968472D02*
X9139780Y-14987519D01*
X9139780Y-14987519D02*
X9044542Y-15006567D01*
X9215971Y-15063710D02*
X9235018Y-15073234D01*
X9235018Y-15073234D02*
X9273114Y-15073234D01*
X9273114Y-15073234D02*
X9292161Y-15063710D01*
X9292161Y-15063710D02*
X9301685Y-15044662D01*
X9301685Y-15044662D02*
X9301685Y-15035138D01*
X9301685Y-15035138D02*
X9292161Y-15016091D01*
X9292161Y-15016091D02*
X9273114Y-15006567D01*
X9273114Y-15006567D02*
X9244542Y-15006567D01*
X9244542Y-15006567D02*
X9225495Y-14997043D01*
X9225495Y-14997043D02*
X9215971Y-14977996D01*
X9215971Y-14977996D02*
X9215971Y-14968472D01*
X9215971Y-14968472D02*
X9225495Y-14949424D01*
X9225495Y-14949424D02*
X9244542Y-14939900D01*
X9244542Y-14939900D02*
X9273114Y-14939900D01*
X9273114Y-14939900D02*
X9292161Y-14949424D01*
X9368352Y-15149424D02*
X9377876Y-15139900D01*
X9377876Y-15139900D02*
X9396923Y-15111329D01*
X9396923Y-15111329D02*
X9406447Y-15092281D01*
X9406447Y-15092281D02*
X9415971Y-15063710D01*
X9415971Y-15063710D02*
X9425495Y-15016091D01*
X9425495Y-15016091D02*
X9425495Y-14977996D01*
X9425495Y-14977996D02*
X9415971Y-14930377D01*
X9415971Y-14930377D02*
X9406447Y-14901805D01*
X9406447Y-14901805D02*
X9396923Y-14882758D01*
X9396923Y-14882758D02*
X9377876Y-14854186D01*
X9377876Y-14854186D02*
X9368352Y-14844662D01*
D12*
X4388168Y-15281106D02*
X4388168Y-15210394D01*
X4317457Y-15210394D01*
X4317457Y-15281106D01*
X4388168Y-15281106D01*
D11*
X4768351Y-15337234D02*
X4654066Y-15337234D01*
X4711208Y-15337234D02*
X4711208Y-15137234D01*
X4711208Y-15137234D02*
X4692161Y-15165805D01*
X4692161Y-15165805D02*
X4673113Y-15184853D01*
X4673113Y-15184853D02*
X4654066Y-15194377D01*
X4854066Y-15318186D02*
X4863589Y-15327710D01*
X4863589Y-15327710D02*
X4854066Y-15337234D01*
X4854066Y-15337234D02*
X4844542Y-15327710D01*
X4844542Y-15327710D02*
X4854066Y-15318186D01*
X4854066Y-15318186D02*
X4854066Y-15337234D01*
X4987399Y-15137234D02*
X5006447Y-15137234D01*
X5006447Y-15137234D02*
X5025494Y-15146758D01*
X5025494Y-15146758D02*
X5035018Y-15156281D01*
X5035018Y-15156281D02*
X5044542Y-15175329D01*
X5044542Y-15175329D02*
X5054066Y-15213424D01*
X5054066Y-15213424D02*
X5054066Y-15261043D01*
X5054066Y-15261043D02*
X5044542Y-15299138D01*
X5044542Y-15299138D02*
X5035018Y-15318186D01*
X5035018Y-15318186D02*
X5025494Y-15327710D01*
X5025494Y-15327710D02*
X5006447Y-15337234D01*
X5006447Y-15337234D02*
X4987399Y-15337234D01*
X4987399Y-15337234D02*
X4968351Y-15327710D01*
X4968351Y-15327710D02*
X4958827Y-15318186D01*
X4958827Y-15318186D02*
X4949304Y-15299138D01*
X4949304Y-15299138D02*
X4939780Y-15261043D01*
X4939780Y-15261043D02*
X4939780Y-15213424D01*
X4939780Y-15213424D02*
X4949304Y-15175329D01*
X4949304Y-15175329D02*
X4958827Y-15156281D01*
X4958827Y-15156281D02*
X4968351Y-15146758D01*
X4968351Y-15146758D02*
X4987399Y-15137234D01*
X5177875Y-15137234D02*
X5196923Y-15137234D01*
X5196923Y-15137234D02*
X5215970Y-15146758D01*
X5215970Y-15146758D02*
X5225494Y-15156281D01*
X5225494Y-15156281D02*
X5235018Y-15175329D01*
X5235018Y-15175329D02*
X5244542Y-15213424D01*
X5244542Y-15213424D02*
X5244542Y-15261043D01*
X5244542Y-15261043D02*
X5235018Y-15299138D01*
X5235018Y-15299138D02*
X5225494Y-15318186D01*
X5225494Y-15318186D02*
X5215970Y-15327710D01*
X5215970Y-15327710D02*
X5196923Y-15337234D01*
X5196923Y-15337234D02*
X5177875Y-15337234D01*
X5177875Y-15337234D02*
X5158827Y-15327710D01*
X5158827Y-15327710D02*
X5149304Y-15318186D01*
X5149304Y-15318186D02*
X5139780Y-15299138D01*
X5139780Y-15299138D02*
X5130256Y-15261043D01*
X5130256Y-15261043D02*
X5130256Y-15213424D01*
X5130256Y-15213424D02*
X5139780Y-15175329D01*
X5139780Y-15175329D02*
X5149304Y-15156281D01*
X5149304Y-15156281D02*
X5158827Y-15146758D01*
X5158827Y-15146758D02*
X5177875Y-15137234D01*
X5368351Y-15137234D02*
X5387399Y-15137234D01*
X5387399Y-15137234D02*
X5406447Y-15146758D01*
X5406447Y-15146758D02*
X5415970Y-15156281D01*
X5415970Y-15156281D02*
X5425494Y-15175329D01*
X5425494Y-15175329D02*
X5435018Y-15213424D01*
X5435018Y-15213424D02*
X5435018Y-15261043D01*
X5435018Y-15261043D02*
X5425494Y-15299138D01*
X5425494Y-15299138D02*
X5415970Y-15318186D01*
X5415970Y-15318186D02*
X5406447Y-15327710D01*
X5406447Y-15327710D02*
X5387399Y-15337234D01*
X5387399Y-15337234D02*
X5368351Y-15337234D01*
X5368351Y-15337234D02*
X5349304Y-15327710D01*
X5349304Y-15327710D02*
X5339780Y-15318186D01*
X5339780Y-15318186D02*
X5330256Y-15299138D01*
X5330256Y-15299138D02*
X5320732Y-15261043D01*
X5320732Y-15261043D02*
X5320732Y-15213424D01*
X5320732Y-15213424D02*
X5330256Y-15175329D01*
X5330256Y-15175329D02*
X5339780Y-15156281D01*
X5339780Y-15156281D02*
X5349304Y-15146758D01*
X5349304Y-15146758D02*
X5368351Y-15137234D01*
X5520732Y-15337234D02*
X5520732Y-15203900D01*
X5520732Y-15222948D02*
X5530256Y-15213424D01*
X5530256Y-15213424D02*
X5549304Y-15203900D01*
X5549304Y-15203900D02*
X5577875Y-15203900D01*
X5577875Y-15203900D02*
X5596923Y-15213424D01*
X5596923Y-15213424D02*
X5606446Y-15232472D01*
X5606446Y-15232472D02*
X5606446Y-15337234D01*
X5606446Y-15232472D02*
X5615970Y-15213424D01*
X5615970Y-15213424D02*
X5635018Y-15203900D01*
X5635018Y-15203900D02*
X5663589Y-15203900D01*
X5663589Y-15203900D02*
X5682637Y-15213424D01*
X5682637Y-15213424D02*
X5692161Y-15232472D01*
X5692161Y-15232472D02*
X5692161Y-15337234D01*
X5787399Y-15337234D02*
X5787399Y-15203900D01*
X5787399Y-15222948D02*
X5796923Y-15213424D01*
X5796923Y-15213424D02*
X5815970Y-15203900D01*
X5815970Y-15203900D02*
X5844542Y-15203900D01*
X5844542Y-15203900D02*
X5863589Y-15213424D01*
X5863589Y-15213424D02*
X5873113Y-15232472D01*
X5873113Y-15232472D02*
X5873113Y-15337234D01*
X5873113Y-15232472D02*
X5882637Y-15213424D01*
X5882637Y-15213424D02*
X5901685Y-15203900D01*
X5901685Y-15203900D02*
X5930256Y-15203900D01*
X5930256Y-15203900D02*
X5949304Y-15213424D01*
X5949304Y-15213424D02*
X5958827Y-15232472D01*
X5958827Y-15232472D02*
X5958827Y-15337234D01*
X6349304Y-15127710D02*
X6177875Y-15384853D01*
X6606447Y-15137234D02*
X6625494Y-15137234D01*
X6625494Y-15137234D02*
X6644542Y-15146758D01*
X6644542Y-15146758D02*
X6654066Y-15156281D01*
X6654066Y-15156281D02*
X6663589Y-15175329D01*
X6663589Y-15175329D02*
X6673113Y-15213424D01*
X6673113Y-15213424D02*
X6673113Y-15261043D01*
X6673113Y-15261043D02*
X6663589Y-15299138D01*
X6663589Y-15299138D02*
X6654066Y-15318186D01*
X6654066Y-15318186D02*
X6644542Y-15327710D01*
X6644542Y-15327710D02*
X6625494Y-15337234D01*
X6625494Y-15337234D02*
X6606447Y-15337234D01*
X6606447Y-15337234D02*
X6587399Y-15327710D01*
X6587399Y-15327710D02*
X6577875Y-15318186D01*
X6577875Y-15318186D02*
X6568351Y-15299138D01*
X6568351Y-15299138D02*
X6558828Y-15261043D01*
X6558828Y-15261043D02*
X6558828Y-15213424D01*
X6558828Y-15213424D02*
X6568351Y-15175329D01*
X6568351Y-15175329D02*
X6577875Y-15156281D01*
X6577875Y-15156281D02*
X6587399Y-15146758D01*
X6587399Y-15146758D02*
X6606447Y-15137234D01*
X6758828Y-15318186D02*
X6768351Y-15327710D01*
X6768351Y-15327710D02*
X6758828Y-15337234D01*
X6758828Y-15337234D02*
X6749304Y-15327710D01*
X6749304Y-15327710D02*
X6758828Y-15318186D01*
X6758828Y-15318186D02*
X6758828Y-15337234D01*
X6892161Y-15137234D02*
X6911209Y-15137234D01*
X6911209Y-15137234D02*
X6930256Y-15146758D01*
X6930256Y-15146758D02*
X6939780Y-15156281D01*
X6939780Y-15156281D02*
X6949304Y-15175329D01*
X6949304Y-15175329D02*
X6958828Y-15213424D01*
X6958828Y-15213424D02*
X6958828Y-15261043D01*
X6958828Y-15261043D02*
X6949304Y-15299138D01*
X6949304Y-15299138D02*
X6939780Y-15318186D01*
X6939780Y-15318186D02*
X6930256Y-15327710D01*
X6930256Y-15327710D02*
X6911209Y-15337234D01*
X6911209Y-15337234D02*
X6892161Y-15337234D01*
X6892161Y-15337234D02*
X6873113Y-15327710D01*
X6873113Y-15327710D02*
X6863589Y-15318186D01*
X6863589Y-15318186D02*
X6854066Y-15299138D01*
X6854066Y-15299138D02*
X6844542Y-15261043D01*
X6844542Y-15261043D02*
X6844542Y-15213424D01*
X6844542Y-15213424D02*
X6854066Y-15175329D01*
X6854066Y-15175329D02*
X6863589Y-15156281D01*
X6863589Y-15156281D02*
X6873113Y-15146758D01*
X6873113Y-15146758D02*
X6892161Y-15137234D01*
X7025494Y-15137234D02*
X7149304Y-15137234D01*
X7149304Y-15137234D02*
X7082637Y-15213424D01*
X7082637Y-15213424D02*
X7111209Y-15213424D01*
X7111209Y-15213424D02*
X7130256Y-15222948D01*
X7130256Y-15222948D02*
X7139780Y-15232472D01*
X7139780Y-15232472D02*
X7149304Y-15251519D01*
X7149304Y-15251519D02*
X7149304Y-15299138D01*
X7149304Y-15299138D02*
X7139780Y-15318186D01*
X7139780Y-15318186D02*
X7130256Y-15327710D01*
X7130256Y-15327710D02*
X7111209Y-15337234D01*
X7111209Y-15337234D02*
X7054066Y-15337234D01*
X7054066Y-15337234D02*
X7035018Y-15327710D01*
X7035018Y-15327710D02*
X7025494Y-15318186D01*
X7244542Y-15337234D02*
X7282637Y-15337234D01*
X7282637Y-15337234D02*
X7301685Y-15327710D01*
X7301685Y-15327710D02*
X7311209Y-15318186D01*
X7311209Y-15318186D02*
X7330256Y-15289615D01*
X7330256Y-15289615D02*
X7339780Y-15251519D01*
X7339780Y-15251519D02*
X7339780Y-15175329D01*
X7339780Y-15175329D02*
X7330256Y-15156281D01*
X7330256Y-15156281D02*
X7320732Y-15146758D01*
X7320732Y-15146758D02*
X7301685Y-15137234D01*
X7301685Y-15137234D02*
X7263589Y-15137234D01*
X7263589Y-15137234D02*
X7244542Y-15146758D01*
X7244542Y-15146758D02*
X7235018Y-15156281D01*
X7235018Y-15156281D02*
X7225494Y-15175329D01*
X7225494Y-15175329D02*
X7225494Y-15222948D01*
X7225494Y-15222948D02*
X7235018Y-15241996D01*
X7235018Y-15241996D02*
X7244542Y-15251519D01*
X7244542Y-15251519D02*
X7263589Y-15261043D01*
X7263589Y-15261043D02*
X7301685Y-15261043D01*
X7301685Y-15261043D02*
X7320732Y-15251519D01*
X7320732Y-15251519D02*
X7330256Y-15241996D01*
X7330256Y-15241996D02*
X7339780Y-15222948D01*
X7511209Y-15203900D02*
X7511209Y-15337234D01*
X7463589Y-15127710D02*
X7415970Y-15270567D01*
X7415970Y-15270567D02*
X7539780Y-15270567D01*
X7606447Y-15137234D02*
X7606447Y-15175329D01*
X7682637Y-15137234D02*
X7682637Y-15175329D01*
X7977875Y-15413424D02*
X7968351Y-15403900D01*
X7968351Y-15403900D02*
X7949304Y-15375329D01*
X7949304Y-15375329D02*
X7939780Y-15356281D01*
X7939780Y-15356281D02*
X7930256Y-15327710D01*
X7930256Y-15327710D02*
X7920732Y-15280091D01*
X7920732Y-15280091D02*
X7920732Y-15241996D01*
X7920732Y-15241996D02*
X7930256Y-15194377D01*
X7930256Y-15194377D02*
X7939780Y-15165805D01*
X7939780Y-15165805D02*
X7949304Y-15146758D01*
X7949304Y-15146758D02*
X7968351Y-15118186D01*
X7968351Y-15118186D02*
X7977875Y-15108662D01*
X8044542Y-15156281D02*
X8054066Y-15146758D01*
X8054066Y-15146758D02*
X8073113Y-15137234D01*
X8073113Y-15137234D02*
X8120732Y-15137234D01*
X8120732Y-15137234D02*
X8139780Y-15146758D01*
X8139780Y-15146758D02*
X8149304Y-15156281D01*
X8149304Y-15156281D02*
X8158828Y-15175329D01*
X8158828Y-15175329D02*
X8158828Y-15194377D01*
X8158828Y-15194377D02*
X8149304Y-15222948D01*
X8149304Y-15222948D02*
X8035018Y-15337234D01*
X8035018Y-15337234D02*
X8158828Y-15337234D01*
X8225494Y-15137234D02*
X8349304Y-15137234D01*
X8349304Y-15137234D02*
X8282637Y-15213424D01*
X8282637Y-15213424D02*
X8311209Y-15213424D01*
X8311209Y-15213424D02*
X8330256Y-15222948D01*
X8330256Y-15222948D02*
X8339780Y-15232472D01*
X8339780Y-15232472D02*
X8349304Y-15251519D01*
X8349304Y-15251519D02*
X8349304Y-15299138D01*
X8349304Y-15299138D02*
X8339780Y-15318186D01*
X8339780Y-15318186D02*
X8330256Y-15327710D01*
X8330256Y-15327710D02*
X8311209Y-15337234D01*
X8311209Y-15337234D02*
X8254066Y-15337234D01*
X8254066Y-15337234D02*
X8235018Y-15327710D01*
X8235018Y-15327710D02*
X8225494Y-15318186D01*
X8587399Y-15337234D02*
X8587399Y-15137234D01*
X8673114Y-15337234D02*
X8673114Y-15232472D01*
X8673114Y-15232472D02*
X8663590Y-15213424D01*
X8663590Y-15213424D02*
X8644542Y-15203900D01*
X8644542Y-15203900D02*
X8615971Y-15203900D01*
X8615971Y-15203900D02*
X8596923Y-15213424D01*
X8596923Y-15213424D02*
X8587399Y-15222948D01*
X8796923Y-15337234D02*
X8777875Y-15327710D01*
X8777875Y-15327710D02*
X8768352Y-15318186D01*
X8768352Y-15318186D02*
X8758828Y-15299138D01*
X8758828Y-15299138D02*
X8758828Y-15241996D01*
X8758828Y-15241996D02*
X8768352Y-15222948D01*
X8768352Y-15222948D02*
X8777875Y-15213424D01*
X8777875Y-15213424D02*
X8796923Y-15203900D01*
X8796923Y-15203900D02*
X8825495Y-15203900D01*
X8825495Y-15203900D02*
X8844542Y-15213424D01*
X8844542Y-15213424D02*
X8854066Y-15222948D01*
X8854066Y-15222948D02*
X8863590Y-15241996D01*
X8863590Y-15241996D02*
X8863590Y-15299138D01*
X8863590Y-15299138D02*
X8854066Y-15318186D01*
X8854066Y-15318186D02*
X8844542Y-15327710D01*
X8844542Y-15327710D02*
X8825495Y-15337234D01*
X8825495Y-15337234D02*
X8796923Y-15337234D01*
X8977875Y-15337234D02*
X8958828Y-15327710D01*
X8958828Y-15327710D02*
X8949304Y-15308662D01*
X8949304Y-15308662D02*
X8949304Y-15137234D01*
X9130256Y-15327710D02*
X9111209Y-15337234D01*
X9111209Y-15337234D02*
X9073114Y-15337234D01*
X9073114Y-15337234D02*
X9054066Y-15327710D01*
X9054066Y-15327710D02*
X9044542Y-15308662D01*
X9044542Y-15308662D02*
X9044542Y-15232472D01*
X9044542Y-15232472D02*
X9054066Y-15213424D01*
X9054066Y-15213424D02*
X9073114Y-15203900D01*
X9073114Y-15203900D02*
X9111209Y-15203900D01*
X9111209Y-15203900D02*
X9130256Y-15213424D01*
X9130256Y-15213424D02*
X9139780Y-15232472D01*
X9139780Y-15232472D02*
X9139780Y-15251519D01*
X9139780Y-15251519D02*
X9044542Y-15270567D01*
X9215971Y-15327710D02*
X9235018Y-15337234D01*
X9235018Y-15337234D02*
X9273114Y-15337234D01*
X9273114Y-15337234D02*
X9292161Y-15327710D01*
X9292161Y-15327710D02*
X9301685Y-15308662D01*
X9301685Y-15308662D02*
X9301685Y-15299138D01*
X9301685Y-15299138D02*
X9292161Y-15280091D01*
X9292161Y-15280091D02*
X9273114Y-15270567D01*
X9273114Y-15270567D02*
X9244542Y-15270567D01*
X9244542Y-15270567D02*
X9225495Y-15261043D01*
X9225495Y-15261043D02*
X9215971Y-15241996D01*
X9215971Y-15241996D02*
X9215971Y-15232472D01*
X9215971Y-15232472D02*
X9225495Y-15213424D01*
X9225495Y-15213424D02*
X9244542Y-15203900D01*
X9244542Y-15203900D02*
X9273114Y-15203900D01*
X9273114Y-15203900D02*
X9292161Y-15213424D01*
X9368352Y-15413424D02*
X9377876Y-15403900D01*
X9377876Y-15403900D02*
X9396923Y-15375329D01*
X9396923Y-15375329D02*
X9406447Y-15356281D01*
X9406447Y-15356281D02*
X9415971Y-15327710D01*
X9415971Y-15327710D02*
X9425495Y-15280091D01*
X9425495Y-15280091D02*
X9425495Y-15241996D01*
X9425495Y-15241996D02*
X9415971Y-15194377D01*
X9415971Y-15194377D02*
X9406447Y-15165805D01*
X9406447Y-15165805D02*
X9396923Y-15146758D01*
X9396923Y-15146758D02*
X9377876Y-15118186D01*
X9377876Y-15118186D02*
X9368352Y-15108662D01*
D13*
X4327883Y-15584680D02*
X4402813Y-15509750D01*
X4327883Y-15434820D01*
X4252953Y-15509750D01*
X4327883Y-15584680D01*
D11*
X4768351Y-15601234D02*
X4654066Y-15601234D01*
X4711208Y-15601234D02*
X4711208Y-15401234D01*
X4711208Y-15401234D02*
X4692161Y-15429805D01*
X4692161Y-15429805D02*
X4673113Y-15448853D01*
X4673113Y-15448853D02*
X4654066Y-15458377D01*
X4854066Y-15582186D02*
X4863589Y-15591710D01*
X4863589Y-15591710D02*
X4854066Y-15601234D01*
X4854066Y-15601234D02*
X4844542Y-15591710D01*
X4844542Y-15591710D02*
X4854066Y-15582186D01*
X4854066Y-15582186D02*
X4854066Y-15601234D01*
X5035018Y-15467900D02*
X5035018Y-15601234D01*
X4987399Y-15391710D02*
X4939780Y-15534567D01*
X4939780Y-15534567D02*
X5063589Y-15534567D01*
X5149304Y-15601234D02*
X5187399Y-15601234D01*
X5187399Y-15601234D02*
X5206447Y-15591710D01*
X5206447Y-15591710D02*
X5215970Y-15582186D01*
X5215970Y-15582186D02*
X5235018Y-15553615D01*
X5235018Y-15553615D02*
X5244542Y-15515519D01*
X5244542Y-15515519D02*
X5244542Y-15439329D01*
X5244542Y-15439329D02*
X5235018Y-15420281D01*
X5235018Y-15420281D02*
X5225494Y-15410758D01*
X5225494Y-15410758D02*
X5206447Y-15401234D01*
X5206447Y-15401234D02*
X5168351Y-15401234D01*
X5168351Y-15401234D02*
X5149304Y-15410758D01*
X5149304Y-15410758D02*
X5139780Y-15420281D01*
X5139780Y-15420281D02*
X5130256Y-15439329D01*
X5130256Y-15439329D02*
X5130256Y-15486948D01*
X5130256Y-15486948D02*
X5139780Y-15505996D01*
X5139780Y-15505996D02*
X5149304Y-15515519D01*
X5149304Y-15515519D02*
X5168351Y-15525043D01*
X5168351Y-15525043D02*
X5206447Y-15525043D01*
X5206447Y-15525043D02*
X5225494Y-15515519D01*
X5225494Y-15515519D02*
X5235018Y-15505996D01*
X5235018Y-15505996D02*
X5244542Y-15486948D01*
X5339780Y-15601234D02*
X5377875Y-15601234D01*
X5377875Y-15601234D02*
X5396923Y-15591710D01*
X5396923Y-15591710D02*
X5406447Y-15582186D01*
X5406447Y-15582186D02*
X5425494Y-15553615D01*
X5425494Y-15553615D02*
X5435018Y-15515519D01*
X5435018Y-15515519D02*
X5435018Y-15439329D01*
X5435018Y-15439329D02*
X5425494Y-15420281D01*
X5425494Y-15420281D02*
X5415970Y-15410758D01*
X5415970Y-15410758D02*
X5396923Y-15401234D01*
X5396923Y-15401234D02*
X5358827Y-15401234D01*
X5358827Y-15401234D02*
X5339780Y-15410758D01*
X5339780Y-15410758D02*
X5330256Y-15420281D01*
X5330256Y-15420281D02*
X5320732Y-15439329D01*
X5320732Y-15439329D02*
X5320732Y-15486948D01*
X5320732Y-15486948D02*
X5330256Y-15505996D01*
X5330256Y-15505996D02*
X5339780Y-15515519D01*
X5339780Y-15515519D02*
X5358827Y-15525043D01*
X5358827Y-15525043D02*
X5396923Y-15525043D01*
X5396923Y-15525043D02*
X5415970Y-15515519D01*
X5415970Y-15515519D02*
X5425494Y-15505996D01*
X5425494Y-15505996D02*
X5435018Y-15486948D01*
X5520732Y-15601234D02*
X5520732Y-15467900D01*
X5520732Y-15486948D02*
X5530256Y-15477424D01*
X5530256Y-15477424D02*
X5549304Y-15467900D01*
X5549304Y-15467900D02*
X5577875Y-15467900D01*
X5577875Y-15467900D02*
X5596923Y-15477424D01*
X5596923Y-15477424D02*
X5606446Y-15496472D01*
X5606446Y-15496472D02*
X5606446Y-15601234D01*
X5606446Y-15496472D02*
X5615970Y-15477424D01*
X5615970Y-15477424D02*
X5635018Y-15467900D01*
X5635018Y-15467900D02*
X5663589Y-15467900D01*
X5663589Y-15467900D02*
X5682637Y-15477424D01*
X5682637Y-15477424D02*
X5692161Y-15496472D01*
X5692161Y-15496472D02*
X5692161Y-15601234D01*
X5787399Y-15601234D02*
X5787399Y-15467900D01*
X5787399Y-15486948D02*
X5796923Y-15477424D01*
X5796923Y-15477424D02*
X5815970Y-15467900D01*
X5815970Y-15467900D02*
X5844542Y-15467900D01*
X5844542Y-15467900D02*
X5863589Y-15477424D01*
X5863589Y-15477424D02*
X5873113Y-15496472D01*
X5873113Y-15496472D02*
X5873113Y-15601234D01*
X5873113Y-15496472D02*
X5882637Y-15477424D01*
X5882637Y-15477424D02*
X5901685Y-15467900D01*
X5901685Y-15467900D02*
X5930256Y-15467900D01*
X5930256Y-15467900D02*
X5949304Y-15477424D01*
X5949304Y-15477424D02*
X5958827Y-15496472D01*
X5958827Y-15496472D02*
X5958827Y-15601234D01*
X6349304Y-15391710D02*
X6177875Y-15648853D01*
X6606447Y-15401234D02*
X6625494Y-15401234D01*
X6625494Y-15401234D02*
X6644542Y-15410758D01*
X6644542Y-15410758D02*
X6654066Y-15420281D01*
X6654066Y-15420281D02*
X6663589Y-15439329D01*
X6663589Y-15439329D02*
X6673113Y-15477424D01*
X6673113Y-15477424D02*
X6673113Y-15525043D01*
X6673113Y-15525043D02*
X6663589Y-15563138D01*
X6663589Y-15563138D02*
X6654066Y-15582186D01*
X6654066Y-15582186D02*
X6644542Y-15591710D01*
X6644542Y-15591710D02*
X6625494Y-15601234D01*
X6625494Y-15601234D02*
X6606447Y-15601234D01*
X6606447Y-15601234D02*
X6587399Y-15591710D01*
X6587399Y-15591710D02*
X6577875Y-15582186D01*
X6577875Y-15582186D02*
X6568351Y-15563138D01*
X6568351Y-15563138D02*
X6558828Y-15525043D01*
X6558828Y-15525043D02*
X6558828Y-15477424D01*
X6558828Y-15477424D02*
X6568351Y-15439329D01*
X6568351Y-15439329D02*
X6577875Y-15420281D01*
X6577875Y-15420281D02*
X6587399Y-15410758D01*
X6587399Y-15410758D02*
X6606447Y-15401234D01*
X6758828Y-15582186D02*
X6768351Y-15591710D01*
X6768351Y-15591710D02*
X6758828Y-15601234D01*
X6758828Y-15601234D02*
X6749304Y-15591710D01*
X6749304Y-15591710D02*
X6758828Y-15582186D01*
X6758828Y-15582186D02*
X6758828Y-15601234D01*
X6892161Y-15401234D02*
X6911209Y-15401234D01*
X6911209Y-15401234D02*
X6930256Y-15410758D01*
X6930256Y-15410758D02*
X6939780Y-15420281D01*
X6939780Y-15420281D02*
X6949304Y-15439329D01*
X6949304Y-15439329D02*
X6958828Y-15477424D01*
X6958828Y-15477424D02*
X6958828Y-15525043D01*
X6958828Y-15525043D02*
X6949304Y-15563138D01*
X6949304Y-15563138D02*
X6939780Y-15582186D01*
X6939780Y-15582186D02*
X6930256Y-15591710D01*
X6930256Y-15591710D02*
X6911209Y-15601234D01*
X6911209Y-15601234D02*
X6892161Y-15601234D01*
X6892161Y-15601234D02*
X6873113Y-15591710D01*
X6873113Y-15591710D02*
X6863589Y-15582186D01*
X6863589Y-15582186D02*
X6854066Y-15563138D01*
X6854066Y-15563138D02*
X6844542Y-15525043D01*
X6844542Y-15525043D02*
X6844542Y-15477424D01*
X6844542Y-15477424D02*
X6854066Y-15439329D01*
X6854066Y-15439329D02*
X6863589Y-15420281D01*
X6863589Y-15420281D02*
X6873113Y-15410758D01*
X6873113Y-15410758D02*
X6892161Y-15401234D01*
X7139780Y-15401234D02*
X7044542Y-15401234D01*
X7044542Y-15401234D02*
X7035018Y-15496472D01*
X7035018Y-15496472D02*
X7044542Y-15486948D01*
X7044542Y-15486948D02*
X7063589Y-15477424D01*
X7063589Y-15477424D02*
X7111209Y-15477424D01*
X7111209Y-15477424D02*
X7130256Y-15486948D01*
X7130256Y-15486948D02*
X7139780Y-15496472D01*
X7139780Y-15496472D02*
X7149304Y-15515519D01*
X7149304Y-15515519D02*
X7149304Y-15563138D01*
X7149304Y-15563138D02*
X7139780Y-15582186D01*
X7139780Y-15582186D02*
X7130256Y-15591710D01*
X7130256Y-15591710D02*
X7111209Y-15601234D01*
X7111209Y-15601234D02*
X7063589Y-15601234D01*
X7063589Y-15601234D02*
X7044542Y-15591710D01*
X7044542Y-15591710D02*
X7035018Y-15582186D01*
X7244542Y-15601234D02*
X7282637Y-15601234D01*
X7282637Y-15601234D02*
X7301685Y-15591710D01*
X7301685Y-15591710D02*
X7311209Y-15582186D01*
X7311209Y-15582186D02*
X7330256Y-15553615D01*
X7330256Y-15553615D02*
X7339780Y-15515519D01*
X7339780Y-15515519D02*
X7339780Y-15439329D01*
X7339780Y-15439329D02*
X7330256Y-15420281D01*
X7330256Y-15420281D02*
X7320732Y-15410758D01*
X7320732Y-15410758D02*
X7301685Y-15401234D01*
X7301685Y-15401234D02*
X7263589Y-15401234D01*
X7263589Y-15401234D02*
X7244542Y-15410758D01*
X7244542Y-15410758D02*
X7235018Y-15420281D01*
X7235018Y-15420281D02*
X7225494Y-15439329D01*
X7225494Y-15439329D02*
X7225494Y-15486948D01*
X7225494Y-15486948D02*
X7235018Y-15505996D01*
X7235018Y-15505996D02*
X7244542Y-15515519D01*
X7244542Y-15515519D02*
X7263589Y-15525043D01*
X7263589Y-15525043D02*
X7301685Y-15525043D01*
X7301685Y-15525043D02*
X7320732Y-15515519D01*
X7320732Y-15515519D02*
X7330256Y-15505996D01*
X7330256Y-15505996D02*
X7339780Y-15486948D01*
X7463589Y-15401234D02*
X7482637Y-15401234D01*
X7482637Y-15401234D02*
X7501685Y-15410758D01*
X7501685Y-15410758D02*
X7511209Y-15420281D01*
X7511209Y-15420281D02*
X7520732Y-15439329D01*
X7520732Y-15439329D02*
X7530256Y-15477424D01*
X7530256Y-15477424D02*
X7530256Y-15525043D01*
X7530256Y-15525043D02*
X7520732Y-15563138D01*
X7520732Y-15563138D02*
X7511209Y-15582186D01*
X7511209Y-15582186D02*
X7501685Y-15591710D01*
X7501685Y-15591710D02*
X7482637Y-15601234D01*
X7482637Y-15601234D02*
X7463589Y-15601234D01*
X7463589Y-15601234D02*
X7444542Y-15591710D01*
X7444542Y-15591710D02*
X7435018Y-15582186D01*
X7435018Y-15582186D02*
X7425494Y-15563138D01*
X7425494Y-15563138D02*
X7415970Y-15525043D01*
X7415970Y-15525043D02*
X7415970Y-15477424D01*
X7415970Y-15477424D02*
X7425494Y-15439329D01*
X7425494Y-15439329D02*
X7435018Y-15420281D01*
X7435018Y-15420281D02*
X7444542Y-15410758D01*
X7444542Y-15410758D02*
X7463589Y-15401234D01*
X7606447Y-15401234D02*
X7606447Y-15439329D01*
X7682637Y-15401234D02*
X7682637Y-15439329D01*
X7977875Y-15677424D02*
X7968351Y-15667900D01*
X7968351Y-15667900D02*
X7949304Y-15639329D01*
X7949304Y-15639329D02*
X7939780Y-15620281D01*
X7939780Y-15620281D02*
X7930256Y-15591710D01*
X7930256Y-15591710D02*
X7920732Y-15544091D01*
X7920732Y-15544091D02*
X7920732Y-15505996D01*
X7920732Y-15505996D02*
X7930256Y-15458377D01*
X7930256Y-15458377D02*
X7939780Y-15429805D01*
X7939780Y-15429805D02*
X7949304Y-15410758D01*
X7949304Y-15410758D02*
X7968351Y-15382186D01*
X7968351Y-15382186D02*
X7977875Y-15372662D01*
X8082637Y-15486948D02*
X8063590Y-15477424D01*
X8063590Y-15477424D02*
X8054066Y-15467900D01*
X8054066Y-15467900D02*
X8044542Y-15448853D01*
X8044542Y-15448853D02*
X8044542Y-15439329D01*
X8044542Y-15439329D02*
X8054066Y-15420281D01*
X8054066Y-15420281D02*
X8063590Y-15410758D01*
X8063590Y-15410758D02*
X8082637Y-15401234D01*
X8082637Y-15401234D02*
X8120732Y-15401234D01*
X8120732Y-15401234D02*
X8139780Y-15410758D01*
X8139780Y-15410758D02*
X8149304Y-15420281D01*
X8149304Y-15420281D02*
X8158828Y-15439329D01*
X8158828Y-15439329D02*
X8158828Y-15448853D01*
X8158828Y-15448853D02*
X8149304Y-15467900D01*
X8149304Y-15467900D02*
X8139780Y-15477424D01*
X8139780Y-15477424D02*
X8120732Y-15486948D01*
X8120732Y-15486948D02*
X8082637Y-15486948D01*
X8082637Y-15486948D02*
X8063590Y-15496472D01*
X8063590Y-15496472D02*
X8054066Y-15505996D01*
X8054066Y-15505996D02*
X8044542Y-15525043D01*
X8044542Y-15525043D02*
X8044542Y-15563138D01*
X8044542Y-15563138D02*
X8054066Y-15582186D01*
X8054066Y-15582186D02*
X8063590Y-15591710D01*
X8063590Y-15591710D02*
X8082637Y-15601234D01*
X8082637Y-15601234D02*
X8120732Y-15601234D01*
X8120732Y-15601234D02*
X8139780Y-15591710D01*
X8139780Y-15591710D02*
X8149304Y-15582186D01*
X8149304Y-15582186D02*
X8158828Y-15563138D01*
X8158828Y-15563138D02*
X8158828Y-15525043D01*
X8158828Y-15525043D02*
X8149304Y-15505996D01*
X8149304Y-15505996D02*
X8139780Y-15496472D01*
X8139780Y-15496472D02*
X8120732Y-15486948D01*
X8330256Y-15467900D02*
X8330256Y-15601234D01*
X8282637Y-15391710D02*
X8235018Y-15534567D01*
X8235018Y-15534567D02*
X8358828Y-15534567D01*
X8587399Y-15601234D02*
X8587399Y-15401234D01*
X8673114Y-15601234D02*
X8673114Y-15496472D01*
X8673114Y-15496472D02*
X8663590Y-15477424D01*
X8663590Y-15477424D02*
X8644542Y-15467900D01*
X8644542Y-15467900D02*
X8615971Y-15467900D01*
X8615971Y-15467900D02*
X8596923Y-15477424D01*
X8596923Y-15477424D02*
X8587399Y-15486948D01*
X8796923Y-15601234D02*
X8777875Y-15591710D01*
X8777875Y-15591710D02*
X8768352Y-15582186D01*
X8768352Y-15582186D02*
X8758828Y-15563138D01*
X8758828Y-15563138D02*
X8758828Y-15505996D01*
X8758828Y-15505996D02*
X8768352Y-15486948D01*
X8768352Y-15486948D02*
X8777875Y-15477424D01*
X8777875Y-15477424D02*
X8796923Y-15467900D01*
X8796923Y-15467900D02*
X8825495Y-15467900D01*
X8825495Y-15467900D02*
X8844542Y-15477424D01*
X8844542Y-15477424D02*
X8854066Y-15486948D01*
X8854066Y-15486948D02*
X8863590Y-15505996D01*
X8863590Y-15505996D02*
X8863590Y-15563138D01*
X8863590Y-15563138D02*
X8854066Y-15582186D01*
X8854066Y-15582186D02*
X8844542Y-15591710D01*
X8844542Y-15591710D02*
X8825495Y-15601234D01*
X8825495Y-15601234D02*
X8796923Y-15601234D01*
X8977875Y-15601234D02*
X8958828Y-15591710D01*
X8958828Y-15591710D02*
X8949304Y-15572662D01*
X8949304Y-15572662D02*
X8949304Y-15401234D01*
X9130256Y-15591710D02*
X9111209Y-15601234D01*
X9111209Y-15601234D02*
X9073114Y-15601234D01*
X9073114Y-15601234D02*
X9054066Y-15591710D01*
X9054066Y-15591710D02*
X9044542Y-15572662D01*
X9044542Y-15572662D02*
X9044542Y-15496472D01*
X9044542Y-15496472D02*
X9054066Y-15477424D01*
X9054066Y-15477424D02*
X9073114Y-15467900D01*
X9073114Y-15467900D02*
X9111209Y-15467900D01*
X9111209Y-15467900D02*
X9130256Y-15477424D01*
X9130256Y-15477424D02*
X9139780Y-15496472D01*
X9139780Y-15496472D02*
X9139780Y-15515519D01*
X9139780Y-15515519D02*
X9044542Y-15534567D01*
X9215971Y-15591710D02*
X9235018Y-15601234D01*
X9235018Y-15601234D02*
X9273114Y-15601234D01*
X9273114Y-15601234D02*
X9292161Y-15591710D01*
X9292161Y-15591710D02*
X9301685Y-15572662D01*
X9301685Y-15572662D02*
X9301685Y-15563138D01*
X9301685Y-15563138D02*
X9292161Y-15544091D01*
X9292161Y-15544091D02*
X9273114Y-15534567D01*
X9273114Y-15534567D02*
X9244542Y-15534567D01*
X9244542Y-15534567D02*
X9225495Y-15525043D01*
X9225495Y-15525043D02*
X9215971Y-15505996D01*
X9215971Y-15505996D02*
X9215971Y-15496472D01*
X9215971Y-15496472D02*
X9225495Y-15477424D01*
X9225495Y-15477424D02*
X9244542Y-15467900D01*
X9244542Y-15467900D02*
X9273114Y-15467900D01*
X9273114Y-15467900D02*
X9292161Y-15477424D01*
X9368352Y-15677424D02*
X9377876Y-15667900D01*
X9377876Y-15667900D02*
X9396923Y-15639329D01*
X9396923Y-15639329D02*
X9406447Y-15620281D01*
X9406447Y-15620281D02*
X9415971Y-15591710D01*
X9415971Y-15591710D02*
X9425495Y-15544091D01*
X9425495Y-15544091D02*
X9425495Y-15505996D01*
X9425495Y-15505996D02*
X9415971Y-15458377D01*
X9415971Y-15458377D02*
X9406447Y-15429805D01*
X9406447Y-15429805D02*
X9396923Y-15410758D01*
X9396923Y-15410758D02*
X9377876Y-15382186D01*
X9377876Y-15382186D02*
X9368352Y-15372662D01*
M02*
