G04 #@! TF.GenerationSoftware,KiCad,Pcbnew,8.0.4*
G04 #@! TF.CreationDate,2024-09-10T22:18:47+03:00*
G04 #@! TF.ProjectId,muikku42,6d75696b-6b75-4343-922e-6b696361645f,rev?*
G04 #@! TF.SameCoordinates,Original*
G04 #@! TF.FileFunction,Other,ECO2*
%FSLAX46Y46*%
G04 Gerber Fmt 4.6, Leading zero omitted, Abs format (unit mm)*
G04 Created by KiCad (PCBNEW 8.0.4) date 2024-09-10 22:18:47*
%MOMM*%
%LPD*%
G01*
G04 APERTURE LIST*
%ADD10C,0.150000*%
G04 APERTURE END LIST*
D10*
G04 #@! TO.C,S5*
X126450000Y-61668750D02*
X126450000Y-47868750D01*
X126450000Y-61668750D02*
X140250000Y-61668750D01*
X140250000Y-47868750D02*
X126450000Y-47868750D01*
X140250000Y-47868750D02*
X140250000Y-61668750D01*
G04 #@! TO.C,S11*
X126450000Y-80718750D02*
X126450000Y-66918750D01*
X126450000Y-80718750D02*
X140250000Y-80718750D01*
X140250000Y-66918750D02*
X126450000Y-66918750D01*
X140250000Y-66918750D02*
X140250000Y-80718750D01*
G04 #@! TO.C,S7*
X50250000Y-83100000D02*
X50250000Y-69300000D01*
X50250000Y-83100000D02*
X64050000Y-83100000D01*
X64050000Y-69300000D02*
X50250000Y-69300000D01*
X64050000Y-69300000D02*
X64050000Y-83100000D01*
G04 #@! TO.C,S15*
X88350000Y-99768750D02*
X88350000Y-85968750D01*
X88350000Y-99768750D02*
X102150000Y-99768750D01*
X102150000Y-85968750D02*
X88350000Y-85968750D01*
X102150000Y-85968750D02*
X102150000Y-99768750D01*
G04 #@! TO.C,S4*
X107400000Y-59287500D02*
X107400000Y-45487500D01*
X107400000Y-59287500D02*
X121200000Y-59287500D01*
X121200000Y-45487500D02*
X107400000Y-45487500D01*
X121200000Y-45487500D02*
X121200000Y-59287500D01*
G04 #@! TO.C,S18*
X145500000Y-102150000D02*
X145500000Y-88350000D01*
X145500000Y-102150000D02*
X159300000Y-102150000D01*
X159300000Y-88350000D02*
X145500000Y-88350000D01*
X159300000Y-88350000D02*
X159300000Y-102150000D01*
G04 #@! TO.C,S6*
X145500000Y-64050000D02*
X145500000Y-50250000D01*
X145500000Y-64050000D02*
X159300000Y-64050000D01*
X159300000Y-50250000D02*
X145500000Y-50250000D01*
X159300000Y-50250000D02*
X159300000Y-64050000D01*
G04 #@! TO.C,S17*
X126450000Y-99768750D02*
X126450000Y-85968750D01*
X126450000Y-99768750D02*
X140250000Y-99768750D01*
X140250000Y-85968750D02*
X126450000Y-85968750D01*
X140250000Y-85968750D02*
X140250000Y-99768750D01*
G04 #@! TO.C,S14*
X69300000Y-102150000D02*
X69300000Y-88350000D01*
X69300000Y-102150000D02*
X83100000Y-102150000D01*
X83100000Y-88350000D02*
X69300000Y-88350000D01*
X83100000Y-88350000D02*
X83100000Y-102150000D01*
G04 #@! TO.C,S8*
X69300000Y-83100000D02*
X69300000Y-69300000D01*
X69300000Y-83100000D02*
X83100000Y-83100000D01*
X83100000Y-69300000D02*
X69300000Y-69300000D01*
X83100000Y-69300000D02*
X83100000Y-83100000D01*
G04 #@! TO.C,S2*
X69300000Y-64050000D02*
X69300000Y-50250000D01*
X69300000Y-64050000D02*
X83100000Y-64050000D01*
X83100000Y-50250000D02*
X69300000Y-50250000D01*
X83100000Y-50250000D02*
X83100000Y-64050000D01*
G04 #@! TO.C,S16*
X107400000Y-97387500D02*
X107400000Y-83587500D01*
X107400000Y-97387500D02*
X121200000Y-97387500D01*
X121200000Y-83587500D02*
X107400000Y-83587500D01*
X121200000Y-83587500D02*
X121200000Y-97387500D01*
G04 #@! TO.C,S10*
X107400000Y-78337500D02*
X107400000Y-64537500D01*
X107400000Y-78337500D02*
X121200000Y-78337500D01*
X121200000Y-64537500D02*
X107400000Y-64537500D01*
X121200000Y-64537500D02*
X121200000Y-78337500D01*
G04 #@! TO.C,S12*
X145500000Y-83100000D02*
X145500000Y-69300000D01*
X145500000Y-83100000D02*
X159300000Y-83100000D01*
X159300000Y-69300000D02*
X145500000Y-69300000D01*
X159300000Y-69300000D02*
X159300000Y-83100000D01*
G04 #@! TO.C,S1*
X50250000Y-64050000D02*
X50250000Y-50250000D01*
X50250000Y-64050000D02*
X64050000Y-64050000D01*
X64050000Y-50250000D02*
X50250000Y-50250000D01*
X64050000Y-50250000D02*
X64050000Y-64050000D01*
G04 #@! TO.C,S3*
X88350000Y-61668750D02*
X88350000Y-47868750D01*
X88350000Y-61668750D02*
X102150000Y-61668750D01*
X102150000Y-47868750D02*
X88350000Y-47868750D01*
X102150000Y-47868750D02*
X102150000Y-61668750D01*
G04 #@! TO.C,S13*
X50250000Y-102150000D02*
X50250000Y-88350000D01*
X50250000Y-102150000D02*
X64050000Y-102150000D01*
X64050000Y-88350000D02*
X50250000Y-88350000D01*
X64050000Y-88350000D02*
X64050000Y-102150000D01*
G04 #@! TO.C,S19*
X107400000Y-118818750D02*
X107400000Y-105018750D01*
X107400000Y-118818750D02*
X121200000Y-118818750D01*
X121200000Y-105018750D02*
X107400000Y-105018750D01*
X121200000Y-105018750D02*
X121200000Y-118818750D01*
G04 #@! TO.C,S21*
X147736925Y-123969325D02*
X154636925Y-112018175D01*
X147736925Y-123969325D02*
X159688075Y-130869325D01*
X166588075Y-118918175D02*
X154636925Y-112018175D01*
X166588075Y-118918175D02*
X159688075Y-130869325D01*
G04 #@! TO.C,S20*
X127280510Y-119179037D02*
X130852213Y-105849260D01*
X127280510Y-119179037D02*
X140610287Y-122750740D01*
X144181990Y-109420963D02*
X130852213Y-105849260D01*
X144181990Y-109420963D02*
X140610287Y-122750740D01*
G04 #@! TO.C,S9*
X88350000Y-80718750D02*
X88350000Y-66918750D01*
X88350000Y-80718750D02*
X102150000Y-80718750D01*
X102150000Y-66918750D02*
X88350000Y-66918750D01*
X102150000Y-66918750D02*
X102150000Y-80718750D01*
G04 #@! TD*
M02*
