G04 #@! TF.GenerationSoftware,KiCad,Pcbnew,8.0.4*
G04 #@! TF.CreationDate,2024-09-10T22:18:47+03:00*
G04 #@! TF.ProjectId,muikku42,6d75696b-6b75-4343-922e-6b696361645f,rev?*
G04 #@! TF.SameCoordinates,Original*
G04 #@! TF.FileFunction,AssemblyDrawing,Top*
%FSLAX46Y46*%
G04 Gerber Fmt 4.6, Leading zero omitted, Abs format (unit mm)*
G04 Created by KiCad (PCBNEW 8.0.4) date 2024-09-10 22:18:47*
%MOMM*%
%LPD*%
G01*
G04 APERTURE LIST*
%ADD10C,0.150000*%
%ADD11C,0.100000*%
%ADD12C,0.120000*%
G04 APERTURE END LIST*
D10*
X129945238Y-63478569D02*
X129945238Y-62478569D01*
X130516666Y-63478569D02*
X130088095Y-62907140D01*
X130516666Y-62478569D02*
X129945238Y-63049997D01*
X131326190Y-63430950D02*
X131230952Y-63478569D01*
X131230952Y-63478569D02*
X131040476Y-63478569D01*
X131040476Y-63478569D02*
X130945238Y-63430950D01*
X130945238Y-63430950D02*
X130897619Y-63335711D01*
X130897619Y-63335711D02*
X130897619Y-62954759D01*
X130897619Y-62954759D02*
X130945238Y-62859521D01*
X130945238Y-62859521D02*
X131040476Y-62811902D01*
X131040476Y-62811902D02*
X131230952Y-62811902D01*
X131230952Y-62811902D02*
X131326190Y-62859521D01*
X131326190Y-62859521D02*
X131373809Y-62954759D01*
X131373809Y-62954759D02*
X131373809Y-63049997D01*
X131373809Y-63049997D02*
X130897619Y-63145235D01*
X131707143Y-62811902D02*
X131945238Y-63478569D01*
X132183333Y-62811902D02*
X131945238Y-63478569D01*
X131945238Y-63478569D02*
X131850000Y-63716664D01*
X131850000Y-63716664D02*
X131802381Y-63764283D01*
X131802381Y-63764283D02*
X131707143Y-63811902D01*
X132516667Y-63430950D02*
X132611905Y-63478569D01*
X132611905Y-63478569D02*
X132802381Y-63478569D01*
X132802381Y-63478569D02*
X132897619Y-63430950D01*
X132897619Y-63430950D02*
X132945238Y-63335711D01*
X132945238Y-63335711D02*
X132945238Y-63288092D01*
X132945238Y-63288092D02*
X132897619Y-63192854D01*
X132897619Y-63192854D02*
X132802381Y-63145235D01*
X132802381Y-63145235D02*
X132659524Y-63145235D01*
X132659524Y-63145235D02*
X132564286Y-63097616D01*
X132564286Y-63097616D02*
X132516667Y-63002378D01*
X132516667Y-63002378D02*
X132516667Y-62954759D01*
X132516667Y-62954759D02*
X132564286Y-62859521D01*
X132564286Y-62859521D02*
X132659524Y-62811902D01*
X132659524Y-62811902D02*
X132802381Y-62811902D01*
X132802381Y-62811902D02*
X132897619Y-62859521D01*
X133278572Y-62811902D02*
X133469048Y-63478569D01*
X133469048Y-63478569D02*
X133659524Y-63002378D01*
X133659524Y-63002378D02*
X133850000Y-63478569D01*
X133850000Y-63478569D02*
X134040476Y-62811902D01*
X134421429Y-63478569D02*
X134421429Y-62811902D01*
X134421429Y-62478569D02*
X134373810Y-62526188D01*
X134373810Y-62526188D02*
X134421429Y-62573807D01*
X134421429Y-62573807D02*
X134469048Y-62526188D01*
X134469048Y-62526188D02*
X134421429Y-62478569D01*
X134421429Y-62478569D02*
X134421429Y-62573807D01*
X134754762Y-62811902D02*
X135135714Y-62811902D01*
X134897619Y-62478569D02*
X134897619Y-63335711D01*
X134897619Y-63335711D02*
X134945238Y-63430950D01*
X134945238Y-63430950D02*
X135040476Y-63478569D01*
X135040476Y-63478569D02*
X135135714Y-63478569D01*
X135897619Y-63430950D02*
X135802381Y-63478569D01*
X135802381Y-63478569D02*
X135611905Y-63478569D01*
X135611905Y-63478569D02*
X135516667Y-63430950D01*
X135516667Y-63430950D02*
X135469048Y-63383330D01*
X135469048Y-63383330D02*
X135421429Y-63288092D01*
X135421429Y-63288092D02*
X135421429Y-63002378D01*
X135421429Y-63002378D02*
X135469048Y-62907140D01*
X135469048Y-62907140D02*
X135516667Y-62859521D01*
X135516667Y-62859521D02*
X135611905Y-62811902D01*
X135611905Y-62811902D02*
X135802381Y-62811902D01*
X135802381Y-62811902D02*
X135897619Y-62859521D01*
X136326191Y-63478569D02*
X136326191Y-62478569D01*
X136754762Y-63478569D02*
X136754762Y-62954759D01*
X136754762Y-62954759D02*
X136707143Y-62859521D01*
X136707143Y-62859521D02*
X136611905Y-62811902D01*
X136611905Y-62811902D02*
X136469048Y-62811902D01*
X136469048Y-62811902D02*
X136373810Y-62859521D01*
X136373810Y-62859521D02*
X136326191Y-62907140D01*
X132588095Y-55175950D02*
X132730952Y-55223569D01*
X132730952Y-55223569D02*
X132969047Y-55223569D01*
X132969047Y-55223569D02*
X133064285Y-55175950D01*
X133064285Y-55175950D02*
X133111904Y-55128330D01*
X133111904Y-55128330D02*
X133159523Y-55033092D01*
X133159523Y-55033092D02*
X133159523Y-54937854D01*
X133159523Y-54937854D02*
X133111904Y-54842616D01*
X133111904Y-54842616D02*
X133064285Y-54794997D01*
X133064285Y-54794997D02*
X132969047Y-54747378D01*
X132969047Y-54747378D02*
X132778571Y-54699759D01*
X132778571Y-54699759D02*
X132683333Y-54652140D01*
X132683333Y-54652140D02*
X132635714Y-54604521D01*
X132635714Y-54604521D02*
X132588095Y-54509283D01*
X132588095Y-54509283D02*
X132588095Y-54414045D01*
X132588095Y-54414045D02*
X132635714Y-54318807D01*
X132635714Y-54318807D02*
X132683333Y-54271188D01*
X132683333Y-54271188D02*
X132778571Y-54223569D01*
X132778571Y-54223569D02*
X133016666Y-54223569D01*
X133016666Y-54223569D02*
X133159523Y-54271188D01*
X134064285Y-54223569D02*
X133588095Y-54223569D01*
X133588095Y-54223569D02*
X133540476Y-54699759D01*
X133540476Y-54699759D02*
X133588095Y-54652140D01*
X133588095Y-54652140D02*
X133683333Y-54604521D01*
X133683333Y-54604521D02*
X133921428Y-54604521D01*
X133921428Y-54604521D02*
X134016666Y-54652140D01*
X134016666Y-54652140D02*
X134064285Y-54699759D01*
X134064285Y-54699759D02*
X134111904Y-54794997D01*
X134111904Y-54794997D02*
X134111904Y-55033092D01*
X134111904Y-55033092D02*
X134064285Y-55128330D01*
X134064285Y-55128330D02*
X134016666Y-55175950D01*
X134016666Y-55175950D02*
X133921428Y-55223569D01*
X133921428Y-55223569D02*
X133683333Y-55223569D01*
X133683333Y-55223569D02*
X133588095Y-55175950D01*
X133588095Y-55175950D02*
X133540476Y-55128330D01*
X129945238Y-82528569D02*
X129945238Y-81528569D01*
X130516666Y-82528569D02*
X130088095Y-81957140D01*
X130516666Y-81528569D02*
X129945238Y-82099997D01*
X131326190Y-82480950D02*
X131230952Y-82528569D01*
X131230952Y-82528569D02*
X131040476Y-82528569D01*
X131040476Y-82528569D02*
X130945238Y-82480950D01*
X130945238Y-82480950D02*
X130897619Y-82385711D01*
X130897619Y-82385711D02*
X130897619Y-82004759D01*
X130897619Y-82004759D02*
X130945238Y-81909521D01*
X130945238Y-81909521D02*
X131040476Y-81861902D01*
X131040476Y-81861902D02*
X131230952Y-81861902D01*
X131230952Y-81861902D02*
X131326190Y-81909521D01*
X131326190Y-81909521D02*
X131373809Y-82004759D01*
X131373809Y-82004759D02*
X131373809Y-82099997D01*
X131373809Y-82099997D02*
X130897619Y-82195235D01*
X131707143Y-81861902D02*
X131945238Y-82528569D01*
X132183333Y-81861902D02*
X131945238Y-82528569D01*
X131945238Y-82528569D02*
X131850000Y-82766664D01*
X131850000Y-82766664D02*
X131802381Y-82814283D01*
X131802381Y-82814283D02*
X131707143Y-82861902D01*
X132516667Y-82480950D02*
X132611905Y-82528569D01*
X132611905Y-82528569D02*
X132802381Y-82528569D01*
X132802381Y-82528569D02*
X132897619Y-82480950D01*
X132897619Y-82480950D02*
X132945238Y-82385711D01*
X132945238Y-82385711D02*
X132945238Y-82338092D01*
X132945238Y-82338092D02*
X132897619Y-82242854D01*
X132897619Y-82242854D02*
X132802381Y-82195235D01*
X132802381Y-82195235D02*
X132659524Y-82195235D01*
X132659524Y-82195235D02*
X132564286Y-82147616D01*
X132564286Y-82147616D02*
X132516667Y-82052378D01*
X132516667Y-82052378D02*
X132516667Y-82004759D01*
X132516667Y-82004759D02*
X132564286Y-81909521D01*
X132564286Y-81909521D02*
X132659524Y-81861902D01*
X132659524Y-81861902D02*
X132802381Y-81861902D01*
X132802381Y-81861902D02*
X132897619Y-81909521D01*
X133278572Y-81861902D02*
X133469048Y-82528569D01*
X133469048Y-82528569D02*
X133659524Y-82052378D01*
X133659524Y-82052378D02*
X133850000Y-82528569D01*
X133850000Y-82528569D02*
X134040476Y-81861902D01*
X134421429Y-82528569D02*
X134421429Y-81861902D01*
X134421429Y-81528569D02*
X134373810Y-81576188D01*
X134373810Y-81576188D02*
X134421429Y-81623807D01*
X134421429Y-81623807D02*
X134469048Y-81576188D01*
X134469048Y-81576188D02*
X134421429Y-81528569D01*
X134421429Y-81528569D02*
X134421429Y-81623807D01*
X134754762Y-81861902D02*
X135135714Y-81861902D01*
X134897619Y-81528569D02*
X134897619Y-82385711D01*
X134897619Y-82385711D02*
X134945238Y-82480950D01*
X134945238Y-82480950D02*
X135040476Y-82528569D01*
X135040476Y-82528569D02*
X135135714Y-82528569D01*
X135897619Y-82480950D02*
X135802381Y-82528569D01*
X135802381Y-82528569D02*
X135611905Y-82528569D01*
X135611905Y-82528569D02*
X135516667Y-82480950D01*
X135516667Y-82480950D02*
X135469048Y-82433330D01*
X135469048Y-82433330D02*
X135421429Y-82338092D01*
X135421429Y-82338092D02*
X135421429Y-82052378D01*
X135421429Y-82052378D02*
X135469048Y-81957140D01*
X135469048Y-81957140D02*
X135516667Y-81909521D01*
X135516667Y-81909521D02*
X135611905Y-81861902D01*
X135611905Y-81861902D02*
X135802381Y-81861902D01*
X135802381Y-81861902D02*
X135897619Y-81909521D01*
X136326191Y-82528569D02*
X136326191Y-81528569D01*
X136754762Y-82528569D02*
X136754762Y-82004759D01*
X136754762Y-82004759D02*
X136707143Y-81909521D01*
X136707143Y-81909521D02*
X136611905Y-81861902D01*
X136611905Y-81861902D02*
X136469048Y-81861902D01*
X136469048Y-81861902D02*
X136373810Y-81909521D01*
X136373810Y-81909521D02*
X136326191Y-81957140D01*
X132111905Y-74225950D02*
X132254762Y-74273569D01*
X132254762Y-74273569D02*
X132492857Y-74273569D01*
X132492857Y-74273569D02*
X132588095Y-74225950D01*
X132588095Y-74225950D02*
X132635714Y-74178330D01*
X132635714Y-74178330D02*
X132683333Y-74083092D01*
X132683333Y-74083092D02*
X132683333Y-73987854D01*
X132683333Y-73987854D02*
X132635714Y-73892616D01*
X132635714Y-73892616D02*
X132588095Y-73844997D01*
X132588095Y-73844997D02*
X132492857Y-73797378D01*
X132492857Y-73797378D02*
X132302381Y-73749759D01*
X132302381Y-73749759D02*
X132207143Y-73702140D01*
X132207143Y-73702140D02*
X132159524Y-73654521D01*
X132159524Y-73654521D02*
X132111905Y-73559283D01*
X132111905Y-73559283D02*
X132111905Y-73464045D01*
X132111905Y-73464045D02*
X132159524Y-73368807D01*
X132159524Y-73368807D02*
X132207143Y-73321188D01*
X132207143Y-73321188D02*
X132302381Y-73273569D01*
X132302381Y-73273569D02*
X132540476Y-73273569D01*
X132540476Y-73273569D02*
X132683333Y-73321188D01*
X133635714Y-74273569D02*
X133064286Y-74273569D01*
X133350000Y-74273569D02*
X133350000Y-73273569D01*
X133350000Y-73273569D02*
X133254762Y-73416426D01*
X133254762Y-73416426D02*
X133159524Y-73511664D01*
X133159524Y-73511664D02*
X133064286Y-73559283D01*
X134588095Y-74273569D02*
X134016667Y-74273569D01*
X134302381Y-74273569D02*
X134302381Y-73273569D01*
X134302381Y-73273569D02*
X134207143Y-73416426D01*
X134207143Y-73416426D02*
X134111905Y-73511664D01*
X134111905Y-73511664D02*
X134016667Y-73559283D01*
X151615327Y-138195444D02*
X151615327Y-137195444D01*
X151615327Y-137195444D02*
X151948660Y-137909729D01*
X151948660Y-137909729D02*
X152281993Y-137195444D01*
X152281993Y-137195444D02*
X152281993Y-138195444D01*
X152901041Y-138195444D02*
X152805803Y-138147825D01*
X152805803Y-138147825D02*
X152758184Y-138100205D01*
X152758184Y-138100205D02*
X152710565Y-138004967D01*
X152710565Y-138004967D02*
X152710565Y-137719253D01*
X152710565Y-137719253D02*
X152758184Y-137624015D01*
X152758184Y-137624015D02*
X152805803Y-137576396D01*
X152805803Y-137576396D02*
X152901041Y-137528777D01*
X152901041Y-137528777D02*
X153043898Y-137528777D01*
X153043898Y-137528777D02*
X153139136Y-137576396D01*
X153139136Y-137576396D02*
X153186755Y-137624015D01*
X153186755Y-137624015D02*
X153234374Y-137719253D01*
X153234374Y-137719253D02*
X153234374Y-138004967D01*
X153234374Y-138004967D02*
X153186755Y-138100205D01*
X153186755Y-138100205D02*
X153139136Y-138147825D01*
X153139136Y-138147825D02*
X153043898Y-138195444D01*
X153043898Y-138195444D02*
X152901041Y-138195444D01*
X154091517Y-137528777D02*
X154091517Y-138195444D01*
X153662946Y-137528777D02*
X153662946Y-138052586D01*
X153662946Y-138052586D02*
X153710565Y-138147825D01*
X153710565Y-138147825D02*
X153805803Y-138195444D01*
X153805803Y-138195444D02*
X153948660Y-138195444D01*
X153948660Y-138195444D02*
X154043898Y-138147825D01*
X154043898Y-138147825D02*
X154091517Y-138100205D01*
X154567708Y-137528777D02*
X154567708Y-138195444D01*
X154567708Y-137624015D02*
X154615327Y-137576396D01*
X154615327Y-137576396D02*
X154710565Y-137528777D01*
X154710565Y-137528777D02*
X154853422Y-137528777D01*
X154853422Y-137528777D02*
X154948660Y-137576396D01*
X154948660Y-137576396D02*
X154996279Y-137671634D01*
X154996279Y-137671634D02*
X154996279Y-138195444D01*
X155329613Y-137528777D02*
X155710565Y-137528777D01*
X155472470Y-137195444D02*
X155472470Y-138052586D01*
X155472470Y-138052586D02*
X155520089Y-138147825D01*
X155520089Y-138147825D02*
X155615327Y-138195444D01*
X155615327Y-138195444D02*
X155710565Y-138195444D01*
X156043899Y-138195444D02*
X156043899Y-137528777D01*
X156043899Y-137195444D02*
X155996280Y-137243063D01*
X155996280Y-137243063D02*
X156043899Y-137290682D01*
X156043899Y-137290682D02*
X156091518Y-137243063D01*
X156091518Y-137243063D02*
X156043899Y-137195444D01*
X156043899Y-137195444D02*
X156043899Y-137290682D01*
X156520089Y-137528777D02*
X156520089Y-138195444D01*
X156520089Y-137624015D02*
X156567708Y-137576396D01*
X156567708Y-137576396D02*
X156662946Y-137528777D01*
X156662946Y-137528777D02*
X156805803Y-137528777D01*
X156805803Y-137528777D02*
X156901041Y-137576396D01*
X156901041Y-137576396D02*
X156948660Y-137671634D01*
X156948660Y-137671634D02*
X156948660Y-138195444D01*
X157853422Y-137528777D02*
X157853422Y-138338301D01*
X157853422Y-138338301D02*
X157805803Y-138433539D01*
X157805803Y-138433539D02*
X157758184Y-138481158D01*
X157758184Y-138481158D02*
X157662946Y-138528777D01*
X157662946Y-138528777D02*
X157520089Y-138528777D01*
X157520089Y-138528777D02*
X157424851Y-138481158D01*
X157853422Y-138147825D02*
X157758184Y-138195444D01*
X157758184Y-138195444D02*
X157567708Y-138195444D01*
X157567708Y-138195444D02*
X157472470Y-138147825D01*
X157472470Y-138147825D02*
X157424851Y-138100205D01*
X157424851Y-138100205D02*
X157377232Y-138004967D01*
X157377232Y-138004967D02*
X157377232Y-137719253D01*
X157377232Y-137719253D02*
X157424851Y-137624015D01*
X157424851Y-137624015D02*
X157472470Y-137576396D01*
X157472470Y-137576396D02*
X157567708Y-137528777D01*
X157567708Y-137528777D02*
X157758184Y-137528777D01*
X157758184Y-137528777D02*
X157853422Y-137576396D01*
X158329613Y-138195444D02*
X158329613Y-137195444D01*
X158329613Y-137671634D02*
X158901041Y-137671634D01*
X158901041Y-138195444D02*
X158901041Y-137195444D01*
X159520089Y-138195444D02*
X159424851Y-138147825D01*
X159424851Y-138147825D02*
X159377232Y-138100205D01*
X159377232Y-138100205D02*
X159329613Y-138004967D01*
X159329613Y-138004967D02*
X159329613Y-137719253D01*
X159329613Y-137719253D02*
X159377232Y-137624015D01*
X159377232Y-137624015D02*
X159424851Y-137576396D01*
X159424851Y-137576396D02*
X159520089Y-137528777D01*
X159520089Y-137528777D02*
X159662946Y-137528777D01*
X159662946Y-137528777D02*
X159758184Y-137576396D01*
X159758184Y-137576396D02*
X159805803Y-137624015D01*
X159805803Y-137624015D02*
X159853422Y-137719253D01*
X159853422Y-137719253D02*
X159853422Y-138004967D01*
X159853422Y-138004967D02*
X159805803Y-138100205D01*
X159805803Y-138100205D02*
X159758184Y-138147825D01*
X159758184Y-138147825D02*
X159662946Y-138195444D01*
X159662946Y-138195444D02*
X159520089Y-138195444D01*
X160424851Y-138195444D02*
X160329613Y-138147825D01*
X160329613Y-138147825D02*
X160281994Y-138052586D01*
X160281994Y-138052586D02*
X160281994Y-137195444D01*
X161186756Y-138147825D02*
X161091518Y-138195444D01*
X161091518Y-138195444D02*
X160901042Y-138195444D01*
X160901042Y-138195444D02*
X160805804Y-138147825D01*
X160805804Y-138147825D02*
X160758185Y-138052586D01*
X160758185Y-138052586D02*
X160758185Y-137671634D01*
X160758185Y-137671634D02*
X160805804Y-137576396D01*
X160805804Y-137576396D02*
X160901042Y-137528777D01*
X160901042Y-137528777D02*
X161091518Y-137528777D01*
X161091518Y-137528777D02*
X161186756Y-137576396D01*
X161186756Y-137576396D02*
X161234375Y-137671634D01*
X161234375Y-137671634D02*
X161234375Y-137766872D01*
X161234375Y-137766872D02*
X160758185Y-137862110D01*
X161424852Y-138290682D02*
X162186756Y-138290682D01*
X162377233Y-137290682D02*
X162424852Y-137243063D01*
X162424852Y-137243063D02*
X162520090Y-137195444D01*
X162520090Y-137195444D02*
X162758185Y-137195444D01*
X162758185Y-137195444D02*
X162853423Y-137243063D01*
X162853423Y-137243063D02*
X162901042Y-137290682D01*
X162901042Y-137290682D02*
X162948661Y-137385920D01*
X162948661Y-137385920D02*
X162948661Y-137481158D01*
X162948661Y-137481158D02*
X162901042Y-137624015D01*
X162901042Y-137624015D02*
X162329614Y-138195444D01*
X162329614Y-138195444D02*
X162948661Y-138195444D01*
X163377233Y-138100205D02*
X163424852Y-138147825D01*
X163424852Y-138147825D02*
X163377233Y-138195444D01*
X163377233Y-138195444D02*
X163329614Y-138147825D01*
X163329614Y-138147825D02*
X163377233Y-138100205D01*
X163377233Y-138100205D02*
X163377233Y-138195444D01*
X163805804Y-137290682D02*
X163853423Y-137243063D01*
X163853423Y-137243063D02*
X163948661Y-137195444D01*
X163948661Y-137195444D02*
X164186756Y-137195444D01*
X164186756Y-137195444D02*
X164281994Y-137243063D01*
X164281994Y-137243063D02*
X164329613Y-137290682D01*
X164329613Y-137290682D02*
X164377232Y-137385920D01*
X164377232Y-137385920D02*
X164377232Y-137481158D01*
X164377232Y-137481158D02*
X164329613Y-137624015D01*
X164329613Y-137624015D02*
X163758185Y-138195444D01*
X163758185Y-138195444D02*
X164377232Y-138195444D01*
X164805804Y-138195444D02*
X164805804Y-137528777D01*
X164805804Y-137624015D02*
X164853423Y-137576396D01*
X164853423Y-137576396D02*
X164948661Y-137528777D01*
X164948661Y-137528777D02*
X165091518Y-137528777D01*
X165091518Y-137528777D02*
X165186756Y-137576396D01*
X165186756Y-137576396D02*
X165234375Y-137671634D01*
X165234375Y-137671634D02*
X165234375Y-138195444D01*
X165234375Y-137671634D02*
X165281994Y-137576396D01*
X165281994Y-137576396D02*
X165377232Y-137528777D01*
X165377232Y-137528777D02*
X165520089Y-137528777D01*
X165520089Y-137528777D02*
X165615328Y-137576396D01*
X165615328Y-137576396D02*
X165662947Y-137671634D01*
X165662947Y-137671634D02*
X165662947Y-138195444D01*
X166139137Y-138195444D02*
X166139137Y-137528777D01*
X166139137Y-137624015D02*
X166186756Y-137576396D01*
X166186756Y-137576396D02*
X166281994Y-137528777D01*
X166281994Y-137528777D02*
X166424851Y-137528777D01*
X166424851Y-137528777D02*
X166520089Y-137576396D01*
X166520089Y-137576396D02*
X166567708Y-137671634D01*
X166567708Y-137671634D02*
X166567708Y-138195444D01*
X166567708Y-137671634D02*
X166615327Y-137576396D01*
X166615327Y-137576396D02*
X166710565Y-137528777D01*
X166710565Y-137528777D02*
X166853422Y-137528777D01*
X166853422Y-137528777D02*
X166948661Y-137576396D01*
X166948661Y-137576396D02*
X166996280Y-137671634D01*
X166996280Y-137671634D02*
X166996280Y-138195444D01*
X167234375Y-138290682D02*
X167996279Y-138290682D01*
X168234375Y-138195444D02*
X168234375Y-137195444D01*
X168234375Y-137195444D02*
X168567708Y-137909729D01*
X168567708Y-137909729D02*
X168901041Y-137195444D01*
X168901041Y-137195444D02*
X168901041Y-138195444D01*
X169329613Y-137290682D02*
X169377232Y-137243063D01*
X169377232Y-137243063D02*
X169472470Y-137195444D01*
X169472470Y-137195444D02*
X169710565Y-137195444D01*
X169710565Y-137195444D02*
X169805803Y-137243063D01*
X169805803Y-137243063D02*
X169853422Y-137290682D01*
X169853422Y-137290682D02*
X169901041Y-137385920D01*
X169901041Y-137385920D02*
X169901041Y-137481158D01*
X169901041Y-137481158D02*
X169853422Y-137624015D01*
X169853422Y-137624015D02*
X169281994Y-138195444D01*
X169281994Y-138195444D02*
X169901041Y-138195444D01*
X159401041Y-134995444D02*
X159067708Y-134519253D01*
X158829613Y-134995444D02*
X158829613Y-133995444D01*
X158829613Y-133995444D02*
X159210565Y-133995444D01*
X159210565Y-133995444D02*
X159305803Y-134043063D01*
X159305803Y-134043063D02*
X159353422Y-134090682D01*
X159353422Y-134090682D02*
X159401041Y-134185920D01*
X159401041Y-134185920D02*
X159401041Y-134328777D01*
X159401041Y-134328777D02*
X159353422Y-134424015D01*
X159353422Y-134424015D02*
X159305803Y-134471634D01*
X159305803Y-134471634D02*
X159210565Y-134519253D01*
X159210565Y-134519253D02*
X158829613Y-134519253D01*
X159829613Y-134471634D02*
X160162946Y-134471634D01*
X160305803Y-134995444D02*
X159829613Y-134995444D01*
X159829613Y-134995444D02*
X159829613Y-133995444D01*
X159829613Y-133995444D02*
X160305803Y-133995444D01*
X161067708Y-134471634D02*
X160734375Y-134471634D01*
X160734375Y-134995444D02*
X160734375Y-133995444D01*
X160734375Y-133995444D02*
X161210565Y-133995444D01*
X161734375Y-133995444D02*
X161734375Y-134233539D01*
X161496280Y-134138301D02*
X161734375Y-134233539D01*
X161734375Y-134233539D02*
X161972470Y-134138301D01*
X161591518Y-134424015D02*
X161734375Y-134233539D01*
X161734375Y-134233539D02*
X161877232Y-134424015D01*
X162496280Y-133995444D02*
X162496280Y-134233539D01*
X162258185Y-134138301D02*
X162496280Y-134233539D01*
X162496280Y-134233539D02*
X162734375Y-134138301D01*
X162353423Y-134424015D02*
X162496280Y-134233539D01*
X162496280Y-134233539D02*
X162639137Y-134424015D01*
X53745238Y-84909819D02*
X53745238Y-83909819D01*
X54316666Y-84909819D02*
X53888095Y-84338390D01*
X54316666Y-83909819D02*
X53745238Y-84481247D01*
X55126190Y-84862200D02*
X55030952Y-84909819D01*
X55030952Y-84909819D02*
X54840476Y-84909819D01*
X54840476Y-84909819D02*
X54745238Y-84862200D01*
X54745238Y-84862200D02*
X54697619Y-84766961D01*
X54697619Y-84766961D02*
X54697619Y-84386009D01*
X54697619Y-84386009D02*
X54745238Y-84290771D01*
X54745238Y-84290771D02*
X54840476Y-84243152D01*
X54840476Y-84243152D02*
X55030952Y-84243152D01*
X55030952Y-84243152D02*
X55126190Y-84290771D01*
X55126190Y-84290771D02*
X55173809Y-84386009D01*
X55173809Y-84386009D02*
X55173809Y-84481247D01*
X55173809Y-84481247D02*
X54697619Y-84576485D01*
X55507143Y-84243152D02*
X55745238Y-84909819D01*
X55983333Y-84243152D02*
X55745238Y-84909819D01*
X55745238Y-84909819D02*
X55650000Y-85147914D01*
X55650000Y-85147914D02*
X55602381Y-85195533D01*
X55602381Y-85195533D02*
X55507143Y-85243152D01*
X56316667Y-84862200D02*
X56411905Y-84909819D01*
X56411905Y-84909819D02*
X56602381Y-84909819D01*
X56602381Y-84909819D02*
X56697619Y-84862200D01*
X56697619Y-84862200D02*
X56745238Y-84766961D01*
X56745238Y-84766961D02*
X56745238Y-84719342D01*
X56745238Y-84719342D02*
X56697619Y-84624104D01*
X56697619Y-84624104D02*
X56602381Y-84576485D01*
X56602381Y-84576485D02*
X56459524Y-84576485D01*
X56459524Y-84576485D02*
X56364286Y-84528866D01*
X56364286Y-84528866D02*
X56316667Y-84433628D01*
X56316667Y-84433628D02*
X56316667Y-84386009D01*
X56316667Y-84386009D02*
X56364286Y-84290771D01*
X56364286Y-84290771D02*
X56459524Y-84243152D01*
X56459524Y-84243152D02*
X56602381Y-84243152D01*
X56602381Y-84243152D02*
X56697619Y-84290771D01*
X57078572Y-84243152D02*
X57269048Y-84909819D01*
X57269048Y-84909819D02*
X57459524Y-84433628D01*
X57459524Y-84433628D02*
X57650000Y-84909819D01*
X57650000Y-84909819D02*
X57840476Y-84243152D01*
X58221429Y-84909819D02*
X58221429Y-84243152D01*
X58221429Y-83909819D02*
X58173810Y-83957438D01*
X58173810Y-83957438D02*
X58221429Y-84005057D01*
X58221429Y-84005057D02*
X58269048Y-83957438D01*
X58269048Y-83957438D02*
X58221429Y-83909819D01*
X58221429Y-83909819D02*
X58221429Y-84005057D01*
X58554762Y-84243152D02*
X58935714Y-84243152D01*
X58697619Y-83909819D02*
X58697619Y-84766961D01*
X58697619Y-84766961D02*
X58745238Y-84862200D01*
X58745238Y-84862200D02*
X58840476Y-84909819D01*
X58840476Y-84909819D02*
X58935714Y-84909819D01*
X59697619Y-84862200D02*
X59602381Y-84909819D01*
X59602381Y-84909819D02*
X59411905Y-84909819D01*
X59411905Y-84909819D02*
X59316667Y-84862200D01*
X59316667Y-84862200D02*
X59269048Y-84814580D01*
X59269048Y-84814580D02*
X59221429Y-84719342D01*
X59221429Y-84719342D02*
X59221429Y-84433628D01*
X59221429Y-84433628D02*
X59269048Y-84338390D01*
X59269048Y-84338390D02*
X59316667Y-84290771D01*
X59316667Y-84290771D02*
X59411905Y-84243152D01*
X59411905Y-84243152D02*
X59602381Y-84243152D01*
X59602381Y-84243152D02*
X59697619Y-84290771D01*
X60126191Y-84909819D02*
X60126191Y-83909819D01*
X60554762Y-84909819D02*
X60554762Y-84386009D01*
X60554762Y-84386009D02*
X60507143Y-84290771D01*
X60507143Y-84290771D02*
X60411905Y-84243152D01*
X60411905Y-84243152D02*
X60269048Y-84243152D01*
X60269048Y-84243152D02*
X60173810Y-84290771D01*
X60173810Y-84290771D02*
X60126191Y-84338390D01*
X56388095Y-76607200D02*
X56530952Y-76654819D01*
X56530952Y-76654819D02*
X56769047Y-76654819D01*
X56769047Y-76654819D02*
X56864285Y-76607200D01*
X56864285Y-76607200D02*
X56911904Y-76559580D01*
X56911904Y-76559580D02*
X56959523Y-76464342D01*
X56959523Y-76464342D02*
X56959523Y-76369104D01*
X56959523Y-76369104D02*
X56911904Y-76273866D01*
X56911904Y-76273866D02*
X56864285Y-76226247D01*
X56864285Y-76226247D02*
X56769047Y-76178628D01*
X56769047Y-76178628D02*
X56578571Y-76131009D01*
X56578571Y-76131009D02*
X56483333Y-76083390D01*
X56483333Y-76083390D02*
X56435714Y-76035771D01*
X56435714Y-76035771D02*
X56388095Y-75940533D01*
X56388095Y-75940533D02*
X56388095Y-75845295D01*
X56388095Y-75845295D02*
X56435714Y-75750057D01*
X56435714Y-75750057D02*
X56483333Y-75702438D01*
X56483333Y-75702438D02*
X56578571Y-75654819D01*
X56578571Y-75654819D02*
X56816666Y-75654819D01*
X56816666Y-75654819D02*
X56959523Y-75702438D01*
X57292857Y-75654819D02*
X57959523Y-75654819D01*
X57959523Y-75654819D02*
X57530952Y-76654819D01*
X91845238Y-101578569D02*
X91845238Y-100578569D01*
X92416666Y-101578569D02*
X91988095Y-101007140D01*
X92416666Y-100578569D02*
X91845238Y-101149997D01*
X93226190Y-101530950D02*
X93130952Y-101578569D01*
X93130952Y-101578569D02*
X92940476Y-101578569D01*
X92940476Y-101578569D02*
X92845238Y-101530950D01*
X92845238Y-101530950D02*
X92797619Y-101435711D01*
X92797619Y-101435711D02*
X92797619Y-101054759D01*
X92797619Y-101054759D02*
X92845238Y-100959521D01*
X92845238Y-100959521D02*
X92940476Y-100911902D01*
X92940476Y-100911902D02*
X93130952Y-100911902D01*
X93130952Y-100911902D02*
X93226190Y-100959521D01*
X93226190Y-100959521D02*
X93273809Y-101054759D01*
X93273809Y-101054759D02*
X93273809Y-101149997D01*
X93273809Y-101149997D02*
X92797619Y-101245235D01*
X93607143Y-100911902D02*
X93845238Y-101578569D01*
X94083333Y-100911902D02*
X93845238Y-101578569D01*
X93845238Y-101578569D02*
X93750000Y-101816664D01*
X93750000Y-101816664D02*
X93702381Y-101864283D01*
X93702381Y-101864283D02*
X93607143Y-101911902D01*
X94416667Y-101530950D02*
X94511905Y-101578569D01*
X94511905Y-101578569D02*
X94702381Y-101578569D01*
X94702381Y-101578569D02*
X94797619Y-101530950D01*
X94797619Y-101530950D02*
X94845238Y-101435711D01*
X94845238Y-101435711D02*
X94845238Y-101388092D01*
X94845238Y-101388092D02*
X94797619Y-101292854D01*
X94797619Y-101292854D02*
X94702381Y-101245235D01*
X94702381Y-101245235D02*
X94559524Y-101245235D01*
X94559524Y-101245235D02*
X94464286Y-101197616D01*
X94464286Y-101197616D02*
X94416667Y-101102378D01*
X94416667Y-101102378D02*
X94416667Y-101054759D01*
X94416667Y-101054759D02*
X94464286Y-100959521D01*
X94464286Y-100959521D02*
X94559524Y-100911902D01*
X94559524Y-100911902D02*
X94702381Y-100911902D01*
X94702381Y-100911902D02*
X94797619Y-100959521D01*
X95178572Y-100911902D02*
X95369048Y-101578569D01*
X95369048Y-101578569D02*
X95559524Y-101102378D01*
X95559524Y-101102378D02*
X95750000Y-101578569D01*
X95750000Y-101578569D02*
X95940476Y-100911902D01*
X96321429Y-101578569D02*
X96321429Y-100911902D01*
X96321429Y-100578569D02*
X96273810Y-100626188D01*
X96273810Y-100626188D02*
X96321429Y-100673807D01*
X96321429Y-100673807D02*
X96369048Y-100626188D01*
X96369048Y-100626188D02*
X96321429Y-100578569D01*
X96321429Y-100578569D02*
X96321429Y-100673807D01*
X96654762Y-100911902D02*
X97035714Y-100911902D01*
X96797619Y-100578569D02*
X96797619Y-101435711D01*
X96797619Y-101435711D02*
X96845238Y-101530950D01*
X96845238Y-101530950D02*
X96940476Y-101578569D01*
X96940476Y-101578569D02*
X97035714Y-101578569D01*
X97797619Y-101530950D02*
X97702381Y-101578569D01*
X97702381Y-101578569D02*
X97511905Y-101578569D01*
X97511905Y-101578569D02*
X97416667Y-101530950D01*
X97416667Y-101530950D02*
X97369048Y-101483330D01*
X97369048Y-101483330D02*
X97321429Y-101388092D01*
X97321429Y-101388092D02*
X97321429Y-101102378D01*
X97321429Y-101102378D02*
X97369048Y-101007140D01*
X97369048Y-101007140D02*
X97416667Y-100959521D01*
X97416667Y-100959521D02*
X97511905Y-100911902D01*
X97511905Y-100911902D02*
X97702381Y-100911902D01*
X97702381Y-100911902D02*
X97797619Y-100959521D01*
X98226191Y-101578569D02*
X98226191Y-100578569D01*
X98654762Y-101578569D02*
X98654762Y-101054759D01*
X98654762Y-101054759D02*
X98607143Y-100959521D01*
X98607143Y-100959521D02*
X98511905Y-100911902D01*
X98511905Y-100911902D02*
X98369048Y-100911902D01*
X98369048Y-100911902D02*
X98273810Y-100959521D01*
X98273810Y-100959521D02*
X98226191Y-101007140D01*
X94011905Y-93275950D02*
X94154762Y-93323569D01*
X94154762Y-93323569D02*
X94392857Y-93323569D01*
X94392857Y-93323569D02*
X94488095Y-93275950D01*
X94488095Y-93275950D02*
X94535714Y-93228330D01*
X94535714Y-93228330D02*
X94583333Y-93133092D01*
X94583333Y-93133092D02*
X94583333Y-93037854D01*
X94583333Y-93037854D02*
X94535714Y-92942616D01*
X94535714Y-92942616D02*
X94488095Y-92894997D01*
X94488095Y-92894997D02*
X94392857Y-92847378D01*
X94392857Y-92847378D02*
X94202381Y-92799759D01*
X94202381Y-92799759D02*
X94107143Y-92752140D01*
X94107143Y-92752140D02*
X94059524Y-92704521D01*
X94059524Y-92704521D02*
X94011905Y-92609283D01*
X94011905Y-92609283D02*
X94011905Y-92514045D01*
X94011905Y-92514045D02*
X94059524Y-92418807D01*
X94059524Y-92418807D02*
X94107143Y-92371188D01*
X94107143Y-92371188D02*
X94202381Y-92323569D01*
X94202381Y-92323569D02*
X94440476Y-92323569D01*
X94440476Y-92323569D02*
X94583333Y-92371188D01*
X95535714Y-93323569D02*
X94964286Y-93323569D01*
X95250000Y-93323569D02*
X95250000Y-92323569D01*
X95250000Y-92323569D02*
X95154762Y-92466426D01*
X95154762Y-92466426D02*
X95059524Y-92561664D01*
X95059524Y-92561664D02*
X94964286Y-92609283D01*
X96440476Y-92323569D02*
X95964286Y-92323569D01*
X95964286Y-92323569D02*
X95916667Y-92799759D01*
X95916667Y-92799759D02*
X95964286Y-92752140D01*
X95964286Y-92752140D02*
X96059524Y-92704521D01*
X96059524Y-92704521D02*
X96297619Y-92704521D01*
X96297619Y-92704521D02*
X96392857Y-92752140D01*
X96392857Y-92752140D02*
X96440476Y-92799759D01*
X96440476Y-92799759D02*
X96488095Y-92894997D01*
X96488095Y-92894997D02*
X96488095Y-93133092D01*
X96488095Y-93133092D02*
X96440476Y-93228330D01*
X96440476Y-93228330D02*
X96392857Y-93275950D01*
X96392857Y-93275950D02*
X96297619Y-93323569D01*
X96297619Y-93323569D02*
X96059524Y-93323569D01*
X96059524Y-93323569D02*
X95964286Y-93275950D01*
X95964286Y-93275950D02*
X95916667Y-93228330D01*
X160585980Y-104147442D02*
X160585980Y-103671252D01*
X160871695Y-104242680D02*
X159871695Y-103909347D01*
X159871695Y-103909347D02*
X160871695Y-103576014D01*
X160205028Y-102814109D02*
X160871695Y-102814109D01*
X160205028Y-103242680D02*
X160728837Y-103242680D01*
X160728837Y-103242680D02*
X160824076Y-103195061D01*
X160824076Y-103195061D02*
X160871695Y-103099823D01*
X160871695Y-103099823D02*
X160871695Y-102956966D01*
X160871695Y-102956966D02*
X160824076Y-102861728D01*
X160824076Y-102861728D02*
X160776456Y-102814109D01*
X160871695Y-101909347D02*
X159871695Y-101909347D01*
X160824076Y-101909347D02*
X160871695Y-102004585D01*
X160871695Y-102004585D02*
X160871695Y-102195061D01*
X160871695Y-102195061D02*
X160824076Y-102290299D01*
X160824076Y-102290299D02*
X160776456Y-102337918D01*
X160776456Y-102337918D02*
X160681218Y-102385537D01*
X160681218Y-102385537D02*
X160395504Y-102385537D01*
X160395504Y-102385537D02*
X160300266Y-102337918D01*
X160300266Y-102337918D02*
X160252647Y-102290299D01*
X160252647Y-102290299D02*
X160205028Y-102195061D01*
X160205028Y-102195061D02*
X160205028Y-102004585D01*
X160205028Y-102004585D02*
X160252647Y-101909347D01*
X160871695Y-101433156D02*
X160205028Y-101433156D01*
X159871695Y-101433156D02*
X159919314Y-101480775D01*
X159919314Y-101480775D02*
X159966933Y-101433156D01*
X159966933Y-101433156D02*
X159919314Y-101385537D01*
X159919314Y-101385537D02*
X159871695Y-101433156D01*
X159871695Y-101433156D02*
X159966933Y-101433156D01*
X160871695Y-100814109D02*
X160824076Y-100909347D01*
X160824076Y-100909347D02*
X160776456Y-100956966D01*
X160776456Y-100956966D02*
X160681218Y-101004585D01*
X160681218Y-101004585D02*
X160395504Y-101004585D01*
X160395504Y-101004585D02*
X160300266Y-100956966D01*
X160300266Y-100956966D02*
X160252647Y-100909347D01*
X160252647Y-100909347D02*
X160205028Y-100814109D01*
X160205028Y-100814109D02*
X160205028Y-100671252D01*
X160205028Y-100671252D02*
X160252647Y-100576014D01*
X160252647Y-100576014D02*
X160300266Y-100528395D01*
X160300266Y-100528395D02*
X160395504Y-100480776D01*
X160395504Y-100480776D02*
X160681218Y-100480776D01*
X160681218Y-100480776D02*
X160776456Y-100528395D01*
X160776456Y-100528395D02*
X160824076Y-100576014D01*
X160824076Y-100576014D02*
X160871695Y-100671252D01*
X160871695Y-100671252D02*
X160871695Y-100814109D01*
X159871695Y-99766490D02*
X160585980Y-99766490D01*
X160585980Y-99766490D02*
X160728837Y-99814109D01*
X160728837Y-99814109D02*
X160824076Y-99909347D01*
X160824076Y-99909347D02*
X160871695Y-100052204D01*
X160871695Y-100052204D02*
X160871695Y-100147442D01*
X160871695Y-98861728D02*
X160347885Y-98861728D01*
X160347885Y-98861728D02*
X160252647Y-98909347D01*
X160252647Y-98909347D02*
X160205028Y-99004585D01*
X160205028Y-99004585D02*
X160205028Y-99195061D01*
X160205028Y-99195061D02*
X160252647Y-99290299D01*
X160824076Y-98861728D02*
X160871695Y-98956966D01*
X160871695Y-98956966D02*
X160871695Y-99195061D01*
X160871695Y-99195061D02*
X160824076Y-99290299D01*
X160824076Y-99290299D02*
X160728837Y-99337918D01*
X160728837Y-99337918D02*
X160633599Y-99337918D01*
X160633599Y-99337918D02*
X160538361Y-99290299D01*
X160538361Y-99290299D02*
X160490742Y-99195061D01*
X160490742Y-99195061D02*
X160490742Y-98956966D01*
X160490742Y-98956966D02*
X160443123Y-98861728D01*
X160824076Y-97956966D02*
X160871695Y-98052204D01*
X160871695Y-98052204D02*
X160871695Y-98242680D01*
X160871695Y-98242680D02*
X160824076Y-98337918D01*
X160824076Y-98337918D02*
X160776456Y-98385537D01*
X160776456Y-98385537D02*
X160681218Y-98433156D01*
X160681218Y-98433156D02*
X160395504Y-98433156D01*
X160395504Y-98433156D02*
X160300266Y-98385537D01*
X160300266Y-98385537D02*
X160252647Y-98337918D01*
X160252647Y-98337918D02*
X160205028Y-98242680D01*
X160205028Y-98242680D02*
X160205028Y-98052204D01*
X160205028Y-98052204D02*
X160252647Y-97956966D01*
X160871695Y-97528394D02*
X159871695Y-97528394D01*
X160490742Y-97433156D02*
X160871695Y-97147442D01*
X160205028Y-97147442D02*
X160585980Y-97528394D01*
X160205028Y-96290299D02*
X160871695Y-96290299D01*
X159824076Y-96528394D02*
X160538361Y-96766489D01*
X160538361Y-96766489D02*
X160538361Y-96147442D01*
X178921694Y-100504583D02*
X179635979Y-100504583D01*
X179635979Y-100504583D02*
X179778836Y-100552202D01*
X179778836Y-100552202D02*
X179874075Y-100647440D01*
X179874075Y-100647440D02*
X179921694Y-100790297D01*
X179921694Y-100790297D02*
X179921694Y-100885535D01*
X179921694Y-99504583D02*
X179921694Y-100076011D01*
X179921694Y-99790297D02*
X178921694Y-99790297D01*
X178921694Y-99790297D02*
X179064551Y-99885535D01*
X179064551Y-99885535D02*
X179159789Y-99980773D01*
X179159789Y-99980773D02*
X179207408Y-100076011D01*
X95655952Y-125098569D02*
X95655952Y-124098569D01*
X95655952Y-124098569D02*
X95989285Y-124812854D01*
X95989285Y-124812854D02*
X96322618Y-124098569D01*
X96322618Y-124098569D02*
X96322618Y-125098569D01*
X96941666Y-125098569D02*
X96846428Y-125050950D01*
X96846428Y-125050950D02*
X96798809Y-125003330D01*
X96798809Y-125003330D02*
X96751190Y-124908092D01*
X96751190Y-124908092D02*
X96751190Y-124622378D01*
X96751190Y-124622378D02*
X96798809Y-124527140D01*
X96798809Y-124527140D02*
X96846428Y-124479521D01*
X96846428Y-124479521D02*
X96941666Y-124431902D01*
X96941666Y-124431902D02*
X97084523Y-124431902D01*
X97084523Y-124431902D02*
X97179761Y-124479521D01*
X97179761Y-124479521D02*
X97227380Y-124527140D01*
X97227380Y-124527140D02*
X97274999Y-124622378D01*
X97274999Y-124622378D02*
X97274999Y-124908092D01*
X97274999Y-124908092D02*
X97227380Y-125003330D01*
X97227380Y-125003330D02*
X97179761Y-125050950D01*
X97179761Y-125050950D02*
X97084523Y-125098569D01*
X97084523Y-125098569D02*
X96941666Y-125098569D01*
X98132142Y-124431902D02*
X98132142Y-125098569D01*
X97703571Y-124431902D02*
X97703571Y-124955711D01*
X97703571Y-124955711D02*
X97751190Y-125050950D01*
X97751190Y-125050950D02*
X97846428Y-125098569D01*
X97846428Y-125098569D02*
X97989285Y-125098569D01*
X97989285Y-125098569D02*
X98084523Y-125050950D01*
X98084523Y-125050950D02*
X98132142Y-125003330D01*
X98608333Y-124431902D02*
X98608333Y-125098569D01*
X98608333Y-124527140D02*
X98655952Y-124479521D01*
X98655952Y-124479521D02*
X98751190Y-124431902D01*
X98751190Y-124431902D02*
X98894047Y-124431902D01*
X98894047Y-124431902D02*
X98989285Y-124479521D01*
X98989285Y-124479521D02*
X99036904Y-124574759D01*
X99036904Y-124574759D02*
X99036904Y-125098569D01*
X99370238Y-124431902D02*
X99751190Y-124431902D01*
X99513095Y-124098569D02*
X99513095Y-124955711D01*
X99513095Y-124955711D02*
X99560714Y-125050950D01*
X99560714Y-125050950D02*
X99655952Y-125098569D01*
X99655952Y-125098569D02*
X99751190Y-125098569D01*
X100084524Y-125098569D02*
X100084524Y-124431902D01*
X100084524Y-124098569D02*
X100036905Y-124146188D01*
X100036905Y-124146188D02*
X100084524Y-124193807D01*
X100084524Y-124193807D02*
X100132143Y-124146188D01*
X100132143Y-124146188D02*
X100084524Y-124098569D01*
X100084524Y-124098569D02*
X100084524Y-124193807D01*
X100560714Y-124431902D02*
X100560714Y-125098569D01*
X100560714Y-124527140D02*
X100608333Y-124479521D01*
X100608333Y-124479521D02*
X100703571Y-124431902D01*
X100703571Y-124431902D02*
X100846428Y-124431902D01*
X100846428Y-124431902D02*
X100941666Y-124479521D01*
X100941666Y-124479521D02*
X100989285Y-124574759D01*
X100989285Y-124574759D02*
X100989285Y-125098569D01*
X101894047Y-124431902D02*
X101894047Y-125241426D01*
X101894047Y-125241426D02*
X101846428Y-125336664D01*
X101846428Y-125336664D02*
X101798809Y-125384283D01*
X101798809Y-125384283D02*
X101703571Y-125431902D01*
X101703571Y-125431902D02*
X101560714Y-125431902D01*
X101560714Y-125431902D02*
X101465476Y-125384283D01*
X101894047Y-125050950D02*
X101798809Y-125098569D01*
X101798809Y-125098569D02*
X101608333Y-125098569D01*
X101608333Y-125098569D02*
X101513095Y-125050950D01*
X101513095Y-125050950D02*
X101465476Y-125003330D01*
X101465476Y-125003330D02*
X101417857Y-124908092D01*
X101417857Y-124908092D02*
X101417857Y-124622378D01*
X101417857Y-124622378D02*
X101465476Y-124527140D01*
X101465476Y-124527140D02*
X101513095Y-124479521D01*
X101513095Y-124479521D02*
X101608333Y-124431902D01*
X101608333Y-124431902D02*
X101798809Y-124431902D01*
X101798809Y-124431902D02*
X101894047Y-124479521D01*
X102370238Y-125098569D02*
X102370238Y-124098569D01*
X102370238Y-124574759D02*
X102941666Y-124574759D01*
X102941666Y-125098569D02*
X102941666Y-124098569D01*
X103560714Y-125098569D02*
X103465476Y-125050950D01*
X103465476Y-125050950D02*
X103417857Y-125003330D01*
X103417857Y-125003330D02*
X103370238Y-124908092D01*
X103370238Y-124908092D02*
X103370238Y-124622378D01*
X103370238Y-124622378D02*
X103417857Y-124527140D01*
X103417857Y-124527140D02*
X103465476Y-124479521D01*
X103465476Y-124479521D02*
X103560714Y-124431902D01*
X103560714Y-124431902D02*
X103703571Y-124431902D01*
X103703571Y-124431902D02*
X103798809Y-124479521D01*
X103798809Y-124479521D02*
X103846428Y-124527140D01*
X103846428Y-124527140D02*
X103894047Y-124622378D01*
X103894047Y-124622378D02*
X103894047Y-124908092D01*
X103894047Y-124908092D02*
X103846428Y-125003330D01*
X103846428Y-125003330D02*
X103798809Y-125050950D01*
X103798809Y-125050950D02*
X103703571Y-125098569D01*
X103703571Y-125098569D02*
X103560714Y-125098569D01*
X104465476Y-125098569D02*
X104370238Y-125050950D01*
X104370238Y-125050950D02*
X104322619Y-124955711D01*
X104322619Y-124955711D02*
X104322619Y-124098569D01*
X105227381Y-125050950D02*
X105132143Y-125098569D01*
X105132143Y-125098569D02*
X104941667Y-125098569D01*
X104941667Y-125098569D02*
X104846429Y-125050950D01*
X104846429Y-125050950D02*
X104798810Y-124955711D01*
X104798810Y-124955711D02*
X104798810Y-124574759D01*
X104798810Y-124574759D02*
X104846429Y-124479521D01*
X104846429Y-124479521D02*
X104941667Y-124431902D01*
X104941667Y-124431902D02*
X105132143Y-124431902D01*
X105132143Y-124431902D02*
X105227381Y-124479521D01*
X105227381Y-124479521D02*
X105275000Y-124574759D01*
X105275000Y-124574759D02*
X105275000Y-124669997D01*
X105275000Y-124669997D02*
X104798810Y-124765235D01*
X105465477Y-125193807D02*
X106227381Y-125193807D01*
X106417858Y-124193807D02*
X106465477Y-124146188D01*
X106465477Y-124146188D02*
X106560715Y-124098569D01*
X106560715Y-124098569D02*
X106798810Y-124098569D01*
X106798810Y-124098569D02*
X106894048Y-124146188D01*
X106894048Y-124146188D02*
X106941667Y-124193807D01*
X106941667Y-124193807D02*
X106989286Y-124289045D01*
X106989286Y-124289045D02*
X106989286Y-124384283D01*
X106989286Y-124384283D02*
X106941667Y-124527140D01*
X106941667Y-124527140D02*
X106370239Y-125098569D01*
X106370239Y-125098569D02*
X106989286Y-125098569D01*
X107417858Y-125003330D02*
X107465477Y-125050950D01*
X107465477Y-125050950D02*
X107417858Y-125098569D01*
X107417858Y-125098569D02*
X107370239Y-125050950D01*
X107370239Y-125050950D02*
X107417858Y-125003330D01*
X107417858Y-125003330D02*
X107417858Y-125098569D01*
X107846429Y-124193807D02*
X107894048Y-124146188D01*
X107894048Y-124146188D02*
X107989286Y-124098569D01*
X107989286Y-124098569D02*
X108227381Y-124098569D01*
X108227381Y-124098569D02*
X108322619Y-124146188D01*
X108322619Y-124146188D02*
X108370238Y-124193807D01*
X108370238Y-124193807D02*
X108417857Y-124289045D01*
X108417857Y-124289045D02*
X108417857Y-124384283D01*
X108417857Y-124384283D02*
X108370238Y-124527140D01*
X108370238Y-124527140D02*
X107798810Y-125098569D01*
X107798810Y-125098569D02*
X108417857Y-125098569D01*
X108846429Y-125098569D02*
X108846429Y-124431902D01*
X108846429Y-124527140D02*
X108894048Y-124479521D01*
X108894048Y-124479521D02*
X108989286Y-124431902D01*
X108989286Y-124431902D02*
X109132143Y-124431902D01*
X109132143Y-124431902D02*
X109227381Y-124479521D01*
X109227381Y-124479521D02*
X109275000Y-124574759D01*
X109275000Y-124574759D02*
X109275000Y-125098569D01*
X109275000Y-124574759D02*
X109322619Y-124479521D01*
X109322619Y-124479521D02*
X109417857Y-124431902D01*
X109417857Y-124431902D02*
X109560714Y-124431902D01*
X109560714Y-124431902D02*
X109655953Y-124479521D01*
X109655953Y-124479521D02*
X109703572Y-124574759D01*
X109703572Y-124574759D02*
X109703572Y-125098569D01*
X110179762Y-125098569D02*
X110179762Y-124431902D01*
X110179762Y-124527140D02*
X110227381Y-124479521D01*
X110227381Y-124479521D02*
X110322619Y-124431902D01*
X110322619Y-124431902D02*
X110465476Y-124431902D01*
X110465476Y-124431902D02*
X110560714Y-124479521D01*
X110560714Y-124479521D02*
X110608333Y-124574759D01*
X110608333Y-124574759D02*
X110608333Y-125098569D01*
X110608333Y-124574759D02*
X110655952Y-124479521D01*
X110655952Y-124479521D02*
X110751190Y-124431902D01*
X110751190Y-124431902D02*
X110894047Y-124431902D01*
X110894047Y-124431902D02*
X110989286Y-124479521D01*
X110989286Y-124479521D02*
X111036905Y-124574759D01*
X111036905Y-124574759D02*
X111036905Y-125098569D01*
X111275000Y-125193807D02*
X112036904Y-125193807D01*
X112275000Y-125098569D02*
X112275000Y-124098569D01*
X112275000Y-124098569D02*
X112608333Y-124812854D01*
X112608333Y-124812854D02*
X112941666Y-124098569D01*
X112941666Y-124098569D02*
X112941666Y-125098569D01*
X113370238Y-124193807D02*
X113417857Y-124146188D01*
X113417857Y-124146188D02*
X113513095Y-124098569D01*
X113513095Y-124098569D02*
X113751190Y-124098569D01*
X113751190Y-124098569D02*
X113846428Y-124146188D01*
X113846428Y-124146188D02*
X113894047Y-124193807D01*
X113894047Y-124193807D02*
X113941666Y-124289045D01*
X113941666Y-124289045D02*
X113941666Y-124384283D01*
X113941666Y-124384283D02*
X113894047Y-124527140D01*
X113894047Y-124527140D02*
X113322619Y-125098569D01*
X113322619Y-125098569D02*
X113941666Y-125098569D01*
X103441666Y-121898569D02*
X103108333Y-121422378D01*
X102870238Y-121898569D02*
X102870238Y-120898569D01*
X102870238Y-120898569D02*
X103251190Y-120898569D01*
X103251190Y-120898569D02*
X103346428Y-120946188D01*
X103346428Y-120946188D02*
X103394047Y-120993807D01*
X103394047Y-120993807D02*
X103441666Y-121089045D01*
X103441666Y-121089045D02*
X103441666Y-121231902D01*
X103441666Y-121231902D02*
X103394047Y-121327140D01*
X103394047Y-121327140D02*
X103346428Y-121374759D01*
X103346428Y-121374759D02*
X103251190Y-121422378D01*
X103251190Y-121422378D02*
X102870238Y-121422378D01*
X103870238Y-121374759D02*
X104203571Y-121374759D01*
X104346428Y-121898569D02*
X103870238Y-121898569D01*
X103870238Y-121898569D02*
X103870238Y-120898569D01*
X103870238Y-120898569D02*
X104346428Y-120898569D01*
X105108333Y-121374759D02*
X104775000Y-121374759D01*
X104775000Y-121898569D02*
X104775000Y-120898569D01*
X104775000Y-120898569D02*
X105251190Y-120898569D01*
X105775000Y-120898569D02*
X105775000Y-121136664D01*
X105536905Y-121041426D02*
X105775000Y-121136664D01*
X105775000Y-121136664D02*
X106013095Y-121041426D01*
X105632143Y-121327140D02*
X105775000Y-121136664D01*
X105775000Y-121136664D02*
X105917857Y-121327140D01*
X106536905Y-120898569D02*
X106536905Y-121136664D01*
X106298810Y-121041426D02*
X106536905Y-121136664D01*
X106536905Y-121136664D02*
X106775000Y-121041426D01*
X106394048Y-121327140D02*
X106536905Y-121136664D01*
X106536905Y-121136664D02*
X106679762Y-121327140D01*
X110895238Y-61097319D02*
X110895238Y-60097319D01*
X111466666Y-61097319D02*
X111038095Y-60525890D01*
X111466666Y-60097319D02*
X110895238Y-60668747D01*
X112276190Y-61049700D02*
X112180952Y-61097319D01*
X112180952Y-61097319D02*
X111990476Y-61097319D01*
X111990476Y-61097319D02*
X111895238Y-61049700D01*
X111895238Y-61049700D02*
X111847619Y-60954461D01*
X111847619Y-60954461D02*
X111847619Y-60573509D01*
X111847619Y-60573509D02*
X111895238Y-60478271D01*
X111895238Y-60478271D02*
X111990476Y-60430652D01*
X111990476Y-60430652D02*
X112180952Y-60430652D01*
X112180952Y-60430652D02*
X112276190Y-60478271D01*
X112276190Y-60478271D02*
X112323809Y-60573509D01*
X112323809Y-60573509D02*
X112323809Y-60668747D01*
X112323809Y-60668747D02*
X111847619Y-60763985D01*
X112657143Y-60430652D02*
X112895238Y-61097319D01*
X113133333Y-60430652D02*
X112895238Y-61097319D01*
X112895238Y-61097319D02*
X112800000Y-61335414D01*
X112800000Y-61335414D02*
X112752381Y-61383033D01*
X112752381Y-61383033D02*
X112657143Y-61430652D01*
X113466667Y-61049700D02*
X113561905Y-61097319D01*
X113561905Y-61097319D02*
X113752381Y-61097319D01*
X113752381Y-61097319D02*
X113847619Y-61049700D01*
X113847619Y-61049700D02*
X113895238Y-60954461D01*
X113895238Y-60954461D02*
X113895238Y-60906842D01*
X113895238Y-60906842D02*
X113847619Y-60811604D01*
X113847619Y-60811604D02*
X113752381Y-60763985D01*
X113752381Y-60763985D02*
X113609524Y-60763985D01*
X113609524Y-60763985D02*
X113514286Y-60716366D01*
X113514286Y-60716366D02*
X113466667Y-60621128D01*
X113466667Y-60621128D02*
X113466667Y-60573509D01*
X113466667Y-60573509D02*
X113514286Y-60478271D01*
X113514286Y-60478271D02*
X113609524Y-60430652D01*
X113609524Y-60430652D02*
X113752381Y-60430652D01*
X113752381Y-60430652D02*
X113847619Y-60478271D01*
X114228572Y-60430652D02*
X114419048Y-61097319D01*
X114419048Y-61097319D02*
X114609524Y-60621128D01*
X114609524Y-60621128D02*
X114800000Y-61097319D01*
X114800000Y-61097319D02*
X114990476Y-60430652D01*
X115371429Y-61097319D02*
X115371429Y-60430652D01*
X115371429Y-60097319D02*
X115323810Y-60144938D01*
X115323810Y-60144938D02*
X115371429Y-60192557D01*
X115371429Y-60192557D02*
X115419048Y-60144938D01*
X115419048Y-60144938D02*
X115371429Y-60097319D01*
X115371429Y-60097319D02*
X115371429Y-60192557D01*
X115704762Y-60430652D02*
X116085714Y-60430652D01*
X115847619Y-60097319D02*
X115847619Y-60954461D01*
X115847619Y-60954461D02*
X115895238Y-61049700D01*
X115895238Y-61049700D02*
X115990476Y-61097319D01*
X115990476Y-61097319D02*
X116085714Y-61097319D01*
X116847619Y-61049700D02*
X116752381Y-61097319D01*
X116752381Y-61097319D02*
X116561905Y-61097319D01*
X116561905Y-61097319D02*
X116466667Y-61049700D01*
X116466667Y-61049700D02*
X116419048Y-61002080D01*
X116419048Y-61002080D02*
X116371429Y-60906842D01*
X116371429Y-60906842D02*
X116371429Y-60621128D01*
X116371429Y-60621128D02*
X116419048Y-60525890D01*
X116419048Y-60525890D02*
X116466667Y-60478271D01*
X116466667Y-60478271D02*
X116561905Y-60430652D01*
X116561905Y-60430652D02*
X116752381Y-60430652D01*
X116752381Y-60430652D02*
X116847619Y-60478271D01*
X117276191Y-61097319D02*
X117276191Y-60097319D01*
X117704762Y-61097319D02*
X117704762Y-60573509D01*
X117704762Y-60573509D02*
X117657143Y-60478271D01*
X117657143Y-60478271D02*
X117561905Y-60430652D01*
X117561905Y-60430652D02*
X117419048Y-60430652D01*
X117419048Y-60430652D02*
X117323810Y-60478271D01*
X117323810Y-60478271D02*
X117276191Y-60525890D01*
X113538095Y-52794700D02*
X113680952Y-52842319D01*
X113680952Y-52842319D02*
X113919047Y-52842319D01*
X113919047Y-52842319D02*
X114014285Y-52794700D01*
X114014285Y-52794700D02*
X114061904Y-52747080D01*
X114061904Y-52747080D02*
X114109523Y-52651842D01*
X114109523Y-52651842D02*
X114109523Y-52556604D01*
X114109523Y-52556604D02*
X114061904Y-52461366D01*
X114061904Y-52461366D02*
X114014285Y-52413747D01*
X114014285Y-52413747D02*
X113919047Y-52366128D01*
X113919047Y-52366128D02*
X113728571Y-52318509D01*
X113728571Y-52318509D02*
X113633333Y-52270890D01*
X113633333Y-52270890D02*
X113585714Y-52223271D01*
X113585714Y-52223271D02*
X113538095Y-52128033D01*
X113538095Y-52128033D02*
X113538095Y-52032795D01*
X113538095Y-52032795D02*
X113585714Y-51937557D01*
X113585714Y-51937557D02*
X113633333Y-51889938D01*
X113633333Y-51889938D02*
X113728571Y-51842319D01*
X113728571Y-51842319D02*
X113966666Y-51842319D01*
X113966666Y-51842319D02*
X114109523Y-51889938D01*
X114966666Y-52175652D02*
X114966666Y-52842319D01*
X114728571Y-51794700D02*
X114490476Y-52508985D01*
X114490476Y-52508985D02*
X115109523Y-52508985D01*
X148995238Y-103959819D02*
X148995238Y-102959819D01*
X149566666Y-103959819D02*
X149138095Y-103388390D01*
X149566666Y-102959819D02*
X148995238Y-103531247D01*
X150376190Y-103912200D02*
X150280952Y-103959819D01*
X150280952Y-103959819D02*
X150090476Y-103959819D01*
X150090476Y-103959819D02*
X149995238Y-103912200D01*
X149995238Y-103912200D02*
X149947619Y-103816961D01*
X149947619Y-103816961D02*
X149947619Y-103436009D01*
X149947619Y-103436009D02*
X149995238Y-103340771D01*
X149995238Y-103340771D02*
X150090476Y-103293152D01*
X150090476Y-103293152D02*
X150280952Y-103293152D01*
X150280952Y-103293152D02*
X150376190Y-103340771D01*
X150376190Y-103340771D02*
X150423809Y-103436009D01*
X150423809Y-103436009D02*
X150423809Y-103531247D01*
X150423809Y-103531247D02*
X149947619Y-103626485D01*
X150757143Y-103293152D02*
X150995238Y-103959819D01*
X151233333Y-103293152D02*
X150995238Y-103959819D01*
X150995238Y-103959819D02*
X150900000Y-104197914D01*
X150900000Y-104197914D02*
X150852381Y-104245533D01*
X150852381Y-104245533D02*
X150757143Y-104293152D01*
X151566667Y-103912200D02*
X151661905Y-103959819D01*
X151661905Y-103959819D02*
X151852381Y-103959819D01*
X151852381Y-103959819D02*
X151947619Y-103912200D01*
X151947619Y-103912200D02*
X151995238Y-103816961D01*
X151995238Y-103816961D02*
X151995238Y-103769342D01*
X151995238Y-103769342D02*
X151947619Y-103674104D01*
X151947619Y-103674104D02*
X151852381Y-103626485D01*
X151852381Y-103626485D02*
X151709524Y-103626485D01*
X151709524Y-103626485D02*
X151614286Y-103578866D01*
X151614286Y-103578866D02*
X151566667Y-103483628D01*
X151566667Y-103483628D02*
X151566667Y-103436009D01*
X151566667Y-103436009D02*
X151614286Y-103340771D01*
X151614286Y-103340771D02*
X151709524Y-103293152D01*
X151709524Y-103293152D02*
X151852381Y-103293152D01*
X151852381Y-103293152D02*
X151947619Y-103340771D01*
X152328572Y-103293152D02*
X152519048Y-103959819D01*
X152519048Y-103959819D02*
X152709524Y-103483628D01*
X152709524Y-103483628D02*
X152900000Y-103959819D01*
X152900000Y-103959819D02*
X153090476Y-103293152D01*
X153471429Y-103959819D02*
X153471429Y-103293152D01*
X153471429Y-102959819D02*
X153423810Y-103007438D01*
X153423810Y-103007438D02*
X153471429Y-103055057D01*
X153471429Y-103055057D02*
X153519048Y-103007438D01*
X153519048Y-103007438D02*
X153471429Y-102959819D01*
X153471429Y-102959819D02*
X153471429Y-103055057D01*
X153804762Y-103293152D02*
X154185714Y-103293152D01*
X153947619Y-102959819D02*
X153947619Y-103816961D01*
X153947619Y-103816961D02*
X153995238Y-103912200D01*
X153995238Y-103912200D02*
X154090476Y-103959819D01*
X154090476Y-103959819D02*
X154185714Y-103959819D01*
X154947619Y-103912200D02*
X154852381Y-103959819D01*
X154852381Y-103959819D02*
X154661905Y-103959819D01*
X154661905Y-103959819D02*
X154566667Y-103912200D01*
X154566667Y-103912200D02*
X154519048Y-103864580D01*
X154519048Y-103864580D02*
X154471429Y-103769342D01*
X154471429Y-103769342D02*
X154471429Y-103483628D01*
X154471429Y-103483628D02*
X154519048Y-103388390D01*
X154519048Y-103388390D02*
X154566667Y-103340771D01*
X154566667Y-103340771D02*
X154661905Y-103293152D01*
X154661905Y-103293152D02*
X154852381Y-103293152D01*
X154852381Y-103293152D02*
X154947619Y-103340771D01*
X155376191Y-103959819D02*
X155376191Y-102959819D01*
X155804762Y-103959819D02*
X155804762Y-103436009D01*
X155804762Y-103436009D02*
X155757143Y-103340771D01*
X155757143Y-103340771D02*
X155661905Y-103293152D01*
X155661905Y-103293152D02*
X155519048Y-103293152D01*
X155519048Y-103293152D02*
X155423810Y-103340771D01*
X155423810Y-103340771D02*
X155376191Y-103388390D01*
X151161905Y-95657200D02*
X151304762Y-95704819D01*
X151304762Y-95704819D02*
X151542857Y-95704819D01*
X151542857Y-95704819D02*
X151638095Y-95657200D01*
X151638095Y-95657200D02*
X151685714Y-95609580D01*
X151685714Y-95609580D02*
X151733333Y-95514342D01*
X151733333Y-95514342D02*
X151733333Y-95419104D01*
X151733333Y-95419104D02*
X151685714Y-95323866D01*
X151685714Y-95323866D02*
X151638095Y-95276247D01*
X151638095Y-95276247D02*
X151542857Y-95228628D01*
X151542857Y-95228628D02*
X151352381Y-95181009D01*
X151352381Y-95181009D02*
X151257143Y-95133390D01*
X151257143Y-95133390D02*
X151209524Y-95085771D01*
X151209524Y-95085771D02*
X151161905Y-94990533D01*
X151161905Y-94990533D02*
X151161905Y-94895295D01*
X151161905Y-94895295D02*
X151209524Y-94800057D01*
X151209524Y-94800057D02*
X151257143Y-94752438D01*
X151257143Y-94752438D02*
X151352381Y-94704819D01*
X151352381Y-94704819D02*
X151590476Y-94704819D01*
X151590476Y-94704819D02*
X151733333Y-94752438D01*
X152685714Y-95704819D02*
X152114286Y-95704819D01*
X152400000Y-95704819D02*
X152400000Y-94704819D01*
X152400000Y-94704819D02*
X152304762Y-94847676D01*
X152304762Y-94847676D02*
X152209524Y-94942914D01*
X152209524Y-94942914D02*
X152114286Y-94990533D01*
X153257143Y-95133390D02*
X153161905Y-95085771D01*
X153161905Y-95085771D02*
X153114286Y-95038152D01*
X153114286Y-95038152D02*
X153066667Y-94942914D01*
X153066667Y-94942914D02*
X153066667Y-94895295D01*
X153066667Y-94895295D02*
X153114286Y-94800057D01*
X153114286Y-94800057D02*
X153161905Y-94752438D01*
X153161905Y-94752438D02*
X153257143Y-94704819D01*
X153257143Y-94704819D02*
X153447619Y-94704819D01*
X153447619Y-94704819D02*
X153542857Y-94752438D01*
X153542857Y-94752438D02*
X153590476Y-94800057D01*
X153590476Y-94800057D02*
X153638095Y-94895295D01*
X153638095Y-94895295D02*
X153638095Y-94942914D01*
X153638095Y-94942914D02*
X153590476Y-95038152D01*
X153590476Y-95038152D02*
X153542857Y-95085771D01*
X153542857Y-95085771D02*
X153447619Y-95133390D01*
X153447619Y-95133390D02*
X153257143Y-95133390D01*
X153257143Y-95133390D02*
X153161905Y-95181009D01*
X153161905Y-95181009D02*
X153114286Y-95228628D01*
X153114286Y-95228628D02*
X153066667Y-95323866D01*
X153066667Y-95323866D02*
X153066667Y-95514342D01*
X153066667Y-95514342D02*
X153114286Y-95609580D01*
X153114286Y-95609580D02*
X153161905Y-95657200D01*
X153161905Y-95657200D02*
X153257143Y-95704819D01*
X153257143Y-95704819D02*
X153447619Y-95704819D01*
X153447619Y-95704819D02*
X153542857Y-95657200D01*
X153542857Y-95657200D02*
X153590476Y-95609580D01*
X153590476Y-95609580D02*
X153638095Y-95514342D01*
X153638095Y-95514342D02*
X153638095Y-95323866D01*
X153638095Y-95323866D02*
X153590476Y-95228628D01*
X153590476Y-95228628D02*
X153542857Y-95181009D01*
X153542857Y-95181009D02*
X153447619Y-95133390D01*
X148995238Y-65859819D02*
X148995238Y-64859819D01*
X149566666Y-65859819D02*
X149138095Y-65288390D01*
X149566666Y-64859819D02*
X148995238Y-65431247D01*
X150376190Y-65812200D02*
X150280952Y-65859819D01*
X150280952Y-65859819D02*
X150090476Y-65859819D01*
X150090476Y-65859819D02*
X149995238Y-65812200D01*
X149995238Y-65812200D02*
X149947619Y-65716961D01*
X149947619Y-65716961D02*
X149947619Y-65336009D01*
X149947619Y-65336009D02*
X149995238Y-65240771D01*
X149995238Y-65240771D02*
X150090476Y-65193152D01*
X150090476Y-65193152D02*
X150280952Y-65193152D01*
X150280952Y-65193152D02*
X150376190Y-65240771D01*
X150376190Y-65240771D02*
X150423809Y-65336009D01*
X150423809Y-65336009D02*
X150423809Y-65431247D01*
X150423809Y-65431247D02*
X149947619Y-65526485D01*
X150757143Y-65193152D02*
X150995238Y-65859819D01*
X151233333Y-65193152D02*
X150995238Y-65859819D01*
X150995238Y-65859819D02*
X150900000Y-66097914D01*
X150900000Y-66097914D02*
X150852381Y-66145533D01*
X150852381Y-66145533D02*
X150757143Y-66193152D01*
X151566667Y-65812200D02*
X151661905Y-65859819D01*
X151661905Y-65859819D02*
X151852381Y-65859819D01*
X151852381Y-65859819D02*
X151947619Y-65812200D01*
X151947619Y-65812200D02*
X151995238Y-65716961D01*
X151995238Y-65716961D02*
X151995238Y-65669342D01*
X151995238Y-65669342D02*
X151947619Y-65574104D01*
X151947619Y-65574104D02*
X151852381Y-65526485D01*
X151852381Y-65526485D02*
X151709524Y-65526485D01*
X151709524Y-65526485D02*
X151614286Y-65478866D01*
X151614286Y-65478866D02*
X151566667Y-65383628D01*
X151566667Y-65383628D02*
X151566667Y-65336009D01*
X151566667Y-65336009D02*
X151614286Y-65240771D01*
X151614286Y-65240771D02*
X151709524Y-65193152D01*
X151709524Y-65193152D02*
X151852381Y-65193152D01*
X151852381Y-65193152D02*
X151947619Y-65240771D01*
X152328572Y-65193152D02*
X152519048Y-65859819D01*
X152519048Y-65859819D02*
X152709524Y-65383628D01*
X152709524Y-65383628D02*
X152900000Y-65859819D01*
X152900000Y-65859819D02*
X153090476Y-65193152D01*
X153471429Y-65859819D02*
X153471429Y-65193152D01*
X153471429Y-64859819D02*
X153423810Y-64907438D01*
X153423810Y-64907438D02*
X153471429Y-64955057D01*
X153471429Y-64955057D02*
X153519048Y-64907438D01*
X153519048Y-64907438D02*
X153471429Y-64859819D01*
X153471429Y-64859819D02*
X153471429Y-64955057D01*
X153804762Y-65193152D02*
X154185714Y-65193152D01*
X153947619Y-64859819D02*
X153947619Y-65716961D01*
X153947619Y-65716961D02*
X153995238Y-65812200D01*
X153995238Y-65812200D02*
X154090476Y-65859819D01*
X154090476Y-65859819D02*
X154185714Y-65859819D01*
X154947619Y-65812200D02*
X154852381Y-65859819D01*
X154852381Y-65859819D02*
X154661905Y-65859819D01*
X154661905Y-65859819D02*
X154566667Y-65812200D01*
X154566667Y-65812200D02*
X154519048Y-65764580D01*
X154519048Y-65764580D02*
X154471429Y-65669342D01*
X154471429Y-65669342D02*
X154471429Y-65383628D01*
X154471429Y-65383628D02*
X154519048Y-65288390D01*
X154519048Y-65288390D02*
X154566667Y-65240771D01*
X154566667Y-65240771D02*
X154661905Y-65193152D01*
X154661905Y-65193152D02*
X154852381Y-65193152D01*
X154852381Y-65193152D02*
X154947619Y-65240771D01*
X155376191Y-65859819D02*
X155376191Y-64859819D01*
X155804762Y-65859819D02*
X155804762Y-65336009D01*
X155804762Y-65336009D02*
X155757143Y-65240771D01*
X155757143Y-65240771D02*
X155661905Y-65193152D01*
X155661905Y-65193152D02*
X155519048Y-65193152D01*
X155519048Y-65193152D02*
X155423810Y-65240771D01*
X155423810Y-65240771D02*
X155376191Y-65288390D01*
X151638095Y-57557200D02*
X151780952Y-57604819D01*
X151780952Y-57604819D02*
X152019047Y-57604819D01*
X152019047Y-57604819D02*
X152114285Y-57557200D01*
X152114285Y-57557200D02*
X152161904Y-57509580D01*
X152161904Y-57509580D02*
X152209523Y-57414342D01*
X152209523Y-57414342D02*
X152209523Y-57319104D01*
X152209523Y-57319104D02*
X152161904Y-57223866D01*
X152161904Y-57223866D02*
X152114285Y-57176247D01*
X152114285Y-57176247D02*
X152019047Y-57128628D01*
X152019047Y-57128628D02*
X151828571Y-57081009D01*
X151828571Y-57081009D02*
X151733333Y-57033390D01*
X151733333Y-57033390D02*
X151685714Y-56985771D01*
X151685714Y-56985771D02*
X151638095Y-56890533D01*
X151638095Y-56890533D02*
X151638095Y-56795295D01*
X151638095Y-56795295D02*
X151685714Y-56700057D01*
X151685714Y-56700057D02*
X151733333Y-56652438D01*
X151733333Y-56652438D02*
X151828571Y-56604819D01*
X151828571Y-56604819D02*
X152066666Y-56604819D01*
X152066666Y-56604819D02*
X152209523Y-56652438D01*
X153066666Y-56604819D02*
X152876190Y-56604819D01*
X152876190Y-56604819D02*
X152780952Y-56652438D01*
X152780952Y-56652438D02*
X152733333Y-56700057D01*
X152733333Y-56700057D02*
X152638095Y-56842914D01*
X152638095Y-56842914D02*
X152590476Y-57033390D01*
X152590476Y-57033390D02*
X152590476Y-57414342D01*
X152590476Y-57414342D02*
X152638095Y-57509580D01*
X152638095Y-57509580D02*
X152685714Y-57557200D01*
X152685714Y-57557200D02*
X152780952Y-57604819D01*
X152780952Y-57604819D02*
X152971428Y-57604819D01*
X152971428Y-57604819D02*
X153066666Y-57557200D01*
X153066666Y-57557200D02*
X153114285Y-57509580D01*
X153114285Y-57509580D02*
X153161904Y-57414342D01*
X153161904Y-57414342D02*
X153161904Y-57176247D01*
X153161904Y-57176247D02*
X153114285Y-57081009D01*
X153114285Y-57081009D02*
X153066666Y-57033390D01*
X153066666Y-57033390D02*
X152971428Y-56985771D01*
X152971428Y-56985771D02*
X152780952Y-56985771D01*
X152780952Y-56985771D02*
X152685714Y-57033390D01*
X152685714Y-57033390D02*
X152638095Y-57081009D01*
X152638095Y-57081009D02*
X152590476Y-57176247D01*
X152805952Y-51279819D02*
X152805952Y-50279819D01*
X152805952Y-50279819D02*
X153139285Y-50994104D01*
X153139285Y-50994104D02*
X153472618Y-50279819D01*
X153472618Y-50279819D02*
X153472618Y-51279819D01*
X154091666Y-51279819D02*
X153996428Y-51232200D01*
X153996428Y-51232200D02*
X153948809Y-51184580D01*
X153948809Y-51184580D02*
X153901190Y-51089342D01*
X153901190Y-51089342D02*
X153901190Y-50803628D01*
X153901190Y-50803628D02*
X153948809Y-50708390D01*
X153948809Y-50708390D02*
X153996428Y-50660771D01*
X153996428Y-50660771D02*
X154091666Y-50613152D01*
X154091666Y-50613152D02*
X154234523Y-50613152D01*
X154234523Y-50613152D02*
X154329761Y-50660771D01*
X154329761Y-50660771D02*
X154377380Y-50708390D01*
X154377380Y-50708390D02*
X154424999Y-50803628D01*
X154424999Y-50803628D02*
X154424999Y-51089342D01*
X154424999Y-51089342D02*
X154377380Y-51184580D01*
X154377380Y-51184580D02*
X154329761Y-51232200D01*
X154329761Y-51232200D02*
X154234523Y-51279819D01*
X154234523Y-51279819D02*
X154091666Y-51279819D01*
X155282142Y-50613152D02*
X155282142Y-51279819D01*
X154853571Y-50613152D02*
X154853571Y-51136961D01*
X154853571Y-51136961D02*
X154901190Y-51232200D01*
X154901190Y-51232200D02*
X154996428Y-51279819D01*
X154996428Y-51279819D02*
X155139285Y-51279819D01*
X155139285Y-51279819D02*
X155234523Y-51232200D01*
X155234523Y-51232200D02*
X155282142Y-51184580D01*
X155758333Y-50613152D02*
X155758333Y-51279819D01*
X155758333Y-50708390D02*
X155805952Y-50660771D01*
X155805952Y-50660771D02*
X155901190Y-50613152D01*
X155901190Y-50613152D02*
X156044047Y-50613152D01*
X156044047Y-50613152D02*
X156139285Y-50660771D01*
X156139285Y-50660771D02*
X156186904Y-50756009D01*
X156186904Y-50756009D02*
X156186904Y-51279819D01*
X156520238Y-50613152D02*
X156901190Y-50613152D01*
X156663095Y-50279819D02*
X156663095Y-51136961D01*
X156663095Y-51136961D02*
X156710714Y-51232200D01*
X156710714Y-51232200D02*
X156805952Y-51279819D01*
X156805952Y-51279819D02*
X156901190Y-51279819D01*
X157234524Y-51279819D02*
X157234524Y-50613152D01*
X157234524Y-50279819D02*
X157186905Y-50327438D01*
X157186905Y-50327438D02*
X157234524Y-50375057D01*
X157234524Y-50375057D02*
X157282143Y-50327438D01*
X157282143Y-50327438D02*
X157234524Y-50279819D01*
X157234524Y-50279819D02*
X157234524Y-50375057D01*
X157710714Y-50613152D02*
X157710714Y-51279819D01*
X157710714Y-50708390D02*
X157758333Y-50660771D01*
X157758333Y-50660771D02*
X157853571Y-50613152D01*
X157853571Y-50613152D02*
X157996428Y-50613152D01*
X157996428Y-50613152D02*
X158091666Y-50660771D01*
X158091666Y-50660771D02*
X158139285Y-50756009D01*
X158139285Y-50756009D02*
X158139285Y-51279819D01*
X159044047Y-50613152D02*
X159044047Y-51422676D01*
X159044047Y-51422676D02*
X158996428Y-51517914D01*
X158996428Y-51517914D02*
X158948809Y-51565533D01*
X158948809Y-51565533D02*
X158853571Y-51613152D01*
X158853571Y-51613152D02*
X158710714Y-51613152D01*
X158710714Y-51613152D02*
X158615476Y-51565533D01*
X159044047Y-51232200D02*
X158948809Y-51279819D01*
X158948809Y-51279819D02*
X158758333Y-51279819D01*
X158758333Y-51279819D02*
X158663095Y-51232200D01*
X158663095Y-51232200D02*
X158615476Y-51184580D01*
X158615476Y-51184580D02*
X158567857Y-51089342D01*
X158567857Y-51089342D02*
X158567857Y-50803628D01*
X158567857Y-50803628D02*
X158615476Y-50708390D01*
X158615476Y-50708390D02*
X158663095Y-50660771D01*
X158663095Y-50660771D02*
X158758333Y-50613152D01*
X158758333Y-50613152D02*
X158948809Y-50613152D01*
X158948809Y-50613152D02*
X159044047Y-50660771D01*
X159520238Y-51279819D02*
X159520238Y-50279819D01*
X159520238Y-50756009D02*
X160091666Y-50756009D01*
X160091666Y-51279819D02*
X160091666Y-50279819D01*
X160710714Y-51279819D02*
X160615476Y-51232200D01*
X160615476Y-51232200D02*
X160567857Y-51184580D01*
X160567857Y-51184580D02*
X160520238Y-51089342D01*
X160520238Y-51089342D02*
X160520238Y-50803628D01*
X160520238Y-50803628D02*
X160567857Y-50708390D01*
X160567857Y-50708390D02*
X160615476Y-50660771D01*
X160615476Y-50660771D02*
X160710714Y-50613152D01*
X160710714Y-50613152D02*
X160853571Y-50613152D01*
X160853571Y-50613152D02*
X160948809Y-50660771D01*
X160948809Y-50660771D02*
X160996428Y-50708390D01*
X160996428Y-50708390D02*
X161044047Y-50803628D01*
X161044047Y-50803628D02*
X161044047Y-51089342D01*
X161044047Y-51089342D02*
X160996428Y-51184580D01*
X160996428Y-51184580D02*
X160948809Y-51232200D01*
X160948809Y-51232200D02*
X160853571Y-51279819D01*
X160853571Y-51279819D02*
X160710714Y-51279819D01*
X161615476Y-51279819D02*
X161520238Y-51232200D01*
X161520238Y-51232200D02*
X161472619Y-51136961D01*
X161472619Y-51136961D02*
X161472619Y-50279819D01*
X162377381Y-51232200D02*
X162282143Y-51279819D01*
X162282143Y-51279819D02*
X162091667Y-51279819D01*
X162091667Y-51279819D02*
X161996429Y-51232200D01*
X161996429Y-51232200D02*
X161948810Y-51136961D01*
X161948810Y-51136961D02*
X161948810Y-50756009D01*
X161948810Y-50756009D02*
X161996429Y-50660771D01*
X161996429Y-50660771D02*
X162091667Y-50613152D01*
X162091667Y-50613152D02*
X162282143Y-50613152D01*
X162282143Y-50613152D02*
X162377381Y-50660771D01*
X162377381Y-50660771D02*
X162425000Y-50756009D01*
X162425000Y-50756009D02*
X162425000Y-50851247D01*
X162425000Y-50851247D02*
X161948810Y-50946485D01*
X162615477Y-51375057D02*
X163377381Y-51375057D01*
X163567858Y-50375057D02*
X163615477Y-50327438D01*
X163615477Y-50327438D02*
X163710715Y-50279819D01*
X163710715Y-50279819D02*
X163948810Y-50279819D01*
X163948810Y-50279819D02*
X164044048Y-50327438D01*
X164044048Y-50327438D02*
X164091667Y-50375057D01*
X164091667Y-50375057D02*
X164139286Y-50470295D01*
X164139286Y-50470295D02*
X164139286Y-50565533D01*
X164139286Y-50565533D02*
X164091667Y-50708390D01*
X164091667Y-50708390D02*
X163520239Y-51279819D01*
X163520239Y-51279819D02*
X164139286Y-51279819D01*
X164567858Y-51184580D02*
X164615477Y-51232200D01*
X164615477Y-51232200D02*
X164567858Y-51279819D01*
X164567858Y-51279819D02*
X164520239Y-51232200D01*
X164520239Y-51232200D02*
X164567858Y-51184580D01*
X164567858Y-51184580D02*
X164567858Y-51279819D01*
X164996429Y-50375057D02*
X165044048Y-50327438D01*
X165044048Y-50327438D02*
X165139286Y-50279819D01*
X165139286Y-50279819D02*
X165377381Y-50279819D01*
X165377381Y-50279819D02*
X165472619Y-50327438D01*
X165472619Y-50327438D02*
X165520238Y-50375057D01*
X165520238Y-50375057D02*
X165567857Y-50470295D01*
X165567857Y-50470295D02*
X165567857Y-50565533D01*
X165567857Y-50565533D02*
X165520238Y-50708390D01*
X165520238Y-50708390D02*
X164948810Y-51279819D01*
X164948810Y-51279819D02*
X165567857Y-51279819D01*
X165996429Y-51279819D02*
X165996429Y-50613152D01*
X165996429Y-50708390D02*
X166044048Y-50660771D01*
X166044048Y-50660771D02*
X166139286Y-50613152D01*
X166139286Y-50613152D02*
X166282143Y-50613152D01*
X166282143Y-50613152D02*
X166377381Y-50660771D01*
X166377381Y-50660771D02*
X166425000Y-50756009D01*
X166425000Y-50756009D02*
X166425000Y-51279819D01*
X166425000Y-50756009D02*
X166472619Y-50660771D01*
X166472619Y-50660771D02*
X166567857Y-50613152D01*
X166567857Y-50613152D02*
X166710714Y-50613152D01*
X166710714Y-50613152D02*
X166805953Y-50660771D01*
X166805953Y-50660771D02*
X166853572Y-50756009D01*
X166853572Y-50756009D02*
X166853572Y-51279819D01*
X167329762Y-51279819D02*
X167329762Y-50613152D01*
X167329762Y-50708390D02*
X167377381Y-50660771D01*
X167377381Y-50660771D02*
X167472619Y-50613152D01*
X167472619Y-50613152D02*
X167615476Y-50613152D01*
X167615476Y-50613152D02*
X167710714Y-50660771D01*
X167710714Y-50660771D02*
X167758333Y-50756009D01*
X167758333Y-50756009D02*
X167758333Y-51279819D01*
X167758333Y-50756009D02*
X167805952Y-50660771D01*
X167805952Y-50660771D02*
X167901190Y-50613152D01*
X167901190Y-50613152D02*
X168044047Y-50613152D01*
X168044047Y-50613152D02*
X168139286Y-50660771D01*
X168139286Y-50660771D02*
X168186905Y-50756009D01*
X168186905Y-50756009D02*
X168186905Y-51279819D01*
X168425000Y-51375057D02*
X169186904Y-51375057D01*
X169425000Y-51279819D02*
X169425000Y-50279819D01*
X169425000Y-50279819D02*
X169758333Y-50994104D01*
X169758333Y-50994104D02*
X170091666Y-50279819D01*
X170091666Y-50279819D02*
X170091666Y-51279819D01*
X170520238Y-50375057D02*
X170567857Y-50327438D01*
X170567857Y-50327438D02*
X170663095Y-50279819D01*
X170663095Y-50279819D02*
X170901190Y-50279819D01*
X170901190Y-50279819D02*
X170996428Y-50327438D01*
X170996428Y-50327438D02*
X171044047Y-50375057D01*
X171044047Y-50375057D02*
X171091666Y-50470295D01*
X171091666Y-50470295D02*
X171091666Y-50565533D01*
X171091666Y-50565533D02*
X171044047Y-50708390D01*
X171044047Y-50708390D02*
X170472619Y-51279819D01*
X170472619Y-51279819D02*
X171091666Y-51279819D01*
X160591666Y-48079819D02*
X160258333Y-47603628D01*
X160020238Y-48079819D02*
X160020238Y-47079819D01*
X160020238Y-47079819D02*
X160401190Y-47079819D01*
X160401190Y-47079819D02*
X160496428Y-47127438D01*
X160496428Y-47127438D02*
X160544047Y-47175057D01*
X160544047Y-47175057D02*
X160591666Y-47270295D01*
X160591666Y-47270295D02*
X160591666Y-47413152D01*
X160591666Y-47413152D02*
X160544047Y-47508390D01*
X160544047Y-47508390D02*
X160496428Y-47556009D01*
X160496428Y-47556009D02*
X160401190Y-47603628D01*
X160401190Y-47603628D02*
X160020238Y-47603628D01*
X161020238Y-47556009D02*
X161353571Y-47556009D01*
X161496428Y-48079819D02*
X161020238Y-48079819D01*
X161020238Y-48079819D02*
X161020238Y-47079819D01*
X161020238Y-47079819D02*
X161496428Y-47079819D01*
X162258333Y-47556009D02*
X161925000Y-47556009D01*
X161925000Y-48079819D02*
X161925000Y-47079819D01*
X161925000Y-47079819D02*
X162401190Y-47079819D01*
X162925000Y-47079819D02*
X162925000Y-47317914D01*
X162686905Y-47222676D02*
X162925000Y-47317914D01*
X162925000Y-47317914D02*
X163163095Y-47222676D01*
X162782143Y-47508390D02*
X162925000Y-47317914D01*
X162925000Y-47317914D02*
X163067857Y-47508390D01*
X163686905Y-47079819D02*
X163686905Y-47317914D01*
X163448810Y-47222676D02*
X163686905Y-47317914D01*
X163686905Y-47317914D02*
X163925000Y-47222676D01*
X163544048Y-47508390D02*
X163686905Y-47317914D01*
X163686905Y-47317914D02*
X163829762Y-47508390D01*
X129945238Y-101578569D02*
X129945238Y-100578569D01*
X130516666Y-101578569D02*
X130088095Y-101007140D01*
X130516666Y-100578569D02*
X129945238Y-101149997D01*
X131326190Y-101530950D02*
X131230952Y-101578569D01*
X131230952Y-101578569D02*
X131040476Y-101578569D01*
X131040476Y-101578569D02*
X130945238Y-101530950D01*
X130945238Y-101530950D02*
X130897619Y-101435711D01*
X130897619Y-101435711D02*
X130897619Y-101054759D01*
X130897619Y-101054759D02*
X130945238Y-100959521D01*
X130945238Y-100959521D02*
X131040476Y-100911902D01*
X131040476Y-100911902D02*
X131230952Y-100911902D01*
X131230952Y-100911902D02*
X131326190Y-100959521D01*
X131326190Y-100959521D02*
X131373809Y-101054759D01*
X131373809Y-101054759D02*
X131373809Y-101149997D01*
X131373809Y-101149997D02*
X130897619Y-101245235D01*
X131707143Y-100911902D02*
X131945238Y-101578569D01*
X132183333Y-100911902D02*
X131945238Y-101578569D01*
X131945238Y-101578569D02*
X131850000Y-101816664D01*
X131850000Y-101816664D02*
X131802381Y-101864283D01*
X131802381Y-101864283D02*
X131707143Y-101911902D01*
X132516667Y-101530950D02*
X132611905Y-101578569D01*
X132611905Y-101578569D02*
X132802381Y-101578569D01*
X132802381Y-101578569D02*
X132897619Y-101530950D01*
X132897619Y-101530950D02*
X132945238Y-101435711D01*
X132945238Y-101435711D02*
X132945238Y-101388092D01*
X132945238Y-101388092D02*
X132897619Y-101292854D01*
X132897619Y-101292854D02*
X132802381Y-101245235D01*
X132802381Y-101245235D02*
X132659524Y-101245235D01*
X132659524Y-101245235D02*
X132564286Y-101197616D01*
X132564286Y-101197616D02*
X132516667Y-101102378D01*
X132516667Y-101102378D02*
X132516667Y-101054759D01*
X132516667Y-101054759D02*
X132564286Y-100959521D01*
X132564286Y-100959521D02*
X132659524Y-100911902D01*
X132659524Y-100911902D02*
X132802381Y-100911902D01*
X132802381Y-100911902D02*
X132897619Y-100959521D01*
X133278572Y-100911902D02*
X133469048Y-101578569D01*
X133469048Y-101578569D02*
X133659524Y-101102378D01*
X133659524Y-101102378D02*
X133850000Y-101578569D01*
X133850000Y-101578569D02*
X134040476Y-100911902D01*
X134421429Y-101578569D02*
X134421429Y-100911902D01*
X134421429Y-100578569D02*
X134373810Y-100626188D01*
X134373810Y-100626188D02*
X134421429Y-100673807D01*
X134421429Y-100673807D02*
X134469048Y-100626188D01*
X134469048Y-100626188D02*
X134421429Y-100578569D01*
X134421429Y-100578569D02*
X134421429Y-100673807D01*
X134754762Y-100911902D02*
X135135714Y-100911902D01*
X134897619Y-100578569D02*
X134897619Y-101435711D01*
X134897619Y-101435711D02*
X134945238Y-101530950D01*
X134945238Y-101530950D02*
X135040476Y-101578569D01*
X135040476Y-101578569D02*
X135135714Y-101578569D01*
X135897619Y-101530950D02*
X135802381Y-101578569D01*
X135802381Y-101578569D02*
X135611905Y-101578569D01*
X135611905Y-101578569D02*
X135516667Y-101530950D01*
X135516667Y-101530950D02*
X135469048Y-101483330D01*
X135469048Y-101483330D02*
X135421429Y-101388092D01*
X135421429Y-101388092D02*
X135421429Y-101102378D01*
X135421429Y-101102378D02*
X135469048Y-101007140D01*
X135469048Y-101007140D02*
X135516667Y-100959521D01*
X135516667Y-100959521D02*
X135611905Y-100911902D01*
X135611905Y-100911902D02*
X135802381Y-100911902D01*
X135802381Y-100911902D02*
X135897619Y-100959521D01*
X136326191Y-101578569D02*
X136326191Y-100578569D01*
X136754762Y-101578569D02*
X136754762Y-101054759D01*
X136754762Y-101054759D02*
X136707143Y-100959521D01*
X136707143Y-100959521D02*
X136611905Y-100911902D01*
X136611905Y-100911902D02*
X136469048Y-100911902D01*
X136469048Y-100911902D02*
X136373810Y-100959521D01*
X136373810Y-100959521D02*
X136326191Y-101007140D01*
X132111905Y-93275950D02*
X132254762Y-93323569D01*
X132254762Y-93323569D02*
X132492857Y-93323569D01*
X132492857Y-93323569D02*
X132588095Y-93275950D01*
X132588095Y-93275950D02*
X132635714Y-93228330D01*
X132635714Y-93228330D02*
X132683333Y-93133092D01*
X132683333Y-93133092D02*
X132683333Y-93037854D01*
X132683333Y-93037854D02*
X132635714Y-92942616D01*
X132635714Y-92942616D02*
X132588095Y-92894997D01*
X132588095Y-92894997D02*
X132492857Y-92847378D01*
X132492857Y-92847378D02*
X132302381Y-92799759D01*
X132302381Y-92799759D02*
X132207143Y-92752140D01*
X132207143Y-92752140D02*
X132159524Y-92704521D01*
X132159524Y-92704521D02*
X132111905Y-92609283D01*
X132111905Y-92609283D02*
X132111905Y-92514045D01*
X132111905Y-92514045D02*
X132159524Y-92418807D01*
X132159524Y-92418807D02*
X132207143Y-92371188D01*
X132207143Y-92371188D02*
X132302381Y-92323569D01*
X132302381Y-92323569D02*
X132540476Y-92323569D01*
X132540476Y-92323569D02*
X132683333Y-92371188D01*
X133635714Y-93323569D02*
X133064286Y-93323569D01*
X133350000Y-93323569D02*
X133350000Y-92323569D01*
X133350000Y-92323569D02*
X133254762Y-92466426D01*
X133254762Y-92466426D02*
X133159524Y-92561664D01*
X133159524Y-92561664D02*
X133064286Y-92609283D01*
X133969048Y-92323569D02*
X134635714Y-92323569D01*
X134635714Y-92323569D02*
X134207143Y-93323569D01*
X72795238Y-103959819D02*
X72795238Y-102959819D01*
X73366666Y-103959819D02*
X72938095Y-103388390D01*
X73366666Y-102959819D02*
X72795238Y-103531247D01*
X74176190Y-103912200D02*
X74080952Y-103959819D01*
X74080952Y-103959819D02*
X73890476Y-103959819D01*
X73890476Y-103959819D02*
X73795238Y-103912200D01*
X73795238Y-103912200D02*
X73747619Y-103816961D01*
X73747619Y-103816961D02*
X73747619Y-103436009D01*
X73747619Y-103436009D02*
X73795238Y-103340771D01*
X73795238Y-103340771D02*
X73890476Y-103293152D01*
X73890476Y-103293152D02*
X74080952Y-103293152D01*
X74080952Y-103293152D02*
X74176190Y-103340771D01*
X74176190Y-103340771D02*
X74223809Y-103436009D01*
X74223809Y-103436009D02*
X74223809Y-103531247D01*
X74223809Y-103531247D02*
X73747619Y-103626485D01*
X74557143Y-103293152D02*
X74795238Y-103959819D01*
X75033333Y-103293152D02*
X74795238Y-103959819D01*
X74795238Y-103959819D02*
X74700000Y-104197914D01*
X74700000Y-104197914D02*
X74652381Y-104245533D01*
X74652381Y-104245533D02*
X74557143Y-104293152D01*
X75366667Y-103912200D02*
X75461905Y-103959819D01*
X75461905Y-103959819D02*
X75652381Y-103959819D01*
X75652381Y-103959819D02*
X75747619Y-103912200D01*
X75747619Y-103912200D02*
X75795238Y-103816961D01*
X75795238Y-103816961D02*
X75795238Y-103769342D01*
X75795238Y-103769342D02*
X75747619Y-103674104D01*
X75747619Y-103674104D02*
X75652381Y-103626485D01*
X75652381Y-103626485D02*
X75509524Y-103626485D01*
X75509524Y-103626485D02*
X75414286Y-103578866D01*
X75414286Y-103578866D02*
X75366667Y-103483628D01*
X75366667Y-103483628D02*
X75366667Y-103436009D01*
X75366667Y-103436009D02*
X75414286Y-103340771D01*
X75414286Y-103340771D02*
X75509524Y-103293152D01*
X75509524Y-103293152D02*
X75652381Y-103293152D01*
X75652381Y-103293152D02*
X75747619Y-103340771D01*
X76128572Y-103293152D02*
X76319048Y-103959819D01*
X76319048Y-103959819D02*
X76509524Y-103483628D01*
X76509524Y-103483628D02*
X76700000Y-103959819D01*
X76700000Y-103959819D02*
X76890476Y-103293152D01*
X77271429Y-103959819D02*
X77271429Y-103293152D01*
X77271429Y-102959819D02*
X77223810Y-103007438D01*
X77223810Y-103007438D02*
X77271429Y-103055057D01*
X77271429Y-103055057D02*
X77319048Y-103007438D01*
X77319048Y-103007438D02*
X77271429Y-102959819D01*
X77271429Y-102959819D02*
X77271429Y-103055057D01*
X77604762Y-103293152D02*
X77985714Y-103293152D01*
X77747619Y-102959819D02*
X77747619Y-103816961D01*
X77747619Y-103816961D02*
X77795238Y-103912200D01*
X77795238Y-103912200D02*
X77890476Y-103959819D01*
X77890476Y-103959819D02*
X77985714Y-103959819D01*
X78747619Y-103912200D02*
X78652381Y-103959819D01*
X78652381Y-103959819D02*
X78461905Y-103959819D01*
X78461905Y-103959819D02*
X78366667Y-103912200D01*
X78366667Y-103912200D02*
X78319048Y-103864580D01*
X78319048Y-103864580D02*
X78271429Y-103769342D01*
X78271429Y-103769342D02*
X78271429Y-103483628D01*
X78271429Y-103483628D02*
X78319048Y-103388390D01*
X78319048Y-103388390D02*
X78366667Y-103340771D01*
X78366667Y-103340771D02*
X78461905Y-103293152D01*
X78461905Y-103293152D02*
X78652381Y-103293152D01*
X78652381Y-103293152D02*
X78747619Y-103340771D01*
X79176191Y-103959819D02*
X79176191Y-102959819D01*
X79604762Y-103959819D02*
X79604762Y-103436009D01*
X79604762Y-103436009D02*
X79557143Y-103340771D01*
X79557143Y-103340771D02*
X79461905Y-103293152D01*
X79461905Y-103293152D02*
X79319048Y-103293152D01*
X79319048Y-103293152D02*
X79223810Y-103340771D01*
X79223810Y-103340771D02*
X79176191Y-103388390D01*
X74961905Y-95657200D02*
X75104762Y-95704819D01*
X75104762Y-95704819D02*
X75342857Y-95704819D01*
X75342857Y-95704819D02*
X75438095Y-95657200D01*
X75438095Y-95657200D02*
X75485714Y-95609580D01*
X75485714Y-95609580D02*
X75533333Y-95514342D01*
X75533333Y-95514342D02*
X75533333Y-95419104D01*
X75533333Y-95419104D02*
X75485714Y-95323866D01*
X75485714Y-95323866D02*
X75438095Y-95276247D01*
X75438095Y-95276247D02*
X75342857Y-95228628D01*
X75342857Y-95228628D02*
X75152381Y-95181009D01*
X75152381Y-95181009D02*
X75057143Y-95133390D01*
X75057143Y-95133390D02*
X75009524Y-95085771D01*
X75009524Y-95085771D02*
X74961905Y-94990533D01*
X74961905Y-94990533D02*
X74961905Y-94895295D01*
X74961905Y-94895295D02*
X75009524Y-94800057D01*
X75009524Y-94800057D02*
X75057143Y-94752438D01*
X75057143Y-94752438D02*
X75152381Y-94704819D01*
X75152381Y-94704819D02*
X75390476Y-94704819D01*
X75390476Y-94704819D02*
X75533333Y-94752438D01*
X76485714Y-95704819D02*
X75914286Y-95704819D01*
X76200000Y-95704819D02*
X76200000Y-94704819D01*
X76200000Y-94704819D02*
X76104762Y-94847676D01*
X76104762Y-94847676D02*
X76009524Y-94942914D01*
X76009524Y-94942914D02*
X75914286Y-94990533D01*
X77342857Y-95038152D02*
X77342857Y-95704819D01*
X77104762Y-94657200D02*
X76866667Y-95371485D01*
X76866667Y-95371485D02*
X77485714Y-95371485D01*
X38505952Y-51279819D02*
X38505952Y-50279819D01*
X38505952Y-50279819D02*
X38839285Y-50994104D01*
X38839285Y-50994104D02*
X39172618Y-50279819D01*
X39172618Y-50279819D02*
X39172618Y-51279819D01*
X39791666Y-51279819D02*
X39696428Y-51232200D01*
X39696428Y-51232200D02*
X39648809Y-51184580D01*
X39648809Y-51184580D02*
X39601190Y-51089342D01*
X39601190Y-51089342D02*
X39601190Y-50803628D01*
X39601190Y-50803628D02*
X39648809Y-50708390D01*
X39648809Y-50708390D02*
X39696428Y-50660771D01*
X39696428Y-50660771D02*
X39791666Y-50613152D01*
X39791666Y-50613152D02*
X39934523Y-50613152D01*
X39934523Y-50613152D02*
X40029761Y-50660771D01*
X40029761Y-50660771D02*
X40077380Y-50708390D01*
X40077380Y-50708390D02*
X40124999Y-50803628D01*
X40124999Y-50803628D02*
X40124999Y-51089342D01*
X40124999Y-51089342D02*
X40077380Y-51184580D01*
X40077380Y-51184580D02*
X40029761Y-51232200D01*
X40029761Y-51232200D02*
X39934523Y-51279819D01*
X39934523Y-51279819D02*
X39791666Y-51279819D01*
X40982142Y-50613152D02*
X40982142Y-51279819D01*
X40553571Y-50613152D02*
X40553571Y-51136961D01*
X40553571Y-51136961D02*
X40601190Y-51232200D01*
X40601190Y-51232200D02*
X40696428Y-51279819D01*
X40696428Y-51279819D02*
X40839285Y-51279819D01*
X40839285Y-51279819D02*
X40934523Y-51232200D01*
X40934523Y-51232200D02*
X40982142Y-51184580D01*
X41458333Y-50613152D02*
X41458333Y-51279819D01*
X41458333Y-50708390D02*
X41505952Y-50660771D01*
X41505952Y-50660771D02*
X41601190Y-50613152D01*
X41601190Y-50613152D02*
X41744047Y-50613152D01*
X41744047Y-50613152D02*
X41839285Y-50660771D01*
X41839285Y-50660771D02*
X41886904Y-50756009D01*
X41886904Y-50756009D02*
X41886904Y-51279819D01*
X42220238Y-50613152D02*
X42601190Y-50613152D01*
X42363095Y-50279819D02*
X42363095Y-51136961D01*
X42363095Y-51136961D02*
X42410714Y-51232200D01*
X42410714Y-51232200D02*
X42505952Y-51279819D01*
X42505952Y-51279819D02*
X42601190Y-51279819D01*
X42934524Y-51279819D02*
X42934524Y-50613152D01*
X42934524Y-50279819D02*
X42886905Y-50327438D01*
X42886905Y-50327438D02*
X42934524Y-50375057D01*
X42934524Y-50375057D02*
X42982143Y-50327438D01*
X42982143Y-50327438D02*
X42934524Y-50279819D01*
X42934524Y-50279819D02*
X42934524Y-50375057D01*
X43410714Y-50613152D02*
X43410714Y-51279819D01*
X43410714Y-50708390D02*
X43458333Y-50660771D01*
X43458333Y-50660771D02*
X43553571Y-50613152D01*
X43553571Y-50613152D02*
X43696428Y-50613152D01*
X43696428Y-50613152D02*
X43791666Y-50660771D01*
X43791666Y-50660771D02*
X43839285Y-50756009D01*
X43839285Y-50756009D02*
X43839285Y-51279819D01*
X44744047Y-50613152D02*
X44744047Y-51422676D01*
X44744047Y-51422676D02*
X44696428Y-51517914D01*
X44696428Y-51517914D02*
X44648809Y-51565533D01*
X44648809Y-51565533D02*
X44553571Y-51613152D01*
X44553571Y-51613152D02*
X44410714Y-51613152D01*
X44410714Y-51613152D02*
X44315476Y-51565533D01*
X44744047Y-51232200D02*
X44648809Y-51279819D01*
X44648809Y-51279819D02*
X44458333Y-51279819D01*
X44458333Y-51279819D02*
X44363095Y-51232200D01*
X44363095Y-51232200D02*
X44315476Y-51184580D01*
X44315476Y-51184580D02*
X44267857Y-51089342D01*
X44267857Y-51089342D02*
X44267857Y-50803628D01*
X44267857Y-50803628D02*
X44315476Y-50708390D01*
X44315476Y-50708390D02*
X44363095Y-50660771D01*
X44363095Y-50660771D02*
X44458333Y-50613152D01*
X44458333Y-50613152D02*
X44648809Y-50613152D01*
X44648809Y-50613152D02*
X44744047Y-50660771D01*
X45220238Y-51279819D02*
X45220238Y-50279819D01*
X45220238Y-50756009D02*
X45791666Y-50756009D01*
X45791666Y-51279819D02*
X45791666Y-50279819D01*
X46410714Y-51279819D02*
X46315476Y-51232200D01*
X46315476Y-51232200D02*
X46267857Y-51184580D01*
X46267857Y-51184580D02*
X46220238Y-51089342D01*
X46220238Y-51089342D02*
X46220238Y-50803628D01*
X46220238Y-50803628D02*
X46267857Y-50708390D01*
X46267857Y-50708390D02*
X46315476Y-50660771D01*
X46315476Y-50660771D02*
X46410714Y-50613152D01*
X46410714Y-50613152D02*
X46553571Y-50613152D01*
X46553571Y-50613152D02*
X46648809Y-50660771D01*
X46648809Y-50660771D02*
X46696428Y-50708390D01*
X46696428Y-50708390D02*
X46744047Y-50803628D01*
X46744047Y-50803628D02*
X46744047Y-51089342D01*
X46744047Y-51089342D02*
X46696428Y-51184580D01*
X46696428Y-51184580D02*
X46648809Y-51232200D01*
X46648809Y-51232200D02*
X46553571Y-51279819D01*
X46553571Y-51279819D02*
X46410714Y-51279819D01*
X47315476Y-51279819D02*
X47220238Y-51232200D01*
X47220238Y-51232200D02*
X47172619Y-51136961D01*
X47172619Y-51136961D02*
X47172619Y-50279819D01*
X48077381Y-51232200D02*
X47982143Y-51279819D01*
X47982143Y-51279819D02*
X47791667Y-51279819D01*
X47791667Y-51279819D02*
X47696429Y-51232200D01*
X47696429Y-51232200D02*
X47648810Y-51136961D01*
X47648810Y-51136961D02*
X47648810Y-50756009D01*
X47648810Y-50756009D02*
X47696429Y-50660771D01*
X47696429Y-50660771D02*
X47791667Y-50613152D01*
X47791667Y-50613152D02*
X47982143Y-50613152D01*
X47982143Y-50613152D02*
X48077381Y-50660771D01*
X48077381Y-50660771D02*
X48125000Y-50756009D01*
X48125000Y-50756009D02*
X48125000Y-50851247D01*
X48125000Y-50851247D02*
X47648810Y-50946485D01*
X48315477Y-51375057D02*
X49077381Y-51375057D01*
X49267858Y-50375057D02*
X49315477Y-50327438D01*
X49315477Y-50327438D02*
X49410715Y-50279819D01*
X49410715Y-50279819D02*
X49648810Y-50279819D01*
X49648810Y-50279819D02*
X49744048Y-50327438D01*
X49744048Y-50327438D02*
X49791667Y-50375057D01*
X49791667Y-50375057D02*
X49839286Y-50470295D01*
X49839286Y-50470295D02*
X49839286Y-50565533D01*
X49839286Y-50565533D02*
X49791667Y-50708390D01*
X49791667Y-50708390D02*
X49220239Y-51279819D01*
X49220239Y-51279819D02*
X49839286Y-51279819D01*
X50267858Y-51184580D02*
X50315477Y-51232200D01*
X50315477Y-51232200D02*
X50267858Y-51279819D01*
X50267858Y-51279819D02*
X50220239Y-51232200D01*
X50220239Y-51232200D02*
X50267858Y-51184580D01*
X50267858Y-51184580D02*
X50267858Y-51279819D01*
X50696429Y-50375057D02*
X50744048Y-50327438D01*
X50744048Y-50327438D02*
X50839286Y-50279819D01*
X50839286Y-50279819D02*
X51077381Y-50279819D01*
X51077381Y-50279819D02*
X51172619Y-50327438D01*
X51172619Y-50327438D02*
X51220238Y-50375057D01*
X51220238Y-50375057D02*
X51267857Y-50470295D01*
X51267857Y-50470295D02*
X51267857Y-50565533D01*
X51267857Y-50565533D02*
X51220238Y-50708390D01*
X51220238Y-50708390D02*
X50648810Y-51279819D01*
X50648810Y-51279819D02*
X51267857Y-51279819D01*
X51696429Y-51279819D02*
X51696429Y-50613152D01*
X51696429Y-50708390D02*
X51744048Y-50660771D01*
X51744048Y-50660771D02*
X51839286Y-50613152D01*
X51839286Y-50613152D02*
X51982143Y-50613152D01*
X51982143Y-50613152D02*
X52077381Y-50660771D01*
X52077381Y-50660771D02*
X52125000Y-50756009D01*
X52125000Y-50756009D02*
X52125000Y-51279819D01*
X52125000Y-50756009D02*
X52172619Y-50660771D01*
X52172619Y-50660771D02*
X52267857Y-50613152D01*
X52267857Y-50613152D02*
X52410714Y-50613152D01*
X52410714Y-50613152D02*
X52505953Y-50660771D01*
X52505953Y-50660771D02*
X52553572Y-50756009D01*
X52553572Y-50756009D02*
X52553572Y-51279819D01*
X53029762Y-51279819D02*
X53029762Y-50613152D01*
X53029762Y-50708390D02*
X53077381Y-50660771D01*
X53077381Y-50660771D02*
X53172619Y-50613152D01*
X53172619Y-50613152D02*
X53315476Y-50613152D01*
X53315476Y-50613152D02*
X53410714Y-50660771D01*
X53410714Y-50660771D02*
X53458333Y-50756009D01*
X53458333Y-50756009D02*
X53458333Y-51279819D01*
X53458333Y-50756009D02*
X53505952Y-50660771D01*
X53505952Y-50660771D02*
X53601190Y-50613152D01*
X53601190Y-50613152D02*
X53744047Y-50613152D01*
X53744047Y-50613152D02*
X53839286Y-50660771D01*
X53839286Y-50660771D02*
X53886905Y-50756009D01*
X53886905Y-50756009D02*
X53886905Y-51279819D01*
X54125000Y-51375057D02*
X54886904Y-51375057D01*
X55125000Y-51279819D02*
X55125000Y-50279819D01*
X55125000Y-50279819D02*
X55458333Y-50994104D01*
X55458333Y-50994104D02*
X55791666Y-50279819D01*
X55791666Y-50279819D02*
X55791666Y-51279819D01*
X56220238Y-50375057D02*
X56267857Y-50327438D01*
X56267857Y-50327438D02*
X56363095Y-50279819D01*
X56363095Y-50279819D02*
X56601190Y-50279819D01*
X56601190Y-50279819D02*
X56696428Y-50327438D01*
X56696428Y-50327438D02*
X56744047Y-50375057D01*
X56744047Y-50375057D02*
X56791666Y-50470295D01*
X56791666Y-50470295D02*
X56791666Y-50565533D01*
X56791666Y-50565533D02*
X56744047Y-50708390D01*
X56744047Y-50708390D02*
X56172619Y-51279819D01*
X56172619Y-51279819D02*
X56791666Y-51279819D01*
X46291666Y-48079819D02*
X45958333Y-47603628D01*
X45720238Y-48079819D02*
X45720238Y-47079819D01*
X45720238Y-47079819D02*
X46101190Y-47079819D01*
X46101190Y-47079819D02*
X46196428Y-47127438D01*
X46196428Y-47127438D02*
X46244047Y-47175057D01*
X46244047Y-47175057D02*
X46291666Y-47270295D01*
X46291666Y-47270295D02*
X46291666Y-47413152D01*
X46291666Y-47413152D02*
X46244047Y-47508390D01*
X46244047Y-47508390D02*
X46196428Y-47556009D01*
X46196428Y-47556009D02*
X46101190Y-47603628D01*
X46101190Y-47603628D02*
X45720238Y-47603628D01*
X46720238Y-47556009D02*
X47053571Y-47556009D01*
X47196428Y-48079819D02*
X46720238Y-48079819D01*
X46720238Y-48079819D02*
X46720238Y-47079819D01*
X46720238Y-47079819D02*
X47196428Y-47079819D01*
X47958333Y-47556009D02*
X47625000Y-47556009D01*
X47625000Y-48079819D02*
X47625000Y-47079819D01*
X47625000Y-47079819D02*
X48101190Y-47079819D01*
X48625000Y-47079819D02*
X48625000Y-47317914D01*
X48386905Y-47222676D02*
X48625000Y-47317914D01*
X48625000Y-47317914D02*
X48863095Y-47222676D01*
X48482143Y-47508390D02*
X48625000Y-47317914D01*
X48625000Y-47317914D02*
X48767857Y-47508390D01*
X49386905Y-47079819D02*
X49386905Y-47317914D01*
X49148810Y-47222676D02*
X49386905Y-47317914D01*
X49386905Y-47317914D02*
X49625000Y-47222676D01*
X49244048Y-47508390D02*
X49386905Y-47317914D01*
X49386905Y-47317914D02*
X49529762Y-47508390D01*
X95655952Y-85807944D02*
X95655952Y-84807944D01*
X95655952Y-84807944D02*
X95989285Y-85522229D01*
X95989285Y-85522229D02*
X96322618Y-84807944D01*
X96322618Y-84807944D02*
X96322618Y-85807944D01*
X96941666Y-85807944D02*
X96846428Y-85760325D01*
X96846428Y-85760325D02*
X96798809Y-85712705D01*
X96798809Y-85712705D02*
X96751190Y-85617467D01*
X96751190Y-85617467D02*
X96751190Y-85331753D01*
X96751190Y-85331753D02*
X96798809Y-85236515D01*
X96798809Y-85236515D02*
X96846428Y-85188896D01*
X96846428Y-85188896D02*
X96941666Y-85141277D01*
X96941666Y-85141277D02*
X97084523Y-85141277D01*
X97084523Y-85141277D02*
X97179761Y-85188896D01*
X97179761Y-85188896D02*
X97227380Y-85236515D01*
X97227380Y-85236515D02*
X97274999Y-85331753D01*
X97274999Y-85331753D02*
X97274999Y-85617467D01*
X97274999Y-85617467D02*
X97227380Y-85712705D01*
X97227380Y-85712705D02*
X97179761Y-85760325D01*
X97179761Y-85760325D02*
X97084523Y-85807944D01*
X97084523Y-85807944D02*
X96941666Y-85807944D01*
X98132142Y-85141277D02*
X98132142Y-85807944D01*
X97703571Y-85141277D02*
X97703571Y-85665086D01*
X97703571Y-85665086D02*
X97751190Y-85760325D01*
X97751190Y-85760325D02*
X97846428Y-85807944D01*
X97846428Y-85807944D02*
X97989285Y-85807944D01*
X97989285Y-85807944D02*
X98084523Y-85760325D01*
X98084523Y-85760325D02*
X98132142Y-85712705D01*
X98608333Y-85141277D02*
X98608333Y-85807944D01*
X98608333Y-85236515D02*
X98655952Y-85188896D01*
X98655952Y-85188896D02*
X98751190Y-85141277D01*
X98751190Y-85141277D02*
X98894047Y-85141277D01*
X98894047Y-85141277D02*
X98989285Y-85188896D01*
X98989285Y-85188896D02*
X99036904Y-85284134D01*
X99036904Y-85284134D02*
X99036904Y-85807944D01*
X99370238Y-85141277D02*
X99751190Y-85141277D01*
X99513095Y-84807944D02*
X99513095Y-85665086D01*
X99513095Y-85665086D02*
X99560714Y-85760325D01*
X99560714Y-85760325D02*
X99655952Y-85807944D01*
X99655952Y-85807944D02*
X99751190Y-85807944D01*
X100084524Y-85807944D02*
X100084524Y-85141277D01*
X100084524Y-84807944D02*
X100036905Y-84855563D01*
X100036905Y-84855563D02*
X100084524Y-84903182D01*
X100084524Y-84903182D02*
X100132143Y-84855563D01*
X100132143Y-84855563D02*
X100084524Y-84807944D01*
X100084524Y-84807944D02*
X100084524Y-84903182D01*
X100560714Y-85141277D02*
X100560714Y-85807944D01*
X100560714Y-85236515D02*
X100608333Y-85188896D01*
X100608333Y-85188896D02*
X100703571Y-85141277D01*
X100703571Y-85141277D02*
X100846428Y-85141277D01*
X100846428Y-85141277D02*
X100941666Y-85188896D01*
X100941666Y-85188896D02*
X100989285Y-85284134D01*
X100989285Y-85284134D02*
X100989285Y-85807944D01*
X101894047Y-85141277D02*
X101894047Y-85950801D01*
X101894047Y-85950801D02*
X101846428Y-86046039D01*
X101846428Y-86046039D02*
X101798809Y-86093658D01*
X101798809Y-86093658D02*
X101703571Y-86141277D01*
X101703571Y-86141277D02*
X101560714Y-86141277D01*
X101560714Y-86141277D02*
X101465476Y-86093658D01*
X101894047Y-85760325D02*
X101798809Y-85807944D01*
X101798809Y-85807944D02*
X101608333Y-85807944D01*
X101608333Y-85807944D02*
X101513095Y-85760325D01*
X101513095Y-85760325D02*
X101465476Y-85712705D01*
X101465476Y-85712705D02*
X101417857Y-85617467D01*
X101417857Y-85617467D02*
X101417857Y-85331753D01*
X101417857Y-85331753D02*
X101465476Y-85236515D01*
X101465476Y-85236515D02*
X101513095Y-85188896D01*
X101513095Y-85188896D02*
X101608333Y-85141277D01*
X101608333Y-85141277D02*
X101798809Y-85141277D01*
X101798809Y-85141277D02*
X101894047Y-85188896D01*
X102370238Y-85807944D02*
X102370238Y-84807944D01*
X102370238Y-85284134D02*
X102941666Y-85284134D01*
X102941666Y-85807944D02*
X102941666Y-84807944D01*
X103560714Y-85807944D02*
X103465476Y-85760325D01*
X103465476Y-85760325D02*
X103417857Y-85712705D01*
X103417857Y-85712705D02*
X103370238Y-85617467D01*
X103370238Y-85617467D02*
X103370238Y-85331753D01*
X103370238Y-85331753D02*
X103417857Y-85236515D01*
X103417857Y-85236515D02*
X103465476Y-85188896D01*
X103465476Y-85188896D02*
X103560714Y-85141277D01*
X103560714Y-85141277D02*
X103703571Y-85141277D01*
X103703571Y-85141277D02*
X103798809Y-85188896D01*
X103798809Y-85188896D02*
X103846428Y-85236515D01*
X103846428Y-85236515D02*
X103894047Y-85331753D01*
X103894047Y-85331753D02*
X103894047Y-85617467D01*
X103894047Y-85617467D02*
X103846428Y-85712705D01*
X103846428Y-85712705D02*
X103798809Y-85760325D01*
X103798809Y-85760325D02*
X103703571Y-85807944D01*
X103703571Y-85807944D02*
X103560714Y-85807944D01*
X104465476Y-85807944D02*
X104370238Y-85760325D01*
X104370238Y-85760325D02*
X104322619Y-85665086D01*
X104322619Y-85665086D02*
X104322619Y-84807944D01*
X105227381Y-85760325D02*
X105132143Y-85807944D01*
X105132143Y-85807944D02*
X104941667Y-85807944D01*
X104941667Y-85807944D02*
X104846429Y-85760325D01*
X104846429Y-85760325D02*
X104798810Y-85665086D01*
X104798810Y-85665086D02*
X104798810Y-85284134D01*
X104798810Y-85284134D02*
X104846429Y-85188896D01*
X104846429Y-85188896D02*
X104941667Y-85141277D01*
X104941667Y-85141277D02*
X105132143Y-85141277D01*
X105132143Y-85141277D02*
X105227381Y-85188896D01*
X105227381Y-85188896D02*
X105275000Y-85284134D01*
X105275000Y-85284134D02*
X105275000Y-85379372D01*
X105275000Y-85379372D02*
X104798810Y-85474610D01*
X105465477Y-85903182D02*
X106227381Y-85903182D01*
X106417858Y-84903182D02*
X106465477Y-84855563D01*
X106465477Y-84855563D02*
X106560715Y-84807944D01*
X106560715Y-84807944D02*
X106798810Y-84807944D01*
X106798810Y-84807944D02*
X106894048Y-84855563D01*
X106894048Y-84855563D02*
X106941667Y-84903182D01*
X106941667Y-84903182D02*
X106989286Y-84998420D01*
X106989286Y-84998420D02*
X106989286Y-85093658D01*
X106989286Y-85093658D02*
X106941667Y-85236515D01*
X106941667Y-85236515D02*
X106370239Y-85807944D01*
X106370239Y-85807944D02*
X106989286Y-85807944D01*
X107417858Y-85712705D02*
X107465477Y-85760325D01*
X107465477Y-85760325D02*
X107417858Y-85807944D01*
X107417858Y-85807944D02*
X107370239Y-85760325D01*
X107370239Y-85760325D02*
X107417858Y-85712705D01*
X107417858Y-85712705D02*
X107417858Y-85807944D01*
X107846429Y-84903182D02*
X107894048Y-84855563D01*
X107894048Y-84855563D02*
X107989286Y-84807944D01*
X107989286Y-84807944D02*
X108227381Y-84807944D01*
X108227381Y-84807944D02*
X108322619Y-84855563D01*
X108322619Y-84855563D02*
X108370238Y-84903182D01*
X108370238Y-84903182D02*
X108417857Y-84998420D01*
X108417857Y-84998420D02*
X108417857Y-85093658D01*
X108417857Y-85093658D02*
X108370238Y-85236515D01*
X108370238Y-85236515D02*
X107798810Y-85807944D01*
X107798810Y-85807944D02*
X108417857Y-85807944D01*
X108846429Y-85807944D02*
X108846429Y-85141277D01*
X108846429Y-85236515D02*
X108894048Y-85188896D01*
X108894048Y-85188896D02*
X108989286Y-85141277D01*
X108989286Y-85141277D02*
X109132143Y-85141277D01*
X109132143Y-85141277D02*
X109227381Y-85188896D01*
X109227381Y-85188896D02*
X109275000Y-85284134D01*
X109275000Y-85284134D02*
X109275000Y-85807944D01*
X109275000Y-85284134D02*
X109322619Y-85188896D01*
X109322619Y-85188896D02*
X109417857Y-85141277D01*
X109417857Y-85141277D02*
X109560714Y-85141277D01*
X109560714Y-85141277D02*
X109655953Y-85188896D01*
X109655953Y-85188896D02*
X109703572Y-85284134D01*
X109703572Y-85284134D02*
X109703572Y-85807944D01*
X110179762Y-85807944D02*
X110179762Y-85141277D01*
X110179762Y-85236515D02*
X110227381Y-85188896D01*
X110227381Y-85188896D02*
X110322619Y-85141277D01*
X110322619Y-85141277D02*
X110465476Y-85141277D01*
X110465476Y-85141277D02*
X110560714Y-85188896D01*
X110560714Y-85188896D02*
X110608333Y-85284134D01*
X110608333Y-85284134D02*
X110608333Y-85807944D01*
X110608333Y-85284134D02*
X110655952Y-85188896D01*
X110655952Y-85188896D02*
X110751190Y-85141277D01*
X110751190Y-85141277D02*
X110894047Y-85141277D01*
X110894047Y-85141277D02*
X110989286Y-85188896D01*
X110989286Y-85188896D02*
X111036905Y-85284134D01*
X111036905Y-85284134D02*
X111036905Y-85807944D01*
X111275000Y-85903182D02*
X112036904Y-85903182D01*
X112275000Y-85807944D02*
X112275000Y-84807944D01*
X112275000Y-84807944D02*
X112608333Y-85522229D01*
X112608333Y-85522229D02*
X112941666Y-84807944D01*
X112941666Y-84807944D02*
X112941666Y-85807944D01*
X113370238Y-84903182D02*
X113417857Y-84855563D01*
X113417857Y-84855563D02*
X113513095Y-84807944D01*
X113513095Y-84807944D02*
X113751190Y-84807944D01*
X113751190Y-84807944D02*
X113846428Y-84855563D01*
X113846428Y-84855563D02*
X113894047Y-84903182D01*
X113894047Y-84903182D02*
X113941666Y-84998420D01*
X113941666Y-84998420D02*
X113941666Y-85093658D01*
X113941666Y-85093658D02*
X113894047Y-85236515D01*
X113894047Y-85236515D02*
X113322619Y-85807944D01*
X113322619Y-85807944D02*
X113941666Y-85807944D01*
X103441666Y-82607944D02*
X103108333Y-82131753D01*
X102870238Y-82607944D02*
X102870238Y-81607944D01*
X102870238Y-81607944D02*
X103251190Y-81607944D01*
X103251190Y-81607944D02*
X103346428Y-81655563D01*
X103346428Y-81655563D02*
X103394047Y-81703182D01*
X103394047Y-81703182D02*
X103441666Y-81798420D01*
X103441666Y-81798420D02*
X103441666Y-81941277D01*
X103441666Y-81941277D02*
X103394047Y-82036515D01*
X103394047Y-82036515D02*
X103346428Y-82084134D01*
X103346428Y-82084134D02*
X103251190Y-82131753D01*
X103251190Y-82131753D02*
X102870238Y-82131753D01*
X103870238Y-82084134D02*
X104203571Y-82084134D01*
X104346428Y-82607944D02*
X103870238Y-82607944D01*
X103870238Y-82607944D02*
X103870238Y-81607944D01*
X103870238Y-81607944D02*
X104346428Y-81607944D01*
X105108333Y-82084134D02*
X104775000Y-82084134D01*
X104775000Y-82607944D02*
X104775000Y-81607944D01*
X104775000Y-81607944D02*
X105251190Y-81607944D01*
X105775000Y-81607944D02*
X105775000Y-81846039D01*
X105536905Y-81750801D02*
X105775000Y-81846039D01*
X105775000Y-81846039D02*
X106013095Y-81750801D01*
X105632143Y-82036515D02*
X105775000Y-81846039D01*
X105775000Y-81846039D02*
X105917857Y-82036515D01*
X106536905Y-81607944D02*
X106536905Y-81846039D01*
X106298810Y-81750801D02*
X106536905Y-81846039D01*
X106536905Y-81846039D02*
X106775000Y-81750801D01*
X106394048Y-82036515D02*
X106536905Y-81846039D01*
X106536905Y-81846039D02*
X106679762Y-82036515D01*
X72795238Y-84909819D02*
X72795238Y-83909819D01*
X73366666Y-84909819D02*
X72938095Y-84338390D01*
X73366666Y-83909819D02*
X72795238Y-84481247D01*
X74176190Y-84862200D02*
X74080952Y-84909819D01*
X74080952Y-84909819D02*
X73890476Y-84909819D01*
X73890476Y-84909819D02*
X73795238Y-84862200D01*
X73795238Y-84862200D02*
X73747619Y-84766961D01*
X73747619Y-84766961D02*
X73747619Y-84386009D01*
X73747619Y-84386009D02*
X73795238Y-84290771D01*
X73795238Y-84290771D02*
X73890476Y-84243152D01*
X73890476Y-84243152D02*
X74080952Y-84243152D01*
X74080952Y-84243152D02*
X74176190Y-84290771D01*
X74176190Y-84290771D02*
X74223809Y-84386009D01*
X74223809Y-84386009D02*
X74223809Y-84481247D01*
X74223809Y-84481247D02*
X73747619Y-84576485D01*
X74557143Y-84243152D02*
X74795238Y-84909819D01*
X75033333Y-84243152D02*
X74795238Y-84909819D01*
X74795238Y-84909819D02*
X74700000Y-85147914D01*
X74700000Y-85147914D02*
X74652381Y-85195533D01*
X74652381Y-85195533D02*
X74557143Y-85243152D01*
X75366667Y-84862200D02*
X75461905Y-84909819D01*
X75461905Y-84909819D02*
X75652381Y-84909819D01*
X75652381Y-84909819D02*
X75747619Y-84862200D01*
X75747619Y-84862200D02*
X75795238Y-84766961D01*
X75795238Y-84766961D02*
X75795238Y-84719342D01*
X75795238Y-84719342D02*
X75747619Y-84624104D01*
X75747619Y-84624104D02*
X75652381Y-84576485D01*
X75652381Y-84576485D02*
X75509524Y-84576485D01*
X75509524Y-84576485D02*
X75414286Y-84528866D01*
X75414286Y-84528866D02*
X75366667Y-84433628D01*
X75366667Y-84433628D02*
X75366667Y-84386009D01*
X75366667Y-84386009D02*
X75414286Y-84290771D01*
X75414286Y-84290771D02*
X75509524Y-84243152D01*
X75509524Y-84243152D02*
X75652381Y-84243152D01*
X75652381Y-84243152D02*
X75747619Y-84290771D01*
X76128572Y-84243152D02*
X76319048Y-84909819D01*
X76319048Y-84909819D02*
X76509524Y-84433628D01*
X76509524Y-84433628D02*
X76700000Y-84909819D01*
X76700000Y-84909819D02*
X76890476Y-84243152D01*
X77271429Y-84909819D02*
X77271429Y-84243152D01*
X77271429Y-83909819D02*
X77223810Y-83957438D01*
X77223810Y-83957438D02*
X77271429Y-84005057D01*
X77271429Y-84005057D02*
X77319048Y-83957438D01*
X77319048Y-83957438D02*
X77271429Y-83909819D01*
X77271429Y-83909819D02*
X77271429Y-84005057D01*
X77604762Y-84243152D02*
X77985714Y-84243152D01*
X77747619Y-83909819D02*
X77747619Y-84766961D01*
X77747619Y-84766961D02*
X77795238Y-84862200D01*
X77795238Y-84862200D02*
X77890476Y-84909819D01*
X77890476Y-84909819D02*
X77985714Y-84909819D01*
X78747619Y-84862200D02*
X78652381Y-84909819D01*
X78652381Y-84909819D02*
X78461905Y-84909819D01*
X78461905Y-84909819D02*
X78366667Y-84862200D01*
X78366667Y-84862200D02*
X78319048Y-84814580D01*
X78319048Y-84814580D02*
X78271429Y-84719342D01*
X78271429Y-84719342D02*
X78271429Y-84433628D01*
X78271429Y-84433628D02*
X78319048Y-84338390D01*
X78319048Y-84338390D02*
X78366667Y-84290771D01*
X78366667Y-84290771D02*
X78461905Y-84243152D01*
X78461905Y-84243152D02*
X78652381Y-84243152D01*
X78652381Y-84243152D02*
X78747619Y-84290771D01*
X79176191Y-84909819D02*
X79176191Y-83909819D01*
X79604762Y-84909819D02*
X79604762Y-84386009D01*
X79604762Y-84386009D02*
X79557143Y-84290771D01*
X79557143Y-84290771D02*
X79461905Y-84243152D01*
X79461905Y-84243152D02*
X79319048Y-84243152D01*
X79319048Y-84243152D02*
X79223810Y-84290771D01*
X79223810Y-84290771D02*
X79176191Y-84338390D01*
X75438095Y-76607200D02*
X75580952Y-76654819D01*
X75580952Y-76654819D02*
X75819047Y-76654819D01*
X75819047Y-76654819D02*
X75914285Y-76607200D01*
X75914285Y-76607200D02*
X75961904Y-76559580D01*
X75961904Y-76559580D02*
X76009523Y-76464342D01*
X76009523Y-76464342D02*
X76009523Y-76369104D01*
X76009523Y-76369104D02*
X75961904Y-76273866D01*
X75961904Y-76273866D02*
X75914285Y-76226247D01*
X75914285Y-76226247D02*
X75819047Y-76178628D01*
X75819047Y-76178628D02*
X75628571Y-76131009D01*
X75628571Y-76131009D02*
X75533333Y-76083390D01*
X75533333Y-76083390D02*
X75485714Y-76035771D01*
X75485714Y-76035771D02*
X75438095Y-75940533D01*
X75438095Y-75940533D02*
X75438095Y-75845295D01*
X75438095Y-75845295D02*
X75485714Y-75750057D01*
X75485714Y-75750057D02*
X75533333Y-75702438D01*
X75533333Y-75702438D02*
X75628571Y-75654819D01*
X75628571Y-75654819D02*
X75866666Y-75654819D01*
X75866666Y-75654819D02*
X76009523Y-75702438D01*
X76580952Y-76083390D02*
X76485714Y-76035771D01*
X76485714Y-76035771D02*
X76438095Y-75988152D01*
X76438095Y-75988152D02*
X76390476Y-75892914D01*
X76390476Y-75892914D02*
X76390476Y-75845295D01*
X76390476Y-75845295D02*
X76438095Y-75750057D01*
X76438095Y-75750057D02*
X76485714Y-75702438D01*
X76485714Y-75702438D02*
X76580952Y-75654819D01*
X76580952Y-75654819D02*
X76771428Y-75654819D01*
X76771428Y-75654819D02*
X76866666Y-75702438D01*
X76866666Y-75702438D02*
X76914285Y-75750057D01*
X76914285Y-75750057D02*
X76961904Y-75845295D01*
X76961904Y-75845295D02*
X76961904Y-75892914D01*
X76961904Y-75892914D02*
X76914285Y-75988152D01*
X76914285Y-75988152D02*
X76866666Y-76035771D01*
X76866666Y-76035771D02*
X76771428Y-76083390D01*
X76771428Y-76083390D02*
X76580952Y-76083390D01*
X76580952Y-76083390D02*
X76485714Y-76131009D01*
X76485714Y-76131009D02*
X76438095Y-76178628D01*
X76438095Y-76178628D02*
X76390476Y-76273866D01*
X76390476Y-76273866D02*
X76390476Y-76464342D01*
X76390476Y-76464342D02*
X76438095Y-76559580D01*
X76438095Y-76559580D02*
X76485714Y-76607200D01*
X76485714Y-76607200D02*
X76580952Y-76654819D01*
X76580952Y-76654819D02*
X76771428Y-76654819D01*
X76771428Y-76654819D02*
X76866666Y-76607200D01*
X76866666Y-76607200D02*
X76914285Y-76559580D01*
X76914285Y-76559580D02*
X76961904Y-76464342D01*
X76961904Y-76464342D02*
X76961904Y-76273866D01*
X76961904Y-76273866D02*
X76914285Y-76178628D01*
X76914285Y-76178628D02*
X76866666Y-76131009D01*
X76866666Y-76131009D02*
X76771428Y-76083390D01*
X72795238Y-65859819D02*
X72795238Y-64859819D01*
X73366666Y-65859819D02*
X72938095Y-65288390D01*
X73366666Y-64859819D02*
X72795238Y-65431247D01*
X74176190Y-65812200D02*
X74080952Y-65859819D01*
X74080952Y-65859819D02*
X73890476Y-65859819D01*
X73890476Y-65859819D02*
X73795238Y-65812200D01*
X73795238Y-65812200D02*
X73747619Y-65716961D01*
X73747619Y-65716961D02*
X73747619Y-65336009D01*
X73747619Y-65336009D02*
X73795238Y-65240771D01*
X73795238Y-65240771D02*
X73890476Y-65193152D01*
X73890476Y-65193152D02*
X74080952Y-65193152D01*
X74080952Y-65193152D02*
X74176190Y-65240771D01*
X74176190Y-65240771D02*
X74223809Y-65336009D01*
X74223809Y-65336009D02*
X74223809Y-65431247D01*
X74223809Y-65431247D02*
X73747619Y-65526485D01*
X74557143Y-65193152D02*
X74795238Y-65859819D01*
X75033333Y-65193152D02*
X74795238Y-65859819D01*
X74795238Y-65859819D02*
X74700000Y-66097914D01*
X74700000Y-66097914D02*
X74652381Y-66145533D01*
X74652381Y-66145533D02*
X74557143Y-66193152D01*
X75366667Y-65812200D02*
X75461905Y-65859819D01*
X75461905Y-65859819D02*
X75652381Y-65859819D01*
X75652381Y-65859819D02*
X75747619Y-65812200D01*
X75747619Y-65812200D02*
X75795238Y-65716961D01*
X75795238Y-65716961D02*
X75795238Y-65669342D01*
X75795238Y-65669342D02*
X75747619Y-65574104D01*
X75747619Y-65574104D02*
X75652381Y-65526485D01*
X75652381Y-65526485D02*
X75509524Y-65526485D01*
X75509524Y-65526485D02*
X75414286Y-65478866D01*
X75414286Y-65478866D02*
X75366667Y-65383628D01*
X75366667Y-65383628D02*
X75366667Y-65336009D01*
X75366667Y-65336009D02*
X75414286Y-65240771D01*
X75414286Y-65240771D02*
X75509524Y-65193152D01*
X75509524Y-65193152D02*
X75652381Y-65193152D01*
X75652381Y-65193152D02*
X75747619Y-65240771D01*
X76128572Y-65193152D02*
X76319048Y-65859819D01*
X76319048Y-65859819D02*
X76509524Y-65383628D01*
X76509524Y-65383628D02*
X76700000Y-65859819D01*
X76700000Y-65859819D02*
X76890476Y-65193152D01*
X77271429Y-65859819D02*
X77271429Y-65193152D01*
X77271429Y-64859819D02*
X77223810Y-64907438D01*
X77223810Y-64907438D02*
X77271429Y-64955057D01*
X77271429Y-64955057D02*
X77319048Y-64907438D01*
X77319048Y-64907438D02*
X77271429Y-64859819D01*
X77271429Y-64859819D02*
X77271429Y-64955057D01*
X77604762Y-65193152D02*
X77985714Y-65193152D01*
X77747619Y-64859819D02*
X77747619Y-65716961D01*
X77747619Y-65716961D02*
X77795238Y-65812200D01*
X77795238Y-65812200D02*
X77890476Y-65859819D01*
X77890476Y-65859819D02*
X77985714Y-65859819D01*
X78747619Y-65812200D02*
X78652381Y-65859819D01*
X78652381Y-65859819D02*
X78461905Y-65859819D01*
X78461905Y-65859819D02*
X78366667Y-65812200D01*
X78366667Y-65812200D02*
X78319048Y-65764580D01*
X78319048Y-65764580D02*
X78271429Y-65669342D01*
X78271429Y-65669342D02*
X78271429Y-65383628D01*
X78271429Y-65383628D02*
X78319048Y-65288390D01*
X78319048Y-65288390D02*
X78366667Y-65240771D01*
X78366667Y-65240771D02*
X78461905Y-65193152D01*
X78461905Y-65193152D02*
X78652381Y-65193152D01*
X78652381Y-65193152D02*
X78747619Y-65240771D01*
X79176191Y-65859819D02*
X79176191Y-64859819D01*
X79604762Y-65859819D02*
X79604762Y-65336009D01*
X79604762Y-65336009D02*
X79557143Y-65240771D01*
X79557143Y-65240771D02*
X79461905Y-65193152D01*
X79461905Y-65193152D02*
X79319048Y-65193152D01*
X79319048Y-65193152D02*
X79223810Y-65240771D01*
X79223810Y-65240771D02*
X79176191Y-65288390D01*
X75438095Y-57557200D02*
X75580952Y-57604819D01*
X75580952Y-57604819D02*
X75819047Y-57604819D01*
X75819047Y-57604819D02*
X75914285Y-57557200D01*
X75914285Y-57557200D02*
X75961904Y-57509580D01*
X75961904Y-57509580D02*
X76009523Y-57414342D01*
X76009523Y-57414342D02*
X76009523Y-57319104D01*
X76009523Y-57319104D02*
X75961904Y-57223866D01*
X75961904Y-57223866D02*
X75914285Y-57176247D01*
X75914285Y-57176247D02*
X75819047Y-57128628D01*
X75819047Y-57128628D02*
X75628571Y-57081009D01*
X75628571Y-57081009D02*
X75533333Y-57033390D01*
X75533333Y-57033390D02*
X75485714Y-56985771D01*
X75485714Y-56985771D02*
X75438095Y-56890533D01*
X75438095Y-56890533D02*
X75438095Y-56795295D01*
X75438095Y-56795295D02*
X75485714Y-56700057D01*
X75485714Y-56700057D02*
X75533333Y-56652438D01*
X75533333Y-56652438D02*
X75628571Y-56604819D01*
X75628571Y-56604819D02*
X75866666Y-56604819D01*
X75866666Y-56604819D02*
X76009523Y-56652438D01*
X76390476Y-56700057D02*
X76438095Y-56652438D01*
X76438095Y-56652438D02*
X76533333Y-56604819D01*
X76533333Y-56604819D02*
X76771428Y-56604819D01*
X76771428Y-56604819D02*
X76866666Y-56652438D01*
X76866666Y-56652438D02*
X76914285Y-56700057D01*
X76914285Y-56700057D02*
X76961904Y-56795295D01*
X76961904Y-56795295D02*
X76961904Y-56890533D01*
X76961904Y-56890533D02*
X76914285Y-57033390D01*
X76914285Y-57033390D02*
X76342857Y-57604819D01*
X76342857Y-57604819D02*
X76961904Y-57604819D01*
X110895238Y-99197319D02*
X110895238Y-98197319D01*
X111466666Y-99197319D02*
X111038095Y-98625890D01*
X111466666Y-98197319D02*
X110895238Y-98768747D01*
X112276190Y-99149700D02*
X112180952Y-99197319D01*
X112180952Y-99197319D02*
X111990476Y-99197319D01*
X111990476Y-99197319D02*
X111895238Y-99149700D01*
X111895238Y-99149700D02*
X111847619Y-99054461D01*
X111847619Y-99054461D02*
X111847619Y-98673509D01*
X111847619Y-98673509D02*
X111895238Y-98578271D01*
X111895238Y-98578271D02*
X111990476Y-98530652D01*
X111990476Y-98530652D02*
X112180952Y-98530652D01*
X112180952Y-98530652D02*
X112276190Y-98578271D01*
X112276190Y-98578271D02*
X112323809Y-98673509D01*
X112323809Y-98673509D02*
X112323809Y-98768747D01*
X112323809Y-98768747D02*
X111847619Y-98863985D01*
X112657143Y-98530652D02*
X112895238Y-99197319D01*
X113133333Y-98530652D02*
X112895238Y-99197319D01*
X112895238Y-99197319D02*
X112800000Y-99435414D01*
X112800000Y-99435414D02*
X112752381Y-99483033D01*
X112752381Y-99483033D02*
X112657143Y-99530652D01*
X113466667Y-99149700D02*
X113561905Y-99197319D01*
X113561905Y-99197319D02*
X113752381Y-99197319D01*
X113752381Y-99197319D02*
X113847619Y-99149700D01*
X113847619Y-99149700D02*
X113895238Y-99054461D01*
X113895238Y-99054461D02*
X113895238Y-99006842D01*
X113895238Y-99006842D02*
X113847619Y-98911604D01*
X113847619Y-98911604D02*
X113752381Y-98863985D01*
X113752381Y-98863985D02*
X113609524Y-98863985D01*
X113609524Y-98863985D02*
X113514286Y-98816366D01*
X113514286Y-98816366D02*
X113466667Y-98721128D01*
X113466667Y-98721128D02*
X113466667Y-98673509D01*
X113466667Y-98673509D02*
X113514286Y-98578271D01*
X113514286Y-98578271D02*
X113609524Y-98530652D01*
X113609524Y-98530652D02*
X113752381Y-98530652D01*
X113752381Y-98530652D02*
X113847619Y-98578271D01*
X114228572Y-98530652D02*
X114419048Y-99197319D01*
X114419048Y-99197319D02*
X114609524Y-98721128D01*
X114609524Y-98721128D02*
X114800000Y-99197319D01*
X114800000Y-99197319D02*
X114990476Y-98530652D01*
X115371429Y-99197319D02*
X115371429Y-98530652D01*
X115371429Y-98197319D02*
X115323810Y-98244938D01*
X115323810Y-98244938D02*
X115371429Y-98292557D01*
X115371429Y-98292557D02*
X115419048Y-98244938D01*
X115419048Y-98244938D02*
X115371429Y-98197319D01*
X115371429Y-98197319D02*
X115371429Y-98292557D01*
X115704762Y-98530652D02*
X116085714Y-98530652D01*
X115847619Y-98197319D02*
X115847619Y-99054461D01*
X115847619Y-99054461D02*
X115895238Y-99149700D01*
X115895238Y-99149700D02*
X115990476Y-99197319D01*
X115990476Y-99197319D02*
X116085714Y-99197319D01*
X116847619Y-99149700D02*
X116752381Y-99197319D01*
X116752381Y-99197319D02*
X116561905Y-99197319D01*
X116561905Y-99197319D02*
X116466667Y-99149700D01*
X116466667Y-99149700D02*
X116419048Y-99102080D01*
X116419048Y-99102080D02*
X116371429Y-99006842D01*
X116371429Y-99006842D02*
X116371429Y-98721128D01*
X116371429Y-98721128D02*
X116419048Y-98625890D01*
X116419048Y-98625890D02*
X116466667Y-98578271D01*
X116466667Y-98578271D02*
X116561905Y-98530652D01*
X116561905Y-98530652D02*
X116752381Y-98530652D01*
X116752381Y-98530652D02*
X116847619Y-98578271D01*
X117276191Y-99197319D02*
X117276191Y-98197319D01*
X117704762Y-99197319D02*
X117704762Y-98673509D01*
X117704762Y-98673509D02*
X117657143Y-98578271D01*
X117657143Y-98578271D02*
X117561905Y-98530652D01*
X117561905Y-98530652D02*
X117419048Y-98530652D01*
X117419048Y-98530652D02*
X117323810Y-98578271D01*
X117323810Y-98578271D02*
X117276191Y-98625890D01*
X113061905Y-90894700D02*
X113204762Y-90942319D01*
X113204762Y-90942319D02*
X113442857Y-90942319D01*
X113442857Y-90942319D02*
X113538095Y-90894700D01*
X113538095Y-90894700D02*
X113585714Y-90847080D01*
X113585714Y-90847080D02*
X113633333Y-90751842D01*
X113633333Y-90751842D02*
X113633333Y-90656604D01*
X113633333Y-90656604D02*
X113585714Y-90561366D01*
X113585714Y-90561366D02*
X113538095Y-90513747D01*
X113538095Y-90513747D02*
X113442857Y-90466128D01*
X113442857Y-90466128D02*
X113252381Y-90418509D01*
X113252381Y-90418509D02*
X113157143Y-90370890D01*
X113157143Y-90370890D02*
X113109524Y-90323271D01*
X113109524Y-90323271D02*
X113061905Y-90228033D01*
X113061905Y-90228033D02*
X113061905Y-90132795D01*
X113061905Y-90132795D02*
X113109524Y-90037557D01*
X113109524Y-90037557D02*
X113157143Y-89989938D01*
X113157143Y-89989938D02*
X113252381Y-89942319D01*
X113252381Y-89942319D02*
X113490476Y-89942319D01*
X113490476Y-89942319D02*
X113633333Y-89989938D01*
X114585714Y-90942319D02*
X114014286Y-90942319D01*
X114300000Y-90942319D02*
X114300000Y-89942319D01*
X114300000Y-89942319D02*
X114204762Y-90085176D01*
X114204762Y-90085176D02*
X114109524Y-90180414D01*
X114109524Y-90180414D02*
X114014286Y-90228033D01*
X115442857Y-89942319D02*
X115252381Y-89942319D01*
X115252381Y-89942319D02*
X115157143Y-89989938D01*
X115157143Y-89989938D02*
X115109524Y-90037557D01*
X115109524Y-90037557D02*
X115014286Y-90180414D01*
X115014286Y-90180414D02*
X114966667Y-90370890D01*
X114966667Y-90370890D02*
X114966667Y-90751842D01*
X114966667Y-90751842D02*
X115014286Y-90847080D01*
X115014286Y-90847080D02*
X115061905Y-90894700D01*
X115061905Y-90894700D02*
X115157143Y-90942319D01*
X115157143Y-90942319D02*
X115347619Y-90942319D01*
X115347619Y-90942319D02*
X115442857Y-90894700D01*
X115442857Y-90894700D02*
X115490476Y-90847080D01*
X115490476Y-90847080D02*
X115538095Y-90751842D01*
X115538095Y-90751842D02*
X115538095Y-90513747D01*
X115538095Y-90513747D02*
X115490476Y-90418509D01*
X115490476Y-90418509D02*
X115442857Y-90370890D01*
X115442857Y-90370890D02*
X115347619Y-90323271D01*
X115347619Y-90323271D02*
X115157143Y-90323271D01*
X115157143Y-90323271D02*
X115061905Y-90370890D01*
X115061905Y-90370890D02*
X115014286Y-90418509D01*
X115014286Y-90418509D02*
X114966667Y-90513747D01*
X110895238Y-80147319D02*
X110895238Y-79147319D01*
X111466666Y-80147319D02*
X111038095Y-79575890D01*
X111466666Y-79147319D02*
X110895238Y-79718747D01*
X112276190Y-80099700D02*
X112180952Y-80147319D01*
X112180952Y-80147319D02*
X111990476Y-80147319D01*
X111990476Y-80147319D02*
X111895238Y-80099700D01*
X111895238Y-80099700D02*
X111847619Y-80004461D01*
X111847619Y-80004461D02*
X111847619Y-79623509D01*
X111847619Y-79623509D02*
X111895238Y-79528271D01*
X111895238Y-79528271D02*
X111990476Y-79480652D01*
X111990476Y-79480652D02*
X112180952Y-79480652D01*
X112180952Y-79480652D02*
X112276190Y-79528271D01*
X112276190Y-79528271D02*
X112323809Y-79623509D01*
X112323809Y-79623509D02*
X112323809Y-79718747D01*
X112323809Y-79718747D02*
X111847619Y-79813985D01*
X112657143Y-79480652D02*
X112895238Y-80147319D01*
X113133333Y-79480652D02*
X112895238Y-80147319D01*
X112895238Y-80147319D02*
X112800000Y-80385414D01*
X112800000Y-80385414D02*
X112752381Y-80433033D01*
X112752381Y-80433033D02*
X112657143Y-80480652D01*
X113466667Y-80099700D02*
X113561905Y-80147319D01*
X113561905Y-80147319D02*
X113752381Y-80147319D01*
X113752381Y-80147319D02*
X113847619Y-80099700D01*
X113847619Y-80099700D02*
X113895238Y-80004461D01*
X113895238Y-80004461D02*
X113895238Y-79956842D01*
X113895238Y-79956842D02*
X113847619Y-79861604D01*
X113847619Y-79861604D02*
X113752381Y-79813985D01*
X113752381Y-79813985D02*
X113609524Y-79813985D01*
X113609524Y-79813985D02*
X113514286Y-79766366D01*
X113514286Y-79766366D02*
X113466667Y-79671128D01*
X113466667Y-79671128D02*
X113466667Y-79623509D01*
X113466667Y-79623509D02*
X113514286Y-79528271D01*
X113514286Y-79528271D02*
X113609524Y-79480652D01*
X113609524Y-79480652D02*
X113752381Y-79480652D01*
X113752381Y-79480652D02*
X113847619Y-79528271D01*
X114228572Y-79480652D02*
X114419048Y-80147319D01*
X114419048Y-80147319D02*
X114609524Y-79671128D01*
X114609524Y-79671128D02*
X114800000Y-80147319D01*
X114800000Y-80147319D02*
X114990476Y-79480652D01*
X115371429Y-80147319D02*
X115371429Y-79480652D01*
X115371429Y-79147319D02*
X115323810Y-79194938D01*
X115323810Y-79194938D02*
X115371429Y-79242557D01*
X115371429Y-79242557D02*
X115419048Y-79194938D01*
X115419048Y-79194938D02*
X115371429Y-79147319D01*
X115371429Y-79147319D02*
X115371429Y-79242557D01*
X115704762Y-79480652D02*
X116085714Y-79480652D01*
X115847619Y-79147319D02*
X115847619Y-80004461D01*
X115847619Y-80004461D02*
X115895238Y-80099700D01*
X115895238Y-80099700D02*
X115990476Y-80147319D01*
X115990476Y-80147319D02*
X116085714Y-80147319D01*
X116847619Y-80099700D02*
X116752381Y-80147319D01*
X116752381Y-80147319D02*
X116561905Y-80147319D01*
X116561905Y-80147319D02*
X116466667Y-80099700D01*
X116466667Y-80099700D02*
X116419048Y-80052080D01*
X116419048Y-80052080D02*
X116371429Y-79956842D01*
X116371429Y-79956842D02*
X116371429Y-79671128D01*
X116371429Y-79671128D02*
X116419048Y-79575890D01*
X116419048Y-79575890D02*
X116466667Y-79528271D01*
X116466667Y-79528271D02*
X116561905Y-79480652D01*
X116561905Y-79480652D02*
X116752381Y-79480652D01*
X116752381Y-79480652D02*
X116847619Y-79528271D01*
X117276191Y-80147319D02*
X117276191Y-79147319D01*
X117704762Y-80147319D02*
X117704762Y-79623509D01*
X117704762Y-79623509D02*
X117657143Y-79528271D01*
X117657143Y-79528271D02*
X117561905Y-79480652D01*
X117561905Y-79480652D02*
X117419048Y-79480652D01*
X117419048Y-79480652D02*
X117323810Y-79528271D01*
X117323810Y-79528271D02*
X117276191Y-79575890D01*
X113061905Y-71844700D02*
X113204762Y-71892319D01*
X113204762Y-71892319D02*
X113442857Y-71892319D01*
X113442857Y-71892319D02*
X113538095Y-71844700D01*
X113538095Y-71844700D02*
X113585714Y-71797080D01*
X113585714Y-71797080D02*
X113633333Y-71701842D01*
X113633333Y-71701842D02*
X113633333Y-71606604D01*
X113633333Y-71606604D02*
X113585714Y-71511366D01*
X113585714Y-71511366D02*
X113538095Y-71463747D01*
X113538095Y-71463747D02*
X113442857Y-71416128D01*
X113442857Y-71416128D02*
X113252381Y-71368509D01*
X113252381Y-71368509D02*
X113157143Y-71320890D01*
X113157143Y-71320890D02*
X113109524Y-71273271D01*
X113109524Y-71273271D02*
X113061905Y-71178033D01*
X113061905Y-71178033D02*
X113061905Y-71082795D01*
X113061905Y-71082795D02*
X113109524Y-70987557D01*
X113109524Y-70987557D02*
X113157143Y-70939938D01*
X113157143Y-70939938D02*
X113252381Y-70892319D01*
X113252381Y-70892319D02*
X113490476Y-70892319D01*
X113490476Y-70892319D02*
X113633333Y-70939938D01*
X114585714Y-71892319D02*
X114014286Y-71892319D01*
X114300000Y-71892319D02*
X114300000Y-70892319D01*
X114300000Y-70892319D02*
X114204762Y-71035176D01*
X114204762Y-71035176D02*
X114109524Y-71130414D01*
X114109524Y-71130414D02*
X114014286Y-71178033D01*
X115204762Y-70892319D02*
X115300000Y-70892319D01*
X115300000Y-70892319D02*
X115395238Y-70939938D01*
X115395238Y-70939938D02*
X115442857Y-70987557D01*
X115442857Y-70987557D02*
X115490476Y-71082795D01*
X115490476Y-71082795D02*
X115538095Y-71273271D01*
X115538095Y-71273271D02*
X115538095Y-71511366D01*
X115538095Y-71511366D02*
X115490476Y-71701842D01*
X115490476Y-71701842D02*
X115442857Y-71797080D01*
X115442857Y-71797080D02*
X115395238Y-71844700D01*
X115395238Y-71844700D02*
X115300000Y-71892319D01*
X115300000Y-71892319D02*
X115204762Y-71892319D01*
X115204762Y-71892319D02*
X115109524Y-71844700D01*
X115109524Y-71844700D02*
X115061905Y-71797080D01*
X115061905Y-71797080D02*
X115014286Y-71701842D01*
X115014286Y-71701842D02*
X114966667Y-71511366D01*
X114966667Y-71511366D02*
X114966667Y-71273271D01*
X114966667Y-71273271D02*
X115014286Y-71082795D01*
X115014286Y-71082795D02*
X115061905Y-70987557D01*
X115061905Y-70987557D02*
X115109524Y-70939938D01*
X115109524Y-70939938D02*
X115204762Y-70892319D01*
X148995238Y-84909819D02*
X148995238Y-83909819D01*
X149566666Y-84909819D02*
X149138095Y-84338390D01*
X149566666Y-83909819D02*
X148995238Y-84481247D01*
X150376190Y-84862200D02*
X150280952Y-84909819D01*
X150280952Y-84909819D02*
X150090476Y-84909819D01*
X150090476Y-84909819D02*
X149995238Y-84862200D01*
X149995238Y-84862200D02*
X149947619Y-84766961D01*
X149947619Y-84766961D02*
X149947619Y-84386009D01*
X149947619Y-84386009D02*
X149995238Y-84290771D01*
X149995238Y-84290771D02*
X150090476Y-84243152D01*
X150090476Y-84243152D02*
X150280952Y-84243152D01*
X150280952Y-84243152D02*
X150376190Y-84290771D01*
X150376190Y-84290771D02*
X150423809Y-84386009D01*
X150423809Y-84386009D02*
X150423809Y-84481247D01*
X150423809Y-84481247D02*
X149947619Y-84576485D01*
X150757143Y-84243152D02*
X150995238Y-84909819D01*
X151233333Y-84243152D02*
X150995238Y-84909819D01*
X150995238Y-84909819D02*
X150900000Y-85147914D01*
X150900000Y-85147914D02*
X150852381Y-85195533D01*
X150852381Y-85195533D02*
X150757143Y-85243152D01*
X151566667Y-84862200D02*
X151661905Y-84909819D01*
X151661905Y-84909819D02*
X151852381Y-84909819D01*
X151852381Y-84909819D02*
X151947619Y-84862200D01*
X151947619Y-84862200D02*
X151995238Y-84766961D01*
X151995238Y-84766961D02*
X151995238Y-84719342D01*
X151995238Y-84719342D02*
X151947619Y-84624104D01*
X151947619Y-84624104D02*
X151852381Y-84576485D01*
X151852381Y-84576485D02*
X151709524Y-84576485D01*
X151709524Y-84576485D02*
X151614286Y-84528866D01*
X151614286Y-84528866D02*
X151566667Y-84433628D01*
X151566667Y-84433628D02*
X151566667Y-84386009D01*
X151566667Y-84386009D02*
X151614286Y-84290771D01*
X151614286Y-84290771D02*
X151709524Y-84243152D01*
X151709524Y-84243152D02*
X151852381Y-84243152D01*
X151852381Y-84243152D02*
X151947619Y-84290771D01*
X152328572Y-84243152D02*
X152519048Y-84909819D01*
X152519048Y-84909819D02*
X152709524Y-84433628D01*
X152709524Y-84433628D02*
X152900000Y-84909819D01*
X152900000Y-84909819D02*
X153090476Y-84243152D01*
X153471429Y-84909819D02*
X153471429Y-84243152D01*
X153471429Y-83909819D02*
X153423810Y-83957438D01*
X153423810Y-83957438D02*
X153471429Y-84005057D01*
X153471429Y-84005057D02*
X153519048Y-83957438D01*
X153519048Y-83957438D02*
X153471429Y-83909819D01*
X153471429Y-83909819D02*
X153471429Y-84005057D01*
X153804762Y-84243152D02*
X154185714Y-84243152D01*
X153947619Y-83909819D02*
X153947619Y-84766961D01*
X153947619Y-84766961D02*
X153995238Y-84862200D01*
X153995238Y-84862200D02*
X154090476Y-84909819D01*
X154090476Y-84909819D02*
X154185714Y-84909819D01*
X154947619Y-84862200D02*
X154852381Y-84909819D01*
X154852381Y-84909819D02*
X154661905Y-84909819D01*
X154661905Y-84909819D02*
X154566667Y-84862200D01*
X154566667Y-84862200D02*
X154519048Y-84814580D01*
X154519048Y-84814580D02*
X154471429Y-84719342D01*
X154471429Y-84719342D02*
X154471429Y-84433628D01*
X154471429Y-84433628D02*
X154519048Y-84338390D01*
X154519048Y-84338390D02*
X154566667Y-84290771D01*
X154566667Y-84290771D02*
X154661905Y-84243152D01*
X154661905Y-84243152D02*
X154852381Y-84243152D01*
X154852381Y-84243152D02*
X154947619Y-84290771D01*
X155376191Y-84909819D02*
X155376191Y-83909819D01*
X155804762Y-84909819D02*
X155804762Y-84386009D01*
X155804762Y-84386009D02*
X155757143Y-84290771D01*
X155757143Y-84290771D02*
X155661905Y-84243152D01*
X155661905Y-84243152D02*
X155519048Y-84243152D01*
X155519048Y-84243152D02*
X155423810Y-84290771D01*
X155423810Y-84290771D02*
X155376191Y-84338390D01*
X151161905Y-76607200D02*
X151304762Y-76654819D01*
X151304762Y-76654819D02*
X151542857Y-76654819D01*
X151542857Y-76654819D02*
X151638095Y-76607200D01*
X151638095Y-76607200D02*
X151685714Y-76559580D01*
X151685714Y-76559580D02*
X151733333Y-76464342D01*
X151733333Y-76464342D02*
X151733333Y-76369104D01*
X151733333Y-76369104D02*
X151685714Y-76273866D01*
X151685714Y-76273866D02*
X151638095Y-76226247D01*
X151638095Y-76226247D02*
X151542857Y-76178628D01*
X151542857Y-76178628D02*
X151352381Y-76131009D01*
X151352381Y-76131009D02*
X151257143Y-76083390D01*
X151257143Y-76083390D02*
X151209524Y-76035771D01*
X151209524Y-76035771D02*
X151161905Y-75940533D01*
X151161905Y-75940533D02*
X151161905Y-75845295D01*
X151161905Y-75845295D02*
X151209524Y-75750057D01*
X151209524Y-75750057D02*
X151257143Y-75702438D01*
X151257143Y-75702438D02*
X151352381Y-75654819D01*
X151352381Y-75654819D02*
X151590476Y-75654819D01*
X151590476Y-75654819D02*
X151733333Y-75702438D01*
X152685714Y-76654819D02*
X152114286Y-76654819D01*
X152400000Y-76654819D02*
X152400000Y-75654819D01*
X152400000Y-75654819D02*
X152304762Y-75797676D01*
X152304762Y-75797676D02*
X152209524Y-75892914D01*
X152209524Y-75892914D02*
X152114286Y-75940533D01*
X153066667Y-75750057D02*
X153114286Y-75702438D01*
X153114286Y-75702438D02*
X153209524Y-75654819D01*
X153209524Y-75654819D02*
X153447619Y-75654819D01*
X153447619Y-75654819D02*
X153542857Y-75702438D01*
X153542857Y-75702438D02*
X153590476Y-75750057D01*
X153590476Y-75750057D02*
X153638095Y-75845295D01*
X153638095Y-75845295D02*
X153638095Y-75940533D01*
X153638095Y-75940533D02*
X153590476Y-76083390D01*
X153590476Y-76083390D02*
X153019048Y-76654819D01*
X153019048Y-76654819D02*
X153638095Y-76654819D01*
X53745238Y-65859819D02*
X53745238Y-64859819D01*
X54316666Y-65859819D02*
X53888095Y-65288390D01*
X54316666Y-64859819D02*
X53745238Y-65431247D01*
X55126190Y-65812200D02*
X55030952Y-65859819D01*
X55030952Y-65859819D02*
X54840476Y-65859819D01*
X54840476Y-65859819D02*
X54745238Y-65812200D01*
X54745238Y-65812200D02*
X54697619Y-65716961D01*
X54697619Y-65716961D02*
X54697619Y-65336009D01*
X54697619Y-65336009D02*
X54745238Y-65240771D01*
X54745238Y-65240771D02*
X54840476Y-65193152D01*
X54840476Y-65193152D02*
X55030952Y-65193152D01*
X55030952Y-65193152D02*
X55126190Y-65240771D01*
X55126190Y-65240771D02*
X55173809Y-65336009D01*
X55173809Y-65336009D02*
X55173809Y-65431247D01*
X55173809Y-65431247D02*
X54697619Y-65526485D01*
X55507143Y-65193152D02*
X55745238Y-65859819D01*
X55983333Y-65193152D02*
X55745238Y-65859819D01*
X55745238Y-65859819D02*
X55650000Y-66097914D01*
X55650000Y-66097914D02*
X55602381Y-66145533D01*
X55602381Y-66145533D02*
X55507143Y-66193152D01*
X56316667Y-65812200D02*
X56411905Y-65859819D01*
X56411905Y-65859819D02*
X56602381Y-65859819D01*
X56602381Y-65859819D02*
X56697619Y-65812200D01*
X56697619Y-65812200D02*
X56745238Y-65716961D01*
X56745238Y-65716961D02*
X56745238Y-65669342D01*
X56745238Y-65669342D02*
X56697619Y-65574104D01*
X56697619Y-65574104D02*
X56602381Y-65526485D01*
X56602381Y-65526485D02*
X56459524Y-65526485D01*
X56459524Y-65526485D02*
X56364286Y-65478866D01*
X56364286Y-65478866D02*
X56316667Y-65383628D01*
X56316667Y-65383628D02*
X56316667Y-65336009D01*
X56316667Y-65336009D02*
X56364286Y-65240771D01*
X56364286Y-65240771D02*
X56459524Y-65193152D01*
X56459524Y-65193152D02*
X56602381Y-65193152D01*
X56602381Y-65193152D02*
X56697619Y-65240771D01*
X57078572Y-65193152D02*
X57269048Y-65859819D01*
X57269048Y-65859819D02*
X57459524Y-65383628D01*
X57459524Y-65383628D02*
X57650000Y-65859819D01*
X57650000Y-65859819D02*
X57840476Y-65193152D01*
X58221429Y-65859819D02*
X58221429Y-65193152D01*
X58221429Y-64859819D02*
X58173810Y-64907438D01*
X58173810Y-64907438D02*
X58221429Y-64955057D01*
X58221429Y-64955057D02*
X58269048Y-64907438D01*
X58269048Y-64907438D02*
X58221429Y-64859819D01*
X58221429Y-64859819D02*
X58221429Y-64955057D01*
X58554762Y-65193152D02*
X58935714Y-65193152D01*
X58697619Y-64859819D02*
X58697619Y-65716961D01*
X58697619Y-65716961D02*
X58745238Y-65812200D01*
X58745238Y-65812200D02*
X58840476Y-65859819D01*
X58840476Y-65859819D02*
X58935714Y-65859819D01*
X59697619Y-65812200D02*
X59602381Y-65859819D01*
X59602381Y-65859819D02*
X59411905Y-65859819D01*
X59411905Y-65859819D02*
X59316667Y-65812200D01*
X59316667Y-65812200D02*
X59269048Y-65764580D01*
X59269048Y-65764580D02*
X59221429Y-65669342D01*
X59221429Y-65669342D02*
X59221429Y-65383628D01*
X59221429Y-65383628D02*
X59269048Y-65288390D01*
X59269048Y-65288390D02*
X59316667Y-65240771D01*
X59316667Y-65240771D02*
X59411905Y-65193152D01*
X59411905Y-65193152D02*
X59602381Y-65193152D01*
X59602381Y-65193152D02*
X59697619Y-65240771D01*
X60126191Y-65859819D02*
X60126191Y-64859819D01*
X60554762Y-65859819D02*
X60554762Y-65336009D01*
X60554762Y-65336009D02*
X60507143Y-65240771D01*
X60507143Y-65240771D02*
X60411905Y-65193152D01*
X60411905Y-65193152D02*
X60269048Y-65193152D01*
X60269048Y-65193152D02*
X60173810Y-65240771D01*
X60173810Y-65240771D02*
X60126191Y-65288390D01*
X56388095Y-57557200D02*
X56530952Y-57604819D01*
X56530952Y-57604819D02*
X56769047Y-57604819D01*
X56769047Y-57604819D02*
X56864285Y-57557200D01*
X56864285Y-57557200D02*
X56911904Y-57509580D01*
X56911904Y-57509580D02*
X56959523Y-57414342D01*
X56959523Y-57414342D02*
X56959523Y-57319104D01*
X56959523Y-57319104D02*
X56911904Y-57223866D01*
X56911904Y-57223866D02*
X56864285Y-57176247D01*
X56864285Y-57176247D02*
X56769047Y-57128628D01*
X56769047Y-57128628D02*
X56578571Y-57081009D01*
X56578571Y-57081009D02*
X56483333Y-57033390D01*
X56483333Y-57033390D02*
X56435714Y-56985771D01*
X56435714Y-56985771D02*
X56388095Y-56890533D01*
X56388095Y-56890533D02*
X56388095Y-56795295D01*
X56388095Y-56795295D02*
X56435714Y-56700057D01*
X56435714Y-56700057D02*
X56483333Y-56652438D01*
X56483333Y-56652438D02*
X56578571Y-56604819D01*
X56578571Y-56604819D02*
X56816666Y-56604819D01*
X56816666Y-56604819D02*
X56959523Y-56652438D01*
X57911904Y-57604819D02*
X57340476Y-57604819D01*
X57626190Y-57604819D02*
X57626190Y-56604819D01*
X57626190Y-56604819D02*
X57530952Y-56747676D01*
X57530952Y-56747676D02*
X57435714Y-56842914D01*
X57435714Y-56842914D02*
X57340476Y-56890533D01*
X38505952Y-108429819D02*
X38505952Y-107429819D01*
X38505952Y-107429819D02*
X38839285Y-108144104D01*
X38839285Y-108144104D02*
X39172618Y-107429819D01*
X39172618Y-107429819D02*
X39172618Y-108429819D01*
X39791666Y-108429819D02*
X39696428Y-108382200D01*
X39696428Y-108382200D02*
X39648809Y-108334580D01*
X39648809Y-108334580D02*
X39601190Y-108239342D01*
X39601190Y-108239342D02*
X39601190Y-107953628D01*
X39601190Y-107953628D02*
X39648809Y-107858390D01*
X39648809Y-107858390D02*
X39696428Y-107810771D01*
X39696428Y-107810771D02*
X39791666Y-107763152D01*
X39791666Y-107763152D02*
X39934523Y-107763152D01*
X39934523Y-107763152D02*
X40029761Y-107810771D01*
X40029761Y-107810771D02*
X40077380Y-107858390D01*
X40077380Y-107858390D02*
X40124999Y-107953628D01*
X40124999Y-107953628D02*
X40124999Y-108239342D01*
X40124999Y-108239342D02*
X40077380Y-108334580D01*
X40077380Y-108334580D02*
X40029761Y-108382200D01*
X40029761Y-108382200D02*
X39934523Y-108429819D01*
X39934523Y-108429819D02*
X39791666Y-108429819D01*
X40982142Y-107763152D02*
X40982142Y-108429819D01*
X40553571Y-107763152D02*
X40553571Y-108286961D01*
X40553571Y-108286961D02*
X40601190Y-108382200D01*
X40601190Y-108382200D02*
X40696428Y-108429819D01*
X40696428Y-108429819D02*
X40839285Y-108429819D01*
X40839285Y-108429819D02*
X40934523Y-108382200D01*
X40934523Y-108382200D02*
X40982142Y-108334580D01*
X41458333Y-107763152D02*
X41458333Y-108429819D01*
X41458333Y-107858390D02*
X41505952Y-107810771D01*
X41505952Y-107810771D02*
X41601190Y-107763152D01*
X41601190Y-107763152D02*
X41744047Y-107763152D01*
X41744047Y-107763152D02*
X41839285Y-107810771D01*
X41839285Y-107810771D02*
X41886904Y-107906009D01*
X41886904Y-107906009D02*
X41886904Y-108429819D01*
X42220238Y-107763152D02*
X42601190Y-107763152D01*
X42363095Y-107429819D02*
X42363095Y-108286961D01*
X42363095Y-108286961D02*
X42410714Y-108382200D01*
X42410714Y-108382200D02*
X42505952Y-108429819D01*
X42505952Y-108429819D02*
X42601190Y-108429819D01*
X42934524Y-108429819D02*
X42934524Y-107763152D01*
X42934524Y-107429819D02*
X42886905Y-107477438D01*
X42886905Y-107477438D02*
X42934524Y-107525057D01*
X42934524Y-107525057D02*
X42982143Y-107477438D01*
X42982143Y-107477438D02*
X42934524Y-107429819D01*
X42934524Y-107429819D02*
X42934524Y-107525057D01*
X43410714Y-107763152D02*
X43410714Y-108429819D01*
X43410714Y-107858390D02*
X43458333Y-107810771D01*
X43458333Y-107810771D02*
X43553571Y-107763152D01*
X43553571Y-107763152D02*
X43696428Y-107763152D01*
X43696428Y-107763152D02*
X43791666Y-107810771D01*
X43791666Y-107810771D02*
X43839285Y-107906009D01*
X43839285Y-107906009D02*
X43839285Y-108429819D01*
X44744047Y-107763152D02*
X44744047Y-108572676D01*
X44744047Y-108572676D02*
X44696428Y-108667914D01*
X44696428Y-108667914D02*
X44648809Y-108715533D01*
X44648809Y-108715533D02*
X44553571Y-108763152D01*
X44553571Y-108763152D02*
X44410714Y-108763152D01*
X44410714Y-108763152D02*
X44315476Y-108715533D01*
X44744047Y-108382200D02*
X44648809Y-108429819D01*
X44648809Y-108429819D02*
X44458333Y-108429819D01*
X44458333Y-108429819D02*
X44363095Y-108382200D01*
X44363095Y-108382200D02*
X44315476Y-108334580D01*
X44315476Y-108334580D02*
X44267857Y-108239342D01*
X44267857Y-108239342D02*
X44267857Y-107953628D01*
X44267857Y-107953628D02*
X44315476Y-107858390D01*
X44315476Y-107858390D02*
X44363095Y-107810771D01*
X44363095Y-107810771D02*
X44458333Y-107763152D01*
X44458333Y-107763152D02*
X44648809Y-107763152D01*
X44648809Y-107763152D02*
X44744047Y-107810771D01*
X45220238Y-108429819D02*
X45220238Y-107429819D01*
X45220238Y-107906009D02*
X45791666Y-107906009D01*
X45791666Y-108429819D02*
X45791666Y-107429819D01*
X46410714Y-108429819D02*
X46315476Y-108382200D01*
X46315476Y-108382200D02*
X46267857Y-108334580D01*
X46267857Y-108334580D02*
X46220238Y-108239342D01*
X46220238Y-108239342D02*
X46220238Y-107953628D01*
X46220238Y-107953628D02*
X46267857Y-107858390D01*
X46267857Y-107858390D02*
X46315476Y-107810771D01*
X46315476Y-107810771D02*
X46410714Y-107763152D01*
X46410714Y-107763152D02*
X46553571Y-107763152D01*
X46553571Y-107763152D02*
X46648809Y-107810771D01*
X46648809Y-107810771D02*
X46696428Y-107858390D01*
X46696428Y-107858390D02*
X46744047Y-107953628D01*
X46744047Y-107953628D02*
X46744047Y-108239342D01*
X46744047Y-108239342D02*
X46696428Y-108334580D01*
X46696428Y-108334580D02*
X46648809Y-108382200D01*
X46648809Y-108382200D02*
X46553571Y-108429819D01*
X46553571Y-108429819D02*
X46410714Y-108429819D01*
X47315476Y-108429819D02*
X47220238Y-108382200D01*
X47220238Y-108382200D02*
X47172619Y-108286961D01*
X47172619Y-108286961D02*
X47172619Y-107429819D01*
X48077381Y-108382200D02*
X47982143Y-108429819D01*
X47982143Y-108429819D02*
X47791667Y-108429819D01*
X47791667Y-108429819D02*
X47696429Y-108382200D01*
X47696429Y-108382200D02*
X47648810Y-108286961D01*
X47648810Y-108286961D02*
X47648810Y-107906009D01*
X47648810Y-107906009D02*
X47696429Y-107810771D01*
X47696429Y-107810771D02*
X47791667Y-107763152D01*
X47791667Y-107763152D02*
X47982143Y-107763152D01*
X47982143Y-107763152D02*
X48077381Y-107810771D01*
X48077381Y-107810771D02*
X48125000Y-107906009D01*
X48125000Y-107906009D02*
X48125000Y-108001247D01*
X48125000Y-108001247D02*
X47648810Y-108096485D01*
X48315477Y-108525057D02*
X49077381Y-108525057D01*
X49267858Y-107525057D02*
X49315477Y-107477438D01*
X49315477Y-107477438D02*
X49410715Y-107429819D01*
X49410715Y-107429819D02*
X49648810Y-107429819D01*
X49648810Y-107429819D02*
X49744048Y-107477438D01*
X49744048Y-107477438D02*
X49791667Y-107525057D01*
X49791667Y-107525057D02*
X49839286Y-107620295D01*
X49839286Y-107620295D02*
X49839286Y-107715533D01*
X49839286Y-107715533D02*
X49791667Y-107858390D01*
X49791667Y-107858390D02*
X49220239Y-108429819D01*
X49220239Y-108429819D02*
X49839286Y-108429819D01*
X50267858Y-108334580D02*
X50315477Y-108382200D01*
X50315477Y-108382200D02*
X50267858Y-108429819D01*
X50267858Y-108429819D02*
X50220239Y-108382200D01*
X50220239Y-108382200D02*
X50267858Y-108334580D01*
X50267858Y-108334580D02*
X50267858Y-108429819D01*
X50696429Y-107525057D02*
X50744048Y-107477438D01*
X50744048Y-107477438D02*
X50839286Y-107429819D01*
X50839286Y-107429819D02*
X51077381Y-107429819D01*
X51077381Y-107429819D02*
X51172619Y-107477438D01*
X51172619Y-107477438D02*
X51220238Y-107525057D01*
X51220238Y-107525057D02*
X51267857Y-107620295D01*
X51267857Y-107620295D02*
X51267857Y-107715533D01*
X51267857Y-107715533D02*
X51220238Y-107858390D01*
X51220238Y-107858390D02*
X50648810Y-108429819D01*
X50648810Y-108429819D02*
X51267857Y-108429819D01*
X51696429Y-108429819D02*
X51696429Y-107763152D01*
X51696429Y-107858390D02*
X51744048Y-107810771D01*
X51744048Y-107810771D02*
X51839286Y-107763152D01*
X51839286Y-107763152D02*
X51982143Y-107763152D01*
X51982143Y-107763152D02*
X52077381Y-107810771D01*
X52077381Y-107810771D02*
X52125000Y-107906009D01*
X52125000Y-107906009D02*
X52125000Y-108429819D01*
X52125000Y-107906009D02*
X52172619Y-107810771D01*
X52172619Y-107810771D02*
X52267857Y-107763152D01*
X52267857Y-107763152D02*
X52410714Y-107763152D01*
X52410714Y-107763152D02*
X52505953Y-107810771D01*
X52505953Y-107810771D02*
X52553572Y-107906009D01*
X52553572Y-107906009D02*
X52553572Y-108429819D01*
X53029762Y-108429819D02*
X53029762Y-107763152D01*
X53029762Y-107858390D02*
X53077381Y-107810771D01*
X53077381Y-107810771D02*
X53172619Y-107763152D01*
X53172619Y-107763152D02*
X53315476Y-107763152D01*
X53315476Y-107763152D02*
X53410714Y-107810771D01*
X53410714Y-107810771D02*
X53458333Y-107906009D01*
X53458333Y-107906009D02*
X53458333Y-108429819D01*
X53458333Y-107906009D02*
X53505952Y-107810771D01*
X53505952Y-107810771D02*
X53601190Y-107763152D01*
X53601190Y-107763152D02*
X53744047Y-107763152D01*
X53744047Y-107763152D02*
X53839286Y-107810771D01*
X53839286Y-107810771D02*
X53886905Y-107906009D01*
X53886905Y-107906009D02*
X53886905Y-108429819D01*
X54125000Y-108525057D02*
X54886904Y-108525057D01*
X55125000Y-108429819D02*
X55125000Y-107429819D01*
X55125000Y-107429819D02*
X55458333Y-108144104D01*
X55458333Y-108144104D02*
X55791666Y-107429819D01*
X55791666Y-107429819D02*
X55791666Y-108429819D01*
X56220238Y-107525057D02*
X56267857Y-107477438D01*
X56267857Y-107477438D02*
X56363095Y-107429819D01*
X56363095Y-107429819D02*
X56601190Y-107429819D01*
X56601190Y-107429819D02*
X56696428Y-107477438D01*
X56696428Y-107477438D02*
X56744047Y-107525057D01*
X56744047Y-107525057D02*
X56791666Y-107620295D01*
X56791666Y-107620295D02*
X56791666Y-107715533D01*
X56791666Y-107715533D02*
X56744047Y-107858390D01*
X56744047Y-107858390D02*
X56172619Y-108429819D01*
X56172619Y-108429819D02*
X56791666Y-108429819D01*
X46291666Y-105229819D02*
X45958333Y-104753628D01*
X45720238Y-105229819D02*
X45720238Y-104229819D01*
X45720238Y-104229819D02*
X46101190Y-104229819D01*
X46101190Y-104229819D02*
X46196428Y-104277438D01*
X46196428Y-104277438D02*
X46244047Y-104325057D01*
X46244047Y-104325057D02*
X46291666Y-104420295D01*
X46291666Y-104420295D02*
X46291666Y-104563152D01*
X46291666Y-104563152D02*
X46244047Y-104658390D01*
X46244047Y-104658390D02*
X46196428Y-104706009D01*
X46196428Y-104706009D02*
X46101190Y-104753628D01*
X46101190Y-104753628D02*
X45720238Y-104753628D01*
X46720238Y-104706009D02*
X47053571Y-104706009D01*
X47196428Y-105229819D02*
X46720238Y-105229819D01*
X46720238Y-105229819D02*
X46720238Y-104229819D01*
X46720238Y-104229819D02*
X47196428Y-104229819D01*
X47958333Y-104706009D02*
X47625000Y-104706009D01*
X47625000Y-105229819D02*
X47625000Y-104229819D01*
X47625000Y-104229819D02*
X48101190Y-104229819D01*
X48625000Y-104229819D02*
X48625000Y-104467914D01*
X48386905Y-104372676D02*
X48625000Y-104467914D01*
X48625000Y-104467914D02*
X48863095Y-104372676D01*
X48482143Y-104658390D02*
X48625000Y-104467914D01*
X48625000Y-104467914D02*
X48767857Y-104658390D01*
X49386905Y-104229819D02*
X49386905Y-104467914D01*
X49148810Y-104372676D02*
X49386905Y-104467914D01*
X49386905Y-104467914D02*
X49625000Y-104372676D01*
X49244048Y-104658390D02*
X49386905Y-104467914D01*
X49386905Y-104467914D02*
X49529762Y-104658390D01*
X91845238Y-63478569D02*
X91845238Y-62478569D01*
X92416666Y-63478569D02*
X91988095Y-62907140D01*
X92416666Y-62478569D02*
X91845238Y-63049997D01*
X93226190Y-63430950D02*
X93130952Y-63478569D01*
X93130952Y-63478569D02*
X92940476Y-63478569D01*
X92940476Y-63478569D02*
X92845238Y-63430950D01*
X92845238Y-63430950D02*
X92797619Y-63335711D01*
X92797619Y-63335711D02*
X92797619Y-62954759D01*
X92797619Y-62954759D02*
X92845238Y-62859521D01*
X92845238Y-62859521D02*
X92940476Y-62811902D01*
X92940476Y-62811902D02*
X93130952Y-62811902D01*
X93130952Y-62811902D02*
X93226190Y-62859521D01*
X93226190Y-62859521D02*
X93273809Y-62954759D01*
X93273809Y-62954759D02*
X93273809Y-63049997D01*
X93273809Y-63049997D02*
X92797619Y-63145235D01*
X93607143Y-62811902D02*
X93845238Y-63478569D01*
X94083333Y-62811902D02*
X93845238Y-63478569D01*
X93845238Y-63478569D02*
X93750000Y-63716664D01*
X93750000Y-63716664D02*
X93702381Y-63764283D01*
X93702381Y-63764283D02*
X93607143Y-63811902D01*
X94416667Y-63430950D02*
X94511905Y-63478569D01*
X94511905Y-63478569D02*
X94702381Y-63478569D01*
X94702381Y-63478569D02*
X94797619Y-63430950D01*
X94797619Y-63430950D02*
X94845238Y-63335711D01*
X94845238Y-63335711D02*
X94845238Y-63288092D01*
X94845238Y-63288092D02*
X94797619Y-63192854D01*
X94797619Y-63192854D02*
X94702381Y-63145235D01*
X94702381Y-63145235D02*
X94559524Y-63145235D01*
X94559524Y-63145235D02*
X94464286Y-63097616D01*
X94464286Y-63097616D02*
X94416667Y-63002378D01*
X94416667Y-63002378D02*
X94416667Y-62954759D01*
X94416667Y-62954759D02*
X94464286Y-62859521D01*
X94464286Y-62859521D02*
X94559524Y-62811902D01*
X94559524Y-62811902D02*
X94702381Y-62811902D01*
X94702381Y-62811902D02*
X94797619Y-62859521D01*
X95178572Y-62811902D02*
X95369048Y-63478569D01*
X95369048Y-63478569D02*
X95559524Y-63002378D01*
X95559524Y-63002378D02*
X95750000Y-63478569D01*
X95750000Y-63478569D02*
X95940476Y-62811902D01*
X96321429Y-63478569D02*
X96321429Y-62811902D01*
X96321429Y-62478569D02*
X96273810Y-62526188D01*
X96273810Y-62526188D02*
X96321429Y-62573807D01*
X96321429Y-62573807D02*
X96369048Y-62526188D01*
X96369048Y-62526188D02*
X96321429Y-62478569D01*
X96321429Y-62478569D02*
X96321429Y-62573807D01*
X96654762Y-62811902D02*
X97035714Y-62811902D01*
X96797619Y-62478569D02*
X96797619Y-63335711D01*
X96797619Y-63335711D02*
X96845238Y-63430950D01*
X96845238Y-63430950D02*
X96940476Y-63478569D01*
X96940476Y-63478569D02*
X97035714Y-63478569D01*
X97797619Y-63430950D02*
X97702381Y-63478569D01*
X97702381Y-63478569D02*
X97511905Y-63478569D01*
X97511905Y-63478569D02*
X97416667Y-63430950D01*
X97416667Y-63430950D02*
X97369048Y-63383330D01*
X97369048Y-63383330D02*
X97321429Y-63288092D01*
X97321429Y-63288092D02*
X97321429Y-63002378D01*
X97321429Y-63002378D02*
X97369048Y-62907140D01*
X97369048Y-62907140D02*
X97416667Y-62859521D01*
X97416667Y-62859521D02*
X97511905Y-62811902D01*
X97511905Y-62811902D02*
X97702381Y-62811902D01*
X97702381Y-62811902D02*
X97797619Y-62859521D01*
X98226191Y-63478569D02*
X98226191Y-62478569D01*
X98654762Y-63478569D02*
X98654762Y-62954759D01*
X98654762Y-62954759D02*
X98607143Y-62859521D01*
X98607143Y-62859521D02*
X98511905Y-62811902D01*
X98511905Y-62811902D02*
X98369048Y-62811902D01*
X98369048Y-62811902D02*
X98273810Y-62859521D01*
X98273810Y-62859521D02*
X98226191Y-62907140D01*
X94488095Y-55175950D02*
X94630952Y-55223569D01*
X94630952Y-55223569D02*
X94869047Y-55223569D01*
X94869047Y-55223569D02*
X94964285Y-55175950D01*
X94964285Y-55175950D02*
X95011904Y-55128330D01*
X95011904Y-55128330D02*
X95059523Y-55033092D01*
X95059523Y-55033092D02*
X95059523Y-54937854D01*
X95059523Y-54937854D02*
X95011904Y-54842616D01*
X95011904Y-54842616D02*
X94964285Y-54794997D01*
X94964285Y-54794997D02*
X94869047Y-54747378D01*
X94869047Y-54747378D02*
X94678571Y-54699759D01*
X94678571Y-54699759D02*
X94583333Y-54652140D01*
X94583333Y-54652140D02*
X94535714Y-54604521D01*
X94535714Y-54604521D02*
X94488095Y-54509283D01*
X94488095Y-54509283D02*
X94488095Y-54414045D01*
X94488095Y-54414045D02*
X94535714Y-54318807D01*
X94535714Y-54318807D02*
X94583333Y-54271188D01*
X94583333Y-54271188D02*
X94678571Y-54223569D01*
X94678571Y-54223569D02*
X94916666Y-54223569D01*
X94916666Y-54223569D02*
X95059523Y-54271188D01*
X95392857Y-54223569D02*
X96011904Y-54223569D01*
X96011904Y-54223569D02*
X95678571Y-54604521D01*
X95678571Y-54604521D02*
X95821428Y-54604521D01*
X95821428Y-54604521D02*
X95916666Y-54652140D01*
X95916666Y-54652140D02*
X95964285Y-54699759D01*
X95964285Y-54699759D02*
X96011904Y-54794997D01*
X96011904Y-54794997D02*
X96011904Y-55033092D01*
X96011904Y-55033092D02*
X95964285Y-55128330D01*
X95964285Y-55128330D02*
X95916666Y-55175950D01*
X95916666Y-55175950D02*
X95821428Y-55223569D01*
X95821428Y-55223569D02*
X95535714Y-55223569D01*
X95535714Y-55223569D02*
X95440476Y-55175950D01*
X95440476Y-55175950D02*
X95392857Y-55128330D01*
X53745238Y-103959819D02*
X53745238Y-102959819D01*
X54316666Y-103959819D02*
X53888095Y-103388390D01*
X54316666Y-102959819D02*
X53745238Y-103531247D01*
X55126190Y-103912200D02*
X55030952Y-103959819D01*
X55030952Y-103959819D02*
X54840476Y-103959819D01*
X54840476Y-103959819D02*
X54745238Y-103912200D01*
X54745238Y-103912200D02*
X54697619Y-103816961D01*
X54697619Y-103816961D02*
X54697619Y-103436009D01*
X54697619Y-103436009D02*
X54745238Y-103340771D01*
X54745238Y-103340771D02*
X54840476Y-103293152D01*
X54840476Y-103293152D02*
X55030952Y-103293152D01*
X55030952Y-103293152D02*
X55126190Y-103340771D01*
X55126190Y-103340771D02*
X55173809Y-103436009D01*
X55173809Y-103436009D02*
X55173809Y-103531247D01*
X55173809Y-103531247D02*
X54697619Y-103626485D01*
X55507143Y-103293152D02*
X55745238Y-103959819D01*
X55983333Y-103293152D02*
X55745238Y-103959819D01*
X55745238Y-103959819D02*
X55650000Y-104197914D01*
X55650000Y-104197914D02*
X55602381Y-104245533D01*
X55602381Y-104245533D02*
X55507143Y-104293152D01*
X56316667Y-103912200D02*
X56411905Y-103959819D01*
X56411905Y-103959819D02*
X56602381Y-103959819D01*
X56602381Y-103959819D02*
X56697619Y-103912200D01*
X56697619Y-103912200D02*
X56745238Y-103816961D01*
X56745238Y-103816961D02*
X56745238Y-103769342D01*
X56745238Y-103769342D02*
X56697619Y-103674104D01*
X56697619Y-103674104D02*
X56602381Y-103626485D01*
X56602381Y-103626485D02*
X56459524Y-103626485D01*
X56459524Y-103626485D02*
X56364286Y-103578866D01*
X56364286Y-103578866D02*
X56316667Y-103483628D01*
X56316667Y-103483628D02*
X56316667Y-103436009D01*
X56316667Y-103436009D02*
X56364286Y-103340771D01*
X56364286Y-103340771D02*
X56459524Y-103293152D01*
X56459524Y-103293152D02*
X56602381Y-103293152D01*
X56602381Y-103293152D02*
X56697619Y-103340771D01*
X57078572Y-103293152D02*
X57269048Y-103959819D01*
X57269048Y-103959819D02*
X57459524Y-103483628D01*
X57459524Y-103483628D02*
X57650000Y-103959819D01*
X57650000Y-103959819D02*
X57840476Y-103293152D01*
X58221429Y-103959819D02*
X58221429Y-103293152D01*
X58221429Y-102959819D02*
X58173810Y-103007438D01*
X58173810Y-103007438D02*
X58221429Y-103055057D01*
X58221429Y-103055057D02*
X58269048Y-103007438D01*
X58269048Y-103007438D02*
X58221429Y-102959819D01*
X58221429Y-102959819D02*
X58221429Y-103055057D01*
X58554762Y-103293152D02*
X58935714Y-103293152D01*
X58697619Y-102959819D02*
X58697619Y-103816961D01*
X58697619Y-103816961D02*
X58745238Y-103912200D01*
X58745238Y-103912200D02*
X58840476Y-103959819D01*
X58840476Y-103959819D02*
X58935714Y-103959819D01*
X59697619Y-103912200D02*
X59602381Y-103959819D01*
X59602381Y-103959819D02*
X59411905Y-103959819D01*
X59411905Y-103959819D02*
X59316667Y-103912200D01*
X59316667Y-103912200D02*
X59269048Y-103864580D01*
X59269048Y-103864580D02*
X59221429Y-103769342D01*
X59221429Y-103769342D02*
X59221429Y-103483628D01*
X59221429Y-103483628D02*
X59269048Y-103388390D01*
X59269048Y-103388390D02*
X59316667Y-103340771D01*
X59316667Y-103340771D02*
X59411905Y-103293152D01*
X59411905Y-103293152D02*
X59602381Y-103293152D01*
X59602381Y-103293152D02*
X59697619Y-103340771D01*
X60126191Y-103959819D02*
X60126191Y-102959819D01*
X60554762Y-103959819D02*
X60554762Y-103436009D01*
X60554762Y-103436009D02*
X60507143Y-103340771D01*
X60507143Y-103340771D02*
X60411905Y-103293152D01*
X60411905Y-103293152D02*
X60269048Y-103293152D01*
X60269048Y-103293152D02*
X60173810Y-103340771D01*
X60173810Y-103340771D02*
X60126191Y-103388390D01*
X55911905Y-95657200D02*
X56054762Y-95704819D01*
X56054762Y-95704819D02*
X56292857Y-95704819D01*
X56292857Y-95704819D02*
X56388095Y-95657200D01*
X56388095Y-95657200D02*
X56435714Y-95609580D01*
X56435714Y-95609580D02*
X56483333Y-95514342D01*
X56483333Y-95514342D02*
X56483333Y-95419104D01*
X56483333Y-95419104D02*
X56435714Y-95323866D01*
X56435714Y-95323866D02*
X56388095Y-95276247D01*
X56388095Y-95276247D02*
X56292857Y-95228628D01*
X56292857Y-95228628D02*
X56102381Y-95181009D01*
X56102381Y-95181009D02*
X56007143Y-95133390D01*
X56007143Y-95133390D02*
X55959524Y-95085771D01*
X55959524Y-95085771D02*
X55911905Y-94990533D01*
X55911905Y-94990533D02*
X55911905Y-94895295D01*
X55911905Y-94895295D02*
X55959524Y-94800057D01*
X55959524Y-94800057D02*
X56007143Y-94752438D01*
X56007143Y-94752438D02*
X56102381Y-94704819D01*
X56102381Y-94704819D02*
X56340476Y-94704819D01*
X56340476Y-94704819D02*
X56483333Y-94752438D01*
X57435714Y-95704819D02*
X56864286Y-95704819D01*
X57150000Y-95704819D02*
X57150000Y-94704819D01*
X57150000Y-94704819D02*
X57054762Y-94847676D01*
X57054762Y-94847676D02*
X56959524Y-94942914D01*
X56959524Y-94942914D02*
X56864286Y-94990533D01*
X57769048Y-94704819D02*
X58388095Y-94704819D01*
X58388095Y-94704819D02*
X58054762Y-95085771D01*
X58054762Y-95085771D02*
X58197619Y-95085771D01*
X58197619Y-95085771D02*
X58292857Y-95133390D01*
X58292857Y-95133390D02*
X58340476Y-95181009D01*
X58340476Y-95181009D02*
X58388095Y-95276247D01*
X58388095Y-95276247D02*
X58388095Y-95514342D01*
X58388095Y-95514342D02*
X58340476Y-95609580D01*
X58340476Y-95609580D02*
X58292857Y-95657200D01*
X58292857Y-95657200D02*
X58197619Y-95704819D01*
X58197619Y-95704819D02*
X57911905Y-95704819D01*
X57911905Y-95704819D02*
X57816667Y-95657200D01*
X57816667Y-95657200D02*
X57769048Y-95609580D01*
X110895238Y-120628569D02*
X110895238Y-119628569D01*
X111466666Y-120628569D02*
X111038095Y-120057140D01*
X111466666Y-119628569D02*
X110895238Y-120199997D01*
X112276190Y-120580950D02*
X112180952Y-120628569D01*
X112180952Y-120628569D02*
X111990476Y-120628569D01*
X111990476Y-120628569D02*
X111895238Y-120580950D01*
X111895238Y-120580950D02*
X111847619Y-120485711D01*
X111847619Y-120485711D02*
X111847619Y-120104759D01*
X111847619Y-120104759D02*
X111895238Y-120009521D01*
X111895238Y-120009521D02*
X111990476Y-119961902D01*
X111990476Y-119961902D02*
X112180952Y-119961902D01*
X112180952Y-119961902D02*
X112276190Y-120009521D01*
X112276190Y-120009521D02*
X112323809Y-120104759D01*
X112323809Y-120104759D02*
X112323809Y-120199997D01*
X112323809Y-120199997D02*
X111847619Y-120295235D01*
X112657143Y-119961902D02*
X112895238Y-120628569D01*
X113133333Y-119961902D02*
X112895238Y-120628569D01*
X112895238Y-120628569D02*
X112800000Y-120866664D01*
X112800000Y-120866664D02*
X112752381Y-120914283D01*
X112752381Y-120914283D02*
X112657143Y-120961902D01*
X113466667Y-120580950D02*
X113561905Y-120628569D01*
X113561905Y-120628569D02*
X113752381Y-120628569D01*
X113752381Y-120628569D02*
X113847619Y-120580950D01*
X113847619Y-120580950D02*
X113895238Y-120485711D01*
X113895238Y-120485711D02*
X113895238Y-120438092D01*
X113895238Y-120438092D02*
X113847619Y-120342854D01*
X113847619Y-120342854D02*
X113752381Y-120295235D01*
X113752381Y-120295235D02*
X113609524Y-120295235D01*
X113609524Y-120295235D02*
X113514286Y-120247616D01*
X113514286Y-120247616D02*
X113466667Y-120152378D01*
X113466667Y-120152378D02*
X113466667Y-120104759D01*
X113466667Y-120104759D02*
X113514286Y-120009521D01*
X113514286Y-120009521D02*
X113609524Y-119961902D01*
X113609524Y-119961902D02*
X113752381Y-119961902D01*
X113752381Y-119961902D02*
X113847619Y-120009521D01*
X114228572Y-119961902D02*
X114419048Y-120628569D01*
X114419048Y-120628569D02*
X114609524Y-120152378D01*
X114609524Y-120152378D02*
X114800000Y-120628569D01*
X114800000Y-120628569D02*
X114990476Y-119961902D01*
X115371429Y-120628569D02*
X115371429Y-119961902D01*
X115371429Y-119628569D02*
X115323810Y-119676188D01*
X115323810Y-119676188D02*
X115371429Y-119723807D01*
X115371429Y-119723807D02*
X115419048Y-119676188D01*
X115419048Y-119676188D02*
X115371429Y-119628569D01*
X115371429Y-119628569D02*
X115371429Y-119723807D01*
X115704762Y-119961902D02*
X116085714Y-119961902D01*
X115847619Y-119628569D02*
X115847619Y-120485711D01*
X115847619Y-120485711D02*
X115895238Y-120580950D01*
X115895238Y-120580950D02*
X115990476Y-120628569D01*
X115990476Y-120628569D02*
X116085714Y-120628569D01*
X116847619Y-120580950D02*
X116752381Y-120628569D01*
X116752381Y-120628569D02*
X116561905Y-120628569D01*
X116561905Y-120628569D02*
X116466667Y-120580950D01*
X116466667Y-120580950D02*
X116419048Y-120533330D01*
X116419048Y-120533330D02*
X116371429Y-120438092D01*
X116371429Y-120438092D02*
X116371429Y-120152378D01*
X116371429Y-120152378D02*
X116419048Y-120057140D01*
X116419048Y-120057140D02*
X116466667Y-120009521D01*
X116466667Y-120009521D02*
X116561905Y-119961902D01*
X116561905Y-119961902D02*
X116752381Y-119961902D01*
X116752381Y-119961902D02*
X116847619Y-120009521D01*
X117276191Y-120628569D02*
X117276191Y-119628569D01*
X117704762Y-120628569D02*
X117704762Y-120104759D01*
X117704762Y-120104759D02*
X117657143Y-120009521D01*
X117657143Y-120009521D02*
X117561905Y-119961902D01*
X117561905Y-119961902D02*
X117419048Y-119961902D01*
X117419048Y-119961902D02*
X117323810Y-120009521D01*
X117323810Y-120009521D02*
X117276191Y-120057140D01*
X113061905Y-112325950D02*
X113204762Y-112373569D01*
X113204762Y-112373569D02*
X113442857Y-112373569D01*
X113442857Y-112373569D02*
X113538095Y-112325950D01*
X113538095Y-112325950D02*
X113585714Y-112278330D01*
X113585714Y-112278330D02*
X113633333Y-112183092D01*
X113633333Y-112183092D02*
X113633333Y-112087854D01*
X113633333Y-112087854D02*
X113585714Y-111992616D01*
X113585714Y-111992616D02*
X113538095Y-111944997D01*
X113538095Y-111944997D02*
X113442857Y-111897378D01*
X113442857Y-111897378D02*
X113252381Y-111849759D01*
X113252381Y-111849759D02*
X113157143Y-111802140D01*
X113157143Y-111802140D02*
X113109524Y-111754521D01*
X113109524Y-111754521D02*
X113061905Y-111659283D01*
X113061905Y-111659283D02*
X113061905Y-111564045D01*
X113061905Y-111564045D02*
X113109524Y-111468807D01*
X113109524Y-111468807D02*
X113157143Y-111421188D01*
X113157143Y-111421188D02*
X113252381Y-111373569D01*
X113252381Y-111373569D02*
X113490476Y-111373569D01*
X113490476Y-111373569D02*
X113633333Y-111421188D01*
X114585714Y-112373569D02*
X114014286Y-112373569D01*
X114300000Y-112373569D02*
X114300000Y-111373569D01*
X114300000Y-111373569D02*
X114204762Y-111516426D01*
X114204762Y-111516426D02*
X114109524Y-111611664D01*
X114109524Y-111611664D02*
X114014286Y-111659283D01*
X115061905Y-112373569D02*
X115252381Y-112373569D01*
X115252381Y-112373569D02*
X115347619Y-112325950D01*
X115347619Y-112325950D02*
X115395238Y-112278330D01*
X115395238Y-112278330D02*
X115490476Y-112135473D01*
X115490476Y-112135473D02*
X115538095Y-111944997D01*
X115538095Y-111944997D02*
X115538095Y-111564045D01*
X115538095Y-111564045D02*
X115490476Y-111468807D01*
X115490476Y-111468807D02*
X115442857Y-111421188D01*
X115442857Y-111421188D02*
X115347619Y-111373569D01*
X115347619Y-111373569D02*
X115157143Y-111373569D01*
X115157143Y-111373569D02*
X115061905Y-111421188D01*
X115061905Y-111421188D02*
X115014286Y-111468807D01*
X115014286Y-111468807D02*
X114966667Y-111564045D01*
X114966667Y-111564045D02*
X114966667Y-111802140D01*
X114966667Y-111802140D02*
X115014286Y-111897378D01*
X115014286Y-111897378D02*
X115061905Y-111944997D01*
X115061905Y-111944997D02*
X115157143Y-111992616D01*
X115157143Y-111992616D02*
X115347619Y-111992616D01*
X115347619Y-111992616D02*
X115442857Y-111944997D01*
X115442857Y-111944997D02*
X115490476Y-111897378D01*
X115490476Y-111897378D02*
X115538095Y-111802140D01*
X149858980Y-127284293D02*
X150358980Y-126418268D01*
X150353851Y-127570008D02*
X150268412Y-126860850D01*
X150853851Y-126703982D02*
X150073266Y-126913140D01*
X151078729Y-127933530D02*
X150972441Y-127927151D01*
X150972441Y-127927151D02*
X150807484Y-127831913D01*
X150807484Y-127831913D02*
X150748815Y-127743054D01*
X150748815Y-127743054D02*
X150755194Y-127636766D01*
X150755194Y-127636766D02*
X150945671Y-127306852D01*
X150945671Y-127306852D02*
X151034529Y-127248183D01*
X151034529Y-127248183D02*
X151140817Y-127254562D01*
X151140817Y-127254562D02*
X151305774Y-127349800D01*
X151305774Y-127349800D02*
X151364443Y-127438659D01*
X151364443Y-127438659D02*
X151358064Y-127544947D01*
X151358064Y-127544947D02*
X151310445Y-127627425D01*
X151310445Y-127627425D02*
X150850433Y-127471809D01*
X151718168Y-127587896D02*
X151591031Y-128284294D01*
X152130561Y-127825991D02*
X151591031Y-128284294D01*
X151591031Y-128284294D02*
X151389504Y-128442871D01*
X151389504Y-128442871D02*
X151324456Y-128460301D01*
X151324456Y-128460301D02*
X151218168Y-128453921D01*
X152109712Y-128528769D02*
X152168381Y-128617627D01*
X152168381Y-128617627D02*
X152333338Y-128712865D01*
X152333338Y-128712865D02*
X152439627Y-128719245D01*
X152439627Y-128719245D02*
X152528485Y-128660576D01*
X152528485Y-128660576D02*
X152552294Y-128619336D01*
X152552294Y-128619336D02*
X152558674Y-128513048D01*
X152558674Y-128513048D02*
X152500005Y-128424190D01*
X152500005Y-128424190D02*
X152376287Y-128352761D01*
X152376287Y-128352761D02*
X152317618Y-128263903D01*
X152317618Y-128263903D02*
X152323998Y-128157615D01*
X152323998Y-128157615D02*
X152347807Y-128116376D01*
X152347807Y-128116376D02*
X152436666Y-128057707D01*
X152436666Y-128057707D02*
X152542954Y-128064086D01*
X152542954Y-128064086D02*
X152666672Y-128135515D01*
X152666672Y-128135515D02*
X152725341Y-128224373D01*
X153079065Y-128373610D02*
X152910689Y-129046199D01*
X152910689Y-129046199D02*
X153313741Y-128729044D01*
X153313741Y-128729044D02*
X153240603Y-129236675D01*
X153240603Y-129236675D02*
X153738894Y-128754563D01*
X153735475Y-129522389D02*
X154068808Y-128945039D01*
X154235475Y-128656364D02*
X154170426Y-128673793D01*
X154170426Y-128673793D02*
X154187856Y-128738842D01*
X154187856Y-128738842D02*
X154252905Y-128721412D01*
X154252905Y-128721412D02*
X154235475Y-128656364D01*
X154235475Y-128656364D02*
X154187856Y-128738842D01*
X154357483Y-129111705D02*
X154687397Y-129302181D01*
X154647868Y-128894459D02*
X154219296Y-129636766D01*
X154219296Y-129636766D02*
X154212916Y-129743054D01*
X154212916Y-129743054D02*
X154271585Y-129831913D01*
X154271585Y-129831913D02*
X154354064Y-129879532D01*
X155037703Y-130219245D02*
X154931415Y-130212865D01*
X154931415Y-130212865D02*
X154766457Y-130117627D01*
X154766457Y-130117627D02*
X154707788Y-130028769D01*
X154707788Y-130028769D02*
X154690359Y-129963720D01*
X154690359Y-129963720D02*
X154696738Y-129857432D01*
X154696738Y-129857432D02*
X154839596Y-129609996D01*
X154839596Y-129609996D02*
X154928454Y-129551327D01*
X154928454Y-129551327D02*
X154993503Y-129533897D01*
X154993503Y-129533897D02*
X155099791Y-129540277D01*
X155099791Y-129540277D02*
X155264748Y-129635515D01*
X155264748Y-129635515D02*
X155323417Y-129724373D01*
X155385047Y-130474770D02*
X155885047Y-129608745D01*
X155756201Y-130689056D02*
X156018106Y-130235423D01*
X156018106Y-130235423D02*
X156024485Y-130129135D01*
X156024485Y-130129135D02*
X155965816Y-130040277D01*
X155965816Y-130040277D02*
X155842098Y-129968848D01*
X155842098Y-129968848D02*
X155735810Y-129962469D01*
X155735810Y-129962469D02*
X155670761Y-129979898D01*
X155886678Y-121177348D02*
X155986586Y-121290016D01*
X155986586Y-121290016D02*
X156192783Y-121409063D01*
X156192783Y-121409063D02*
X156299071Y-121415443D01*
X156299071Y-121415443D02*
X156364120Y-121398013D01*
X156364120Y-121398013D02*
X156452978Y-121339344D01*
X156452978Y-121339344D02*
X156500597Y-121256865D01*
X156500597Y-121256865D02*
X156506977Y-121150577D01*
X156506977Y-121150577D02*
X156489547Y-121085528D01*
X156489547Y-121085528D02*
X156430878Y-120996670D01*
X156430878Y-120996670D02*
X156289730Y-120860193D01*
X156289730Y-120860193D02*
X156231061Y-120771334D01*
X156231061Y-120771334D02*
X156213632Y-120706286D01*
X156213632Y-120706286D02*
X156220011Y-120599997D01*
X156220011Y-120599997D02*
X156267630Y-120517519D01*
X156267630Y-120517519D02*
X156356489Y-120458850D01*
X156356489Y-120458850D02*
X156421538Y-120441420D01*
X156421538Y-120441420D02*
X156527826Y-120447800D01*
X156527826Y-120447800D02*
X156734022Y-120566847D01*
X156734022Y-120566847D02*
X156833931Y-120679515D01*
X157140036Y-120911231D02*
X157205084Y-120893801D01*
X157205084Y-120893801D02*
X157311372Y-120900181D01*
X157311372Y-120900181D02*
X157517569Y-121019228D01*
X157517569Y-121019228D02*
X157576238Y-121108087D01*
X157576238Y-121108087D02*
X157593668Y-121173135D01*
X157593668Y-121173135D02*
X157587288Y-121279424D01*
X157587288Y-121279424D02*
X157539669Y-121361902D01*
X157539669Y-121361902D02*
X157427001Y-121461811D01*
X157427001Y-121461811D02*
X156646415Y-121670968D01*
X156646415Y-121670968D02*
X157182526Y-121980492D01*
X158007312Y-122456682D02*
X157512441Y-122170968D01*
X157759877Y-122313825D02*
X158259877Y-121447800D01*
X158259877Y-121447800D02*
X158105969Y-121523899D01*
X158105969Y-121523899D02*
X157975872Y-121558758D01*
X157975872Y-121558758D02*
X157869584Y-121552378D01*
X130188235Y-121831822D02*
X130447054Y-120865896D01*
X130740193Y-121979718D02*
X130474121Y-121316838D01*
X130999012Y-121013793D02*
X130299158Y-121417854D01*
X131534458Y-122143242D02*
X131430140Y-122164589D01*
X131430140Y-122164589D02*
X131246154Y-122115290D01*
X131246154Y-122115290D02*
X131166486Y-122044644D01*
X131166486Y-122044644D02*
X131145139Y-121940327D01*
X131145139Y-121940327D02*
X131243737Y-121572355D01*
X131243737Y-121572355D02*
X131314382Y-121492687D01*
X131314382Y-121492687D02*
X131418700Y-121471340D01*
X131418700Y-121471340D02*
X131602686Y-121520639D01*
X131602686Y-121520639D02*
X131682354Y-121591284D01*
X131682354Y-121591284D02*
X131703701Y-121695602D01*
X131703701Y-121695602D02*
X131679052Y-121787595D01*
X131679052Y-121787595D02*
X131194438Y-121756341D01*
X132062651Y-121643886D02*
X132120087Y-122349460D01*
X132522616Y-121767133D02*
X132120087Y-122349460D01*
X132120087Y-122349460D02*
X131966471Y-122554793D01*
X131966471Y-122554793D02*
X131908149Y-122588465D01*
X131908149Y-122588465D02*
X131803832Y-122609812D01*
X132684370Y-122451360D02*
X132764038Y-122522006D01*
X132764038Y-122522006D02*
X132948024Y-122571305D01*
X132948024Y-122571305D02*
X133052341Y-122549958D01*
X133052341Y-122549958D02*
X133122987Y-122470290D01*
X133122987Y-122470290D02*
X133135312Y-122424293D01*
X133135312Y-122424293D02*
X133113965Y-122319975D01*
X133113965Y-122319975D02*
X133034297Y-122249330D01*
X133034297Y-122249330D02*
X132896307Y-122212355D01*
X132896307Y-122212355D02*
X132816639Y-122141710D01*
X132816639Y-122141710D02*
X132795292Y-122037392D01*
X132795292Y-122037392D02*
X132807617Y-121991395D01*
X132807617Y-121991395D02*
X132878263Y-121911727D01*
X132878263Y-121911727D02*
X132982580Y-121890380D01*
X132982580Y-121890380D02*
X133120570Y-121927354D01*
X133120570Y-121927354D02*
X133200238Y-121998000D01*
X133580535Y-122050602D02*
X133591975Y-122743851D01*
X133591975Y-122743851D02*
X133899208Y-122333185D01*
X133899208Y-122333185D02*
X133959946Y-122842449D01*
X133959946Y-122842449D02*
X134316478Y-122247797D01*
X134511904Y-122990345D02*
X134684450Y-122346395D01*
X134770723Y-122024419D02*
X134712402Y-122058091D01*
X134712402Y-122058091D02*
X134746073Y-122116412D01*
X134746073Y-122116412D02*
X134804395Y-122082741D01*
X134804395Y-122082741D02*
X134770723Y-122024419D01*
X134770723Y-122024419D02*
X134746073Y-122116412D01*
X135006425Y-122432668D02*
X135374396Y-122531265D01*
X135230687Y-122147666D02*
X135008842Y-122975603D01*
X135008842Y-122975603D02*
X135030189Y-123079921D01*
X135030189Y-123079921D02*
X135109857Y-123150566D01*
X135109857Y-123150566D02*
X135201850Y-123175216D01*
X135950119Y-123326415D02*
X135845801Y-123347762D01*
X135845801Y-123347762D02*
X135661815Y-123298463D01*
X135661815Y-123298463D02*
X135582147Y-123227817D01*
X135582147Y-123227817D02*
X135548476Y-123169496D01*
X135548476Y-123169496D02*
X135527128Y-123065178D01*
X135527128Y-123065178D02*
X135601077Y-122789200D01*
X135601077Y-122789200D02*
X135671723Y-122709531D01*
X135671723Y-122709531D02*
X135730044Y-122675860D01*
X135730044Y-122675860D02*
X135834362Y-122654513D01*
X135834362Y-122654513D02*
X136018347Y-122703811D01*
X136018347Y-122703811D02*
X136098016Y-122774457D01*
X136351763Y-123483334D02*
X136610582Y-122517408D01*
X136765731Y-123594256D02*
X136901303Y-123088295D01*
X136901303Y-123088295D02*
X136879956Y-122983978D01*
X136879956Y-122983978D02*
X136800287Y-122913332D01*
X136800287Y-122913332D02*
X136662298Y-122876358D01*
X136662298Y-122876358D02*
X136557980Y-122897705D01*
X136557980Y-122897705D02*
X136499659Y-122931376D01*
X134429951Y-114372882D02*
X134555615Y-114455853D01*
X134555615Y-114455853D02*
X134785598Y-114517476D01*
X134785598Y-114517476D02*
X134889915Y-114496129D01*
X134889915Y-114496129D02*
X134948236Y-114462457D01*
X134948236Y-114462457D02*
X135018882Y-114382789D01*
X135018882Y-114382789D02*
X135043532Y-114290796D01*
X135043532Y-114290796D02*
X135022185Y-114186479D01*
X135022185Y-114186479D02*
X134988513Y-114128157D01*
X134988513Y-114128157D02*
X134908845Y-114057512D01*
X134908845Y-114057512D02*
X134737184Y-113962216D01*
X134737184Y-113962216D02*
X134657515Y-113891570D01*
X134657515Y-113891570D02*
X134623844Y-113833249D01*
X134623844Y-113833249D02*
X134602497Y-113728931D01*
X134602497Y-113728931D02*
X134627146Y-113636938D01*
X134627146Y-113636938D02*
X134697792Y-113557270D01*
X134697792Y-113557270D02*
X134756113Y-113523599D01*
X134756113Y-113523599D02*
X134860431Y-113502251D01*
X134860431Y-113502251D02*
X135090413Y-113563875D01*
X135090413Y-113563875D02*
X135216078Y-113646846D01*
X135571725Y-113791440D02*
X135630046Y-113757768D01*
X135630046Y-113757768D02*
X135734364Y-113736421D01*
X135734364Y-113736421D02*
X135964346Y-113798045D01*
X135964346Y-113798045D02*
X136044014Y-113868691D01*
X136044014Y-113868691D02*
X136077686Y-113927012D01*
X136077686Y-113927012D02*
X136099033Y-114031329D01*
X136099033Y-114031329D02*
X136074384Y-114123322D01*
X136074384Y-114123322D02*
X135991413Y-114248987D01*
X135991413Y-114248987D02*
X135291559Y-114653048D01*
X135291559Y-114653048D02*
X135889513Y-114813269D01*
X136746286Y-114007565D02*
X136838279Y-114032214D01*
X136838279Y-114032214D02*
X136917947Y-114102860D01*
X136917947Y-114102860D02*
X136951619Y-114161181D01*
X136951619Y-114161181D02*
X136972966Y-114265499D01*
X136972966Y-114265499D02*
X136969664Y-114461810D01*
X136969664Y-114461810D02*
X136908040Y-114691792D01*
X136908040Y-114691792D02*
X136812745Y-114863453D01*
X136812745Y-114863453D02*
X136742099Y-114943121D01*
X136742099Y-114943121D02*
X136683778Y-114976793D01*
X136683778Y-114976793D02*
X136579460Y-114998140D01*
X136579460Y-114998140D02*
X136487467Y-114973491D01*
X136487467Y-114973491D02*
X136407799Y-114902845D01*
X136407799Y-114902845D02*
X136374127Y-114844524D01*
X136374127Y-114844524D02*
X136352780Y-114740206D01*
X136352780Y-114740206D02*
X136356082Y-114543895D01*
X136356082Y-114543895D02*
X136417706Y-114313913D01*
X136417706Y-114313913D02*
X136513001Y-114142252D01*
X136513001Y-114142252D02*
X136583647Y-114062584D01*
X136583647Y-114062584D02*
X136641968Y-114028912D01*
X136641968Y-114028912D02*
X136746286Y-114007565D01*
X91845238Y-82528569D02*
X91845238Y-81528569D01*
X92416666Y-82528569D02*
X91988095Y-81957140D01*
X92416666Y-81528569D02*
X91845238Y-82099997D01*
X93226190Y-82480950D02*
X93130952Y-82528569D01*
X93130952Y-82528569D02*
X92940476Y-82528569D01*
X92940476Y-82528569D02*
X92845238Y-82480950D01*
X92845238Y-82480950D02*
X92797619Y-82385711D01*
X92797619Y-82385711D02*
X92797619Y-82004759D01*
X92797619Y-82004759D02*
X92845238Y-81909521D01*
X92845238Y-81909521D02*
X92940476Y-81861902D01*
X92940476Y-81861902D02*
X93130952Y-81861902D01*
X93130952Y-81861902D02*
X93226190Y-81909521D01*
X93226190Y-81909521D02*
X93273809Y-82004759D01*
X93273809Y-82004759D02*
X93273809Y-82099997D01*
X93273809Y-82099997D02*
X92797619Y-82195235D01*
X93607143Y-81861902D02*
X93845238Y-82528569D01*
X94083333Y-81861902D02*
X93845238Y-82528569D01*
X93845238Y-82528569D02*
X93750000Y-82766664D01*
X93750000Y-82766664D02*
X93702381Y-82814283D01*
X93702381Y-82814283D02*
X93607143Y-82861902D01*
X94416667Y-82480950D02*
X94511905Y-82528569D01*
X94511905Y-82528569D02*
X94702381Y-82528569D01*
X94702381Y-82528569D02*
X94797619Y-82480950D01*
X94797619Y-82480950D02*
X94845238Y-82385711D01*
X94845238Y-82385711D02*
X94845238Y-82338092D01*
X94845238Y-82338092D02*
X94797619Y-82242854D01*
X94797619Y-82242854D02*
X94702381Y-82195235D01*
X94702381Y-82195235D02*
X94559524Y-82195235D01*
X94559524Y-82195235D02*
X94464286Y-82147616D01*
X94464286Y-82147616D02*
X94416667Y-82052378D01*
X94416667Y-82052378D02*
X94416667Y-82004759D01*
X94416667Y-82004759D02*
X94464286Y-81909521D01*
X94464286Y-81909521D02*
X94559524Y-81861902D01*
X94559524Y-81861902D02*
X94702381Y-81861902D01*
X94702381Y-81861902D02*
X94797619Y-81909521D01*
X95178572Y-81861902D02*
X95369048Y-82528569D01*
X95369048Y-82528569D02*
X95559524Y-82052378D01*
X95559524Y-82052378D02*
X95750000Y-82528569D01*
X95750000Y-82528569D02*
X95940476Y-81861902D01*
X96321429Y-82528569D02*
X96321429Y-81861902D01*
X96321429Y-81528569D02*
X96273810Y-81576188D01*
X96273810Y-81576188D02*
X96321429Y-81623807D01*
X96321429Y-81623807D02*
X96369048Y-81576188D01*
X96369048Y-81576188D02*
X96321429Y-81528569D01*
X96321429Y-81528569D02*
X96321429Y-81623807D01*
X96654762Y-81861902D02*
X97035714Y-81861902D01*
X96797619Y-81528569D02*
X96797619Y-82385711D01*
X96797619Y-82385711D02*
X96845238Y-82480950D01*
X96845238Y-82480950D02*
X96940476Y-82528569D01*
X96940476Y-82528569D02*
X97035714Y-82528569D01*
X97797619Y-82480950D02*
X97702381Y-82528569D01*
X97702381Y-82528569D02*
X97511905Y-82528569D01*
X97511905Y-82528569D02*
X97416667Y-82480950D01*
X97416667Y-82480950D02*
X97369048Y-82433330D01*
X97369048Y-82433330D02*
X97321429Y-82338092D01*
X97321429Y-82338092D02*
X97321429Y-82052378D01*
X97321429Y-82052378D02*
X97369048Y-81957140D01*
X97369048Y-81957140D02*
X97416667Y-81909521D01*
X97416667Y-81909521D02*
X97511905Y-81861902D01*
X97511905Y-81861902D02*
X97702381Y-81861902D01*
X97702381Y-81861902D02*
X97797619Y-81909521D01*
X98226191Y-82528569D02*
X98226191Y-81528569D01*
X98654762Y-82528569D02*
X98654762Y-82004759D01*
X98654762Y-82004759D02*
X98607143Y-81909521D01*
X98607143Y-81909521D02*
X98511905Y-81861902D01*
X98511905Y-81861902D02*
X98369048Y-81861902D01*
X98369048Y-81861902D02*
X98273810Y-81909521D01*
X98273810Y-81909521D02*
X98226191Y-81957140D01*
X94488095Y-74225950D02*
X94630952Y-74273569D01*
X94630952Y-74273569D02*
X94869047Y-74273569D01*
X94869047Y-74273569D02*
X94964285Y-74225950D01*
X94964285Y-74225950D02*
X95011904Y-74178330D01*
X95011904Y-74178330D02*
X95059523Y-74083092D01*
X95059523Y-74083092D02*
X95059523Y-73987854D01*
X95059523Y-73987854D02*
X95011904Y-73892616D01*
X95011904Y-73892616D02*
X94964285Y-73844997D01*
X94964285Y-73844997D02*
X94869047Y-73797378D01*
X94869047Y-73797378D02*
X94678571Y-73749759D01*
X94678571Y-73749759D02*
X94583333Y-73702140D01*
X94583333Y-73702140D02*
X94535714Y-73654521D01*
X94535714Y-73654521D02*
X94488095Y-73559283D01*
X94488095Y-73559283D02*
X94488095Y-73464045D01*
X94488095Y-73464045D02*
X94535714Y-73368807D01*
X94535714Y-73368807D02*
X94583333Y-73321188D01*
X94583333Y-73321188D02*
X94678571Y-73273569D01*
X94678571Y-73273569D02*
X94916666Y-73273569D01*
X94916666Y-73273569D02*
X95059523Y-73321188D01*
X95535714Y-74273569D02*
X95726190Y-74273569D01*
X95726190Y-74273569D02*
X95821428Y-74225950D01*
X95821428Y-74225950D02*
X95869047Y-74178330D01*
X95869047Y-74178330D02*
X95964285Y-74035473D01*
X95964285Y-74035473D02*
X96011904Y-73844997D01*
X96011904Y-73844997D02*
X96011904Y-73464045D01*
X96011904Y-73464045D02*
X95964285Y-73368807D01*
X95964285Y-73368807D02*
X95916666Y-73321188D01*
X95916666Y-73321188D02*
X95821428Y-73273569D01*
X95821428Y-73273569D02*
X95630952Y-73273569D01*
X95630952Y-73273569D02*
X95535714Y-73321188D01*
X95535714Y-73321188D02*
X95488095Y-73368807D01*
X95488095Y-73368807D02*
X95440476Y-73464045D01*
X95440476Y-73464045D02*
X95440476Y-73702140D01*
X95440476Y-73702140D02*
X95488095Y-73797378D01*
X95488095Y-73797378D02*
X95535714Y-73844997D01*
X95535714Y-73844997D02*
X95630952Y-73892616D01*
X95630952Y-73892616D02*
X95821428Y-73892616D01*
X95821428Y-73892616D02*
X95916666Y-73844997D01*
X95916666Y-73844997D02*
X95964285Y-73797378D01*
X95964285Y-73797378D02*
X96011904Y-73702140D01*
G04 #@! TO.C,S5*
X125850000Y-47268750D02*
X140850000Y-47268750D01*
X125850000Y-62268750D02*
X125850000Y-47268750D01*
X140850000Y-47268750D02*
X140850000Y-62268750D01*
X140850000Y-62268750D02*
X125850000Y-62268750D01*
G04 #@! TO.C,S11*
X125850000Y-66318750D02*
X140850000Y-66318750D01*
X125850000Y-81318750D02*
X125850000Y-66318750D01*
X140850000Y-66318750D02*
X140850000Y-81318750D01*
X140850000Y-81318750D02*
X125850000Y-81318750D01*
G04 #@! TO.C,S7*
X49650000Y-68700000D02*
X64650000Y-68700000D01*
X49650000Y-83700000D02*
X49650000Y-68700000D01*
X64650000Y-68700000D02*
X64650000Y-83700000D01*
X64650000Y-83700000D02*
X49650000Y-83700000D01*
G04 #@! TO.C,S15*
X87750000Y-85368750D02*
X102750000Y-85368750D01*
X87750000Y-100368750D02*
X87750000Y-85368750D01*
X102750000Y-85368750D02*
X102750000Y-100368750D01*
X102750000Y-100368750D02*
X87750000Y-100368750D01*
D11*
G04 #@! TO.C,J1*
X163496875Y-96831250D02*
X174696875Y-96831250D01*
X163496875Y-101331250D02*
X163496875Y-96831250D01*
X163496875Y-103931250D02*
X163496875Y-102931250D01*
X174696875Y-96831250D02*
X174696875Y-97131250D01*
X174696875Y-97131250D02*
X177496875Y-97131250D01*
X174696875Y-102731250D02*
X174696875Y-103931250D01*
X174696875Y-103931250D02*
X163496875Y-103931250D01*
X177496875Y-97131250D02*
X177496875Y-102731250D01*
X177496875Y-102731250D02*
X174696875Y-102731250D01*
D12*
X165832285Y-98531250D02*
G75*
G02*
X165161465Y-98531250I-335410J0D01*
G01*
X165161465Y-98531250D02*
G75*
G02*
X165832285Y-98531250I335410J0D01*
G01*
D10*
G04 #@! TO.C,S4*
X106800000Y-44887500D02*
X121800000Y-44887500D01*
X106800000Y-59887500D02*
X106800000Y-44887500D01*
X121800000Y-44887500D02*
X121800000Y-59887500D01*
X121800000Y-59887500D02*
X106800000Y-59887500D01*
G04 #@! TO.C,S18*
X144900000Y-87750000D02*
X159900000Y-87750000D01*
X144900000Y-102750000D02*
X144900000Y-87750000D01*
X159900000Y-87750000D02*
X159900000Y-102750000D01*
X159900000Y-102750000D02*
X144900000Y-102750000D01*
G04 #@! TO.C,S6*
X144900000Y-49650000D02*
X159900000Y-49650000D01*
X144900000Y-64650000D02*
X144900000Y-49650000D01*
X159900000Y-49650000D02*
X159900000Y-64650000D01*
X159900000Y-64650000D02*
X144900000Y-64650000D01*
G04 #@! TO.C,S17*
X125850000Y-85368750D02*
X140850000Y-85368750D01*
X125850000Y-100368750D02*
X125850000Y-85368750D01*
X140850000Y-85368750D02*
X140850000Y-100368750D01*
X140850000Y-100368750D02*
X125850000Y-100368750D01*
G04 #@! TO.C,S14*
X68700000Y-87750000D02*
X83700000Y-87750000D01*
X68700000Y-102750000D02*
X68700000Y-87750000D01*
X83700000Y-87750000D02*
X83700000Y-102750000D01*
X83700000Y-102750000D02*
X68700000Y-102750000D01*
G04 #@! TO.C,S8*
X68700000Y-68700000D02*
X83700000Y-68700000D01*
X68700000Y-83700000D02*
X68700000Y-68700000D01*
X83700000Y-68700000D02*
X83700000Y-83700000D01*
X83700000Y-83700000D02*
X68700000Y-83700000D01*
G04 #@! TO.C,S2*
X68700000Y-49650000D02*
X83700000Y-49650000D01*
X68700000Y-64650000D02*
X68700000Y-49650000D01*
X83700000Y-49650000D02*
X83700000Y-64650000D01*
X83700000Y-64650000D02*
X68700000Y-64650000D01*
G04 #@! TO.C,S16*
X106800000Y-82987500D02*
X121800000Y-82987500D01*
X106800000Y-97987500D02*
X106800000Y-82987500D01*
X121800000Y-82987500D02*
X121800000Y-97987500D01*
X121800000Y-97987500D02*
X106800000Y-97987500D01*
G04 #@! TO.C,S10*
X106800000Y-63937500D02*
X121800000Y-63937500D01*
X106800000Y-78937500D02*
X106800000Y-63937500D01*
X121800000Y-63937500D02*
X121800000Y-78937500D01*
X121800000Y-78937500D02*
X106800000Y-78937500D01*
G04 #@! TO.C,S12*
X144900000Y-68700000D02*
X159900000Y-68700000D01*
X144900000Y-83700000D02*
X144900000Y-68700000D01*
X159900000Y-68700000D02*
X159900000Y-83700000D01*
X159900000Y-83700000D02*
X144900000Y-83700000D01*
G04 #@! TO.C,S1*
X49650000Y-49650000D02*
X64650000Y-49650000D01*
X49650000Y-64650000D02*
X49650000Y-49650000D01*
X64650000Y-49650000D02*
X64650000Y-64650000D01*
X64650000Y-64650000D02*
X49650000Y-64650000D01*
G04 #@! TO.C,S3*
X87750000Y-47268750D02*
X102750000Y-47268750D01*
X87750000Y-62268750D02*
X87750000Y-47268750D01*
X102750000Y-47268750D02*
X102750000Y-62268750D01*
X102750000Y-62268750D02*
X87750000Y-62268750D01*
G04 #@! TO.C,S13*
X49650000Y-87750000D02*
X64650000Y-87750000D01*
X49650000Y-102750000D02*
X49650000Y-87750000D01*
X64650000Y-87750000D02*
X64650000Y-102750000D01*
X64650000Y-102750000D02*
X49650000Y-102750000D01*
G04 #@! TO.C,S19*
X106800000Y-104418750D02*
X121800000Y-104418750D01*
X106800000Y-119418750D02*
X106800000Y-104418750D01*
X121800000Y-104418750D02*
X121800000Y-119418750D01*
X121800000Y-119418750D02*
X106800000Y-119418750D01*
G04 #@! TO.C,S21*
X146917309Y-124188941D02*
X154417309Y-111198559D01*
X154417309Y-111198559D02*
X167407691Y-118698559D01*
X159907691Y-131688941D02*
X146917309Y-124188941D01*
X167407691Y-118698559D02*
X159907691Y-131688941D01*
G04 #@! TO.C,S20*
X126545663Y-119603301D02*
X130427949Y-105114413D01*
X130427949Y-105114413D02*
X144916837Y-108996699D01*
X141034551Y-123485587D02*
X126545663Y-119603301D01*
X144916837Y-108996699D02*
X141034551Y-123485587D01*
G04 #@! TO.C,S9*
X87750000Y-66318750D02*
X102750000Y-66318750D01*
X87750000Y-81318750D02*
X87750000Y-66318750D01*
X102750000Y-66318750D02*
X102750000Y-81318750D01*
X102750000Y-81318750D02*
X87750000Y-81318750D01*
G04 #@! TD*
M02*
