G04 #@! TF.GenerationSoftware,KiCad,Pcbnew,8.0.4*
G04 #@! TF.CreationDate,2024-09-10T22:18:46+03:00*
G04 #@! TF.ProjectId,muikku42,6d75696b-6b75-4343-922e-6b696361645f,rev?*
G04 #@! TF.SameCoordinates,Original*
G04 #@! TF.FileFunction,Soldermask,Top*
G04 #@! TF.FilePolarity,Negative*
%FSLAX46Y46*%
G04 Gerber Fmt 4.6, Leading zero omitted, Abs format (unit mm)*
G04 Created by KiCad (PCBNEW 8.0.4) date 2024-09-10 22:18:46*
%MOMM*%
%LPD*%
G01*
G04 APERTURE LIST*
G04 Aperture macros list*
%AMHorizOval*
0 Thick line with rounded ends*
0 $1 width*
0 $2 $3 position (X,Y) of the first rounded end (center of the circle)*
0 $4 $5 position (X,Y) of the second rounded end (center of the circle)*
0 Add line between two ends*
20,1,$1,$2,$3,$4,$5,0*
0 Add two circle primitives to create the rounded ends*
1,1,$1,$2,$3*
1,1,$1,$4,$5*%
%AMRotRect*
0 Rectangle, with rotation*
0 The origin of the aperture is its center*
0 $1 length*
0 $2 width*
0 $3 Rotation angle, in degrees counterclockwise*
0 Add horizontal line*
21,1,$1,$2,0,0,$3*%
G04 Aperture macros list end*
%ADD10R,1.600000X1.600000*%
%ADD11O,1.600000X1.600000*%
%ADD12RotRect,1.600000X1.600000X150.000000*%
%ADD13HorizOval,1.600000X0.000000X0.000000X0.000000X0.000000X0*%
%ADD14C,1.701800*%
%ADD15C,3.987800*%
%ADD16C,2.286000*%
%ADD17C,2.200000*%
%ADD18C,1.200000*%
%ADD19O,2.000000X1.400000*%
%ADD20R,2.000000X1.400000*%
%ADD21RotRect,1.600000X1.600000X165.000000*%
%ADD22HorizOval,1.600000X0.000000X0.000000X0.000000X0.000000X0*%
%ADD23O,2.500000X1.500000*%
%ADD24O,1.500000X2.500000*%
G04 APERTURE END LIST*
D10*
G04 #@! TO.C,D12*
X156209999Y-85725001D03*
D11*
X148589999Y-85725001D03*
G04 #@! TD*
D10*
G04 #@! TO.C,D17*
X137159999Y-102393751D03*
D11*
X129539999Y-102393751D03*
G04 #@! TD*
D12*
G04 #@! TO.C,D21*
X155699556Y-131683125D03*
D13*
X149100442Y-127873125D03*
G04 #@! TD*
D10*
G04 #@! TO.C,D2*
X80009999Y-66675001D03*
D11*
X72389999Y-66675001D03*
G04 #@! TD*
D14*
G04 #@! TO.C,S5*
X128270000Y-54768750D03*
D15*
X133350000Y-54768750D03*
D14*
X138430000Y-54768750D03*
D16*
X129540000Y-52228750D03*
X130810000Y-49688750D03*
X135890000Y-49688750D03*
X137160000Y-52228750D03*
G04 #@! TD*
D10*
G04 #@! TO.C,D4*
X118109999Y-61912501D03*
D11*
X110489999Y-61912501D03*
G04 #@! TD*
D14*
G04 #@! TO.C,S11*
X128270000Y-73818750D03*
D15*
X133350000Y-73818750D03*
D14*
X138430000Y-73818750D03*
D16*
X129540000Y-71278750D03*
X130810000Y-68738750D03*
X135890000Y-68738750D03*
X137160000Y-71278750D03*
G04 #@! TD*
D10*
G04 #@! TO.C,D13*
X60959999Y-104775001D03*
D11*
X53339999Y-104775001D03*
G04 #@! TD*
D17*
G04 #@! TO.C,REF\u002A\u002A*
X160734375Y-134540625D03*
G04 #@! TD*
D14*
G04 #@! TO.C,S7*
X52070000Y-76200000D03*
D15*
X57150000Y-76200000D03*
D14*
X62230000Y-76200000D03*
D16*
X53340000Y-73660000D03*
X54610000Y-71120000D03*
X59690000Y-71120000D03*
X60960000Y-73660000D03*
G04 #@! TD*
D14*
G04 #@! TO.C,S15*
X90170000Y-92868750D03*
D15*
X95250000Y-92868750D03*
D14*
X100330000Y-92868750D03*
D16*
X91440000Y-90328750D03*
X92710000Y-87788750D03*
X97790000Y-87788750D03*
X99060000Y-90328750D03*
G04 #@! TD*
D18*
G04 #@! TO.C,J1*
X171196875Y-99931250D03*
X164196875Y-99931250D03*
D19*
X172496875Y-103131250D03*
X169496875Y-97631250D03*
X172496875Y-97631250D03*
X163996875Y-102131250D03*
D20*
X165496875Y-97631250D03*
G04 #@! TD*
D10*
G04 #@! TO.C,D15*
X99059999Y-102393751D03*
D11*
X91439999Y-102393751D03*
G04 #@! TD*
D10*
G04 #@! TO.C,D9*
X99059999Y-83343751D03*
D11*
X91439999Y-83343751D03*
G04 #@! TD*
D10*
G04 #@! TO.C,D11*
X137159999Y-83343751D03*
D11*
X129539999Y-83343751D03*
G04 #@! TD*
D10*
G04 #@! TO.C,D7*
X60959999Y-85725001D03*
D11*
X53339999Y-85725001D03*
G04 #@! TD*
D17*
G04 #@! TO.C,REF\u002A\u002A*
X104775000Y-121443750D03*
G04 #@! TD*
D21*
G04 #@! TO.C,D20*
X137030177Y-123620476D03*
D22*
X129669822Y-121648275D03*
G04 #@! TD*
D10*
G04 #@! TO.C,D10*
X118109999Y-80962501D03*
D11*
X110489999Y-80962501D03*
G04 #@! TD*
D10*
G04 #@! TO.C,D18*
X156209999Y-104775000D03*
D11*
X148589999Y-104775000D03*
G04 #@! TD*
D14*
G04 #@! TO.C,S4*
X109220000Y-52387500D03*
D15*
X114300000Y-52387500D03*
D14*
X119380000Y-52387500D03*
D16*
X110490000Y-49847500D03*
X111760000Y-47307500D03*
X116840000Y-47307500D03*
X118110000Y-49847500D03*
G04 #@! TD*
D10*
G04 #@! TO.C,D3*
X99059999Y-64293751D03*
D11*
X91439999Y-64293751D03*
G04 #@! TD*
D14*
G04 #@! TO.C,S18*
X147320000Y-95250000D03*
D15*
X152400000Y-95250000D03*
D14*
X157480000Y-95250000D03*
D16*
X148590000Y-92710000D03*
X149860000Y-90170000D03*
X154940000Y-90170000D03*
X156210000Y-92710000D03*
G04 #@! TD*
D14*
G04 #@! TO.C,S6*
X147320000Y-57150000D03*
D15*
X152400000Y-57150000D03*
D14*
X157480000Y-57150000D03*
D16*
X148590000Y-54610000D03*
X149860000Y-52070000D03*
X154940000Y-52070000D03*
X156210000Y-54610000D03*
G04 #@! TD*
D17*
G04 #@! TO.C,REF\u002A\u002A*
X161925000Y-47625000D03*
G04 #@! TD*
D14*
G04 #@! TO.C,S17*
X128270000Y-92868750D03*
D15*
X133350000Y-92868750D03*
D14*
X138430000Y-92868750D03*
D16*
X129540000Y-90328750D03*
X130810000Y-87788750D03*
X135890000Y-87788750D03*
X137160000Y-90328750D03*
G04 #@! TD*
D14*
G04 #@! TO.C,S14*
X71120000Y-95250000D03*
D15*
X76200000Y-95250000D03*
D14*
X81280000Y-95250000D03*
D16*
X72390000Y-92710000D03*
X73660000Y-90170000D03*
X78740000Y-90170000D03*
X80010000Y-92710000D03*
G04 #@! TD*
D17*
G04 #@! TO.C,REF\u002A\u002A*
X47625000Y-47625000D03*
G04 #@! TD*
D10*
G04 #@! TO.C,D1*
X60959999Y-66675001D03*
D11*
X53339999Y-66675001D03*
G04 #@! TD*
D17*
G04 #@! TO.C,REF\u002A\u002A*
X104775000Y-82153125D03*
G04 #@! TD*
D10*
G04 #@! TO.C,D16*
X118109999Y-100012501D03*
D11*
X110489999Y-100012501D03*
G04 #@! TD*
D14*
G04 #@! TO.C,S8*
X71120000Y-76200000D03*
D15*
X76200000Y-76200000D03*
D14*
X81280000Y-76200000D03*
D16*
X72390000Y-73660000D03*
X73660000Y-71120000D03*
X78740000Y-71120000D03*
X80010000Y-73660000D03*
G04 #@! TD*
D10*
G04 #@! TO.C,D5*
X137159999Y-64293751D03*
D11*
X129539999Y-64293751D03*
G04 #@! TD*
D10*
G04 #@! TO.C,D14*
X80009999Y-104775001D03*
D11*
X72389999Y-104775001D03*
G04 #@! TD*
D14*
G04 #@! TO.C,S2*
X71120000Y-57150000D03*
D15*
X76200000Y-57150000D03*
D14*
X81280000Y-57150000D03*
D16*
X72390000Y-54610000D03*
X73660000Y-52070000D03*
X78740000Y-52070000D03*
X80010000Y-54610000D03*
G04 #@! TD*
D23*
G04 #@! TO.C,U1*
X180046250Y-53419375D03*
X180046250Y-55959375D03*
X180046250Y-58499375D03*
X180046250Y-61039375D03*
X180046250Y-63579375D03*
X180046250Y-66119375D03*
X180046250Y-68659375D03*
X180046250Y-71199375D03*
X180046250Y-73739375D03*
D24*
X177006250Y-74239375D03*
X174466250Y-74239375D03*
X171926250Y-74239375D03*
X169386250Y-74239375D03*
X166846250Y-74239375D03*
D23*
X163806250Y-73739375D03*
X163806250Y-71199375D03*
X163806250Y-68659375D03*
X163806250Y-66119375D03*
X163806250Y-63579375D03*
X163806250Y-61039375D03*
X163806250Y-58499375D03*
X163806250Y-55959375D03*
X163806250Y-53419375D03*
G04 #@! TD*
D14*
G04 #@! TO.C,S16*
X109220000Y-90487500D03*
D15*
X114300000Y-90487500D03*
D14*
X119380000Y-90487500D03*
D16*
X110490000Y-87947500D03*
X111760000Y-85407500D03*
X116840000Y-85407500D03*
X118110000Y-87947500D03*
G04 #@! TD*
D14*
G04 #@! TO.C,S10*
X109220000Y-71437500D03*
D15*
X114300000Y-71437500D03*
D14*
X119380000Y-71437500D03*
D16*
X110490000Y-68897500D03*
X111760000Y-66357500D03*
X116840000Y-66357500D03*
X118110000Y-68897500D03*
G04 #@! TD*
D14*
G04 #@! TO.C,S12*
X147320000Y-76200000D03*
D15*
X152400000Y-76200000D03*
D14*
X157480000Y-76200000D03*
D16*
X148590000Y-73660000D03*
X149860000Y-71120000D03*
X154940000Y-71120000D03*
X156210000Y-73660000D03*
G04 #@! TD*
D14*
G04 #@! TO.C,S1*
X52070000Y-57150000D03*
D15*
X57150000Y-57150000D03*
D14*
X62230000Y-57150000D03*
D16*
X53340000Y-54610000D03*
X54610000Y-52070000D03*
X59690000Y-52070000D03*
X60960000Y-54610000D03*
G04 #@! TD*
D17*
G04 #@! TO.C,REF\u002A\u002A*
X47625000Y-104775000D03*
G04 #@! TD*
D14*
G04 #@! TO.C,S3*
X90170000Y-54768750D03*
D15*
X95250000Y-54768750D03*
D14*
X100330000Y-54768750D03*
D16*
X91440000Y-52228750D03*
X92710000Y-49688750D03*
X97790000Y-49688750D03*
X99060000Y-52228750D03*
G04 #@! TD*
D14*
G04 #@! TO.C,S13*
X52070000Y-95250000D03*
D15*
X57150000Y-95250000D03*
D14*
X62230000Y-95250000D03*
D16*
X53340000Y-92710000D03*
X54610000Y-90170000D03*
X59690000Y-90170000D03*
X60960000Y-92710000D03*
G04 #@! TD*
D10*
G04 #@! TO.C,D19*
X118109999Y-121443751D03*
D11*
X110489999Y-121443751D03*
G04 #@! TD*
D10*
G04 #@! TO.C,D8*
X80009999Y-85725001D03*
D11*
X72389999Y-85725001D03*
G04 #@! TD*
D14*
G04 #@! TO.C,S19*
X109220000Y-111918750D03*
D15*
X114300000Y-111918750D03*
D14*
X119380000Y-111918750D03*
D16*
X110490000Y-109378750D03*
X111760000Y-106838750D03*
X116840000Y-106838750D03*
X118110000Y-109378750D03*
G04 #@! TD*
D14*
G04 #@! TO.C,S21*
X152763091Y-118903750D03*
D15*
X157162500Y-121443750D03*
D14*
X161561909Y-123983750D03*
D16*
X155132943Y-117339045D03*
X157502795Y-115774341D03*
X161902205Y-118314341D03*
X161732057Y-121149045D03*
G04 #@! TD*
D10*
G04 #@! TO.C,D6*
X156209999Y-66675001D03*
D11*
X148589999Y-66675001D03*
G04 #@! TD*
D14*
G04 #@! TO.C,S20*
X130824347Y-112985199D03*
D15*
X135731250Y-114300000D03*
D14*
X140638153Y-115614801D03*
D16*
X132708473Y-110860448D03*
X134592599Y-108735696D03*
X139499502Y-110050497D03*
X140068828Y-112832649D03*
G04 #@! TD*
D14*
G04 #@! TO.C,S9*
X90170000Y-73818750D03*
D15*
X95250000Y-73818750D03*
D14*
X100330000Y-73818750D03*
D16*
X91440000Y-71278750D03*
X92710000Y-68738750D03*
X97790000Y-68738750D03*
X99060000Y-71278750D03*
G04 #@! TD*
D18*
G04 #@! TO.C,J2*
X164196878Y-91678122D03*
X171196878Y-91678122D03*
D19*
X172496878Y-88478122D03*
X169496878Y-93978122D03*
X172496878Y-93978122D03*
X163996878Y-89478122D03*
D20*
X165496878Y-93978122D03*
G04 #@! TD*
M02*
