M48
; DRILL file {KiCad 8.0.4} date 2024-09-10T22:18:47+0300
; FORMAT={-:-/ absolute / metric / decimal}
; #@! TF.CreationDate,2024-09-10T22:18:47+03:00
; #@! TF.GenerationSoftware,Kicad,Pcbnew,8.0.4
; #@! TF.FileFunction,Plated,1,2,PTH
FMAT,2
METRIC
; #@! TA.AperFunction,Plated,PTH,ViaDrill
T1C0.300
; #@! TA.AperFunction,Plated,PTH,ComponentDrill
T2C0.600
; #@! TA.AperFunction,Plated,PTH,ComponentDrill
T3C0.800
; #@! TA.AperFunction,Plated,PTH,ComponentDrill
T4C1.000
; #@! TA.AperFunction,Plated,PTH,ComponentDrill
T5C1.499
%
G90
G05
T1
X159.0Y-77.634
X159.4Y-85.725
X164.306Y-83.344
X165.306Y-77.634
X180.975Y-50.006
T3
X53.34Y-66.675
X53.34Y-85.725
X53.34Y-104.775
X60.96Y-66.675
X60.96Y-85.725
X60.96Y-104.775
X72.39Y-66.675
X72.39Y-85.725
X72.39Y-104.775
X80.01Y-66.675
X80.01Y-85.725
X80.01Y-104.775
X91.44Y-64.294
X91.44Y-83.344
X91.44Y-102.394
X99.06Y-64.294
X99.06Y-83.344
X99.06Y-102.394
X110.49Y-61.913
X110.49Y-80.963
X110.49Y-100.013
X110.49Y-121.444
X118.11Y-61.913
X118.11Y-80.963
X118.11Y-100.013
X118.11Y-121.444
X129.54Y-64.294
X129.54Y-83.344
X129.54Y-102.394
X129.67Y-121.648
X137.03Y-123.62
X137.16Y-64.294
X137.16Y-83.344
X137.16Y-102.394
X148.59Y-66.675
X148.59Y-85.725
X148.59Y-104.775
X149.1Y-127.873
X155.7Y-131.683
X156.21Y-66.675
X156.21Y-85.725
X156.21Y-104.775
T4
X164.306Y-53.419
X164.306Y-55.959
X164.306Y-58.499
X164.306Y-61.039
X164.306Y-63.579
X164.306Y-66.119
X164.306Y-68.659
X164.306Y-71.199
X164.306Y-73.739
X166.846Y-73.739
X169.386Y-73.739
X171.926Y-73.739
X174.466Y-73.739
X177.006Y-73.739
X179.546Y-53.419
X179.546Y-55.959
X179.546Y-58.499
X179.546Y-61.039
X179.546Y-63.579
X179.546Y-66.119
X179.546Y-68.659
X179.546Y-71.199
X179.546Y-73.739
T5
X53.34Y-54.61
X53.34Y-73.66
X53.34Y-92.71
X54.61Y-52.07
X54.61Y-71.12
X54.61Y-90.17
X59.69Y-52.07
X59.69Y-71.12
X59.69Y-90.17
X60.96Y-54.61
X60.96Y-73.66
X60.96Y-92.71
X72.39Y-54.61
X72.39Y-73.66
X72.39Y-92.71
X73.66Y-52.07
X73.66Y-71.12
X73.66Y-90.17
X78.74Y-52.07
X78.74Y-71.12
X78.74Y-90.17
X80.01Y-54.61
X80.01Y-73.66
X80.01Y-92.71
X91.44Y-52.229
X91.44Y-71.279
X91.44Y-90.329
X92.71Y-49.689
X92.71Y-68.739
X92.71Y-87.789
X97.79Y-49.689
X97.79Y-68.739
X97.79Y-87.789
X99.06Y-52.229
X99.06Y-71.279
X99.06Y-90.329
X110.49Y-49.847
X110.49Y-68.897
X110.49Y-87.947
X110.49Y-109.379
X111.76Y-47.307
X111.76Y-66.358
X111.76Y-85.407
X111.76Y-106.839
X116.84Y-47.307
X116.84Y-66.358
X116.84Y-85.407
X116.84Y-106.839
X118.11Y-49.847
X118.11Y-68.897
X118.11Y-87.947
X118.11Y-109.379
X129.54Y-52.229
X129.54Y-71.279
X129.54Y-90.329
X130.81Y-49.689
X130.81Y-68.739
X130.81Y-87.789
X132.708Y-110.86
X134.593Y-108.736
X135.89Y-49.689
X135.89Y-68.739
X135.89Y-87.789
X137.16Y-52.229
X137.16Y-71.279
X137.16Y-90.329
X139.5Y-110.05
X140.069Y-112.833
X148.59Y-54.61
X148.59Y-73.66
X148.59Y-92.71
X149.86Y-52.07
X149.86Y-71.12
X149.86Y-90.17
X154.94Y-52.07
X154.94Y-71.12
X154.94Y-90.17
X155.133Y-117.339
X156.21Y-54.61
X156.21Y-73.66
X156.21Y-92.71
X157.503Y-115.774
X161.732Y-121.149
X161.902Y-118.314
T2
G00X164.297Y-102.131
M15
G01X163.697Y-102.131
M16
G05
G00X164.297Y-89.478
M15
G01X163.697Y-89.478
M16
G05
G00X165.797Y-97.631
M15
G01X165.197Y-97.631
M16
G05
G00X165.797Y-93.978
M15
G01X165.197Y-93.978
M16
G05
G00X169.797Y-97.631
M15
G01X169.197Y-97.631
M16
G05
G00X169.797Y-93.978
M15
G01X169.197Y-93.978
M16
G05
G00X172.797Y-97.631
M15
G01X172.197Y-97.631
M16
G05
G00X172.797Y-103.131
M15
G01X172.197Y-103.131
M16
G05
G00X172.797Y-88.478
M15
G01X172.197Y-88.478
M16
G05
G00X172.797Y-93.978
M15
G01X172.197Y-93.978
M16
G05
M30
