G04 #@! TF.GenerationSoftware,KiCad,Pcbnew,8.0.4*
G04 #@! TF.CreationDate,2024-09-10T22:18:47+03:00*
G04 #@! TF.ProjectId,muikku42,6d75696b-6b75-4343-922e-6b696361645f,rev?*
G04 #@! TF.SameCoordinates,Original*
G04 #@! TF.FileFunction,Other,User*
%FSLAX46Y46*%
G04 Gerber Fmt 4.6, Leading zero omitted, Abs format (unit mm)*
G04 Created by KiCad (PCBNEW 8.0.4) date 2024-09-10 22:18:47*
%MOMM*%
%LPD*%
G01*
G04 APERTURE LIST*
%ADD10C,0.050000*%
G04 APERTURE END LIST*
D10*
G04 #@! TO.C,D12*
X147539999Y-84475001D02*
X147539999Y-86975001D01*
X147539999Y-86975001D02*
X157259999Y-86975001D01*
X157259999Y-84475001D02*
X147539999Y-84475001D01*
X157259999Y-86975001D02*
X157259999Y-84475001D01*
G04 #@! TO.C,D17*
X128489999Y-101143751D02*
X128489999Y-103643751D01*
X128489999Y-103643751D02*
X138209999Y-103643751D01*
X138209999Y-101143751D02*
X128489999Y-101143751D01*
X138209999Y-103643751D02*
X138209999Y-101143751D01*
G04 #@! TO.C,D21*
X147566116Y-128430657D02*
X155983883Y-133290657D01*
X148816116Y-126265593D02*
X147566116Y-128430657D01*
X155983883Y-133290657D02*
X157233883Y-131125593D01*
X157233883Y-131125593D02*
X148816116Y-126265593D01*
G04 #@! TO.C,D2*
X71339999Y-65425001D02*
X71339999Y-67925001D01*
X71339999Y-67925001D02*
X81059999Y-67925001D01*
X81059999Y-65425001D02*
X71339999Y-65425001D01*
X81059999Y-67925001D02*
X81059999Y-65425001D01*
G04 #@! TO.C,D4*
X109439999Y-60662501D02*
X109439999Y-63162501D01*
X109439999Y-63162501D02*
X119159999Y-63162501D01*
X119159999Y-60662501D02*
X109439999Y-60662501D01*
X119159999Y-63162501D02*
X119159999Y-60662501D01*
G04 #@! TO.C,D13*
X52289999Y-103525001D02*
X52289999Y-106025001D01*
X52289999Y-106025001D02*
X62009999Y-106025001D01*
X62009999Y-103525001D02*
X52289999Y-103525001D01*
X62009999Y-106025001D02*
X62009999Y-103525001D01*
G04 #@! TO.C,REF\u002A\u002A*
X163184375Y-134540625D02*
G75*
G02*
X158284375Y-134540625I-2450000J0D01*
G01*
X158284375Y-134540625D02*
G75*
G02*
X163184375Y-134540625I2450000J0D01*
G01*
G04 #@! TO.C,J1*
X162496875Y-96331250D02*
X162496875Y-104431250D01*
X177996875Y-96331250D02*
X162496875Y-96331250D01*
X177996875Y-96331250D02*
X177996875Y-104431250D01*
X177996875Y-104431250D02*
X162496875Y-104431250D01*
G04 #@! TO.C,D15*
X90389999Y-101143751D02*
X90389999Y-103643751D01*
X90389999Y-103643751D02*
X100109999Y-103643751D01*
X100109999Y-101143751D02*
X90389999Y-101143751D01*
X100109999Y-103643751D02*
X100109999Y-101143751D01*
G04 #@! TO.C,D9*
X90389999Y-82093751D02*
X90389999Y-84593751D01*
X90389999Y-84593751D02*
X100109999Y-84593751D01*
X100109999Y-82093751D02*
X90389999Y-82093751D01*
X100109999Y-84593751D02*
X100109999Y-82093751D01*
G04 #@! TO.C,D11*
X128489999Y-82093751D02*
X128489999Y-84593751D01*
X128489999Y-84593751D02*
X138209999Y-84593751D01*
X138209999Y-82093751D02*
X128489999Y-82093751D01*
X138209999Y-84593751D02*
X138209999Y-82093751D01*
G04 #@! TO.C,D7*
X52289999Y-84475001D02*
X52289999Y-86975001D01*
X52289999Y-86975001D02*
X62009999Y-86975001D01*
X62009999Y-84475001D02*
X52289999Y-84475001D01*
X62009999Y-86975001D02*
X62009999Y-84475001D01*
G04 #@! TO.C,REF\u002A\u002A*
X107225000Y-121443750D02*
G75*
G02*
X102325000Y-121443750I-2450000J0D01*
G01*
X102325000Y-121443750D02*
G75*
G02*
X107225000Y-121443750I2450000J0D01*
G01*
G04 #@! TO.C,D20*
X128332076Y-122583922D02*
X137720875Y-125099643D01*
X128979124Y-120169108D02*
X128332076Y-122583922D01*
X137720875Y-125099643D02*
X138367923Y-122684829D01*
X138367923Y-122684829D02*
X128979124Y-120169108D01*
G04 #@! TO.C,D10*
X109439999Y-79712501D02*
X109439999Y-82212501D01*
X109439999Y-82212501D02*
X119159999Y-82212501D01*
X119159999Y-79712501D02*
X109439999Y-79712501D01*
X119159999Y-82212501D02*
X119159999Y-79712501D01*
G04 #@! TO.C,D18*
X147539999Y-103525000D02*
X147539999Y-106025000D01*
X147539999Y-106025000D02*
X157259999Y-106025000D01*
X157259999Y-103525000D02*
X147539999Y-103525000D01*
X157259999Y-106025000D02*
X157259999Y-103525000D01*
G04 #@! TO.C,D3*
X90389999Y-63043751D02*
X90389999Y-65543751D01*
X90389999Y-65543751D02*
X100109999Y-65543751D01*
X100109999Y-63043751D02*
X90389999Y-63043751D01*
X100109999Y-65543751D02*
X100109999Y-63043751D01*
G04 #@! TO.C,REF\u002A\u002A*
X164375000Y-47625000D02*
G75*
G02*
X159475000Y-47625000I-2450000J0D01*
G01*
X159475000Y-47625000D02*
G75*
G02*
X164375000Y-47625000I2450000J0D01*
G01*
X50075000Y-47625000D02*
G75*
G02*
X45175000Y-47625000I-2450000J0D01*
G01*
X45175000Y-47625000D02*
G75*
G02*
X50075000Y-47625000I2450000J0D01*
G01*
G04 #@! TO.C,D1*
X52289999Y-65425001D02*
X52289999Y-67925001D01*
X52289999Y-67925001D02*
X62009999Y-67925001D01*
X62009999Y-65425001D02*
X52289999Y-65425001D01*
X62009999Y-67925001D02*
X62009999Y-65425001D01*
G04 #@! TO.C,REF\u002A\u002A*
X107225000Y-82153125D02*
G75*
G02*
X102325000Y-82153125I-2450000J0D01*
G01*
X102325000Y-82153125D02*
G75*
G02*
X107225000Y-82153125I2450000J0D01*
G01*
G04 #@! TO.C,D16*
X109439999Y-98762501D02*
X109439999Y-101262501D01*
X109439999Y-101262501D02*
X119159999Y-101262501D01*
X119159999Y-98762501D02*
X109439999Y-98762501D01*
X119159999Y-101262501D02*
X119159999Y-98762501D01*
G04 #@! TO.C,D5*
X128489999Y-63043751D02*
X128489999Y-65543751D01*
X128489999Y-65543751D02*
X138209999Y-65543751D01*
X138209999Y-63043751D02*
X128489999Y-63043751D01*
X138209999Y-65543751D02*
X138209999Y-63043751D01*
G04 #@! TO.C,D14*
X71339999Y-103525001D02*
X71339999Y-106025001D01*
X71339999Y-106025001D02*
X81059999Y-106025001D01*
X81059999Y-103525001D02*
X71339999Y-103525001D01*
X81059999Y-106025001D02*
X81059999Y-103525001D01*
G04 #@! TO.C,REF\u002A\u002A*
X50075000Y-104775000D02*
G75*
G02*
X45175000Y-104775000I-2450000J0D01*
G01*
X45175000Y-104775000D02*
G75*
G02*
X50075000Y-104775000I2450000J0D01*
G01*
G04 #@! TO.C,D19*
X109439999Y-120193751D02*
X109439999Y-122693751D01*
X109439999Y-122693751D02*
X119159999Y-122693751D01*
X119159999Y-120193751D02*
X109439999Y-120193751D01*
X119159999Y-122693751D02*
X119159999Y-120193751D01*
G04 #@! TO.C,D8*
X71339999Y-84475001D02*
X71339999Y-86975001D01*
X71339999Y-86975001D02*
X81059999Y-86975001D01*
X81059999Y-84475001D02*
X71339999Y-84475001D01*
X81059999Y-86975001D02*
X81059999Y-84475001D01*
G04 #@! TO.C,D6*
X147539999Y-65425001D02*
X147539999Y-67925001D01*
X147539999Y-67925001D02*
X157259999Y-67925001D01*
X157259999Y-65425001D02*
X147539999Y-65425001D01*
X157259999Y-67925001D02*
X157259999Y-65425001D01*
G04 #@! TD*
M02*
