G04 #@! TF.GenerationSoftware,KiCad,Pcbnew,8.0.4*
G04 #@! TF.CreationDate,2024-09-10T22:18:46+03:00*
G04 #@! TF.ProjectId,muikku42,6d75696b-6b75-4343-922e-6b696361645f,rev?*
G04 #@! TF.SameCoordinates,Original*
G04 #@! TF.FileFunction,Legend,Bot*
G04 #@! TF.FilePolarity,Positive*
%FSLAX46Y46*%
G04 Gerber Fmt 4.6, Leading zero omitted, Abs format (unit mm)*
G04 Created by KiCad (PCBNEW 8.0.4) date 2024-09-10 22:18:46*
%MOMM*%
%LPD*%
G01*
G04 APERTURE LIST*
G04 Aperture macros list*
%AMHorizOval*
0 Thick line with rounded ends*
0 $1 width*
0 $2 $3 position (X,Y) of the first rounded end (center of the circle)*
0 $4 $5 position (X,Y) of the second rounded end (center of the circle)*
0 Add line between two ends*
20,1,$1,$2,$3,$4,$5,0*
0 Add two circle primitives to create the rounded ends*
1,1,$1,$2,$3*
1,1,$1,$4,$5*%
%AMRotRect*
0 Rectangle, with rotation*
0 The origin of the aperture is its center*
0 $1 length*
0 $2 width*
0 $3 Rotation angle, in degrees counterclockwise*
0 Add horizontal line*
21,1,$1,$2,0,0,$3*%
G04 Aperture macros list end*
%ADD10C,0.150000*%
%ADD11C,0.100000*%
%ADD12C,0.120000*%
%ADD13R,1.600000X1.600000*%
%ADD14O,1.600000X1.600000*%
%ADD15RotRect,1.600000X1.600000X150.000000*%
%ADD16HorizOval,1.600000X0.000000X0.000000X0.000000X0.000000X0*%
%ADD17C,1.701800*%
%ADD18C,3.987800*%
%ADD19C,2.286000*%
%ADD20C,2.200000*%
%ADD21C,1.200000*%
%ADD22O,2.000000X1.400000*%
%ADD23R,2.000000X1.400000*%
%ADD24RotRect,1.600000X1.600000X165.000000*%
%ADD25HorizOval,1.600000X0.000000X0.000000X0.000000X0.000000X0*%
%ADD26O,2.500000X1.500000*%
%ADD27O,1.500000X2.500000*%
G04 APERTURE END LIST*
D10*
X134111904Y-46920950D02*
X133969047Y-46968569D01*
X133969047Y-46968569D02*
X133730952Y-46968569D01*
X133730952Y-46968569D02*
X133635714Y-46920950D01*
X133635714Y-46920950D02*
X133588095Y-46873330D01*
X133588095Y-46873330D02*
X133540476Y-46778092D01*
X133540476Y-46778092D02*
X133540476Y-46682854D01*
X133540476Y-46682854D02*
X133588095Y-46587616D01*
X133588095Y-46587616D02*
X133635714Y-46539997D01*
X133635714Y-46539997D02*
X133730952Y-46492378D01*
X133730952Y-46492378D02*
X133921428Y-46444759D01*
X133921428Y-46444759D02*
X134016666Y-46397140D01*
X134016666Y-46397140D02*
X134064285Y-46349521D01*
X134064285Y-46349521D02*
X134111904Y-46254283D01*
X134111904Y-46254283D02*
X134111904Y-46159045D01*
X134111904Y-46159045D02*
X134064285Y-46063807D01*
X134064285Y-46063807D02*
X134016666Y-46016188D01*
X134016666Y-46016188D02*
X133921428Y-45968569D01*
X133921428Y-45968569D02*
X133683333Y-45968569D01*
X133683333Y-45968569D02*
X133540476Y-46016188D01*
X132635714Y-45968569D02*
X133111904Y-45968569D01*
X133111904Y-45968569D02*
X133159523Y-46444759D01*
X133159523Y-46444759D02*
X133111904Y-46397140D01*
X133111904Y-46397140D02*
X133016666Y-46349521D01*
X133016666Y-46349521D02*
X132778571Y-46349521D01*
X132778571Y-46349521D02*
X132683333Y-46397140D01*
X132683333Y-46397140D02*
X132635714Y-46444759D01*
X132635714Y-46444759D02*
X132588095Y-46539997D01*
X132588095Y-46539997D02*
X132588095Y-46778092D01*
X132588095Y-46778092D02*
X132635714Y-46873330D01*
X132635714Y-46873330D02*
X132683333Y-46920950D01*
X132683333Y-46920950D02*
X132778571Y-46968569D01*
X132778571Y-46968569D02*
X133016666Y-46968569D01*
X133016666Y-46968569D02*
X133111904Y-46920950D01*
X133111904Y-46920950D02*
X133159523Y-46873330D01*
X134588094Y-65970950D02*
X134445237Y-66018569D01*
X134445237Y-66018569D02*
X134207142Y-66018569D01*
X134207142Y-66018569D02*
X134111904Y-65970950D01*
X134111904Y-65970950D02*
X134064285Y-65923330D01*
X134064285Y-65923330D02*
X134016666Y-65828092D01*
X134016666Y-65828092D02*
X134016666Y-65732854D01*
X134016666Y-65732854D02*
X134064285Y-65637616D01*
X134064285Y-65637616D02*
X134111904Y-65589997D01*
X134111904Y-65589997D02*
X134207142Y-65542378D01*
X134207142Y-65542378D02*
X134397618Y-65494759D01*
X134397618Y-65494759D02*
X134492856Y-65447140D01*
X134492856Y-65447140D02*
X134540475Y-65399521D01*
X134540475Y-65399521D02*
X134588094Y-65304283D01*
X134588094Y-65304283D02*
X134588094Y-65209045D01*
X134588094Y-65209045D02*
X134540475Y-65113807D01*
X134540475Y-65113807D02*
X134492856Y-65066188D01*
X134492856Y-65066188D02*
X134397618Y-65018569D01*
X134397618Y-65018569D02*
X134159523Y-65018569D01*
X134159523Y-65018569D02*
X134016666Y-65066188D01*
X133064285Y-66018569D02*
X133635713Y-66018569D01*
X133349999Y-66018569D02*
X133349999Y-65018569D01*
X133349999Y-65018569D02*
X133445237Y-65161426D01*
X133445237Y-65161426D02*
X133540475Y-65256664D01*
X133540475Y-65256664D02*
X133635713Y-65304283D01*
X132111904Y-66018569D02*
X132683332Y-66018569D01*
X132397618Y-66018569D02*
X132397618Y-65018569D01*
X132397618Y-65018569D02*
X132492856Y-65161426D01*
X132492856Y-65161426D02*
X132588094Y-65256664D01*
X132588094Y-65256664D02*
X132683332Y-65304283D01*
X57911904Y-68352200D02*
X57769047Y-68399819D01*
X57769047Y-68399819D02*
X57530952Y-68399819D01*
X57530952Y-68399819D02*
X57435714Y-68352200D01*
X57435714Y-68352200D02*
X57388095Y-68304580D01*
X57388095Y-68304580D02*
X57340476Y-68209342D01*
X57340476Y-68209342D02*
X57340476Y-68114104D01*
X57340476Y-68114104D02*
X57388095Y-68018866D01*
X57388095Y-68018866D02*
X57435714Y-67971247D01*
X57435714Y-67971247D02*
X57530952Y-67923628D01*
X57530952Y-67923628D02*
X57721428Y-67876009D01*
X57721428Y-67876009D02*
X57816666Y-67828390D01*
X57816666Y-67828390D02*
X57864285Y-67780771D01*
X57864285Y-67780771D02*
X57911904Y-67685533D01*
X57911904Y-67685533D02*
X57911904Y-67590295D01*
X57911904Y-67590295D02*
X57864285Y-67495057D01*
X57864285Y-67495057D02*
X57816666Y-67447438D01*
X57816666Y-67447438D02*
X57721428Y-67399819D01*
X57721428Y-67399819D02*
X57483333Y-67399819D01*
X57483333Y-67399819D02*
X57340476Y-67447438D01*
X57007142Y-67399819D02*
X56340476Y-67399819D01*
X56340476Y-67399819D02*
X56769047Y-68399819D01*
X96488094Y-85020950D02*
X96345237Y-85068569D01*
X96345237Y-85068569D02*
X96107142Y-85068569D01*
X96107142Y-85068569D02*
X96011904Y-85020950D01*
X96011904Y-85020950D02*
X95964285Y-84973330D01*
X95964285Y-84973330D02*
X95916666Y-84878092D01*
X95916666Y-84878092D02*
X95916666Y-84782854D01*
X95916666Y-84782854D02*
X95964285Y-84687616D01*
X95964285Y-84687616D02*
X96011904Y-84639997D01*
X96011904Y-84639997D02*
X96107142Y-84592378D01*
X96107142Y-84592378D02*
X96297618Y-84544759D01*
X96297618Y-84544759D02*
X96392856Y-84497140D01*
X96392856Y-84497140D02*
X96440475Y-84449521D01*
X96440475Y-84449521D02*
X96488094Y-84354283D01*
X96488094Y-84354283D02*
X96488094Y-84259045D01*
X96488094Y-84259045D02*
X96440475Y-84163807D01*
X96440475Y-84163807D02*
X96392856Y-84116188D01*
X96392856Y-84116188D02*
X96297618Y-84068569D01*
X96297618Y-84068569D02*
X96059523Y-84068569D01*
X96059523Y-84068569D02*
X95916666Y-84116188D01*
X94964285Y-85068569D02*
X95535713Y-85068569D01*
X95249999Y-85068569D02*
X95249999Y-84068569D01*
X95249999Y-84068569D02*
X95345237Y-84211426D01*
X95345237Y-84211426D02*
X95440475Y-84306664D01*
X95440475Y-84306664D02*
X95535713Y-84354283D01*
X94059523Y-84068569D02*
X94535713Y-84068569D01*
X94535713Y-84068569D02*
X94583332Y-84544759D01*
X94583332Y-84544759D02*
X94535713Y-84497140D01*
X94535713Y-84497140D02*
X94440475Y-84449521D01*
X94440475Y-84449521D02*
X94202380Y-84449521D01*
X94202380Y-84449521D02*
X94107142Y-84497140D01*
X94107142Y-84497140D02*
X94059523Y-84544759D01*
X94059523Y-84544759D02*
X94011904Y-84639997D01*
X94011904Y-84639997D02*
X94011904Y-84878092D01*
X94011904Y-84878092D02*
X94059523Y-84973330D01*
X94059523Y-84973330D02*
X94107142Y-85020950D01*
X94107142Y-85020950D02*
X94202380Y-85068569D01*
X94202380Y-85068569D02*
X94440475Y-85068569D01*
X94440475Y-85068569D02*
X94535713Y-85020950D01*
X94535713Y-85020950D02*
X94583332Y-84973330D01*
X115061904Y-44539700D02*
X114919047Y-44587319D01*
X114919047Y-44587319D02*
X114680952Y-44587319D01*
X114680952Y-44587319D02*
X114585714Y-44539700D01*
X114585714Y-44539700D02*
X114538095Y-44492080D01*
X114538095Y-44492080D02*
X114490476Y-44396842D01*
X114490476Y-44396842D02*
X114490476Y-44301604D01*
X114490476Y-44301604D02*
X114538095Y-44206366D01*
X114538095Y-44206366D02*
X114585714Y-44158747D01*
X114585714Y-44158747D02*
X114680952Y-44111128D01*
X114680952Y-44111128D02*
X114871428Y-44063509D01*
X114871428Y-44063509D02*
X114966666Y-44015890D01*
X114966666Y-44015890D02*
X115014285Y-43968271D01*
X115014285Y-43968271D02*
X115061904Y-43873033D01*
X115061904Y-43873033D02*
X115061904Y-43777795D01*
X115061904Y-43777795D02*
X115014285Y-43682557D01*
X115014285Y-43682557D02*
X114966666Y-43634938D01*
X114966666Y-43634938D02*
X114871428Y-43587319D01*
X114871428Y-43587319D02*
X114633333Y-43587319D01*
X114633333Y-43587319D02*
X114490476Y-43634938D01*
X113633333Y-43920652D02*
X113633333Y-44587319D01*
X113871428Y-43539700D02*
X114109523Y-44253985D01*
X114109523Y-44253985D02*
X113490476Y-44253985D01*
X153638094Y-87402200D02*
X153495237Y-87449819D01*
X153495237Y-87449819D02*
X153257142Y-87449819D01*
X153257142Y-87449819D02*
X153161904Y-87402200D01*
X153161904Y-87402200D02*
X153114285Y-87354580D01*
X153114285Y-87354580D02*
X153066666Y-87259342D01*
X153066666Y-87259342D02*
X153066666Y-87164104D01*
X153066666Y-87164104D02*
X153114285Y-87068866D01*
X153114285Y-87068866D02*
X153161904Y-87021247D01*
X153161904Y-87021247D02*
X153257142Y-86973628D01*
X153257142Y-86973628D02*
X153447618Y-86926009D01*
X153447618Y-86926009D02*
X153542856Y-86878390D01*
X153542856Y-86878390D02*
X153590475Y-86830771D01*
X153590475Y-86830771D02*
X153638094Y-86735533D01*
X153638094Y-86735533D02*
X153638094Y-86640295D01*
X153638094Y-86640295D02*
X153590475Y-86545057D01*
X153590475Y-86545057D02*
X153542856Y-86497438D01*
X153542856Y-86497438D02*
X153447618Y-86449819D01*
X153447618Y-86449819D02*
X153209523Y-86449819D01*
X153209523Y-86449819D02*
X153066666Y-86497438D01*
X152114285Y-87449819D02*
X152685713Y-87449819D01*
X152399999Y-87449819D02*
X152399999Y-86449819D01*
X152399999Y-86449819D02*
X152495237Y-86592676D01*
X152495237Y-86592676D02*
X152590475Y-86687914D01*
X152590475Y-86687914D02*
X152685713Y-86735533D01*
X151542856Y-86878390D02*
X151638094Y-86830771D01*
X151638094Y-86830771D02*
X151685713Y-86783152D01*
X151685713Y-86783152D02*
X151733332Y-86687914D01*
X151733332Y-86687914D02*
X151733332Y-86640295D01*
X151733332Y-86640295D02*
X151685713Y-86545057D01*
X151685713Y-86545057D02*
X151638094Y-86497438D01*
X151638094Y-86497438D02*
X151542856Y-86449819D01*
X151542856Y-86449819D02*
X151352380Y-86449819D01*
X151352380Y-86449819D02*
X151257142Y-86497438D01*
X151257142Y-86497438D02*
X151209523Y-86545057D01*
X151209523Y-86545057D02*
X151161904Y-86640295D01*
X151161904Y-86640295D02*
X151161904Y-86687914D01*
X151161904Y-86687914D02*
X151209523Y-86783152D01*
X151209523Y-86783152D02*
X151257142Y-86830771D01*
X151257142Y-86830771D02*
X151352380Y-86878390D01*
X151352380Y-86878390D02*
X151542856Y-86878390D01*
X151542856Y-86878390D02*
X151638094Y-86926009D01*
X151638094Y-86926009D02*
X151685713Y-86973628D01*
X151685713Y-86973628D02*
X151733332Y-87068866D01*
X151733332Y-87068866D02*
X151733332Y-87259342D01*
X151733332Y-87259342D02*
X151685713Y-87354580D01*
X151685713Y-87354580D02*
X151638094Y-87402200D01*
X151638094Y-87402200D02*
X151542856Y-87449819D01*
X151542856Y-87449819D02*
X151352380Y-87449819D01*
X151352380Y-87449819D02*
X151257142Y-87402200D01*
X151257142Y-87402200D02*
X151209523Y-87354580D01*
X151209523Y-87354580D02*
X151161904Y-87259342D01*
X151161904Y-87259342D02*
X151161904Y-87068866D01*
X151161904Y-87068866D02*
X151209523Y-86973628D01*
X151209523Y-86973628D02*
X151257142Y-86926009D01*
X151257142Y-86926009D02*
X151352380Y-86878390D01*
X153161904Y-49302200D02*
X153019047Y-49349819D01*
X153019047Y-49349819D02*
X152780952Y-49349819D01*
X152780952Y-49349819D02*
X152685714Y-49302200D01*
X152685714Y-49302200D02*
X152638095Y-49254580D01*
X152638095Y-49254580D02*
X152590476Y-49159342D01*
X152590476Y-49159342D02*
X152590476Y-49064104D01*
X152590476Y-49064104D02*
X152638095Y-48968866D01*
X152638095Y-48968866D02*
X152685714Y-48921247D01*
X152685714Y-48921247D02*
X152780952Y-48873628D01*
X152780952Y-48873628D02*
X152971428Y-48826009D01*
X152971428Y-48826009D02*
X153066666Y-48778390D01*
X153066666Y-48778390D02*
X153114285Y-48730771D01*
X153114285Y-48730771D02*
X153161904Y-48635533D01*
X153161904Y-48635533D02*
X153161904Y-48540295D01*
X153161904Y-48540295D02*
X153114285Y-48445057D01*
X153114285Y-48445057D02*
X153066666Y-48397438D01*
X153066666Y-48397438D02*
X152971428Y-48349819D01*
X152971428Y-48349819D02*
X152733333Y-48349819D01*
X152733333Y-48349819D02*
X152590476Y-48397438D01*
X151733333Y-48349819D02*
X151923809Y-48349819D01*
X151923809Y-48349819D02*
X152019047Y-48397438D01*
X152019047Y-48397438D02*
X152066666Y-48445057D01*
X152066666Y-48445057D02*
X152161904Y-48587914D01*
X152161904Y-48587914D02*
X152209523Y-48778390D01*
X152209523Y-48778390D02*
X152209523Y-49159342D01*
X152209523Y-49159342D02*
X152161904Y-49254580D01*
X152161904Y-49254580D02*
X152114285Y-49302200D01*
X152114285Y-49302200D02*
X152019047Y-49349819D01*
X152019047Y-49349819D02*
X151828571Y-49349819D01*
X151828571Y-49349819D02*
X151733333Y-49302200D01*
X151733333Y-49302200D02*
X151685714Y-49254580D01*
X151685714Y-49254580D02*
X151638095Y-49159342D01*
X151638095Y-49159342D02*
X151638095Y-48921247D01*
X151638095Y-48921247D02*
X151685714Y-48826009D01*
X151685714Y-48826009D02*
X151733333Y-48778390D01*
X151733333Y-48778390D02*
X151828571Y-48730771D01*
X151828571Y-48730771D02*
X152019047Y-48730771D01*
X152019047Y-48730771D02*
X152114285Y-48778390D01*
X152114285Y-48778390D02*
X152161904Y-48826009D01*
X152161904Y-48826009D02*
X152209523Y-48921247D01*
X134588094Y-85020950D02*
X134445237Y-85068569D01*
X134445237Y-85068569D02*
X134207142Y-85068569D01*
X134207142Y-85068569D02*
X134111904Y-85020950D01*
X134111904Y-85020950D02*
X134064285Y-84973330D01*
X134064285Y-84973330D02*
X134016666Y-84878092D01*
X134016666Y-84878092D02*
X134016666Y-84782854D01*
X134016666Y-84782854D02*
X134064285Y-84687616D01*
X134064285Y-84687616D02*
X134111904Y-84639997D01*
X134111904Y-84639997D02*
X134207142Y-84592378D01*
X134207142Y-84592378D02*
X134397618Y-84544759D01*
X134397618Y-84544759D02*
X134492856Y-84497140D01*
X134492856Y-84497140D02*
X134540475Y-84449521D01*
X134540475Y-84449521D02*
X134588094Y-84354283D01*
X134588094Y-84354283D02*
X134588094Y-84259045D01*
X134588094Y-84259045D02*
X134540475Y-84163807D01*
X134540475Y-84163807D02*
X134492856Y-84116188D01*
X134492856Y-84116188D02*
X134397618Y-84068569D01*
X134397618Y-84068569D02*
X134159523Y-84068569D01*
X134159523Y-84068569D02*
X134016666Y-84116188D01*
X133064285Y-85068569D02*
X133635713Y-85068569D01*
X133349999Y-85068569D02*
X133349999Y-84068569D01*
X133349999Y-84068569D02*
X133445237Y-84211426D01*
X133445237Y-84211426D02*
X133540475Y-84306664D01*
X133540475Y-84306664D02*
X133635713Y-84354283D01*
X132730951Y-84068569D02*
X132064285Y-84068569D01*
X132064285Y-84068569D02*
X132492856Y-85068569D01*
X77438094Y-87402200D02*
X77295237Y-87449819D01*
X77295237Y-87449819D02*
X77057142Y-87449819D01*
X77057142Y-87449819D02*
X76961904Y-87402200D01*
X76961904Y-87402200D02*
X76914285Y-87354580D01*
X76914285Y-87354580D02*
X76866666Y-87259342D01*
X76866666Y-87259342D02*
X76866666Y-87164104D01*
X76866666Y-87164104D02*
X76914285Y-87068866D01*
X76914285Y-87068866D02*
X76961904Y-87021247D01*
X76961904Y-87021247D02*
X77057142Y-86973628D01*
X77057142Y-86973628D02*
X77247618Y-86926009D01*
X77247618Y-86926009D02*
X77342856Y-86878390D01*
X77342856Y-86878390D02*
X77390475Y-86830771D01*
X77390475Y-86830771D02*
X77438094Y-86735533D01*
X77438094Y-86735533D02*
X77438094Y-86640295D01*
X77438094Y-86640295D02*
X77390475Y-86545057D01*
X77390475Y-86545057D02*
X77342856Y-86497438D01*
X77342856Y-86497438D02*
X77247618Y-86449819D01*
X77247618Y-86449819D02*
X77009523Y-86449819D01*
X77009523Y-86449819D02*
X76866666Y-86497438D01*
X75914285Y-87449819D02*
X76485713Y-87449819D01*
X76199999Y-87449819D02*
X76199999Y-86449819D01*
X76199999Y-86449819D02*
X76295237Y-86592676D01*
X76295237Y-86592676D02*
X76390475Y-86687914D01*
X76390475Y-86687914D02*
X76485713Y-86735533D01*
X75057142Y-86783152D02*
X75057142Y-87449819D01*
X75295237Y-86402200D02*
X75533332Y-87116485D01*
X75533332Y-87116485D02*
X74914285Y-87116485D01*
X76961904Y-68352200D02*
X76819047Y-68399819D01*
X76819047Y-68399819D02*
X76580952Y-68399819D01*
X76580952Y-68399819D02*
X76485714Y-68352200D01*
X76485714Y-68352200D02*
X76438095Y-68304580D01*
X76438095Y-68304580D02*
X76390476Y-68209342D01*
X76390476Y-68209342D02*
X76390476Y-68114104D01*
X76390476Y-68114104D02*
X76438095Y-68018866D01*
X76438095Y-68018866D02*
X76485714Y-67971247D01*
X76485714Y-67971247D02*
X76580952Y-67923628D01*
X76580952Y-67923628D02*
X76771428Y-67876009D01*
X76771428Y-67876009D02*
X76866666Y-67828390D01*
X76866666Y-67828390D02*
X76914285Y-67780771D01*
X76914285Y-67780771D02*
X76961904Y-67685533D01*
X76961904Y-67685533D02*
X76961904Y-67590295D01*
X76961904Y-67590295D02*
X76914285Y-67495057D01*
X76914285Y-67495057D02*
X76866666Y-67447438D01*
X76866666Y-67447438D02*
X76771428Y-67399819D01*
X76771428Y-67399819D02*
X76533333Y-67399819D01*
X76533333Y-67399819D02*
X76390476Y-67447438D01*
X75819047Y-67828390D02*
X75914285Y-67780771D01*
X75914285Y-67780771D02*
X75961904Y-67733152D01*
X75961904Y-67733152D02*
X76009523Y-67637914D01*
X76009523Y-67637914D02*
X76009523Y-67590295D01*
X76009523Y-67590295D02*
X75961904Y-67495057D01*
X75961904Y-67495057D02*
X75914285Y-67447438D01*
X75914285Y-67447438D02*
X75819047Y-67399819D01*
X75819047Y-67399819D02*
X75628571Y-67399819D01*
X75628571Y-67399819D02*
X75533333Y-67447438D01*
X75533333Y-67447438D02*
X75485714Y-67495057D01*
X75485714Y-67495057D02*
X75438095Y-67590295D01*
X75438095Y-67590295D02*
X75438095Y-67637914D01*
X75438095Y-67637914D02*
X75485714Y-67733152D01*
X75485714Y-67733152D02*
X75533333Y-67780771D01*
X75533333Y-67780771D02*
X75628571Y-67828390D01*
X75628571Y-67828390D02*
X75819047Y-67828390D01*
X75819047Y-67828390D02*
X75914285Y-67876009D01*
X75914285Y-67876009D02*
X75961904Y-67923628D01*
X75961904Y-67923628D02*
X76009523Y-68018866D01*
X76009523Y-68018866D02*
X76009523Y-68209342D01*
X76009523Y-68209342D02*
X75961904Y-68304580D01*
X75961904Y-68304580D02*
X75914285Y-68352200D01*
X75914285Y-68352200D02*
X75819047Y-68399819D01*
X75819047Y-68399819D02*
X75628571Y-68399819D01*
X75628571Y-68399819D02*
X75533333Y-68352200D01*
X75533333Y-68352200D02*
X75485714Y-68304580D01*
X75485714Y-68304580D02*
X75438095Y-68209342D01*
X75438095Y-68209342D02*
X75438095Y-68018866D01*
X75438095Y-68018866D02*
X75485714Y-67923628D01*
X75485714Y-67923628D02*
X75533333Y-67876009D01*
X75533333Y-67876009D02*
X75628571Y-67828390D01*
X76961904Y-49302200D02*
X76819047Y-49349819D01*
X76819047Y-49349819D02*
X76580952Y-49349819D01*
X76580952Y-49349819D02*
X76485714Y-49302200D01*
X76485714Y-49302200D02*
X76438095Y-49254580D01*
X76438095Y-49254580D02*
X76390476Y-49159342D01*
X76390476Y-49159342D02*
X76390476Y-49064104D01*
X76390476Y-49064104D02*
X76438095Y-48968866D01*
X76438095Y-48968866D02*
X76485714Y-48921247D01*
X76485714Y-48921247D02*
X76580952Y-48873628D01*
X76580952Y-48873628D02*
X76771428Y-48826009D01*
X76771428Y-48826009D02*
X76866666Y-48778390D01*
X76866666Y-48778390D02*
X76914285Y-48730771D01*
X76914285Y-48730771D02*
X76961904Y-48635533D01*
X76961904Y-48635533D02*
X76961904Y-48540295D01*
X76961904Y-48540295D02*
X76914285Y-48445057D01*
X76914285Y-48445057D02*
X76866666Y-48397438D01*
X76866666Y-48397438D02*
X76771428Y-48349819D01*
X76771428Y-48349819D02*
X76533333Y-48349819D01*
X76533333Y-48349819D02*
X76390476Y-48397438D01*
X76009523Y-48445057D02*
X75961904Y-48397438D01*
X75961904Y-48397438D02*
X75866666Y-48349819D01*
X75866666Y-48349819D02*
X75628571Y-48349819D01*
X75628571Y-48349819D02*
X75533333Y-48397438D01*
X75533333Y-48397438D02*
X75485714Y-48445057D01*
X75485714Y-48445057D02*
X75438095Y-48540295D01*
X75438095Y-48540295D02*
X75438095Y-48635533D01*
X75438095Y-48635533D02*
X75485714Y-48778390D01*
X75485714Y-48778390D02*
X76057142Y-49349819D01*
X76057142Y-49349819D02*
X75438095Y-49349819D01*
X115538094Y-82639700D02*
X115395237Y-82687319D01*
X115395237Y-82687319D02*
X115157142Y-82687319D01*
X115157142Y-82687319D02*
X115061904Y-82639700D01*
X115061904Y-82639700D02*
X115014285Y-82592080D01*
X115014285Y-82592080D02*
X114966666Y-82496842D01*
X114966666Y-82496842D02*
X114966666Y-82401604D01*
X114966666Y-82401604D02*
X115014285Y-82306366D01*
X115014285Y-82306366D02*
X115061904Y-82258747D01*
X115061904Y-82258747D02*
X115157142Y-82211128D01*
X115157142Y-82211128D02*
X115347618Y-82163509D01*
X115347618Y-82163509D02*
X115442856Y-82115890D01*
X115442856Y-82115890D02*
X115490475Y-82068271D01*
X115490475Y-82068271D02*
X115538094Y-81973033D01*
X115538094Y-81973033D02*
X115538094Y-81877795D01*
X115538094Y-81877795D02*
X115490475Y-81782557D01*
X115490475Y-81782557D02*
X115442856Y-81734938D01*
X115442856Y-81734938D02*
X115347618Y-81687319D01*
X115347618Y-81687319D02*
X115109523Y-81687319D01*
X115109523Y-81687319D02*
X114966666Y-81734938D01*
X114014285Y-82687319D02*
X114585713Y-82687319D01*
X114299999Y-82687319D02*
X114299999Y-81687319D01*
X114299999Y-81687319D02*
X114395237Y-81830176D01*
X114395237Y-81830176D02*
X114490475Y-81925414D01*
X114490475Y-81925414D02*
X114585713Y-81973033D01*
X113157142Y-81687319D02*
X113347618Y-81687319D01*
X113347618Y-81687319D02*
X113442856Y-81734938D01*
X113442856Y-81734938D02*
X113490475Y-81782557D01*
X113490475Y-81782557D02*
X113585713Y-81925414D01*
X113585713Y-81925414D02*
X113633332Y-82115890D01*
X113633332Y-82115890D02*
X113633332Y-82496842D01*
X113633332Y-82496842D02*
X113585713Y-82592080D01*
X113585713Y-82592080D02*
X113538094Y-82639700D01*
X113538094Y-82639700D02*
X113442856Y-82687319D01*
X113442856Y-82687319D02*
X113252380Y-82687319D01*
X113252380Y-82687319D02*
X113157142Y-82639700D01*
X113157142Y-82639700D02*
X113109523Y-82592080D01*
X113109523Y-82592080D02*
X113061904Y-82496842D01*
X113061904Y-82496842D02*
X113061904Y-82258747D01*
X113061904Y-82258747D02*
X113109523Y-82163509D01*
X113109523Y-82163509D02*
X113157142Y-82115890D01*
X113157142Y-82115890D02*
X113252380Y-82068271D01*
X113252380Y-82068271D02*
X113442856Y-82068271D01*
X113442856Y-82068271D02*
X113538094Y-82115890D01*
X113538094Y-82115890D02*
X113585713Y-82163509D01*
X113585713Y-82163509D02*
X113633332Y-82258747D01*
X115538094Y-63589700D02*
X115395237Y-63637319D01*
X115395237Y-63637319D02*
X115157142Y-63637319D01*
X115157142Y-63637319D02*
X115061904Y-63589700D01*
X115061904Y-63589700D02*
X115014285Y-63542080D01*
X115014285Y-63542080D02*
X114966666Y-63446842D01*
X114966666Y-63446842D02*
X114966666Y-63351604D01*
X114966666Y-63351604D02*
X115014285Y-63256366D01*
X115014285Y-63256366D02*
X115061904Y-63208747D01*
X115061904Y-63208747D02*
X115157142Y-63161128D01*
X115157142Y-63161128D02*
X115347618Y-63113509D01*
X115347618Y-63113509D02*
X115442856Y-63065890D01*
X115442856Y-63065890D02*
X115490475Y-63018271D01*
X115490475Y-63018271D02*
X115538094Y-62923033D01*
X115538094Y-62923033D02*
X115538094Y-62827795D01*
X115538094Y-62827795D02*
X115490475Y-62732557D01*
X115490475Y-62732557D02*
X115442856Y-62684938D01*
X115442856Y-62684938D02*
X115347618Y-62637319D01*
X115347618Y-62637319D02*
X115109523Y-62637319D01*
X115109523Y-62637319D02*
X114966666Y-62684938D01*
X114014285Y-63637319D02*
X114585713Y-63637319D01*
X114299999Y-63637319D02*
X114299999Y-62637319D01*
X114299999Y-62637319D02*
X114395237Y-62780176D01*
X114395237Y-62780176D02*
X114490475Y-62875414D01*
X114490475Y-62875414D02*
X114585713Y-62923033D01*
X113395237Y-62637319D02*
X113299999Y-62637319D01*
X113299999Y-62637319D02*
X113204761Y-62684938D01*
X113204761Y-62684938D02*
X113157142Y-62732557D01*
X113157142Y-62732557D02*
X113109523Y-62827795D01*
X113109523Y-62827795D02*
X113061904Y-63018271D01*
X113061904Y-63018271D02*
X113061904Y-63256366D01*
X113061904Y-63256366D02*
X113109523Y-63446842D01*
X113109523Y-63446842D02*
X113157142Y-63542080D01*
X113157142Y-63542080D02*
X113204761Y-63589700D01*
X113204761Y-63589700D02*
X113299999Y-63637319D01*
X113299999Y-63637319D02*
X113395237Y-63637319D01*
X113395237Y-63637319D02*
X113490475Y-63589700D01*
X113490475Y-63589700D02*
X113538094Y-63542080D01*
X113538094Y-63542080D02*
X113585713Y-63446842D01*
X113585713Y-63446842D02*
X113633332Y-63256366D01*
X113633332Y-63256366D02*
X113633332Y-63018271D01*
X113633332Y-63018271D02*
X113585713Y-62827795D01*
X113585713Y-62827795D02*
X113538094Y-62732557D01*
X113538094Y-62732557D02*
X113490475Y-62684938D01*
X113490475Y-62684938D02*
X113395237Y-62637319D01*
X153638094Y-68352200D02*
X153495237Y-68399819D01*
X153495237Y-68399819D02*
X153257142Y-68399819D01*
X153257142Y-68399819D02*
X153161904Y-68352200D01*
X153161904Y-68352200D02*
X153114285Y-68304580D01*
X153114285Y-68304580D02*
X153066666Y-68209342D01*
X153066666Y-68209342D02*
X153066666Y-68114104D01*
X153066666Y-68114104D02*
X153114285Y-68018866D01*
X153114285Y-68018866D02*
X153161904Y-67971247D01*
X153161904Y-67971247D02*
X153257142Y-67923628D01*
X153257142Y-67923628D02*
X153447618Y-67876009D01*
X153447618Y-67876009D02*
X153542856Y-67828390D01*
X153542856Y-67828390D02*
X153590475Y-67780771D01*
X153590475Y-67780771D02*
X153638094Y-67685533D01*
X153638094Y-67685533D02*
X153638094Y-67590295D01*
X153638094Y-67590295D02*
X153590475Y-67495057D01*
X153590475Y-67495057D02*
X153542856Y-67447438D01*
X153542856Y-67447438D02*
X153447618Y-67399819D01*
X153447618Y-67399819D02*
X153209523Y-67399819D01*
X153209523Y-67399819D02*
X153066666Y-67447438D01*
X152114285Y-68399819D02*
X152685713Y-68399819D01*
X152399999Y-68399819D02*
X152399999Y-67399819D01*
X152399999Y-67399819D02*
X152495237Y-67542676D01*
X152495237Y-67542676D02*
X152590475Y-67637914D01*
X152590475Y-67637914D02*
X152685713Y-67685533D01*
X151733332Y-67495057D02*
X151685713Y-67447438D01*
X151685713Y-67447438D02*
X151590475Y-67399819D01*
X151590475Y-67399819D02*
X151352380Y-67399819D01*
X151352380Y-67399819D02*
X151257142Y-67447438D01*
X151257142Y-67447438D02*
X151209523Y-67495057D01*
X151209523Y-67495057D02*
X151161904Y-67590295D01*
X151161904Y-67590295D02*
X151161904Y-67685533D01*
X151161904Y-67685533D02*
X151209523Y-67828390D01*
X151209523Y-67828390D02*
X151780951Y-68399819D01*
X151780951Y-68399819D02*
X151161904Y-68399819D01*
X57911904Y-49302200D02*
X57769047Y-49349819D01*
X57769047Y-49349819D02*
X57530952Y-49349819D01*
X57530952Y-49349819D02*
X57435714Y-49302200D01*
X57435714Y-49302200D02*
X57388095Y-49254580D01*
X57388095Y-49254580D02*
X57340476Y-49159342D01*
X57340476Y-49159342D02*
X57340476Y-49064104D01*
X57340476Y-49064104D02*
X57388095Y-48968866D01*
X57388095Y-48968866D02*
X57435714Y-48921247D01*
X57435714Y-48921247D02*
X57530952Y-48873628D01*
X57530952Y-48873628D02*
X57721428Y-48826009D01*
X57721428Y-48826009D02*
X57816666Y-48778390D01*
X57816666Y-48778390D02*
X57864285Y-48730771D01*
X57864285Y-48730771D02*
X57911904Y-48635533D01*
X57911904Y-48635533D02*
X57911904Y-48540295D01*
X57911904Y-48540295D02*
X57864285Y-48445057D01*
X57864285Y-48445057D02*
X57816666Y-48397438D01*
X57816666Y-48397438D02*
X57721428Y-48349819D01*
X57721428Y-48349819D02*
X57483333Y-48349819D01*
X57483333Y-48349819D02*
X57340476Y-48397438D01*
X56388095Y-49349819D02*
X56959523Y-49349819D01*
X56673809Y-49349819D02*
X56673809Y-48349819D01*
X56673809Y-48349819D02*
X56769047Y-48492676D01*
X56769047Y-48492676D02*
X56864285Y-48587914D01*
X56864285Y-48587914D02*
X56959523Y-48635533D01*
X96011904Y-46920950D02*
X95869047Y-46968569D01*
X95869047Y-46968569D02*
X95630952Y-46968569D01*
X95630952Y-46968569D02*
X95535714Y-46920950D01*
X95535714Y-46920950D02*
X95488095Y-46873330D01*
X95488095Y-46873330D02*
X95440476Y-46778092D01*
X95440476Y-46778092D02*
X95440476Y-46682854D01*
X95440476Y-46682854D02*
X95488095Y-46587616D01*
X95488095Y-46587616D02*
X95535714Y-46539997D01*
X95535714Y-46539997D02*
X95630952Y-46492378D01*
X95630952Y-46492378D02*
X95821428Y-46444759D01*
X95821428Y-46444759D02*
X95916666Y-46397140D01*
X95916666Y-46397140D02*
X95964285Y-46349521D01*
X95964285Y-46349521D02*
X96011904Y-46254283D01*
X96011904Y-46254283D02*
X96011904Y-46159045D01*
X96011904Y-46159045D02*
X95964285Y-46063807D01*
X95964285Y-46063807D02*
X95916666Y-46016188D01*
X95916666Y-46016188D02*
X95821428Y-45968569D01*
X95821428Y-45968569D02*
X95583333Y-45968569D01*
X95583333Y-45968569D02*
X95440476Y-46016188D01*
X95107142Y-45968569D02*
X94488095Y-45968569D01*
X94488095Y-45968569D02*
X94821428Y-46349521D01*
X94821428Y-46349521D02*
X94678571Y-46349521D01*
X94678571Y-46349521D02*
X94583333Y-46397140D01*
X94583333Y-46397140D02*
X94535714Y-46444759D01*
X94535714Y-46444759D02*
X94488095Y-46539997D01*
X94488095Y-46539997D02*
X94488095Y-46778092D01*
X94488095Y-46778092D02*
X94535714Y-46873330D01*
X94535714Y-46873330D02*
X94583333Y-46920950D01*
X94583333Y-46920950D02*
X94678571Y-46968569D01*
X94678571Y-46968569D02*
X94964285Y-46968569D01*
X94964285Y-46968569D02*
X95059523Y-46920950D01*
X95059523Y-46920950D02*
X95107142Y-46873330D01*
X58388094Y-87402200D02*
X58245237Y-87449819D01*
X58245237Y-87449819D02*
X58007142Y-87449819D01*
X58007142Y-87449819D02*
X57911904Y-87402200D01*
X57911904Y-87402200D02*
X57864285Y-87354580D01*
X57864285Y-87354580D02*
X57816666Y-87259342D01*
X57816666Y-87259342D02*
X57816666Y-87164104D01*
X57816666Y-87164104D02*
X57864285Y-87068866D01*
X57864285Y-87068866D02*
X57911904Y-87021247D01*
X57911904Y-87021247D02*
X58007142Y-86973628D01*
X58007142Y-86973628D02*
X58197618Y-86926009D01*
X58197618Y-86926009D02*
X58292856Y-86878390D01*
X58292856Y-86878390D02*
X58340475Y-86830771D01*
X58340475Y-86830771D02*
X58388094Y-86735533D01*
X58388094Y-86735533D02*
X58388094Y-86640295D01*
X58388094Y-86640295D02*
X58340475Y-86545057D01*
X58340475Y-86545057D02*
X58292856Y-86497438D01*
X58292856Y-86497438D02*
X58197618Y-86449819D01*
X58197618Y-86449819D02*
X57959523Y-86449819D01*
X57959523Y-86449819D02*
X57816666Y-86497438D01*
X56864285Y-87449819D02*
X57435713Y-87449819D01*
X57149999Y-87449819D02*
X57149999Y-86449819D01*
X57149999Y-86449819D02*
X57245237Y-86592676D01*
X57245237Y-86592676D02*
X57340475Y-86687914D01*
X57340475Y-86687914D02*
X57435713Y-86735533D01*
X56530951Y-86449819D02*
X55911904Y-86449819D01*
X55911904Y-86449819D02*
X56245237Y-86830771D01*
X56245237Y-86830771D02*
X56102380Y-86830771D01*
X56102380Y-86830771D02*
X56007142Y-86878390D01*
X56007142Y-86878390D02*
X55959523Y-86926009D01*
X55959523Y-86926009D02*
X55911904Y-87021247D01*
X55911904Y-87021247D02*
X55911904Y-87259342D01*
X55911904Y-87259342D02*
X55959523Y-87354580D01*
X55959523Y-87354580D02*
X56007142Y-87402200D01*
X56007142Y-87402200D02*
X56102380Y-87449819D01*
X56102380Y-87449819D02*
X56388094Y-87449819D01*
X56388094Y-87449819D02*
X56483332Y-87402200D01*
X56483332Y-87402200D02*
X56530951Y-87354580D01*
X115538094Y-104070950D02*
X115395237Y-104118569D01*
X115395237Y-104118569D02*
X115157142Y-104118569D01*
X115157142Y-104118569D02*
X115061904Y-104070950D01*
X115061904Y-104070950D02*
X115014285Y-104023330D01*
X115014285Y-104023330D02*
X114966666Y-103928092D01*
X114966666Y-103928092D02*
X114966666Y-103832854D01*
X114966666Y-103832854D02*
X115014285Y-103737616D01*
X115014285Y-103737616D02*
X115061904Y-103689997D01*
X115061904Y-103689997D02*
X115157142Y-103642378D01*
X115157142Y-103642378D02*
X115347618Y-103594759D01*
X115347618Y-103594759D02*
X115442856Y-103547140D01*
X115442856Y-103547140D02*
X115490475Y-103499521D01*
X115490475Y-103499521D02*
X115538094Y-103404283D01*
X115538094Y-103404283D02*
X115538094Y-103309045D01*
X115538094Y-103309045D02*
X115490475Y-103213807D01*
X115490475Y-103213807D02*
X115442856Y-103166188D01*
X115442856Y-103166188D02*
X115347618Y-103118569D01*
X115347618Y-103118569D02*
X115109523Y-103118569D01*
X115109523Y-103118569D02*
X114966666Y-103166188D01*
X114014285Y-104118569D02*
X114585713Y-104118569D01*
X114299999Y-104118569D02*
X114299999Y-103118569D01*
X114299999Y-103118569D02*
X114395237Y-103261426D01*
X114395237Y-103261426D02*
X114490475Y-103356664D01*
X114490475Y-103356664D02*
X114585713Y-103404283D01*
X113538094Y-104118569D02*
X113347618Y-104118569D01*
X113347618Y-104118569D02*
X113252380Y-104070950D01*
X113252380Y-104070950D02*
X113204761Y-104023330D01*
X113204761Y-104023330D02*
X113109523Y-103880473D01*
X113109523Y-103880473D02*
X113061904Y-103689997D01*
X113061904Y-103689997D02*
X113061904Y-103309045D01*
X113061904Y-103309045D02*
X113109523Y-103213807D01*
X113109523Y-103213807D02*
X113157142Y-103166188D01*
X113157142Y-103166188D02*
X113252380Y-103118569D01*
X113252380Y-103118569D02*
X113442856Y-103118569D01*
X113442856Y-103118569D02*
X113538094Y-103166188D01*
X113538094Y-103166188D02*
X113585713Y-103213807D01*
X113585713Y-103213807D02*
X113633332Y-103309045D01*
X113633332Y-103309045D02*
X113633332Y-103547140D01*
X113633332Y-103547140D02*
X113585713Y-103642378D01*
X113585713Y-103642378D02*
X113538094Y-103689997D01*
X113538094Y-103689997D02*
X113442856Y-103737616D01*
X113442856Y-103737616D02*
X113252380Y-103737616D01*
X113252380Y-103737616D02*
X113157142Y-103689997D01*
X113157142Y-103689997D02*
X113109523Y-103642378D01*
X113109523Y-103642378D02*
X113061904Y-103547140D01*
X162158621Y-115266402D02*
X162011094Y-115236213D01*
X162011094Y-115236213D02*
X161804897Y-115117166D01*
X161804897Y-115117166D02*
X161746228Y-115028307D01*
X161746228Y-115028307D02*
X161728798Y-114963258D01*
X161728798Y-114963258D02*
X161735178Y-114856970D01*
X161735178Y-114856970D02*
X161782797Y-114774492D01*
X161782797Y-114774492D02*
X161871655Y-114715823D01*
X161871655Y-114715823D02*
X161936704Y-114698393D01*
X161936704Y-114698393D02*
X162042992Y-114704773D01*
X162042992Y-114704773D02*
X162231759Y-114758771D01*
X162231759Y-114758771D02*
X162338047Y-114765151D01*
X162338047Y-114765151D02*
X162403096Y-114747721D01*
X162403096Y-114747721D02*
X162491954Y-114689052D01*
X162491954Y-114689052D02*
X162539573Y-114606574D01*
X162539573Y-114606574D02*
X162545953Y-114500285D01*
X162545953Y-114500285D02*
X162528523Y-114435237D01*
X162528523Y-114435237D02*
X162469854Y-114346378D01*
X162469854Y-114346378D02*
X162263658Y-114227331D01*
X162263658Y-114227331D02*
X162116130Y-114197141D01*
X161762406Y-114047904D02*
X161744977Y-113982856D01*
X161744977Y-113982856D02*
X161686307Y-113893997D01*
X161686307Y-113893997D02*
X161480111Y-113774950D01*
X161480111Y-113774950D02*
X161373823Y-113768570D01*
X161373823Y-113768570D02*
X161308774Y-113786000D01*
X161308774Y-113786000D02*
X161219916Y-113844669D01*
X161219916Y-113844669D02*
X161172297Y-113927147D01*
X161172297Y-113927147D02*
X161142107Y-114074675D01*
X161142107Y-114074675D02*
X161351265Y-114855261D01*
X161351265Y-114855261D02*
X160815154Y-114545737D01*
X159990368Y-114069546D02*
X160485239Y-114355261D01*
X160237803Y-114212404D02*
X160737803Y-113346378D01*
X160737803Y-113346378D02*
X160748853Y-113517715D01*
X160748853Y-113517715D02*
X160783713Y-113647813D01*
X160783713Y-113647813D02*
X160842382Y-113736671D01*
X138958317Y-107040049D02*
X138808003Y-107049071D01*
X138808003Y-107049071D02*
X138578021Y-106987448D01*
X138578021Y-106987448D02*
X138498352Y-106916802D01*
X138498352Y-106916802D02*
X138464681Y-106858481D01*
X138464681Y-106858481D02*
X138443334Y-106754163D01*
X138443334Y-106754163D02*
X138467983Y-106662170D01*
X138467983Y-106662170D02*
X138538629Y-106582502D01*
X138538629Y-106582502D02*
X138596950Y-106548830D01*
X138596950Y-106548830D02*
X138701268Y-106527483D01*
X138701268Y-106527483D02*
X138897578Y-106530785D01*
X138897578Y-106530785D02*
X139001896Y-106509438D01*
X139001896Y-106509438D02*
X139060217Y-106475767D01*
X139060217Y-106475767D02*
X139130863Y-106396098D01*
X139130863Y-106396098D02*
X139155513Y-106304106D01*
X139155513Y-106304106D02*
X139134166Y-106199788D01*
X139134166Y-106199788D02*
X139100494Y-106141467D01*
X139100494Y-106141467D02*
X139020826Y-106070821D01*
X139020826Y-106070821D02*
X138790843Y-106009197D01*
X138790843Y-106009197D02*
X138640529Y-106018220D01*
X138260233Y-105965618D02*
X138226561Y-105907297D01*
X138226561Y-105907297D02*
X138146893Y-105836651D01*
X138146893Y-105836651D02*
X137916910Y-105775028D01*
X137916910Y-105775028D02*
X137812593Y-105796375D01*
X137812593Y-105796375D02*
X137754271Y-105830046D01*
X137754271Y-105830046D02*
X137683626Y-105909715D01*
X137683626Y-105909715D02*
X137658976Y-106001708D01*
X137658976Y-106001708D02*
X137667998Y-106152022D01*
X137667998Y-106152022D02*
X138072059Y-106851876D01*
X138072059Y-106851876D02*
X137474105Y-106691655D01*
X137134970Y-105565507D02*
X137042977Y-105540858D01*
X137042977Y-105540858D02*
X136938660Y-105562205D01*
X136938660Y-105562205D02*
X136880339Y-105595877D01*
X136880339Y-105595877D02*
X136809693Y-105675545D01*
X136809693Y-105675545D02*
X136714397Y-105847206D01*
X136714397Y-105847206D02*
X136652774Y-106077188D01*
X136652774Y-106077188D02*
X136649471Y-106273499D01*
X136649471Y-106273499D02*
X136670818Y-106377817D01*
X136670818Y-106377817D02*
X136704490Y-106436138D01*
X136704490Y-106436138D02*
X136784158Y-106506784D01*
X136784158Y-106506784D02*
X136876151Y-106531433D01*
X136876151Y-106531433D02*
X136980469Y-106510086D01*
X136980469Y-106510086D02*
X137038790Y-106476414D01*
X137038790Y-106476414D02*
X137109436Y-106396746D01*
X137109436Y-106396746D02*
X137204731Y-106225085D01*
X137204731Y-106225085D02*
X137266355Y-105995103D01*
X137266355Y-105995103D02*
X137269657Y-105798792D01*
X137269657Y-105798792D02*
X137248310Y-105694474D01*
X137248310Y-105694474D02*
X137214639Y-105636153D01*
X137214639Y-105636153D02*
X137134970Y-105565507D01*
X96011904Y-65970950D02*
X95869047Y-66018569D01*
X95869047Y-66018569D02*
X95630952Y-66018569D01*
X95630952Y-66018569D02*
X95535714Y-65970950D01*
X95535714Y-65970950D02*
X95488095Y-65923330D01*
X95488095Y-65923330D02*
X95440476Y-65828092D01*
X95440476Y-65828092D02*
X95440476Y-65732854D01*
X95440476Y-65732854D02*
X95488095Y-65637616D01*
X95488095Y-65637616D02*
X95535714Y-65589997D01*
X95535714Y-65589997D02*
X95630952Y-65542378D01*
X95630952Y-65542378D02*
X95821428Y-65494759D01*
X95821428Y-65494759D02*
X95916666Y-65447140D01*
X95916666Y-65447140D02*
X95964285Y-65399521D01*
X95964285Y-65399521D02*
X96011904Y-65304283D01*
X96011904Y-65304283D02*
X96011904Y-65209045D01*
X96011904Y-65209045D02*
X95964285Y-65113807D01*
X95964285Y-65113807D02*
X95916666Y-65066188D01*
X95916666Y-65066188D02*
X95821428Y-65018569D01*
X95821428Y-65018569D02*
X95583333Y-65018569D01*
X95583333Y-65018569D02*
X95440476Y-65066188D01*
X94964285Y-66018569D02*
X94773809Y-66018569D01*
X94773809Y-66018569D02*
X94678571Y-65970950D01*
X94678571Y-65970950D02*
X94630952Y-65923330D01*
X94630952Y-65923330D02*
X94535714Y-65780473D01*
X94535714Y-65780473D02*
X94488095Y-65589997D01*
X94488095Y-65589997D02*
X94488095Y-65209045D01*
X94488095Y-65209045D02*
X94535714Y-65113807D01*
X94535714Y-65113807D02*
X94583333Y-65066188D01*
X94583333Y-65066188D02*
X94678571Y-65018569D01*
X94678571Y-65018569D02*
X94869047Y-65018569D01*
X94869047Y-65018569D02*
X94964285Y-65066188D01*
X94964285Y-65066188D02*
X95011904Y-65113807D01*
X95011904Y-65113807D02*
X95059523Y-65209045D01*
X95059523Y-65209045D02*
X95059523Y-65447140D01*
X95059523Y-65447140D02*
X95011904Y-65542378D01*
X95011904Y-65542378D02*
X94964285Y-65589997D01*
X94964285Y-65589997D02*
X94869047Y-65637616D01*
X94869047Y-65637616D02*
X94678571Y-65637616D01*
X94678571Y-65637616D02*
X94583333Y-65589997D01*
X94583333Y-65589997D02*
X94535714Y-65542378D01*
X94535714Y-65542378D02*
X94488095Y-65447140D01*
X178921697Y-91104788D02*
X179635982Y-91104788D01*
X179635982Y-91104788D02*
X179778839Y-91057169D01*
X179778839Y-91057169D02*
X179874078Y-90961931D01*
X179874078Y-90961931D02*
X179921697Y-90819074D01*
X179921697Y-90819074D02*
X179921697Y-90723836D01*
X179016935Y-91533360D02*
X178969316Y-91580979D01*
X178969316Y-91580979D02*
X178921697Y-91676217D01*
X178921697Y-91676217D02*
X178921697Y-91914312D01*
X178921697Y-91914312D02*
X178969316Y-92009550D01*
X178969316Y-92009550D02*
X179016935Y-92057169D01*
X179016935Y-92057169D02*
X179112173Y-92104788D01*
X179112173Y-92104788D02*
X179207411Y-92104788D01*
X179207411Y-92104788D02*
X179350268Y-92057169D01*
X179350268Y-92057169D02*
X179921697Y-91485741D01*
X179921697Y-91485741D02*
X179921697Y-92104788D01*
D11*
G04 #@! TO.C,D12*
X152149999Y-85325001D02*
X152749999Y-85725001D01*
X152149999Y-85725001D02*
X151649999Y-85725001D01*
X152149999Y-86125001D02*
X152149999Y-85325001D01*
X152749999Y-85725001D02*
X152149999Y-86125001D01*
X152749999Y-86275001D02*
X152749999Y-85175001D01*
X153149999Y-85725001D02*
X152749999Y-85725001D01*
G04 #@! TO.C,D17*
X133099999Y-101993751D02*
X133699999Y-102393751D01*
X133099999Y-102393751D02*
X132599999Y-102393751D01*
X133099999Y-102793751D02*
X133099999Y-101993751D01*
X133699999Y-102393751D02*
X133099999Y-102793751D01*
X133699999Y-102943751D02*
X133699999Y-101843751D01*
X134099999Y-102393751D02*
X133699999Y-102393751D01*
G04 #@! TO.C,D21*
X151983493Y-129999535D02*
X152383493Y-129306715D01*
X152183493Y-129653125D02*
X151750480Y-129403125D01*
X152383493Y-129306715D02*
X152703108Y-129953125D01*
X152428108Y-130429439D02*
X152978108Y-129476811D01*
X152703108Y-129953125D02*
X151983493Y-129999535D01*
X153049518Y-130153125D02*
X152703108Y-129953125D01*
G04 #@! TO.C,D2*
X75949999Y-66275001D02*
X76549999Y-66675001D01*
X75949999Y-66675001D02*
X75449999Y-66675001D01*
X75949999Y-67075001D02*
X75949999Y-66275001D01*
X76549999Y-66675001D02*
X75949999Y-67075001D01*
X76549999Y-67225001D02*
X76549999Y-66125001D01*
X76949999Y-66675001D02*
X76549999Y-66675001D01*
D10*
G04 #@! TO.C,S5*
X126350000Y-47768750D02*
X127350000Y-47768750D01*
X126350000Y-48768750D02*
X126350000Y-47768750D01*
X126350000Y-61768750D02*
X126350000Y-60768750D01*
X127350000Y-61768750D02*
X126350000Y-61768750D01*
X139350000Y-47768750D02*
X140350000Y-47768750D01*
X140350000Y-47768750D02*
X140350000Y-48768750D01*
X140350000Y-60768750D02*
X140350000Y-61768750D01*
X140350000Y-61768750D02*
X139350000Y-61768750D01*
D11*
G04 #@! TO.C,D4*
X114049999Y-61512501D02*
X114649999Y-61912501D01*
X114049999Y-61912501D02*
X113549999Y-61912501D01*
X114049999Y-62312501D02*
X114049999Y-61512501D01*
X114649999Y-61912501D02*
X114049999Y-62312501D01*
X114649999Y-62462501D02*
X114649999Y-61362501D01*
X115049999Y-61912501D02*
X114649999Y-61912501D01*
D10*
G04 #@! TO.C,S11*
X126350000Y-66818750D02*
X127350000Y-66818750D01*
X126350000Y-67818750D02*
X126350000Y-66818750D01*
X126350000Y-80818750D02*
X126350000Y-79818750D01*
X127350000Y-80818750D02*
X126350000Y-80818750D01*
X139350000Y-66818750D02*
X140350000Y-66818750D01*
X140350000Y-66818750D02*
X140350000Y-67818750D01*
X140350000Y-79818750D02*
X140350000Y-80818750D01*
X140350000Y-80818750D02*
X139350000Y-80818750D01*
D11*
G04 #@! TO.C,D13*
X56899999Y-104375001D02*
X57499999Y-104775001D01*
X56899999Y-104775001D02*
X56399999Y-104775001D01*
X56899999Y-105175001D02*
X56899999Y-104375001D01*
X57499999Y-104775001D02*
X56899999Y-105175001D01*
X57499999Y-105325001D02*
X57499999Y-104225001D01*
X57899999Y-104775001D02*
X57499999Y-104775001D01*
D10*
G04 #@! TO.C,S7*
X50150000Y-69200000D02*
X51150000Y-69200000D01*
X50150000Y-70200000D02*
X50150000Y-69200000D01*
X50150000Y-83200000D02*
X50150000Y-82200000D01*
X51150000Y-83200000D02*
X50150000Y-83200000D01*
X63150000Y-69200000D02*
X64150000Y-69200000D01*
X64150000Y-69200000D02*
X64150000Y-70200000D01*
X64150000Y-82200000D02*
X64150000Y-83200000D01*
X64150000Y-83200000D02*
X63150000Y-83200000D01*
G04 #@! TO.C,S15*
X88250000Y-85868750D02*
X89250000Y-85868750D01*
X88250000Y-86868750D02*
X88250000Y-85868750D01*
X88250000Y-99868750D02*
X88250000Y-98868750D01*
X89250000Y-99868750D02*
X88250000Y-99868750D01*
X101250000Y-85868750D02*
X102250000Y-85868750D01*
X102250000Y-85868750D02*
X102250000Y-86868750D01*
X102250000Y-98868750D02*
X102250000Y-99868750D01*
X102250000Y-99868750D02*
X101250000Y-99868750D01*
D11*
G04 #@! TO.C,D15*
X94999999Y-101993751D02*
X95599999Y-102393751D01*
X94999999Y-102393751D02*
X94499999Y-102393751D01*
X94999999Y-102793751D02*
X94999999Y-101993751D01*
X95599999Y-102393751D02*
X94999999Y-102793751D01*
X95599999Y-102943751D02*
X95599999Y-101843751D01*
X95999999Y-102393751D02*
X95599999Y-102393751D01*
G04 #@! TO.C,D9*
X94999999Y-82943751D02*
X95599999Y-83343751D01*
X94999999Y-83343751D02*
X94499999Y-83343751D01*
X94999999Y-83743751D02*
X94999999Y-82943751D01*
X95599999Y-83343751D02*
X94999999Y-83743751D01*
X95599999Y-83893751D02*
X95599999Y-82793751D01*
X95999999Y-83343751D02*
X95599999Y-83343751D01*
G04 #@! TO.C,D11*
X133099999Y-82943751D02*
X133699999Y-83343751D01*
X133099999Y-83343751D02*
X132599999Y-83343751D01*
X133099999Y-83743751D02*
X133099999Y-82943751D01*
X133699999Y-83343751D02*
X133099999Y-83743751D01*
X133699999Y-83893751D02*
X133699999Y-82793751D01*
X134099999Y-83343751D02*
X133699999Y-83343751D01*
G04 #@! TO.C,D7*
X56899999Y-85325001D02*
X57499999Y-85725001D01*
X56899999Y-85725001D02*
X56399999Y-85725001D01*
X56899999Y-86125001D02*
X56899999Y-85325001D01*
X57499999Y-85725001D02*
X56899999Y-86125001D01*
X57499999Y-86275001D02*
X57499999Y-85175001D01*
X57899999Y-85725001D02*
X57499999Y-85725001D01*
G04 #@! TO.C,D20*
X133004991Y-122956041D02*
X133212046Y-122183300D01*
X133108518Y-122569671D02*
X132625555Y-122440261D01*
X133212046Y-122183300D02*
X133688074Y-122724962D01*
X133545723Y-123256221D02*
X133830424Y-122193703D01*
X133688074Y-122724962D02*
X133004991Y-122956041D01*
X134074444Y-122828490D02*
X133688074Y-122724962D01*
G04 #@! TO.C,D10*
X114049999Y-80562501D02*
X114649999Y-80962501D01*
X114049999Y-80962501D02*
X113549999Y-80962501D01*
X114049999Y-81362501D02*
X114049999Y-80562501D01*
X114649999Y-80962501D02*
X114049999Y-81362501D01*
X114649999Y-81512501D02*
X114649999Y-80412501D01*
X115049999Y-80962501D02*
X114649999Y-80962501D01*
G04 #@! TO.C,D18*
X152149999Y-104375000D02*
X152749999Y-104775000D01*
X152149999Y-104775000D02*
X151649999Y-104775000D01*
X152149999Y-105175000D02*
X152149999Y-104375000D01*
X152749999Y-104775000D02*
X152149999Y-105175000D01*
X152749999Y-105325000D02*
X152749999Y-104225000D01*
X153149999Y-104775000D02*
X152749999Y-104775000D01*
D10*
G04 #@! TO.C,S4*
X107300000Y-45387500D02*
X108300000Y-45387500D01*
X107300000Y-46387500D02*
X107300000Y-45387500D01*
X107300000Y-59387500D02*
X107300000Y-58387500D01*
X108300000Y-59387500D02*
X107300000Y-59387500D01*
X120300000Y-45387500D02*
X121300000Y-45387500D01*
X121300000Y-45387500D02*
X121300000Y-46387500D01*
X121300000Y-58387500D02*
X121300000Y-59387500D01*
X121300000Y-59387500D02*
X120300000Y-59387500D01*
D11*
G04 #@! TO.C,D3*
X94999999Y-63893751D02*
X95599999Y-64293751D01*
X94999999Y-64293751D02*
X94499999Y-64293751D01*
X94999999Y-64693751D02*
X94999999Y-63893751D01*
X95599999Y-64293751D02*
X94999999Y-64693751D01*
X95599999Y-64843751D02*
X95599999Y-63743751D01*
X95999999Y-64293751D02*
X95599999Y-64293751D01*
D10*
G04 #@! TO.C,S18*
X145400000Y-88250000D02*
X146400000Y-88250000D01*
X145400000Y-89250000D02*
X145400000Y-88250000D01*
X145400000Y-102250000D02*
X145400000Y-101250000D01*
X146400000Y-102250000D02*
X145400000Y-102250000D01*
X158400000Y-88250000D02*
X159400000Y-88250000D01*
X159400000Y-88250000D02*
X159400000Y-89250000D01*
X159400000Y-101250000D02*
X159400000Y-102250000D01*
X159400000Y-102250000D02*
X158400000Y-102250000D01*
G04 #@! TO.C,S6*
X145400000Y-50150000D02*
X146400000Y-50150000D01*
X145400000Y-51150000D02*
X145400000Y-50150000D01*
X145400000Y-64150000D02*
X145400000Y-63150000D01*
X146400000Y-64150000D02*
X145400000Y-64150000D01*
X158400000Y-50150000D02*
X159400000Y-50150000D01*
X159400000Y-50150000D02*
X159400000Y-51150000D01*
X159400000Y-63150000D02*
X159400000Y-64150000D01*
X159400000Y-64150000D02*
X158400000Y-64150000D01*
G04 #@! TO.C,S17*
X126350000Y-85868750D02*
X127350000Y-85868750D01*
X126350000Y-86868750D02*
X126350000Y-85868750D01*
X126350000Y-99868750D02*
X126350000Y-98868750D01*
X127350000Y-99868750D02*
X126350000Y-99868750D01*
X139350000Y-85868750D02*
X140350000Y-85868750D01*
X140350000Y-85868750D02*
X140350000Y-86868750D01*
X140350000Y-98868750D02*
X140350000Y-99868750D01*
X140350000Y-99868750D02*
X139350000Y-99868750D01*
G04 #@! TO.C,S14*
X69200000Y-88250000D02*
X70200000Y-88250000D01*
X69200000Y-89250000D02*
X69200000Y-88250000D01*
X69200000Y-102250000D02*
X69200000Y-101250000D01*
X70200000Y-102250000D02*
X69200000Y-102250000D01*
X82200000Y-88250000D02*
X83200000Y-88250000D01*
X83200000Y-88250000D02*
X83200000Y-89250000D01*
X83200000Y-101250000D02*
X83200000Y-102250000D01*
X83200000Y-102250000D02*
X82200000Y-102250000D01*
D11*
G04 #@! TO.C,D1*
X56899999Y-66275001D02*
X57499999Y-66675001D01*
X56899999Y-66675001D02*
X56399999Y-66675001D01*
X56899999Y-67075001D02*
X56899999Y-66275001D01*
X57499999Y-66675001D02*
X56899999Y-67075001D01*
X57499999Y-67225001D02*
X57499999Y-66125001D01*
X57899999Y-66675001D02*
X57499999Y-66675001D01*
G04 #@! TO.C,D16*
X114049999Y-99612501D02*
X114649999Y-100012501D01*
X114049999Y-100012501D02*
X113549999Y-100012501D01*
X114049999Y-100412501D02*
X114049999Y-99612501D01*
X114649999Y-100012501D02*
X114049999Y-100412501D01*
X114649999Y-100562501D02*
X114649999Y-99462501D01*
X115049999Y-100012501D02*
X114649999Y-100012501D01*
D10*
G04 #@! TO.C,S8*
X69200000Y-69200000D02*
X70200000Y-69200000D01*
X69200000Y-70200000D02*
X69200000Y-69200000D01*
X69200000Y-83200000D02*
X69200000Y-82200000D01*
X70200000Y-83200000D02*
X69200000Y-83200000D01*
X82200000Y-69200000D02*
X83200000Y-69200000D01*
X83200000Y-69200000D02*
X83200000Y-70200000D01*
X83200000Y-82200000D02*
X83200000Y-83200000D01*
X83200000Y-83200000D02*
X82200000Y-83200000D01*
D11*
G04 #@! TO.C,D5*
X133099999Y-63893751D02*
X133699999Y-64293751D01*
X133099999Y-64293751D02*
X132599999Y-64293751D01*
X133099999Y-64693751D02*
X133099999Y-63893751D01*
X133699999Y-64293751D02*
X133099999Y-64693751D01*
X133699999Y-64843751D02*
X133699999Y-63743751D01*
X134099999Y-64293751D02*
X133699999Y-64293751D01*
G04 #@! TO.C,D14*
X75949999Y-104375001D02*
X76549999Y-104775001D01*
X75949999Y-104775001D02*
X75449999Y-104775001D01*
X75949999Y-105175001D02*
X75949999Y-104375001D01*
X76549999Y-104775001D02*
X75949999Y-105175001D01*
X76549999Y-105325001D02*
X76549999Y-104225001D01*
X76949999Y-104775001D02*
X76549999Y-104775001D01*
D10*
G04 #@! TO.C,S2*
X69200000Y-50150000D02*
X70200000Y-50150000D01*
X69200000Y-51150000D02*
X69200000Y-50150000D01*
X69200000Y-64150000D02*
X69200000Y-63150000D01*
X70200000Y-64150000D02*
X69200000Y-64150000D01*
X82200000Y-50150000D02*
X83200000Y-50150000D01*
X83200000Y-50150000D02*
X83200000Y-51150000D01*
X83200000Y-63150000D02*
X83200000Y-64150000D01*
X83200000Y-64150000D02*
X82200000Y-64150000D01*
G04 #@! TO.C,S16*
X107300000Y-83487500D02*
X108300000Y-83487500D01*
X107300000Y-84487500D02*
X107300000Y-83487500D01*
X107300000Y-97487500D02*
X107300000Y-96487500D01*
X108300000Y-97487500D02*
X107300000Y-97487500D01*
X120300000Y-83487500D02*
X121300000Y-83487500D01*
X121300000Y-83487500D02*
X121300000Y-84487500D01*
X121300000Y-96487500D02*
X121300000Y-97487500D01*
X121300000Y-97487500D02*
X120300000Y-97487500D01*
G04 #@! TO.C,S10*
X107300000Y-64437500D02*
X108300000Y-64437500D01*
X107300000Y-65437500D02*
X107300000Y-64437500D01*
X107300000Y-78437500D02*
X107300000Y-77437500D01*
X108300000Y-78437500D02*
X107300000Y-78437500D01*
X120300000Y-64437500D02*
X121300000Y-64437500D01*
X121300000Y-64437500D02*
X121300000Y-65437500D01*
X121300000Y-77437500D02*
X121300000Y-78437500D01*
X121300000Y-78437500D02*
X120300000Y-78437500D01*
G04 #@! TO.C,S12*
X145400000Y-69200000D02*
X146400000Y-69200000D01*
X145400000Y-70200000D02*
X145400000Y-69200000D01*
X145400000Y-83200000D02*
X145400000Y-82200000D01*
X146400000Y-83200000D02*
X145400000Y-83200000D01*
X158400000Y-69200000D02*
X159400000Y-69200000D01*
X159400000Y-69200000D02*
X159400000Y-70200000D01*
X159400000Y-82200000D02*
X159400000Y-83200000D01*
X159400000Y-83200000D02*
X158400000Y-83200000D01*
G04 #@! TO.C,S1*
X50150000Y-50150000D02*
X51150000Y-50150000D01*
X50150000Y-51150000D02*
X50150000Y-50150000D01*
X50150000Y-64150000D02*
X50150000Y-63150000D01*
X51150000Y-64150000D02*
X50150000Y-64150000D01*
X63150000Y-50150000D02*
X64150000Y-50150000D01*
X64150000Y-50150000D02*
X64150000Y-51150000D01*
X64150000Y-63150000D02*
X64150000Y-64150000D01*
X64150000Y-64150000D02*
X63150000Y-64150000D01*
G04 #@! TO.C,S3*
X88250000Y-47768750D02*
X89250000Y-47768750D01*
X88250000Y-48768750D02*
X88250000Y-47768750D01*
X88250000Y-61768750D02*
X88250000Y-60768750D01*
X89250000Y-61768750D02*
X88250000Y-61768750D01*
X101250000Y-47768750D02*
X102250000Y-47768750D01*
X102250000Y-47768750D02*
X102250000Y-48768750D01*
X102250000Y-60768750D02*
X102250000Y-61768750D01*
X102250000Y-61768750D02*
X101250000Y-61768750D01*
G04 #@! TO.C,S13*
X50150000Y-88250000D02*
X51150000Y-88250000D01*
X50150000Y-89250000D02*
X50150000Y-88250000D01*
X50150000Y-102250000D02*
X50150000Y-101250000D01*
X51150000Y-102250000D02*
X50150000Y-102250000D01*
X63150000Y-88250000D02*
X64150000Y-88250000D01*
X64150000Y-88250000D02*
X64150000Y-89250000D01*
X64150000Y-101250000D02*
X64150000Y-102250000D01*
X64150000Y-102250000D02*
X63150000Y-102250000D01*
D11*
G04 #@! TO.C,D19*
X114049999Y-121043751D02*
X114649999Y-121443751D01*
X114049999Y-121443751D02*
X113549999Y-121443751D01*
X114049999Y-121843751D02*
X114049999Y-121043751D01*
X114649999Y-121443751D02*
X114049999Y-121843751D01*
X114649999Y-121993751D02*
X114649999Y-120893751D01*
X115049999Y-121443751D02*
X114649999Y-121443751D01*
G04 #@! TO.C,D8*
X75949999Y-85325001D02*
X76549999Y-85725001D01*
X75949999Y-85725001D02*
X75449999Y-85725001D01*
X75949999Y-86125001D02*
X75949999Y-85325001D01*
X76549999Y-85725001D02*
X75949999Y-86125001D01*
X76549999Y-86275001D02*
X76549999Y-85175001D01*
X76949999Y-85725001D02*
X76549999Y-85725001D01*
D10*
G04 #@! TO.C,S19*
X107300000Y-104918750D02*
X108300000Y-104918750D01*
X107300000Y-105918750D02*
X107300000Y-104918750D01*
X107300000Y-118918750D02*
X107300000Y-117918750D01*
X108300000Y-118918750D02*
X107300000Y-118918750D01*
X120300000Y-104918750D02*
X121300000Y-104918750D01*
X121300000Y-104918750D02*
X121300000Y-105918750D01*
X121300000Y-117918750D02*
X121300000Y-118918750D01*
X121300000Y-118918750D02*
X120300000Y-118918750D01*
G04 #@! TO.C,S21*
X147600322Y-124005928D02*
X148100322Y-123139902D01*
X148466348Y-124505928D02*
X147600322Y-124005928D01*
X154100322Y-112747598D02*
X154600322Y-111881572D01*
X154600322Y-111881572D02*
X155466348Y-112381572D01*
X159724678Y-131005928D02*
X158858652Y-130505928D01*
X160224678Y-130139902D02*
X159724678Y-131005928D01*
X165858652Y-118381572D02*
X166724678Y-118881572D01*
X166724678Y-118881572D02*
X166224678Y-119747598D01*
D11*
G04 #@! TO.C,D6*
X152149999Y-66275001D02*
X152749999Y-66675001D01*
X152149999Y-66675001D02*
X151649999Y-66675001D01*
X152149999Y-67075001D02*
X152149999Y-66275001D01*
X152749999Y-66675001D02*
X152149999Y-67075001D01*
X152749999Y-67225001D02*
X152749999Y-66125001D01*
X153149999Y-66675001D02*
X152749999Y-66675001D01*
D10*
G04 #@! TO.C,S20*
X127158036Y-119249747D02*
X127416855Y-118283822D01*
X128123962Y-119508567D02*
X127158036Y-119249747D01*
X130522683Y-106692712D02*
X130781503Y-105726786D01*
X130781503Y-105726786D02*
X131747428Y-105985605D01*
X140680997Y-122873214D02*
X139715072Y-122614395D01*
X140939817Y-121907288D02*
X140680997Y-122873214D01*
X143338538Y-109091433D02*
X144304464Y-109350253D01*
X144304464Y-109350253D02*
X144045645Y-110316178D01*
G04 #@! TO.C,S9*
X88250000Y-66818750D02*
X89250000Y-66818750D01*
X88250000Y-67818750D02*
X88250000Y-66818750D01*
X88250000Y-80818750D02*
X88250000Y-79818750D01*
X89250000Y-80818750D02*
X88250000Y-80818750D01*
X101250000Y-66818750D02*
X102250000Y-66818750D01*
X102250000Y-66818750D02*
X102250000Y-67818750D01*
X102250000Y-79818750D02*
X102250000Y-80818750D01*
X102250000Y-80818750D02*
X101250000Y-80818750D01*
D12*
G04 #@! TO.C,J2*
X163396878Y-87578122D02*
X174796878Y-87578122D01*
X163396878Y-88678122D02*
X163396878Y-87578122D01*
X163396878Y-90278122D02*
X163396878Y-94878122D01*
X163396878Y-94878122D02*
X174796878Y-94878122D01*
X164996878Y-95678122D02*
X165996878Y-95678122D01*
X165496878Y-95178122D02*
X164996878Y-95678122D01*
X165996878Y-95678122D02*
X165496878Y-95178122D01*
X174796878Y-87578122D02*
X174796878Y-88778122D01*
X174796878Y-94578122D02*
X174796878Y-94878122D01*
X177596878Y-88778122D02*
X174796878Y-88778122D01*
X177596878Y-94578122D02*
X174796878Y-94578122D01*
X177596878Y-94578122D02*
X177596878Y-88778122D01*
G04 #@! TD*
%LPC*%
D13*
G04 #@! TO.C,D12*
X156209999Y-85725001D03*
D14*
X148589999Y-85725001D03*
G04 #@! TD*
D13*
G04 #@! TO.C,D17*
X137159999Y-102393751D03*
D14*
X129539999Y-102393751D03*
G04 #@! TD*
D15*
G04 #@! TO.C,D21*
X155699556Y-131683125D03*
D16*
X149100442Y-127873125D03*
G04 #@! TD*
D13*
G04 #@! TO.C,D2*
X80009999Y-66675001D03*
D14*
X72389999Y-66675001D03*
G04 #@! TD*
D17*
G04 #@! TO.C,S5*
X128270000Y-54768750D03*
D18*
X133350000Y-54768750D03*
D17*
X138430000Y-54768750D03*
D19*
X129540000Y-52228750D03*
X130810000Y-49688750D03*
X135890000Y-49688750D03*
X137160000Y-52228750D03*
G04 #@! TD*
D13*
G04 #@! TO.C,D4*
X118109999Y-61912501D03*
D14*
X110489999Y-61912501D03*
G04 #@! TD*
D17*
G04 #@! TO.C,S11*
X128270000Y-73818750D03*
D18*
X133350000Y-73818750D03*
D17*
X138430000Y-73818750D03*
D19*
X129540000Y-71278750D03*
X130810000Y-68738750D03*
X135890000Y-68738750D03*
X137160000Y-71278750D03*
G04 #@! TD*
D13*
G04 #@! TO.C,D13*
X60959999Y-104775001D03*
D14*
X53339999Y-104775001D03*
G04 #@! TD*
D20*
G04 #@! TO.C,REF\u002A\u002A*
X160734375Y-134540625D03*
G04 #@! TD*
D17*
G04 #@! TO.C,S7*
X52070000Y-76200000D03*
D18*
X57150000Y-76200000D03*
D17*
X62230000Y-76200000D03*
D19*
X53340000Y-73660000D03*
X54610000Y-71120000D03*
X59690000Y-71120000D03*
X60960000Y-73660000D03*
G04 #@! TD*
D17*
G04 #@! TO.C,S15*
X90170000Y-92868750D03*
D18*
X95250000Y-92868750D03*
D17*
X100330000Y-92868750D03*
D19*
X91440000Y-90328750D03*
X92710000Y-87788750D03*
X97790000Y-87788750D03*
X99060000Y-90328750D03*
G04 #@! TD*
D21*
G04 #@! TO.C,J1*
X171196875Y-99931250D03*
X164196875Y-99931250D03*
D22*
X172496875Y-103131250D03*
X169496875Y-97631250D03*
X172496875Y-97631250D03*
X163996875Y-102131250D03*
D23*
X165496875Y-97631250D03*
G04 #@! TD*
D13*
G04 #@! TO.C,D15*
X99059999Y-102393751D03*
D14*
X91439999Y-102393751D03*
G04 #@! TD*
D13*
G04 #@! TO.C,D9*
X99059999Y-83343751D03*
D14*
X91439999Y-83343751D03*
G04 #@! TD*
D13*
G04 #@! TO.C,D11*
X137159999Y-83343751D03*
D14*
X129539999Y-83343751D03*
G04 #@! TD*
D13*
G04 #@! TO.C,D7*
X60959999Y-85725001D03*
D14*
X53339999Y-85725001D03*
G04 #@! TD*
D20*
G04 #@! TO.C,REF\u002A\u002A*
X104775000Y-121443750D03*
G04 #@! TD*
D24*
G04 #@! TO.C,D20*
X137030177Y-123620476D03*
D25*
X129669822Y-121648275D03*
G04 #@! TD*
D13*
G04 #@! TO.C,D10*
X118109999Y-80962501D03*
D14*
X110489999Y-80962501D03*
G04 #@! TD*
D13*
G04 #@! TO.C,D18*
X156209999Y-104775000D03*
D14*
X148589999Y-104775000D03*
G04 #@! TD*
D17*
G04 #@! TO.C,S4*
X109220000Y-52387500D03*
D18*
X114300000Y-52387500D03*
D17*
X119380000Y-52387500D03*
D19*
X110490000Y-49847500D03*
X111760000Y-47307500D03*
X116840000Y-47307500D03*
X118110000Y-49847500D03*
G04 #@! TD*
D13*
G04 #@! TO.C,D3*
X99059999Y-64293751D03*
D14*
X91439999Y-64293751D03*
G04 #@! TD*
D17*
G04 #@! TO.C,S18*
X147320000Y-95250000D03*
D18*
X152400000Y-95250000D03*
D17*
X157480000Y-95250000D03*
D19*
X148590000Y-92710000D03*
X149860000Y-90170000D03*
X154940000Y-90170000D03*
X156210000Y-92710000D03*
G04 #@! TD*
D17*
G04 #@! TO.C,S6*
X147320000Y-57150000D03*
D18*
X152400000Y-57150000D03*
D17*
X157480000Y-57150000D03*
D19*
X148590000Y-54610000D03*
X149860000Y-52070000D03*
X154940000Y-52070000D03*
X156210000Y-54610000D03*
G04 #@! TD*
D20*
G04 #@! TO.C,REF\u002A\u002A*
X161925000Y-47625000D03*
G04 #@! TD*
D17*
G04 #@! TO.C,S17*
X128270000Y-92868750D03*
D18*
X133350000Y-92868750D03*
D17*
X138430000Y-92868750D03*
D19*
X129540000Y-90328750D03*
X130810000Y-87788750D03*
X135890000Y-87788750D03*
X137160000Y-90328750D03*
G04 #@! TD*
D17*
G04 #@! TO.C,S14*
X71120000Y-95250000D03*
D18*
X76200000Y-95250000D03*
D17*
X81280000Y-95250000D03*
D19*
X72390000Y-92710000D03*
X73660000Y-90170000D03*
X78740000Y-90170000D03*
X80010000Y-92710000D03*
G04 #@! TD*
D20*
G04 #@! TO.C,REF\u002A\u002A*
X47625000Y-47625000D03*
G04 #@! TD*
D13*
G04 #@! TO.C,D1*
X60959999Y-66675001D03*
D14*
X53339999Y-66675001D03*
G04 #@! TD*
D20*
G04 #@! TO.C,REF\u002A\u002A*
X104775000Y-82153125D03*
G04 #@! TD*
D13*
G04 #@! TO.C,D16*
X118109999Y-100012501D03*
D14*
X110489999Y-100012501D03*
G04 #@! TD*
D17*
G04 #@! TO.C,S8*
X71120000Y-76200000D03*
D18*
X76200000Y-76200000D03*
D17*
X81280000Y-76200000D03*
D19*
X72390000Y-73660000D03*
X73660000Y-71120000D03*
X78740000Y-71120000D03*
X80010000Y-73660000D03*
G04 #@! TD*
D13*
G04 #@! TO.C,D5*
X137159999Y-64293751D03*
D14*
X129539999Y-64293751D03*
G04 #@! TD*
D13*
G04 #@! TO.C,D14*
X80009999Y-104775001D03*
D14*
X72389999Y-104775001D03*
G04 #@! TD*
D17*
G04 #@! TO.C,S2*
X71120000Y-57150000D03*
D18*
X76200000Y-57150000D03*
D17*
X81280000Y-57150000D03*
D19*
X72390000Y-54610000D03*
X73660000Y-52070000D03*
X78740000Y-52070000D03*
X80010000Y-54610000D03*
G04 #@! TD*
D26*
G04 #@! TO.C,U1*
X180046250Y-53419375D03*
X180046250Y-55959375D03*
X180046250Y-58499375D03*
X180046250Y-61039375D03*
X180046250Y-63579375D03*
X180046250Y-66119375D03*
X180046250Y-68659375D03*
X180046250Y-71199375D03*
X180046250Y-73739375D03*
D27*
X177006250Y-74239375D03*
X174466250Y-74239375D03*
X171926250Y-74239375D03*
X169386250Y-74239375D03*
X166846250Y-74239375D03*
D26*
X163806250Y-73739375D03*
X163806250Y-71199375D03*
X163806250Y-68659375D03*
X163806250Y-66119375D03*
X163806250Y-63579375D03*
X163806250Y-61039375D03*
X163806250Y-58499375D03*
X163806250Y-55959375D03*
X163806250Y-53419375D03*
G04 #@! TD*
D17*
G04 #@! TO.C,S16*
X109220000Y-90487500D03*
D18*
X114300000Y-90487500D03*
D17*
X119380000Y-90487500D03*
D19*
X110490000Y-87947500D03*
X111760000Y-85407500D03*
X116840000Y-85407500D03*
X118110000Y-87947500D03*
G04 #@! TD*
D17*
G04 #@! TO.C,S10*
X109220000Y-71437500D03*
D18*
X114300000Y-71437500D03*
D17*
X119380000Y-71437500D03*
D19*
X110490000Y-68897500D03*
X111760000Y-66357500D03*
X116840000Y-66357500D03*
X118110000Y-68897500D03*
G04 #@! TD*
D17*
G04 #@! TO.C,S12*
X147320000Y-76200000D03*
D18*
X152400000Y-76200000D03*
D17*
X157480000Y-76200000D03*
D19*
X148590000Y-73660000D03*
X149860000Y-71120000D03*
X154940000Y-71120000D03*
X156210000Y-73660000D03*
G04 #@! TD*
D17*
G04 #@! TO.C,S1*
X52070000Y-57150000D03*
D18*
X57150000Y-57150000D03*
D17*
X62230000Y-57150000D03*
D19*
X53340000Y-54610000D03*
X54610000Y-52070000D03*
X59690000Y-52070000D03*
X60960000Y-54610000D03*
G04 #@! TD*
D20*
G04 #@! TO.C,REF\u002A\u002A*
X47625000Y-104775000D03*
G04 #@! TD*
D17*
G04 #@! TO.C,S3*
X90170000Y-54768750D03*
D18*
X95250000Y-54768750D03*
D17*
X100330000Y-54768750D03*
D19*
X91440000Y-52228750D03*
X92710000Y-49688750D03*
X97790000Y-49688750D03*
X99060000Y-52228750D03*
G04 #@! TD*
D17*
G04 #@! TO.C,S13*
X52070000Y-95250000D03*
D18*
X57150000Y-95250000D03*
D17*
X62230000Y-95250000D03*
D19*
X53340000Y-92710000D03*
X54610000Y-90170000D03*
X59690000Y-90170000D03*
X60960000Y-92710000D03*
G04 #@! TD*
D13*
G04 #@! TO.C,D19*
X118109999Y-121443751D03*
D14*
X110489999Y-121443751D03*
G04 #@! TD*
D13*
G04 #@! TO.C,D8*
X80009999Y-85725001D03*
D14*
X72389999Y-85725001D03*
G04 #@! TD*
D17*
G04 #@! TO.C,S19*
X109220000Y-111918750D03*
D18*
X114300000Y-111918750D03*
D17*
X119380000Y-111918750D03*
D19*
X110490000Y-109378750D03*
X111760000Y-106838750D03*
X116840000Y-106838750D03*
X118110000Y-109378750D03*
G04 #@! TD*
D17*
G04 #@! TO.C,S21*
X152763091Y-118903750D03*
D18*
X157162500Y-121443750D03*
D17*
X161561909Y-123983750D03*
D19*
X155132943Y-117339045D03*
X157502795Y-115774341D03*
X161902205Y-118314341D03*
X161732057Y-121149045D03*
G04 #@! TD*
D13*
G04 #@! TO.C,D6*
X156209999Y-66675001D03*
D14*
X148589999Y-66675001D03*
G04 #@! TD*
D17*
G04 #@! TO.C,S20*
X130824347Y-112985199D03*
D18*
X135731250Y-114300000D03*
D17*
X140638153Y-115614801D03*
D19*
X132708473Y-110860448D03*
X134592599Y-108735696D03*
X139499502Y-110050497D03*
X140068828Y-112832649D03*
G04 #@! TD*
D17*
G04 #@! TO.C,S9*
X90170000Y-73818750D03*
D18*
X95250000Y-73818750D03*
D17*
X100330000Y-73818750D03*
D19*
X91440000Y-71278750D03*
X92710000Y-68738750D03*
X97790000Y-68738750D03*
X99060000Y-71278750D03*
G04 #@! TD*
D21*
G04 #@! TO.C,J2*
X164196878Y-91678122D03*
X171196878Y-91678122D03*
D22*
X172496878Y-88478122D03*
X169496878Y-93978122D03*
X172496878Y-93978122D03*
X163996878Y-89478122D03*
D23*
X165496878Y-93978122D03*
G04 #@! TD*
%LPD*%
M02*
