G04 #@! TF.GenerationSoftware,KiCad,Pcbnew,8.0.4*
G04 #@! TF.CreationDate,2024-09-23T05:23:03+03:00*
G04 #@! TF.ProjectId,muikku42,6d75696b-6b75-4343-922e-6b696361645f,rev?*
G04 #@! TF.SameCoordinates,Original*
G04 #@! TF.FileFunction,OtherDrawing,Comment*
%FSLAX46Y46*%
G04 Gerber Fmt 4.6, Leading zero omitted, Abs format (unit mm)*
G04 Created by KiCad (PCBNEW 8.0.4) date 2024-09-23 05:23:03*
%MOMM*%
%LPD*%
G01*
G04 APERTURE LIST*
%ADD10C,0.300000*%
%ADD11C,0.200000*%
%ADD12C,0.150000*%
G04 APERTURE END LIST*
D10*
X162428572Y-143878328D02*
X162428572Y-144878328D01*
X162071429Y-143306900D02*
X161714286Y-144378328D01*
X161714286Y-144378328D02*
X162642857Y-144378328D01*
X163285714Y-144878328D02*
X163571428Y-144878328D01*
X163571428Y-144878328D02*
X163714285Y-144806900D01*
X163714285Y-144806900D02*
X163785714Y-144735471D01*
X163785714Y-144735471D02*
X163928571Y-144521185D01*
X163928571Y-144521185D02*
X164000000Y-144235471D01*
X164000000Y-144235471D02*
X164000000Y-143664042D01*
X164000000Y-143664042D02*
X163928571Y-143521185D01*
X163928571Y-143521185D02*
X163857143Y-143449757D01*
X163857143Y-143449757D02*
X163714285Y-143378328D01*
X163714285Y-143378328D02*
X163428571Y-143378328D01*
X163428571Y-143378328D02*
X163285714Y-143449757D01*
X163285714Y-143449757D02*
X163214285Y-143521185D01*
X163214285Y-143521185D02*
X163142857Y-143664042D01*
X163142857Y-143664042D02*
X163142857Y-144021185D01*
X163142857Y-144021185D02*
X163214285Y-144164042D01*
X163214285Y-144164042D02*
X163285714Y-144235471D01*
X163285714Y-144235471D02*
X163428571Y-144306900D01*
X163428571Y-144306900D02*
X163714285Y-144306900D01*
X163714285Y-144306900D02*
X163857143Y-144235471D01*
X163857143Y-144235471D02*
X163928571Y-144164042D01*
X163928571Y-144164042D02*
X164000000Y-144021185D01*
X164642856Y-144735471D02*
X164714285Y-144806900D01*
X164714285Y-144806900D02*
X164642856Y-144878328D01*
X164642856Y-144878328D02*
X164571428Y-144806900D01*
X164571428Y-144806900D02*
X164642856Y-144735471D01*
X164642856Y-144735471D02*
X164642856Y-144878328D01*
X165642857Y-143378328D02*
X165785714Y-143378328D01*
X165785714Y-143378328D02*
X165928571Y-143449757D01*
X165928571Y-143449757D02*
X166000000Y-143521185D01*
X166000000Y-143521185D02*
X166071428Y-143664042D01*
X166071428Y-143664042D02*
X166142857Y-143949757D01*
X166142857Y-143949757D02*
X166142857Y-144306900D01*
X166142857Y-144306900D02*
X166071428Y-144592614D01*
X166071428Y-144592614D02*
X166000000Y-144735471D01*
X166000000Y-144735471D02*
X165928571Y-144806900D01*
X165928571Y-144806900D02*
X165785714Y-144878328D01*
X165785714Y-144878328D02*
X165642857Y-144878328D01*
X165642857Y-144878328D02*
X165500000Y-144806900D01*
X165500000Y-144806900D02*
X165428571Y-144735471D01*
X165428571Y-144735471D02*
X165357142Y-144592614D01*
X165357142Y-144592614D02*
X165285714Y-144306900D01*
X165285714Y-144306900D02*
X165285714Y-143949757D01*
X165285714Y-143949757D02*
X165357142Y-143664042D01*
X165357142Y-143664042D02*
X165428571Y-143521185D01*
X165428571Y-143521185D02*
X165500000Y-143449757D01*
X165500000Y-143449757D02*
X165642857Y-143378328D01*
X167928570Y-144878328D02*
X167928570Y-143878328D01*
X167928570Y-144021185D02*
X167999999Y-143949757D01*
X167999999Y-143949757D02*
X168142856Y-143878328D01*
X168142856Y-143878328D02*
X168357142Y-143878328D01*
X168357142Y-143878328D02*
X168499999Y-143949757D01*
X168499999Y-143949757D02*
X168571428Y-144092614D01*
X168571428Y-144092614D02*
X168571428Y-144878328D01*
X168571428Y-144092614D02*
X168642856Y-143949757D01*
X168642856Y-143949757D02*
X168785713Y-143878328D01*
X168785713Y-143878328D02*
X168999999Y-143878328D01*
X168999999Y-143878328D02*
X169142856Y-143949757D01*
X169142856Y-143949757D02*
X169214285Y-144092614D01*
X169214285Y-144092614D02*
X169214285Y-144878328D01*
X169928570Y-144878328D02*
X169928570Y-143878328D01*
X169928570Y-144021185D02*
X169999999Y-143949757D01*
X169999999Y-143949757D02*
X170142856Y-143878328D01*
X170142856Y-143878328D02*
X170357142Y-143878328D01*
X170357142Y-143878328D02*
X170499999Y-143949757D01*
X170499999Y-143949757D02*
X170571428Y-144092614D01*
X170571428Y-144092614D02*
X170571428Y-144878328D01*
X170571428Y-144092614D02*
X170642856Y-143949757D01*
X170642856Y-143949757D02*
X170785713Y-143878328D01*
X170785713Y-143878328D02*
X170999999Y-143878328D01*
X170999999Y-143878328D02*
X171142856Y-143949757D01*
X171142856Y-143949757D02*
X171214285Y-144092614D01*
X171214285Y-144092614D02*
X171214285Y-144878328D01*
D11*
X191000000Y-117500000D02*
X191000000Y-146586420D01*
X142000000Y-117500000D02*
X142000000Y-146586420D01*
X191000000Y-146000000D02*
X142000000Y-146000000D01*
X191000000Y-146000000D02*
X142000000Y-146000000D01*
X191000000Y-146000000D02*
X189873496Y-146586421D01*
X191000000Y-146000000D02*
X189873496Y-145413579D01*
X142000000Y-146000000D02*
X143126504Y-145413579D01*
X142000000Y-146000000D02*
X143126504Y-146586421D01*
D10*
X193071429Y-148878328D02*
X192214286Y-148878328D01*
X192642857Y-148878328D02*
X192642857Y-147378328D01*
X192642857Y-147378328D02*
X192500000Y-147592614D01*
X192500000Y-147592614D02*
X192357143Y-147735471D01*
X192357143Y-147735471D02*
X192214286Y-147806900D01*
X194500000Y-148878328D02*
X193642857Y-148878328D01*
X194071428Y-148878328D02*
X194071428Y-147378328D01*
X194071428Y-147378328D02*
X193928571Y-147592614D01*
X193928571Y-147592614D02*
X193785714Y-147735471D01*
X193785714Y-147735471D02*
X193642857Y-147806900D01*
X195142856Y-148735471D02*
X195214285Y-148806900D01*
X195214285Y-148806900D02*
X195142856Y-148878328D01*
X195142856Y-148878328D02*
X195071428Y-148806900D01*
X195071428Y-148806900D02*
X195142856Y-148735471D01*
X195142856Y-148735471D02*
X195142856Y-148878328D01*
X196142857Y-147378328D02*
X196285714Y-147378328D01*
X196285714Y-147378328D02*
X196428571Y-147449757D01*
X196428571Y-147449757D02*
X196500000Y-147521185D01*
X196500000Y-147521185D02*
X196571428Y-147664042D01*
X196571428Y-147664042D02*
X196642857Y-147949757D01*
X196642857Y-147949757D02*
X196642857Y-148306900D01*
X196642857Y-148306900D02*
X196571428Y-148592614D01*
X196571428Y-148592614D02*
X196500000Y-148735471D01*
X196500000Y-148735471D02*
X196428571Y-148806900D01*
X196428571Y-148806900D02*
X196285714Y-148878328D01*
X196285714Y-148878328D02*
X196142857Y-148878328D01*
X196142857Y-148878328D02*
X196000000Y-148806900D01*
X196000000Y-148806900D02*
X195928571Y-148735471D01*
X195928571Y-148735471D02*
X195857142Y-148592614D01*
X195857142Y-148592614D02*
X195785714Y-148306900D01*
X195785714Y-148306900D02*
X195785714Y-147949757D01*
X195785714Y-147949757D02*
X195857142Y-147664042D01*
X195857142Y-147664042D02*
X195928571Y-147521185D01*
X195928571Y-147521185D02*
X196000000Y-147449757D01*
X196000000Y-147449757D02*
X196142857Y-147378328D01*
X198428570Y-148878328D02*
X198428570Y-147878328D01*
X198428570Y-148021185D02*
X198499999Y-147949757D01*
X198499999Y-147949757D02*
X198642856Y-147878328D01*
X198642856Y-147878328D02*
X198857142Y-147878328D01*
X198857142Y-147878328D02*
X198999999Y-147949757D01*
X198999999Y-147949757D02*
X199071428Y-148092614D01*
X199071428Y-148092614D02*
X199071428Y-148878328D01*
X199071428Y-148092614D02*
X199142856Y-147949757D01*
X199142856Y-147949757D02*
X199285713Y-147878328D01*
X199285713Y-147878328D02*
X199499999Y-147878328D01*
X199499999Y-147878328D02*
X199642856Y-147949757D01*
X199642856Y-147949757D02*
X199714285Y-148092614D01*
X199714285Y-148092614D02*
X199714285Y-148878328D01*
X200428570Y-148878328D02*
X200428570Y-147878328D01*
X200428570Y-148021185D02*
X200499999Y-147949757D01*
X200499999Y-147949757D02*
X200642856Y-147878328D01*
X200642856Y-147878328D02*
X200857142Y-147878328D01*
X200857142Y-147878328D02*
X200999999Y-147949757D01*
X200999999Y-147949757D02*
X201071428Y-148092614D01*
X201071428Y-148092614D02*
X201071428Y-148878328D01*
X201071428Y-148092614D02*
X201142856Y-147949757D01*
X201142856Y-147949757D02*
X201285713Y-147878328D01*
X201285713Y-147878328D02*
X201499999Y-147878328D01*
X201499999Y-147878328D02*
X201642856Y-147949757D01*
X201642856Y-147949757D02*
X201714285Y-148092614D01*
X201714285Y-148092614D02*
X201714285Y-148878328D01*
D11*
X202000000Y-133500000D02*
X202000000Y-150586420D01*
X191000000Y-133500000D02*
X191000000Y-150586420D01*
X202000000Y-150000000D02*
X191000000Y-150000000D01*
X202000000Y-150000000D02*
X191000000Y-150000000D01*
X202000000Y-150000000D02*
X200873496Y-150586421D01*
X202000000Y-150000000D02*
X200873496Y-149413579D01*
X191000000Y-150000000D02*
X192126504Y-149413579D01*
X191000000Y-150000000D02*
X192126504Y-150586421D01*
D10*
X66378328Y-107999998D02*
X66378328Y-107071426D01*
X66378328Y-107071426D02*
X66949757Y-107571426D01*
X66949757Y-107571426D02*
X66949757Y-107357141D01*
X66949757Y-107357141D02*
X67021185Y-107214284D01*
X67021185Y-107214284D02*
X67092614Y-107142855D01*
X67092614Y-107142855D02*
X67235471Y-107071426D01*
X67235471Y-107071426D02*
X67592614Y-107071426D01*
X67592614Y-107071426D02*
X67735471Y-107142855D01*
X67735471Y-107142855D02*
X67806900Y-107214284D01*
X67806900Y-107214284D02*
X67878328Y-107357141D01*
X67878328Y-107357141D02*
X67878328Y-107785712D01*
X67878328Y-107785712D02*
X67806900Y-107928569D01*
X67806900Y-107928569D02*
X67735471Y-107999998D01*
X66521185Y-106499998D02*
X66449757Y-106428570D01*
X66449757Y-106428570D02*
X66378328Y-106285713D01*
X66378328Y-106285713D02*
X66378328Y-105928570D01*
X66378328Y-105928570D02*
X66449757Y-105785713D01*
X66449757Y-105785713D02*
X66521185Y-105714284D01*
X66521185Y-105714284D02*
X66664042Y-105642855D01*
X66664042Y-105642855D02*
X66806900Y-105642855D01*
X66806900Y-105642855D02*
X67021185Y-105714284D01*
X67021185Y-105714284D02*
X67878328Y-106571427D01*
X67878328Y-106571427D02*
X67878328Y-105642855D01*
X67735471Y-104999999D02*
X67806900Y-104928570D01*
X67806900Y-104928570D02*
X67878328Y-104999999D01*
X67878328Y-104999999D02*
X67806900Y-105071427D01*
X67806900Y-105071427D02*
X67735471Y-104999999D01*
X67735471Y-104999999D02*
X67878328Y-104999999D01*
X66378328Y-103999998D02*
X66378328Y-103857141D01*
X66378328Y-103857141D02*
X66449757Y-103714284D01*
X66449757Y-103714284D02*
X66521185Y-103642856D01*
X66521185Y-103642856D02*
X66664042Y-103571427D01*
X66664042Y-103571427D02*
X66949757Y-103499998D01*
X66949757Y-103499998D02*
X67306900Y-103499998D01*
X67306900Y-103499998D02*
X67592614Y-103571427D01*
X67592614Y-103571427D02*
X67735471Y-103642856D01*
X67735471Y-103642856D02*
X67806900Y-103714284D01*
X67806900Y-103714284D02*
X67878328Y-103857141D01*
X67878328Y-103857141D02*
X67878328Y-103999998D01*
X67878328Y-103999998D02*
X67806900Y-104142856D01*
X67806900Y-104142856D02*
X67735471Y-104214284D01*
X67735471Y-104214284D02*
X67592614Y-104285713D01*
X67592614Y-104285713D02*
X67306900Y-104357141D01*
X67306900Y-104357141D02*
X66949757Y-104357141D01*
X66949757Y-104357141D02*
X66664042Y-104285713D01*
X66664042Y-104285713D02*
X66521185Y-104214284D01*
X66521185Y-104214284D02*
X66449757Y-104142856D01*
X66449757Y-104142856D02*
X66378328Y-103999998D01*
X66378328Y-102571427D02*
X66378328Y-102428570D01*
X66378328Y-102428570D02*
X66449757Y-102285713D01*
X66449757Y-102285713D02*
X66521185Y-102214285D01*
X66521185Y-102214285D02*
X66664042Y-102142856D01*
X66664042Y-102142856D02*
X66949757Y-102071427D01*
X66949757Y-102071427D02*
X67306900Y-102071427D01*
X67306900Y-102071427D02*
X67592614Y-102142856D01*
X67592614Y-102142856D02*
X67735471Y-102214285D01*
X67735471Y-102214285D02*
X67806900Y-102285713D01*
X67806900Y-102285713D02*
X67878328Y-102428570D01*
X67878328Y-102428570D02*
X67878328Y-102571427D01*
X67878328Y-102571427D02*
X67806900Y-102714285D01*
X67806900Y-102714285D02*
X67735471Y-102785713D01*
X67735471Y-102785713D02*
X67592614Y-102857142D01*
X67592614Y-102857142D02*
X67306900Y-102928570D01*
X67306900Y-102928570D02*
X66949757Y-102928570D01*
X66949757Y-102928570D02*
X66664042Y-102857142D01*
X66664042Y-102857142D02*
X66521185Y-102785713D01*
X66521185Y-102785713D02*
X66449757Y-102714285D01*
X66449757Y-102714285D02*
X66378328Y-102571427D01*
X66378328Y-101142856D02*
X66378328Y-100999999D01*
X66378328Y-100999999D02*
X66449757Y-100857142D01*
X66449757Y-100857142D02*
X66521185Y-100785714D01*
X66521185Y-100785714D02*
X66664042Y-100714285D01*
X66664042Y-100714285D02*
X66949757Y-100642856D01*
X66949757Y-100642856D02*
X67306900Y-100642856D01*
X67306900Y-100642856D02*
X67592614Y-100714285D01*
X67592614Y-100714285D02*
X67735471Y-100785714D01*
X67735471Y-100785714D02*
X67806900Y-100857142D01*
X67806900Y-100857142D02*
X67878328Y-100999999D01*
X67878328Y-100999999D02*
X67878328Y-101142856D01*
X67878328Y-101142856D02*
X67806900Y-101285714D01*
X67806900Y-101285714D02*
X67735471Y-101357142D01*
X67735471Y-101357142D02*
X67592614Y-101428571D01*
X67592614Y-101428571D02*
X67306900Y-101499999D01*
X67306900Y-101499999D02*
X66949757Y-101499999D01*
X66949757Y-101499999D02*
X66664042Y-101428571D01*
X66664042Y-101428571D02*
X66521185Y-101357142D01*
X66521185Y-101357142D02*
X66449757Y-101285714D01*
X66449757Y-101285714D02*
X66378328Y-101142856D01*
X66378328Y-99714285D02*
X66378328Y-99571428D01*
X66378328Y-99571428D02*
X66449757Y-99428571D01*
X66449757Y-99428571D02*
X66521185Y-99357143D01*
X66521185Y-99357143D02*
X66664042Y-99285714D01*
X66664042Y-99285714D02*
X66949757Y-99214285D01*
X66949757Y-99214285D02*
X67306900Y-99214285D01*
X67306900Y-99214285D02*
X67592614Y-99285714D01*
X67592614Y-99285714D02*
X67735471Y-99357143D01*
X67735471Y-99357143D02*
X67806900Y-99428571D01*
X67806900Y-99428571D02*
X67878328Y-99571428D01*
X67878328Y-99571428D02*
X67878328Y-99714285D01*
X67878328Y-99714285D02*
X67806900Y-99857143D01*
X67806900Y-99857143D02*
X67735471Y-99928571D01*
X67735471Y-99928571D02*
X67592614Y-100000000D01*
X67592614Y-100000000D02*
X67306900Y-100071428D01*
X67306900Y-100071428D02*
X66949757Y-100071428D01*
X66949757Y-100071428D02*
X66664042Y-100000000D01*
X66664042Y-100000000D02*
X66521185Y-99928571D01*
X66521185Y-99928571D02*
X66449757Y-99857143D01*
X66449757Y-99857143D02*
X66378328Y-99714285D01*
X67878328Y-97428572D02*
X66878328Y-97428572D01*
X67021185Y-97428572D02*
X66949757Y-97357143D01*
X66949757Y-97357143D02*
X66878328Y-97214286D01*
X66878328Y-97214286D02*
X66878328Y-97000000D01*
X66878328Y-97000000D02*
X66949757Y-96857143D01*
X66949757Y-96857143D02*
X67092614Y-96785715D01*
X67092614Y-96785715D02*
X67878328Y-96785715D01*
X67092614Y-96785715D02*
X66949757Y-96714286D01*
X66949757Y-96714286D02*
X66878328Y-96571429D01*
X66878328Y-96571429D02*
X66878328Y-96357143D01*
X66878328Y-96357143D02*
X66949757Y-96214286D01*
X66949757Y-96214286D02*
X67092614Y-96142857D01*
X67092614Y-96142857D02*
X67878328Y-96142857D01*
X67878328Y-95428572D02*
X66878328Y-95428572D01*
X67021185Y-95428572D02*
X66949757Y-95357143D01*
X66949757Y-95357143D02*
X66878328Y-95214286D01*
X66878328Y-95214286D02*
X66878328Y-95000000D01*
X66878328Y-95000000D02*
X66949757Y-94857143D01*
X66949757Y-94857143D02*
X67092614Y-94785715D01*
X67092614Y-94785715D02*
X67878328Y-94785715D01*
X67092614Y-94785715D02*
X66949757Y-94714286D01*
X66949757Y-94714286D02*
X66878328Y-94571429D01*
X66878328Y-94571429D02*
X66878328Y-94357143D01*
X66878328Y-94357143D02*
X66949757Y-94214286D01*
X66949757Y-94214286D02*
X67092614Y-94142857D01*
X67092614Y-94142857D02*
X67878328Y-94142857D01*
D11*
X132500000Y-85000000D02*
X68413580Y-85000000D01*
X132500000Y-117000000D02*
X68413580Y-117000000D01*
X69000000Y-85000000D02*
X69000000Y-117000000D01*
X69000000Y-85000000D02*
X69000000Y-117000000D01*
X69000000Y-85000000D02*
X69586421Y-86126504D01*
X69000000Y-85000000D02*
X68413579Y-86126504D01*
X69000000Y-117000000D02*
X68413579Y-115873496D01*
X69000000Y-117000000D02*
X69586421Y-115873496D01*
D10*
X59378329Y-92999999D02*
X59378329Y-93714285D01*
X59378329Y-93714285D02*
X60092615Y-93785713D01*
X60092615Y-93785713D02*
X60021186Y-93714285D01*
X60021186Y-93714285D02*
X59949758Y-93571428D01*
X59949758Y-93571428D02*
X59949758Y-93214285D01*
X59949758Y-93214285D02*
X60021186Y-93071428D01*
X60021186Y-93071428D02*
X60092615Y-92999999D01*
X60092615Y-92999999D02*
X60235472Y-92928570D01*
X60235472Y-92928570D02*
X60592615Y-92928570D01*
X60592615Y-92928570D02*
X60735472Y-92999999D01*
X60735472Y-92999999D02*
X60806901Y-93071428D01*
X60806901Y-93071428D02*
X60878329Y-93214285D01*
X60878329Y-93214285D02*
X60878329Y-93571428D01*
X60878329Y-93571428D02*
X60806901Y-93714285D01*
X60806901Y-93714285D02*
X60735472Y-93785713D01*
X59378329Y-91642857D02*
X59378329Y-91928571D01*
X59378329Y-91928571D02*
X59449758Y-92071428D01*
X59449758Y-92071428D02*
X59521186Y-92142857D01*
X59521186Y-92142857D02*
X59735472Y-92285714D01*
X59735472Y-92285714D02*
X60021186Y-92357142D01*
X60021186Y-92357142D02*
X60592615Y-92357142D01*
X60592615Y-92357142D02*
X60735472Y-92285714D01*
X60735472Y-92285714D02*
X60806901Y-92214285D01*
X60806901Y-92214285D02*
X60878329Y-92071428D01*
X60878329Y-92071428D02*
X60878329Y-91785714D01*
X60878329Y-91785714D02*
X60806901Y-91642857D01*
X60806901Y-91642857D02*
X60735472Y-91571428D01*
X60735472Y-91571428D02*
X60592615Y-91499999D01*
X60592615Y-91499999D02*
X60235472Y-91499999D01*
X60235472Y-91499999D02*
X60092615Y-91571428D01*
X60092615Y-91571428D02*
X60021186Y-91642857D01*
X60021186Y-91642857D02*
X59949758Y-91785714D01*
X59949758Y-91785714D02*
X59949758Y-92071428D01*
X59949758Y-92071428D02*
X60021186Y-92214285D01*
X60021186Y-92214285D02*
X60092615Y-92285714D01*
X60092615Y-92285714D02*
X60235472Y-92357142D01*
X60735472Y-90857143D02*
X60806901Y-90785714D01*
X60806901Y-90785714D02*
X60878329Y-90857143D01*
X60878329Y-90857143D02*
X60806901Y-90928571D01*
X60806901Y-90928571D02*
X60735472Y-90857143D01*
X60735472Y-90857143D02*
X60878329Y-90857143D01*
X59378329Y-89857142D02*
X59378329Y-89714285D01*
X59378329Y-89714285D02*
X59449758Y-89571428D01*
X59449758Y-89571428D02*
X59521186Y-89500000D01*
X59521186Y-89500000D02*
X59664043Y-89428571D01*
X59664043Y-89428571D02*
X59949758Y-89357142D01*
X59949758Y-89357142D02*
X60306901Y-89357142D01*
X60306901Y-89357142D02*
X60592615Y-89428571D01*
X60592615Y-89428571D02*
X60735472Y-89500000D01*
X60735472Y-89500000D02*
X60806901Y-89571428D01*
X60806901Y-89571428D02*
X60878329Y-89714285D01*
X60878329Y-89714285D02*
X60878329Y-89857142D01*
X60878329Y-89857142D02*
X60806901Y-90000000D01*
X60806901Y-90000000D02*
X60735472Y-90071428D01*
X60735472Y-90071428D02*
X60592615Y-90142857D01*
X60592615Y-90142857D02*
X60306901Y-90214285D01*
X60306901Y-90214285D02*
X59949758Y-90214285D01*
X59949758Y-90214285D02*
X59664043Y-90142857D01*
X59664043Y-90142857D02*
X59521186Y-90071428D01*
X59521186Y-90071428D02*
X59449758Y-90000000D01*
X59449758Y-90000000D02*
X59378329Y-89857142D01*
X60878329Y-87571429D02*
X59878329Y-87571429D01*
X60021186Y-87571429D02*
X59949758Y-87500000D01*
X59949758Y-87500000D02*
X59878329Y-87357143D01*
X59878329Y-87357143D02*
X59878329Y-87142857D01*
X59878329Y-87142857D02*
X59949758Y-87000000D01*
X59949758Y-87000000D02*
X60092615Y-86928572D01*
X60092615Y-86928572D02*
X60878329Y-86928572D01*
X60092615Y-86928572D02*
X59949758Y-86857143D01*
X59949758Y-86857143D02*
X59878329Y-86714286D01*
X59878329Y-86714286D02*
X59878329Y-86500000D01*
X59878329Y-86500000D02*
X59949758Y-86357143D01*
X59949758Y-86357143D02*
X60092615Y-86285714D01*
X60092615Y-86285714D02*
X60878329Y-86285714D01*
X60878329Y-85571429D02*
X59878329Y-85571429D01*
X60021186Y-85571429D02*
X59949758Y-85500000D01*
X59949758Y-85500000D02*
X59878329Y-85357143D01*
X59878329Y-85357143D02*
X59878329Y-85142857D01*
X59878329Y-85142857D02*
X59949758Y-85000000D01*
X59949758Y-85000000D02*
X60092615Y-84928572D01*
X60092615Y-84928572D02*
X60878329Y-84928572D01*
X60092615Y-84928572D02*
X59949758Y-84857143D01*
X59949758Y-84857143D02*
X59878329Y-84714286D01*
X59878329Y-84714286D02*
X59878329Y-84500000D01*
X59878329Y-84500000D02*
X59949758Y-84357143D01*
X59949758Y-84357143D02*
X60092615Y-84285714D01*
X60092615Y-84285714D02*
X60878329Y-84285714D01*
D11*
X76500000Y-61000000D02*
X61413581Y-61000000D01*
X76500000Y-117000000D02*
X61413581Y-117000000D01*
X62000001Y-61000000D02*
X62000001Y-117000000D01*
X62000001Y-61000000D02*
X62000001Y-117000000D01*
X62000001Y-61000000D02*
X62586422Y-62126504D01*
X62000001Y-61000000D02*
X61413580Y-62126504D01*
X62000001Y-117000000D02*
X61413580Y-115873496D01*
X62000001Y-117000000D02*
X62586422Y-115873496D01*
D10*
X227378328Y-88071428D02*
X227378328Y-88357142D01*
X227378328Y-88357142D02*
X227449757Y-88499999D01*
X227449757Y-88499999D02*
X227521185Y-88571428D01*
X227521185Y-88571428D02*
X227735471Y-88714285D01*
X227735471Y-88714285D02*
X228021185Y-88785713D01*
X228021185Y-88785713D02*
X228592614Y-88785713D01*
X228592614Y-88785713D02*
X228735471Y-88714285D01*
X228735471Y-88714285D02*
X228806900Y-88642856D01*
X228806900Y-88642856D02*
X228878328Y-88499999D01*
X228878328Y-88499999D02*
X228878328Y-88214285D01*
X228878328Y-88214285D02*
X228806900Y-88071428D01*
X228806900Y-88071428D02*
X228735471Y-87999999D01*
X228735471Y-87999999D02*
X228592614Y-87928570D01*
X228592614Y-87928570D02*
X228235471Y-87928570D01*
X228235471Y-87928570D02*
X228092614Y-87999999D01*
X228092614Y-87999999D02*
X228021185Y-88071428D01*
X228021185Y-88071428D02*
X227949757Y-88214285D01*
X227949757Y-88214285D02*
X227949757Y-88499999D01*
X227949757Y-88499999D02*
X228021185Y-88642856D01*
X228021185Y-88642856D02*
X228092614Y-88714285D01*
X228092614Y-88714285D02*
X228235471Y-88785713D01*
X227378328Y-86642857D02*
X227378328Y-86928571D01*
X227378328Y-86928571D02*
X227449757Y-87071428D01*
X227449757Y-87071428D02*
X227521185Y-87142857D01*
X227521185Y-87142857D02*
X227735471Y-87285714D01*
X227735471Y-87285714D02*
X228021185Y-87357142D01*
X228021185Y-87357142D02*
X228592614Y-87357142D01*
X228592614Y-87357142D02*
X228735471Y-87285714D01*
X228735471Y-87285714D02*
X228806900Y-87214285D01*
X228806900Y-87214285D02*
X228878328Y-87071428D01*
X228878328Y-87071428D02*
X228878328Y-86785714D01*
X228878328Y-86785714D02*
X228806900Y-86642857D01*
X228806900Y-86642857D02*
X228735471Y-86571428D01*
X228735471Y-86571428D02*
X228592614Y-86499999D01*
X228592614Y-86499999D02*
X228235471Y-86499999D01*
X228235471Y-86499999D02*
X228092614Y-86571428D01*
X228092614Y-86571428D02*
X228021185Y-86642857D01*
X228021185Y-86642857D02*
X227949757Y-86785714D01*
X227949757Y-86785714D02*
X227949757Y-87071428D01*
X227949757Y-87071428D02*
X228021185Y-87214285D01*
X228021185Y-87214285D02*
X228092614Y-87285714D01*
X228092614Y-87285714D02*
X228235471Y-87357142D01*
X228735471Y-85857143D02*
X228806900Y-85785714D01*
X228806900Y-85785714D02*
X228878328Y-85857143D01*
X228878328Y-85857143D02*
X228806900Y-85928571D01*
X228806900Y-85928571D02*
X228735471Y-85857143D01*
X228735471Y-85857143D02*
X228878328Y-85857143D01*
X227378328Y-84857142D02*
X227378328Y-84714285D01*
X227378328Y-84714285D02*
X227449757Y-84571428D01*
X227449757Y-84571428D02*
X227521185Y-84500000D01*
X227521185Y-84500000D02*
X227664042Y-84428571D01*
X227664042Y-84428571D02*
X227949757Y-84357142D01*
X227949757Y-84357142D02*
X228306900Y-84357142D01*
X228306900Y-84357142D02*
X228592614Y-84428571D01*
X228592614Y-84428571D02*
X228735471Y-84500000D01*
X228735471Y-84500000D02*
X228806900Y-84571428D01*
X228806900Y-84571428D02*
X228878328Y-84714285D01*
X228878328Y-84714285D02*
X228878328Y-84857142D01*
X228878328Y-84857142D02*
X228806900Y-85000000D01*
X228806900Y-85000000D02*
X228735471Y-85071428D01*
X228735471Y-85071428D02*
X228592614Y-85142857D01*
X228592614Y-85142857D02*
X228306900Y-85214285D01*
X228306900Y-85214285D02*
X227949757Y-85214285D01*
X227949757Y-85214285D02*
X227664042Y-85142857D01*
X227664042Y-85142857D02*
X227521185Y-85071428D01*
X227521185Y-85071428D02*
X227449757Y-85000000D01*
X227449757Y-85000000D02*
X227378328Y-84857142D01*
X228878328Y-82571429D02*
X227878328Y-82571429D01*
X228021185Y-82571429D02*
X227949757Y-82500000D01*
X227949757Y-82500000D02*
X227878328Y-82357143D01*
X227878328Y-82357143D02*
X227878328Y-82142857D01*
X227878328Y-82142857D02*
X227949757Y-82000000D01*
X227949757Y-82000000D02*
X228092614Y-81928572D01*
X228092614Y-81928572D02*
X228878328Y-81928572D01*
X228092614Y-81928572D02*
X227949757Y-81857143D01*
X227949757Y-81857143D02*
X227878328Y-81714286D01*
X227878328Y-81714286D02*
X227878328Y-81500000D01*
X227878328Y-81500000D02*
X227949757Y-81357143D01*
X227949757Y-81357143D02*
X228092614Y-81285714D01*
X228092614Y-81285714D02*
X228878328Y-81285714D01*
X228878328Y-80571429D02*
X227878328Y-80571429D01*
X228021185Y-80571429D02*
X227949757Y-80500000D01*
X227949757Y-80500000D02*
X227878328Y-80357143D01*
X227878328Y-80357143D02*
X227878328Y-80142857D01*
X227878328Y-80142857D02*
X227949757Y-80000000D01*
X227949757Y-80000000D02*
X228092614Y-79928572D01*
X228092614Y-79928572D02*
X228878328Y-79928572D01*
X228092614Y-79928572D02*
X227949757Y-79857143D01*
X227949757Y-79857143D02*
X227878328Y-79714286D01*
X227878328Y-79714286D02*
X227878328Y-79500000D01*
X227878328Y-79500000D02*
X227949757Y-79357143D01*
X227949757Y-79357143D02*
X228092614Y-79285714D01*
X228092614Y-79285714D02*
X228878328Y-79285714D01*
D11*
X191500000Y-117000000D02*
X230586420Y-117000000D01*
X191500000Y-51000000D02*
X230586420Y-51000000D01*
X230000000Y-117000000D02*
X230000000Y-51000000D01*
X230000000Y-117000000D02*
X230000000Y-51000000D01*
X230000000Y-117000000D02*
X229413579Y-115873496D01*
X230000000Y-117000000D02*
X230586421Y-115873496D01*
X230000000Y-51000000D02*
X230586421Y-52126504D01*
X230000000Y-51000000D02*
X229413579Y-52126504D01*
D10*
X221878328Y-128928570D02*
X221878328Y-129785713D01*
X221878328Y-129357142D02*
X220378328Y-129357142D01*
X220378328Y-129357142D02*
X220592614Y-129499999D01*
X220592614Y-129499999D02*
X220735471Y-129642856D01*
X220735471Y-129642856D02*
X220806900Y-129785713D01*
X220378328Y-127642857D02*
X220378328Y-127928571D01*
X220378328Y-127928571D02*
X220449757Y-128071428D01*
X220449757Y-128071428D02*
X220521185Y-128142857D01*
X220521185Y-128142857D02*
X220735471Y-128285714D01*
X220735471Y-128285714D02*
X221021185Y-128357142D01*
X221021185Y-128357142D02*
X221592614Y-128357142D01*
X221592614Y-128357142D02*
X221735471Y-128285714D01*
X221735471Y-128285714D02*
X221806900Y-128214285D01*
X221806900Y-128214285D02*
X221878328Y-128071428D01*
X221878328Y-128071428D02*
X221878328Y-127785714D01*
X221878328Y-127785714D02*
X221806900Y-127642857D01*
X221806900Y-127642857D02*
X221735471Y-127571428D01*
X221735471Y-127571428D02*
X221592614Y-127499999D01*
X221592614Y-127499999D02*
X221235471Y-127499999D01*
X221235471Y-127499999D02*
X221092614Y-127571428D01*
X221092614Y-127571428D02*
X221021185Y-127642857D01*
X221021185Y-127642857D02*
X220949757Y-127785714D01*
X220949757Y-127785714D02*
X220949757Y-128071428D01*
X220949757Y-128071428D02*
X221021185Y-128214285D01*
X221021185Y-128214285D02*
X221092614Y-128285714D01*
X221092614Y-128285714D02*
X221235471Y-128357142D01*
X221735471Y-126857143D02*
X221806900Y-126785714D01*
X221806900Y-126785714D02*
X221878328Y-126857143D01*
X221878328Y-126857143D02*
X221806900Y-126928571D01*
X221806900Y-126928571D02*
X221735471Y-126857143D01*
X221735471Y-126857143D02*
X221878328Y-126857143D01*
X220378328Y-125857142D02*
X220378328Y-125714285D01*
X220378328Y-125714285D02*
X220449757Y-125571428D01*
X220449757Y-125571428D02*
X220521185Y-125500000D01*
X220521185Y-125500000D02*
X220664042Y-125428571D01*
X220664042Y-125428571D02*
X220949757Y-125357142D01*
X220949757Y-125357142D02*
X221306900Y-125357142D01*
X221306900Y-125357142D02*
X221592614Y-125428571D01*
X221592614Y-125428571D02*
X221735471Y-125500000D01*
X221735471Y-125500000D02*
X221806900Y-125571428D01*
X221806900Y-125571428D02*
X221878328Y-125714285D01*
X221878328Y-125714285D02*
X221878328Y-125857142D01*
X221878328Y-125857142D02*
X221806900Y-126000000D01*
X221806900Y-126000000D02*
X221735471Y-126071428D01*
X221735471Y-126071428D02*
X221592614Y-126142857D01*
X221592614Y-126142857D02*
X221306900Y-126214285D01*
X221306900Y-126214285D02*
X220949757Y-126214285D01*
X220949757Y-126214285D02*
X220664042Y-126142857D01*
X220664042Y-126142857D02*
X220521185Y-126071428D01*
X220521185Y-126071428D02*
X220449757Y-126000000D01*
X220449757Y-126000000D02*
X220378328Y-125857142D01*
X221878328Y-123571429D02*
X220878328Y-123571429D01*
X221021185Y-123571429D02*
X220949757Y-123500000D01*
X220949757Y-123500000D02*
X220878328Y-123357143D01*
X220878328Y-123357143D02*
X220878328Y-123142857D01*
X220878328Y-123142857D02*
X220949757Y-123000000D01*
X220949757Y-123000000D02*
X221092614Y-122928572D01*
X221092614Y-122928572D02*
X221878328Y-122928572D01*
X221092614Y-122928572D02*
X220949757Y-122857143D01*
X220949757Y-122857143D02*
X220878328Y-122714286D01*
X220878328Y-122714286D02*
X220878328Y-122500000D01*
X220878328Y-122500000D02*
X220949757Y-122357143D01*
X220949757Y-122357143D02*
X221092614Y-122285714D01*
X221092614Y-122285714D02*
X221878328Y-122285714D01*
X221878328Y-121571429D02*
X220878328Y-121571429D01*
X221021185Y-121571429D02*
X220949757Y-121500000D01*
X220949757Y-121500000D02*
X220878328Y-121357143D01*
X220878328Y-121357143D02*
X220878328Y-121142857D01*
X220878328Y-121142857D02*
X220949757Y-121000000D01*
X220949757Y-121000000D02*
X221092614Y-120928572D01*
X221092614Y-120928572D02*
X221878328Y-120928572D01*
X221092614Y-120928572D02*
X220949757Y-120857143D01*
X220949757Y-120857143D02*
X220878328Y-120714286D01*
X220878328Y-120714286D02*
X220878328Y-120500000D01*
X220878328Y-120500000D02*
X220949757Y-120357143D01*
X220949757Y-120357143D02*
X221092614Y-120285714D01*
X221092614Y-120285714D02*
X221878328Y-120285714D01*
D11*
X191500000Y-117000000D02*
X223586420Y-117000000D01*
X191500000Y-133000000D02*
X223586420Y-133000000D01*
X223000000Y-117000000D02*
X223000000Y-133000000D01*
X223000000Y-117000000D02*
X223000000Y-133000000D01*
X223000000Y-117000000D02*
X223586421Y-118126504D01*
X223000000Y-117000000D02*
X222413579Y-118126504D01*
X223000000Y-133000000D02*
X222413579Y-131873496D01*
X223000000Y-133000000D02*
X223586421Y-131873496D01*
D10*
X133571429Y-128878328D02*
X133857143Y-128878328D01*
X133857143Y-128878328D02*
X134000000Y-128806900D01*
X134000000Y-128806900D02*
X134071429Y-128735471D01*
X134071429Y-128735471D02*
X134214286Y-128521185D01*
X134214286Y-128521185D02*
X134285715Y-128235471D01*
X134285715Y-128235471D02*
X134285715Y-127664042D01*
X134285715Y-127664042D02*
X134214286Y-127521185D01*
X134214286Y-127521185D02*
X134142858Y-127449757D01*
X134142858Y-127449757D02*
X134000000Y-127378328D01*
X134000000Y-127378328D02*
X133714286Y-127378328D01*
X133714286Y-127378328D02*
X133571429Y-127449757D01*
X133571429Y-127449757D02*
X133500000Y-127521185D01*
X133500000Y-127521185D02*
X133428572Y-127664042D01*
X133428572Y-127664042D02*
X133428572Y-128021185D01*
X133428572Y-128021185D02*
X133500000Y-128164042D01*
X133500000Y-128164042D02*
X133571429Y-128235471D01*
X133571429Y-128235471D02*
X133714286Y-128306900D01*
X133714286Y-128306900D02*
X134000000Y-128306900D01*
X134000000Y-128306900D02*
X134142858Y-128235471D01*
X134142858Y-128235471D02*
X134214286Y-128164042D01*
X134214286Y-128164042D02*
X134285715Y-128021185D01*
X134928571Y-128735471D02*
X135000000Y-128806900D01*
X135000000Y-128806900D02*
X134928571Y-128878328D01*
X134928571Y-128878328D02*
X134857143Y-128806900D01*
X134857143Y-128806900D02*
X134928571Y-128735471D01*
X134928571Y-128735471D02*
X134928571Y-128878328D01*
X135928572Y-127378328D02*
X136071429Y-127378328D01*
X136071429Y-127378328D02*
X136214286Y-127449757D01*
X136214286Y-127449757D02*
X136285715Y-127521185D01*
X136285715Y-127521185D02*
X136357143Y-127664042D01*
X136357143Y-127664042D02*
X136428572Y-127949757D01*
X136428572Y-127949757D02*
X136428572Y-128306900D01*
X136428572Y-128306900D02*
X136357143Y-128592614D01*
X136357143Y-128592614D02*
X136285715Y-128735471D01*
X136285715Y-128735471D02*
X136214286Y-128806900D01*
X136214286Y-128806900D02*
X136071429Y-128878328D01*
X136071429Y-128878328D02*
X135928572Y-128878328D01*
X135928572Y-128878328D02*
X135785715Y-128806900D01*
X135785715Y-128806900D02*
X135714286Y-128735471D01*
X135714286Y-128735471D02*
X135642857Y-128592614D01*
X135642857Y-128592614D02*
X135571429Y-128306900D01*
X135571429Y-128306900D02*
X135571429Y-127949757D01*
X135571429Y-127949757D02*
X135642857Y-127664042D01*
X135642857Y-127664042D02*
X135714286Y-127521185D01*
X135714286Y-127521185D02*
X135785715Y-127449757D01*
X135785715Y-127449757D02*
X135928572Y-127378328D01*
X138214285Y-128878328D02*
X138214285Y-127878328D01*
X138214285Y-128021185D02*
X138285714Y-127949757D01*
X138285714Y-127949757D02*
X138428571Y-127878328D01*
X138428571Y-127878328D02*
X138642857Y-127878328D01*
X138642857Y-127878328D02*
X138785714Y-127949757D01*
X138785714Y-127949757D02*
X138857143Y-128092614D01*
X138857143Y-128092614D02*
X138857143Y-128878328D01*
X138857143Y-128092614D02*
X138928571Y-127949757D01*
X138928571Y-127949757D02*
X139071428Y-127878328D01*
X139071428Y-127878328D02*
X139285714Y-127878328D01*
X139285714Y-127878328D02*
X139428571Y-127949757D01*
X139428571Y-127949757D02*
X139500000Y-128092614D01*
X139500000Y-128092614D02*
X139500000Y-128878328D01*
X140214285Y-128878328D02*
X140214285Y-127878328D01*
X140214285Y-128021185D02*
X140285714Y-127949757D01*
X140285714Y-127949757D02*
X140428571Y-127878328D01*
X140428571Y-127878328D02*
X140642857Y-127878328D01*
X140642857Y-127878328D02*
X140785714Y-127949757D01*
X140785714Y-127949757D02*
X140857143Y-128092614D01*
X140857143Y-128092614D02*
X140857143Y-128878328D01*
X140857143Y-128092614D02*
X140928571Y-127949757D01*
X140928571Y-127949757D02*
X141071428Y-127878328D01*
X141071428Y-127878328D02*
X141285714Y-127878328D01*
X141285714Y-127878328D02*
X141428571Y-127949757D01*
X141428571Y-127949757D02*
X141500000Y-128092614D01*
X141500000Y-128092614D02*
X141500000Y-128878328D01*
D11*
X142000000Y-117500000D02*
X142000000Y-130586420D01*
X133000000Y-117500000D02*
X133000000Y-130586420D01*
X142000000Y-130000000D02*
X133000000Y-130000000D01*
X142000000Y-130000000D02*
X133000000Y-130000000D01*
X142000000Y-130000000D02*
X140873496Y-130586421D01*
X142000000Y-130000000D02*
X140873496Y-129413579D01*
X133000000Y-130000000D02*
X134126504Y-129413579D01*
X133000000Y-130000000D02*
X134126504Y-130586421D01*
D10*
X105428572Y-133378327D02*
X105142857Y-133378327D01*
X105142857Y-133378327D02*
X105000000Y-133449756D01*
X105000000Y-133449756D02*
X104928572Y-133521184D01*
X104928572Y-133521184D02*
X104785714Y-133735470D01*
X104785714Y-133735470D02*
X104714286Y-134021184D01*
X104714286Y-134021184D02*
X104714286Y-134592613D01*
X104714286Y-134592613D02*
X104785714Y-134735470D01*
X104785714Y-134735470D02*
X104857143Y-134806899D01*
X104857143Y-134806899D02*
X105000000Y-134878327D01*
X105000000Y-134878327D02*
X105285714Y-134878327D01*
X105285714Y-134878327D02*
X105428572Y-134806899D01*
X105428572Y-134806899D02*
X105500000Y-134735470D01*
X105500000Y-134735470D02*
X105571429Y-134592613D01*
X105571429Y-134592613D02*
X105571429Y-134235470D01*
X105571429Y-134235470D02*
X105500000Y-134092613D01*
X105500000Y-134092613D02*
X105428572Y-134021184D01*
X105428572Y-134021184D02*
X105285714Y-133949756D01*
X105285714Y-133949756D02*
X105000000Y-133949756D01*
X105000000Y-133949756D02*
X104857143Y-134021184D01*
X104857143Y-134021184D02*
X104785714Y-134092613D01*
X104785714Y-134092613D02*
X104714286Y-134235470D01*
X106928571Y-133378327D02*
X106214285Y-133378327D01*
X106214285Y-133378327D02*
X106142857Y-134092613D01*
X106142857Y-134092613D02*
X106214285Y-134021184D01*
X106214285Y-134021184D02*
X106357143Y-133949756D01*
X106357143Y-133949756D02*
X106714285Y-133949756D01*
X106714285Y-133949756D02*
X106857143Y-134021184D01*
X106857143Y-134021184D02*
X106928571Y-134092613D01*
X106928571Y-134092613D02*
X107000000Y-134235470D01*
X107000000Y-134235470D02*
X107000000Y-134592613D01*
X107000000Y-134592613D02*
X106928571Y-134735470D01*
X106928571Y-134735470D02*
X106857143Y-134806899D01*
X106857143Y-134806899D02*
X106714285Y-134878327D01*
X106714285Y-134878327D02*
X106357143Y-134878327D01*
X106357143Y-134878327D02*
X106214285Y-134806899D01*
X106214285Y-134806899D02*
X106142857Y-134735470D01*
X107642856Y-134735470D02*
X107714285Y-134806899D01*
X107714285Y-134806899D02*
X107642856Y-134878327D01*
X107642856Y-134878327D02*
X107571428Y-134806899D01*
X107571428Y-134806899D02*
X107642856Y-134735470D01*
X107642856Y-134735470D02*
X107642856Y-134878327D01*
X108642857Y-133378327D02*
X108785714Y-133378327D01*
X108785714Y-133378327D02*
X108928571Y-133449756D01*
X108928571Y-133449756D02*
X109000000Y-133521184D01*
X109000000Y-133521184D02*
X109071428Y-133664041D01*
X109071428Y-133664041D02*
X109142857Y-133949756D01*
X109142857Y-133949756D02*
X109142857Y-134306899D01*
X109142857Y-134306899D02*
X109071428Y-134592613D01*
X109071428Y-134592613D02*
X109000000Y-134735470D01*
X109000000Y-134735470D02*
X108928571Y-134806899D01*
X108928571Y-134806899D02*
X108785714Y-134878327D01*
X108785714Y-134878327D02*
X108642857Y-134878327D01*
X108642857Y-134878327D02*
X108500000Y-134806899D01*
X108500000Y-134806899D02*
X108428571Y-134735470D01*
X108428571Y-134735470D02*
X108357142Y-134592613D01*
X108357142Y-134592613D02*
X108285714Y-134306899D01*
X108285714Y-134306899D02*
X108285714Y-133949756D01*
X108285714Y-133949756D02*
X108357142Y-133664041D01*
X108357142Y-133664041D02*
X108428571Y-133521184D01*
X108428571Y-133521184D02*
X108500000Y-133449756D01*
X108500000Y-133449756D02*
X108642857Y-133378327D01*
X110928570Y-134878327D02*
X110928570Y-133878327D01*
X110928570Y-134021184D02*
X110999999Y-133949756D01*
X110999999Y-133949756D02*
X111142856Y-133878327D01*
X111142856Y-133878327D02*
X111357142Y-133878327D01*
X111357142Y-133878327D02*
X111499999Y-133949756D01*
X111499999Y-133949756D02*
X111571428Y-134092613D01*
X111571428Y-134092613D02*
X111571428Y-134878327D01*
X111571428Y-134092613D02*
X111642856Y-133949756D01*
X111642856Y-133949756D02*
X111785713Y-133878327D01*
X111785713Y-133878327D02*
X111999999Y-133878327D01*
X111999999Y-133878327D02*
X112142856Y-133949756D01*
X112142856Y-133949756D02*
X112214285Y-134092613D01*
X112214285Y-134092613D02*
X112214285Y-134878327D01*
X112928570Y-134878327D02*
X112928570Y-133878327D01*
X112928570Y-134021184D02*
X112999999Y-133949756D01*
X112999999Y-133949756D02*
X113142856Y-133878327D01*
X113142856Y-133878327D02*
X113357142Y-133878327D01*
X113357142Y-133878327D02*
X113499999Y-133949756D01*
X113499999Y-133949756D02*
X113571428Y-134092613D01*
X113571428Y-134092613D02*
X113571428Y-134878327D01*
X113571428Y-134092613D02*
X113642856Y-133949756D01*
X113642856Y-133949756D02*
X113785713Y-133878327D01*
X113785713Y-133878327D02*
X113999999Y-133878327D01*
X113999999Y-133878327D02*
X114142856Y-133949756D01*
X114142856Y-133949756D02*
X114214285Y-134092613D01*
X114214285Y-134092613D02*
X114214285Y-134878327D01*
D11*
X77000000Y-117500000D02*
X77000000Y-136586419D01*
X142000000Y-117500000D02*
X142000000Y-136586419D01*
X77000000Y-135999999D02*
X142000000Y-135999999D01*
X77000000Y-135999999D02*
X142000000Y-135999999D01*
X77000000Y-135999999D02*
X78126504Y-135413578D01*
X77000000Y-135999999D02*
X78126504Y-136586420D01*
X142000000Y-135999999D02*
X140873496Y-136586420D01*
X142000000Y-135999999D02*
X140873496Y-135413578D01*
D12*
X214696477Y-115996649D02*
X214291715Y-116697717D01*
X214291715Y-116697717D02*
X214285335Y-116804005D01*
X214285335Y-116804005D02*
X214302765Y-116869054D01*
X214302765Y-116869054D02*
X214361434Y-116957912D01*
X214361434Y-116957912D02*
X214526392Y-117053150D01*
X214526392Y-117053150D02*
X214632680Y-117059530D01*
X214632680Y-117059530D02*
X214697728Y-117042100D01*
X214697728Y-117042100D02*
X214786587Y-116983431D01*
X214786587Y-116983431D02*
X215191349Y-116282363D01*
X215514883Y-116579127D02*
X215579932Y-116561697D01*
X215579932Y-116561697D02*
X215686220Y-116568077D01*
X215686220Y-116568077D02*
X215892417Y-116687125D01*
X215892417Y-116687125D02*
X215951086Y-116775983D01*
X215951086Y-116775983D02*
X215968516Y-116841032D01*
X215968516Y-116841032D02*
X215962136Y-116947320D01*
X215962136Y-116947320D02*
X215914517Y-117029799D01*
X215914517Y-117029799D02*
X215801849Y-117129707D01*
X215801849Y-117129707D02*
X215021263Y-117338864D01*
X215021263Y-117338864D02*
X215557374Y-117648388D01*
X210712761Y-113696650D02*
X210307999Y-114397718D01*
X210307999Y-114397718D02*
X210301619Y-114504006D01*
X210301619Y-114504006D02*
X210319049Y-114569055D01*
X210319049Y-114569055D02*
X210377718Y-114657913D01*
X210377718Y-114657913D02*
X210542676Y-114753151D01*
X210542676Y-114753151D02*
X210648964Y-114759531D01*
X210648964Y-114759531D02*
X210714012Y-114742101D01*
X210714012Y-114742101D02*
X210802871Y-114683432D01*
X210802871Y-114683432D02*
X211207633Y-113982364D01*
X211537547Y-114172840D02*
X212073658Y-114482364D01*
X212073658Y-114482364D02*
X211594507Y-114645612D01*
X211594507Y-114645612D02*
X211718225Y-114717040D01*
X211718225Y-114717040D02*
X211776894Y-114805899D01*
X211776894Y-114805899D02*
X211794324Y-114870947D01*
X211794324Y-114870947D02*
X211787944Y-114977235D01*
X211787944Y-114977235D02*
X211668896Y-115183432D01*
X211668896Y-115183432D02*
X211580038Y-115242101D01*
X211580038Y-115242101D02*
X211514989Y-115259531D01*
X211514989Y-115259531D02*
X211408701Y-115253151D01*
X211408701Y-115253151D02*
X211161265Y-115110294D01*
X211161265Y-115110294D02*
X211102596Y-115021436D01*
X211102596Y-115021436D02*
X211085166Y-114956387D01*
G04 #@! TO.C,S18*
X152400000Y-86915625D02*
X171450000Y-86915625D01*
X152400000Y-105965625D02*
X152400000Y-86915625D01*
X154925000Y-89440625D02*
X155925000Y-89440625D01*
X154925000Y-90440625D02*
X154925000Y-89440625D01*
X154925000Y-102440625D02*
X154925000Y-103440625D01*
X154925000Y-103440625D02*
X155925000Y-103440625D01*
X167925000Y-103440625D02*
X168925000Y-103440625D01*
X168925000Y-89440625D02*
X167925000Y-89440625D01*
X168925000Y-89440625D02*
X168925000Y-90440625D01*
X168925000Y-103440625D02*
X168925000Y-102440625D01*
X171450000Y-86915625D02*
X171450000Y-105965625D01*
X171450000Y-105965625D02*
X152400000Y-105965625D01*
G04 #@! TO.C,S2*
X76200000Y-79771875D02*
X95250000Y-79771875D01*
X76200000Y-98821875D02*
X76200000Y-79771875D01*
X78725000Y-82296875D02*
X79725000Y-82296875D01*
X78725000Y-83296875D02*
X78725000Y-82296875D01*
X78725000Y-95296875D02*
X78725000Y-96296875D01*
X78725000Y-96296875D02*
X79725000Y-96296875D01*
X91725000Y-96296875D02*
X92725000Y-96296875D01*
X92725000Y-82296875D02*
X91725000Y-82296875D01*
X92725000Y-82296875D02*
X92725000Y-83296875D01*
X92725000Y-96296875D02*
X92725000Y-95296875D01*
X95250000Y-79771875D02*
X95250000Y-98821875D01*
X95250000Y-98821875D02*
X76200000Y-98821875D01*
G04 #@! TO.C,S12*
X180901108Y-131514517D02*
X190426108Y-115016733D01*
X184350322Y-130590303D02*
X185216348Y-131090303D01*
X184850322Y-129724277D02*
X184350322Y-130590303D01*
X190426108Y-115016733D02*
X206923892Y-124541733D01*
X190850322Y-119331973D02*
X191350322Y-118465947D01*
X191350322Y-118465947D02*
X192216348Y-118965947D01*
X195608652Y-137090303D02*
X196474678Y-137590303D01*
X196474678Y-137590303D02*
X196974678Y-136724277D01*
X197398892Y-141039517D02*
X180901108Y-131514517D01*
X203474678Y-125465947D02*
X202608652Y-124965947D01*
X203474678Y-125465947D02*
X202974678Y-126331973D01*
X206923892Y-124541733D02*
X197398892Y-141039517D01*
G04 #@! TO.C,S3*
X76200000Y-98821875D02*
X95250000Y-98821875D01*
X76200000Y-117871875D02*
X76200000Y-98821875D01*
X78725000Y-101346875D02*
X79725000Y-101346875D01*
X78725000Y-102346875D02*
X78725000Y-101346875D01*
X78725000Y-114346875D02*
X78725000Y-115346875D01*
X78725000Y-115346875D02*
X79725000Y-115346875D01*
X91725000Y-115346875D02*
X92725000Y-115346875D01*
X92725000Y-101346875D02*
X91725000Y-101346875D01*
X92725000Y-101346875D02*
X92725000Y-102346875D01*
X92725000Y-115346875D02*
X92725000Y-114346875D01*
X95250000Y-98821875D02*
X95250000Y-117871875D01*
X95250000Y-117871875D02*
X76200000Y-117871875D01*
G04 #@! TO.C,S4*
X142875000Y-107088750D02*
X161925000Y-107088750D01*
X142875000Y-126138750D02*
X142875000Y-107088750D01*
X145400000Y-109613750D02*
X146400000Y-109613750D01*
X145400000Y-110613750D02*
X145400000Y-109613750D01*
X145400000Y-122613750D02*
X145400000Y-123613750D01*
X145400000Y-123613750D02*
X146400000Y-123613750D01*
X158400000Y-123613750D02*
X159400000Y-123613750D01*
X159400000Y-109613750D02*
X158400000Y-109613750D01*
X159400000Y-109613750D02*
X159400000Y-110613750D01*
X159400000Y-123613750D02*
X159400000Y-122613750D01*
X161925000Y-107088750D02*
X161925000Y-126138750D01*
X161925000Y-126138750D02*
X142875000Y-126138750D01*
G04 #@! TO.C,S19*
X171450000Y-51196875D02*
X190500000Y-51196875D01*
X171450000Y-70246875D02*
X171450000Y-51196875D01*
X173975000Y-53721875D02*
X174975000Y-53721875D01*
X173975000Y-54721875D02*
X173975000Y-53721875D01*
X173975000Y-66721875D02*
X173975000Y-67721875D01*
X173975000Y-67721875D02*
X174975000Y-67721875D01*
X186975000Y-67721875D02*
X187975000Y-67721875D01*
X187975000Y-53721875D02*
X186975000Y-53721875D01*
X187975000Y-53721875D02*
X187975000Y-54721875D01*
X187975000Y-67721875D02*
X187975000Y-66721875D01*
X190500000Y-51196875D02*
X190500000Y-70246875D01*
X190500000Y-70246875D02*
X171450000Y-70246875D01*
G04 #@! TO.C,S21*
X171450000Y-89296875D02*
X190500000Y-89296875D01*
X171450000Y-108346875D02*
X171450000Y-89296875D01*
X173975000Y-91821875D02*
X174975000Y-91821875D01*
X173975000Y-92821875D02*
X173975000Y-91821875D01*
X173975000Y-104821875D02*
X173975000Y-105821875D01*
X173975000Y-105821875D02*
X174975000Y-105821875D01*
X186975000Y-105821875D02*
X187975000Y-105821875D01*
X187975000Y-91821875D02*
X186975000Y-91821875D01*
X187975000Y-91821875D02*
X187975000Y-92821875D01*
X187975000Y-105821875D02*
X187975000Y-104821875D01*
X190500000Y-89296875D02*
X190500000Y-108346875D01*
X190500000Y-108346875D02*
X171450000Y-108346875D01*
G04 #@! TO.C,S9*
X114300000Y-48815625D02*
X133350000Y-48815625D01*
X114300000Y-67865625D02*
X114300000Y-48815625D01*
X116825000Y-51340625D02*
X117825000Y-51340625D01*
X116825000Y-52340625D02*
X116825000Y-51340625D01*
X116825000Y-64340625D02*
X116825000Y-65340625D01*
X116825000Y-65340625D02*
X117825000Y-65340625D01*
X129825000Y-65340625D02*
X130825000Y-65340625D01*
X130825000Y-51340625D02*
X129825000Y-51340625D01*
X130825000Y-51340625D02*
X130825000Y-52340625D01*
X130825000Y-65340625D02*
X130825000Y-64340625D01*
X133350000Y-48815625D02*
X133350000Y-67865625D01*
X133350000Y-67865625D02*
X114300000Y-67865625D01*
G04 #@! TO.C,S10*
X114300000Y-67865625D02*
X133350000Y-67865625D01*
X114300000Y-86915625D02*
X114300000Y-67865625D01*
X116825000Y-70390625D02*
X117825000Y-70390625D01*
X116825000Y-71390625D02*
X116825000Y-70390625D01*
X116825000Y-83390625D02*
X116825000Y-84390625D01*
X116825000Y-84390625D02*
X117825000Y-84390625D01*
X129825000Y-84390625D02*
X130825000Y-84390625D01*
X130825000Y-70390625D02*
X129825000Y-70390625D01*
X130825000Y-70390625D02*
X130825000Y-71390625D01*
X130825000Y-84390625D02*
X130825000Y-83390625D01*
X133350000Y-67865625D02*
X133350000Y-86915625D01*
X133350000Y-86915625D02*
X114300000Y-86915625D01*
G04 #@! TO.C,S6*
X95250000Y-79771875D02*
X114300000Y-79771875D01*
X95250000Y-98821875D02*
X95250000Y-79771875D01*
X97775000Y-82296875D02*
X98775000Y-82296875D01*
X97775000Y-83296875D02*
X97775000Y-82296875D01*
X97775000Y-95296875D02*
X97775000Y-96296875D01*
X97775000Y-96296875D02*
X98775000Y-96296875D01*
X110775000Y-96296875D02*
X111775000Y-96296875D01*
X111775000Y-82296875D02*
X110775000Y-82296875D01*
X111775000Y-82296875D02*
X111775000Y-83296875D01*
X111775000Y-96296875D02*
X111775000Y-95296875D01*
X114300000Y-79771875D02*
X114300000Y-98821875D01*
X114300000Y-98821875D02*
X95250000Y-98821875D01*
G04 #@! TO.C,S8*
X162165555Y-126263317D02*
X167096058Y-107862430D01*
X165258036Y-124477872D02*
X166223962Y-124736692D01*
X165516855Y-123511947D02*
X165258036Y-124477872D01*
X167096058Y-107862430D02*
X185496945Y-112792933D01*
X168622683Y-111920837D02*
X168881503Y-110954911D01*
X168881503Y-110954911D02*
X169847428Y-111213730D01*
X177815072Y-127842520D02*
X178780997Y-128101339D01*
X178780997Y-128101339D02*
X179039817Y-127135413D01*
X180566442Y-131193820D02*
X162165555Y-126263317D01*
X182404464Y-114578378D02*
X181438538Y-114319558D01*
X182404464Y-114578378D02*
X182145645Y-115544303D01*
X185496945Y-112792933D02*
X180566442Y-131193820D01*
G04 #@! TO.C,S7*
X95250000Y-98821875D02*
X114300000Y-98821875D01*
X95250000Y-117871875D02*
X95250000Y-98821875D01*
X97775000Y-101346875D02*
X98775000Y-101346875D01*
X97775000Y-102346875D02*
X97775000Y-101346875D01*
X97775000Y-114346875D02*
X97775000Y-115346875D01*
X97775000Y-115346875D02*
X98775000Y-115346875D01*
X110775000Y-115346875D02*
X111775000Y-115346875D01*
X111775000Y-101346875D02*
X110775000Y-101346875D01*
X111775000Y-101346875D02*
X111775000Y-102346875D01*
X111775000Y-115346875D02*
X111775000Y-114346875D01*
X114300000Y-98821875D02*
X114300000Y-117871875D01*
X114300000Y-117871875D02*
X95250000Y-117871875D01*
G04 #@! TO.C,S14*
X133350000Y-65484375D02*
X152400000Y-65484375D01*
X133350000Y-84534375D02*
X133350000Y-65484375D01*
X135875000Y-68009375D02*
X136875000Y-68009375D01*
X135875000Y-69009375D02*
X135875000Y-68009375D01*
X135875000Y-81009375D02*
X135875000Y-82009375D01*
X135875000Y-82009375D02*
X136875000Y-82009375D01*
X148875000Y-82009375D02*
X149875000Y-82009375D01*
X149875000Y-68009375D02*
X148875000Y-68009375D01*
X149875000Y-68009375D02*
X149875000Y-69009375D01*
X149875000Y-82009375D02*
X149875000Y-81009375D01*
X152400000Y-65484375D02*
X152400000Y-84534375D01*
X152400000Y-84534375D02*
X133350000Y-84534375D01*
G04 #@! TO.C,S20*
X171450000Y-70246875D02*
X190500000Y-70246875D01*
X171450000Y-89296875D02*
X171450000Y-70246875D01*
X173975000Y-72771875D02*
X174975000Y-72771875D01*
X173975000Y-73771875D02*
X173975000Y-72771875D01*
X173975000Y-85771875D02*
X173975000Y-86771875D01*
X173975000Y-86771875D02*
X174975000Y-86771875D01*
X186975000Y-86771875D02*
X187975000Y-86771875D01*
X187975000Y-72771875D02*
X186975000Y-72771875D01*
X187975000Y-72771875D02*
X187975000Y-73771875D01*
X187975000Y-86771875D02*
X187975000Y-85771875D01*
X190500000Y-70246875D02*
X190500000Y-89296875D01*
X190500000Y-89296875D02*
X171450000Y-89296875D01*
G04 #@! TO.C,S1*
X76200000Y-60721875D02*
X95250000Y-60721875D01*
X76200000Y-79771875D02*
X76200000Y-60721875D01*
X78725000Y-63246875D02*
X79725000Y-63246875D01*
X78725000Y-64246875D02*
X78725000Y-63246875D01*
X78725000Y-76246875D02*
X78725000Y-77246875D01*
X78725000Y-77246875D02*
X79725000Y-77246875D01*
X91725000Y-77246875D02*
X92725000Y-77246875D01*
X92725000Y-63246875D02*
X91725000Y-63246875D01*
X92725000Y-63246875D02*
X92725000Y-64246875D01*
X92725000Y-77246875D02*
X92725000Y-76246875D01*
X95250000Y-60721875D02*
X95250000Y-79771875D01*
X95250000Y-79771875D02*
X76200000Y-79771875D01*
G04 #@! TO.C,S13*
X133350000Y-46434375D02*
X152400000Y-46434375D01*
X133350000Y-65484375D02*
X133350000Y-46434375D01*
X135875000Y-48959375D02*
X136875000Y-48959375D01*
X135875000Y-49959375D02*
X135875000Y-48959375D01*
X135875000Y-61959375D02*
X135875000Y-62959375D01*
X135875000Y-62959375D02*
X136875000Y-62959375D01*
X148875000Y-62959375D02*
X149875000Y-62959375D01*
X149875000Y-48959375D02*
X148875000Y-48959375D01*
X149875000Y-48959375D02*
X149875000Y-49959375D01*
X149875000Y-62959375D02*
X149875000Y-61959375D01*
X152400000Y-46434375D02*
X152400000Y-65484375D01*
X152400000Y-65484375D02*
X133350000Y-65484375D01*
G04 #@! TO.C,S5*
X95250000Y-60721875D02*
X114300000Y-60721875D01*
X95250000Y-79771875D02*
X95250000Y-60721875D01*
X97775000Y-63246875D02*
X98775000Y-63246875D01*
X97775000Y-64246875D02*
X97775000Y-63246875D01*
X97775000Y-76246875D02*
X97775000Y-77246875D01*
X97775000Y-77246875D02*
X98775000Y-77246875D01*
X110775000Y-77246875D02*
X111775000Y-77246875D01*
X111775000Y-63246875D02*
X110775000Y-63246875D01*
X111775000Y-63246875D02*
X111775000Y-64246875D01*
X111775000Y-77246875D02*
X111775000Y-76246875D01*
X114300000Y-60721875D02*
X114300000Y-79771875D01*
X114300000Y-79771875D02*
X95250000Y-79771875D01*
G04 #@! TO.C,S15*
X133350000Y-84534375D02*
X152400000Y-84534375D01*
X133350000Y-103584375D02*
X133350000Y-84534375D01*
X135875000Y-87059375D02*
X136875000Y-87059375D01*
X135875000Y-88059375D02*
X135875000Y-87059375D01*
X135875000Y-100059375D02*
X135875000Y-101059375D01*
X135875000Y-101059375D02*
X136875000Y-101059375D01*
X148875000Y-101059375D02*
X149875000Y-101059375D01*
X149875000Y-87059375D02*
X148875000Y-87059375D01*
X149875000Y-87059375D02*
X149875000Y-88059375D01*
X149875000Y-101059375D02*
X149875000Y-100059375D01*
X152400000Y-84534375D02*
X152400000Y-103584375D01*
X152400000Y-103584375D02*
X133350000Y-103584375D01*
G04 #@! TO.C,S17*
X152400000Y-67865625D02*
X171450000Y-67865625D01*
X152400000Y-86915625D02*
X152400000Y-67865625D01*
X154925000Y-70390625D02*
X155925000Y-70390625D01*
X154925000Y-71390625D02*
X154925000Y-70390625D01*
X154925000Y-83390625D02*
X154925000Y-84390625D01*
X154925000Y-84390625D02*
X155925000Y-84390625D01*
X167925000Y-84390625D02*
X168925000Y-84390625D01*
X168925000Y-70390625D02*
X167925000Y-70390625D01*
X168925000Y-70390625D02*
X168925000Y-71390625D01*
X168925000Y-84390625D02*
X168925000Y-83390625D01*
X171450000Y-67865625D02*
X171450000Y-86915625D01*
X171450000Y-86915625D02*
X152400000Y-86915625D01*
G04 #@! TO.C,S11*
X114300000Y-86915625D02*
X133350000Y-86915625D01*
X114300000Y-105965625D02*
X114300000Y-86915625D01*
X116825000Y-89440625D02*
X117825000Y-89440625D01*
X116825000Y-90440625D02*
X116825000Y-89440625D01*
X116825000Y-102440625D02*
X116825000Y-103440625D01*
X116825000Y-103440625D02*
X117825000Y-103440625D01*
X129825000Y-103440625D02*
X130825000Y-103440625D01*
X130825000Y-89440625D02*
X129825000Y-89440625D01*
X130825000Y-89440625D02*
X130825000Y-90440625D01*
X130825000Y-103440625D02*
X130825000Y-102440625D01*
X133350000Y-86915625D02*
X133350000Y-105965625D01*
X133350000Y-105965625D02*
X114300000Y-105965625D01*
G04 #@! TO.C,S16*
X152400000Y-48815625D02*
X171450000Y-48815625D01*
X152400000Y-67865625D02*
X152400000Y-48815625D01*
X154925000Y-51340625D02*
X155925000Y-51340625D01*
X154925000Y-52340625D02*
X154925000Y-51340625D01*
X154925000Y-64340625D02*
X154925000Y-65340625D01*
X154925000Y-65340625D02*
X155925000Y-65340625D01*
X167925000Y-65340625D02*
X168925000Y-65340625D01*
X168925000Y-51340625D02*
X167925000Y-51340625D01*
X168925000Y-51340625D02*
X168925000Y-52340625D01*
X168925000Y-65340625D02*
X168925000Y-64340625D01*
X171450000Y-48815625D02*
X171450000Y-67865625D01*
X171450000Y-67865625D02*
X152400000Y-67865625D01*
G04 #@! TD*
M02*
