G04 #@! TF.GenerationSoftware,KiCad,Pcbnew,8.0.4*
G04 #@! TF.CreationDate,2024-09-23T05:23:03+03:00*
G04 #@! TF.ProjectId,muikku42,6d75696b-6b75-4343-922e-6b696361645f,rev?*
G04 #@! TF.SameCoordinates,Original*
G04 #@! TF.FileFunction,Legend,Bot*
G04 #@! TF.FilePolarity,Positive*
%FSLAX46Y46*%
G04 Gerber Fmt 4.6, Leading zero omitted, Abs format (unit mm)*
G04 Created by KiCad (PCBNEW 8.0.4) date 2024-09-23 05:23:03*
%MOMM*%
%LPD*%
G01*
G04 APERTURE LIST*
G04 Aperture macros list*
%AMHorizOval*
0 Thick line with rounded ends*
0 $1 width*
0 $2 $3 position (X,Y) of the first rounded end (center of the circle)*
0 $4 $5 position (X,Y) of the second rounded end (center of the circle)*
0 Add line between two ends*
20,1,$1,$2,$3,$4,$5,0*
0 Add two circle primitives to create the rounded ends*
1,1,$1,$2,$3*
1,1,$1,$4,$5*%
%AMRotRect*
0 Rectangle, with rotation*
0 The origin of the aperture is its center*
0 $1 length*
0 $2 width*
0 $3 Rotation angle, in degrees counterclockwise*
0 Add horizontal line*
21,1,$1,$2,0,0,$3*%
G04 Aperture macros list end*
%ADD10C,0.000000*%
%ADD11C,0.300000*%
%ADD12C,0.150000*%
%ADD13C,0.500000*%
%ADD14C,0.800000*%
%ADD15C,3.000000*%
%ADD16C,3.500000*%
%ADD17C,1.000000*%
%ADD18C,0.400000*%
%ADD19C,1.750000*%
%ADD20C,3.000000*%
%ADD21C,4.000000*%
%ADD22C,4.100000*%
%ADD23R,2.300000X2.000000*%
%ADD24RotRect,2.300000X2.000000X150.000000*%
%ADD25RotRect,2.300000X2.000000X165.000000*%
%ADD26C,0.800000*%
%ADD27HorizOval,1.600000X-0.100000X-0.173205X0.100000X0.173205X0*%
%ADD28O,1.700000X1.700000*%
%ADD29R,1.700000X1.700000*%
%ADD30HorizOval,1.600000X0.100000X0.173205X-0.100000X-0.173205X0*%
G04 APERTURE END LIST*
D10*
G36*
X203479865Y-81269631D02*
G01*
X203491667Y-81270578D01*
X203503448Y-81272203D01*
X203515212Y-81274500D01*
X203526945Y-81277462D01*
X203538643Y-81281099D01*
X203550297Y-81285408D01*
X203561900Y-81290379D01*
X203573445Y-81296023D01*
X203584925Y-81302339D01*
X203596329Y-81309320D01*
X203607659Y-81316973D01*
X203618901Y-81325290D01*
X203630050Y-81334271D01*
X203641096Y-81343922D01*
X203652032Y-81354236D01*
X203664915Y-81368081D01*
X203676704Y-81381853D01*
X203687418Y-81395598D01*
X203697064Y-81409378D01*
X203705653Y-81423225D01*
X203713196Y-81437196D01*
X203719705Y-81451327D01*
X203725193Y-81465671D01*
X203729663Y-81480283D01*
X203733136Y-81495195D01*
X203735614Y-81510461D01*
X203737116Y-81526136D01*
X203737648Y-81542259D01*
X203737214Y-81558869D01*
X203735841Y-81576029D01*
X203733525Y-81593776D01*
X203732229Y-81600071D01*
X203730227Y-81606888D01*
X203727555Y-81614164D01*
X203724264Y-81621826D01*
X203720394Y-81629821D01*
X203715991Y-81638095D01*
X203711091Y-81646574D01*
X203705745Y-81655202D01*
X203699996Y-81663920D01*
X203693881Y-81672652D01*
X203687446Y-81681360D01*
X203680741Y-81689970D01*
X203673804Y-81698416D01*
X203666674Y-81706644D01*
X203659406Y-81714582D01*
X203652033Y-81722188D01*
X203641103Y-81732728D01*
X203630079Y-81742588D01*
X203618965Y-81751768D01*
X203607767Y-81760269D01*
X203596495Y-81768092D01*
X203585155Y-81775230D01*
X203573743Y-81781690D01*
X203562281Y-81787468D01*
X203550771Y-81792572D01*
X203539218Y-81796991D01*
X203527618Y-81800734D01*
X203515991Y-81803792D01*
X203504340Y-81806172D01*
X203492671Y-81807873D01*
X203480983Y-81808893D01*
X203469294Y-81809233D01*
X203457606Y-81808897D01*
X203445915Y-81807869D01*
X203434253Y-81806174D01*
X203422596Y-81803789D01*
X203410972Y-81800730D01*
X203399375Y-81796991D01*
X203387817Y-81792574D01*
X203376306Y-81787474D01*
X203364840Y-81781688D01*
X203353435Y-81775231D01*
X203342094Y-81768089D01*
X203330821Y-81760270D01*
X203319628Y-81751767D01*
X203308510Y-81742588D01*
X203297489Y-81732728D01*
X203286556Y-81722187D01*
X203276015Y-81711471D01*
X203266154Y-81700634D01*
X203256969Y-81689687D01*
X203248468Y-81678627D01*
X203240641Y-81667470D01*
X203233491Y-81656222D01*
X203227027Y-81644891D01*
X203221230Y-81633478D01*
X203216117Y-81622001D01*
X203211672Y-81610463D01*
X203207908Y-81598869D01*
X203204816Y-81587232D01*
X203202403Y-81575551D01*
X203200663Y-81563848D01*
X203199593Y-81552120D01*
X203199200Y-81540374D01*
X203199480Y-81528620D01*
X203200429Y-81516868D01*
X203202051Y-81505127D01*
X203204344Y-81493400D01*
X203207311Y-81481698D01*
X203210947Y-81470024D01*
X203215252Y-81458391D01*
X203220229Y-81446806D01*
X203225871Y-81435269D01*
X203232189Y-81423799D01*
X203239168Y-81412400D01*
X203246815Y-81401077D01*
X203255135Y-81389838D01*
X203264118Y-81378688D01*
X203273770Y-81367644D01*
X203284089Y-81356709D01*
X203295022Y-81346165D01*
X203306072Y-81336304D01*
X203317219Y-81327122D01*
X203328460Y-81318617D01*
X203339788Y-81310792D01*
X203351196Y-81303648D01*
X203362678Y-81297182D01*
X203374222Y-81291384D01*
X203385822Y-81286268D01*
X203397481Y-81281825D01*
X203409174Y-81278059D01*
X203420905Y-81274973D01*
X203432672Y-81272558D01*
X203444457Y-81270815D01*
X203456255Y-81269745D01*
X203468059Y-81269353D01*
X203479865Y-81269631D01*
G37*
G36*
X206633845Y-71020636D02*
G01*
X206641431Y-71023231D01*
X206649223Y-71027895D01*
X206657348Y-71034430D01*
X206664698Y-71040647D01*
X206667986Y-71043610D01*
X206671011Y-71046523D01*
X206673780Y-71049431D01*
X206676287Y-71052363D01*
X206678540Y-71055364D01*
X206680535Y-71058470D01*
X206682276Y-71061716D01*
X206683757Y-71065137D01*
X206684983Y-71068778D01*
X206685953Y-71072675D01*
X206686671Y-71076857D01*
X206687129Y-71081376D01*
X206687338Y-71086254D01*
X206687287Y-71091536D01*
X206686988Y-71097262D01*
X206686438Y-71103466D01*
X206685628Y-71110183D01*
X206684570Y-71117462D01*
X206683264Y-71125326D01*
X206681707Y-71133824D01*
X206679897Y-71142981D01*
X206677838Y-71152853D01*
X206672972Y-71174841D01*
X206667107Y-71200099D01*
X206652411Y-71261619D01*
X206646620Y-71284526D01*
X206639187Y-71308265D01*
X206629757Y-71333428D01*
X206617949Y-71360631D01*
X206603411Y-71390465D01*
X206585780Y-71423531D01*
X206564674Y-71460434D01*
X206539742Y-71501772D01*
X206510612Y-71548147D01*
X206476922Y-71600154D01*
X206438300Y-71658401D01*
X206394390Y-71723484D01*
X206289229Y-71876565D01*
X206158518Y-72064192D01*
X206009675Y-72276880D01*
X205890546Y-72443327D01*
X205797754Y-72567288D01*
X205760176Y-72614520D01*
X205727911Y-72652538D01*
X205700537Y-72681812D01*
X205677629Y-72702822D01*
X205658768Y-72716028D01*
X205643523Y-72721908D01*
X205637132Y-72722250D01*
X205631481Y-72720928D01*
X205626525Y-72718019D01*
X205622210Y-72713566D01*
X205615292Y-72700285D01*
X205610304Y-72681554D01*
X205610379Y-72678708D01*
X205611514Y-72674367D01*
X205616859Y-72661376D01*
X205626132Y-72642888D01*
X205639125Y-72619234D01*
X205675460Y-72557708D01*
X205724205Y-72479366D01*
X205783719Y-72386785D01*
X205852343Y-72282542D01*
X205928441Y-72169214D01*
X206010354Y-72049373D01*
X206112584Y-71900164D01*
X206201271Y-71768322D01*
X206277225Y-71652450D01*
X206341259Y-71551161D01*
X206394181Y-71463070D01*
X206436793Y-71386792D01*
X206469923Y-71320925D01*
X206494362Y-71264091D01*
X206526485Y-71184534D01*
X206540442Y-71151474D01*
X206553170Y-71122637D01*
X206564793Y-71097817D01*
X206575453Y-71076822D01*
X206585267Y-71059468D01*
X206594376Y-71045545D01*
X206602907Y-71034862D01*
X206610988Y-71027222D01*
X206614901Y-71024488D01*
X206618748Y-71022447D01*
X206622550Y-71021054D01*
X206626326Y-71020307D01*
X206630085Y-71020174D01*
X206633845Y-71020636D01*
G37*
G36*
X206339505Y-60605348D02*
G01*
X206343063Y-60605928D01*
X206346404Y-60606773D01*
X206349556Y-60607892D01*
X206352545Y-60609284D01*
X206355409Y-60610947D01*
X206358170Y-60612894D01*
X206360862Y-60615112D01*
X206366135Y-60620390D01*
X206371470Y-60626792D01*
X206383238Y-60643012D01*
X206386907Y-60648704D01*
X206390503Y-60654644D01*
X206393991Y-60660769D01*
X206397362Y-60667048D01*
X206400585Y-60673431D01*
X206403639Y-60679863D01*
X206406510Y-60686302D01*
X206409171Y-60692708D01*
X206411593Y-60699021D01*
X206413770Y-60705204D01*
X206415665Y-60711204D01*
X206417272Y-60716978D01*
X206418557Y-60722477D01*
X206419497Y-60727648D01*
X206420079Y-60732458D01*
X206420284Y-60736849D01*
X206419229Y-60743232D01*
X206416140Y-60753887D01*
X206404266Y-60787047D01*
X206385510Y-60834388D01*
X206360707Y-60893969D01*
X206330687Y-60963848D01*
X206296302Y-61042096D01*
X206258391Y-61126769D01*
X206217791Y-61215923D01*
X206015291Y-61657950D01*
X205378174Y-62509907D01*
X205050901Y-62951939D01*
X204937063Y-63109461D01*
X204850947Y-63232836D01*
X204788450Y-63328201D01*
X204745455Y-63401691D01*
X204717859Y-63459429D01*
X204701547Y-63507566D01*
X204694803Y-63530437D01*
X204688333Y-63551072D01*
X204681966Y-63569705D01*
X204675503Y-63586587D01*
X204668765Y-63601965D01*
X204661570Y-63616084D01*
X204653722Y-63629193D01*
X204645058Y-63641532D01*
X204635377Y-63653352D01*
X204624501Y-63664894D01*
X204612238Y-63676409D01*
X204598414Y-63688140D01*
X204582833Y-63700333D01*
X204565316Y-63713239D01*
X204545683Y-63727099D01*
X204523745Y-63742158D01*
X204500188Y-63757994D01*
X204479286Y-63772520D01*
X204460670Y-63786279D01*
X204452113Y-63793032D01*
X204443993Y-63799808D01*
X204436274Y-63806660D01*
X204428892Y-63813657D01*
X204421820Y-63820873D01*
X204415015Y-63828374D01*
X204408413Y-63836221D01*
X204401990Y-63844487D01*
X204395686Y-63853239D01*
X204389471Y-63862545D01*
X204383290Y-63872474D01*
X204377100Y-63883096D01*
X204370855Y-63894474D01*
X204364508Y-63906680D01*
X204351353Y-63933832D01*
X204337264Y-63965107D01*
X204321893Y-64001038D01*
X204304869Y-64042170D01*
X204264455Y-64142211D01*
X204140982Y-64450893D01*
X204182962Y-64895392D01*
X204193856Y-65006578D01*
X204206193Y-65114403D01*
X204220035Y-65219218D01*
X204235438Y-65321366D01*
X204252465Y-65421213D01*
X204271167Y-65519078D01*
X204291609Y-65615333D01*
X204313847Y-65710309D01*
X204400277Y-66083197D01*
X204536094Y-65944905D01*
X204587125Y-65893940D01*
X204607277Y-65874602D01*
X204616045Y-65866649D01*
X204623954Y-65859905D01*
X204631010Y-65854425D01*
X204637229Y-65850256D01*
X204642614Y-65847456D01*
X204647179Y-65846067D01*
X204649148Y-65845918D01*
X204650926Y-65846145D01*
X204652504Y-65846755D01*
X204653879Y-65847741D01*
X204655051Y-65849131D01*
X204656032Y-65850910D01*
X204657404Y-65855699D01*
X204658003Y-65862160D01*
X204657841Y-65870341D01*
X204656916Y-65880289D01*
X204655249Y-65892067D01*
X204652847Y-65905725D01*
X204649717Y-65921304D01*
X204641311Y-65958445D01*
X204630123Y-66003915D01*
X204616208Y-66058111D01*
X204580545Y-66194320D01*
X204508931Y-66453612D01*
X204748468Y-67959972D01*
X205032758Y-69791068D01*
X205140529Y-70517238D01*
X205185558Y-70851693D01*
X205185785Y-70851776D01*
X205186470Y-70851585D01*
X205189145Y-70850370D01*
X205199447Y-70844824D01*
X205215771Y-70835452D01*
X205237418Y-70822671D01*
X205263698Y-70806886D01*
X205293903Y-70788490D01*
X205327358Y-70767895D01*
X205363363Y-70745506D01*
X205541157Y-70636850D01*
X206272116Y-70636848D01*
X206692304Y-70637737D01*
X206824357Y-70639847D01*
X206916642Y-70643949D01*
X206978366Y-70650718D01*
X207000645Y-70655306D01*
X207018737Y-70660816D01*
X207033786Y-70667314D01*
X207046953Y-70674899D01*
X207072212Y-70693649D01*
X207082304Y-70702173D01*
X207091746Y-70711086D01*
X207100542Y-70720399D01*
X207108681Y-70730136D01*
X207116171Y-70740296D01*
X207123018Y-70750893D01*
X207129214Y-70761954D01*
X207134760Y-70773479D01*
X207139661Y-70785487D01*
X207143914Y-70797985D01*
X207147520Y-70810993D01*
X207150477Y-70824524D01*
X207152790Y-70838586D01*
X207154464Y-70853192D01*
X207155492Y-70868362D01*
X207155866Y-70884101D01*
X207155602Y-70900430D01*
X207154691Y-70917355D01*
X207153142Y-70934896D01*
X207150948Y-70953062D01*
X207148118Y-70971861D01*
X207144639Y-70991316D01*
X207135767Y-71032235D01*
X207124326Y-71075912D01*
X207110331Y-71122458D01*
X207093784Y-71171977D01*
X207074683Y-71224577D01*
X207056604Y-71271953D01*
X207037912Y-71318801D01*
X207019165Y-71363915D01*
X207000908Y-71406079D01*
X206983698Y-71444080D01*
X206968073Y-71476695D01*
X206954594Y-71502710D01*
X206943799Y-71520914D01*
X206926740Y-71548749D01*
X206895263Y-71602404D01*
X206796254Y-71774648D01*
X206661125Y-72012638D01*
X206504237Y-72291379D01*
X206111595Y-72995172D01*
X205800449Y-73316196D01*
X205491769Y-73637226D01*
X205442383Y-74743111D01*
X205434973Y-74908991D01*
X205404317Y-75551788D01*
X205369374Y-76143013D01*
X205329578Y-76688295D01*
X205284339Y-77193227D01*
X205233075Y-77663430D01*
X205175215Y-78104528D01*
X205110185Y-78522125D01*
X205037391Y-78921834D01*
X204802792Y-80144212D01*
X204753367Y-80387259D01*
X204685186Y-80693966D01*
X204607282Y-81025225D01*
X204528684Y-81341893D01*
X204343480Y-82058031D01*
X204150860Y-82379061D01*
X204070414Y-82513562D01*
X203994363Y-82643906D01*
X203931737Y-82754803D01*
X203908279Y-82798174D01*
X203891572Y-82830964D01*
X203876824Y-82858810D01*
X203862170Y-82884050D01*
X203847514Y-82906722D01*
X203832765Y-82926892D01*
X203825335Y-82936046D01*
X203817851Y-82944591D01*
X203810295Y-82952542D01*
X203802670Y-82959888D01*
X203794955Y-82966649D01*
X203787146Y-82972824D01*
X203779221Y-82978427D01*
X203771182Y-82983450D01*
X203763014Y-82987920D01*
X203754703Y-82991828D01*
X203746242Y-82995178D01*
X203737613Y-82997991D01*
X203728814Y-83000262D01*
X203719834Y-83001999D01*
X203710653Y-83003211D01*
X203701269Y-83003903D01*
X203691666Y-83004086D01*
X203681838Y-83003754D01*
X203671768Y-83002925D01*
X203661450Y-83001598D01*
X203650870Y-82999787D01*
X203640019Y-82997493D01*
X203617461Y-82991482D01*
X203603086Y-82986745D01*
X203590444Y-82982764D01*
X203579400Y-82979604D01*
X203569850Y-82977321D01*
X203565586Y-82976523D01*
X203561650Y-82975977D01*
X203558027Y-82975677D01*
X203554691Y-82975637D01*
X203551640Y-82975865D01*
X203548850Y-82976357D01*
X203546307Y-82977139D01*
X203543997Y-82978203D01*
X203541900Y-82979573D01*
X203540009Y-82981241D01*
X203538305Y-82983222D01*
X203536769Y-82985521D01*
X203535393Y-82988153D01*
X203534150Y-82991117D01*
X203533040Y-82994423D01*
X203532033Y-82998078D01*
X203530290Y-83006472D01*
X203528802Y-83016360D01*
X203527443Y-83027806D01*
X203526094Y-83040869D01*
X203525019Y-83051038D01*
X203523657Y-83060694D01*
X203522007Y-83069848D01*
X203520051Y-83078505D01*
X203517801Y-83086647D01*
X203515244Y-83094295D01*
X203512387Y-83101441D01*
X203509229Y-83108083D01*
X203505758Y-83114230D01*
X203501988Y-83119880D01*
X203497897Y-83125028D01*
X203493491Y-83129683D01*
X203488774Y-83133838D01*
X203483731Y-83137506D01*
X203478375Y-83140674D01*
X203472689Y-83143352D01*
X203466682Y-83145538D01*
X203462194Y-83146734D01*
X203460345Y-83147231D01*
X203453678Y-83148435D01*
X203446677Y-83149153D01*
X203439348Y-83149375D01*
X203431674Y-83149116D01*
X203423666Y-83148367D01*
X203415317Y-83147128D01*
X203406620Y-83145413D01*
X203397580Y-83143210D01*
X203388194Y-83140525D01*
X203378452Y-83137358D01*
X203368362Y-83133711D01*
X203357913Y-83129587D01*
X203347108Y-83124978D01*
X203335944Y-83119893D01*
X203314502Y-83110890D01*
X203293113Y-83102525D01*
X203272308Y-83094979D01*
X203252601Y-83088408D01*
X203251982Y-83088220D01*
X203234511Y-83082994D01*
X203218567Y-83078912D01*
X203211561Y-83077426D01*
X203205281Y-83076341D01*
X203199804Y-83075670D01*
X203195184Y-83075444D01*
X203193115Y-83075207D01*
X203190608Y-83074498D01*
X203187673Y-83073343D01*
X203184332Y-83071745D01*
X203176488Y-83067251D01*
X203167174Y-83061125D01*
X203156498Y-83053455D01*
X203144573Y-83044318D01*
X203131507Y-83033816D01*
X203117397Y-83022039D01*
X203102368Y-83009074D01*
X203086521Y-82995013D01*
X203069966Y-82979950D01*
X203052809Y-82963965D01*
X203035158Y-82947163D01*
X203017126Y-82929624D01*
X202998820Y-82911439D01*
X202980344Y-82892701D01*
X202951727Y-82863389D01*
X202925857Y-82836252D01*
X202902410Y-82810789D01*
X202881063Y-82786516D01*
X202861502Y-82762937D01*
X202843391Y-82739559D01*
X202826421Y-82715889D01*
X202810261Y-82691440D01*
X202794596Y-82665720D01*
X202779100Y-82638236D01*
X202763452Y-82608489D01*
X202747331Y-82575995D01*
X202730413Y-82540259D01*
X202712371Y-82500794D01*
X202671664Y-82408692D01*
X202612360Y-82267548D01*
X202547265Y-82105569D01*
X202484488Y-81942661D01*
X202456503Y-81867081D01*
X202432128Y-81798741D01*
X202376874Y-81640542D01*
X202303102Y-81438814D01*
X202220990Y-81219498D01*
X202140734Y-81008519D01*
X201957991Y-80526975D01*
X201903669Y-80045435D01*
X201886292Y-79905238D01*
X201863267Y-79746631D01*
X201833820Y-79565336D01*
X201797170Y-79357075D01*
X201752533Y-79117560D01*
X201699131Y-78842509D01*
X201562883Y-78168658D01*
X201278902Y-76773416D01*
X201157897Y-75575740D01*
X201152956Y-75524693D01*
X201096275Y-74938931D01*
X201059421Y-74498446D01*
X201048479Y-74323753D01*
X201041562Y-74164451D01*
X201037943Y-74009321D01*
X201036892Y-73847129D01*
X201036891Y-73318663D01*
X200817113Y-72735879D01*
X200599795Y-72155558D01*
X200493615Y-71335704D01*
X200453329Y-71015254D01*
X200423239Y-70750133D01*
X200415142Y-70664015D01*
X200543002Y-70664015D01*
X200544791Y-70689333D01*
X200549908Y-70739256D01*
X200568626Y-70901076D01*
X200596136Y-71125874D01*
X200629434Y-71390029D01*
X200665708Y-71649950D01*
X200706641Y-71907145D01*
X200750408Y-72152886D01*
X200795196Y-72378425D01*
X200839171Y-72575025D01*
X200880509Y-72733946D01*
X200917389Y-72846456D01*
X200933588Y-72882565D01*
X200947988Y-72903799D01*
X200952086Y-72907495D01*
X200956937Y-72911174D01*
X200962477Y-72914796D01*
X200968640Y-72918346D01*
X200975361Y-72921792D01*
X200982589Y-72925114D01*
X200990259Y-72928283D01*
X200998305Y-72931270D01*
X201006672Y-72934058D01*
X201015300Y-72936621D01*
X201024118Y-72938929D01*
X201033073Y-72940955D01*
X201042098Y-72942681D01*
X201051136Y-72944081D01*
X201060123Y-72945120D01*
X201068998Y-72945783D01*
X201152954Y-72953190D01*
X201217159Y-72716123D01*
X201236834Y-72637289D01*
X201244882Y-72601507D01*
X201251850Y-72566528D01*
X201257818Y-72531128D01*
X201262875Y-72494085D01*
X201267094Y-72454189D01*
X201270561Y-72410221D01*
X201273372Y-72360950D01*
X201275596Y-72305170D01*
X201277318Y-72241649D01*
X201278630Y-72169177D01*
X201280330Y-71992503D01*
X201281365Y-71765388D01*
X201283836Y-71054187D01*
X201106034Y-70864036D01*
X201034421Y-70789262D01*
X200972070Y-70725135D01*
X200925455Y-70678599D01*
X200910085Y-70664104D01*
X200901074Y-70656606D01*
X200897904Y-70655133D01*
X200893101Y-70653506D01*
X200886765Y-70651735D01*
X200879004Y-70649857D01*
X200859575Y-70645795D01*
X200835631Y-70641479D01*
X200807987Y-70637047D01*
X200777444Y-70632646D01*
X200744823Y-70628414D01*
X200710922Y-70624506D01*
X200656207Y-70618907D01*
X200614890Y-70615400D01*
X200598660Y-70614566D01*
X200585086Y-70614432D01*
X200573914Y-70615047D01*
X200564920Y-70616478D01*
X200561163Y-70617513D01*
X200557864Y-70618774D01*
X200554984Y-70620265D01*
X200552511Y-70621992D01*
X200550400Y-70623971D01*
X200548625Y-70626201D01*
X200547159Y-70628694D01*
X200545974Y-70631446D01*
X200544321Y-70637795D01*
X200543432Y-70645301D01*
X200543002Y-70664015D01*
X200415142Y-70664015D01*
X200406104Y-70567898D01*
X200403272Y-70516472D01*
X200403431Y-70502189D01*
X200404714Y-70496091D01*
X200405944Y-70494934D01*
X200407763Y-70493779D01*
X200413102Y-70491481D01*
X200420606Y-70489211D01*
X200430143Y-70486985D01*
X200441574Y-70484820D01*
X200454762Y-70482724D01*
X200469585Y-70480713D01*
X200485895Y-70478803D01*
X200522473Y-70475351D01*
X200563415Y-70472476D01*
X200607657Y-70470298D01*
X200654126Y-70468927D01*
X200883785Y-70459052D01*
X201071464Y-70584992D01*
X201108825Y-70610254D01*
X201144393Y-70633843D01*
X201206666Y-70673890D01*
X201231640Y-70689319D01*
X201251348Y-70700978D01*
X201264919Y-70708361D01*
X201269131Y-70710277D01*
X201271487Y-70710932D01*
X201272176Y-70710681D01*
X201272853Y-70709939D01*
X201273502Y-70708712D01*
X201274145Y-70707012D01*
X201275379Y-70702257D01*
X201276542Y-70695771D01*
X201277636Y-70687647D01*
X201278653Y-70677988D01*
X201279590Y-70666886D01*
X201280439Y-70654443D01*
X201281884Y-70625925D01*
X201282951Y-70593213D01*
X201283614Y-70557080D01*
X201283835Y-70518318D01*
X201284397Y-70487169D01*
X201286240Y-70454103D01*
X201289598Y-70418013D01*
X201294717Y-70377791D01*
X201301829Y-70332332D01*
X201311184Y-70280526D01*
X201323007Y-70221271D01*
X201337550Y-70153453D01*
X201375717Y-69987722D01*
X201427603Y-69774477D01*
X201495118Y-69504853D01*
X201580167Y-69169999D01*
X201789458Y-68342431D01*
X201853121Y-68083406D01*
X201876505Y-67979726D01*
X201875166Y-67972609D01*
X201871234Y-67958905D01*
X201856132Y-67913167D01*
X201832226Y-67845380D01*
X201800570Y-67758404D01*
X201718151Y-67538355D01*
X201617212Y-67275932D01*
X201516273Y-67012556D01*
X201433859Y-66793157D01*
X201378295Y-66640442D01*
X201363188Y-66596172D01*
X201357917Y-66577085D01*
X201358743Y-66571189D01*
X201361160Y-66564201D01*
X201362427Y-66561603D01*
X201618870Y-66561603D01*
X201619662Y-66579369D01*
X201622052Y-66599027D01*
X201626031Y-66620713D01*
X201631572Y-66644552D01*
X201638673Y-66670668D01*
X201647317Y-66699198D01*
X201657498Y-66730267D01*
X201682392Y-66800545D01*
X201713269Y-66882535D01*
X201792545Y-67085791D01*
X201868322Y-67275742D01*
X201932070Y-67431204D01*
X201977288Y-67536195D01*
X201990929Y-67564770D01*
X201995155Y-67572206D01*
X201997505Y-67574742D01*
X202003285Y-67564047D01*
X202015400Y-67533768D01*
X202054999Y-67425221D01*
X202170364Y-67091657D01*
X202285737Y-66746508D01*
X202325336Y-66623498D01*
X202343231Y-66562266D01*
X202343061Y-66561477D01*
X202342574Y-66560478D01*
X202341766Y-66559301D01*
X202340650Y-66557926D01*
X202337533Y-66554645D01*
X202333276Y-66550693D01*
X202327946Y-66546101D01*
X202321607Y-66540909D01*
X202314335Y-66535173D01*
X202306183Y-66528932D01*
X202287521Y-66515099D01*
X202266138Y-66499755D01*
X202242550Y-66483264D01*
X202217286Y-66465956D01*
X202088874Y-66382000D01*
X201861689Y-66423977D01*
X201806976Y-66434397D01*
X201759456Y-66444112D01*
X201738360Y-66449025D01*
X201719025Y-66454155D01*
X201701437Y-66459630D01*
X201685589Y-66465574D01*
X201671455Y-66472117D01*
X201659031Y-66479390D01*
X201648303Y-66487523D01*
X201639266Y-66496644D01*
X201631894Y-66506883D01*
X201626180Y-66518364D01*
X201622115Y-66531231D01*
X201619682Y-66545597D01*
X201618870Y-66561603D01*
X201362427Y-66561603D01*
X201365059Y-66556204D01*
X201370374Y-66547282D01*
X201384841Y-66526987D01*
X201403836Y-66503967D01*
X201426620Y-66478876D01*
X201452462Y-66452370D01*
X201480635Y-66425112D01*
X201510413Y-66397742D01*
X201541046Y-66370925D01*
X201571824Y-66345311D01*
X201602011Y-66321557D01*
X201630873Y-66300318D01*
X201657679Y-66282240D01*
X201681696Y-66267989D01*
X201692437Y-66262507D01*
X201702203Y-66258224D01*
X201710908Y-66255220D01*
X201718458Y-66253587D01*
X201808306Y-66243674D01*
X201848810Y-66240367D01*
X201886730Y-66238188D01*
X201922349Y-66237197D01*
X201955946Y-66237397D01*
X201987803Y-66238835D01*
X202018189Y-66241548D01*
X202047389Y-66245560D01*
X202075684Y-66250912D01*
X202103350Y-66257625D01*
X202130666Y-66265743D01*
X202157905Y-66275290D01*
X202185352Y-66286301D01*
X202213287Y-66298815D01*
X202241981Y-66312852D01*
X202280694Y-66332091D01*
X202297879Y-66340179D01*
X202313670Y-66347271D01*
X202328101Y-66353378D01*
X202341212Y-66358518D01*
X202353030Y-66362704D01*
X202363601Y-66365945D01*
X202372954Y-66368268D01*
X202381126Y-66369671D01*
X202388162Y-66370178D01*
X202394088Y-66369804D01*
X202398938Y-66368563D01*
X202402758Y-66366469D01*
X202404291Y-66365107D01*
X202405575Y-66363532D01*
X202407434Y-66359773D01*
X202440811Y-66264666D01*
X202455748Y-66217888D01*
X202469788Y-66170282D01*
X202483132Y-66120836D01*
X202495988Y-66068548D01*
X202508549Y-66012404D01*
X202521029Y-65951389D01*
X202533619Y-65884498D01*
X202546529Y-65810730D01*
X202574121Y-65638503D01*
X202605415Y-65426630D01*
X202642030Y-65167033D01*
X202760565Y-64305196D01*
X202350638Y-63606343D01*
X202236197Y-63413132D01*
X202133365Y-63243255D01*
X202038923Y-63091784D01*
X201949661Y-62953792D01*
X201862367Y-62824365D01*
X201773830Y-62698597D01*
X201680834Y-62571538D01*
X201580169Y-62438295D01*
X201222097Y-61971569D01*
X201054177Y-61524601D01*
X200886257Y-61080102D01*
X200897607Y-61026192D01*
X201069067Y-61026192D01*
X201069495Y-61046842D01*
X201070205Y-61057397D01*
X201071273Y-61068213D01*
X201072726Y-61079390D01*
X201074584Y-61091014D01*
X201079627Y-61115941D01*
X201086590Y-61143694D01*
X201095665Y-61174977D01*
X201107044Y-61210487D01*
X201120922Y-61250940D01*
X201137485Y-61297029D01*
X201156927Y-61349453D01*
X201179438Y-61408914D01*
X201234449Y-61551766D01*
X201412246Y-62006145D01*
X201740685Y-62364213D01*
X201849966Y-62482990D01*
X201895639Y-62533554D01*
X201936620Y-62580096D01*
X201973864Y-62624015D01*
X202008341Y-62666724D01*
X202041007Y-62709605D01*
X202072823Y-62754075D01*
X202104758Y-62801522D01*
X202137775Y-62853350D01*
X202172826Y-62910954D01*
X202210882Y-62975742D01*
X202299849Y-63132462D01*
X202412369Y-63334701D01*
X202753159Y-63944656D01*
X202767971Y-63828597D01*
X202773247Y-63800025D01*
X202782259Y-63765934D01*
X202794528Y-63727337D01*
X202809566Y-63685254D01*
X202826894Y-63640687D01*
X202846022Y-63594664D01*
X202887741Y-63502319D01*
X202930851Y-63416332D01*
X202951713Y-63378270D01*
X202971471Y-63344854D01*
X202989634Y-63317089D01*
X203005722Y-63296000D01*
X203019254Y-63282598D01*
X203024904Y-63279100D01*
X203029733Y-63277907D01*
X203033629Y-63278251D01*
X203038765Y-63279253D01*
X203045074Y-63280892D01*
X203052458Y-63283114D01*
X203060850Y-63285913D01*
X203070144Y-63289236D01*
X203091161Y-63297358D01*
X203114837Y-63307207D01*
X203140513Y-63318538D01*
X203167517Y-63331080D01*
X203195186Y-63344580D01*
X203328537Y-63408791D01*
X203540906Y-63233456D01*
X203583104Y-63197455D01*
X203623830Y-63164004D01*
X203662058Y-63133795D01*
X203696796Y-63107515D01*
X203727009Y-63085869D01*
X203751699Y-63069548D01*
X203761655Y-63063600D01*
X203769848Y-63059245D01*
X203776154Y-63056571D01*
X203780443Y-63055651D01*
X203784837Y-63056153D01*
X203790535Y-63057604D01*
X203805473Y-63063126D01*
X203824515Y-63071775D01*
X203846888Y-63083056D01*
X203898604Y-63111654D01*
X203954544Y-63145172D01*
X204008626Y-63179851D01*
X204033075Y-63196453D01*
X204054785Y-63211926D01*
X204072990Y-63225812D01*
X204086934Y-63237636D01*
X204095858Y-63246921D01*
X204098203Y-63250473D01*
X204099004Y-63253213D01*
X204098786Y-63254429D01*
X204098145Y-63255757D01*
X204097100Y-63257191D01*
X204095644Y-63258728D01*
X204093795Y-63260371D01*
X204091564Y-63262108D01*
X204085996Y-63265869D01*
X204079029Y-63269972D01*
X204070745Y-63274397D01*
X204061221Y-63279108D01*
X204050541Y-63284080D01*
X204038790Y-63289285D01*
X204026051Y-63294691D01*
X204012413Y-63300272D01*
X203997952Y-63305995D01*
X203982749Y-63311838D01*
X203966891Y-63317764D01*
X203933547Y-63329767D01*
X203912600Y-63336651D01*
X203891428Y-63344338D01*
X203870035Y-63352808D01*
X203848429Y-63362056D01*
X203826629Y-63372076D01*
X203804627Y-63382854D01*
X203782442Y-63394373D01*
X203760073Y-63406626D01*
X203737527Y-63419603D01*
X203714823Y-63433295D01*
X203691954Y-63447686D01*
X203668933Y-63462767D01*
X203645766Y-63478529D01*
X203622468Y-63494962D01*
X203575479Y-63529791D01*
X203536977Y-63558634D01*
X203499851Y-63585508D01*
X203465051Y-63609834D01*
X203433488Y-63631038D01*
X203406093Y-63648537D01*
X203383789Y-63661748D01*
X203374840Y-63666571D01*
X203367510Y-63670105D01*
X203361910Y-63672278D01*
X203358167Y-63673021D01*
X203356646Y-63672927D01*
X203354854Y-63672651D01*
X203350515Y-63671557D01*
X203345229Y-63669782D01*
X203339068Y-63667346D01*
X203332116Y-63664285D01*
X203324441Y-63660647D01*
X203316124Y-63656443D01*
X203307234Y-63651717D01*
X203297860Y-63646501D01*
X203288067Y-63640823D01*
X203277931Y-63634720D01*
X203267536Y-63628221D01*
X203256947Y-63621361D01*
X203246247Y-63614164D01*
X203235517Y-63606685D01*
X203224824Y-63598934D01*
X203118635Y-63527319D01*
X203029733Y-63853284D01*
X203002648Y-63956943D01*
X202990753Y-64006435D01*
X202979727Y-64056051D01*
X202969400Y-64107038D01*
X202959585Y-64160656D01*
X202950126Y-64218167D01*
X202940832Y-64280806D01*
X202922080Y-64426540D01*
X202901941Y-64607897D01*
X202879022Y-64834911D01*
X202851932Y-65117643D01*
X202763035Y-66056034D01*
X202437066Y-67016641D01*
X202265367Y-67519097D01*
X202205005Y-67689558D01*
X202158017Y-67815511D01*
X202121683Y-67903957D01*
X202093275Y-67961903D01*
X202081194Y-67981624D01*
X202070076Y-67996352D01*
X202059583Y-68006947D01*
X202049367Y-68014303D01*
X202043946Y-68017608D01*
X202038767Y-68021183D01*
X202033781Y-68025248D01*
X202031346Y-68027524D01*
X202028942Y-68030005D01*
X202026563Y-68032714D01*
X202024201Y-68035676D01*
X202021849Y-68038919D01*
X202019512Y-68042473D01*
X202017167Y-68046361D01*
X202014821Y-68050607D01*
X202012464Y-68055246D01*
X202010085Y-68060295D01*
X202005254Y-68071747D01*
X202000283Y-68085175D01*
X201997506Y-68093581D01*
X201995122Y-68100798D01*
X201989724Y-68118830D01*
X201984036Y-68139477D01*
X201978020Y-68162955D01*
X201971619Y-68189477D01*
X201964784Y-68219269D01*
X201957478Y-68252520D01*
X201949644Y-68289468D01*
X201941240Y-68330303D01*
X201932210Y-68375266D01*
X201922514Y-68424544D01*
X201912100Y-68478367D01*
X201888926Y-68600484D01*
X201862310Y-68743323D01*
X201831867Y-68908585D01*
X201757973Y-69313224D01*
X201530779Y-70575115D01*
X201530781Y-72518565D01*
X201402367Y-72955652D01*
X201276430Y-73390277D01*
X201318415Y-74353361D01*
X201346503Y-75128458D01*
X201354871Y-75439262D01*
X201357920Y-75642414D01*
X201358818Y-75737278D01*
X201361852Y-75828584D01*
X201367560Y-75920875D01*
X201376444Y-76018693D01*
X201389032Y-76126584D01*
X201405843Y-76249090D01*
X201427402Y-76390749D01*
X201454229Y-76556107D01*
X201549303Y-77169767D01*
X201600076Y-77511090D01*
X201644377Y-77820464D01*
X201693224Y-78170275D01*
X201711136Y-78286233D01*
X201725869Y-78368680D01*
X201738285Y-78421956D01*
X201743891Y-78439009D01*
X201749250Y-78450405D01*
X201754462Y-78456674D01*
X201759637Y-78458360D01*
X201764887Y-78456011D01*
X201770320Y-78450173D01*
X201774345Y-78444696D01*
X201778093Y-78439269D01*
X201781550Y-78433734D01*
X201784717Y-78427924D01*
X201787575Y-78421661D01*
X201790129Y-78414800D01*
X201792365Y-78407159D01*
X201794278Y-78398587D01*
X201795860Y-78388903D01*
X201797115Y-78377955D01*
X201798018Y-78365574D01*
X201798577Y-78351594D01*
X201798779Y-78335850D01*
X201798616Y-78318179D01*
X201798079Y-78298412D01*
X201797174Y-78276383D01*
X201795882Y-78251936D01*
X201794199Y-78224902D01*
X201792116Y-78195110D01*
X201789638Y-78162403D01*
X201783428Y-78087566D01*
X201775528Y-77999073D01*
X201765874Y-77895607D01*
X201754415Y-77775843D01*
X201725869Y-77482147D01*
X201675861Y-76916032D01*
X201661969Y-76728584D01*
X201659019Y-76671121D01*
X201659195Y-76642537D01*
X201659827Y-76639232D01*
X201660810Y-76637173D01*
X201662132Y-76636355D01*
X201663787Y-76636760D01*
X201665774Y-76638389D01*
X201668090Y-76641229D01*
X201673701Y-76650490D01*
X201680579Y-76664467D01*
X201688712Y-76683085D01*
X201698054Y-76706257D01*
X201708579Y-76733910D01*
X201720269Y-76765964D01*
X201733082Y-76802331D01*
X201761984Y-76887709D01*
X201795053Y-76989408D01*
X201832054Y-77106788D01*
X201884225Y-77275922D01*
X201925774Y-77417097D01*
X201959279Y-77542176D01*
X201987322Y-77663036D01*
X202012461Y-77791534D01*
X202037288Y-77939535D01*
X202064369Y-78118913D01*
X202096285Y-78341518D01*
X202136066Y-78618558D01*
X202168209Y-78852076D01*
X202189697Y-79017991D01*
X202197531Y-79092228D01*
X202197494Y-79095824D01*
X202197366Y-79099212D01*
X202197143Y-79102382D01*
X202196809Y-79105353D01*
X202196343Y-79108121D01*
X202195740Y-79110695D01*
X202194981Y-79113074D01*
X202194062Y-79115261D01*
X202192953Y-79117271D01*
X202191651Y-79119095D01*
X202190144Y-79120747D01*
X202188416Y-79122221D01*
X202186446Y-79123533D01*
X202184240Y-79124680D01*
X202181765Y-79125661D01*
X202179010Y-79126492D01*
X202175973Y-79127166D01*
X202172623Y-79127696D01*
X202168963Y-79128083D01*
X202164976Y-79128328D01*
X202160640Y-79128437D01*
X202155948Y-79128417D01*
X202150889Y-79128269D01*
X202145440Y-79127996D01*
X202139594Y-79127607D01*
X202133338Y-79127097D01*
X202119541Y-79125751D01*
X202103934Y-79124000D01*
X202086406Y-79121862D01*
X202063903Y-79118628D01*
X202042996Y-79116346D01*
X202024116Y-79115045D01*
X202015567Y-79114777D01*
X202007691Y-79114761D01*
X202000539Y-79115009D01*
X201994162Y-79115518D01*
X201988619Y-79116298D01*
X201983964Y-79117346D01*
X201980243Y-79118669D01*
X201977523Y-79120276D01*
X201976554Y-79121182D01*
X201975855Y-79122155D01*
X201975428Y-79123206D01*
X201975282Y-79124327D01*
X201976290Y-79133837D01*
X201979178Y-79154077D01*
X201989789Y-79221570D01*
X202005496Y-79316371D01*
X202024669Y-79428073D01*
X202036013Y-79500208D01*
X202045928Y-79574079D01*
X202054402Y-79649799D01*
X202061402Y-79727491D01*
X202066895Y-79807267D01*
X202070858Y-79889242D01*
X202073255Y-79973531D01*
X202074060Y-80060249D01*
X202074507Y-80130155D01*
X202075798Y-80196261D01*
X202077839Y-80257106D01*
X202080542Y-80311213D01*
X202083825Y-80357091D01*
X202087603Y-80393276D01*
X202091785Y-80418295D01*
X202093995Y-80426156D01*
X202096284Y-80430668D01*
X202099822Y-80436798D01*
X202105710Y-80450288D01*
X202123991Y-80497806D01*
X202150025Y-80570093D01*
X202182714Y-80664032D01*
X202263669Y-80904335D01*
X202358043Y-81193726D01*
X202462380Y-81509542D01*
X202570419Y-81821885D01*
X202669193Y-82094881D01*
X202745747Y-82292626D01*
X202792750Y-82403850D01*
X202831910Y-82492499D01*
X202849424Y-82529841D01*
X202866034Y-82563322D01*
X202882083Y-82593531D01*
X202897929Y-82621064D01*
X202913917Y-82646513D01*
X202930400Y-82670474D01*
X202947732Y-82693531D01*
X202966264Y-82716288D01*
X202986337Y-82739337D01*
X203008316Y-82763269D01*
X203059366Y-82816148D01*
X203092464Y-82850308D01*
X203124543Y-82881974D01*
X203154825Y-82910523D01*
X203182530Y-82935299D01*
X203206880Y-82955684D01*
X203217555Y-82964027D01*
X203227099Y-82971035D01*
X203235405Y-82976618D01*
X203242386Y-82980704D01*
X203247951Y-82983222D01*
X203251987Y-82984071D01*
X203253668Y-82983929D01*
X203255475Y-82983503D01*
X203257404Y-82982802D01*
X203259448Y-82981836D01*
X203261596Y-82980603D01*
X203263841Y-82979123D01*
X203266180Y-82977392D01*
X203268614Y-82975428D01*
X203271129Y-82973232D01*
X203273719Y-82970806D01*
X203279113Y-82965321D01*
X203284745Y-82959023D01*
X203290571Y-82951974D01*
X203296542Y-82944222D01*
X203302601Y-82935841D01*
X203308722Y-82926880D01*
X203314838Y-82917397D01*
X203320912Y-82907451D01*
X203326901Y-82897099D01*
X203332749Y-82886405D01*
X203338411Y-82875413D01*
X203355445Y-82839237D01*
X203362165Y-82823985D01*
X203367699Y-82810094D01*
X203372067Y-82797171D01*
X203373813Y-82790951D01*
X203375274Y-82784822D01*
X203376436Y-82778743D01*
X203377322Y-82772661D01*
X203377921Y-82766518D01*
X203378230Y-82760280D01*
X203378268Y-82753887D01*
X203378018Y-82747292D01*
X203377493Y-82740445D01*
X203376685Y-82733303D01*
X203374248Y-82717921D01*
X203370708Y-82700742D01*
X203366090Y-82681380D01*
X203360391Y-82659444D01*
X203345823Y-82606250D01*
X203330512Y-82556583D01*
X203323569Y-82535778D01*
X203316843Y-82517304D01*
X203310135Y-82500907D01*
X203303238Y-82486309D01*
X203295958Y-82473251D01*
X203288101Y-82461474D01*
X203279457Y-82450710D01*
X203269839Y-82440692D01*
X203259033Y-82431159D01*
X203246854Y-82421849D01*
X203233098Y-82412493D01*
X203217563Y-82402833D01*
X203200056Y-82392596D01*
X203180364Y-82381529D01*
X203158427Y-82368875D01*
X203138886Y-82356799D01*
X203121710Y-82345255D01*
X203106865Y-82334180D01*
X203100306Y-82328810D01*
X203094326Y-82323532D01*
X203088905Y-82318348D01*
X203084047Y-82313248D01*
X203079750Y-82308228D01*
X203076009Y-82303272D01*
X203072817Y-82298381D01*
X203070167Y-82293550D01*
X203068071Y-82288772D01*
X203066507Y-82284036D01*
X203065473Y-82279340D01*
X203064976Y-82274673D01*
X203065003Y-82270023D01*
X203065553Y-82265400D01*
X203066623Y-82260779D01*
X203068207Y-82256165D01*
X203070293Y-82251549D01*
X203072892Y-82246918D01*
X203075991Y-82242270D01*
X203079589Y-82237600D01*
X203083684Y-82232897D01*
X203088261Y-82228159D01*
X203098878Y-82218545D01*
X203102550Y-82215251D01*
X203106142Y-82211865D01*
X203109630Y-82208411D01*
X203112998Y-82204921D01*
X203116223Y-82201420D01*
X203119279Y-82197925D01*
X203122149Y-82194467D01*
X203124807Y-82191072D01*
X203127235Y-82187761D01*
X203129409Y-82184563D01*
X203131311Y-82181502D01*
X203132911Y-82178612D01*
X203134194Y-82175901D01*
X203135138Y-82173403D01*
X203135717Y-82171150D01*
X203135870Y-82170115D01*
X203135923Y-82169157D01*
X203135265Y-82165534D01*
X203133345Y-82159382D01*
X203125965Y-82140062D01*
X203114300Y-82112291D01*
X203098875Y-82077169D01*
X203080215Y-82035794D01*
X203058827Y-81989269D01*
X203009979Y-81885169D01*
X202970554Y-81803753D01*
X202940447Y-81738546D01*
X202928545Y-81710862D01*
X202918563Y-81685837D01*
X202910353Y-81663014D01*
X202903786Y-81641924D01*
X202898735Y-81622116D01*
X202895043Y-81603114D01*
X202892586Y-81584451D01*
X202891214Y-81565682D01*
X202890801Y-81546335D01*
X202891209Y-81525943D01*
X202891725Y-81517217D01*
X202967068Y-81517217D01*
X202968147Y-81541419D01*
X202970327Y-81565576D01*
X202973610Y-81589632D01*
X202977996Y-81613517D01*
X202983486Y-81637175D01*
X202990076Y-81660524D01*
X202997759Y-81683507D01*
X203006542Y-81706053D01*
X203016429Y-81728109D01*
X203027401Y-81749594D01*
X203039469Y-81770448D01*
X203052629Y-81790608D01*
X203066880Y-81810002D01*
X203082220Y-81828568D01*
X203098649Y-81846239D01*
X203116164Y-81862944D01*
X203134578Y-81879081D01*
X203153659Y-81894141D01*
X203173360Y-81908137D01*
X203193627Y-81921074D01*
X203214411Y-81932940D01*
X203235662Y-81943747D01*
X203257323Y-81953499D01*
X203279340Y-81962184D01*
X203301666Y-81969814D01*
X203324247Y-81976400D01*
X203347034Y-81981925D01*
X203369973Y-81986398D01*
X203393005Y-81989821D01*
X203416093Y-81992201D01*
X203439170Y-81993535D01*
X203462198Y-81993827D01*
X203485108Y-81993069D01*
X203507866Y-81991279D01*
X203530400Y-81988454D01*
X203552681Y-81984580D01*
X203574641Y-81979682D01*
X203596235Y-81973748D01*
X203617406Y-81966779D01*
X203638107Y-81958786D01*
X203658277Y-81949768D01*
X203677877Y-81939722D01*
X203696846Y-81928650D01*
X203715134Y-81916557D01*
X203732690Y-81903447D01*
X203749460Y-81889312D01*
X203765397Y-81874170D01*
X203780448Y-81858006D01*
X203792641Y-81843335D01*
X203804227Y-81828044D01*
X203825542Y-81795777D01*
X203844353Y-81761496D01*
X203860628Y-81725504D01*
X203874322Y-81688086D01*
X203885402Y-81649560D01*
X203893841Y-81610201D01*
X203899593Y-81570317D01*
X203902628Y-81530196D01*
X203902901Y-81490141D01*
X203900390Y-81450453D01*
X203895043Y-81411423D01*
X203886833Y-81373343D01*
X203875721Y-81336522D01*
X203869068Y-81318664D01*
X203861673Y-81301239D01*
X203853534Y-81284276D01*
X203844651Y-81267807D01*
X203831205Y-81245916D01*
X203816387Y-81225163D01*
X203800271Y-81205561D01*
X203782936Y-81187107D01*
X203764442Y-81169831D01*
X203744878Y-81153726D01*
X203724306Y-81138808D01*
X203702810Y-81125082D01*
X203680461Y-81112563D01*
X203657336Y-81101253D01*
X203633495Y-81091175D01*
X203609033Y-81082322D01*
X203584011Y-81074720D01*
X203558500Y-81068361D01*
X203532587Y-81063268D01*
X203506336Y-81059451D01*
X203479827Y-81056909D01*
X203453131Y-81055657D01*
X203426323Y-81055707D01*
X203399477Y-81057058D01*
X203372665Y-81059737D01*
X203345964Y-81063738D01*
X203319451Y-81069079D01*
X203293193Y-81075769D01*
X203267269Y-81083817D01*
X203241753Y-81093225D01*
X203216717Y-81104010D01*
X203192233Y-81116184D01*
X203168385Y-81129746D01*
X203145234Y-81144720D01*
X203122863Y-81161099D01*
X203101351Y-81178907D01*
X203084547Y-81194721D01*
X203068876Y-81211547D01*
X203054329Y-81229331D01*
X203040909Y-81248005D01*
X203028613Y-81267497D01*
X203017433Y-81287740D01*
X203007375Y-81308674D01*
X202998445Y-81330241D01*
X202990622Y-81352353D01*
X202983914Y-81374962D01*
X202978331Y-81397994D01*
X202973859Y-81421387D01*
X202970496Y-81445070D01*
X202968244Y-81468986D01*
X202967103Y-81493056D01*
X202967068Y-81517217D01*
X202891725Y-81517217D01*
X202893915Y-81480179D01*
X202897066Y-81447716D01*
X202901892Y-81416068D01*
X202908382Y-81385251D01*
X202916527Y-81355280D01*
X202926320Y-81326164D01*
X202937757Y-81297910D01*
X202950827Y-81270534D01*
X202965528Y-81244040D01*
X202981848Y-81218446D01*
X202999782Y-81193762D01*
X203019322Y-81169988D01*
X203040463Y-81147153D01*
X203063191Y-81125256D01*
X203087503Y-81104309D01*
X203113397Y-81084326D01*
X203140857Y-81065314D01*
X203157771Y-81053953D01*
X203173598Y-81043898D01*
X203188760Y-81035058D01*
X203203675Y-81027347D01*
X203211169Y-81023886D01*
X203218766Y-81020674D01*
X203226508Y-81017704D01*
X203234446Y-81014959D01*
X203242641Y-81012436D01*
X203251141Y-81010114D01*
X203260003Y-81007989D01*
X203269271Y-81006047D01*
X203289248Y-81002681D01*
X203311502Y-80999916D01*
X203336443Y-80997667D01*
X203364499Y-80995862D01*
X203396084Y-80994400D01*
X203431616Y-80993198D01*
X203516212Y-80991231D01*
X203574927Y-80989635D01*
X203636829Y-80986833D01*
X203700006Y-80982984D01*
X203762541Y-80978262D01*
X203822535Y-80972852D01*
X203878066Y-80966921D01*
X203927232Y-80960641D01*
X203968122Y-80954187D01*
X204148390Y-80922086D01*
X203968123Y-80610938D01*
X203790320Y-80299786D01*
X203489049Y-80193602D01*
X203427785Y-80172387D01*
X203370748Y-80151694D01*
X203319147Y-80132047D01*
X203274209Y-80113959D01*
X203237139Y-80097954D01*
X203209154Y-80084561D01*
X203198949Y-80078998D01*
X203191472Y-80074287D01*
X203186875Y-80070482D01*
X203185308Y-80067660D01*
X203185639Y-80066509D01*
X203186620Y-80065373D01*
X203188234Y-80064257D01*
X203190463Y-80063161D01*
X203196716Y-80061026D01*
X203205260Y-80058973D01*
X203215951Y-80057036D01*
X203228670Y-80055201D01*
X203243299Y-80053490D01*
X203259703Y-80051917D01*
X203277752Y-80050487D01*
X203297327Y-80049207D01*
X203318295Y-80048104D01*
X203340536Y-80047168D01*
X203388320Y-80045881D01*
X203413608Y-80045547D01*
X203439659Y-80045433D01*
X203691545Y-80045432D01*
X203824895Y-79857757D01*
X203955774Y-79672548D01*
X203901446Y-79383623D01*
X203844651Y-79094693D01*
X203331007Y-78936656D01*
X203130555Y-78872795D01*
X202966453Y-78818431D01*
X202855600Y-78779341D01*
X202825418Y-78767335D01*
X202817567Y-78763535D01*
X202814895Y-78761323D01*
X202815474Y-78760358D01*
X202817196Y-78759331D01*
X202823964Y-78757070D01*
X202834963Y-78754575D01*
X202849965Y-78751865D01*
X202891073Y-78745915D01*
X202945465Y-78739406D01*
X203011312Y-78732552D01*
X203086799Y-78725555D01*
X203170102Y-78718617D01*
X203259396Y-78711933D01*
X203703892Y-78679833D01*
X203703893Y-78504502D01*
X203699108Y-78318672D01*
X203685990Y-77942085D01*
X203642155Y-76835155D01*
X203594852Y-75671972D01*
X203585982Y-75328281D01*
X203589682Y-75095431D01*
X203596875Y-75009375D01*
X203607958Y-74937591D01*
X203623200Y-74875605D01*
X203642852Y-74818932D01*
X203696380Y-74703629D01*
X203770567Y-74555858D01*
X203960717Y-74165685D01*
X203894039Y-73284095D01*
X203845885Y-72639571D01*
X203831529Y-72426347D01*
X203827367Y-72328422D01*
X203828647Y-72317961D01*
X203832432Y-72302509D01*
X203838596Y-72282324D01*
X203847042Y-72257695D01*
X203870339Y-72196152D01*
X203901450Y-72120064D01*
X203939504Y-72031580D01*
X203983639Y-71932886D01*
X204032976Y-71826142D01*
X204086653Y-71713529D01*
X204187593Y-71500496D01*
X204270016Y-71318720D01*
X204301668Y-71245562D01*
X204325575Y-71187422D01*
X204338355Y-71152960D01*
X205227538Y-71152960D01*
X205333727Y-72254333D01*
X205442381Y-73355712D01*
X205694263Y-73101353D01*
X205735142Y-73059681D01*
X205773087Y-73020060D01*
X205808888Y-72981417D01*
X205843319Y-72942695D01*
X205877153Y-72902812D01*
X205911173Y-72860701D01*
X205946158Y-72815291D01*
X205982879Y-72765509D01*
X206022125Y-72710293D01*
X206064651Y-72648563D01*
X206111265Y-72579249D01*
X206162730Y-72501281D01*
X206283308Y-72315108D01*
X206432625Y-72081474D01*
X206601223Y-71815739D01*
X206736798Y-71596072D01*
X206842448Y-71416464D01*
X206921268Y-71270883D01*
X206951588Y-71208974D01*
X206976362Y-71153312D01*
X206995981Y-71103154D01*
X207010827Y-71057737D01*
X207021285Y-71016315D01*
X207027747Y-70978138D01*
X207030602Y-70942445D01*
X207030234Y-70908487D01*
X207025295Y-70822059D01*
X206296809Y-70814653D01*
X205568325Y-70809716D01*
X205397932Y-70980105D01*
X205227538Y-71152960D01*
X204338355Y-71152960D01*
X204340677Y-71146699D01*
X204344611Y-71133620D01*
X204345948Y-71125800D01*
X204317780Y-70915666D01*
X204240996Y-70380027D01*
X203987881Y-68656354D01*
X203734758Y-66923423D01*
X203629811Y-66157280D01*
X203632616Y-66125697D01*
X203640691Y-66064828D01*
X203670551Y-65869589D01*
X203715236Y-65600265D01*
X203770567Y-65285562D01*
X203911330Y-64490402D01*
X203856999Y-64199007D01*
X203836006Y-64083180D01*
X203818719Y-63983554D01*
X203806991Y-63910783D01*
X203803787Y-63887794D01*
X203802671Y-63875515D01*
X203802793Y-63873688D01*
X203803163Y-63871921D01*
X203803781Y-63870217D01*
X203804644Y-63868570D01*
X203805768Y-63866976D01*
X203807126Y-63865440D01*
X203808746Y-63863968D01*
X203810618Y-63862547D01*
X203812739Y-63861190D01*
X203815119Y-63859884D01*
X203817750Y-63858640D01*
X203820641Y-63857456D01*
X203823786Y-63856329D01*
X203827191Y-63855259D01*
X203830851Y-63854241D01*
X203834772Y-63853292D01*
X203838953Y-63852387D01*
X203843400Y-63851552D01*
X203848103Y-63850768D01*
X203853072Y-63850046D01*
X203858302Y-63849383D01*
X203863802Y-63848772D01*
X203875596Y-63847731D01*
X203888459Y-63846919D01*
X203902403Y-63846341D01*
X203917434Y-63845995D01*
X203933552Y-63845880D01*
X204061961Y-63843408D01*
X204180495Y-63648321D01*
X204205180Y-63608636D01*
X204228882Y-63571616D01*
X204251073Y-63538068D01*
X204271246Y-63508800D01*
X204288871Y-63484625D01*
X204303426Y-63466355D01*
X204309391Y-63459688D01*
X204314391Y-63454801D01*
X204318370Y-63451792D01*
X204321254Y-63450770D01*
X204322214Y-63450867D01*
X204323248Y-63451163D01*
X204324339Y-63451660D01*
X204325494Y-63452338D01*
X204326714Y-63453206D01*
X204327983Y-63454250D01*
X204329302Y-63455471D01*
X204330670Y-63456866D01*
X204332082Y-63458423D01*
X204333524Y-63460139D01*
X204336531Y-63464049D01*
X204339652Y-63468546D01*
X204342861Y-63473614D01*
X204346126Y-63479188D01*
X204349421Y-63485251D01*
X204352715Y-63491763D01*
X204355978Y-63498691D01*
X204359187Y-63505988D01*
X204362307Y-63513637D01*
X204365309Y-63521582D01*
X204368168Y-63529786D01*
X204395337Y-63606339D01*
X204452136Y-63552013D01*
X204458400Y-63545866D01*
X204465130Y-63538591D01*
X204472246Y-63530280D01*
X204479687Y-63521035D01*
X204487383Y-63510920D01*
X204495284Y-63500052D01*
X204503306Y-63488513D01*
X204511401Y-63476387D01*
X204519493Y-63463770D01*
X204527523Y-63450752D01*
X204535416Y-63437424D01*
X204543118Y-63423873D01*
X204550557Y-63410190D01*
X204557674Y-63396476D01*
X204564397Y-63382806D01*
X204570668Y-63369272D01*
X204579729Y-63352030D01*
X204594644Y-63326552D01*
X204640703Y-63252940D01*
X204706141Y-63152542D01*
X204788289Y-63029417D01*
X204884432Y-62887659D01*
X204991900Y-62731348D01*
X205107991Y-62564563D01*
X205230006Y-62391374D01*
X205534987Y-61955407D01*
X205650894Y-61785184D01*
X205747358Y-61639120D01*
X205828079Y-61511466D01*
X205896758Y-61396464D01*
X205957103Y-61288339D01*
X206012822Y-61181350D01*
X206084090Y-61039471D01*
X206142159Y-60918659D01*
X206164439Y-60870136D01*
X206181249Y-60831654D01*
X206191863Y-60804800D01*
X206194618Y-60796241D01*
X206195562Y-60791175D01*
X206195734Y-60789367D01*
X206195795Y-60787649D01*
X206195746Y-60786013D01*
X206195585Y-60784466D01*
X206195320Y-60783002D01*
X206194950Y-60781625D01*
X206194475Y-60780338D01*
X206193902Y-60779136D01*
X206193232Y-60778022D01*
X206192465Y-60776999D01*
X206191604Y-60776057D01*
X206190657Y-60775201D01*
X206189618Y-60774437D01*
X206188490Y-60773755D01*
X206187284Y-60773161D01*
X206185993Y-60772655D01*
X206184619Y-60772236D01*
X206183177Y-60771903D01*
X206181653Y-60771657D01*
X206180054Y-60771501D01*
X206178388Y-60771426D01*
X206176657Y-60771441D01*
X206174857Y-60771539D01*
X206172992Y-60771730D01*
X206171066Y-60772006D01*
X206169079Y-60772362D01*
X206167035Y-60772814D01*
X206164938Y-60773348D01*
X206162789Y-60773971D01*
X206160591Y-60774682D01*
X206158345Y-60775481D01*
X206156050Y-60776363D01*
X206149376Y-60779691D01*
X206138759Y-60785869D01*
X206106625Y-60806148D01*
X206061460Y-60835915D01*
X206005107Y-60873900D01*
X205866085Y-60969438D01*
X205704144Y-61082569D01*
X205592421Y-61160878D01*
X205486830Y-61232125D01*
X205384486Y-61298046D01*
X205282486Y-61360383D01*
X205177941Y-61420866D01*
X205067952Y-61481231D01*
X204949633Y-61543219D01*
X204820078Y-61608562D01*
X204681322Y-61678795D01*
X204561484Y-61741677D01*
X204455192Y-61800517D01*
X204357061Y-61858596D01*
X204261706Y-61919222D01*
X204163752Y-61985694D01*
X204057803Y-62061310D01*
X203938492Y-62149371D01*
X203852908Y-62214262D01*
X203774738Y-62274969D01*
X203705129Y-62330511D01*
X203645244Y-62379954D01*
X203596240Y-62422335D01*
X203559273Y-62456700D01*
X203545669Y-62470580D01*
X203535506Y-62482096D01*
X203528931Y-62491127D01*
X203526092Y-62497562D01*
X203525053Y-62502621D01*
X203523793Y-62507600D01*
X203522338Y-62512467D01*
X203520686Y-62517204D01*
X203518870Y-62521779D01*
X203516889Y-62526167D01*
X203514765Y-62530350D01*
X203512514Y-62534291D01*
X203510139Y-62537982D01*
X203507668Y-62541380D01*
X203505107Y-62544469D01*
X203502477Y-62547221D01*
X203499787Y-62549610D01*
X203497055Y-62551616D01*
X203494295Y-62553207D01*
X203492909Y-62553834D01*
X203491518Y-62554360D01*
X203489438Y-62554064D01*
X203485984Y-62552270D01*
X203475125Y-62544335D01*
X203459225Y-62530847D01*
X203438580Y-62512109D01*
X203384214Y-62460029D01*
X203314340Y-62390452D01*
X203231263Y-62305698D01*
X203137310Y-62208137D01*
X203034786Y-62100088D01*
X202926016Y-61983916D01*
X202387679Y-61403599D01*
X201757972Y-61124551D01*
X201108503Y-60838096D01*
X201107563Y-60837814D01*
X201106600Y-60837879D01*
X201105607Y-60838295D01*
X201104585Y-60839045D01*
X201103553Y-60840124D01*
X201102497Y-60841519D01*
X201101423Y-60843227D01*
X201100326Y-60845232D01*
X201098098Y-60850121D01*
X201095830Y-60856113D01*
X201093534Y-60863135D01*
X201091217Y-60871124D01*
X201088909Y-60880010D01*
X201086612Y-60889729D01*
X201084344Y-60900200D01*
X201082115Y-60911368D01*
X201079946Y-60923158D01*
X201077852Y-60935499D01*
X201075841Y-60948327D01*
X201073930Y-60961567D01*
X201071478Y-60984259D01*
X201069788Y-61005563D01*
X201069067Y-61026192D01*
X200897607Y-61026192D01*
X200915892Y-60939343D01*
X200919354Y-60924862D01*
X200923241Y-60910194D01*
X200932096Y-60880690D01*
X200942106Y-60851656D01*
X200952931Y-60823896D01*
X200964217Y-60798217D01*
X200969928Y-60786414D01*
X200975617Y-60775434D01*
X200981254Y-60765379D01*
X200986788Y-60756352D01*
X200992178Y-60748457D01*
X200997385Y-60741787D01*
X201049238Y-60684991D01*
X202432132Y-61297408D01*
X202716117Y-61603627D01*
X203222346Y-62146900D01*
X203444599Y-62386438D01*
X203852057Y-62077757D01*
X203974777Y-61986006D01*
X204082338Y-61908173D01*
X204181094Y-61840360D01*
X204229159Y-61808981D01*
X204277419Y-61778642D01*
X204326665Y-61748859D01*
X204377685Y-61719131D01*
X204488254Y-61657910D01*
X204615484Y-61591075D01*
X204765754Y-61514724D01*
X204903568Y-61443568D01*
X205028326Y-61377016D01*
X205143188Y-61313182D01*
X205251310Y-61250186D01*
X205355839Y-61186147D01*
X205459940Y-61119186D01*
X205566756Y-61047426D01*
X205679449Y-60968978D01*
X205772263Y-60903297D01*
X205859410Y-60843609D01*
X205940072Y-60790353D01*
X206013441Y-60743948D01*
X206078706Y-60704837D01*
X206135057Y-60673454D01*
X206181690Y-60650229D01*
X206201106Y-60641812D01*
X206217788Y-60635601D01*
X206260345Y-60621840D01*
X206277779Y-60616462D01*
X206292950Y-60612101D01*
X206306098Y-60608770D01*
X206317451Y-60606471D01*
X206327242Y-60605229D01*
X206335701Y-60605040D01*
X206339505Y-60605348D01*
G37*
G36*
X205691933Y-61432323D02*
G01*
X205696484Y-61432957D01*
X205700800Y-61434009D01*
X205704863Y-61435483D01*
X205708646Y-61437379D01*
X205712132Y-61439703D01*
X205715295Y-61442453D01*
X205718111Y-61445636D01*
X205720569Y-61449251D01*
X205722634Y-61453298D01*
X205724288Y-61457787D01*
X205725512Y-61462712D01*
X205726281Y-61468083D01*
X205726572Y-61473896D01*
X205726368Y-61480151D01*
X205723178Y-61487718D01*
X205713831Y-61503629D01*
X205677945Y-61558715D01*
X205621276Y-61641802D01*
X205546408Y-61749316D01*
X205352362Y-62023274D01*
X205116419Y-62351865D01*
X204790524Y-62797523D01*
X204677729Y-62948033D01*
X204591040Y-63059362D01*
X204524949Y-63138276D01*
X204473970Y-63191553D01*
X204452428Y-63210689D01*
X204432601Y-63225958D01*
X204395335Y-63248275D01*
X204375177Y-63258092D01*
X204355917Y-63266716D01*
X204337593Y-63274193D01*
X204320208Y-63280543D01*
X204303791Y-63285788D01*
X204288364Y-63289977D01*
X204273939Y-63293131D01*
X204260560Y-63295275D01*
X204248226Y-63296437D01*
X204236968Y-63296656D01*
X204226802Y-63295954D01*
X204217757Y-63294368D01*
X204209844Y-63291930D01*
X204203092Y-63288662D01*
X204197520Y-63284597D01*
X204193149Y-63279759D01*
X204190007Y-63274184D01*
X204188099Y-63267905D01*
X204187465Y-63260947D01*
X204188105Y-63253339D01*
X204190067Y-63245112D01*
X204193350Y-63236297D01*
X204197987Y-63226924D01*
X204203988Y-63217019D01*
X204211394Y-63206618D01*
X204220208Y-63195747D01*
X204230453Y-63184436D01*
X204242157Y-63172711D01*
X204255340Y-63160615D01*
X204270023Y-63148165D01*
X204286222Y-63135394D01*
X204303965Y-63122330D01*
X204320602Y-63109136D01*
X204340035Y-63091658D01*
X204362405Y-63069722D01*
X204387848Y-63043153D01*
X204416506Y-63011782D01*
X204448518Y-62975435D01*
X204484013Y-62933942D01*
X204523126Y-62887120D01*
X204612795Y-62776801D01*
X204718602Y-62643106D01*
X204841660Y-62484636D01*
X204983064Y-62300005D01*
X205595483Y-61490028D01*
X205600438Y-61483503D01*
X205605555Y-61477356D01*
X205610817Y-61471587D01*
X205616203Y-61466204D01*
X205621687Y-61461212D01*
X205627251Y-61456600D01*
X205632860Y-61452381D01*
X205638507Y-61448550D01*
X205644165Y-61445115D01*
X205649820Y-61442079D01*
X205655427Y-61439438D01*
X205660992Y-61437203D01*
X205666476Y-61435362D01*
X205671852Y-61433937D01*
X205677109Y-61432917D01*
X205682224Y-61432307D01*
X205687176Y-61432104D01*
X205691933Y-61432323D01*
G37*
D11*
G36*
X209831701Y-84393691D02*
G01*
X209831701Y-84018534D01*
X209705672Y-84018534D01*
X209756470Y-83958393D01*
X209796759Y-83895573D01*
X209830479Y-83818897D01*
X209849893Y-83738574D01*
X209855148Y-83666824D01*
X209848142Y-83580180D01*
X209827121Y-83501599D01*
X209792088Y-83431081D01*
X209743041Y-83368626D01*
X209679980Y-83314234D01*
X209655846Y-83297895D01*
X209723578Y-83245796D01*
X209777296Y-83185942D01*
X209817001Y-83118335D01*
X209842692Y-83042974D01*
X209854370Y-82959860D01*
X209855148Y-82930432D01*
X209849561Y-82856701D01*
X209832800Y-82787183D01*
X209802024Y-82720546D01*
X209763191Y-82670679D01*
X209704808Y-82624594D01*
X209639726Y-82593377D01*
X209567267Y-82573842D01*
X209489059Y-82565498D01*
X209456178Y-82564800D01*
X208753125Y-82564800D01*
X208753125Y-82939957D01*
X209283620Y-82939957D01*
X209357992Y-82942980D01*
X209417709Y-82952047D01*
X209487960Y-82978354D01*
X209499775Y-82986485D01*
X209539709Y-83039242D01*
X209550333Y-83103722D01*
X209537571Y-83176954D01*
X209491729Y-83238624D01*
X209424269Y-83273313D01*
X209346131Y-83288730D01*
X209283620Y-83291667D01*
X208753125Y-83291667D01*
X208753125Y-83666824D01*
X209293512Y-83666824D01*
X209369807Y-83669572D01*
X209431631Y-83677815D01*
X209503061Y-83700677D01*
X209518093Y-83709322D01*
X209561690Y-83762445D01*
X209573769Y-83835591D01*
X209573780Y-83838282D01*
X209562790Y-83907892D01*
X209521024Y-83965411D01*
X209455295Y-83998880D01*
X209435661Y-84004612D01*
X209359390Y-84016236D01*
X209293512Y-84018534D01*
X208753125Y-84018534D01*
X208753125Y-84393691D01*
X209831701Y-84393691D01*
G37*
G36*
X209831701Y-81936119D02*
G01*
X209214011Y-81936119D01*
X209134925Y-81926600D01*
X209068327Y-81892408D01*
X209023730Y-81824218D01*
X209011243Y-81749423D01*
X209011045Y-81737183D01*
X209020757Y-81659383D01*
X209055642Y-81593867D01*
X209125213Y-81549994D01*
X209201524Y-81537710D01*
X209214011Y-81537515D01*
X209831701Y-81537515D01*
X209831701Y-81162358D01*
X209146600Y-81162358D01*
X209067894Y-81167420D01*
X208985839Y-81186120D01*
X208914302Y-81218600D01*
X208853284Y-81264860D01*
X208816139Y-81306339D01*
X208773313Y-81376150D01*
X208744977Y-81446844D01*
X208724369Y-81527559D01*
X208713099Y-81602476D01*
X208707196Y-81684351D01*
X208706230Y-81736817D01*
X208708913Y-81822666D01*
X208716963Y-81901609D01*
X208730380Y-81973648D01*
X208753564Y-82050979D01*
X208784476Y-82118367D01*
X208816139Y-82166929D01*
X208869644Y-82223173D01*
X208933668Y-82265604D01*
X209008210Y-82294219D01*
X209080475Y-82307752D01*
X209146600Y-82311276D01*
X209831701Y-82311276D01*
X209831701Y-81936119D01*
G37*
G36*
X209831701Y-80555659D02*
G01*
X208753125Y-80555659D01*
X208753125Y-80930816D01*
X209831701Y-80930816D01*
X209831701Y-80555659D01*
G37*
G36*
X210253753Y-80954263D02*
G01*
X210328259Y-80940723D01*
X210335452Y-80937776D01*
X210397352Y-80897665D01*
X210402863Y-80892347D01*
X210445091Y-80832366D01*
X210448292Y-80825303D01*
X210464633Y-80751366D01*
X210464778Y-80743237D01*
X210451238Y-80668730D01*
X210448292Y-80661538D01*
X210408180Y-80599938D01*
X210402863Y-80594493D01*
X210342581Y-80552265D01*
X210335452Y-80549064D01*
X210261879Y-80532359D01*
X210253753Y-80532211D01*
X210179308Y-80546052D01*
X210172053Y-80549064D01*
X210110153Y-80589176D01*
X210104642Y-80594493D01*
X210061366Y-80656768D01*
X210059213Y-80661538D01*
X210042872Y-80735111D01*
X210042727Y-80743237D01*
X210055349Y-80815605D01*
X210059213Y-80825303D01*
X210099387Y-80886840D01*
X210104642Y-80892347D01*
X210164924Y-80934576D01*
X210172053Y-80937776D01*
X210245689Y-80954118D01*
X210253753Y-80954263D01*
G37*
G36*
X210511673Y-79891806D02*
G01*
X209442622Y-79891806D01*
X209831701Y-79492836D01*
X209831701Y-78972232D01*
X209333446Y-79511887D01*
X208753125Y-78940725D01*
X208753125Y-79473785D01*
X209192395Y-79891806D01*
X208753125Y-79891806D01*
X208753125Y-80266963D01*
X210511673Y-80266963D01*
X210511673Y-79891806D01*
G37*
G36*
X210511673Y-78426349D02*
G01*
X209442622Y-78426349D01*
X209831701Y-78027379D01*
X209831701Y-77506775D01*
X209333446Y-78046430D01*
X208753125Y-77475268D01*
X208753125Y-78008328D01*
X209192395Y-78426349D01*
X208753125Y-78426349D01*
X208753125Y-78801506D01*
X210511673Y-78801506D01*
X210511673Y-78426349D01*
G37*
G36*
X209831701Y-76956496D02*
G01*
X209214011Y-76956496D01*
X209134925Y-76946977D01*
X209068327Y-76912784D01*
X209023730Y-76844595D01*
X209011243Y-76769799D01*
X209011045Y-76757560D01*
X209020757Y-76679760D01*
X209055642Y-76614243D01*
X209125213Y-76570371D01*
X209201524Y-76558087D01*
X209214011Y-76557892D01*
X209831701Y-76557892D01*
X209831701Y-76182735D01*
X209146600Y-76182735D01*
X209067894Y-76187796D01*
X208985839Y-76206497D01*
X208914302Y-76238977D01*
X208853284Y-76285237D01*
X208816139Y-76326716D01*
X208773313Y-76396527D01*
X208744977Y-76467221D01*
X208724369Y-76547936D01*
X208713099Y-76622853D01*
X208707196Y-76704728D01*
X208706230Y-76757194D01*
X208708913Y-76843042D01*
X208716963Y-76921986D01*
X208730380Y-76994025D01*
X208753564Y-77071356D01*
X208784476Y-77138744D01*
X208816139Y-77187305D01*
X208869644Y-77243550D01*
X208933668Y-77285980D01*
X209008210Y-77314596D01*
X209080475Y-77328129D01*
X209146600Y-77331653D01*
X209831701Y-77331653D01*
X209831701Y-76956496D01*
G37*
G36*
X209409649Y-74896063D02*
G01*
X210347542Y-74896063D01*
X210347542Y-75432787D01*
X209357259Y-76044982D01*
X209081387Y-76044982D01*
X209081387Y-75639050D01*
X209409649Y-75639050D01*
X210029904Y-75271220D01*
X209409649Y-75271220D01*
X209409649Y-75639050D01*
X209081387Y-75639050D01*
X209081387Y-75271220D01*
X208753125Y-75271220D01*
X208753125Y-74896063D01*
X209081387Y-74896063D01*
X209081387Y-74708485D01*
X209409649Y-74708485D01*
X209409649Y-74896063D01*
G37*
G36*
X208753125Y-73304577D02*
G01*
X208753125Y-74578792D01*
X209167849Y-74187515D01*
X209227895Y-74131646D01*
X209284387Y-74080542D01*
X209345801Y-74026945D01*
X209402376Y-73979833D01*
X209447018Y-73944615D01*
X209508681Y-73898721D01*
X209570534Y-73856088D01*
X209635501Y-73816546D01*
X209640459Y-73813823D01*
X209708047Y-73780802D01*
X209768686Y-73760700D01*
X209843459Y-73750242D01*
X209852217Y-73750076D01*
X209922926Y-73761433D01*
X209983742Y-73795505D01*
X210026607Y-73850460D01*
X210042711Y-73923217D01*
X210042727Y-73925931D01*
X210028805Y-73999661D01*
X209987039Y-74055257D01*
X209920013Y-74091562D01*
X209847821Y-74101786D01*
X209778944Y-74095557D01*
X209778944Y-74547284D01*
X209854637Y-74543720D01*
X209934049Y-74531398D01*
X210008524Y-74510275D01*
X210029904Y-74502222D01*
X210097581Y-74470515D01*
X210164919Y-74427457D01*
X210224810Y-74375826D01*
X210276519Y-74316360D01*
X210319310Y-74249794D01*
X210350473Y-74183118D01*
X210373657Y-74111134D01*
X210388254Y-74034855D01*
X210394265Y-73954284D01*
X210394436Y-73937654D01*
X210390286Y-73857383D01*
X210377836Y-73780976D01*
X210357084Y-73708433D01*
X210351938Y-73694388D01*
X210318695Y-73621160D01*
X210277399Y-73555117D01*
X210232870Y-73501314D01*
X210177060Y-73449389D01*
X210114410Y-73405948D01*
X210051519Y-73373820D01*
X209977319Y-73347747D01*
X209898789Y-73332496D01*
X209823641Y-73328024D01*
X209743406Y-73333427D01*
X209667106Y-73349634D01*
X209594742Y-73376646D01*
X209580741Y-73383345D01*
X209510789Y-73424060D01*
X209446852Y-73471594D01*
X209389242Y-73522507D01*
X209352863Y-73558467D01*
X209104834Y-73818220D01*
X209104834Y-73304577D01*
X208753125Y-73304577D01*
G37*
G36*
X209831701Y-72359357D02*
G01*
X209831701Y-71984200D01*
X209656212Y-71984200D01*
X209718764Y-71938595D01*
X209770406Y-71886409D01*
X209807887Y-71833258D01*
X209840259Y-71762040D01*
X209856808Y-71689425D01*
X209861010Y-71624797D01*
X209861010Y-71591824D01*
X209855515Y-71550425D01*
X209488784Y-71550425D01*
X209514830Y-71619878D01*
X209526290Y-71694240D01*
X209526886Y-71716388D01*
X209519158Y-71793453D01*
X209492805Y-71863183D01*
X209447751Y-71917155D01*
X209384774Y-71955326D01*
X209312646Y-71976278D01*
X209235618Y-71983938D01*
X209216942Y-71984200D01*
X208753125Y-71984200D01*
X208753125Y-72359357D01*
X209831701Y-72359357D01*
G37*
G36*
X209289777Y-70231864D02*
G01*
X209366745Y-70237129D01*
X209446894Y-70250388D01*
X209521390Y-70271447D01*
X209589783Y-70299912D01*
X209656916Y-70339322D01*
X209715563Y-70387218D01*
X209761566Y-70437679D01*
X209803657Y-70500790D01*
X209836830Y-70571866D01*
X209844294Y-70592575D01*
X209863872Y-70665046D01*
X209875292Y-70742813D01*
X209878596Y-70817330D01*
X209878232Y-70843048D01*
X209872774Y-70917227D01*
X209859028Y-70994414D01*
X209837196Y-71066091D01*
X209807851Y-71131829D01*
X209767555Y-71196786D01*
X209718861Y-71254036D01*
X209667784Y-71299109D01*
X209604162Y-71340672D01*
X209532748Y-71373837D01*
X209512039Y-71381301D01*
X209439567Y-71400879D01*
X209361801Y-71412299D01*
X209287284Y-71415603D01*
X209279065Y-71415560D01*
X209199596Y-71410408D01*
X209125063Y-71396669D01*
X209048780Y-71371639D01*
X208985275Y-71340548D01*
X208922113Y-71298001D01*
X208865965Y-71246709D01*
X208817479Y-71187235D01*
X208777305Y-71120141D01*
X208747995Y-71052536D01*
X208740531Y-71031044D01*
X208720954Y-70956569D01*
X208709534Y-70877729D01*
X208706230Y-70803042D01*
X208706599Y-70775525D01*
X208712132Y-70696893D01*
X208729837Y-70601198D01*
X208759347Y-70515955D01*
X208800660Y-70441165D01*
X208853777Y-70376828D01*
X208918698Y-70322944D01*
X208995423Y-70279513D01*
X209083951Y-70246534D01*
X209083951Y-70618028D01*
X209037374Y-70658754D01*
X208998983Y-70728203D01*
X208987598Y-70807072D01*
X208991261Y-70861769D01*
X209015304Y-70939940D01*
X209070259Y-71001930D01*
X209142387Y-71032241D01*
X209222071Y-71040446D01*
X209222071Y-71029821D01*
X209433097Y-71029821D01*
X209438644Y-71028864D01*
X209512414Y-71004725D01*
X209571582Y-70958746D01*
X209574603Y-70955188D01*
X209609888Y-70889598D01*
X209620675Y-70813300D01*
X209620625Y-70808013D01*
X209607761Y-70734715D01*
X209569018Y-70668952D01*
X209565779Y-70665282D01*
X209505112Y-70617162D01*
X209433097Y-70590184D01*
X209433097Y-71029821D01*
X209222071Y-71029821D01*
X209222071Y-70231513D01*
X209263104Y-70231513D01*
X209289777Y-70231864D01*
G37*
G36*
X209843425Y-69773924D02*
G01*
X209284353Y-69517469D01*
X209843425Y-69257351D01*
X209843425Y-68833101D01*
X208753125Y-69393638D01*
X208753125Y-69647895D01*
X209843425Y-70202204D01*
X209843425Y-69773924D01*
G37*
G36*
X209586546Y-66734265D02*
G01*
X209666929Y-66738628D01*
X209743945Y-66747689D01*
X209817596Y-66761448D01*
X209897646Y-66782926D01*
X209963576Y-66806280D01*
X210033557Y-66837564D01*
X210097814Y-66873749D01*
X210163261Y-66920313D01*
X210196505Y-66948764D01*
X210250215Y-67004302D01*
X210296042Y-67065405D01*
X210333986Y-67132072D01*
X210351401Y-67171218D01*
X210375310Y-67244521D01*
X210389655Y-67321476D01*
X210394436Y-67402082D01*
X210392961Y-67448035D01*
X210382866Y-67527505D01*
X210363208Y-67602801D01*
X210333986Y-67673924D01*
X210313879Y-67711359D01*
X210271556Y-67774683D01*
X210221349Y-67832791D01*
X210163261Y-67885683D01*
X210105444Y-67927700D01*
X210041902Y-67964726D01*
X209972637Y-67996760D01*
X209897646Y-68023802D01*
X209858171Y-68035308D01*
X209786443Y-68051753D01*
X209711350Y-68063498D01*
X209632891Y-68070546D01*
X209551066Y-68072895D01*
X209515651Y-68072464D01*
X209435396Y-68068101D01*
X209358472Y-68059040D01*
X209284879Y-68045280D01*
X209204852Y-68023802D01*
X209138852Y-68000413D01*
X209068619Y-67969003D01*
X209003927Y-67932602D01*
X208937772Y-67885683D01*
X208904316Y-67856943D01*
X208850317Y-67801153D01*
X208804316Y-67740147D01*
X208766314Y-67673924D01*
X208749004Y-67634927D01*
X208725241Y-67561485D01*
X208710983Y-67483870D01*
X208706230Y-67402082D01*
X209081387Y-67402082D01*
X209085456Y-67443386D01*
X209115825Y-67513823D01*
X209151358Y-67554115D01*
X209212912Y-67598087D01*
X209216849Y-67600270D01*
X209285886Y-67631010D01*
X209360923Y-67652675D01*
X209399323Y-67660098D01*
X209475383Y-67669047D01*
X209551066Y-67671726D01*
X209588967Y-67671056D01*
X209667199Y-67665010D01*
X209740110Y-67652675D01*
X209745512Y-67651446D01*
X209820618Y-67629320D01*
X209888487Y-67598087D01*
X209934022Y-67567213D01*
X209984475Y-67513823D01*
X210005684Y-67474926D01*
X210019279Y-67402082D01*
X210015167Y-67362152D01*
X209984475Y-67292173D01*
X209949152Y-67251090D01*
X209888487Y-67207543D01*
X209880695Y-67203342D01*
X209811246Y-67173965D01*
X209740110Y-67154420D01*
X209701511Y-67146854D01*
X209625735Y-67137733D01*
X209551066Y-67135003D01*
X209512568Y-67135685D01*
X209433662Y-67141848D01*
X209360923Y-67154420D01*
X209355610Y-67155625D01*
X209281239Y-67177226D01*
X209212912Y-67207543D01*
X209166666Y-67237947D01*
X209115825Y-67292173D01*
X209096218Y-67327805D01*
X209081387Y-67402082D01*
X208706230Y-67402082D01*
X208707697Y-67356850D01*
X208717730Y-67278272D01*
X208737269Y-67203346D01*
X208766314Y-67132072D01*
X208786439Y-67094348D01*
X208828885Y-67030772D01*
X208879329Y-66972760D01*
X208937772Y-66920313D01*
X208996230Y-66878616D01*
X209060229Y-66841820D01*
X209129770Y-66809923D01*
X209204852Y-66782926D01*
X209244322Y-66771420D01*
X209316011Y-66754976D01*
X209391032Y-66743230D01*
X209469383Y-66736183D01*
X209551066Y-66733834D01*
X209586546Y-66734265D01*
G37*
G36*
X209995832Y-66236677D02*
G01*
X209995832Y-66471150D01*
X210347542Y-66471150D01*
X210347542Y-65835508D01*
X208753125Y-65835508D01*
X208753125Y-66236677D01*
X209995832Y-66236677D01*
G37*
G36*
X206876094Y-83542260D02*
G01*
X206897444Y-83471725D01*
X206930560Y-83400902D01*
X206972972Y-83340521D01*
X207031799Y-83285072D01*
X207102043Y-83242923D01*
X207173776Y-83217037D01*
X207254256Y-83202050D01*
X207331851Y-83197878D01*
X207376420Y-83199438D01*
X207449888Y-83209373D01*
X207525291Y-83230484D01*
X207558466Y-83243845D01*
X207625130Y-83280570D01*
X207684660Y-83327937D01*
X207713408Y-83357830D01*
X207759450Y-83422276D01*
X207793470Y-83492068D01*
X207795927Y-83498307D01*
X207817805Y-83571323D01*
X207829504Y-83644689D01*
X207833404Y-83724709D01*
X207833404Y-84370243D01*
X206221401Y-84370243D01*
X206221401Y-83969074D01*
X206835794Y-83969074D01*
X206713462Y-83887009D01*
X207105071Y-83887009D01*
X207105071Y-83969074D01*
X207499279Y-83969074D01*
X207499279Y-83887009D01*
X207496843Y-83833321D01*
X207481326Y-83754745D01*
X207448355Y-83688806D01*
X207438417Y-83676497D01*
X207377038Y-83633113D01*
X207302175Y-83619929D01*
X207284705Y-83620535D01*
X207213478Y-83639368D01*
X207155996Y-83688806D01*
X207129141Y-83737757D01*
X207110045Y-83812083D01*
X207105071Y-83887009D01*
X206713462Y-83887009D01*
X206221401Y-83556915D01*
X206221401Y-83044371D01*
X206876094Y-83542260D01*
G37*
G36*
X207311701Y-82553077D02*
G01*
X206233125Y-82553077D01*
X206233125Y-82928234D01*
X207311701Y-82928234D01*
X207311701Y-82553077D01*
G37*
G36*
X207733753Y-82951681D02*
G01*
X207808259Y-82938141D01*
X207815452Y-82935194D01*
X207877352Y-82895083D01*
X207882863Y-82889765D01*
X207925091Y-82829784D01*
X207928292Y-82822721D01*
X207944633Y-82748784D01*
X207944778Y-82740655D01*
X207931238Y-82666148D01*
X207928292Y-82658956D01*
X207888180Y-82597356D01*
X207882863Y-82591911D01*
X207822581Y-82549683D01*
X207815452Y-82546482D01*
X207741879Y-82529777D01*
X207733753Y-82529629D01*
X207659308Y-82543470D01*
X207652053Y-82546482D01*
X207590153Y-82586594D01*
X207584642Y-82591911D01*
X207541366Y-82654186D01*
X207539213Y-82658956D01*
X207522872Y-82732529D01*
X207522727Y-82740655D01*
X207535349Y-82813023D01*
X207539213Y-82822721D01*
X207579387Y-82884258D01*
X207584642Y-82889765D01*
X207644924Y-82931994D01*
X207652053Y-82935194D01*
X207725689Y-82951536D01*
X207733753Y-82951681D01*
G37*
G36*
X207327821Y-81443726D02*
G01*
X207209119Y-81443726D01*
X207244153Y-81477196D01*
X207294221Y-81540371D01*
X207329985Y-81609401D01*
X207351443Y-81684286D01*
X207358596Y-81765027D01*
X207354088Y-81836969D01*
X207338715Y-81911973D01*
X207312434Y-81982647D01*
X207280484Y-82042282D01*
X207237653Y-82101764D01*
X207186771Y-82154839D01*
X207134328Y-82197207D01*
X207070277Y-82236952D01*
X206999559Y-82269511D01*
X206992832Y-82272080D01*
X206916474Y-82294961D01*
X206843301Y-82307197D01*
X206766551Y-82311276D01*
X206691568Y-82307484D01*
X206614128Y-82294551D01*
X206541970Y-82272441D01*
X206493197Y-82251055D01*
X206426737Y-82211591D01*
X206368313Y-82163265D01*
X206334195Y-82126468D01*
X206290403Y-82065177D01*
X206255473Y-81996569D01*
X206234221Y-81934259D01*
X206219935Y-81861419D01*
X206215173Y-81784078D01*
X206215541Y-81761418D01*
X206222866Y-81687358D01*
X206225380Y-81673621D01*
X206227327Y-81667208D01*
X206532444Y-81667208D01*
X206533612Y-81692762D01*
X206551129Y-81763928D01*
X206558788Y-81780238D01*
X206603885Y-81840498D01*
X206619175Y-81853829D01*
X206682653Y-81891423D01*
X206705666Y-81899597D01*
X206780473Y-81910107D01*
X206802276Y-81909161D01*
X206874995Y-81890324D01*
X206891206Y-81882441D01*
X206951931Y-81837567D01*
X206963708Y-81824717D01*
X207004321Y-81760997D01*
X207012173Y-81741608D01*
X207024471Y-81667208D01*
X207023560Y-81646529D01*
X207005420Y-81575250D01*
X206997886Y-81558901D01*
X206953030Y-81497581D01*
X206937776Y-81483644D01*
X206874995Y-81444458D01*
X206852486Y-81435803D01*
X206778641Y-81424675D01*
X206753545Y-81425911D01*
X206682653Y-81444458D01*
X206663482Y-81453710D01*
X206603885Y-81496482D01*
X206591761Y-81508885D01*
X206551129Y-81573052D01*
X206543848Y-81592709D01*
X206532444Y-81667208D01*
X206227327Y-81667208D01*
X206246680Y-81603460D01*
X206253322Y-81588524D01*
X206289545Y-81524692D01*
X206307355Y-81500098D01*
X206355857Y-81443726D01*
X206252908Y-81443726D01*
X206203020Y-81446758D01*
X206129243Y-81466070D01*
X206066062Y-81507107D01*
X206036570Y-81542186D01*
X206006617Y-81613646D01*
X205998651Y-81688090D01*
X206005360Y-81751311D01*
X206040583Y-81822872D01*
X206105996Y-81866510D01*
X206105996Y-82300652D01*
X206084134Y-82295917D01*
X206010955Y-82271143D01*
X205942964Y-82233607D01*
X205915607Y-82213793D01*
X205860928Y-82164059D01*
X205812538Y-82105013D01*
X205786206Y-82064186D01*
X205752374Y-81996850D01*
X205725344Y-81922197D01*
X205707405Y-81847737D01*
X205696913Y-81768427D01*
X205693836Y-81692120D01*
X205695439Y-81637601D01*
X205703854Y-81559514D01*
X205719482Y-81485857D01*
X205727856Y-81456582D01*
X205754065Y-81385071D01*
X205789457Y-81315498D01*
X205797911Y-81301544D01*
X205841108Y-81241617D01*
X205894238Y-81186904D01*
X205956794Y-81140559D01*
X206024297Y-81108502D01*
X206075928Y-81093696D01*
X206151792Y-81079193D01*
X206165426Y-81077294D01*
X206238719Y-81070602D01*
X206314824Y-81068568D01*
X207327821Y-81068568D01*
X207327821Y-81443726D01*
G37*
G36*
X207991673Y-80801855D02*
G01*
X207991673Y-80426698D01*
X207174314Y-80426698D01*
X207232399Y-80373545D01*
X207278879Y-80314966D01*
X207302175Y-80270627D01*
X207324715Y-80195945D01*
X207334343Y-80117429D01*
X207335148Y-80084880D01*
X207329766Y-80001154D01*
X207313620Y-79926930D01*
X207281987Y-79853737D01*
X207236294Y-79792955D01*
X207222674Y-79779699D01*
X207161514Y-79734499D01*
X207090508Y-79702213D01*
X207009656Y-79682841D01*
X206930834Y-79676485D01*
X206918958Y-79676384D01*
X206233125Y-79676384D01*
X206233125Y-80051541D01*
X206776443Y-80051541D01*
X206850265Y-80054747D01*
X206908334Y-80064364D01*
X206975012Y-80095731D01*
X206986003Y-80106130D01*
X207023017Y-80173224D01*
X207030333Y-80227762D01*
X207019253Y-80303447D01*
X206979457Y-80368820D01*
X206972448Y-80375407D01*
X206907575Y-80412223D01*
X206833641Y-80425897D01*
X206807584Y-80426698D01*
X206233125Y-80426698D01*
X206233125Y-80801855D01*
X207991673Y-80801855D01*
G37*
G36*
X206983439Y-79009601D02*
G01*
X206233125Y-79009601D01*
X206233125Y-79384758D01*
X206983439Y-79384758D01*
X206983439Y-79501995D01*
X207311701Y-79501995D01*
X207311701Y-79384758D01*
X207639963Y-79384758D01*
X207639963Y-79009601D01*
X207311701Y-79009601D01*
X207311701Y-78775128D01*
X206983439Y-78775128D01*
X206983439Y-79009601D01*
G37*
G36*
X207415016Y-77015847D02*
G01*
X207457631Y-77075473D01*
X207492940Y-77143616D01*
X207496349Y-77152134D01*
X207516931Y-77223011D01*
X207522727Y-77283659D01*
X207513201Y-77357115D01*
X207484625Y-77415550D01*
X207424999Y-77460458D01*
X207385706Y-77466475D01*
X207315731Y-77441196D01*
X207271946Y-77382138D01*
X207268104Y-77374518D01*
X207240322Y-77303347D01*
X207233665Y-77281095D01*
X207212476Y-77210255D01*
X207202158Y-77178513D01*
X207175144Y-77105977D01*
X207139591Y-77031086D01*
X207099690Y-76966680D01*
X207048766Y-76905909D01*
X207021174Y-76880659D01*
X206960449Y-76839465D01*
X206891115Y-76810042D01*
X206813171Y-76792388D01*
X206737907Y-76786595D01*
X206726617Y-76786503D01*
X206652393Y-76790510D01*
X206575952Y-76804174D01*
X206504967Y-76827536D01*
X206434522Y-76863617D01*
X206372114Y-76910311D01*
X206334974Y-76947337D01*
X206290128Y-77005481D01*
X206252815Y-77072110D01*
X206225431Y-77140044D01*
X206204758Y-77214226D01*
X206191743Y-77294347D01*
X206186574Y-77371533D01*
X206186230Y-77398331D01*
X206189046Y-77472646D01*
X206197496Y-77545564D01*
X206215978Y-77634747D01*
X206243262Y-77721748D01*
X206271427Y-77789777D01*
X206305224Y-77856410D01*
X206344654Y-77921645D01*
X206366481Y-77953739D01*
X206700239Y-77779350D01*
X206653027Y-77720717D01*
X206610515Y-77656718D01*
X206577873Y-77593237D01*
X206552018Y-77518945D01*
X206539343Y-77445499D01*
X206537940Y-77411887D01*
X206545558Y-77337185D01*
X206575852Y-77268984D01*
X206584101Y-77259113D01*
X206646670Y-77215664D01*
X206688882Y-77208555D01*
X206750431Y-77221377D01*
X206798791Y-77263876D01*
X206834735Y-77329833D01*
X206839457Y-77341545D01*
X206866197Y-77412891D01*
X206881589Y-77457316D01*
X206904370Y-77527530D01*
X206930956Y-77601360D01*
X206936544Y-77615952D01*
X206969399Y-77684801D01*
X207010947Y-77746404D01*
X207017144Y-77754071D01*
X207070177Y-77805591D01*
X207134481Y-77846807D01*
X207143906Y-77851524D01*
X207218689Y-77876819D01*
X207295179Y-77887226D01*
X207337713Y-77888527D01*
X207415715Y-77883938D01*
X207488523Y-77870171D01*
X207550204Y-77849692D01*
X207617781Y-77816135D01*
X207677630Y-77773717D01*
X207713236Y-77740515D01*
X207760068Y-77683380D01*
X207798347Y-77617486D01*
X207819115Y-77568691D01*
X207840600Y-77495812D01*
X207853166Y-77417219D01*
X207856851Y-77340812D01*
X207853738Y-77266308D01*
X207844400Y-77189801D01*
X207828837Y-77111291D01*
X207824977Y-77095348D01*
X207804878Y-77024238D01*
X207780026Y-76954750D01*
X207750421Y-76886885D01*
X207731921Y-76849884D01*
X207415016Y-77015847D01*
G37*
G36*
X207311701Y-76204716D02*
G01*
X206233125Y-76204716D01*
X206233125Y-76579873D01*
X207311701Y-76579873D01*
X207311701Y-76204716D01*
G37*
G36*
X207733753Y-76603321D02*
G01*
X207808259Y-76589781D01*
X207815452Y-76586834D01*
X207877352Y-76546722D01*
X207882863Y-76541405D01*
X207925091Y-76481424D01*
X207928292Y-76474361D01*
X207944633Y-76400424D01*
X207944778Y-76392295D01*
X207931238Y-76317788D01*
X207928292Y-76310596D01*
X207888180Y-76248996D01*
X207882863Y-76243551D01*
X207822581Y-76201323D01*
X207815452Y-76198122D01*
X207741879Y-76181417D01*
X207733753Y-76181269D01*
X207659308Y-76195110D01*
X207652053Y-76198122D01*
X207590153Y-76238234D01*
X207584642Y-76243551D01*
X207541366Y-76305826D01*
X207539213Y-76310596D01*
X207522872Y-76384169D01*
X207522727Y-76392295D01*
X207535349Y-76464663D01*
X207539213Y-76474361D01*
X207579387Y-76535898D01*
X207584642Y-76541405D01*
X207644924Y-76583634D01*
X207652053Y-76586834D01*
X207725689Y-76603176D01*
X207733753Y-76603321D01*
G37*
G36*
X207991673Y-75095365D02*
G01*
X207220843Y-75095365D01*
X207254502Y-75129317D01*
X207302608Y-75193884D01*
X207336969Y-75265008D01*
X207357585Y-75342688D01*
X207364457Y-75426925D01*
X207360021Y-75499375D01*
X207344893Y-75574524D01*
X207319028Y-75644912D01*
X207294230Y-75692631D01*
X207249219Y-75757683D01*
X207194831Y-75814905D01*
X207143253Y-75855985D01*
X207080568Y-75893983D01*
X207011649Y-75924448D01*
X206945016Y-75944734D01*
X206869076Y-75958370D01*
X206790365Y-75962916D01*
X206715110Y-75958945D01*
X206636214Y-75945402D01*
X206561387Y-75922250D01*
X206497860Y-75893685D01*
X206434096Y-75854990D01*
X206376739Y-75808677D01*
X206339668Y-75770506D01*
X206292046Y-75707497D01*
X206254007Y-75637585D01*
X206230630Y-75574587D01*
X206214915Y-75500992D01*
X206209677Y-75422895D01*
X206212018Y-75372577D01*
X206221513Y-75322145D01*
X206543801Y-75322145D01*
X206544695Y-75344109D01*
X206562486Y-75417400D01*
X206570008Y-75433461D01*
X206614510Y-75493237D01*
X206629657Y-75506408D01*
X206692912Y-75543429D01*
X206715878Y-75551443D01*
X206789998Y-75561747D01*
X206811732Y-75560818D01*
X206883055Y-75542330D01*
X206898794Y-75534610D01*
X206959258Y-75491039D01*
X206971245Y-75478674D01*
X207011282Y-75415568D01*
X207018705Y-75396071D01*
X207030333Y-75322145D01*
X207029422Y-75300787D01*
X207011282Y-75229088D01*
X207003760Y-75213027D01*
X206959258Y-75153251D01*
X206944112Y-75139902D01*
X206880857Y-75101960D01*
X206861039Y-75094394D01*
X206785968Y-75082543D01*
X206764307Y-75083472D01*
X206691813Y-75101960D01*
X206675700Y-75109679D01*
X206614510Y-75153251D01*
X206602523Y-75165629D01*
X206562486Y-75229088D01*
X206555206Y-75248443D01*
X206543801Y-75322145D01*
X206221513Y-75322145D01*
X206227383Y-75290967D01*
X206257088Y-75217562D01*
X206301134Y-75152362D01*
X206359520Y-75095365D01*
X206233125Y-75095365D01*
X206233125Y-74720208D01*
X207991673Y-74720208D01*
X207991673Y-75095365D01*
G37*
G36*
X206769777Y-73307859D02*
G01*
X206846745Y-73313123D01*
X206926894Y-73326383D01*
X207001390Y-73347441D01*
X207069783Y-73375906D01*
X207136916Y-73415317D01*
X207195563Y-73463213D01*
X207241566Y-73513674D01*
X207283657Y-73576784D01*
X207316830Y-73647860D01*
X207324294Y-73668569D01*
X207343872Y-73741041D01*
X207355292Y-73818807D01*
X207358596Y-73893324D01*
X207358232Y-73919042D01*
X207352774Y-73993221D01*
X207339028Y-74070408D01*
X207317196Y-74142086D01*
X207287851Y-74207824D01*
X207247555Y-74272780D01*
X207198861Y-74330030D01*
X207147784Y-74375103D01*
X207084162Y-74416667D01*
X207012748Y-74449832D01*
X206992039Y-74457296D01*
X206919567Y-74476873D01*
X206841801Y-74488293D01*
X206767284Y-74491597D01*
X206759065Y-74491554D01*
X206679596Y-74486402D01*
X206605063Y-74472664D01*
X206528780Y-74447633D01*
X206465275Y-74416543D01*
X206402113Y-74373995D01*
X206345965Y-74322703D01*
X206297479Y-74263229D01*
X206257305Y-74196136D01*
X206227995Y-74128530D01*
X206220531Y-74107039D01*
X206200954Y-74032564D01*
X206189534Y-73953724D01*
X206186230Y-73879036D01*
X206186599Y-73851519D01*
X206192132Y-73772888D01*
X206209837Y-73677192D01*
X206239347Y-73591950D01*
X206280660Y-73517160D01*
X206333777Y-73452823D01*
X206398698Y-73398939D01*
X206475423Y-73355507D01*
X206563951Y-73322529D01*
X206563951Y-73694022D01*
X206517374Y-73734749D01*
X206478983Y-73804198D01*
X206467598Y-73883066D01*
X206471261Y-73937763D01*
X206495304Y-74015934D01*
X206550259Y-74077924D01*
X206622387Y-74108236D01*
X206702071Y-74116440D01*
X206702071Y-74105816D01*
X206913097Y-74105816D01*
X206918644Y-74104859D01*
X206992414Y-74080720D01*
X207051582Y-74034741D01*
X207054603Y-74031183D01*
X207089888Y-73965592D01*
X207100675Y-73889294D01*
X207100625Y-73884007D01*
X207087761Y-73810709D01*
X207049018Y-73744947D01*
X207045779Y-73741276D01*
X206985112Y-73693157D01*
X206913097Y-73666178D01*
X206913097Y-74105816D01*
X206702071Y-74105816D01*
X206702071Y-73307508D01*
X206743104Y-73307508D01*
X206769777Y-73307859D01*
G37*
D12*
G04 #@! TO.C,S18*
X156025000Y-91740625D02*
X156025000Y-92740625D01*
X156025000Y-92740625D02*
X156225000Y-92740625D01*
X156025000Y-95340625D02*
X156025000Y-94980625D01*
X156025000Y-95340625D02*
X159305000Y-95340625D01*
D11*
X156125000Y-92640624D02*
X156125000Y-91740625D01*
D12*
X156225000Y-94980625D02*
X156025000Y-94980625D01*
D13*
X156225000Y-95140625D02*
X158925000Y-95140625D01*
D12*
X156255000Y-92740625D02*
X156255000Y-94980625D01*
D14*
X156625000Y-94840625D02*
X156625000Y-93040626D01*
D15*
X157755000Y-91340625D02*
X157755000Y-93580625D01*
D12*
X161525000Y-93440625D02*
X166525000Y-93440625D01*
D16*
X164525000Y-91640625D02*
X157825000Y-91640625D01*
D17*
X165825000Y-90440625D02*
X165825000Y-92940625D01*
D13*
X166225000Y-93140625D02*
X164825000Y-93140625D01*
D12*
X166305000Y-92440625D02*
X166305000Y-90190625D01*
D18*
X166325000Y-90040625D02*
X164925000Y-90040625D01*
D12*
X166325000Y-90190625D02*
X166525000Y-90190625D01*
D18*
X166325000Y-92540625D02*
X166325000Y-93240625D01*
D12*
X166525000Y-89840625D02*
X158124999Y-89840625D01*
X166525000Y-90190625D02*
X166525000Y-89840625D01*
X166525000Y-92440625D02*
X166325000Y-92440625D01*
X166525000Y-93440625D02*
X166525000Y-92440625D01*
X156025000Y-91740626D02*
G75*
G02*
X158124999Y-89840624I1999999J-99997D01*
G01*
D17*
X158908682Y-94919154D02*
G75*
G02*
X161125000Y-93040625I2151317J-291470D01*
G01*
D12*
X159308682Y-95319154D02*
G75*
G02*
X161525000Y-93440625I2151317J-291470D01*
G01*
G04 #@! TO.C,S2*
X79825000Y-84596875D02*
X79825000Y-85596875D01*
X79825000Y-85596875D02*
X80025000Y-85596875D01*
X79825000Y-88196875D02*
X79825000Y-87836875D01*
X79825000Y-88196875D02*
X83105000Y-88196875D01*
D11*
X79925000Y-85496874D02*
X79925000Y-84596875D01*
D12*
X80025000Y-87836875D02*
X79825000Y-87836875D01*
D13*
X80025000Y-87996875D02*
X82725000Y-87996875D01*
D12*
X80055000Y-85596875D02*
X80055000Y-87836875D01*
D14*
X80425000Y-87696875D02*
X80425000Y-85896876D01*
D15*
X81555000Y-84196875D02*
X81555000Y-86436875D01*
D12*
X85325000Y-86296875D02*
X90325000Y-86296875D01*
D16*
X88325000Y-84496875D02*
X81625000Y-84496875D01*
D17*
X89625000Y-83296875D02*
X89625000Y-85796875D01*
D13*
X90025000Y-85996875D02*
X88625000Y-85996875D01*
D12*
X90105000Y-85296875D02*
X90105000Y-83046875D01*
D18*
X90125000Y-82896875D02*
X88725000Y-82896875D01*
D12*
X90125000Y-83046875D02*
X90325000Y-83046875D01*
D18*
X90125000Y-85396875D02*
X90125000Y-86096875D01*
D12*
X90325000Y-82696875D02*
X81924999Y-82696875D01*
X90325000Y-83046875D02*
X90325000Y-82696875D01*
X90325000Y-85296875D02*
X90125000Y-85296875D01*
X90325000Y-86296875D02*
X90325000Y-85296875D01*
X79825000Y-84596876D02*
G75*
G02*
X81924999Y-82696874I1999999J-99997D01*
G01*
D17*
X82708682Y-87775404D02*
G75*
G02*
X84925000Y-85896875I2151317J-291470D01*
G01*
D12*
X83108682Y-88175404D02*
G75*
G02*
X85325000Y-86296875I2151317J-291470D01*
G01*
G04 #@! TO.C,S12*
X189352950Y-124125497D02*
X189532950Y-123813728D01*
X189352950Y-124125497D02*
X192193513Y-125765497D01*
D13*
X189626155Y-124052292D02*
X191964424Y-125402292D01*
D12*
X189706155Y-123913728D02*
X189532950Y-123813728D01*
D14*
X190122565Y-123992484D02*
X191022565Y-122433639D01*
D12*
X190652950Y-121873831D02*
X190826155Y-121973831D01*
D11*
X190789553Y-121837228D02*
X191239553Y-121057806D01*
D12*
X190852136Y-121988831D02*
X189732136Y-123928728D01*
X191152950Y-121007806D02*
X190652950Y-121873831D01*
D15*
X192851174Y-121526395D02*
X191731174Y-123466292D01*
D12*
X195066090Y-125230049D02*
X199396217Y-127730049D01*
D16*
X198564166Y-125171203D02*
X192761796Y-121821203D01*
D13*
X199286409Y-127320241D02*
X198073974Y-126620241D01*
D12*
X199396217Y-127730049D02*
X199896217Y-126864023D01*
D18*
X199673012Y-126850626D02*
X199323012Y-127456844D01*
D12*
X199705691Y-126754023D02*
X200830691Y-124805466D01*
X199896217Y-126864023D02*
X199723012Y-126764023D01*
D17*
X200289999Y-124781973D02*
X199039999Y-126947036D01*
D12*
X200848012Y-124815466D02*
X201021217Y-124915466D01*
D18*
X200923012Y-124685562D02*
X199710576Y-123985562D01*
D12*
X201021217Y-124915466D02*
X201196217Y-124612357D01*
X201196217Y-124612357D02*
X193921603Y-120412357D01*
X191152950Y-121007806D02*
G75*
G02*
X193921603Y-120412357I1682050J-1086598D01*
G01*
D17*
X192061027Y-125202333D02*
G75*
G02*
X194919680Y-124683639I1717362J-1328087D01*
G01*
D12*
X192207438Y-125748744D02*
G75*
G02*
X195066090Y-125230049I1717361J-1328081D01*
G01*
G04 #@! TO.C,S3*
X79825000Y-103646875D02*
X79825000Y-104646875D01*
X79825000Y-104646875D02*
X80025000Y-104646875D01*
X79825000Y-107246875D02*
X79825000Y-106886875D01*
X79825000Y-107246875D02*
X83105000Y-107246875D01*
D11*
X79925000Y-104546874D02*
X79925000Y-103646875D01*
D12*
X80025000Y-106886875D02*
X79825000Y-106886875D01*
D13*
X80025000Y-107046875D02*
X82725000Y-107046875D01*
D12*
X80055000Y-104646875D02*
X80055000Y-106886875D01*
D14*
X80425000Y-106746875D02*
X80425000Y-104946876D01*
D15*
X81555000Y-103246875D02*
X81555000Y-105486875D01*
D12*
X85325000Y-105346875D02*
X90325000Y-105346875D01*
D16*
X88325000Y-103546875D02*
X81625000Y-103546875D01*
D17*
X89625000Y-102346875D02*
X89625000Y-104846875D01*
D13*
X90025000Y-105046875D02*
X88625000Y-105046875D01*
D12*
X90105000Y-104346875D02*
X90105000Y-102096875D01*
D18*
X90125000Y-101946875D02*
X88725000Y-101946875D01*
D12*
X90125000Y-102096875D02*
X90325000Y-102096875D01*
D18*
X90125000Y-104446875D02*
X90125000Y-105146875D01*
D12*
X90325000Y-101746875D02*
X81924999Y-101746875D01*
X90325000Y-102096875D02*
X90325000Y-101746875D01*
X90325000Y-104346875D02*
X90125000Y-104346875D01*
X90325000Y-105346875D02*
X90325000Y-104346875D01*
X79825000Y-103646876D02*
G75*
G02*
X81924999Y-101746874I1999999J-99997D01*
G01*
D17*
X82708682Y-106825404D02*
G75*
G02*
X84925000Y-104946875I2151317J-291470D01*
G01*
D12*
X83108682Y-107225404D02*
G75*
G02*
X85325000Y-105346875I2151317J-291470D01*
G01*
G04 #@! TO.C,S4*
X146500000Y-111913750D02*
X146500000Y-112913750D01*
X146500000Y-112913750D02*
X146700000Y-112913750D01*
X146500000Y-115513750D02*
X146500000Y-115153750D01*
X146500000Y-115513750D02*
X149780000Y-115513750D01*
D11*
X146600000Y-112813749D02*
X146600000Y-111913750D01*
D12*
X146700000Y-115153750D02*
X146500000Y-115153750D01*
D13*
X146700000Y-115313750D02*
X149400000Y-115313750D01*
D12*
X146730000Y-112913750D02*
X146730000Y-115153750D01*
D14*
X147100000Y-115013750D02*
X147100000Y-113213751D01*
D15*
X148230000Y-111513750D02*
X148230000Y-113753750D01*
D12*
X152000000Y-113613750D02*
X157000000Y-113613750D01*
D16*
X155000000Y-111813750D02*
X148300000Y-111813750D01*
D17*
X156300000Y-110613750D02*
X156300000Y-113113750D01*
D13*
X156700000Y-113313750D02*
X155300000Y-113313750D01*
D12*
X156780000Y-112613750D02*
X156780000Y-110363750D01*
D18*
X156800000Y-110213750D02*
X155400000Y-110213750D01*
D12*
X156800000Y-110363750D02*
X157000000Y-110363750D01*
D18*
X156800000Y-112713750D02*
X156800000Y-113413750D01*
D12*
X157000000Y-110013750D02*
X148599999Y-110013750D01*
X157000000Y-110363750D02*
X157000000Y-110013750D01*
X157000000Y-112613750D02*
X156800000Y-112613750D01*
X157000000Y-113613750D02*
X157000000Y-112613750D01*
X146500000Y-111913751D02*
G75*
G02*
X148599999Y-110013749I1999999J-99997D01*
G01*
D17*
X149383682Y-115092279D02*
G75*
G02*
X151600000Y-113213750I2151317J-291470D01*
G01*
D12*
X149783682Y-115492279D02*
G75*
G02*
X152000000Y-113613750I2151317J-291470D01*
G01*
G04 #@! TO.C,S19*
X175075000Y-56021875D02*
X175075000Y-57021875D01*
X175075000Y-57021875D02*
X175275000Y-57021875D01*
X175075000Y-59621875D02*
X175075000Y-59261875D01*
X175075000Y-59621875D02*
X178355000Y-59621875D01*
D11*
X175175000Y-56921874D02*
X175175000Y-56021875D01*
D12*
X175275000Y-59261875D02*
X175075000Y-59261875D01*
D13*
X175275000Y-59421875D02*
X177975000Y-59421875D01*
D12*
X175305000Y-57021875D02*
X175305000Y-59261875D01*
D14*
X175675000Y-59121875D02*
X175675000Y-57321876D01*
D15*
X176805000Y-55621875D02*
X176805000Y-57861875D01*
D12*
X180575000Y-57721875D02*
X185575000Y-57721875D01*
D16*
X183575000Y-55921875D02*
X176875000Y-55921875D01*
D17*
X184875000Y-54721875D02*
X184875000Y-57221875D01*
D13*
X185275000Y-57421875D02*
X183875000Y-57421875D01*
D12*
X185355000Y-56721875D02*
X185355000Y-54471875D01*
D18*
X185375000Y-54321875D02*
X183975000Y-54321875D01*
D12*
X185375000Y-54471875D02*
X185575000Y-54471875D01*
D18*
X185375000Y-56821875D02*
X185375000Y-57521875D01*
D12*
X185575000Y-54121875D02*
X177174999Y-54121875D01*
X185575000Y-54471875D02*
X185575000Y-54121875D01*
X185575000Y-56721875D02*
X185375000Y-56721875D01*
X185575000Y-57721875D02*
X185575000Y-56721875D01*
X175075000Y-56021876D02*
G75*
G02*
X177174999Y-54121874I1999999J-99997D01*
G01*
D17*
X177958682Y-59200404D02*
G75*
G02*
X180175000Y-57321875I2151317J-291470D01*
G01*
D12*
X178358682Y-59600404D02*
G75*
G02*
X180575000Y-57721875I2151317J-291470D01*
G01*
G04 #@! TO.C,S21*
X175075000Y-94121875D02*
X175075000Y-95121875D01*
X175075000Y-95121875D02*
X175275000Y-95121875D01*
X175075000Y-97721875D02*
X175075000Y-97361875D01*
X175075000Y-97721875D02*
X178355000Y-97721875D01*
D11*
X175175000Y-95021874D02*
X175175000Y-94121875D01*
D12*
X175275000Y-97361875D02*
X175075000Y-97361875D01*
D13*
X175275000Y-97521875D02*
X177975000Y-97521875D01*
D12*
X175305000Y-95121875D02*
X175305000Y-97361875D01*
D14*
X175675000Y-97221875D02*
X175675000Y-95421876D01*
D15*
X176805000Y-93721875D02*
X176805000Y-95961875D01*
D12*
X180575000Y-95821875D02*
X185575000Y-95821875D01*
D16*
X183575000Y-94021875D02*
X176875000Y-94021875D01*
D17*
X184875000Y-92821875D02*
X184875000Y-95321875D01*
D13*
X185275000Y-95521875D02*
X183875000Y-95521875D01*
D12*
X185355000Y-94821875D02*
X185355000Y-92571875D01*
D18*
X185375000Y-92421875D02*
X183975000Y-92421875D01*
D12*
X185375000Y-92571875D02*
X185575000Y-92571875D01*
D18*
X185375000Y-94921875D02*
X185375000Y-95621875D01*
D12*
X185575000Y-92221875D02*
X177174999Y-92221875D01*
X185575000Y-92571875D02*
X185575000Y-92221875D01*
X185575000Y-94821875D02*
X185375000Y-94821875D01*
X185575000Y-95821875D02*
X185575000Y-94821875D01*
X175075000Y-94121876D02*
G75*
G02*
X177174999Y-92221874I1999999J-99997D01*
G01*
D17*
X177958682Y-97300404D02*
G75*
G02*
X180175000Y-95421875I2151317J-291470D01*
G01*
D12*
X178358682Y-97700404D02*
G75*
G02*
X180575000Y-95821875I2151317J-291470D01*
G01*
G04 #@! TO.C,S9*
X117925000Y-53640625D02*
X117925000Y-54640625D01*
X117925000Y-54640625D02*
X118125000Y-54640625D01*
X117925000Y-57240625D02*
X117925000Y-56880625D01*
X117925000Y-57240625D02*
X121205000Y-57240625D01*
D11*
X118025000Y-54540624D02*
X118025000Y-53640625D01*
D12*
X118125000Y-56880625D02*
X117925000Y-56880625D01*
D13*
X118125000Y-57040625D02*
X120825000Y-57040625D01*
D12*
X118155000Y-54640625D02*
X118155000Y-56880625D01*
D14*
X118525000Y-56740625D02*
X118525000Y-54940626D01*
D15*
X119655000Y-53240625D02*
X119655000Y-55480625D01*
D12*
X123425000Y-55340625D02*
X128425000Y-55340625D01*
D16*
X126425000Y-53540625D02*
X119725000Y-53540625D01*
D17*
X127725000Y-52340625D02*
X127725000Y-54840625D01*
D13*
X128125000Y-55040625D02*
X126725000Y-55040625D01*
D12*
X128205000Y-54340625D02*
X128205000Y-52090625D01*
D18*
X128225000Y-51940625D02*
X126825000Y-51940625D01*
D12*
X128225000Y-52090625D02*
X128425000Y-52090625D01*
D18*
X128225000Y-54440625D02*
X128225000Y-55140625D01*
D12*
X128425000Y-51740625D02*
X120024999Y-51740625D01*
X128425000Y-52090625D02*
X128425000Y-51740625D01*
X128425000Y-54340625D02*
X128225000Y-54340625D01*
X128425000Y-55340625D02*
X128425000Y-54340625D01*
X117925000Y-53640626D02*
G75*
G02*
X120024999Y-51740624I1999999J-99997D01*
G01*
D17*
X120808682Y-56819154D02*
G75*
G02*
X123025000Y-54940625I2151317J-291470D01*
G01*
D12*
X121208682Y-57219154D02*
G75*
G02*
X123425000Y-55340625I2151317J-291470D01*
G01*
G04 #@! TO.C,S10*
X117925000Y-72690625D02*
X117925000Y-73690625D01*
X117925000Y-73690625D02*
X118125000Y-73690625D01*
X117925000Y-76290625D02*
X117925000Y-75930625D01*
X117925000Y-76290625D02*
X121205000Y-76290625D01*
D11*
X118025000Y-73590624D02*
X118025000Y-72690625D01*
D12*
X118125000Y-75930625D02*
X117925000Y-75930625D01*
D13*
X118125000Y-76090625D02*
X120825000Y-76090625D01*
D12*
X118155000Y-73690625D02*
X118155000Y-75930625D01*
D14*
X118525000Y-75790625D02*
X118525000Y-73990626D01*
D15*
X119655000Y-72290625D02*
X119655000Y-74530625D01*
D12*
X123425000Y-74390625D02*
X128425000Y-74390625D01*
D16*
X126425000Y-72590625D02*
X119725000Y-72590625D01*
D17*
X127725000Y-71390625D02*
X127725000Y-73890625D01*
D13*
X128125000Y-74090625D02*
X126725000Y-74090625D01*
D12*
X128205000Y-73390625D02*
X128205000Y-71140625D01*
D18*
X128225000Y-70990625D02*
X126825000Y-70990625D01*
D12*
X128225000Y-71140625D02*
X128425000Y-71140625D01*
D18*
X128225000Y-73490625D02*
X128225000Y-74190625D01*
D12*
X128425000Y-70790625D02*
X120024999Y-70790625D01*
X128425000Y-71140625D02*
X128425000Y-70790625D01*
X128425000Y-73390625D02*
X128225000Y-73390625D01*
X128425000Y-74390625D02*
X128425000Y-73390625D01*
X117925000Y-72690626D02*
G75*
G02*
X120024999Y-70790624I1999999J-99997D01*
G01*
D17*
X120808682Y-75869154D02*
G75*
G02*
X123025000Y-73990625I2151317J-291470D01*
G01*
D12*
X121208682Y-76269154D02*
G75*
G02*
X123425000Y-74390625I2151317J-291470D01*
G01*
G04 #@! TO.C,S6*
X98875000Y-84596875D02*
X98875000Y-85596875D01*
X98875000Y-85596875D02*
X99075000Y-85596875D01*
X98875000Y-88196875D02*
X98875000Y-87836875D01*
X98875000Y-88196875D02*
X102155000Y-88196875D01*
D11*
X98975000Y-85496874D02*
X98975000Y-84596875D01*
D12*
X99075000Y-87836875D02*
X98875000Y-87836875D01*
D13*
X99075000Y-87996875D02*
X101775000Y-87996875D01*
D12*
X99105000Y-85596875D02*
X99105000Y-87836875D01*
D14*
X99475000Y-87696875D02*
X99475000Y-85896876D01*
D15*
X100605000Y-84196875D02*
X100605000Y-86436875D01*
D12*
X104375000Y-86296875D02*
X109375000Y-86296875D01*
D16*
X107375000Y-84496875D02*
X100675000Y-84496875D01*
D17*
X108675000Y-83296875D02*
X108675000Y-85796875D01*
D13*
X109075000Y-85996875D02*
X107675000Y-85996875D01*
D12*
X109155000Y-85296875D02*
X109155000Y-83046875D01*
D18*
X109175000Y-82896875D02*
X107775000Y-82896875D01*
D12*
X109175000Y-83046875D02*
X109375000Y-83046875D01*
D18*
X109175000Y-85396875D02*
X109175000Y-86096875D01*
D12*
X109375000Y-82696875D02*
X100974999Y-82696875D01*
X109375000Y-83046875D02*
X109375000Y-82696875D01*
X109375000Y-85296875D02*
X109175000Y-85296875D01*
X109375000Y-86296875D02*
X109375000Y-85296875D01*
X98875000Y-84596876D02*
G75*
G02*
X100974999Y-82696874I1999999J-99997D01*
G01*
D17*
X101758682Y-87775404D02*
G75*
G02*
X103975000Y-85896875I2151317J-291470D01*
G01*
D12*
X102158682Y-88175404D02*
G75*
G02*
X104375000Y-86296875I2151317J-291470D01*
G01*
G04 #@! TO.C,S8*
X168416989Y-116938574D02*
X168510163Y-116590841D01*
X168416989Y-116938574D02*
X171585225Y-117787501D01*
D13*
X168661938Y-116797153D02*
X171269937Y-117495964D01*
D12*
X168703349Y-116642605D02*
X168510163Y-116590841D01*
X169089918Y-114427167D02*
X169283103Y-114478931D01*
D14*
X169125954Y-116610903D02*
X169591828Y-114872237D01*
D11*
X169212393Y-114356455D02*
X169445330Y-113487123D01*
D12*
X169312081Y-114486695D02*
X168732326Y-116650369D01*
X169348737Y-113461241D02*
X169089918Y-114427167D01*
D15*
X171123316Y-113522628D02*
X170543562Y-115686302D01*
D12*
X174221337Y-116526820D02*
X179050966Y-117820915D01*
D16*
X177584990Y-115564611D02*
X171113286Y-113830523D01*
D13*
X178838834Y-117453492D02*
X177486538Y-117091145D01*
D12*
X179050966Y-117820915D02*
X179309785Y-116854989D01*
D18*
X179090718Y-116899818D02*
X178909545Y-117575966D01*
D12*
X179097281Y-116798049D02*
X179679624Y-114624716D01*
D17*
X179151275Y-114741964D02*
X178504227Y-117156779D01*
D12*
X179309785Y-116854989D02*
X179116600Y-116803225D01*
X179698943Y-114629892D02*
X179892128Y-114681656D01*
D18*
X179737766Y-114485004D02*
X178385469Y-114122657D01*
D12*
X179892128Y-114681656D02*
X179982714Y-114343582D01*
X179982714Y-114343582D02*
X171868937Y-112169502D01*
X169348737Y-113461242D02*
G75*
G02*
X171868937Y-112169502I1905970J-614230D01*
G01*
D17*
X171311496Y-117277816D02*
G75*
G02*
X173938494Y-116036922I2002575J-838341D01*
G01*
D12*
X171594339Y-117767714D02*
G75*
G02*
X174221337Y-116526820I2002571J-838333D01*
G01*
G04 #@! TO.C,S7*
X98875000Y-103646875D02*
X98875000Y-104646875D01*
X98875000Y-104646875D02*
X99075000Y-104646875D01*
X98875000Y-107246875D02*
X98875000Y-106886875D01*
X98875000Y-107246875D02*
X102155000Y-107246875D01*
D11*
X98975000Y-104546874D02*
X98975000Y-103646875D01*
D12*
X99075000Y-106886875D02*
X98875000Y-106886875D01*
D13*
X99075000Y-107046875D02*
X101775000Y-107046875D01*
D12*
X99105000Y-104646875D02*
X99105000Y-106886875D01*
D14*
X99475000Y-106746875D02*
X99475000Y-104946876D01*
D15*
X100605000Y-103246875D02*
X100605000Y-105486875D01*
D12*
X104375000Y-105346875D02*
X109375000Y-105346875D01*
D16*
X107375000Y-103546875D02*
X100675000Y-103546875D01*
D17*
X108675000Y-102346875D02*
X108675000Y-104846875D01*
D13*
X109075000Y-105046875D02*
X107675000Y-105046875D01*
D12*
X109155000Y-104346875D02*
X109155000Y-102096875D01*
D18*
X109175000Y-101946875D02*
X107775000Y-101946875D01*
D12*
X109175000Y-102096875D02*
X109375000Y-102096875D01*
D18*
X109175000Y-104446875D02*
X109175000Y-105146875D01*
D12*
X109375000Y-101746875D02*
X100974999Y-101746875D01*
X109375000Y-102096875D02*
X109375000Y-101746875D01*
X109375000Y-104346875D02*
X109175000Y-104346875D01*
X109375000Y-105346875D02*
X109375000Y-104346875D01*
X98875000Y-103646876D02*
G75*
G02*
X100974999Y-101746874I1999999J-99997D01*
G01*
D17*
X101758682Y-106825404D02*
G75*
G02*
X103975000Y-104946875I2151317J-291470D01*
G01*
D12*
X102158682Y-107225404D02*
G75*
G02*
X104375000Y-105346875I2151317J-291470D01*
G01*
G04 #@! TO.C,S14*
X136975000Y-70309375D02*
X136975000Y-71309375D01*
X136975000Y-71309375D02*
X137175000Y-71309375D01*
X136975000Y-73909375D02*
X136975000Y-73549375D01*
X136975000Y-73909375D02*
X140255000Y-73909375D01*
D11*
X137075000Y-71209374D02*
X137075000Y-70309375D01*
D12*
X137175000Y-73549375D02*
X136975000Y-73549375D01*
D13*
X137175000Y-73709375D02*
X139875000Y-73709375D01*
D12*
X137205000Y-71309375D02*
X137205000Y-73549375D01*
D14*
X137575000Y-73409375D02*
X137575000Y-71609376D01*
D15*
X138705000Y-69909375D02*
X138705000Y-72149375D01*
D12*
X142475000Y-72009375D02*
X147475000Y-72009375D01*
D16*
X145475000Y-70209375D02*
X138775000Y-70209375D01*
D17*
X146775000Y-69009375D02*
X146775000Y-71509375D01*
D13*
X147175000Y-71709375D02*
X145775000Y-71709375D01*
D12*
X147255000Y-71009375D02*
X147255000Y-68759375D01*
D18*
X147275000Y-68609375D02*
X145875000Y-68609375D01*
D12*
X147275000Y-68759375D02*
X147475000Y-68759375D01*
D18*
X147275000Y-71109375D02*
X147275000Y-71809375D01*
D12*
X147475000Y-68409375D02*
X139074999Y-68409375D01*
X147475000Y-68759375D02*
X147475000Y-68409375D01*
X147475000Y-71009375D02*
X147275000Y-71009375D01*
X147475000Y-72009375D02*
X147475000Y-71009375D01*
X136975000Y-70309376D02*
G75*
G02*
X139074999Y-68409374I1999999J-99997D01*
G01*
D17*
X139858682Y-73487904D02*
G75*
G02*
X142075000Y-71609375I2151317J-291470D01*
G01*
D12*
X140258682Y-73887904D02*
G75*
G02*
X142475000Y-72009375I2151317J-291470D01*
G01*
G04 #@! TO.C,S20*
X175075000Y-75071875D02*
X175075000Y-76071875D01*
X175075000Y-76071875D02*
X175275000Y-76071875D01*
X175075000Y-78671875D02*
X175075000Y-78311875D01*
X175075000Y-78671875D02*
X178355000Y-78671875D01*
D11*
X175175000Y-75971874D02*
X175175000Y-75071875D01*
D12*
X175275000Y-78311875D02*
X175075000Y-78311875D01*
D13*
X175275000Y-78471875D02*
X177975000Y-78471875D01*
D12*
X175305000Y-76071875D02*
X175305000Y-78311875D01*
D14*
X175675000Y-78171875D02*
X175675000Y-76371876D01*
D15*
X176805000Y-74671875D02*
X176805000Y-76911875D01*
D12*
X180575000Y-76771875D02*
X185575000Y-76771875D01*
D16*
X183575000Y-74971875D02*
X176875000Y-74971875D01*
D17*
X184875000Y-73771875D02*
X184875000Y-76271875D01*
D13*
X185275000Y-76471875D02*
X183875000Y-76471875D01*
D12*
X185355000Y-75771875D02*
X185355000Y-73521875D01*
D18*
X185375000Y-73371875D02*
X183975000Y-73371875D01*
D12*
X185375000Y-73521875D02*
X185575000Y-73521875D01*
D18*
X185375000Y-75871875D02*
X185375000Y-76571875D01*
D12*
X185575000Y-73171875D02*
X177174999Y-73171875D01*
X185575000Y-73521875D02*
X185575000Y-73171875D01*
X185575000Y-75771875D02*
X185375000Y-75771875D01*
X185575000Y-76771875D02*
X185575000Y-75771875D01*
X175075000Y-75071876D02*
G75*
G02*
X177174999Y-73171874I1999999J-99997D01*
G01*
D17*
X177958682Y-78250404D02*
G75*
G02*
X180175000Y-76371875I2151317J-291470D01*
G01*
D12*
X178358682Y-78650404D02*
G75*
G02*
X180575000Y-76771875I2151317J-291470D01*
G01*
G04 #@! TO.C,S1*
X79825000Y-65546875D02*
X79825000Y-66546875D01*
X79825000Y-66546875D02*
X80025000Y-66546875D01*
X79825000Y-69146875D02*
X79825000Y-68786875D01*
X79825000Y-69146875D02*
X83105000Y-69146875D01*
D11*
X79925000Y-66446874D02*
X79925000Y-65546875D01*
D12*
X80025000Y-68786875D02*
X79825000Y-68786875D01*
D13*
X80025000Y-68946875D02*
X82725000Y-68946875D01*
D12*
X80055000Y-66546875D02*
X80055000Y-68786875D01*
D14*
X80425000Y-68646875D02*
X80425000Y-66846876D01*
D15*
X81555000Y-65146875D02*
X81555000Y-67386875D01*
D12*
X85325000Y-67246875D02*
X90325000Y-67246875D01*
D16*
X88325000Y-65446875D02*
X81625000Y-65446875D01*
D17*
X89625000Y-64246875D02*
X89625000Y-66746875D01*
D13*
X90025000Y-66946875D02*
X88625000Y-66946875D01*
D12*
X90105000Y-66246875D02*
X90105000Y-63996875D01*
D18*
X90125000Y-63846875D02*
X88725000Y-63846875D01*
D12*
X90125000Y-63996875D02*
X90325000Y-63996875D01*
D18*
X90125000Y-66346875D02*
X90125000Y-67046875D01*
D12*
X90325000Y-63646875D02*
X81924999Y-63646875D01*
X90325000Y-63996875D02*
X90325000Y-63646875D01*
X90325000Y-66246875D02*
X90125000Y-66246875D01*
X90325000Y-67246875D02*
X90325000Y-66246875D01*
X79825000Y-65546876D02*
G75*
G02*
X81924999Y-63646874I1999999J-99997D01*
G01*
D17*
X82708682Y-68725404D02*
G75*
G02*
X84925000Y-66846875I2151317J-291470D01*
G01*
D12*
X83108682Y-69125404D02*
G75*
G02*
X85325000Y-67246875I2151317J-291470D01*
G01*
G04 #@! TO.C,U1*
D11*
X195787500Y-46890000D02*
X198787500Y-46890000D01*
X198787500Y-97890000D01*
X195787500Y-97890000D01*
X195787500Y-46890000D01*
X213787500Y-46890000D02*
X216787500Y-46890000D01*
X216787500Y-97890000D01*
X213787500Y-97890000D01*
X213787500Y-46890000D01*
D12*
G04 #@! TO.C,S13*
X136975000Y-51259375D02*
X136975000Y-52259375D01*
X136975000Y-52259375D02*
X137175000Y-52259375D01*
X136975000Y-54859375D02*
X136975000Y-54499375D01*
X136975000Y-54859375D02*
X140255000Y-54859375D01*
D11*
X137075000Y-52159374D02*
X137075000Y-51259375D01*
D12*
X137175000Y-54499375D02*
X136975000Y-54499375D01*
D13*
X137175000Y-54659375D02*
X139875000Y-54659375D01*
D12*
X137205000Y-52259375D02*
X137205000Y-54499375D01*
D14*
X137575000Y-54359375D02*
X137575000Y-52559376D01*
D15*
X138705000Y-50859375D02*
X138705000Y-53099375D01*
D12*
X142475000Y-52959375D02*
X147475000Y-52959375D01*
D16*
X145475000Y-51159375D02*
X138775000Y-51159375D01*
D17*
X146775000Y-49959375D02*
X146775000Y-52459375D01*
D13*
X147175000Y-52659375D02*
X145775000Y-52659375D01*
D12*
X147255000Y-51959375D02*
X147255000Y-49709375D01*
D18*
X147275000Y-49559375D02*
X145875000Y-49559375D01*
D12*
X147275000Y-49709375D02*
X147475000Y-49709375D01*
D18*
X147275000Y-52059375D02*
X147275000Y-52759375D01*
D12*
X147475000Y-49359375D02*
X139074999Y-49359375D01*
X147475000Y-49709375D02*
X147475000Y-49359375D01*
X147475000Y-51959375D02*
X147275000Y-51959375D01*
X147475000Y-52959375D02*
X147475000Y-51959375D01*
X136975000Y-51259376D02*
G75*
G02*
X139074999Y-49359374I1999999J-99997D01*
G01*
D17*
X139858682Y-54437904D02*
G75*
G02*
X142075000Y-52559375I2151317J-291470D01*
G01*
D12*
X140258682Y-54837904D02*
G75*
G02*
X142475000Y-52959375I2151317J-291470D01*
G01*
G04 #@! TO.C,S5*
X98875000Y-65546875D02*
X98875000Y-66546875D01*
X98875000Y-66546875D02*
X99075000Y-66546875D01*
X98875000Y-69146875D02*
X98875000Y-68786875D01*
X98875000Y-69146875D02*
X102155000Y-69146875D01*
D11*
X98975000Y-66446874D02*
X98975000Y-65546875D01*
D12*
X99075000Y-68786875D02*
X98875000Y-68786875D01*
D13*
X99075000Y-68946875D02*
X101775000Y-68946875D01*
D12*
X99105000Y-66546875D02*
X99105000Y-68786875D01*
D14*
X99475000Y-68646875D02*
X99475000Y-66846876D01*
D15*
X100605000Y-65146875D02*
X100605000Y-67386875D01*
D12*
X104375000Y-67246875D02*
X109375000Y-67246875D01*
D16*
X107375000Y-65446875D02*
X100675000Y-65446875D01*
D17*
X108675000Y-64246875D02*
X108675000Y-66746875D01*
D13*
X109075000Y-66946875D02*
X107675000Y-66946875D01*
D12*
X109155000Y-66246875D02*
X109155000Y-63996875D01*
D18*
X109175000Y-63846875D02*
X107775000Y-63846875D01*
D12*
X109175000Y-63996875D02*
X109375000Y-63996875D01*
D18*
X109175000Y-66346875D02*
X109175000Y-67046875D01*
D12*
X109375000Y-63646875D02*
X100974999Y-63646875D01*
X109375000Y-63996875D02*
X109375000Y-63646875D01*
X109375000Y-66246875D02*
X109175000Y-66246875D01*
X109375000Y-67246875D02*
X109375000Y-66246875D01*
X98875000Y-65546876D02*
G75*
G02*
X100974999Y-63646874I1999999J-99997D01*
G01*
D17*
X101758682Y-68725404D02*
G75*
G02*
X103975000Y-66846875I2151317J-291470D01*
G01*
D12*
X102158682Y-69125404D02*
G75*
G02*
X104375000Y-67246875I2151317J-291470D01*
G01*
G04 #@! TO.C,S15*
X136975000Y-89359375D02*
X136975000Y-90359375D01*
X136975000Y-90359375D02*
X137175000Y-90359375D01*
X136975000Y-92959375D02*
X136975000Y-92599375D01*
X136975000Y-92959375D02*
X140255000Y-92959375D01*
D11*
X137075000Y-90259374D02*
X137075000Y-89359375D01*
D12*
X137175000Y-92599375D02*
X136975000Y-92599375D01*
D13*
X137175000Y-92759375D02*
X139875000Y-92759375D01*
D12*
X137205000Y-90359375D02*
X137205000Y-92599375D01*
D14*
X137575000Y-92459375D02*
X137575000Y-90659376D01*
D15*
X138705000Y-88959375D02*
X138705000Y-91199375D01*
D12*
X142475000Y-91059375D02*
X147475000Y-91059375D01*
D16*
X145475000Y-89259375D02*
X138775000Y-89259375D01*
D17*
X146775000Y-88059375D02*
X146775000Y-90559375D01*
D13*
X147175000Y-90759375D02*
X145775000Y-90759375D01*
D12*
X147255000Y-90059375D02*
X147255000Y-87809375D01*
D18*
X147275000Y-87659375D02*
X145875000Y-87659375D01*
D12*
X147275000Y-87809375D02*
X147475000Y-87809375D01*
D18*
X147275000Y-90159375D02*
X147275000Y-90859375D01*
D12*
X147475000Y-87459375D02*
X139074999Y-87459375D01*
X147475000Y-87809375D02*
X147475000Y-87459375D01*
X147475000Y-90059375D02*
X147275000Y-90059375D01*
X147475000Y-91059375D02*
X147475000Y-90059375D01*
X136975000Y-89359376D02*
G75*
G02*
X139074999Y-87459374I1999999J-99997D01*
G01*
D17*
X139858682Y-92537904D02*
G75*
G02*
X142075000Y-90659375I2151317J-291470D01*
G01*
D12*
X140258682Y-92937904D02*
G75*
G02*
X142475000Y-91059375I2151317J-291470D01*
G01*
G04 #@! TO.C,S17*
X156025000Y-72690625D02*
X156025000Y-73690625D01*
X156025000Y-73690625D02*
X156225000Y-73690625D01*
X156025000Y-76290625D02*
X156025000Y-75930625D01*
X156025000Y-76290625D02*
X159305000Y-76290625D01*
D11*
X156125000Y-73590624D02*
X156125000Y-72690625D01*
D12*
X156225000Y-75930625D02*
X156025000Y-75930625D01*
D13*
X156225000Y-76090625D02*
X158925000Y-76090625D01*
D12*
X156255000Y-73690625D02*
X156255000Y-75930625D01*
D14*
X156625000Y-75790625D02*
X156625000Y-73990626D01*
D15*
X157755000Y-72290625D02*
X157755000Y-74530625D01*
D12*
X161525000Y-74390625D02*
X166525000Y-74390625D01*
D16*
X164525000Y-72590625D02*
X157825000Y-72590625D01*
D17*
X165825000Y-71390625D02*
X165825000Y-73890625D01*
D13*
X166225000Y-74090625D02*
X164825000Y-74090625D01*
D12*
X166305000Y-73390625D02*
X166305000Y-71140625D01*
D18*
X166325000Y-70990625D02*
X164925000Y-70990625D01*
D12*
X166325000Y-71140625D02*
X166525000Y-71140625D01*
D18*
X166325000Y-73490625D02*
X166325000Y-74190625D01*
D12*
X166525000Y-70790625D02*
X158124999Y-70790625D01*
X166525000Y-71140625D02*
X166525000Y-70790625D01*
X166525000Y-73390625D02*
X166325000Y-73390625D01*
X166525000Y-74390625D02*
X166525000Y-73390625D01*
X156025000Y-72690626D02*
G75*
G02*
X158124999Y-70790624I1999999J-99997D01*
G01*
D17*
X158908682Y-75869154D02*
G75*
G02*
X161125000Y-73990625I2151317J-291470D01*
G01*
D12*
X159308682Y-76269154D02*
G75*
G02*
X161525000Y-74390625I2151317J-291470D01*
G01*
G04 #@! TO.C,S11*
X117925000Y-91740625D02*
X117925000Y-92740625D01*
X117925000Y-92740625D02*
X118125000Y-92740625D01*
X117925000Y-95340625D02*
X117925000Y-94980625D01*
X117925000Y-95340625D02*
X121205000Y-95340625D01*
D11*
X118025000Y-92640624D02*
X118025000Y-91740625D01*
D12*
X118125000Y-94980625D02*
X117925000Y-94980625D01*
D13*
X118125000Y-95140625D02*
X120825000Y-95140625D01*
D12*
X118155000Y-92740625D02*
X118155000Y-94980625D01*
D14*
X118525000Y-94840625D02*
X118525000Y-93040626D01*
D15*
X119655000Y-91340625D02*
X119655000Y-93580625D01*
D12*
X123425000Y-93440625D02*
X128425000Y-93440625D01*
D16*
X126425000Y-91640625D02*
X119725000Y-91640625D01*
D17*
X127725000Y-90440625D02*
X127725000Y-92940625D01*
D13*
X128125000Y-93140625D02*
X126725000Y-93140625D01*
D12*
X128205000Y-92440625D02*
X128205000Y-90190625D01*
D18*
X128225000Y-90040625D02*
X126825000Y-90040625D01*
D12*
X128225000Y-90190625D02*
X128425000Y-90190625D01*
D18*
X128225000Y-92540625D02*
X128225000Y-93240625D01*
D12*
X128425000Y-89840625D02*
X120024999Y-89840625D01*
X128425000Y-90190625D02*
X128425000Y-89840625D01*
X128425000Y-92440625D02*
X128225000Y-92440625D01*
X128425000Y-93440625D02*
X128425000Y-92440625D01*
X117925000Y-91740626D02*
G75*
G02*
X120024999Y-89840624I1999999J-99997D01*
G01*
D17*
X120808682Y-94919154D02*
G75*
G02*
X123025000Y-93040625I2151317J-291470D01*
G01*
D12*
X121208682Y-95319154D02*
G75*
G02*
X123425000Y-93440625I2151317J-291470D01*
G01*
G04 #@! TO.C,S16*
X156025000Y-53640625D02*
X156025000Y-54640625D01*
X156025000Y-54640625D02*
X156225000Y-54640625D01*
X156025000Y-57240625D02*
X156025000Y-56880625D01*
X156025000Y-57240625D02*
X159305000Y-57240625D01*
D11*
X156125000Y-54540624D02*
X156125000Y-53640625D01*
D12*
X156225000Y-56880625D02*
X156025000Y-56880625D01*
D13*
X156225000Y-57040625D02*
X158925000Y-57040625D01*
D12*
X156255000Y-54640625D02*
X156255000Y-56880625D01*
D14*
X156625000Y-56740625D02*
X156625000Y-54940626D01*
D15*
X157755000Y-53240625D02*
X157755000Y-55480625D01*
D12*
X161525000Y-55340625D02*
X166525000Y-55340625D01*
D16*
X164525000Y-53540625D02*
X157825000Y-53540625D01*
D17*
X165825000Y-52340625D02*
X165825000Y-54840625D01*
D13*
X166225000Y-55040625D02*
X164825000Y-55040625D01*
D12*
X166305000Y-54340625D02*
X166305000Y-52090625D01*
D18*
X166325000Y-51940625D02*
X164925000Y-51940625D01*
D12*
X166325000Y-52090625D02*
X166525000Y-52090625D01*
D18*
X166325000Y-54440625D02*
X166325000Y-55140625D01*
D12*
X166525000Y-51740625D02*
X158124999Y-51740625D01*
X166525000Y-52090625D02*
X166525000Y-51740625D01*
X166525000Y-54340625D02*
X166325000Y-54340625D01*
X166525000Y-55340625D02*
X166525000Y-54340625D01*
X156025000Y-53640626D02*
G75*
G02*
X158124999Y-51740624I1999999J-99997D01*
G01*
D17*
X158908682Y-56819154D02*
G75*
G02*
X161125000Y-54940625I2151317J-291470D01*
G01*
D12*
X159308682Y-57219154D02*
G75*
G02*
X161525000Y-55340625I2151317J-291470D01*
G01*
G04 #@! TO.C,U3*
X209508623Y-111206089D02*
X215558623Y-100727182D01*
X214791377Y-114256090D02*
X209508623Y-111206089D01*
X214791377Y-114256090D02*
X220841377Y-103777182D01*
X216775129Y-99120133D02*
X215775129Y-100852182D01*
X220841377Y-103777182D02*
X215558623Y-100727182D01*
X221624871Y-101920132D02*
X216775129Y-99120133D01*
X221624871Y-101920132D02*
X220624871Y-103652182D01*
G04 #@! TD*
%LPC*%
D19*
G04 #@! TO.C,S18*
X156845000Y-96440625D03*
D20*
X158115000Y-93900625D03*
X159385000Y-91360625D03*
D21*
X161925000Y-96440625D03*
D22*
X161925000Y-96440625D03*
D20*
X164465000Y-91360625D03*
X165735000Y-93900624D03*
D19*
X167005000Y-96440625D03*
D23*
X154925000Y-93860625D03*
X167625000Y-91320625D03*
G04 #@! TD*
D19*
G04 #@! TO.C,S2*
X80645000Y-89296875D03*
D20*
X81915000Y-86756875D03*
X83185000Y-84216875D03*
D21*
X85725000Y-89296875D03*
D22*
X85725000Y-89296875D03*
D20*
X88265000Y-84216875D03*
X89535000Y-86756874D03*
D19*
X90805000Y-89296875D03*
D23*
X78725000Y-86716875D03*
X91425000Y-84176875D03*
G04 #@! TD*
D19*
G04 #@! TO.C,S12*
X189513091Y-125488125D03*
D20*
X191882943Y-123923420D03*
X194252795Y-122358716D03*
D21*
X193912500Y-128028125D03*
D22*
X193912500Y-128028125D03*
D20*
X198652205Y-124898716D03*
X198482057Y-127733420D03*
D19*
X198311909Y-130568125D03*
D24*
X189140322Y-122293779D03*
X201408845Y-126444075D03*
G04 #@! TD*
D19*
G04 #@! TO.C,S3*
X80645000Y-108346875D03*
D20*
X81915000Y-105806875D03*
X83185000Y-103266875D03*
D21*
X85725000Y-108346875D03*
D22*
X85725000Y-108346875D03*
D20*
X88265000Y-103266875D03*
X89535000Y-105806874D03*
D19*
X90805000Y-108346875D03*
D23*
X78725000Y-105766875D03*
X91425000Y-103226875D03*
G04 #@! TD*
D19*
G04 #@! TO.C,S4*
X147320000Y-116613750D03*
D20*
X148590000Y-114073750D03*
X149860000Y-111533750D03*
D21*
X152400000Y-116613750D03*
D22*
X152400000Y-116613750D03*
D20*
X154940000Y-111533750D03*
X156210000Y-114073749D03*
D19*
X157480000Y-116613750D03*
D23*
X145400000Y-114033750D03*
X158100000Y-111493750D03*
G04 #@! TD*
D19*
G04 #@! TO.C,S19*
X175895000Y-60721875D03*
D20*
X177165000Y-58181875D03*
X178435000Y-55641875D03*
D21*
X180975000Y-60721875D03*
D22*
X180975000Y-60721875D03*
D20*
X183515000Y-55641875D03*
X184785000Y-58181874D03*
D19*
X186055000Y-60721875D03*
D23*
X173975000Y-58141875D03*
X186675000Y-55601875D03*
G04 #@! TD*
D19*
G04 #@! TO.C,S21*
X175895000Y-98821875D03*
D20*
X177165000Y-96281875D03*
X178435000Y-93741875D03*
D21*
X180975000Y-98821875D03*
D22*
X180975000Y-98821875D03*
D20*
X183515000Y-93741875D03*
X184785000Y-96281874D03*
D19*
X186055000Y-98821875D03*
D23*
X173975000Y-96241875D03*
X186675000Y-93701875D03*
G04 #@! TD*
D19*
G04 #@! TO.C,S9*
X118745000Y-58340625D03*
D20*
X120015000Y-55800625D03*
X121285000Y-53260625D03*
D21*
X123825000Y-58340625D03*
D22*
X123825000Y-58340625D03*
D20*
X126365000Y-53260625D03*
X127635000Y-55800624D03*
D19*
X128905000Y-58340625D03*
D23*
X116825000Y-55760625D03*
X129525000Y-53220625D03*
G04 #@! TD*
D19*
G04 #@! TO.C,S10*
X118745000Y-77390625D03*
D20*
X120015000Y-74850625D03*
X121285000Y-72310625D03*
D21*
X123825000Y-77390625D03*
D22*
X123825000Y-77390625D03*
D20*
X126365000Y-72310625D03*
X127635000Y-74850624D03*
D19*
X128905000Y-77390625D03*
D23*
X116825000Y-74810625D03*
X129525000Y-72270625D03*
G04 #@! TD*
D19*
G04 #@! TO.C,S6*
X99695000Y-89296875D03*
D20*
X100965000Y-86756875D03*
X102235000Y-84216875D03*
D21*
X104775000Y-89296875D03*
D22*
X104775000Y-89296875D03*
D20*
X107315000Y-84216875D03*
X108585000Y-86756874D03*
D19*
X109855000Y-89296875D03*
D23*
X97775000Y-86716875D03*
X110475000Y-84176875D03*
G04 #@! TD*
D19*
G04 #@! TO.C,S8*
X168924347Y-118213324D03*
D20*
X170808473Y-116088573D03*
X172692599Y-113963821D03*
D21*
X173831250Y-119528125D03*
D22*
X173831250Y-119528125D03*
D20*
X177599502Y-115278622D03*
X178168828Y-118060773D03*
D19*
X178738153Y-120842926D03*
D25*
X167737522Y-115224303D03*
X180662181Y-116057853D03*
G04 #@! TD*
D19*
G04 #@! TO.C,S7*
X99695000Y-108346875D03*
D20*
X100965000Y-105806875D03*
X102235000Y-103266875D03*
D21*
X104775000Y-108346875D03*
D22*
X104775000Y-108346875D03*
D20*
X107315000Y-103266875D03*
X108585000Y-105806874D03*
D19*
X109855000Y-108346875D03*
D23*
X97775000Y-105766875D03*
X110475000Y-103226875D03*
G04 #@! TD*
D26*
G04 #@! TO.C,U2*
X221383716Y-105937819D03*
X217883716Y-111999999D03*
D27*
X214541857Y-113188268D03*
X219075575Y-114535641D03*
X221075574Y-111071538D03*
X222575574Y-108473462D03*
G04 #@! TD*
D19*
G04 #@! TO.C,S14*
X137795000Y-75009375D03*
D20*
X139065000Y-72469375D03*
X140335000Y-69929375D03*
D21*
X142875000Y-75009375D03*
D22*
X142875000Y-75009375D03*
D20*
X145415000Y-69929375D03*
X146685000Y-72469374D03*
D19*
X147955000Y-75009375D03*
D23*
X135875000Y-72429375D03*
X148575000Y-69889375D03*
G04 #@! TD*
D19*
G04 #@! TO.C,S20*
X175895000Y-79771875D03*
D20*
X177165000Y-77231875D03*
X178435000Y-74691875D03*
D21*
X180975000Y-79771875D03*
D22*
X180975000Y-79771875D03*
D20*
X183515000Y-74691875D03*
X184785000Y-77231874D03*
D19*
X186055000Y-79771875D03*
D23*
X173975000Y-77191875D03*
X186675000Y-74651875D03*
G04 #@! TD*
D19*
G04 #@! TO.C,S1*
X80645000Y-70246875D03*
D20*
X81915000Y-67706875D03*
X83185000Y-65166875D03*
D21*
X85725000Y-70246875D03*
D22*
X85725000Y-70246875D03*
D20*
X88265000Y-65166875D03*
X89535000Y-67706874D03*
D19*
X90805000Y-70246875D03*
D23*
X78725000Y-67666875D03*
X91425000Y-65126875D03*
G04 #@! TD*
D28*
G04 #@! TO.C,U1*
X194397500Y-48260000D03*
X215177500Y-48260000D03*
X194397500Y-50800000D03*
X215177500Y-50800000D03*
D29*
X194397500Y-53340000D03*
X215177500Y-53340000D03*
D28*
X194397500Y-55880000D03*
X215177500Y-55880000D03*
X194397500Y-58420000D03*
X215177500Y-58420000D03*
X194397500Y-60960000D03*
X215177500Y-60960000D03*
X194397500Y-63500000D03*
X215177500Y-63500000D03*
D29*
X194397500Y-66040000D03*
X215177500Y-66040000D03*
D28*
X194397500Y-68580000D03*
X215177500Y-68580000D03*
X194397500Y-71120000D03*
X215177500Y-71120000D03*
X194397500Y-73660000D03*
X215177500Y-73660000D03*
X194397500Y-76200000D03*
X215177500Y-76200000D03*
D29*
X194397500Y-78740000D03*
X215177500Y-78740000D03*
D28*
X194397500Y-81280000D03*
X215177500Y-81280000D03*
X194397500Y-83820000D03*
X215177500Y-83820000D03*
X194397500Y-86360000D03*
X215177500Y-86360000D03*
X194397500Y-88900000D03*
X215177500Y-88900000D03*
D29*
X194397500Y-91440000D03*
X215177500Y-91440000D03*
D28*
X194397500Y-93980000D03*
X215177500Y-93980000D03*
X194397500Y-96520000D03*
X215177500Y-96520000D03*
X197397500Y-96520000D03*
X212177500Y-96520000D03*
X197397500Y-93980000D03*
X212177500Y-93980000D03*
D29*
X197397500Y-91440000D03*
X212177500Y-91440000D03*
D28*
X197397500Y-88900000D03*
X212177500Y-88900000D03*
X197397500Y-86360000D03*
X212177500Y-86360000D03*
X197397500Y-83820000D03*
X212177500Y-83820000D03*
X197397500Y-81280000D03*
X212177500Y-81280000D03*
D29*
X197397500Y-78740000D03*
X212177500Y-78740000D03*
D28*
X197397500Y-76200000D03*
X212177500Y-76200000D03*
X197397500Y-73660000D03*
X212177500Y-73660000D03*
X197397500Y-71120000D03*
X212177500Y-71120000D03*
X197397500Y-68580000D03*
X212177500Y-68580000D03*
D29*
X197397500Y-66040000D03*
X212177500Y-66040000D03*
D28*
X197397500Y-63500000D03*
X212177500Y-63500000D03*
X197397500Y-60960000D03*
X212177500Y-60960000D03*
X197397500Y-58420000D03*
X212177500Y-58420000D03*
X197397500Y-55880000D03*
X212177500Y-55880000D03*
D29*
X197397500Y-53340000D03*
X212177500Y-53340000D03*
D28*
X197397500Y-50800000D03*
X212177500Y-50800000D03*
X197397500Y-48260000D03*
X212177500Y-48260000D03*
G04 #@! TD*
D19*
G04 #@! TO.C,S13*
X137795000Y-55959375D03*
D20*
X139065000Y-53419375D03*
X140335000Y-50879375D03*
D21*
X142875000Y-55959375D03*
D22*
X142875000Y-55959375D03*
D20*
X145415000Y-50879375D03*
X146685000Y-53419374D03*
D19*
X147955000Y-55959375D03*
D23*
X135875000Y-53379375D03*
X148575000Y-50839375D03*
G04 #@! TD*
D19*
G04 #@! TO.C,S5*
X99695000Y-70246875D03*
D20*
X100965000Y-67706875D03*
X102235000Y-65166875D03*
D21*
X104775000Y-70246875D03*
D22*
X104775000Y-70246875D03*
D20*
X107315000Y-65166875D03*
X108585000Y-67706874D03*
D19*
X109855000Y-70246875D03*
D23*
X97775000Y-67666875D03*
X110475000Y-65126875D03*
G04 #@! TD*
D19*
G04 #@! TO.C,S15*
X137795000Y-94059375D03*
D20*
X139065000Y-91519375D03*
X140335000Y-88979375D03*
D21*
X142875000Y-94059375D03*
D22*
X142875000Y-94059375D03*
D20*
X145415000Y-88979375D03*
X146685000Y-91519374D03*
D19*
X147955000Y-94059375D03*
D23*
X135875000Y-91479375D03*
X148575000Y-88939375D03*
G04 #@! TD*
D19*
G04 #@! TO.C,S17*
X156845000Y-77390625D03*
D20*
X158115000Y-74850625D03*
X159385000Y-72310625D03*
D21*
X161925000Y-77390625D03*
D22*
X161925000Y-77390625D03*
D20*
X164465000Y-72310625D03*
X165735000Y-74850624D03*
D19*
X167005000Y-77390625D03*
D23*
X154925000Y-74810625D03*
X167625000Y-72270625D03*
G04 #@! TD*
D19*
G04 #@! TO.C,S11*
X118745000Y-96440625D03*
D20*
X120015000Y-93900625D03*
X121285000Y-91360625D03*
D21*
X123825000Y-96440625D03*
D22*
X123825000Y-96440625D03*
D20*
X126365000Y-91360625D03*
X127635000Y-93900624D03*
D19*
X128905000Y-96440625D03*
D23*
X116825000Y-93860625D03*
X129525000Y-91320625D03*
G04 #@! TD*
D19*
G04 #@! TO.C,S16*
X156845000Y-58340625D03*
D20*
X158115000Y-55800625D03*
X159385000Y-53260625D03*
D21*
X161925000Y-58340625D03*
D22*
X161925000Y-58340625D03*
D20*
X164465000Y-53260625D03*
X165735000Y-55800624D03*
D19*
X167005000Y-58340625D03*
D23*
X154925000Y-55760625D03*
X167625000Y-53220625D03*
G04 #@! TD*
D26*
G04 #@! TO.C,U3*
X213900000Y-109700000D03*
X217400000Y-103637820D03*
D30*
X214541858Y-113188269D03*
X211108141Y-109935641D03*
X213108142Y-106471539D03*
X214608143Y-103873464D03*
G04 #@! TD*
%LPD*%
M02*
