M48
; DRILL file {KiCad 8.0.4} date 2024-09-23T05:23:03+0300
; FORMAT={-:-/ absolute / metric / decimal}
; #@! TF.CreationDate,2024-09-23T05:23:03+03:00
; #@! TF.GenerationSoftware,Kicad,Pcbnew,8.0.4
; #@! TF.FileFunction,NonPlated,1,2,NPTH
FMAT,2
METRIC
; #@! TA.AperFunction,NonPlated,NPTH,ComponentDrill
T1C0.800
; #@! TA.AperFunction,NonPlated,NPTH,ComponentDrill
T2C1.750
; #@! TA.AperFunction,NonPlated,NPTH,ComponentDrill
T3C3.000
; #@! TA.AperFunction,NonPlated,NPTH,ComponentDrill
T4C4.000
; #@! TA.AperFunction,NonPlated,NPTH,ComponentDrill
T5C4.100
%
G90
G05
T1
X213.9Y-109.7
X217.4Y-103.638
X217.884Y-112.0
X221.384Y-105.938
T2
X80.645Y-70.247
X80.645Y-89.297
X80.645Y-108.347
X90.805Y-70.247
X90.805Y-89.297
X90.805Y-108.347
X99.695Y-70.247
X99.695Y-89.297
X99.695Y-108.347
X109.855Y-70.247
X109.855Y-89.297
X109.855Y-108.347
X118.745Y-58.341
X118.745Y-77.391
X118.745Y-96.441
X128.905Y-58.341
X128.905Y-77.391
X128.905Y-96.441
X137.795Y-55.959
X137.795Y-75.009
X137.795Y-94.059
X147.32Y-116.614
X147.955Y-55.959
X147.955Y-75.009
X147.955Y-94.059
X156.845Y-58.341
X156.845Y-77.391
X156.845Y-96.441
X157.48Y-116.614
X167.005Y-58.341
X167.005Y-77.391
X167.005Y-96.441
X168.924Y-118.213
X175.895Y-60.722
X175.895Y-79.772
X175.895Y-98.822
X178.738Y-120.843
X186.055Y-60.722
X186.055Y-79.772
X186.055Y-98.822
X189.513Y-125.488
X198.312Y-130.568
T3
X81.915Y-67.707
X81.915Y-86.757
X81.915Y-105.807
X83.185Y-65.167
X83.185Y-84.217
X83.185Y-103.267
X88.265Y-65.167
X88.265Y-84.217
X88.265Y-103.267
X89.535Y-67.707
X89.535Y-86.757
X89.535Y-105.807
X100.965Y-67.707
X100.965Y-86.757
X100.965Y-105.807
X102.235Y-65.167
X102.235Y-84.217
X102.235Y-103.267
X107.315Y-65.167
X107.315Y-84.217
X107.315Y-103.267
X108.585Y-67.707
X108.585Y-86.757
X108.585Y-105.807
X120.015Y-55.801
X120.015Y-74.851
X120.015Y-93.901
X121.285Y-53.261
X121.285Y-72.311
X121.285Y-91.361
X126.365Y-53.261
X126.365Y-72.311
X126.365Y-91.361
X127.635Y-55.801
X127.635Y-74.851
X127.635Y-93.901
X139.065Y-53.419
X139.065Y-72.469
X139.065Y-91.519
X140.335Y-50.879
X140.335Y-69.929
X140.335Y-88.979
X145.415Y-50.879
X145.415Y-69.929
X145.415Y-88.979
X146.685Y-53.419
X146.685Y-72.469
X146.685Y-91.519
X148.59Y-114.074
X149.86Y-111.534
X154.94Y-111.534
X156.21Y-114.074
X158.115Y-55.801
X158.115Y-74.851
X158.115Y-93.901
X159.385Y-53.261
X159.385Y-72.311
X159.385Y-91.361
X164.465Y-53.261
X164.465Y-72.311
X164.465Y-91.361
X165.735Y-55.801
X165.735Y-74.851
X165.735Y-93.901
X170.808Y-116.089
X172.693Y-113.964
X177.165Y-58.182
X177.165Y-77.232
X177.165Y-96.282
X177.6Y-115.279
X178.169Y-118.061
X178.435Y-55.642
X178.435Y-74.692
X178.435Y-93.742
X183.515Y-55.642
X183.515Y-74.692
X183.515Y-93.742
X184.785Y-58.182
X184.785Y-77.232
X184.785Y-96.282
X191.883Y-123.923
X194.253Y-122.359
X198.482Y-127.733
X198.652Y-124.899
T4
X85.725Y-70.247
X85.725Y-89.297
X85.725Y-108.347
X104.775Y-70.247
X104.775Y-89.297
X104.775Y-108.347
X123.825Y-58.341
X123.825Y-77.391
X123.825Y-96.441
X142.875Y-55.959
X142.875Y-75.009
X142.875Y-94.059
X152.4Y-116.614
X161.925Y-58.341
X161.925Y-77.391
X161.925Y-96.441
X173.831Y-119.528
X180.975Y-60.722
X180.975Y-79.772
X180.975Y-98.822
X193.912Y-128.028
T5
X85.725Y-70.247
X85.725Y-89.297
X85.725Y-108.347
X104.775Y-70.247
X104.775Y-89.297
X104.775Y-108.347
X123.825Y-58.341
X123.825Y-77.391
X123.825Y-96.441
X142.875Y-55.959
X142.875Y-75.009
X142.875Y-94.059
X152.4Y-116.614
X161.925Y-58.341
X161.925Y-77.391
X161.925Y-96.441
X173.831Y-119.528
X180.975Y-60.722
X180.975Y-79.772
X180.975Y-98.822
X193.912Y-128.028
M30
