M48
; DRILL file {KiCad 8.0.4} date 2024-09-23T05:23:03+0300
; FORMAT={-:-/ absolute / metric / decimal}
; #@! TF.CreationDate,2024-09-23T05:23:03+03:00
; #@! TF.GenerationSoftware,Kicad,Pcbnew,8.0.4
; #@! TF.FileFunction,Plated,1,2,PTH
FMAT,2
METRIC
; #@! TA.AperFunction,Plated,PTH,ViaDrill
T1C0.400
; #@! TA.AperFunction,Plated,PTH,ComponentDrill
T2C0.900
; #@! TA.AperFunction,Plated,PTH,ComponentDrill
T3C1.020
%
G90
G05
T1
X91.425Y-65.127
X91.425Y-84.177
X91.425Y-103.227
X92.841Y-110.701
X94.032Y-71.41
X94.032Y-90.46
X110.475Y-65.127
X110.475Y-84.177
X110.475Y-103.227
X111.908Y-73.808
X113.066Y-110.772
X114.3Y-90.487
X129.525Y-53.221
X129.525Y-72.271
X129.525Y-91.321
X131.564Y-60.127
X132.159Y-97.631
X132.755Y-79.177
X148.575Y-50.839
X148.575Y-69.889
X148.575Y-88.939
X151.182Y-97.604
X151.209Y-55.959
X151.209Y-76.2
X158.1Y-111.494
X161.925Y-120.253
X167.625Y-53.221
X167.625Y-72.271
X167.625Y-91.321
X170.232Y-61.885
X170.259Y-78.581
X170.259Y-100.012
X180.662Y-116.058
X182.166Y-125.016
X186.675Y-55.602
X186.675Y-74.652
X186.675Y-93.702
X187.975Y-58.142
X187.975Y-77.192
X187.975Y-96.242
X195.061Y-99.997
X201.265Y-129.294
X201.409Y-126.444
X202.406Y-97.631
T3
X194.397Y-48.26
X194.397Y-50.8
X194.397Y-53.34
X194.397Y-55.88
X194.397Y-58.42
X194.397Y-60.96
X194.397Y-63.5
X194.397Y-66.04
X194.397Y-68.58
X194.397Y-71.12
X194.397Y-73.66
X194.397Y-76.2
X194.397Y-78.74
X194.397Y-81.28
X194.397Y-83.82
X194.397Y-86.36
X194.397Y-88.9
X194.397Y-91.44
X194.397Y-93.98
X194.397Y-96.52
X197.397Y-48.26
X197.397Y-50.8
X197.397Y-53.34
X197.397Y-55.88
X197.397Y-58.42
X197.397Y-60.96
X197.397Y-63.5
X197.397Y-66.04
X197.397Y-68.58
X197.397Y-71.12
X197.397Y-73.66
X197.397Y-76.2
X197.397Y-78.74
X197.397Y-81.28
X197.397Y-83.82
X197.397Y-86.36
X197.397Y-88.9
X197.397Y-91.44
X197.397Y-93.98
X197.397Y-96.52
X212.177Y-48.26
X212.177Y-50.8
X212.177Y-53.34
X212.177Y-55.88
X212.177Y-58.42
X212.177Y-60.96
X212.177Y-63.5
X212.177Y-66.04
X212.177Y-68.58
X212.177Y-71.12
X212.177Y-73.66
X212.177Y-76.2
X212.177Y-78.74
X212.177Y-81.28
X212.177Y-83.82
X212.177Y-86.36
X212.177Y-88.9
X212.177Y-91.44
X212.177Y-93.98
X212.177Y-96.52
X215.177Y-48.26
X215.177Y-50.8
X215.177Y-53.34
X215.177Y-55.88
X215.177Y-58.42
X215.177Y-60.96
X215.177Y-63.5
X215.177Y-66.04
X215.177Y-68.58
X215.177Y-71.12
X215.177Y-73.66
X215.177Y-76.2
X215.177Y-78.74
X215.177Y-81.28
X215.177Y-83.82
X215.177Y-86.36
X215.177Y-88.9
X215.177Y-91.44
X215.177Y-93.98
X215.177Y-96.52
T2
G00X211.008Y-110.109
M15
G01X211.208Y-109.762
M16
G05
G00X213.008Y-106.645
M15
G01X213.208Y-106.298
M16
G05
G00X214.642Y-113.015
M15
G01X214.442Y-113.361
M16
G05
G00X214.442Y-113.361
M15
G01X214.642Y-113.015
M16
G05
G00X214.508Y-104.047
M15
G01X214.708Y-103.7
M16
G05
G00X219.176Y-114.362
M15
G01X218.976Y-114.709
M16
G05
G00X221.176Y-110.898
M15
G01X220.976Y-111.245
M16
G05
G00X222.676Y-108.3
M15
G01X222.476Y-108.647
M16
G05
M30
