G04 #@! TF.GenerationSoftware,KiCad,Pcbnew,8.0.4*
G04 #@! TF.CreationDate,2024-09-23T05:23:03+03:00*
G04 #@! TF.ProjectId,muikku42,6d75696b-6b75-4343-922e-6b696361645f,rev?*
G04 #@! TF.SameCoordinates,Original*
G04 #@! TF.FileFunction,AssemblyDrawing,Bot*
%FSLAX46Y46*%
G04 Gerber Fmt 4.6, Leading zero omitted, Abs format (unit mm)*
G04 Created by KiCad (PCBNEW 8.0.4) date 2024-09-23 05:23:03*
%MOMM*%
%LPD*%
G01*
G04 APERTURE LIST*
%ADD10C,0.150000*%
%ADD11C,0.100000*%
G04 APERTURE END LIST*
D10*
X222798443Y-97811250D02*
X222303572Y-97525536D01*
X222051008Y-98534419D02*
X222551008Y-97668393D01*
X221020025Y-97939180D02*
X221546795Y-97693454D01*
X221514896Y-98224895D02*
X222014896Y-97358869D01*
X222014896Y-97358869D02*
X221684982Y-97168393D01*
X221684982Y-97168393D02*
X221578694Y-97162013D01*
X221578694Y-97162013D02*
X221513645Y-97179443D01*
X221513645Y-97179443D02*
X221424787Y-97238112D01*
X221424787Y-97238112D02*
X221353358Y-97361830D01*
X221353358Y-97361830D02*
X221346978Y-97468118D01*
X221346978Y-97468118D02*
X221364408Y-97533167D01*
X221364408Y-97533167D02*
X221423077Y-97622025D01*
X221423077Y-97622025D02*
X221752992Y-97812502D01*
X220153999Y-97439180D02*
X220680770Y-97193454D01*
X220648871Y-97724895D02*
X221148871Y-96858869D01*
X221148871Y-96858869D02*
X220818957Y-96668393D01*
X220818957Y-96668393D02*
X220712668Y-96662013D01*
X220712668Y-96662013D02*
X220647620Y-96679443D01*
X220647620Y-96679443D02*
X220558761Y-96738112D01*
X220558761Y-96738112D02*
X220487333Y-96861830D01*
X220487333Y-96861830D02*
X220480953Y-96968118D01*
X220480953Y-96968118D02*
X220498383Y-97033167D01*
X220498383Y-97033167D02*
X220557052Y-97122025D01*
X220557052Y-97122025D02*
X220886966Y-97312502D01*
X219847894Y-97207465D02*
X219700367Y-97177276D01*
X219700367Y-97177276D02*
X219494170Y-97058228D01*
X219494170Y-97058228D02*
X219435501Y-96969370D01*
X219435501Y-96969370D02*
X219418072Y-96904321D01*
X219418072Y-96904321D02*
X219424451Y-96798033D01*
X219424451Y-96798033D02*
X219472070Y-96715554D01*
X219472070Y-96715554D02*
X219560929Y-96656885D01*
X219560929Y-96656885D02*
X219625978Y-96639455D01*
X219625978Y-96639455D02*
X219732266Y-96645835D01*
X219732266Y-96645835D02*
X219921032Y-96699834D01*
X219921032Y-96699834D02*
X220027321Y-96706214D01*
X220027321Y-96706214D02*
X220092369Y-96688784D01*
X220092369Y-96688784D02*
X220181228Y-96630115D01*
X220181228Y-96630115D02*
X220228847Y-96547636D01*
X220228847Y-96547636D02*
X220235227Y-96441348D01*
X220235227Y-96441348D02*
X220217797Y-96376299D01*
X220217797Y-96376299D02*
X220159128Y-96287441D01*
X220159128Y-96287441D02*
X219952931Y-96168393D01*
X219952931Y-96168393D02*
X219805404Y-96138204D01*
D11*
X217209539Y-105801042D02*
X217578278Y-105629034D01*
X217555949Y-106001042D02*
X217905949Y-105394824D01*
X217905949Y-105394824D02*
X217675009Y-105261491D01*
X217675009Y-105261491D02*
X217600608Y-105257025D01*
X217600608Y-105257025D02*
X217555073Y-105269226D01*
X217555073Y-105269226D02*
X217492872Y-105310294D01*
X217492872Y-105310294D02*
X217442872Y-105396897D01*
X217442872Y-105396897D02*
X217438407Y-105471299D01*
X217438407Y-105471299D02*
X217450608Y-105516833D01*
X217450608Y-105516833D02*
X217491676Y-105579034D01*
X217491676Y-105579034D02*
X217722616Y-105712367D01*
X216949732Y-105651042D02*
X217183065Y-105246897D01*
X217299732Y-105044824D02*
X217311932Y-105090359D01*
X217311932Y-105090359D02*
X217266398Y-105102559D01*
X217266398Y-105102559D02*
X217254197Y-105057025D01*
X217254197Y-105057025D02*
X217299732Y-105044824D01*
X217299732Y-105044824D02*
X217266398Y-105102559D01*
X216894390Y-105080231D02*
X216661057Y-105484376D01*
X216861057Y-105137966D02*
X216848856Y-105092431D01*
X216848856Y-105092431D02*
X216807787Y-105030231D01*
X216807787Y-105030231D02*
X216721185Y-104980231D01*
X216721185Y-104980231D02*
X216646783Y-104975765D01*
X216646783Y-104975765D02*
X216584582Y-105016833D01*
X216584582Y-105016833D02*
X216401249Y-105334376D01*
X216086100Y-104613564D02*
X215802767Y-105104312D01*
X215802767Y-105104312D02*
X215798301Y-105178713D01*
X215798301Y-105178713D02*
X215810502Y-105224248D01*
X215810502Y-105224248D02*
X215851570Y-105286448D01*
X215851570Y-105286448D02*
X215938173Y-105336448D01*
X215938173Y-105336448D02*
X216012574Y-105340914D01*
X215869433Y-104988842D02*
X215910502Y-105051043D01*
X215910502Y-105051043D02*
X216025972Y-105117709D01*
X216025972Y-105117709D02*
X216100373Y-105122175D01*
X216100373Y-105122175D02*
X216145908Y-105109974D01*
X216145908Y-105109974D02*
X216208108Y-105068906D01*
X216208108Y-105068906D02*
X216308108Y-104895701D01*
X216308108Y-104895701D02*
X216312574Y-104821299D01*
X216312574Y-104821299D02*
X216300373Y-104775765D01*
X216300373Y-104775765D02*
X216259305Y-104713564D01*
X216259305Y-104713564D02*
X216143835Y-104646897D01*
X216143835Y-104646897D02*
X216069433Y-104642432D01*
X215909626Y-104319227D02*
X215897425Y-104273692D01*
X215897425Y-104273692D02*
X215856357Y-104211492D01*
X215856357Y-104211492D02*
X215712019Y-104128158D01*
X215712019Y-104128158D02*
X215637617Y-104123692D01*
X215637617Y-104123692D02*
X215592083Y-104135893D01*
X215592083Y-104135893D02*
X215529882Y-104176962D01*
X215529882Y-104176962D02*
X215496549Y-104234697D01*
X215496549Y-104234697D02*
X215475417Y-104337966D01*
X215475417Y-104337966D02*
X215621827Y-104884376D01*
X215621827Y-104884376D02*
X215246549Y-104667709D01*
X215709540Y-108399117D02*
X216078279Y-108227109D01*
X216055950Y-108599117D02*
X216405950Y-107992899D01*
X216405950Y-107992899D02*
X216175010Y-107859566D01*
X216175010Y-107859566D02*
X216100609Y-107855100D01*
X216100609Y-107855100D02*
X216055074Y-107867301D01*
X216055074Y-107867301D02*
X215992873Y-107908369D01*
X215992873Y-107908369D02*
X215942873Y-107994972D01*
X215942873Y-107994972D02*
X215938408Y-108069374D01*
X215938408Y-108069374D02*
X215950609Y-108114908D01*
X215950609Y-108114908D02*
X215991677Y-108177109D01*
X215991677Y-108177109D02*
X216222617Y-108310442D01*
X215449733Y-108249117D02*
X215683066Y-107844972D01*
X215799733Y-107642899D02*
X215811933Y-107688434D01*
X215811933Y-107688434D02*
X215766399Y-107700634D01*
X215766399Y-107700634D02*
X215754198Y-107655100D01*
X215754198Y-107655100D02*
X215799733Y-107642899D01*
X215799733Y-107642899D02*
X215766399Y-107700634D01*
X215394391Y-107678306D02*
X215161058Y-108082451D01*
X215361058Y-107736041D02*
X215348857Y-107690506D01*
X215348857Y-107690506D02*
X215307788Y-107628306D01*
X215307788Y-107628306D02*
X215221186Y-107578306D01*
X215221186Y-107578306D02*
X215146784Y-107573840D01*
X215146784Y-107573840D02*
X215084583Y-107614908D01*
X215084583Y-107614908D02*
X214901250Y-107932451D01*
X214586101Y-107211639D02*
X214302768Y-107702387D01*
X214302768Y-107702387D02*
X214298302Y-107776788D01*
X214298302Y-107776788D02*
X214310503Y-107822323D01*
X214310503Y-107822323D02*
X214351571Y-107884523D01*
X214351571Y-107884523D02*
X214438174Y-107934523D01*
X214438174Y-107934523D02*
X214512575Y-107938989D01*
X214369434Y-107586917D02*
X214410503Y-107649118D01*
X214410503Y-107649118D02*
X214525973Y-107715784D01*
X214525973Y-107715784D02*
X214600374Y-107720250D01*
X214600374Y-107720250D02*
X214645909Y-107708049D01*
X214645909Y-107708049D02*
X214708109Y-107666981D01*
X214708109Y-107666981D02*
X214808109Y-107493776D01*
X214808109Y-107493776D02*
X214812575Y-107419374D01*
X214812575Y-107419374D02*
X214800374Y-107373840D01*
X214800374Y-107373840D02*
X214759306Y-107311639D01*
X214759306Y-107311639D02*
X214643836Y-107244972D01*
X214643836Y-107244972D02*
X214569434Y-107240507D01*
X213746550Y-107265784D02*
X214092960Y-107465784D01*
X213919755Y-107365784D02*
X214269755Y-106759567D01*
X214269755Y-106759567D02*
X214277490Y-106879502D01*
X214277490Y-106879502D02*
X214301892Y-106970571D01*
X214301892Y-106970571D02*
X214342960Y-107032772D01*
X213483182Y-113021948D02*
X213379912Y-113000816D01*
X213379912Y-113000816D02*
X213235575Y-112917483D01*
X213235575Y-112917483D02*
X213194506Y-112855282D01*
X213194506Y-112855282D02*
X213182306Y-112809748D01*
X213182306Y-112809748D02*
X213186771Y-112735346D01*
X213186771Y-112735346D02*
X213220105Y-112677611D01*
X213220105Y-112677611D02*
X213282306Y-112636542D01*
X213282306Y-112636542D02*
X213327840Y-112624342D01*
X213327840Y-112624342D02*
X213402241Y-112628807D01*
X213402241Y-112628807D02*
X213534378Y-112666607D01*
X213534378Y-112666607D02*
X213608780Y-112671072D01*
X213608780Y-112671072D02*
X213654314Y-112658872D01*
X213654314Y-112658872D02*
X213716515Y-112617803D01*
X213716515Y-112617803D02*
X213749848Y-112560068D01*
X213749848Y-112560068D02*
X213754314Y-112485666D01*
X213754314Y-112485666D02*
X213742113Y-112440132D01*
X213742113Y-112440132D02*
X213701045Y-112377931D01*
X213701045Y-112377931D02*
X213556707Y-112294598D01*
X213556707Y-112294598D02*
X213453438Y-112273466D01*
X212773694Y-112650816D02*
X212848096Y-112655282D01*
X212848096Y-112655282D02*
X212910297Y-112614213D01*
X212910297Y-112614213D02*
X213210297Y-112094598D01*
X212328480Y-112355281D02*
X212369549Y-112417482D01*
X212369549Y-112417482D02*
X212485019Y-112484149D01*
X212485019Y-112484149D02*
X212559421Y-112488615D01*
X212559421Y-112488615D02*
X212621621Y-112447546D01*
X212621621Y-112447546D02*
X212754955Y-112216606D01*
X212754955Y-112216606D02*
X212759421Y-112142205D01*
X212759421Y-112142205D02*
X212718352Y-112080004D01*
X212718352Y-112080004D02*
X212602882Y-112013337D01*
X212602882Y-112013337D02*
X212528480Y-112008871D01*
X212528480Y-112008871D02*
X212466280Y-112049940D01*
X212466280Y-112049940D02*
X212432946Y-112107675D01*
X212432946Y-112107675D02*
X212688288Y-112332076D01*
X211808865Y-112055281D02*
X211849934Y-112117482D01*
X211849934Y-112117482D02*
X211965404Y-112184149D01*
X211965404Y-112184149D02*
X212039805Y-112188615D01*
X212039805Y-112188615D02*
X212102006Y-112147546D01*
X212102006Y-112147546D02*
X212235340Y-111916606D01*
X212235340Y-111916606D02*
X212239805Y-111842205D01*
X212239805Y-111842205D02*
X212198737Y-111780004D01*
X212198737Y-111780004D02*
X212083267Y-111713337D01*
X212083267Y-111713337D02*
X212008865Y-111708871D01*
X212008865Y-111708871D02*
X211946664Y-111749940D01*
X211946664Y-111749940D02*
X211913331Y-111807675D01*
X211913331Y-111807675D02*
X212168673Y-112032076D01*
X211794592Y-111546670D02*
X211416921Y-111867482D01*
X211416921Y-111867482D02*
X211505917Y-111380004D01*
X210827370Y-111488615D02*
X210868438Y-111550816D01*
X210868438Y-111550816D02*
X210983908Y-111617482D01*
X210983908Y-111617482D02*
X211058310Y-111621948D01*
X211058310Y-111621948D02*
X211120511Y-111580880D01*
X211120511Y-111580880D02*
X211253844Y-111349940D01*
X211253844Y-111349940D02*
X211258310Y-111275538D01*
X211258310Y-111275538D02*
X211217242Y-111213337D01*
X211217242Y-111213337D02*
X211101772Y-111146671D01*
X211101772Y-111146671D02*
X211027370Y-111142205D01*
X211027370Y-111142205D02*
X210965169Y-111183273D01*
X210965169Y-111183273D02*
X210931836Y-111241008D01*
X210931836Y-111241008D02*
X211187178Y-111465410D01*
X213982467Y-110923828D02*
X213636057Y-110723828D01*
X213459262Y-111430046D02*
X213809262Y-110823828D01*
X213083985Y-111213380D02*
X213317318Y-110809235D01*
X213433985Y-110607162D02*
X213446185Y-110652696D01*
X213446185Y-110652696D02*
X213400651Y-110664897D01*
X213400651Y-110664897D02*
X213388450Y-110619363D01*
X213388450Y-110619363D02*
X213433985Y-110607162D01*
X213433985Y-110607162D02*
X213400651Y-110664897D01*
X213028643Y-110642568D02*
X212678643Y-111248786D01*
X213011976Y-110671436D02*
X212970908Y-110609235D01*
X212970908Y-110609235D02*
X212855438Y-110542568D01*
X212855438Y-110542568D02*
X212781036Y-110538102D01*
X212781036Y-110538102D02*
X212735502Y-110550303D01*
X212735502Y-110550303D02*
X212673301Y-110591371D01*
X212673301Y-110591371D02*
X212573301Y-110764577D01*
X212573301Y-110764577D02*
X212568835Y-110838978D01*
X212568835Y-110838978D02*
X212581036Y-110884512D01*
X212581036Y-110884512D02*
X212622105Y-110946713D01*
X212622105Y-110946713D02*
X212737575Y-111013380D01*
X212737575Y-111013380D02*
X212811976Y-111017846D01*
M02*
