G04 #@! TF.GenerationSoftware,KiCad,Pcbnew,8.0.4*
G04 #@! TF.CreationDate,2024-09-23T05:23:03+03:00*
G04 #@! TF.ProjectId,muikku42,6d75696b-6b75-4343-922e-6b696361645f,rev?*
G04 #@! TF.SameCoordinates,Original*
G04 #@! TF.FileFunction,Soldermask,Top*
G04 #@! TF.FilePolarity,Negative*
%FSLAX46Y46*%
G04 Gerber Fmt 4.6, Leading zero omitted, Abs format (unit mm)*
G04 Created by KiCad (PCBNEW 8.0.4) date 2024-09-23 05:23:03*
%MOMM*%
%LPD*%
G01*
G04 APERTURE LIST*
G04 Aperture macros list*
%AMHorizOval*
0 Thick line with rounded ends*
0 $1 width*
0 $2 $3 position (X,Y) of the first rounded end (center of the circle)*
0 $4 $5 position (X,Y) of the second rounded end (center of the circle)*
0 Add line between two ends*
20,1,$1,$2,$3,$4,$5,0*
0 Add two circle primitives to create the rounded ends*
1,1,$1,$2,$3*
1,1,$1,$4,$5*%
%AMRotRect*
0 Rectangle, with rotation*
0 The origin of the aperture is its center*
0 $1 length*
0 $2 width*
0 $3 Rotation angle, in degrees counterclockwise*
0 Add horizontal line*
21,1,$1,$2,0,0,$3*%
G04 Aperture macros list end*
%ADD10C,1.750000*%
%ADD11C,3.000000*%
%ADD12C,4.000000*%
%ADD13C,4.100000*%
%ADD14R,2.300000X2.000000*%
%ADD15RotRect,2.300000X2.000000X150.000000*%
%ADD16RotRect,2.300000X2.000000X165.000000*%
%ADD17C,0.800000*%
%ADD18HorizOval,1.600000X-0.100000X-0.173205X0.100000X0.173205X0*%
%ADD19O,1.700000X1.700000*%
%ADD20R,1.700000X1.700000*%
%ADD21HorizOval,1.600000X0.100000X0.173205X-0.100000X-0.173205X0*%
G04 APERTURE END LIST*
D10*
G04 #@! TO.C,S18*
X156845000Y-96440625D03*
D11*
X158115000Y-93900625D03*
X159385000Y-91360625D03*
D12*
X161925000Y-96440625D03*
D13*
X161925000Y-96440625D03*
D11*
X164465000Y-91360625D03*
X165735000Y-93900624D03*
D10*
X167005000Y-96440625D03*
D14*
X168925000Y-93860625D03*
X156225000Y-91320625D03*
G04 #@! TD*
D10*
G04 #@! TO.C,S2*
X80645000Y-89296875D03*
D11*
X81915000Y-86756875D03*
X83185000Y-84216875D03*
D12*
X85725000Y-89296875D03*
D13*
X85725000Y-89296875D03*
D11*
X88265000Y-84216875D03*
X89535000Y-86756874D03*
D10*
X90805000Y-89296875D03*
D14*
X92725000Y-86716875D03*
X80025000Y-84176875D03*
G04 #@! TD*
D10*
G04 #@! TO.C,S12*
X189513091Y-125488125D03*
D11*
X191882943Y-123923420D03*
X194252795Y-122358716D03*
D12*
X193912500Y-128028125D03*
D13*
X193912500Y-128028125D03*
D11*
X198652205Y-124898716D03*
X198482057Y-127733420D03*
D10*
X198311909Y-130568125D03*
D15*
X201264678Y-129293779D03*
X191536155Y-120744075D03*
G04 #@! TD*
D10*
G04 #@! TO.C,S3*
X80645000Y-108346875D03*
D11*
X81915000Y-105806875D03*
X83185000Y-103266875D03*
D12*
X85725000Y-108346875D03*
D13*
X85725000Y-108346875D03*
D11*
X88265000Y-103266875D03*
X89535000Y-105806874D03*
D10*
X90805000Y-108346875D03*
D14*
X92725000Y-105766875D03*
X80025000Y-103226875D03*
G04 #@! TD*
D10*
G04 #@! TO.C,S4*
X147320000Y-116613750D03*
D11*
X148590000Y-114073750D03*
X149860000Y-111533750D03*
D12*
X152400000Y-116613750D03*
D13*
X152400000Y-116613750D03*
D11*
X154940000Y-111533750D03*
X156210000Y-114073749D03*
D10*
X157480000Y-116613750D03*
D14*
X159400000Y-114033750D03*
X146700000Y-111493750D03*
G04 #@! TD*
D10*
G04 #@! TO.C,S19*
X175895000Y-60721875D03*
D11*
X177165000Y-58181875D03*
X178435000Y-55641875D03*
D12*
X180975000Y-60721875D03*
D13*
X180975000Y-60721875D03*
D11*
X183515000Y-55641875D03*
X184785000Y-58181874D03*
D10*
X186055000Y-60721875D03*
D14*
X187975000Y-58141875D03*
X175275000Y-55601875D03*
G04 #@! TD*
D10*
G04 #@! TO.C,S21*
X175895000Y-98821875D03*
D11*
X177165000Y-96281875D03*
X178435000Y-93741875D03*
D12*
X180975000Y-98821875D03*
D13*
X180975000Y-98821875D03*
D11*
X183515000Y-93741875D03*
X184785000Y-96281874D03*
D10*
X186055000Y-98821875D03*
D14*
X187975000Y-96241875D03*
X175275000Y-93701875D03*
G04 #@! TD*
D10*
G04 #@! TO.C,S9*
X118745000Y-58340625D03*
D11*
X120015000Y-55800625D03*
X121285000Y-53260625D03*
D12*
X123825000Y-58340625D03*
D13*
X123825000Y-58340625D03*
D11*
X126365000Y-53260625D03*
X127635000Y-55800624D03*
D10*
X128905000Y-58340625D03*
D14*
X130825000Y-55760625D03*
X118125000Y-53220625D03*
G04 #@! TD*
D10*
G04 #@! TO.C,S10*
X118745000Y-77390625D03*
D11*
X120015000Y-74850625D03*
X121285000Y-72310625D03*
D12*
X123825000Y-77390625D03*
D13*
X123825000Y-77390625D03*
D11*
X126365000Y-72310625D03*
X127635000Y-74850624D03*
D10*
X128905000Y-77390625D03*
D14*
X130825000Y-74810625D03*
X118125000Y-72270625D03*
G04 #@! TD*
D10*
G04 #@! TO.C,S6*
X99695000Y-89296875D03*
D11*
X100965000Y-86756875D03*
X102235000Y-84216875D03*
D12*
X104775000Y-89296875D03*
D13*
X104775000Y-89296875D03*
D11*
X107315000Y-84216875D03*
X108585000Y-86756874D03*
D10*
X109855000Y-89296875D03*
D14*
X111775000Y-86716875D03*
X99075000Y-84176875D03*
G04 #@! TD*
D10*
G04 #@! TO.C,S8*
X168924347Y-118213324D03*
D11*
X170808473Y-116088573D03*
X172692599Y-113963821D03*
D12*
X173831250Y-119528125D03*
D13*
X173831250Y-119528125D03*
D11*
X177599502Y-115278622D03*
X178168828Y-118060773D03*
D10*
X178738153Y-120842926D03*
D16*
X181260484Y-118847770D03*
X169650626Y-113107316D03*
G04 #@! TD*
D10*
G04 #@! TO.C,S7*
X99695000Y-108346875D03*
D11*
X100965000Y-105806875D03*
X102235000Y-103266875D03*
D12*
X104775000Y-108346875D03*
D13*
X104775000Y-108346875D03*
D11*
X107315000Y-103266875D03*
X108585000Y-105806874D03*
D10*
X109855000Y-108346875D03*
D14*
X111775000Y-105766875D03*
X99075000Y-103226875D03*
G04 #@! TD*
D17*
G04 #@! TO.C,U2*
X221383716Y-105937819D03*
X217883716Y-111999999D03*
D18*
X214541857Y-113188268D03*
X219075575Y-114535641D03*
X221075574Y-111071538D03*
X222575574Y-108473462D03*
G04 #@! TD*
D10*
G04 #@! TO.C,S14*
X137795000Y-75009375D03*
D11*
X139065000Y-72469375D03*
X140335000Y-69929375D03*
D12*
X142875000Y-75009375D03*
D13*
X142875000Y-75009375D03*
D11*
X145415000Y-69929375D03*
X146685000Y-72469374D03*
D10*
X147955000Y-75009375D03*
D14*
X149875000Y-72429375D03*
X137175000Y-69889375D03*
G04 #@! TD*
D10*
G04 #@! TO.C,S20*
X175895000Y-79771875D03*
D11*
X177165000Y-77231875D03*
X178435000Y-74691875D03*
D12*
X180975000Y-79771875D03*
D13*
X180975000Y-79771875D03*
D11*
X183515000Y-74691875D03*
X184785000Y-77231874D03*
D10*
X186055000Y-79771875D03*
D14*
X187975000Y-77191875D03*
X175275000Y-74651875D03*
G04 #@! TD*
D10*
G04 #@! TO.C,S1*
X80645000Y-70246875D03*
D11*
X81915000Y-67706875D03*
X83185000Y-65166875D03*
D12*
X85725000Y-70246875D03*
D13*
X85725000Y-70246875D03*
D11*
X88265000Y-65166875D03*
X89535000Y-67706874D03*
D10*
X90805000Y-70246875D03*
D14*
X92725000Y-67666875D03*
X80025000Y-65126875D03*
G04 #@! TD*
D19*
G04 #@! TO.C,U1*
X194397500Y-48260000D03*
X215177500Y-48260000D03*
X194397500Y-50800000D03*
X215177500Y-50800000D03*
D20*
X194397500Y-53340000D03*
X215177500Y-53340000D03*
D19*
X194397500Y-55880000D03*
X215177500Y-55880000D03*
X194397500Y-58420000D03*
X215177500Y-58420000D03*
X194397500Y-60960000D03*
X215177500Y-60960000D03*
X194397500Y-63500000D03*
X215177500Y-63500000D03*
D20*
X194397500Y-66040000D03*
X215177500Y-66040000D03*
D19*
X194397500Y-68580000D03*
X215177500Y-68580000D03*
X194397500Y-71120000D03*
X215177500Y-71120000D03*
X194397500Y-73660000D03*
X215177500Y-73660000D03*
X194397500Y-76200000D03*
X215177500Y-76200000D03*
D20*
X194397500Y-78740000D03*
X215177500Y-78740000D03*
D19*
X194397500Y-81280000D03*
X215177500Y-81280000D03*
X194397500Y-83820000D03*
X215177500Y-83820000D03*
X194397500Y-86360000D03*
X215177500Y-86360000D03*
X194397500Y-88900000D03*
X215177500Y-88900000D03*
D20*
X194397500Y-91440000D03*
X215177500Y-91440000D03*
D19*
X194397500Y-93980000D03*
X215177500Y-93980000D03*
X194397500Y-96520000D03*
X215177500Y-96520000D03*
X197397500Y-96520000D03*
X212177500Y-96520000D03*
X197397500Y-93980000D03*
X212177500Y-93980000D03*
D20*
X197397500Y-91440000D03*
X212177500Y-91440000D03*
D19*
X197397500Y-88900000D03*
X212177500Y-88900000D03*
X197397500Y-86360000D03*
X212177500Y-86360000D03*
X197397500Y-83820000D03*
X212177500Y-83820000D03*
X197397500Y-81280000D03*
X212177500Y-81280000D03*
D20*
X197397500Y-78740000D03*
X212177500Y-78740000D03*
D19*
X197397500Y-76200000D03*
X212177500Y-76200000D03*
X197397500Y-73660000D03*
X212177500Y-73660000D03*
X197397500Y-71120000D03*
X212177500Y-71120000D03*
X197397500Y-68580000D03*
X212177500Y-68580000D03*
D20*
X197397500Y-66040000D03*
X212177500Y-66040000D03*
D19*
X197397500Y-63500000D03*
X212177500Y-63500000D03*
X197397500Y-60960000D03*
X212177500Y-60960000D03*
X197397500Y-58420000D03*
X212177500Y-58420000D03*
X197397500Y-55880000D03*
X212177500Y-55880000D03*
D20*
X197397500Y-53340000D03*
X212177500Y-53340000D03*
D19*
X197397500Y-50800000D03*
X212177500Y-50800000D03*
X197397500Y-48260000D03*
X212177500Y-48260000D03*
G04 #@! TD*
D10*
G04 #@! TO.C,S13*
X137795000Y-55959375D03*
D11*
X139065000Y-53419375D03*
X140335000Y-50879375D03*
D12*
X142875000Y-55959375D03*
D13*
X142875000Y-55959375D03*
D11*
X145415000Y-50879375D03*
X146685000Y-53419374D03*
D10*
X147955000Y-55959375D03*
D14*
X149875000Y-53379375D03*
X137175000Y-50839375D03*
G04 #@! TD*
D10*
G04 #@! TO.C,S5*
X99695000Y-70246875D03*
D11*
X100965000Y-67706875D03*
X102235000Y-65166875D03*
D12*
X104775000Y-70246875D03*
D13*
X104775000Y-70246875D03*
D11*
X107315000Y-65166875D03*
X108585000Y-67706874D03*
D10*
X109855000Y-70246875D03*
D14*
X111775000Y-67666875D03*
X99075000Y-65126875D03*
G04 #@! TD*
D10*
G04 #@! TO.C,S15*
X137795000Y-94059375D03*
D11*
X139065000Y-91519375D03*
X140335000Y-88979375D03*
D12*
X142875000Y-94059375D03*
D13*
X142875000Y-94059375D03*
D11*
X145415000Y-88979375D03*
X146685000Y-91519374D03*
D10*
X147955000Y-94059375D03*
D14*
X149875000Y-91479375D03*
X137175000Y-88939375D03*
G04 #@! TD*
D10*
G04 #@! TO.C,S17*
X156845000Y-77390625D03*
D11*
X158115000Y-74850625D03*
X159385000Y-72310625D03*
D12*
X161925000Y-77390625D03*
D13*
X161925000Y-77390625D03*
D11*
X164465000Y-72310625D03*
X165735000Y-74850624D03*
D10*
X167005000Y-77390625D03*
D14*
X168925000Y-74810625D03*
X156225000Y-72270625D03*
G04 #@! TD*
D10*
G04 #@! TO.C,S11*
X118745000Y-96440625D03*
D11*
X120015000Y-93900625D03*
X121285000Y-91360625D03*
D12*
X123825000Y-96440625D03*
D13*
X123825000Y-96440625D03*
D11*
X126365000Y-91360625D03*
X127635000Y-93900624D03*
D10*
X128905000Y-96440625D03*
D14*
X130825000Y-93860625D03*
X118125000Y-91320625D03*
G04 #@! TD*
D10*
G04 #@! TO.C,S16*
X156845000Y-58340625D03*
D11*
X158115000Y-55800625D03*
X159385000Y-53260625D03*
D12*
X161925000Y-58340625D03*
D13*
X161925000Y-58340625D03*
D11*
X164465000Y-53260625D03*
X165735000Y-55800624D03*
D10*
X167005000Y-58340625D03*
D14*
X168925000Y-55760625D03*
X156225000Y-53220625D03*
G04 #@! TD*
D17*
G04 #@! TO.C,U3*
X213900000Y-109700000D03*
X217400000Y-103637820D03*
D21*
X214541858Y-113188269D03*
X211108141Y-109935641D03*
X213108142Y-106471539D03*
X214608143Y-103873464D03*
G04 #@! TD*
M02*
