<?xml version="1.0" standalone="no"?>
<!DOCTYPE svg PUBLIC "-//W3C//DTD SVG 20010904//EN"
 "http://www.w3.org/TR/2001/REC-SVG-20010904/DTD/svg10.dtd">
<svg version="1.0" xmlns="http://www.w3.org/2000/svg"
 width="1118.000000pt" height="470.000000pt" viewBox="0 0 1118.000000 470.000000"
 preserveAspectRatio="xMidYMid meet">

<g transform="translate(0.000000,470.000000) scale(0.100000,-0.100000)"
fill="#000000" stroke="none">
<path d="M5942 3855 c-51 -19 -105 -43 -120 -53 -15 -10 -155 -90 -312 -178
l-285 -159 -130 -126 -130 -125 -515 -23 c-724 -31 -1201 -78 -1625 -161 -165
-32 -388 -75 -495 -95 -107 -20 -325 -70 -485 -111 l-290 -75 -130 -78 c-71
-43 -154 -91 -183 -105 -63 -32 -80 -61 -65 -111 11 -33 10 -34 -20 -37 -45
-4 -55 -28 -32 -77 10 -23 18 -48 18 -57 0 -8 33 -47 74 -87 66 -65 86 -77
196 -125 67 -29 178 -73 247 -97 69 -23 213 -77 320 -118 l195 -74 195 -22
c143 -16 347 -53 760 -138 l565 -115 485 -49 c413 -41 517 -49 700 -49 l214 0
236 -89 235 -88 332 -43 c183 -24 336 -40 340 -36 5 4 10 50 11 101 l4 93 -51
76 c-28 41 -51 78 -51 81 0 3 35 5 78 5 66 0 146 18 546 120 258 66 475 120
482 120 8 0 136 -47 285 -105 150 -58 277 -105 283 -105 23 0 127 116 131 146
13 104 8 149 -24 212 -23 45 -28 64 -19 67 106 39 174 52 483 95 l349 48 283
-166 c223 -131 324 -198 473 -312 l189 -145 181 -68 180 -68 57 12 c31 7 67
22 80 33 l23 21 -124 280 -124 280 -124 115 c-68 63 -167 156 -220 205 l-97
90 125 165 c108 143 139 193 228 370 80 157 132 244 221 370 74 103 124 185
135 218 17 52 17 53 -3 67 -12 8 -29 15 -38 15 -9 0 -96 -37 -194 -82 l-179
-82 -345 -258 c-291 -217 -355 -261 -404 -274 -52 -15 -61 -22 -95 -72 -36
-54 -40 -56 -162 -105 l-125 -50 -180 17 c-122 11 -228 28 -330 53 l-151 35
56 55 c63 63 67 62 -101 18 l-105 -29 -610 97 c-455 73 -1132 175 -1171 177
-1 0 18 32 43 72 l44 72 0 296 c0 293 0 295 -23 324 -36 45 -98 45 -215 1z
m166 -315 l2 -295 -69 -69 -70 -69 -446 43 -446 44 103 102 c93 92 132 120
413 299 314 201 403 246 475 242 l35 -2 3 -295z m4065 -57 c-4 -10 -60 -92
-124 -183 -89 -125 -140 -211 -213 -358 -81 -162 -116 -219 -219 -357 -72 -96
-130 -165 -141 -167 -11 -2 -21 -8 -23 -14 -2 -6 102 -109 231 -229 l235 -218
113 -255 c62 -140 114 -258 116 -263 2 -4 -21 -10 -50 -14 -51 -6 -66 -2 -239
65 l-184 72 -145 133 c-144 133 -146 135 -393 272 l-247 138 47 6 c55 7 223
87 223 106 0 7 -12 37 -27 67 l-26 54 71 86 c40 46 72 90 72 97 0 16 -70 129
-80 129 -5 0 -18 -30 -31 -67 -14 -45 -42 -94 -81 -145 -32 -42 -58 -82 -58
-88 0 -6 13 -31 30 -54 l29 -43 -132 -36 c-118 -32 -173 -40 -512 -72 l-380
-36 -389 -132 c-337 -114 -391 -135 -404 -157 -14 -24 -32 -28 -526 -118
l-511 -92 -394 0 -393 0 -177 -52 -176 -51 -390 17 c-214 9 -449 16 -522 16
-106 0 -177 7 -370 39 -131 21 -361 56 -512 77 -236 32 -271 39 -255 51 24 18
33 17 392 -18 172 -16 326 -29 340 -27 17 2 -53 28 -188 70 -202 63 -232 69
-500 107 -157 23 -293 41 -304 41 -16 0 -17 -5 -12 -45 4 -25 4 -45 -1 -45 -4
0 -60 9 -123 20 -77 13 -161 20 -256 20 -77 0 -144 4 -150 9 -5 5 -144 53
-309 106 -165 53 -365 124 -445 157 -134 56 -150 66 -212 127 -38 36 -68 71
-68 78 0 7 20 23 44 35 44 21 44 21 109 3 60 -18 66 -22 91 -67 28 -50 45 -58
66 -33 7 8 16 15 20 15 5 0 56 -23 115 -51 98 -48 110 -51 164 -47 71 5 128
39 168 100 26 38 28 50 30 152 1 61 8 144 15 183 l13 73 126 -73 126 -72 43
-122 c23 -68 46 -123 51 -123 5 0 9 46 9 103 l0 102 76 54 75 53 117 -22 117
-23 64 -208 c36 -115 68 -209 71 -209 4 0 13 81 20 180 l13 180 71 0 c39 0
343 -11 676 -25 838 -34 733 -40 923 52 l158 77 357 -27 c196 -15 371 -28 387
-27 17 0 125 45 249 105 120 58 227 105 238 105 11 0 461 -65 1000 -145 539
-80 995 -145 1012 -145 17 0 176 25 353 57 l322 57 118 -22 c65 -12 124 -22
131 -22 8 0 12 17 12 53 l1 52 79 48 c44 27 80 52 80 57 0 4 -14 13 -32 19
l-31 11 22 23 c12 13 45 35 74 48 28 13 207 133 396 267 276 195 373 258 490
317 80 41 151 74 158 74 8 1 10 -6 6 -16z m-8298 -936 c97 -55 116 -210 36
-301 -66 -75 -207 -72 -277 6 -72 78 -70 206 2 269 62 54 169 66 239 26z
m5994 -659 l34 -52 -17 -92 c-24 -126 -18 -126 -268 -28 -109 43 -198 80 -198
83 0 5 385 135 410 140 3 0 20 -23 39 -51z m-1781 -450 c42 -40 80 -77 84 -83
3 -5 9 -40 13 -77 7 -67 7 -68 -16 -68 -13 0 -145 16 -294 35 -279 36 -584
100 -613 129 -8 8 -16 30 -17 49 l-3 34 96 26 c93 24 109 25 385 26 l288 1 77
-72z"/>
<path d="M5927 3684 c-49 -11 -102 -44 -325 -200 -256 -178 -296 -213 -250
-222 9 -2 124 71 256 162 171 118 261 174 318 196 96 38 109 48 93 66 -14 17
-17 16 -92 -2z"/>
<path d="M9535 3062 c-300 -218 -343 -252 -363 -292 -45 -89 -6 -117 51 -37
24 33 119 112 333 275 165 125 312 236 328 248 29 21 32 55 4 53 -7 0 -166
-112 -353 -247z"/>
<path d="M1743 2502 c-13 -2 -36 -17 -52 -33 -47 -47 -47 -101 0 -148 46 -47
101 -47 148 -1 47 47 47 102 1 149 -30 29 -58 39 -97 33z"/>
</g>
</svg>
